M48
;DRILL file {Pcbnew (2012-01-19 BZR 3256)-stable} date 04/03/2012 22:24:22
;FORMAT={-:-/ absolute / metric / decimal}
FMAT,2
METRIC,TZ
T1C0.201
T2C0.300
T3C0.500
T4C0.800
T5C0.813
T6C1.016
%
G90
G05
M71
T1
X40.300Y-73.025
X40.800Y-122.199
X40.851Y-55.999
X40.899Y-77.000
X40.899Y-78.001
X40.899Y-129.200
X40.950Y-78.999
X40.950Y-80.000
X40.950Y-81.001
X40.950Y-82.001
X40.950Y-83.000
X40.950Y-84.000
X40.950Y-85.001
X40.950Y-85.999
X40.950Y-125.700
X41.001Y-73.500
X41.049Y-115.199
X41.049Y-118.699
X41.100Y-72.250
X41.199Y-59.500
X41.900Y-53.500
X41.951Y-51.501
X41.951Y-55.499
X41.953Y-54.503
X41.999Y-49.500
X41.999Y-50.500
X41.999Y-62.499
X41.999Y-64.000
X41.999Y-71.501
X41.999Y-74.000
X41.999Y-78.501
X41.999Y-79.499
X41.999Y-80.500
X41.999Y-81.501
X41.999Y-82.499
X41.999Y-83.500
X41.999Y-84.501
X41.999Y-85.499
X42.001Y-77.503
X42.050Y-58.999
X42.850Y-42.850
X43.124Y-95.999
X43.299Y-89.251
X43.500Y-42.451
X43.500Y-48.100
X44.849Y-49.751
X44.849Y-85.126
X45.750Y-51.049
X45.750Y-55.700
X46.449Y-48.100
X46.500Y-39.299
X47.300Y-43.299
X47.800Y-154.851
X47.800Y-155.900
X47.899Y-149.550
X48.301Y-156.700
X49.500Y-55.001
X49.502Y-156.647
X50.147Y-90.792
X50.851Y-63.851
X50.851Y-81.900
X50.899Y-116.149
X50.899Y-122.250
X50.950Y-149.126
X51.148Y-90.592
X51.151Y-56.401
X51.151Y-62.499
X51.399Y-154.650
X51.399Y-155.699
X51.450Y-70.249
X51.501Y-112.649
X51.651Y-123.000
X51.651Y-129.250
X52.200Y-106.002
X52.250Y-63.525
X52.601Y-112.649
X52.949Y-103.200
X53.200Y-32.850
X53.200Y-99.251
X53.576Y-72.575
X53.650Y-48.801
X53.650Y-112.499
X53.950Y-97.399
X54.000Y-98.450
X54.000Y-103.251
X54.150Y-105.049
X54.374Y-91.651
X54.600Y-152.301
X54.801Y-112.050
X54.950Y-110.800
X55.049Y-98.999
X55.100Y-103.251
X56.050Y-48.951
X56.149Y-155.499
X56.149Y-156.449
X56.149Y-157.500
X56.200Y-103.350
X56.200Y-112.601
X56.200Y-151.100
X56.251Y-48.049
X56.251Y-88.951
X56.299Y-109.149
X56.350Y-49.901
X56.375Y-63.525
X56.949Y-95.951
X56.949Y-99.101
X57.023Y-43.180
X57.150Y-47.650
X57.173Y-41.181
X57.201Y-122.900
X57.201Y-123.726
X57.201Y-125.550
X57.226Y-124.600
X57.226Y-126.426
X57.274Y-42.230
X57.450Y-77.450
X57.501Y-155.451
X57.526Y-156.474
X57.600Y-50.150
X57.650Y-32.901
X57.701Y-31.001
X57.701Y-34.900
X57.800Y-53.050
X58.001Y-94.851
X58.049Y-93.050
X58.049Y-96.401
X58.049Y-106.350
X58.151Y-97.399
X58.349Y-34.000
X58.400Y-68.001
X58.400Y-124.475
X58.750Y-155.451
X58.849Y-32.050
X58.849Y-107.899
X58.999Y-37.051
X58.999Y-69.149
X58.999Y-70.249
X58.999Y-123.701
X59.101Y-148.151
X59.550Y-31.549
X59.550Y-37.800
X59.550Y-67.399
X59.550Y-71.199
X59.550Y-124.600
X59.700Y-98.049
X60.000Y-102.352
X60.099Y-32.700
X60.099Y-36.401
X60.099Y-63.701
X60.099Y-68.501
X60.099Y-122.900
X60.099Y-125.651
X60.350Y-148.651
X60.350Y-149.700
X60.650Y-35.649
X60.650Y-66.751
X60.650Y-126.799
X60.724Y-93.475
X60.749Y-33.350
X61.199Y-69.649
X61.199Y-74.399
X61.199Y-75.700
X61.199Y-96.401
X61.199Y-127.800
X61.199Y-131.501
X61.199Y-132.799
X61.250Y-76.500
X61.399Y-38.550
X61.399Y-40.899
X61.750Y-128.900
X61.775Y-114.549
X61.951Y-46.901
X62.222Y-39.182
X62.301Y-90.599
X62.301Y-125.499
X62.349Y-122.799
X62.400Y-92.199
X62.451Y-102.751
X62.451Y-104.501
X62.451Y-147.701
X62.499Y-75.049
X62.550Y-71.951
X62.601Y-59.101
X62.601Y-81.300
X62.649Y-50.099
X62.799Y-64.351
X62.799Y-70.551
X63.050Y-91.300
X63.050Y-121.849
X63.050Y-132.151
X63.149Y-123.701
X63.149Y-126.850
X63.200Y-127.899
X63.200Y-128.999
X63.350Y-103.500
X63.449Y-92.199
X63.500Y-77.450
X63.599Y-148.750
X64.099Y-48.699
X64.249Y-60.599
X64.399Y-150.150
X64.651Y-124.300
X64.800Y-59.101
X64.800Y-72.200
X64.950Y-62.451
X65.052Y-151.000
X65.052Y-155.202
X65.700Y-48.750
X65.700Y-102.100
X65.725Y-49.649
X65.750Y-100.701
X66.401Y-73.000
X66.500Y-70.551
X66.551Y-95.750
X66.650Y-74.450
X66.700Y-48.750
X66.700Y-64.351
X66.751Y-120.200
X66.751Y-138.300
X66.799Y-150.000
X66.850Y-121.849
X66.850Y-132.151
X67.000Y-127.899
X67.099Y-97.150
X67.351Y-126.700
X67.399Y-71.199
X67.399Y-130.000
X67.452Y-150.901
X67.452Y-154.950
X67.650Y-81.300
X67.650Y-98.400
X67.899Y-128.549
X67.950Y-43.101
X68.001Y-41.501
X68.199Y-97.051
X68.301Y-63.701
X68.501Y-77.099
X68.750Y-96.299
X68.999Y-30.500
X69.101Y-65.349
X69.149Y-121.201
X69.149Y-138.300
X69.149Y-150.051
X69.251Y-41.501
X69.251Y-43.101
X69.751Y-134.051
X69.799Y-123.101
X69.802Y-150.851
X69.802Y-155.402
X70.150Y-100.650
X70.701Y-104.300
X71.100Y-146.050
X71.150Y-88.600
X71.394Y-28.948
X71.450Y-117.201
X71.549Y-46.500
X71.549Y-98.750
X72.395Y-28.948
X73.147Y-118.504
X73.147Y-146.949
X73.149Y-61.603
X73.149Y-90.043
X73.393Y-28.948
X73.749Y-96.850
X73.845Y-119.154
X73.848Y-62.253
X73.848Y-90.693
X74.201Y-152.824
X74.249Y-163.650
X74.300Y-100.599
X75.250Y-163.700
X75.400Y-28.049
X75.400Y-102.751
X75.900Y-28.948
X76.251Y-163.700
X76.299Y-91.201
X76.299Y-149.649
X76.401Y-27.998
X76.551Y-92.301
X76.599Y-115.250
X76.650Y-58.303
X76.700Y-113.949
X76.751Y-63.652
X76.751Y-121.651
X76.799Y-85.499
X76.799Y-86.799
X76.850Y-56.949
X76.850Y-142.298
X76.850Y-143.500
X76.901Y-28.948
X77.125Y-113.251
X77.201Y-69.601
X77.201Y-111.349
X77.201Y-112.400
X77.300Y-139.700
X77.351Y-82.649
X77.351Y-144.450
X77.399Y-27.998
X77.399Y-87.551
X77.450Y-81.549
X77.500Y-92.799
X77.500Y-138.199
X77.549Y-64.399
X77.549Y-84.849
X77.549Y-86.197
X77.549Y-114.648
X77.549Y-120.650
X77.600Y-55.400
X77.600Y-56.350
X77.600Y-83.599
X77.600Y-141.699
X77.650Y-140.599
X77.650Y-142.900
X77.749Y-54.249
X77.749Y-57.450
X77.899Y-28.951
X77.899Y-115.999
X78.049Y-65.649
X78.049Y-94.150
X78.049Y-121.900
X78.250Y-58.849
X78.250Y-143.949
X78.250Y-162.751
X78.400Y-27.950
X78.501Y-115.151
X78.550Y-64.399
X78.550Y-92.799
X78.550Y-120.650
X78.750Y-163.650
X78.849Y-86.500
X78.900Y-28.948
X78.900Y-58.100
X79.050Y-65.649
X79.050Y-94.150
X79.050Y-121.900
X79.251Y-143.749
X79.251Y-162.751
X79.400Y-35.799
X79.451Y-128.849
X79.550Y-64.399
X79.550Y-92.799
X79.550Y-120.650
X79.751Y-163.650
X79.901Y-36.551
X79.901Y-58.151
X80.000Y-115.100
X80.051Y-65.649
X80.051Y-94.150
X80.051Y-121.900
X80.249Y-162.751
X80.401Y-35.751
X80.599Y-86.599
X80.749Y-163.551
X80.899Y-36.500
X81.049Y-64.399
X81.049Y-92.751
X81.049Y-120.650
X81.250Y-162.649
X81.399Y-35.700
X81.450Y-158.999
X81.549Y-65.601
X81.549Y-94.150
X81.549Y-121.900
X81.600Y-52.802
X81.600Y-82.250
X81.600Y-109.949
X81.699Y-138.801
X81.750Y-163.599
X81.900Y-28.951
X81.999Y-87.300
X82.050Y-64.399
X82.050Y-92.751
X82.050Y-120.650
X82.100Y-58.801
X82.301Y-114.498
X82.301Y-144.150
X82.400Y-28.049
X82.550Y-65.601
X82.550Y-94.150
X82.550Y-121.900
X82.601Y-112.550
X82.649Y-76.398
X82.700Y-104.750
X82.725Y-55.654
X82.799Y-132.999
X82.901Y-36.500
X82.901Y-140.251
X83.000Y-83.350
X83.000Y-111.501
X83.050Y-54.801
X83.101Y-141.501
X83.124Y-84.600
X83.124Y-113.050
X83.175Y-85.601
X83.200Y-57.150
X83.226Y-56.149
X83.226Y-142.499
X83.251Y-114.051
X83.299Y-149.400
X83.401Y-35.649
X83.401Y-48.003
X83.449Y-77.650
X83.449Y-106.050
X83.899Y-36.500
X84.399Y-35.649
X84.750Y-162.649
X84.900Y-36.551
X84.900Y-91.097
X85.001Y-119.499
X85.148Y-62.702
X85.199Y-148.049
X85.250Y-163.551
X85.395Y-28.948
X85.446Y-106.655
X85.446Y-135.100
X85.448Y-49.754
X85.448Y-78.194
X85.700Y-69.601
X85.895Y-27.948
X85.900Y-64.900
X85.946Y-107.353
X85.946Y-135.799
X85.949Y-50.452
X85.949Y-62.004
X85.949Y-78.892
X86.098Y-90.498
X86.248Y-147.450
X86.251Y-119.598
X86.449Y-59.200
X86.449Y-87.249
X86.500Y-115.649
X86.551Y-116.749
X86.650Y-88.397
X86.650Y-144.249
X86.650Y-145.250
X86.700Y-61.204
X86.700Y-108.999
X87.150Y-60.051
X87.351Y-65.451
X87.351Y-66.850
X87.600Y-52.454
X87.749Y-80.599
X87.800Y-108.849
X87.800Y-137.749
X88.001Y-158.999
X88.100Y-63.200
X88.100Y-69.050
X88.250Y-163.650
X88.400Y-118.301
X88.750Y-162.649
X88.849Y-65.550
X88.849Y-68.100
X88.951Y-126.799
X89.451Y-114.501
X89.499Y-113.200
X89.550Y-110.051
X89.550Y-111.049
X89.550Y-112.050
X89.550Y-124.651
X89.601Y-138.501
X89.601Y-139.499
X89.601Y-140.500
X89.601Y-141.501
X89.601Y-142.499
X89.850Y-81.600
X89.850Y-82.601
X89.850Y-83.599
X89.850Y-84.600
X89.850Y-85.649
X89.949Y-68.948
X90.048Y-66.197
X90.099Y-63.848
X90.350Y-53.150
X90.350Y-54.150
X90.350Y-55.151
X90.350Y-56.149
X90.899Y-112.550
X90.899Y-113.901
X90.899Y-115.049
X90.950Y-111.549
X91.001Y-110.551
X91.300Y-138.999
X91.300Y-140.000
X91.300Y-141.000
X91.300Y-142.001
X91.300Y-142.999
X91.399Y-82.100
X91.450Y-83.101
X91.450Y-84.099
X91.501Y-53.650
X91.501Y-54.651
X91.501Y-55.649
X91.501Y-56.650
X91.501Y-85.100
X91.501Y-86.200
X91.951Y-120.650
X91.999Y-122.951
X92.199Y-126.350
X92.400Y-59.751
X92.550Y-57.150
X93.449Y-57.899
X94.051Y-67.549
X94.249Y-66.197
X94.249Y-68.948
X94.297Y-63.848
X95.649Y-63.200
X95.649Y-66.200
X95.849Y-124.651
X95.951Y-126.350
X96.050Y-120.650
X96.101Y-122.951
X96.299Y-64.501
X96.401Y-40.051
X96.401Y-41.300
X96.799Y-120.000
X97.000Y-63.251
X97.150Y-62.050
X97.500Y-121.300
X97.600Y-159.451
X97.699Y-32.850
X97.848Y-36.299
X98.001Y-65.550
X98.049Y-67.549
X98.199Y-117.551
X98.199Y-120.000
X98.699Y-122.301
X98.849Y-137.899
X98.900Y-145.049
X98.900Y-153.251
X98.951Y-87.749
X99.154Y-28.852
X99.200Y-70.350
X99.200Y-162.601
X99.251Y-59.604
X99.299Y-80.950
X99.350Y-38.499
X99.350Y-40.551
X99.499Y-37.450
X99.499Y-117.650
X99.550Y-154.351
X99.654Y-28.052
X99.700Y-163.500
X99.901Y-66.149
X100.150Y-144.800
X100.200Y-127.000
X100.300Y-59.500
X100.653Y-28.801
X100.701Y-162.601
X100.851Y-115.649
X100.851Y-154.000
X100.998Y-34.000
X101.046Y-118.506
X101.046Y-146.952
X101.049Y-61.598
X101.049Y-90.051
X101.351Y-123.599
X101.653Y-28.052
X101.699Y-163.650
X101.745Y-119.156
X101.745Y-147.602
X101.747Y-62.248
X101.747Y-90.701
X102.154Y-28.801
X102.199Y-162.601
X102.654Y-28.001
X102.700Y-163.650
X103.154Y-28.804
X103.200Y-162.601
X103.652Y-27.953
X103.701Y-121.150
X103.701Y-163.650
X103.749Y-132.601
X104.153Y-28.804
X104.201Y-162.601
X104.501Y-143.701
X104.501Y-149.700
X104.600Y-115.250
X104.651Y-58.301
X104.651Y-86.749
X104.653Y-27.953
X104.699Y-142.349
X104.699Y-163.650
X104.750Y-56.949
X104.750Y-63.904
X104.750Y-85.349
X104.750Y-113.899
X104.950Y-91.999
X105.151Y-139.700
X105.153Y-28.804
X105.199Y-82.598
X105.199Y-162.601
X105.250Y-111.199
X105.250Y-124.351
X105.301Y-143.149
X105.400Y-54.204
X105.400Y-55.250
X105.451Y-64.399
X105.451Y-93.149
X105.451Y-113.251
X105.451Y-114.600
X105.451Y-121.049
X105.499Y-56.352
X105.499Y-57.650
X105.499Y-81.699
X105.499Y-86.149
X105.499Y-141.699
X105.550Y-84.798
X105.550Y-112.151
X105.550Y-138.300
X105.601Y-83.698
X105.601Y-140.650
X105.654Y-27.953
X105.700Y-163.650
X105.750Y-116.050
X105.801Y-59.152
X105.801Y-144.501
X105.849Y-87.597
X105.951Y-65.649
X105.951Y-94.800
X105.951Y-122.250
X106.154Y-28.804
X106.200Y-162.601
X106.251Y-58.250
X106.350Y-115.151
X106.401Y-86.751
X106.449Y-64.399
X106.449Y-93.149
X106.449Y-121.049
X106.652Y-27.953
X106.700Y-163.650
X106.949Y-65.649
X106.949Y-94.800
X106.949Y-115.410
X106.949Y-122.250
X106.949Y-143.850
X107.150Y-159.101
X107.152Y-28.804
X107.201Y-162.601
X107.399Y-86.700
X107.450Y-64.399
X107.450Y-93.149
X107.450Y-121.049
X107.650Y-31.801
X107.950Y-65.649
X107.950Y-94.851
X107.950Y-122.250
X108.141Y-116.060
X108.151Y-33.000
X108.400Y-58.349
X108.621Y-115.550
X108.651Y-31.801
X108.699Y-87.399
X108.951Y-64.399
X108.951Y-93.149
X108.951Y-121.049
X109.149Y-33.000
X109.329Y-115.529
X109.451Y-65.649
X109.451Y-94.899
X109.451Y-122.250
X109.499Y-53.002
X109.499Y-139.050
X109.649Y-31.801
X109.698Y-82.451
X109.799Y-109.850
X109.901Y-58.801
X109.949Y-64.399
X109.949Y-93.200
X109.949Y-121.049
X110.099Y-39.649
X110.129Y-115.580
X110.152Y-27.953
X110.200Y-114.831
X110.200Y-143.401
X110.200Y-162.100
X110.449Y-56.276
X110.449Y-65.649
X110.449Y-94.950
X110.449Y-112.550
X110.449Y-122.250
X110.500Y-54.600
X110.551Y-104.549
X110.650Y-55.649
X110.653Y-28.804
X110.701Y-44.249
X110.701Y-163.101
X110.726Y-140.500
X110.749Y-76.299
X110.800Y-111.849
X110.800Y-132.250
X110.924Y-141.501
X110.950Y-83.599
X111.001Y-84.600
X111.074Y-85.601
X111.100Y-57.150
X111.100Y-113.050
X111.150Y-31.801
X111.150Y-47.902
X111.150Y-114.051
X111.150Y-142.499
X111.399Y-149.850
X111.651Y-33.200
X112.151Y-31.801
X112.301Y-64.153
X112.649Y-33.200
X112.799Y-119.799
X112.898Y-91.097
X113.149Y-31.801
X113.299Y-159.101
X113.345Y-106.657
X113.345Y-135.103
X113.348Y-49.748
X113.348Y-78.202
X113.350Y-148.049
X113.449Y-62.001
X113.652Y-28.801
X113.701Y-162.100
X113.845Y-107.356
X113.845Y-135.801
X113.848Y-118.948
X114.099Y-78.748
X114.249Y-147.500
X114.300Y-91.097
X114.399Y-58.849
X114.399Y-59.903
X114.447Y-87.198
X114.501Y-88.397
X114.600Y-144.249
X114.651Y-51.100
X114.651Y-115.700
X114.651Y-145.250
X114.699Y-116.698
X115.001Y-136.401
X115.100Y-146.601
X115.301Y-79.799
X115.600Y-52.553
X115.600Y-108.400
X116.360Y-117.569
X116.799Y-138.501
X116.799Y-139.499
X116.799Y-140.500
X116.799Y-141.501
X116.799Y-142.550
X117.150Y-64.351
X117.345Y-113.055
X117.351Y-110.051
X117.351Y-111.049
X117.351Y-112.050
X117.351Y-114.099
X117.899Y-82.100
X117.899Y-83.101
X117.899Y-84.099
X117.899Y-85.100
X117.899Y-86.101
X118.049Y-53.150
X118.049Y-54.150
X118.049Y-55.151
X118.549Y-138.999
X118.549Y-140.000
X118.549Y-141.000
X118.549Y-142.001
X118.549Y-143.149
X118.801Y-63.551
X119.451Y-110.551
X119.492Y-111.557
X119.499Y-112.550
X119.499Y-113.551
X119.499Y-114.651
X119.700Y-53.650
X119.700Y-54.651
X119.799Y-81.600
X119.799Y-82.601
X119.799Y-83.599
X119.799Y-84.600
X119.799Y-85.601
X120.551Y-55.649
X120.650Y-56.650
X121.150Y-58.301
X121.651Y-56.149
X121.699Y-57.351
X123.599Y-60.800
X124.475Y-85.199
X125.250Y-123.650
X125.600Y-144.150
X125.651Y-41.951
X125.750Y-100.449
X125.801Y-101.501
X125.951Y-43.650
X125.951Y-99.350
X126.299Y-102.301
X126.350Y-81.399
X126.601Y-115.849
X126.601Y-122.250
X126.700Y-54.501
X126.949Y-82.349
X126.949Y-86.200
X127.000Y-55.400
X127.399Y-62.649
X127.399Y-123.050
X127.399Y-129.149
X127.599Y-81.501
X127.701Y-51.900
X128.100Y-93.749
X128.400Y-79.550
X128.801Y-52.451
X128.801Y-81.450
X128.951Y-152.499
X129.451Y-82.301
X129.451Y-86.149
X129.451Y-153.800
X129.499Y-97.899
X129.550Y-95.199
X129.601Y-96.949
X129.649Y-52.949
X129.751Y-53.899
X129.946Y-155.349
X130.000Y-54.900
X130.299Y-93.251
X130.500Y-76.949
X130.551Y-65.250
X130.599Y-96.949
X130.701Y-95.199
X130.800Y-153.749
X131.450Y-55.649
X131.597Y-159.050
X131.750Y-49.251
X131.750Y-141.801
X131.801Y-102.751
X131.900Y-82.199
X131.900Y-86.200
X132.398Y-159.949
X132.550Y-80.950
X132.850Y-43.899
X132.900Y-32.149
X133.149Y-100.749
X133.198Y-159.299
X133.551Y-140.251
X133.749Y-101.450
X134.150Y-92.100
X134.549Y-47.201
X134.699Y-93.599
X134.699Y-94.501
X134.750Y-92.799
X135.001Y-139.901
X135.151Y-100.800
X135.250Y-99.850
X136.350Y-101.051
X136.649Y-140.200
X136.751Y-49.901
X137.348Y-101.003
X137.551Y-141.801
X137.950Y-160.000
X138.151Y-158.001
X138.151Y-161.501
X138.400Y-101.102
X139.047Y-155.049
X139.398Y-101.201
X139.499Y-76.901
X139.499Y-77.899
X139.499Y-78.900
X139.499Y-79.901
X139.499Y-80.899
X139.499Y-81.900
X139.499Y-82.901
X139.499Y-83.899
X139.499Y-84.900
X139.499Y-85.900
X139.601Y-50.401
X139.601Y-53.401
X139.601Y-54.399
X139.649Y-49.400
X139.649Y-51.399
X139.649Y-55.400
X140.099Y-58.900
X140.299Y-55.900
X140.551Y-77.399
X140.551Y-78.400
X140.551Y-79.400
X140.551Y-80.401
X140.551Y-81.399
X140.551Y-82.400
X140.551Y-83.401
X140.551Y-84.399
X140.599Y-62.400
X140.599Y-63.899
X140.599Y-71.399
X140.599Y-85.400
X140.701Y-125.600
X140.749Y-73.401
X140.800Y-118.600
X140.851Y-122.100
X141.000Y-115.100
X141.249Y-129.101
X141.950Y-43.800
X142.001Y-41.951
T2
X55.674Y-152.250
X59.350Y-107.175
X66.299Y-45.799
X66.350Y-44.724
X70.599Y-80.851
X70.599Y-109.350
X70.650Y-107.450
X70.749Y-137.701
X71.049Y-52.499
X71.049Y-60.150
X71.150Y-106.050
X71.501Y-134.699
X71.801Y-76.700
X71.999Y-105.001
X72.050Y-48.750
X72.151Y-133.650
X72.200Y-145.199
X72.301Y-59.550
X72.301Y-88.049
X72.301Y-116.500
X72.451Y-75.499
X72.649Y-47.351
X72.649Y-77.600
X73.101Y-132.850
X73.899Y-75.601
X73.950Y-147.599
X74.000Y-47.351
X75.801Y-132.700
X75.951Y-75.301
X75.951Y-103.950
X75.999Y-47.351
X76.101Y-119.649
X76.200Y-62.502
X76.251Y-148.250
X78.847Y-111.854
X78.847Y-112.804
X78.847Y-113.754
X78.847Y-140.299
X78.847Y-141.249
X78.847Y-142.199
X78.849Y-54.953
X78.849Y-55.903
X78.849Y-56.853
X78.849Y-83.393
X78.849Y-84.343
X78.849Y-85.293
X79.797Y-111.854
X79.797Y-113.754
X79.797Y-140.299
X79.797Y-142.199
X79.799Y-54.953
X79.799Y-56.853
X79.799Y-83.393
X79.799Y-85.293
X79.799Y-112.804
X79.799Y-141.249
X79.802Y-55.903
X79.802Y-84.343
X80.747Y-111.854
X80.747Y-112.804
X80.747Y-113.754
X80.747Y-140.299
X80.747Y-141.249
X80.747Y-142.199
X80.749Y-54.953
X80.749Y-55.903
X80.749Y-56.853
X80.749Y-83.393
X80.749Y-84.343
X80.749Y-85.293
X83.299Y-134.450
X83.401Y-62.702
X83.449Y-91.148
X83.449Y-119.700
X83.500Y-49.152
X83.500Y-148.199
X86.551Y-80.498
X86.599Y-52.052
X86.599Y-137.249
X87.099Y-118.049
X87.099Y-146.500
X87.249Y-89.649
X98.801Y-109.400
X99.050Y-52.451
X99.850Y-116.449
X99.901Y-48.301
X100.051Y-87.998
X100.051Y-106.299
X100.300Y-47.201
X100.500Y-134.899
X100.551Y-49.350
X100.551Y-75.849
X100.551Y-77.800
X100.551Y-104.950
X100.650Y-132.700
X100.650Y-133.800
X101.801Y-75.499
X101.849Y-104.249
X101.951Y-47.201
X103.850Y-46.800
X103.850Y-75.301
X103.901Y-104.201
X103.950Y-90.947
X104.000Y-148.100
X104.150Y-119.901
X104.249Y-62.502
X106.746Y-111.857
X106.746Y-112.806
X106.746Y-113.756
X106.746Y-140.302
X106.746Y-141.252
X106.746Y-142.202
X106.749Y-54.948
X106.749Y-55.898
X106.749Y-56.848
X106.749Y-83.401
X106.749Y-84.351
X106.749Y-85.301
X107.696Y-111.857
X107.696Y-113.756
X107.696Y-140.302
X107.696Y-142.202
X107.699Y-54.948
X107.699Y-56.848
X107.699Y-83.401
X107.699Y-85.301
X107.699Y-112.806
X107.699Y-141.252
X107.701Y-55.898
X107.701Y-84.351
X108.646Y-111.857
X108.646Y-112.806
X108.646Y-113.756
X108.646Y-140.302
X108.646Y-141.252
X108.646Y-142.202
X108.649Y-54.948
X108.649Y-55.898
X108.649Y-56.848
X108.649Y-83.401
X108.649Y-84.351
X108.649Y-85.301
X111.201Y-119.748
X111.249Y-77.549
X111.300Y-148.300
X111.351Y-49.152
X111.351Y-62.802
X111.351Y-91.148
X111.351Y-106.050
X111.351Y-134.549
X114.399Y-137.549
X114.450Y-52.304
X114.501Y-80.698
X114.549Y-108.999
X114.750Y-61.204
X115.100Y-89.649
X115.499Y-118.298
X121.750Y-153.251
X121.750Y-156.949
X123.850Y-153.251
X123.901Y-156.949
X129.751Y-147.599
X129.751Y-149.149
X130.650Y-112.700
X131.351Y-147.599
X131.351Y-149.200
X136.200Y-109.250
X136.200Y-132.951
X136.700Y-149.400
X138.049Y-153.599
X138.151Y-150.500
X138.750Y-132.601
X139.550Y-147.249
X139.550Y-153.700
X140.749Y-155.001
T3
X44.900Y-149.200
X47.676Y-151.600
X49.400Y-132.100
X51.450Y-107.000
X53.274Y-85.999
X54.326Y-95.151
X56.251Y-74.176
X56.276Y-76.175
X56.401Y-44.900
X56.449Y-68.925
X56.650Y-62.400
X57.074Y-79.576
X66.774Y-148.826
X69.400Y-105.225
X77.399Y-100.200
X101.976Y-43.749
X102.426Y-71.524
X128.651Y-87.600
X128.801Y-80.449
X131.224Y-77.925
X131.224Y-87.150
X131.549Y-41.900
X134.099Y-41.900
X136.825Y-41.951
X136.825Y-44.651
T4
X60.526Y-156.126
X63.050Y-98.875
X63.975Y-110.424
X67.975Y-49.926
X119.799Y-116.860
X119.799Y-119.400
X119.809Y-121.940
X119.809Y-124.480
X129.990Y-143.571
X134.661Y-96.129
X136.200Y-106.299
X136.200Y-135.999
X136.949Y-92.250
X138.760Y-106.309
X138.770Y-135.999
X139.540Y-145.580
X139.690Y-149.040
X141.300Y-106.299
X141.300Y-135.999
T5
X93.706Y-94.399
X96.246Y-94.399
T6
X45.555Y-87.960
X45.555Y-90.500
X45.555Y-93.040
X45.555Y-95.580
X45.555Y-98.120
X45.555Y-100.660
X45.555Y-103.200
X45.555Y-105.740
X45.555Y-108.280
X45.555Y-110.820
X48.095Y-87.960
X48.095Y-90.500
X48.095Y-93.040
X48.095Y-95.580
X48.095Y-98.120
X48.095Y-100.660
X48.095Y-103.200
X48.095Y-105.740
X48.095Y-108.280
X48.095Y-110.820
T0
M30
