G04 (created by PCBNEW (2013-mar-13)-testing) date Mon 05 Aug 2013 21:38:35 BST*
%MOIN*%
G04 Gerber Fmt 3.4, Leading zero omitted, Abs format*
%FSLAX34Y34*%
G01*
G70*
G90*
G04 APERTURE LIST*
%ADD10C,0.005000*%
%ADD11C,0.015000*%
%ADD12C,0.007874*%
%ADD13C,0.011811*%
G04 APERTURE END LIST*
G54D10*
G54D11*
X15236Y-65334D02*
X15236Y-9881D01*
X56358Y-65334D02*
X15236Y-65334D01*
X56358Y-9881D02*
X56358Y-65334D01*
X15236Y-9881D02*
X56358Y-9881D01*
G54D12*
X18878Y-52362D02*
X20059Y-53543D01*
X20059Y-52362D02*
X18878Y-53543D01*
X19952Y-19976D02*
X21133Y-21157D01*
X21133Y-19976D02*
X19952Y-21157D01*
X28956Y-14498D02*
X30137Y-15679D01*
X30137Y-14498D02*
X28956Y-15679D01*
X34754Y-12401D02*
X35935Y-13582D01*
X35935Y-12401D02*
X34754Y-13582D01*
X38878Y-39124D02*
X40059Y-40305D01*
X40059Y-39124D02*
X38878Y-40305D01*
X47381Y-12401D02*
X48562Y-13582D01*
X48562Y-12401D02*
X47381Y-13582D01*
X50629Y-52362D02*
X51810Y-53543D01*
X51810Y-52362D02*
X50629Y-53543D01*
G54D13*
X16229Y-67243D02*
X16229Y-66062D01*
X16511Y-66062D01*
X16679Y-66118D01*
X16792Y-66230D01*
X16848Y-66343D01*
X16904Y-66568D01*
X16904Y-66736D01*
X16848Y-66961D01*
X16792Y-67074D01*
X16679Y-67186D01*
X16511Y-67243D01*
X16229Y-67243D01*
X17410Y-67243D02*
X17410Y-66455D01*
X17410Y-66680D02*
X17467Y-66568D01*
X17523Y-66512D01*
X17635Y-66455D01*
X17748Y-66455D01*
X18142Y-67243D02*
X18142Y-66455D01*
X18142Y-66062D02*
X18085Y-66118D01*
X18142Y-66174D01*
X18198Y-66118D01*
X18142Y-66062D01*
X18142Y-66174D01*
X18873Y-67243D02*
X18760Y-67186D01*
X18704Y-67074D01*
X18704Y-66062D01*
X19491Y-67243D02*
X19379Y-67186D01*
X19323Y-67074D01*
X19323Y-66062D01*
X20841Y-67243D02*
X20841Y-66062D01*
X21235Y-66905D01*
X21629Y-66062D01*
X21629Y-67243D01*
X22697Y-67243D02*
X22697Y-66624D01*
X22641Y-66512D01*
X22529Y-66455D01*
X22304Y-66455D01*
X22191Y-66512D01*
X22697Y-67186D02*
X22585Y-67243D01*
X22304Y-67243D01*
X22191Y-67186D01*
X22135Y-67074D01*
X22135Y-66961D01*
X22191Y-66849D01*
X22304Y-66793D01*
X22585Y-66793D01*
X22697Y-66736D01*
X23260Y-66455D02*
X23260Y-67636D01*
X23260Y-66512D02*
X23372Y-66455D01*
X23597Y-66455D01*
X23710Y-66512D01*
X23766Y-66568D01*
X23822Y-66680D01*
X23822Y-67018D01*
X23766Y-67130D01*
X23710Y-67186D01*
X23597Y-67243D01*
X23372Y-67243D01*
X23260Y-67186D01*
X24328Y-67130D02*
X24385Y-67186D01*
X24328Y-67243D01*
X24272Y-67186D01*
X24328Y-67130D01*
X24328Y-67243D01*
X24328Y-66512D02*
X24385Y-66568D01*
X24328Y-66624D01*
X24272Y-66568D01*
X24328Y-66512D01*
X24328Y-66624D01*
X13980Y-68598D02*
X15161Y-69779D01*
X15161Y-68598D02*
X13980Y-69779D01*
X16117Y-68542D02*
X16848Y-68542D01*
X16454Y-68992D01*
X16623Y-68992D01*
X16736Y-69048D01*
X16792Y-69104D01*
X16848Y-69217D01*
X16848Y-69498D01*
X16792Y-69610D01*
X16736Y-69667D01*
X16623Y-69723D01*
X16286Y-69723D01*
X16173Y-69667D01*
X16117Y-69610D01*
X17354Y-69610D02*
X17410Y-69667D01*
X17354Y-69723D01*
X17298Y-69667D01*
X17354Y-69610D01*
X17354Y-69723D01*
X18142Y-68542D02*
X18254Y-68542D01*
X18367Y-68598D01*
X18423Y-68654D01*
X18479Y-68767D01*
X18535Y-68992D01*
X18535Y-69273D01*
X18479Y-69498D01*
X18423Y-69610D01*
X18367Y-69667D01*
X18254Y-69723D01*
X18142Y-69723D01*
X18029Y-69667D01*
X17973Y-69610D01*
X17917Y-69498D01*
X17860Y-69273D01*
X17860Y-68992D01*
X17917Y-68767D01*
X17973Y-68654D01*
X18029Y-68598D01*
X18142Y-68542D01*
X19266Y-68542D02*
X19379Y-68542D01*
X19491Y-68598D01*
X19548Y-68654D01*
X19604Y-68767D01*
X19660Y-68992D01*
X19660Y-69273D01*
X19604Y-69498D01*
X19548Y-69610D01*
X19491Y-69667D01*
X19379Y-69723D01*
X19266Y-69723D01*
X19154Y-69667D01*
X19098Y-69610D01*
X19041Y-69498D01*
X18985Y-69273D01*
X18985Y-68992D01*
X19041Y-68767D01*
X19098Y-68654D01*
X19154Y-68598D01*
X19266Y-68542D01*
X20166Y-69723D02*
X20166Y-68936D01*
X20166Y-69048D02*
X20223Y-68992D01*
X20335Y-68936D01*
X20504Y-68936D01*
X20616Y-68992D01*
X20673Y-69104D01*
X20673Y-69723D01*
X20673Y-69104D02*
X20729Y-68992D01*
X20841Y-68936D01*
X21010Y-68936D01*
X21122Y-68992D01*
X21179Y-69104D01*
X21179Y-69723D01*
X21741Y-69723D02*
X21741Y-68936D01*
X21741Y-69048D02*
X21797Y-68992D01*
X21910Y-68936D01*
X22079Y-68936D01*
X22191Y-68992D01*
X22247Y-69104D01*
X22247Y-69723D01*
X22247Y-69104D02*
X22304Y-68992D01*
X22416Y-68936D01*
X22585Y-68936D01*
X22697Y-68992D01*
X22754Y-69104D01*
X22754Y-69723D01*
X25059Y-68486D02*
X24047Y-70004D01*
X26578Y-68542D02*
X26691Y-68542D01*
X26803Y-68598D01*
X26859Y-68654D01*
X26916Y-68767D01*
X26972Y-68992D01*
X26972Y-69273D01*
X26916Y-69498D01*
X26859Y-69610D01*
X26803Y-69667D01*
X26691Y-69723D01*
X26578Y-69723D01*
X26466Y-69667D01*
X26409Y-69610D01*
X26353Y-69498D01*
X26297Y-69273D01*
X26297Y-68992D01*
X26353Y-68767D01*
X26409Y-68654D01*
X26466Y-68598D01*
X26578Y-68542D01*
X27478Y-69610D02*
X27534Y-69667D01*
X27478Y-69723D01*
X27422Y-69667D01*
X27478Y-69610D01*
X27478Y-69723D01*
X28659Y-69723D02*
X27984Y-69723D01*
X28322Y-69723D02*
X28322Y-68542D01*
X28209Y-68711D01*
X28097Y-68823D01*
X27984Y-68879D01*
X29784Y-69723D02*
X29109Y-69723D01*
X29446Y-69723D02*
X29446Y-68542D01*
X29334Y-68711D01*
X29221Y-68823D01*
X29109Y-68879D01*
X30459Y-69048D02*
X30346Y-68992D01*
X30290Y-68936D01*
X30234Y-68823D01*
X30234Y-68767D01*
X30290Y-68654D01*
X30346Y-68598D01*
X30459Y-68542D01*
X30684Y-68542D01*
X30796Y-68598D01*
X30853Y-68654D01*
X30909Y-68767D01*
X30909Y-68823D01*
X30853Y-68936D01*
X30796Y-68992D01*
X30684Y-69048D01*
X30459Y-69048D01*
X30346Y-69104D01*
X30290Y-69161D01*
X30234Y-69273D01*
X30234Y-69498D01*
X30290Y-69610D01*
X30346Y-69667D01*
X30459Y-69723D01*
X30684Y-69723D01*
X30796Y-69667D01*
X30853Y-69610D01*
X30909Y-69498D01*
X30909Y-69273D01*
X30853Y-69161D01*
X30796Y-69104D01*
X30684Y-69048D01*
X31359Y-68542D02*
X31359Y-68767D01*
X31809Y-68542D02*
X31809Y-68767D01*
X33552Y-70173D02*
X33496Y-70117D01*
X33383Y-69948D01*
X33327Y-69835D01*
X33271Y-69667D01*
X33215Y-69386D01*
X33215Y-69161D01*
X33271Y-68879D01*
X33327Y-68711D01*
X33383Y-68598D01*
X33496Y-68429D01*
X33552Y-68373D01*
X33890Y-68542D02*
X34677Y-68542D01*
X34171Y-69723D01*
X36027Y-69723D02*
X36027Y-68542D01*
X36533Y-69723D02*
X36533Y-69104D01*
X36477Y-68992D01*
X36364Y-68936D01*
X36196Y-68936D01*
X36083Y-68992D01*
X36027Y-69048D01*
X37264Y-69723D02*
X37152Y-69667D01*
X37095Y-69610D01*
X37039Y-69498D01*
X37039Y-69161D01*
X37095Y-69048D01*
X37152Y-68992D01*
X37264Y-68936D01*
X37433Y-68936D01*
X37545Y-68992D01*
X37602Y-69048D01*
X37658Y-69161D01*
X37658Y-69498D01*
X37602Y-69610D01*
X37545Y-69667D01*
X37433Y-69723D01*
X37264Y-69723D01*
X38333Y-69723D02*
X38220Y-69667D01*
X38164Y-69554D01*
X38164Y-68542D01*
X39233Y-69667D02*
X39120Y-69723D01*
X38895Y-69723D01*
X38783Y-69667D01*
X38727Y-69554D01*
X38727Y-69104D01*
X38783Y-68992D01*
X38895Y-68936D01*
X39120Y-68936D01*
X39233Y-68992D01*
X39289Y-69104D01*
X39289Y-69217D01*
X38727Y-69329D01*
X39739Y-69667D02*
X39851Y-69723D01*
X40076Y-69723D01*
X40189Y-69667D01*
X40245Y-69554D01*
X40245Y-69498D01*
X40189Y-69386D01*
X40076Y-69329D01*
X39908Y-69329D01*
X39795Y-69273D01*
X39739Y-69161D01*
X39739Y-69104D01*
X39795Y-68992D01*
X39908Y-68936D01*
X40076Y-68936D01*
X40189Y-68992D01*
X40639Y-70173D02*
X40695Y-70117D01*
X40808Y-69948D01*
X40864Y-69835D01*
X40920Y-69667D01*
X40976Y-69386D01*
X40976Y-69161D01*
X40920Y-68879D01*
X40864Y-68711D01*
X40808Y-68598D01*
X40695Y-68429D01*
X40639Y-68373D01*
M02*
