M48
;DRILL file {Pcbnew (2013-mar-13)-testing} date Mon 05 Aug 2013 21:38:34 BST
;FORMAT={-:-/ absolute / metric / decimal}
FMAT,2
METRIC,TZ
T1C0.201
T2C0.300
T3C0.500
T4C0.800
T5C0.813
T6C1.000
T7C1.001
T8C1.016
T9C1.199
%
G90
G05
M71
T1
X40.3Y-73.025
X40.8Y-122.199
X40.851Y-55.999
X40.899Y-77.
X40.899Y-78.001
X40.899Y-129.2
X40.95Y-78.999
X40.95Y-80.
X40.95Y-81.001
X40.95Y-82.001
X40.95Y-83.
X40.95Y-84.
X40.95Y-85.001
X40.95Y-85.999
X40.95Y-125.7
X41.001Y-73.5
X41.049Y-115.199
X41.049Y-118.699
X41.1Y-72.25
X41.199Y-59.499
X41.674Y-43.899
X41.9Y-53.5
X41.951Y-51.501
X41.951Y-55.499
X41.953Y-54.503
X41.999Y-49.5
X41.999Y-50.5
X41.999Y-62.499
X41.999Y-64.
X41.999Y-71.501
X41.999Y-74.
X41.999Y-78.501
X41.999Y-79.499
X41.999Y-80.5
X41.999Y-81.501
X41.999Y-82.499
X41.999Y-83.5
X41.999Y-84.501
X41.999Y-85.499
X42.001Y-77.503
X42.05Y-58.999
X43.124Y-95.999
X43.299Y-89.251
X43.5Y-48.1
X43.91Y-35.27
X44.849Y-49.751
X44.849Y-85.126
X44.96Y-40.14
X45.45Y-56.475
X45.45Y-62.5
X45.7Y-38.6
X45.75Y-51.049
X45.75Y-55.7
X45.85Y-37.125
X46.375Y-37.
X46.449Y-48.1
X46.5Y-39.299
X46.54Y-38.56
X47.025Y-37.
X47.051Y-156.85
X47.25Y-39.45
X47.3Y-43.299
X47.31Y-38.75
X47.89Y-43.9
X47.899Y-149.55
X48.47Y-39.5
X49.14Y-39.49
X49.67Y-54.43
X49.779Y-156.67
X49.799Y-44.051
X49.81Y-39.48
X50.147Y-90.792
X50.37Y-43.19
X50.38Y-42.38
X50.419Y-154.739
X50.439Y-155.849
X50.851Y-63.851
X50.851Y-81.9
X50.899Y-116.149
X50.899Y-122.25
X50.95Y-149.126
X51.054Y-156.972
X51.148Y-90.592
X51.45Y-70.249
X51.549Y-155.859
X51.6Y-154.749
X51.651Y-122.999
X51.651Y-129.25
X51.699Y-112.601
X51.8Y-43.77
X52.2Y-106.002
X52.25Y-63.525
X52.751Y-99.35
X52.949Y-103.2
X53.551Y-99.05
X53.576Y-72.575
X53.599Y-112.55
X54.Y-103.251
X54.12Y-97.01
X54.15Y-105.049
X54.374Y-91.651
X54.425Y-111.874
X54.475Y-99.05
X54.6Y-152.301
X54.95Y-110.8
X55.075Y-112.55
X55.1Y-103.251
X55.4Y-99.05
X55.7Y-52.6
X55.725Y-26.525
X56.076Y-50.424
X56.14Y-59.77
X56.149Y-155.499
X56.149Y-156.449
X56.149Y-157.5
X56.2Y-103.35
X56.2Y-112.601
X56.2Y-151.1
X56.251Y-88.951
X56.276Y-126.426
X56.299Y-109.149
X56.35Y-52.95
X56.375Y-63.525
X56.825Y-50.424
X56.939Y-95.931
X56.949Y-99.09
X57.023Y-43.18
X57.075Y-25.75
X57.173Y-41.181
X57.201Y-122.9
X57.201Y-123.726
X57.201Y-125.55
X57.226Y-124.6
X57.23Y-52.95
X57.25Y-59.5
X57.274Y-42.23
X57.45Y-77.45
X57.501Y-155.451
X57.526Y-156.474
X57.625Y-47.399
X57.625Y-50.15
X58.001Y-94.851
X58.049Y-93.05
X58.049Y-96.401
X58.049Y-106.35
X58.141Y-97.399
X58.25Y-26.25
X58.4Y-124.475
X58.75Y-155.451
X58.849Y-107.899
X58.999Y-69.149
X58.999Y-70.249
X58.999Y-123.701
X59.101Y-148.151
X59.45Y-25.65
X59.55Y-67.399
X59.55Y-71.199
X59.55Y-124.6
X59.7Y-98.049
X60.Y-102.352
X60.099Y-63.701
X60.099Y-68.501
X60.099Y-122.9
X60.099Y-125.651
X60.35Y-148.651
X60.35Y-149.7
X60.575Y-31.95
X60.65Y-66.751
X60.65Y-126.799
X60.724Y-93.475
X61.199Y-69.649
X61.199Y-74.399
X61.199Y-75.7
X61.199Y-96.401
X61.199Y-127.8
X61.199Y-131.501
X61.199Y-132.799
X61.25Y-76.5
X61.399Y-38.55
X61.399Y-40.899
X61.75Y-50.3
X61.75Y-128.9
X61.775Y-114.549
X61.951Y-46.901
X62.1Y-39.751
X62.301Y-90.599
X62.301Y-125.499
X62.349Y-122.799
X62.4Y-92.199
X62.451Y-102.751
X62.451Y-104.501
X62.451Y-147.701
X62.499Y-75.049
X62.55Y-50.3
X62.55Y-71.951
X62.601Y-59.101
X62.601Y-81.3
X62.799Y-64.351
X62.799Y-70.551
X63.05Y-91.3
X63.05Y-121.849
X63.05Y-132.151
X63.149Y-123.701
X63.149Y-126.85
X63.2Y-127.899
X63.2Y-128.999
X63.35Y-103.5
X63.449Y-92.199
X63.5Y-77.45
X63.599Y-148.75
X63.95Y-137.5
X64.074Y-49.7
X64.099Y-48.699
X64.249Y-60.599
X64.399Y-150.15
X64.651Y-124.3
X64.8Y-59.101
X64.8Y-72.2
X64.95Y-62.451
X65.052Y-151.
X65.052Y-155.202
X65.649Y-137.551
X65.7Y-48.75
X65.7Y-102.1
X65.725Y-49.649
X65.75Y-100.701
X66.401Y-73.
X66.5Y-70.551
X66.551Y-95.75
X66.65Y-74.45
X66.7Y-48.75
X66.7Y-64.351
X66.751Y-120.2
X66.751Y-138.3
X66.799Y-150.
X66.85Y-121.849
X66.85Y-132.151
X67.Y-127.899
X67.04Y-32.35
X67.05Y-38.5
X67.099Y-97.15
X67.351Y-126.7
X67.399Y-71.199
X67.399Y-130.
X67.452Y-150.901
X67.452Y-154.95
X67.65Y-81.3
X67.65Y-98.4
X67.899Y-128.549
X67.95Y-43.101
X68.001Y-41.501
X68.199Y-97.051
X68.301Y-63.701
X68.501Y-77.099
X68.75Y-96.299
X68.999Y-30.5
X69.101Y-65.349
X69.149Y-121.201
X69.149Y-138.3
X69.149Y-150.05
X69.251Y-41.501
X69.251Y-43.101
X69.751Y-134.051
X69.799Y-123.101
X69.802Y-150.851
X69.802Y-155.402
X70.15Y-100.65
X70.701Y-104.3
X70.85Y-51.325
X71.1Y-146.05
X71.15Y-88.6
X71.45Y-117.201
X71.549Y-46.5
X71.549Y-98.75
X72.395Y-28.948
X73.147Y-118.504
X73.147Y-146.949
X73.149Y-61.603
X73.149Y-90.043
X73.393Y-28.948
X73.749Y-96.85
X73.845Y-119.154
X73.848Y-62.253
X73.848Y-90.693
X74.249Y-163.65
X74.3Y-100.599
X74.75Y-153.01
X75.25Y-163.7
X75.4Y-102.751
X75.441Y-152.321
X76.175Y-92.175
X76.251Y-163.7
X76.261Y-151.399
X76.299Y-91.201
X76.299Y-149.649
X76.57Y-47.72
X76.599Y-115.25
X76.65Y-58.303
X76.7Y-113.949
X76.751Y-63.652
X76.751Y-121.651
X76.799Y-85.499
X76.799Y-86.799
X76.85Y-56.949
X76.85Y-142.298
X76.85Y-143.5
X76.92Y-55.15
X77.05Y-52.6
X77.125Y-113.251
X77.201Y-69.601
X77.201Y-111.349
X77.201Y-112.4
X77.3Y-139.7
X77.351Y-82.649
X77.351Y-144.45
X77.399Y-87.551
X77.45Y-81.549
X77.5Y-92.799
X77.5Y-138.199
X77.549Y-64.399
X77.549Y-84.849
X77.549Y-86.197
X77.549Y-114.648
X77.549Y-120.65
X77.55Y-53.1
X77.6Y-55.4
X77.6Y-56.35
X77.6Y-83.599
X77.6Y-141.699
X77.6Y-73.55
X77.65Y-140.599
X77.65Y-142.9
X77.749Y-57.45
X77.899Y-115.999
X78.049Y-65.649
X78.049Y-94.15
X78.049Y-121.9
X78.05Y-52.6
X78.25Y-58.849
X78.25Y-143.949
X78.4Y-28.75
X78.501Y-115.151
X78.549Y-64.399
X78.549Y-92.799
X78.549Y-120.65
X78.55Y-53.1
X78.849Y-86.5
X78.9Y-58.1
X79.05Y-65.649
X79.05Y-94.15
X79.05Y-121.9
X79.05Y-52.6
X79.05Y-75.475
X79.251Y-143.749
X79.27Y-44.3
X79.4Y-28.71
X79.451Y-128.849
X79.55Y-53.1
X79.55Y-64.399
X79.55Y-92.799
X79.55Y-120.65
X79.891Y-38.199
X79.901Y-58.151
X80.Y-115.1
X80.05Y-52.55
X80.051Y-65.649
X80.051Y-94.15
X80.051Y-121.9
X80.071Y-157.541
X80.3Y-58.8
X80.35Y-62.075
X80.401Y-38.859
X80.475Y-148.951
X80.55Y-53.1
X80.599Y-86.599
X80.775Y-61.575
X80.81Y-158.27
X80.889Y-38.199
X80.975Y-59.05
X81.049Y-92.751
X81.049Y-120.65
X81.05Y-53.55
X81.2Y-64.8
X81.201Y-162.301
X81.389Y-38.859
X81.45Y-158.999
X81.549Y-94.15
X81.549Y-121.9
X81.55Y-52.65
X81.6Y-82.25
X81.6Y-109.949
X81.699Y-138.801
X81.75Y-159.771
X81.875Y-65.2
X81.89Y-38.199
X81.999Y-87.3
X82.05Y-92.751
X82.05Y-120.65
X82.05Y-53.15
X82.06Y-144.361
X82.26Y-162.25
X82.28Y-47.27
X82.301Y-114.498
X82.4Y-28.049
X82.55Y-52.625
X82.55Y-94.15
X82.55Y-121.9
X82.575Y-65.2
X82.601Y-112.55
X82.649Y-76.398
X82.65Y-53.65
X82.675Y-54.65
X82.7Y-104.75
X82.725Y-55.654
X82.781Y-144.6
X82.799Y-132.999
X82.901Y-140.251
X82.93Y-47.95
X83.Y-83.35
X83.Y-111.501
X83.05Y-64.75
X83.101Y-141.501
X83.124Y-84.6
X83.124Y-113.05
X83.125Y-53.15
X83.125Y-54.15
X83.175Y-85.601
X83.2Y-55.15
X83.2Y-57.15
X83.226Y-56.149
X83.226Y-142.499
X83.251Y-114.051
X83.299Y-149.4
X83.381Y-38.91
X83.449Y-106.05
X83.891Y-38.26
X84.176Y-64.074
X84.389Y-38.92
X84.63Y-152.989
X84.874Y-91.026
X84.874Y-119.776
X84.889Y-38.291
X84.95Y-62.499
X85.199Y-148.049
X85.25Y-163.551
X85.4Y-38.971
X85.446Y-106.655
X85.446Y-135.1
X85.448Y-49.754
X85.448Y-78.194
X85.7Y-69.601
X85.824Y-149.974
X85.895Y-27.948
X85.9Y-64.9
X85.9Y-90.625
X85.946Y-107.353
X85.946Y-135.799
X85.949Y-50.452
X85.949Y-78.892
X85.999Y-62.25
X86.124Y-119.174
X86.149Y-147.625
X86.27Y-47.24
X86.449Y-59.2
X86.449Y-87.249
X86.5Y-115.649
X86.55Y-116.749
X86.65Y-88.397
X86.65Y-144.249
X86.65Y-145.25
X86.7Y-61.204
X86.7Y-108.999
X87.15Y-60.051
X87.351Y-65.451
X87.351Y-66.85
X87.525Y-75.475
X87.749Y-80.599
X87.8Y-108.849
X87.8Y-137.749
X88.1Y-63.2
X88.1Y-69.05
X88.25Y-163.65
X88.27Y-159.009
X88.35Y-75.55
X88.4Y-118.3
X88.675Y-90.625
X88.849Y-65.55
X88.849Y-68.1
X88.86Y-52.64
X88.951Y-126.2
X89.451Y-114.501
X89.499Y-113.2
X89.55Y-110.051
X89.55Y-111.049
X89.55Y-112.05
X89.55Y-124.65
X89.601Y-138.501
X89.601Y-139.499
X89.601Y-140.5
X89.601Y-141.501
X89.601Y-142.499
X89.85Y-81.6
X89.85Y-82.601
X89.85Y-83.599
X89.85Y-84.6
X89.85Y-85.649
X89.949Y-68.948
X90.048Y-66.197
X90.099Y-63.848
X90.2Y-151.051
X90.35Y-53.149
X90.35Y-54.15
X90.35Y-55.151
X90.35Y-56.149
X90.46Y-61.5
X90.899Y-112.55
X90.899Y-113.901
X90.899Y-115.049
X90.95Y-111.549
X91.001Y-110.551
X91.3Y-138.999
X91.3Y-140.
X91.3Y-141.
X91.3Y-142.001
X91.3Y-142.999
X91.31Y-61.36
X91.399Y-82.1
X91.45Y-83.101
X91.45Y-84.099
X91.501Y-53.65
X91.501Y-54.651
X91.501Y-55.649
X91.501Y-56.65
X91.501Y-85.1
X91.501Y-86.2
X91.951Y-120.65
X91.999Y-122.951
X92.199Y-126.35
X92.4Y-59.751
X92.55Y-57.15
X93.449Y-57.899
X94.051Y-67.549
X94.249Y-66.197
X94.249Y-68.948
X94.297Y-63.848
X94.699Y-84.899
X95.649Y-63.2
X95.649Y-66.2
X95.849Y-124.65
X95.951Y-126.35
X95.999Y-125.476
X96.05Y-120.65
X96.101Y-122.951
X96.299Y-64.501
X96.401Y-40.051
X96.401Y-41.3
X96.799Y-120.
X97.Y-63.251
X97.15Y-62.05
X97.5Y-121.3
X97.599Y-159.451
X97.699Y-32.85
X97.848Y-36.299
X98.001Y-65.55
X98.049Y-67.549
X98.199Y-117.551
X98.199Y-120.
X98.699Y-122.301
X98.849Y-137.899
X98.9Y-153.251
X98.975Y-145.525
X99.126Y-87.65
X99.2Y-70.35
X99.251Y-59.604
X99.275Y-88.6
X99.299Y-80.95
X99.35Y-38.499
X99.35Y-40.551
X99.499Y-37.45
X99.499Y-117.65
X99.55Y-154.351
X99.654Y-28.052
X99.7Y-163.5
X99.901Y-66.149
X100.15Y-144.8
X100.2Y-127.
X100.3Y-59.499
X100.653Y-28.801
X100.701Y-162.601
X100.851Y-115.649
X100.851Y-154.
X100.998Y-34.
X101.046Y-118.506
X101.046Y-146.952
X101.049Y-61.598
X101.049Y-90.051
X101.35Y-93.05
X101.351Y-123.599
X101.55Y-143.5
X101.653Y-28.052
X101.745Y-119.156
X101.745Y-147.602
X101.747Y-62.248
X101.747Y-90.701
X102.154Y-28.801
X102.199Y-162.601
X102.225Y-144.
X102.23Y-138.5
X102.375Y-154.074
X102.654Y-28.001
X102.7Y-163.65
X103.2Y-153.421
X103.289Y-148.77
X103.599Y-126.35
X103.701Y-121.15
X103.749Y-132.601
X104.Y-92.1
X104.051Y-153.299
X104.501Y-143.701
X104.6Y-115.25
X104.651Y-58.301
X104.651Y-86.749
X104.699Y-142.349
X104.75Y-56.949
X104.75Y-63.904
X104.75Y-85.349
X104.75Y-113.899
X105.151Y-139.7
X105.199Y-82.598
X105.25Y-111.199
X105.301Y-143.149
X105.4Y-54.204
X105.4Y-55.25
X105.451Y-64.399
X105.451Y-93.149
X105.451Y-113.251
X105.451Y-114.6
X105.451Y-121.049
X105.499Y-56.352
X105.499Y-57.65
X105.499Y-81.699
X105.499Y-86.149
X105.499Y-141.699
X105.55Y-84.798
X105.55Y-112.151
X105.55Y-138.3
X105.6Y-83.698
X105.6Y-140.65
X105.631Y-155.08
X105.7Y-158.229
X105.75Y-116.05
X105.801Y-59.152
X105.849Y-87.597
X105.925Y-144.475
X105.951Y-65.649
X105.951Y-94.8
X105.951Y-122.25
X106.159Y-28.859
X106.251Y-58.25
X106.35Y-115.151
X106.401Y-86.751
X106.449Y-64.399
X106.449Y-93.149
X106.449Y-121.049
X106.51Y-109.53
X106.949Y-65.649
X106.949Y-94.8
X106.949Y-115.41
X106.949Y-122.25
X106.949Y-143.85
X106.95Y-135.76
X107.15Y-159.101
X107.152Y-28.804
X107.201Y-162.601
X107.211Y-109.571
X107.399Y-86.7
X107.45Y-64.399
X107.45Y-93.149
X107.45Y-121.049
X107.65Y-31.801
X107.95Y-65.649
X107.95Y-94.851
X107.95Y-109.479
X107.95Y-122.25
X108.151Y-33.
X108.4Y-58.349
X108.461Y-148.351
X108.651Y-31.801
X108.829Y-109.451
X108.951Y-64.399
X108.951Y-93.149
X108.951Y-121.049
X109.149Y-33.
X109.25Y-87.399
X109.451Y-65.649
X109.451Y-94.899
X109.451Y-122.25
X109.49Y-109.57
X109.499Y-53.002
X109.499Y-139.05
X109.649Y-31.801
X109.68Y-86.66
X109.901Y-58.801
X109.949Y-64.399
X109.949Y-93.2
X109.949Y-121.049
X110.08Y-110.1
X110.099Y-39.649
X110.152Y-27.953
X110.2Y-143.401
X110.2Y-162.1
X110.449Y-56.276
X110.449Y-65.649
X110.449Y-94.95
X110.449Y-122.25
X110.449Y-144.61
X110.47Y-134.95
X110.5Y-54.6
X110.55Y-111.22
X110.551Y-104.549
X110.551Y-112.499
X110.575Y-109.5
X110.65Y-55.649
X110.653Y-28.804
X110.701Y-44.249
X110.701Y-163.101
X110.726Y-140.5
X110.749Y-76.299
X110.8Y-111.849
X110.851Y-151.889
X110.88Y-141.5
X110.95Y-83.599
X110.96Y-84.59
X110.98Y-110.73
X111.074Y-85.601
X111.1Y-57.15
X111.1Y-113.05
X111.1Y-110.06
X111.15Y-31.801
X111.15Y-47.902
X111.15Y-114.051
X111.15Y-142.499
X111.399Y-149.85
X111.651Y-33.2
X112.04Y-145.56
X112.151Y-31.801
X112.301Y-64.153
X112.489Y-149.189
X112.649Y-33.2
X112.799Y-119.776
X113.149Y-31.801
X113.274Y-66.251
X113.299Y-159.101
X113.345Y-106.657
X113.345Y-135.103
X113.347Y-49.748
X113.347Y-78.202
X113.35Y-148.049
X113.449Y-62.001
X113.652Y-28.801
X113.701Y-162.1
X113.845Y-107.356
X113.845Y-135.801
X114.099Y-78.748
X114.125Y-119.126
X114.249Y-147.5
X114.399Y-58.849
X114.399Y-59.903
X114.41Y-149.17
X114.447Y-87.198
X114.501Y-88.397
X114.6Y-144.249
X114.651Y-51.1
X114.651Y-115.7
X114.651Y-145.25
X114.699Y-116.698
X115.001Y-136.401
X115.1Y-146.601
X115.28Y-148.25
X115.301Y-79.799
X115.6Y-52.553
X115.6Y-108.4
X116.15Y-132.625
X116.15Y-133.325
X116.799Y-138.501
X116.799Y-139.499
X116.799Y-140.5
X116.799Y-141.501
X116.799Y-142.55
X116.924Y-115.776
X117.15Y-64.351
X117.345Y-113.055
X117.351Y-110.051
X117.351Y-111.049
X117.351Y-112.05
X117.351Y-114.099
X117.899Y-82.1
X117.899Y-83.101
X117.899Y-84.099
X117.899Y-85.1
X117.899Y-86.101
X118.049Y-53.149
X118.049Y-54.15
X118.049Y-55.151
X118.075Y-107.175
X118.1Y-106.375
X118.15Y-105.6
X118.175Y-104.825
X118.549Y-138.999
X118.549Y-140.
X118.549Y-141.
X118.549Y-142.001
X118.549Y-143.149
X118.801Y-63.551
X119.451Y-110.551
X119.492Y-111.557
X119.499Y-112.55
X119.499Y-113.551
X119.499Y-114.651
X119.7Y-53.65
X119.7Y-54.651
X119.799Y-81.6
X119.799Y-82.601
X119.799Y-83.599
X119.799Y-84.6
X119.799Y-85.601
X120.551Y-55.649
X120.65Y-56.65
X121.15Y-58.301
X121.651Y-56.149
X121.699Y-57.351
X122.425Y-120.65
X123.599Y-60.8
X124.475Y-85.199
X125.01Y-142.3
X125.25Y-123.65
X125.6Y-144.15
X125.63Y-141.68
X125.651Y-41.951
X125.75Y-100.449
X125.801Y-101.501
X125.951Y-43.65
X125.951Y-99.35
X126.299Y-102.301
X126.35Y-81.399
X126.601Y-115.849
X126.601Y-122.25
X126.7Y-54.501
X126.949Y-82.349
X126.949Y-86.2
X127.Y-55.4
X127.399Y-62.649
X127.399Y-123.05
X127.399Y-129.149
X127.599Y-81.501
X127.701Y-51.9
X128.1Y-93.749
X128.4Y-79.55
X128.801Y-52.451
X128.801Y-81.45
X128.94Y-139.27
X128.951Y-152.499
X129.451Y-82.301
X129.451Y-86.149
X129.451Y-153.8
X129.499Y-97.899
X129.55Y-95.199
X129.601Y-96.949
X129.649Y-52.949
X129.751Y-53.899
X129.946Y-155.349
X130.Y-54.9
X130.124Y-93.475
X130.5Y-76.949
X130.551Y-65.25
X130.599Y-96.949
X130.701Y-95.199
X130.8Y-153.749
X131.45Y-55.649
X131.597Y-159.05
X131.75Y-49.251
X131.75Y-141.801
X131.801Y-102.751
X131.9Y-82.199
X131.9Y-86.2
X132.398Y-159.949
X132.55Y-80.95
X132.85Y-43.899
X132.9Y-32.149
X133.149Y-100.749
X133.198Y-159.299
X133.551Y-140.251
X133.64Y-92.479
X133.749Y-101.45
X134.549Y-47.201
X134.61Y-94.43
X134.699Y-93.571
X135.001Y-139.901
X135.151Y-100.8
X135.25Y-99.85
X136.35Y-101.051
X136.649Y-140.2
X136.741Y-95.9
X136.751Y-49.901
X137.348Y-101.003
X137.551Y-141.801
X137.95Y-160.
X138.151Y-158.001
X138.151Y-161.501
X138.4Y-101.102
X138.826Y-111.849
X139.047Y-155.049
X139.398Y-101.201
X139.499Y-76.901
X139.499Y-77.899
X139.499Y-78.9
X139.499Y-79.901
X139.499Y-80.899
X139.499Y-81.9
X139.499Y-82.901
X139.499Y-83.899
X139.499Y-84.899
X139.499Y-85.9
X139.601Y-50.401
X139.601Y-53.401
X139.601Y-54.399
X139.649Y-49.4
X139.649Y-51.399
X139.649Y-55.4
X140.099Y-58.9
X140.299Y-55.9
X140.551Y-77.399
X140.551Y-78.4
X140.551Y-79.4
X140.551Y-80.401
X140.551Y-81.399
X140.551Y-82.4
X140.551Y-83.401
X140.551Y-84.399
X140.599Y-62.4
X140.599Y-63.899
X140.599Y-71.399
X140.599Y-85.4
X140.701Y-125.6
X140.749Y-73.401
X140.8Y-118.6
X140.851Y-122.1
X141.Y-115.1
X141.249Y-129.101
X141.95Y-43.8
X142.001Y-41.951
T2
X48.801Y-157.
X51.049Y-99.2
X51.08Y-48.801
X55.674Y-152.25
X55.875Y-47.351
X59.35Y-107.175
X66.299Y-45.799
X66.35Y-44.724
X70.599Y-80.851
X70.599Y-109.35
X70.65Y-107.45
X70.749Y-137.701
X71.049Y-60.15
X71.15Y-106.05
X71.25Y-52.35
X71.501Y-134.699
X71.801Y-76.7
X71.999Y-105.001
X72.05Y-48.75
X72.151Y-133.65
X72.2Y-145.199
X72.301Y-59.55
X72.301Y-88.049
X72.301Y-116.5
X72.451Y-75.499
X72.649Y-47.351
X72.649Y-77.6
X73.101Y-132.85
X73.899Y-75.601
X73.95Y-147.599
X74.Y-47.351
X75.77Y-47.54
X75.801Y-132.7
X75.951Y-75.301
X75.951Y-103.95
X76.101Y-119.649
X76.2Y-62.502
X76.251Y-148.25
X78.847Y-111.854
X78.847Y-112.804
X78.847Y-113.754
X78.847Y-140.299
X78.847Y-141.249
X78.847Y-142.199
X78.849Y-54.953
X78.849Y-55.903
X78.849Y-56.853
X78.849Y-83.393
X78.849Y-84.343
X78.849Y-85.293
X79.797Y-111.854
X79.797Y-113.754
X79.797Y-140.299
X79.797Y-142.199
X79.799Y-54.953
X79.799Y-56.853
X79.799Y-83.393
X79.799Y-85.293
X79.799Y-112.804
X79.799Y-141.249
X79.802Y-55.903
X79.802Y-84.343
X80.747Y-111.854
X80.747Y-112.804
X80.747Y-113.754
X80.747Y-140.299
X80.747Y-141.249
X80.747Y-142.199
X80.749Y-54.953
X80.749Y-55.903
X80.749Y-56.853
X80.749Y-83.393
X80.749Y-84.343
X80.749Y-85.293
X83.299Y-134.45
X83.375Y-77.975
X83.401Y-62.702
X83.449Y-119.7
X83.5Y-49.152
X83.5Y-148.199
X83.5Y-91.025
X86.55Y-80.498
X86.599Y-52.052
X86.599Y-137.249
X87.099Y-118.049
X87.099Y-146.5
X87.249Y-89.649
X98.801Y-109.4
X99.05Y-52.451
X99.85Y-116.449
X99.901Y-48.301
X100.051Y-87.998
X100.051Y-106.299
X100.3Y-47.201
X100.5Y-134.899
X100.551Y-49.35
X100.551Y-75.849
X100.551Y-77.8
X100.551Y-104.95
X100.65Y-132.7
X100.65Y-133.8
X101.801Y-75.499
X101.849Y-104.249
X101.951Y-47.201
X103.85Y-46.799
X103.85Y-75.301
X103.901Y-104.201
X103.95Y-90.947
X104.Y-148.1
X104.15Y-119.901
X104.249Y-62.502
X106.746Y-111.857
X106.746Y-112.806
X106.746Y-113.756
X106.746Y-140.302
X106.746Y-141.252
X106.746Y-142.202
X106.749Y-54.948
X106.749Y-55.898
X106.749Y-56.848
X106.749Y-83.401
X106.749Y-84.351
X106.749Y-85.301
X107.696Y-111.857
X107.696Y-113.756
X107.696Y-140.302
X107.696Y-142.202
X107.699Y-54.948
X107.699Y-56.848
X107.699Y-83.401
X107.699Y-85.301
X107.699Y-112.806
X107.699Y-141.252
X107.701Y-55.898
X107.701Y-84.351
X108.646Y-111.857
X108.646Y-112.806
X108.646Y-113.756
X108.646Y-140.302
X108.646Y-141.252
X108.646Y-142.202
X108.648Y-54.948
X108.648Y-55.898
X108.648Y-56.848
X108.648Y-83.401
X108.648Y-84.351
X108.648Y-85.301
X111.201Y-119.748
X111.249Y-77.549
X111.3Y-148.3
X111.351Y-49.152
X111.351Y-62.801
X111.351Y-106.05
X111.351Y-134.549
X111.4Y-90.95
X112.375Y-90.875
X113.65Y-90.7
X114.425Y-137.425
X114.45Y-52.304
X114.501Y-80.698
X114.549Y-108.999
X114.75Y-61.204
X115.1Y-89.649
X115.499Y-118.298
X129.751Y-147.599
X129.751Y-149.149
X130.65Y-112.7
X131.351Y-147.599
X131.351Y-149.2
X136.2Y-109.25
X136.2Y-132.951
X136.7Y-149.4
X138.049Y-153.599
X138.151Y-150.5
X138.75Y-132.601
X139.55Y-147.249
X139.55Y-153.7
X140.749Y-155.001
T3
X51.925Y-66.924
X56.251Y-74.176
X56.449Y-68.925
X56.65Y-62.4
X66.774Y-148.826
X69.4Y-105.225
X128.801Y-80.449
X131.224Y-77.925
X131.224Y-87.15
X131.549Y-41.9
X134.099Y-41.9
X136.825Y-41.951
X136.825Y-44.651
T4
X76.799Y-101.775
X76.825Y-99.324
X101.425Y-43.701
X129.99Y-143.571
X134.699Y-92.39
X139.54Y-145.58
X139.69Y-149.04
T5
X40.46Y-33.65
X43.Y-33.65
X45.54Y-33.65
X48.08Y-33.65
X50.62Y-33.65
X53.16Y-33.65
X55.7Y-33.65
X58.24Y-33.65
T6
X43.688Y-149.098
X49.149Y-130.274
X53.274Y-85.999
X56.276Y-76.175
X57.074Y-79.576
X101.374Y-71.399
T7
X40.485Y-28.555
X40.485Y-31.095
X43.025Y-28.555
X43.025Y-31.095
X45.565Y-28.555
X45.565Y-31.095
X48.105Y-28.555
X48.105Y-31.095
X50.645Y-28.555
X50.645Y-31.095
X52.901Y-38.9
X53.185Y-28.555
X53.185Y-31.095
X55.725Y-28.555
X55.725Y-31.095
X58.265Y-28.555
X58.265Y-31.095
X66.35Y-108.951
X92.959Y-151.026
X95.499Y-151.026
X98.039Y-151.026
X136.2Y-106.299
X136.2Y-135.999
X138.76Y-106.309
X138.77Y-135.999
X141.3Y-106.299
X141.3Y-135.999
T8
X40.425Y-36.16
X40.425Y-38.7
X40.425Y-41.24
X45.555Y-87.96
X45.555Y-90.5
X45.555Y-93.04
X45.555Y-95.58
X45.555Y-98.12
X45.555Y-100.66
X45.555Y-103.2
X45.555Y-105.74
X45.555Y-108.28
X45.555Y-110.82
X46.459Y-159.649
X48.095Y-87.96
X48.095Y-90.5
X48.095Y-93.04
X48.095Y-95.58
X48.095Y-98.12
X48.095Y-100.66
X48.095Y-103.2
X48.095Y-105.74
X48.095Y-108.28
X48.095Y-110.82
X48.999Y-159.649
X51.539Y-159.649
X53.904Y-115.626
X55.875Y-39.53
X55.875Y-42.07
X56.444Y-115.626
X58.209Y-99.4
X59.53Y-159.7
X60.749Y-99.4
X61.925Y-134.229
X61.925Y-136.769
X62.07Y-159.7
X63.289Y-99.4
X63.376Y-28.575
X90.385Y-92.205
X90.385Y-94.745
X92.08Y-156.929
X92.08Y-159.469
X92.505Y-87.03
X92.505Y-89.57
X92.925Y-92.205
X92.925Y-94.745
X94.48Y-163.18
X95.045Y-87.03
X95.045Y-89.57
X95.12Y-156.929
X95.12Y-159.469
X95.465Y-92.205
X95.465Y-94.745
X111.96Y-92.205
X111.96Y-94.745
X114.5Y-92.205
X114.5Y-94.745
X115.75Y-121.94
X115.75Y-124.48
X117.04Y-92.205
X117.04Y-94.745
X118.269Y-116.86
X118.269Y-119.4
X118.279Y-121.94
X118.279Y-124.48
X118.596Y-131.994
X118.596Y-134.534
X120.81Y-116.86
X120.81Y-119.4
X120.81Y-121.94
X120.81Y-124.48
X121.146Y-131.994
X121.146Y-134.534
T9
X120.623Y-151.336G85X123.125Y-151.336
G05
X120.623Y-157.584G85X123.125Y-157.584
G05
X126.675Y-153.335G85X126.675Y-155.336
G05
T0
M30
