G04 (created by PCBNEW (2013-mar-13)-testing) date Wed 21 Aug 2013 20:34:19 BST*
%MOIN*%
G04 Gerber Fmt 3.4, Leading zero omitted, Abs format*
%FSLAX34Y34*%
G01*
G70*
G90*
G04 APERTURE LIST*
%ADD10C,0.005906*%
%ADD11C,0.012000*%
%ADD12R,0.064000X0.064000*%
%ADD13C,0.064000*%
%ADD14R,0.059000X0.059000*%
%ADD15C,0.059000*%
%ADD16C,0.031600*%
%ADD17R,0.067000X0.067000*%
%ADD18R,0.200900X0.122100*%
%ADD19R,0.122100X0.200900*%
%ADD20C,0.063100*%
%ADD21C,0.070900*%
%ADD22R,0.029600X0.015800*%
%ADD23R,0.055200X0.047300*%
%ADD24R,0.078800X0.067000*%
%ADD25O,0.015800X0.053200*%
%ADD26R,0.049000X0.029000*%
%ADD27R,0.034000X0.024000*%
%ADD28R,0.029000X0.049000*%
%ADD29R,0.097700X0.069000*%
%ADD30R,0.013800X0.030600*%
%ADD31R,0.059100X0.090600*%
%ADD32R,0.059100X0.039400*%
%ADD33R,0.019700X0.023700*%
%ADD34R,0.023700X0.019700*%
%ADD35R,0.067000X0.078800*%
%ADD36O,0.053200X0.015800*%
%ADD37R,0.015800X0.067000*%
%ADD38R,0.067000X0.015800*%
%ADD39R,0.029600X0.057100*%
%ADD40R,0.041400X0.029600*%
%ADD41R,0.027600X0.019700*%
%ADD42R,0.051200X0.067000*%
%ADD43R,0.051200X0.082700*%
%ADD44R,0.028400X0.028400*%
%ADD45R,0.059000X0.039000*%
%ADD46R,0.039000X0.059000*%
%ADD47C,0.200900*%
%ADD48R,0.035400X0.035400*%
%ADD49R,0.063100X0.024000*%
%ADD50R,0.015800X0.029600*%
%ADD51R,0.017800X0.037500*%
%ADD52R,0.037500X0.017800*%
%ADD53C,0.122110*%
%ADD54R,0.114200X0.114200*%
%ADD55R,0.015800X0.015800*%
G04 APERTURE END LIST*
G54D10*
G54D11*
X5443Y-31770D02*
X5529Y-31808D01*
X5672Y-31808D01*
X5729Y-31770D01*
X5757Y-31732D01*
X5786Y-31656D01*
X5786Y-31580D01*
X5757Y-31504D01*
X5729Y-31466D01*
X5672Y-31427D01*
X5557Y-31389D01*
X5500Y-31351D01*
X5472Y-31313D01*
X5443Y-31237D01*
X5443Y-31161D01*
X5472Y-31085D01*
X5500Y-31047D01*
X5557Y-31008D01*
X5700Y-31008D01*
X5786Y-31047D01*
X6129Y-31808D02*
X6072Y-31770D01*
X6043Y-31732D01*
X6014Y-31656D01*
X6014Y-31427D01*
X6043Y-31351D01*
X6072Y-31313D01*
X6129Y-31275D01*
X6214Y-31275D01*
X6272Y-31313D01*
X6300Y-31351D01*
X6329Y-31427D01*
X6329Y-31656D01*
X6300Y-31732D01*
X6272Y-31770D01*
X6214Y-31808D01*
X6129Y-31808D01*
X6672Y-31808D02*
X6614Y-31770D01*
X6586Y-31694D01*
X6586Y-31008D01*
X7157Y-31808D02*
X7157Y-31008D01*
X7157Y-31770D02*
X7100Y-31808D01*
X6986Y-31808D01*
X6929Y-31770D01*
X6900Y-31732D01*
X6872Y-31656D01*
X6872Y-31427D01*
X6900Y-31351D01*
X6929Y-31313D01*
X6986Y-31275D01*
X7100Y-31275D01*
X7157Y-31313D01*
X7672Y-31770D02*
X7614Y-31808D01*
X7500Y-31808D01*
X7443Y-31770D01*
X7414Y-31694D01*
X7414Y-31389D01*
X7443Y-31313D01*
X7500Y-31275D01*
X7614Y-31275D01*
X7672Y-31313D01*
X7700Y-31389D01*
X7700Y-31466D01*
X7414Y-31542D01*
X7957Y-31808D02*
X7957Y-31275D01*
X7957Y-31427D02*
X7986Y-31351D01*
X8014Y-31313D01*
X8072Y-31275D01*
X8129Y-31275D01*
X8786Y-31808D02*
X8786Y-31008D01*
X8986Y-31580D01*
X9186Y-31008D01*
X9186Y-31808D01*
X9729Y-31808D02*
X9729Y-31389D01*
X9700Y-31313D01*
X9643Y-31275D01*
X9529Y-31275D01*
X9472Y-31313D01*
X9729Y-31770D02*
X9672Y-31808D01*
X9529Y-31808D01*
X9472Y-31770D01*
X9443Y-31694D01*
X9443Y-31618D01*
X9472Y-31542D01*
X9529Y-31504D01*
X9672Y-31504D01*
X9729Y-31466D01*
X9986Y-31770D02*
X10043Y-31808D01*
X10157Y-31808D01*
X10214Y-31770D01*
X10243Y-31694D01*
X10243Y-31656D01*
X10214Y-31580D01*
X10157Y-31542D01*
X10072Y-31542D01*
X10014Y-31504D01*
X9986Y-31427D01*
X9986Y-31389D01*
X10014Y-31313D01*
X10072Y-31275D01*
X10157Y-31275D01*
X10214Y-31313D01*
X10500Y-31808D02*
X10500Y-31008D01*
X10557Y-31504D02*
X10729Y-31808D01*
X10729Y-31275D02*
X10500Y-31580D01*
X11614Y-32113D02*
X11586Y-32075D01*
X11529Y-31961D01*
X11500Y-31885D01*
X11472Y-31770D01*
X11443Y-31580D01*
X11443Y-31427D01*
X11472Y-31237D01*
X11500Y-31123D01*
X11529Y-31047D01*
X11586Y-30932D01*
X11614Y-30894D01*
X12043Y-31389D02*
X11843Y-31389D01*
X11843Y-31808D02*
X11843Y-31008D01*
X12129Y-31008D01*
X12357Y-31808D02*
X12357Y-31275D01*
X12357Y-31427D02*
X12386Y-31351D01*
X12414Y-31313D01*
X12472Y-31275D01*
X12529Y-31275D01*
X12814Y-31808D02*
X12757Y-31770D01*
X12729Y-31732D01*
X12700Y-31656D01*
X12700Y-31427D01*
X12729Y-31351D01*
X12757Y-31313D01*
X12814Y-31275D01*
X12900Y-31275D01*
X12957Y-31313D01*
X12986Y-31351D01*
X13014Y-31427D01*
X13014Y-31656D01*
X12986Y-31732D01*
X12957Y-31770D01*
X12900Y-31808D01*
X12814Y-31808D01*
X13272Y-31275D02*
X13272Y-31808D01*
X13272Y-31351D02*
X13300Y-31313D01*
X13357Y-31275D01*
X13443Y-31275D01*
X13500Y-31313D01*
X13529Y-31389D01*
X13529Y-31808D01*
X13729Y-31275D02*
X13957Y-31275D01*
X13814Y-31008D02*
X13814Y-31694D01*
X13843Y-31770D01*
X13900Y-31808D01*
X13957Y-31808D01*
X14100Y-32113D02*
X14129Y-32075D01*
X14186Y-31961D01*
X14214Y-31885D01*
X14243Y-31770D01*
X14272Y-31580D01*
X14272Y-31427D01*
X14243Y-31237D01*
X14214Y-31123D01*
X14186Y-31047D01*
X14129Y-30932D01*
X14100Y-30894D01*
G54D12*
X45570Y-49008D03*
G54D13*
X45570Y-48008D03*
G54D12*
X46566Y-49008D03*
G54D13*
X46566Y-48008D03*
G54D12*
X46562Y-47008D03*
G54D13*
X46562Y-46008D03*
G54D12*
X22939Y-11242D03*
G54D13*
X22939Y-12242D03*
X21939Y-11242D03*
X21939Y-12242D03*
X20939Y-11242D03*
X20939Y-12242D03*
X19939Y-11242D03*
X19939Y-12242D03*
X18939Y-11242D03*
X18939Y-12242D03*
X17939Y-11242D03*
X17939Y-12242D03*
X16939Y-11242D03*
X16939Y-12242D03*
X15939Y-12242D03*
X15939Y-11242D03*
G54D14*
X22929Y-13248D03*
G54D15*
X21929Y-13248D03*
X20929Y-13248D03*
X19929Y-13248D03*
X18929Y-13248D03*
X17929Y-13248D03*
X16929Y-13248D03*
X15929Y-13248D03*
G54D16*
X20443Y-26348D03*
G54D14*
X38598Y-59459D03*
G54D15*
X37598Y-59459D03*
X36598Y-59459D03*
G54D17*
X24951Y-11250D03*
G54D18*
X47982Y-62041D03*
X47982Y-59581D03*
G54D19*
X49872Y-60762D03*
G54D20*
X20827Y-15315D03*
X26122Y-42894D03*
G54D21*
X30236Y-40069D03*
G54D16*
X22303Y-24567D03*
G54D22*
X27174Y-21122D03*
X27174Y-21319D03*
X27174Y-21516D03*
X27174Y-21713D03*
X27627Y-21713D03*
X27627Y-21516D03*
X27627Y-21319D03*
X27627Y-21122D03*
G54D23*
X21929Y-25699D03*
X21103Y-25699D03*
X21103Y-26349D03*
X21929Y-26349D03*
G54D12*
X18935Y-43630D03*
G54D13*
X17935Y-43630D03*
X18935Y-42630D03*
X17935Y-42630D03*
X18935Y-41630D03*
X17935Y-41630D03*
X18935Y-40630D03*
X17935Y-40630D03*
X18935Y-39630D03*
X17935Y-39630D03*
X18935Y-38630D03*
X17935Y-38630D03*
X18935Y-37630D03*
X17935Y-37630D03*
X18935Y-36630D03*
X17935Y-36630D03*
X18935Y-35630D03*
X17935Y-35630D03*
X18935Y-34630D03*
X17935Y-34630D03*
G54D24*
X45454Y-10964D03*
X38328Y-10964D03*
G54D25*
X39036Y-11928D03*
X39232Y-11928D03*
X39429Y-11928D03*
X39626Y-11928D03*
X39823Y-11928D03*
X40020Y-11928D03*
X40217Y-11928D03*
X40414Y-11928D03*
X40610Y-11928D03*
X40807Y-11928D03*
X41004Y-11928D03*
X41201Y-11928D03*
X41398Y-11928D03*
X41595Y-11928D03*
X41793Y-11929D03*
X41988Y-11928D03*
X42185Y-11928D03*
X42382Y-11928D03*
X42776Y-11928D03*
X43170Y-11928D03*
X43563Y-11928D03*
X43366Y-11928D03*
X42973Y-11928D03*
X42579Y-11928D03*
X43760Y-11928D03*
X43957Y-11928D03*
X44154Y-11928D03*
X44351Y-11928D03*
X44547Y-11928D03*
X44746Y-11928D03*
G54D24*
X34526Y-11022D03*
X27400Y-11022D03*
G54D25*
X28108Y-11986D03*
X28304Y-11986D03*
X28501Y-11986D03*
X28698Y-11986D03*
X28895Y-11986D03*
X29092Y-11986D03*
X29289Y-11986D03*
X29486Y-11986D03*
X29682Y-11986D03*
X29879Y-11986D03*
X30076Y-11986D03*
X30273Y-11986D03*
X30470Y-11986D03*
X30667Y-11986D03*
X30865Y-11987D03*
X31060Y-11986D03*
X31257Y-11986D03*
X31454Y-11986D03*
X31848Y-11986D03*
X32242Y-11986D03*
X32635Y-11986D03*
X32438Y-11986D03*
X32045Y-11986D03*
X31651Y-11986D03*
X32832Y-11986D03*
X33029Y-11986D03*
X33226Y-11986D03*
X33423Y-11986D03*
X33619Y-11986D03*
X33818Y-11986D03*
G54D26*
X34528Y-45812D03*
X34528Y-45212D03*
X34646Y-57170D03*
X34646Y-56570D03*
X45531Y-23528D03*
X45531Y-22928D03*
X45551Y-34610D03*
X45551Y-34010D03*
G54D27*
X20485Y-58877D03*
X20485Y-59627D03*
X21485Y-58877D03*
X20485Y-59252D03*
X21485Y-59627D03*
G54D26*
X21575Y-58293D03*
X21575Y-57693D03*
G54D28*
X22800Y-58327D03*
X22200Y-58327D03*
G54D27*
X21841Y-36213D03*
X21841Y-36963D03*
X22841Y-36213D03*
X21841Y-36588D03*
X22841Y-36963D03*
G54D26*
X22855Y-35616D03*
X22855Y-35016D03*
G54D28*
X24156Y-35663D03*
X23556Y-35663D03*
X24160Y-40923D03*
X23560Y-40923D03*
G54D26*
X22935Y-40889D03*
X22935Y-40289D03*
G54D27*
X21845Y-41473D03*
X21845Y-42223D03*
X22845Y-41473D03*
X21845Y-41848D03*
X22845Y-42223D03*
X23890Y-16891D03*
X23890Y-17641D03*
X24890Y-16891D03*
X23890Y-17266D03*
X24890Y-17641D03*
X52419Y-39303D03*
X52419Y-38553D03*
X51419Y-39303D03*
X52419Y-38928D03*
X51419Y-38553D03*
G54D29*
X52585Y-59971D03*
G54D30*
X52585Y-60522D03*
X52782Y-60522D03*
X52979Y-60522D03*
X52388Y-60522D03*
X52191Y-60522D03*
X52585Y-59420D03*
X52388Y-59420D03*
X52191Y-59420D03*
X52782Y-59420D03*
X52979Y-59420D03*
G54D31*
X52972Y-56831D03*
G54D32*
X52972Y-55827D03*
G54D28*
X50104Y-39853D03*
X50704Y-39853D03*
G54D26*
X51329Y-39887D03*
X51329Y-40487D03*
X52350Y-62318D03*
X52350Y-61718D03*
G54D28*
X52315Y-61172D03*
X51715Y-61172D03*
G54D26*
X53071Y-61806D03*
X53071Y-62406D03*
G54D28*
X53605Y-61054D03*
X54205Y-61054D03*
G54D26*
X24980Y-16307D03*
X24980Y-15707D03*
G54D28*
X26205Y-16341D03*
X25605Y-16341D03*
G54D26*
X34862Y-23725D03*
X34862Y-23125D03*
G54D33*
X27481Y-59882D03*
X27737Y-59882D03*
X27225Y-59882D03*
X27225Y-60630D03*
X27481Y-60630D03*
X27737Y-60630D03*
X26556Y-59882D03*
X26812Y-59882D03*
X26300Y-59882D03*
X26300Y-60630D03*
X26556Y-60630D03*
X26812Y-60630D03*
X25611Y-59882D03*
X25867Y-59882D03*
X25355Y-59882D03*
X25355Y-60630D03*
X25611Y-60630D03*
X25867Y-60630D03*
G54D26*
X45630Y-57249D03*
X45630Y-56649D03*
X45610Y-45891D03*
X45610Y-45291D03*
X34626Y-34610D03*
X34626Y-34010D03*
G54D34*
X35904Y-25137D03*
X35904Y-24881D03*
X35904Y-25393D03*
X36652Y-25393D03*
X36652Y-25137D03*
X36652Y-24881D03*
X25059Y-25335D03*
X25059Y-25079D03*
X25059Y-25591D03*
X25807Y-25591D03*
X25807Y-25335D03*
X25807Y-25079D03*
X35904Y-26063D03*
X35904Y-25807D03*
X35904Y-26319D03*
X36652Y-26319D03*
X36652Y-26063D03*
X36652Y-25807D03*
X25059Y-27776D03*
X25059Y-27520D03*
X25059Y-28032D03*
X25807Y-28032D03*
X25807Y-27776D03*
X25807Y-27520D03*
G54D24*
X28524Y-64351D03*
X35650Y-64351D03*
G54D25*
X34942Y-63387D03*
X34746Y-63387D03*
X34549Y-63387D03*
X34352Y-63387D03*
X34155Y-63387D03*
X33958Y-63387D03*
X33761Y-63387D03*
X33564Y-63387D03*
X33368Y-63387D03*
X33171Y-63387D03*
X32974Y-63387D03*
X32777Y-63387D03*
X32580Y-63387D03*
X32383Y-63387D03*
X32185Y-63386D03*
X31990Y-63387D03*
X31793Y-63387D03*
X31596Y-63387D03*
X31202Y-63387D03*
X30808Y-63387D03*
X30415Y-63387D03*
X30612Y-63387D03*
X31005Y-63387D03*
X31399Y-63387D03*
X30218Y-63387D03*
X30021Y-63387D03*
X29824Y-63387D03*
X29627Y-63387D03*
X29431Y-63387D03*
X29232Y-63387D03*
G54D24*
X38347Y-64312D03*
X45473Y-64312D03*
G54D25*
X44765Y-63348D03*
X44569Y-63348D03*
X44372Y-63348D03*
X44175Y-63348D03*
X43978Y-63348D03*
X43781Y-63348D03*
X43584Y-63348D03*
X43387Y-63348D03*
X43191Y-63348D03*
X42994Y-63348D03*
X42797Y-63348D03*
X42600Y-63348D03*
X42403Y-63348D03*
X42206Y-63348D03*
X42008Y-63347D03*
X41813Y-63348D03*
X41616Y-63348D03*
X41419Y-63348D03*
X41025Y-63348D03*
X40631Y-63348D03*
X40238Y-63348D03*
X40435Y-63348D03*
X40828Y-63348D03*
X41222Y-63348D03*
X40041Y-63348D03*
X39844Y-63348D03*
X39647Y-63348D03*
X39450Y-63348D03*
X39254Y-63348D03*
X39055Y-63348D03*
G54D35*
X55294Y-25865D03*
X55294Y-18739D03*
G54D36*
X54330Y-19447D03*
X54330Y-19643D03*
X54330Y-19840D03*
X54330Y-20037D03*
X54330Y-20234D03*
X54330Y-20431D03*
X54330Y-20628D03*
X54330Y-20825D03*
X54330Y-21021D03*
X54330Y-21218D03*
X54330Y-21415D03*
X54330Y-21612D03*
X54330Y-21809D03*
X54330Y-22006D03*
X54329Y-22204D03*
X54330Y-22399D03*
X54330Y-22596D03*
X54330Y-22793D03*
X54330Y-23187D03*
X54330Y-23581D03*
X54330Y-23974D03*
X54330Y-23777D03*
X54330Y-23384D03*
X54330Y-22990D03*
X54330Y-24171D03*
X54330Y-24368D03*
X54330Y-24565D03*
X54330Y-24762D03*
X54330Y-24958D03*
X54330Y-25157D03*
G54D35*
X55296Y-34527D03*
X55296Y-27401D03*
G54D36*
X54332Y-28109D03*
X54332Y-28305D03*
X54332Y-28502D03*
X54332Y-28699D03*
X54332Y-28896D03*
X54332Y-29093D03*
X54332Y-29290D03*
X54332Y-29487D03*
X54332Y-29683D03*
X54332Y-29880D03*
X54332Y-30077D03*
X54332Y-30274D03*
X54332Y-30471D03*
X54332Y-30668D03*
X54331Y-30866D03*
X54332Y-31061D03*
X54332Y-31258D03*
X54332Y-31455D03*
X54332Y-31849D03*
X54332Y-32243D03*
X54332Y-32636D03*
X54332Y-32439D03*
X54332Y-32046D03*
X54332Y-31652D03*
X54332Y-32833D03*
X54332Y-33030D03*
X54332Y-33227D03*
X54332Y-33424D03*
X54332Y-33620D03*
X54332Y-33819D03*
G54D35*
X55316Y-51732D03*
X55316Y-44606D03*
G54D36*
X54352Y-45314D03*
X54352Y-45510D03*
X54352Y-45707D03*
X54352Y-45904D03*
X54352Y-46101D03*
X54352Y-46298D03*
X54352Y-46495D03*
X54352Y-46692D03*
X54352Y-46888D03*
X54352Y-47085D03*
X54352Y-47282D03*
X54352Y-47479D03*
X54352Y-47676D03*
X54352Y-47873D03*
X54351Y-48071D03*
X54352Y-48266D03*
X54352Y-48463D03*
X54352Y-48660D03*
X54352Y-49054D03*
X54352Y-49448D03*
X54352Y-49841D03*
X54352Y-49644D03*
X54352Y-49251D03*
X54352Y-48857D03*
X54352Y-50038D03*
X54352Y-50235D03*
X54352Y-50432D03*
X54352Y-50629D03*
X54352Y-50825D03*
X54352Y-51024D03*
G54D35*
X16161Y-44646D03*
X16161Y-51772D03*
G54D36*
X17125Y-51064D03*
X17125Y-50868D03*
X17125Y-50671D03*
X17125Y-50474D03*
X17125Y-50277D03*
X17125Y-50080D03*
X17125Y-49883D03*
X17125Y-49686D03*
X17125Y-49490D03*
X17125Y-49293D03*
X17125Y-49096D03*
X17125Y-48899D03*
X17125Y-48702D03*
X17125Y-48505D03*
X17126Y-48307D03*
X17125Y-48112D03*
X17125Y-47915D03*
X17125Y-47718D03*
X17125Y-47324D03*
X17125Y-46930D03*
X17125Y-46537D03*
X17125Y-46734D03*
X17125Y-47127D03*
X17125Y-47521D03*
X17125Y-46340D03*
X17125Y-46143D03*
X17125Y-45946D03*
X17125Y-45749D03*
X17125Y-45553D03*
X17125Y-45354D03*
G54D35*
X16161Y-27441D03*
X16161Y-34567D03*
G54D36*
X17125Y-33859D03*
X17125Y-33663D03*
X17125Y-33466D03*
X17125Y-33269D03*
X17125Y-33072D03*
X17125Y-32875D03*
X17125Y-32678D03*
X17125Y-32481D03*
X17125Y-32285D03*
X17125Y-32088D03*
X17125Y-31891D03*
X17125Y-31694D03*
X17125Y-31497D03*
X17125Y-31300D03*
X17126Y-31102D03*
X17125Y-30907D03*
X17125Y-30710D03*
X17125Y-30513D03*
X17125Y-30119D03*
X17125Y-29725D03*
X17125Y-29332D03*
X17125Y-29529D03*
X17125Y-29922D03*
X17125Y-30316D03*
X17125Y-29135D03*
X17125Y-28938D03*
X17125Y-28741D03*
X17125Y-28544D03*
X17125Y-28348D03*
X17125Y-28149D03*
G54D35*
X16160Y-18780D03*
X16160Y-25906D03*
G54D36*
X17124Y-25198D03*
X17124Y-25002D03*
X17124Y-24805D03*
X17124Y-24608D03*
X17124Y-24411D03*
X17124Y-24214D03*
X17124Y-24017D03*
X17124Y-23820D03*
X17124Y-23624D03*
X17124Y-23427D03*
X17124Y-23230D03*
X17124Y-23033D03*
X17124Y-22836D03*
X17124Y-22639D03*
X17125Y-22441D03*
X17124Y-22246D03*
X17124Y-22049D03*
X17124Y-21852D03*
X17124Y-21458D03*
X17124Y-21064D03*
X17124Y-20671D03*
X17124Y-20868D03*
X17124Y-21261D03*
X17124Y-21655D03*
X17124Y-20474D03*
X17124Y-20277D03*
X17124Y-20080D03*
X17124Y-19883D03*
X17124Y-19687D03*
X17124Y-19488D03*
G54D37*
X20610Y-18307D03*
X20866Y-18307D03*
X21122Y-18307D03*
X20354Y-18307D03*
X20098Y-18307D03*
X19842Y-18307D03*
X18307Y-18307D03*
X18563Y-18307D03*
X18819Y-18307D03*
X19587Y-18307D03*
X19331Y-18307D03*
X19075Y-18307D03*
X19075Y-16103D03*
X19331Y-16103D03*
X19587Y-16103D03*
X18819Y-16103D03*
X18563Y-16103D03*
X18307Y-16103D03*
X19842Y-16103D03*
X20098Y-16103D03*
X20354Y-16103D03*
X21122Y-16103D03*
X20866Y-16103D03*
X20610Y-16103D03*
G54D38*
X27165Y-12874D03*
X27165Y-12618D03*
X27165Y-12362D03*
X27165Y-13130D03*
X27165Y-13386D03*
X27165Y-13642D03*
X27165Y-15177D03*
X27165Y-14921D03*
X27165Y-14665D03*
X27165Y-13897D03*
X27165Y-14153D03*
X27165Y-14409D03*
X24961Y-14409D03*
X24961Y-14153D03*
X24961Y-13897D03*
X24961Y-14665D03*
X24961Y-14921D03*
X24961Y-15177D03*
X24961Y-13642D03*
X24961Y-13386D03*
X24961Y-13130D03*
X24961Y-12362D03*
X24961Y-12618D03*
X24961Y-12874D03*
G54D39*
X53306Y-16516D03*
X54310Y-16516D03*
X52302Y-16516D03*
X51298Y-16516D03*
X53307Y-11713D03*
G54D40*
X29252Y-40806D03*
X29252Y-40058D03*
X28346Y-40432D03*
X27323Y-40806D03*
X27323Y-40058D03*
X26417Y-40432D03*
G54D26*
X28169Y-39306D03*
X28169Y-39906D03*
X26752Y-61472D03*
X26752Y-62072D03*
G54D34*
X35905Y-27145D03*
X35905Y-26889D03*
X35905Y-27401D03*
X36653Y-27401D03*
X36653Y-27145D03*
X36653Y-26889D03*
G54D41*
X16713Y-14606D03*
X16713Y-14232D03*
X16713Y-14980D03*
X17579Y-14980D03*
X17579Y-14232D03*
G54D26*
X24764Y-24454D03*
X24764Y-23854D03*
G54D28*
X54818Y-16516D03*
X55418Y-16516D03*
X54818Y-17244D03*
X55418Y-17244D03*
X50635Y-17185D03*
X50035Y-17185D03*
X50635Y-16516D03*
X50035Y-16516D03*
G54D34*
X36673Y-47500D03*
X36673Y-47244D03*
X36673Y-47756D03*
X37421Y-47756D03*
X37421Y-47500D03*
X37421Y-47244D03*
X36673Y-48406D03*
X36673Y-48150D03*
X36673Y-48662D03*
X37421Y-48662D03*
X37421Y-48406D03*
X37421Y-48150D03*
X25217Y-47972D03*
X25217Y-47716D03*
X25217Y-48228D03*
X25965Y-48228D03*
X25965Y-47972D03*
X25965Y-47716D03*
X25217Y-50354D03*
X25217Y-50098D03*
X25217Y-50610D03*
X25965Y-50610D03*
X25965Y-50354D03*
X25965Y-50098D03*
G54D33*
X50965Y-33543D03*
X50709Y-33543D03*
X51221Y-33543D03*
X51221Y-32795D03*
X50965Y-32795D03*
X50709Y-32795D03*
X51929Y-33543D03*
X51673Y-33543D03*
X52185Y-33543D03*
X52185Y-32795D03*
X51929Y-32795D03*
X51673Y-32795D03*
G54D34*
X20581Y-28051D03*
X20581Y-27795D03*
X20581Y-28307D03*
X21329Y-28307D03*
X21329Y-28051D03*
X21329Y-27795D03*
X36673Y-49744D03*
X36673Y-49488D03*
X36673Y-50000D03*
X37421Y-50000D03*
X37421Y-49744D03*
X37421Y-49488D03*
X25217Y-52028D03*
X25217Y-51772D03*
X25217Y-52284D03*
X25965Y-52284D03*
X25965Y-52028D03*
X25965Y-51772D03*
G54D33*
X49980Y-33543D03*
X49724Y-33543D03*
X50236Y-33543D03*
X50236Y-32795D03*
X49980Y-32795D03*
X49724Y-32795D03*
G54D42*
X54350Y-56671D03*
X54350Y-58345D03*
G54D43*
X54291Y-38205D03*
X53031Y-38205D03*
X18457Y-59960D03*
X19717Y-59960D03*
X19990Y-42578D03*
X21250Y-42578D03*
X19957Y-37322D03*
X21217Y-37322D03*
X21941Y-17925D03*
X23201Y-17925D03*
G54D26*
X53110Y-58863D03*
X53110Y-58263D03*
G54D28*
X21767Y-25010D03*
X21167Y-25010D03*
X26206Y-16969D03*
X25606Y-16969D03*
X53106Y-63012D03*
X53706Y-63012D03*
X50113Y-39173D03*
X50713Y-39173D03*
X24158Y-41555D03*
X23558Y-41555D03*
X24158Y-36299D03*
X23558Y-36299D03*
X22800Y-58957D03*
X22200Y-58957D03*
X37249Y-24331D03*
X36649Y-24331D03*
G54D26*
X27421Y-49936D03*
X27421Y-50536D03*
X27480Y-28115D03*
X27480Y-27515D03*
G54D28*
X37583Y-46614D03*
X36983Y-46614D03*
G54D26*
X42224Y-51669D03*
X42224Y-52269D03*
X42303Y-40015D03*
X42303Y-40615D03*
X42500Y-59129D03*
X42500Y-59729D03*
X25866Y-62150D03*
X25866Y-61550D03*
X51673Y-31354D03*
X51673Y-31954D03*
X31535Y-59011D03*
X31535Y-59611D03*
G54D28*
X24503Y-51280D03*
X25103Y-51280D03*
X27426Y-52283D03*
X26826Y-52283D03*
X38922Y-50000D03*
X38322Y-50000D03*
X35684Y-49075D03*
X36284Y-49075D03*
X27564Y-45472D03*
X26964Y-45472D03*
X27544Y-56870D03*
X26944Y-56870D03*
X38450Y-27697D03*
X37850Y-27697D03*
X38233Y-26969D03*
X37633Y-26969D03*
X26973Y-29803D03*
X26373Y-29803D03*
X24464Y-28799D03*
X25064Y-28799D03*
X36402Y-23012D03*
X35802Y-23012D03*
X27426Y-34311D03*
X26826Y-34311D03*
G54D26*
X42303Y-17830D03*
X42303Y-18430D03*
X42303Y-29070D03*
X42303Y-29670D03*
G54D28*
X47308Y-22953D03*
X46708Y-22953D03*
X48657Y-24488D03*
X49257Y-24488D03*
X26422Y-23681D03*
X25822Y-23681D03*
X38686Y-23524D03*
X38086Y-23524D03*
G54D26*
X40669Y-25153D03*
X40669Y-25753D03*
X43819Y-18469D03*
X43819Y-17869D03*
G54D28*
X45724Y-20295D03*
X46324Y-20295D03*
X38715Y-34773D03*
X38115Y-34773D03*
G54D26*
X40945Y-36629D03*
X40945Y-37229D03*
X44154Y-29926D03*
X44154Y-29326D03*
G54D28*
X45783Y-31575D03*
X46383Y-31575D03*
X27564Y-46083D03*
X26964Y-46083D03*
G54D26*
X29685Y-47574D03*
X29685Y-48174D03*
G54D28*
X32987Y-41004D03*
X33587Y-41004D03*
X34956Y-42776D03*
X35556Y-42776D03*
X27544Y-57539D03*
X26944Y-57539D03*
G54D26*
X29547Y-58735D03*
X29547Y-59335D03*
G54D28*
X33007Y-52244D03*
X33607Y-52244D03*
X34995Y-53996D03*
X35595Y-53996D03*
X38587Y-45768D03*
X37987Y-45768D03*
G54D26*
X40217Y-47495D03*
X40217Y-48095D03*
G54D28*
X43972Y-41024D03*
X44572Y-41024D03*
X45920Y-42756D03*
X46520Y-42756D03*
X38410Y-57087D03*
X37810Y-57087D03*
G54D26*
X40689Y-58932D03*
X40689Y-59532D03*
G54D28*
X43972Y-52146D03*
X44572Y-52146D03*
X45822Y-53799D03*
X46422Y-53799D03*
X27485Y-23681D03*
X26885Y-23681D03*
G54D26*
X29705Y-25074D03*
X29705Y-25674D03*
X32854Y-18509D03*
X32854Y-17909D03*
G54D28*
X34877Y-20354D03*
X35477Y-20354D03*
X27426Y-34902D03*
X26826Y-34902D03*
G54D26*
X29843Y-36728D03*
X29843Y-37328D03*
G54D28*
X32889Y-30000D03*
X33489Y-30000D03*
X34976Y-31673D03*
X35576Y-31673D03*
G54D44*
X33642Y-22921D03*
X33642Y-23299D03*
X29193Y-20563D03*
X29193Y-20185D03*
X28917Y-23453D03*
X28917Y-23831D03*
X33642Y-20504D03*
X33642Y-20126D03*
X33642Y-23669D03*
X33642Y-24047D03*
X29913Y-19783D03*
X29535Y-19783D03*
X32862Y-24232D03*
X33240Y-24232D03*
X29894Y-24232D03*
X29516Y-24232D03*
X32862Y-19783D03*
X33240Y-19783D03*
X43846Y-30984D03*
X44224Y-30984D03*
X40878Y-35433D03*
X40500Y-35433D03*
X43846Y-35433D03*
X44224Y-35433D03*
X40898Y-30984D03*
X40520Y-30984D03*
X44626Y-34870D03*
X44626Y-35248D03*
X44626Y-31705D03*
X44626Y-31327D03*
X39902Y-34654D03*
X39902Y-35032D03*
X40177Y-31764D03*
X40177Y-31386D03*
X44626Y-34122D03*
X44626Y-34500D03*
X44626Y-22921D03*
X44626Y-23299D03*
X40177Y-20563D03*
X40177Y-20185D03*
X39902Y-23453D03*
X39902Y-23831D03*
X44626Y-20504D03*
X44626Y-20126D03*
X44626Y-23669D03*
X44626Y-24047D03*
X40898Y-19783D03*
X40520Y-19783D03*
X43846Y-24232D03*
X44224Y-24232D03*
X40878Y-24232D03*
X40500Y-24232D03*
X43846Y-19783D03*
X44224Y-19783D03*
X32862Y-30984D03*
X33240Y-30984D03*
X29894Y-35433D03*
X29516Y-35433D03*
X32862Y-35433D03*
X33240Y-35433D03*
X29913Y-30984D03*
X29535Y-30984D03*
X33642Y-34870D03*
X33642Y-35248D03*
X33642Y-31705D03*
X33642Y-31327D03*
X28917Y-34654D03*
X28917Y-35032D03*
X29193Y-31764D03*
X29193Y-31386D03*
X33642Y-34122D03*
X33642Y-34500D03*
X33642Y-56524D03*
X33642Y-56902D03*
X29193Y-54165D03*
X29193Y-53787D03*
X28917Y-57055D03*
X28917Y-57433D03*
X33642Y-54106D03*
X33642Y-53728D03*
X33642Y-57272D03*
X33642Y-57650D03*
X29913Y-53386D03*
X29535Y-53386D03*
X32862Y-57894D03*
X33240Y-57894D03*
X29894Y-57894D03*
X29516Y-57894D03*
X32862Y-53386D03*
X33240Y-53386D03*
X43846Y-53386D03*
X44224Y-53386D03*
X40878Y-57894D03*
X40500Y-57894D03*
X43846Y-57894D03*
X44224Y-57894D03*
X40898Y-53386D03*
X40520Y-53386D03*
X44626Y-57272D03*
X44626Y-57650D03*
X44626Y-54106D03*
X44626Y-53728D03*
X39902Y-57055D03*
X39902Y-57433D03*
X40177Y-54165D03*
X40177Y-53787D03*
X44626Y-56524D03*
X44626Y-56902D03*
X44626Y-45323D03*
X44626Y-45701D03*
X40177Y-42965D03*
X40177Y-42587D03*
X39902Y-45854D03*
X39902Y-46232D03*
X44626Y-42906D03*
X44626Y-42528D03*
X44626Y-46071D03*
X44626Y-46449D03*
X40898Y-42185D03*
X40520Y-42185D03*
X43846Y-46634D03*
X44224Y-46634D03*
X40878Y-46634D03*
X40500Y-46634D03*
X43846Y-42185D03*
X44224Y-42185D03*
X32862Y-42185D03*
X33240Y-42185D03*
X29894Y-46634D03*
X29516Y-46634D03*
X32862Y-46634D03*
X33240Y-46634D03*
X29913Y-42185D03*
X29535Y-42185D03*
X33642Y-46071D03*
X33642Y-46449D03*
X33642Y-42906D03*
X33642Y-42528D03*
X28917Y-45854D03*
X28917Y-46232D03*
X29193Y-42965D03*
X29193Y-42587D03*
X33642Y-45323D03*
X33642Y-45701D03*
G54D45*
X28622Y-20670D03*
X28622Y-19920D03*
G54D46*
X29883Y-19213D03*
X29133Y-19213D03*
G54D45*
X28602Y-31832D03*
X28602Y-31082D03*
G54D46*
X29844Y-30394D03*
X29094Y-30394D03*
X23838Y-19094D03*
X24588Y-19094D03*
G54D45*
X39587Y-20651D03*
X39587Y-19901D03*
G54D46*
X40887Y-19193D03*
X40137Y-19193D03*
G54D45*
X39626Y-31871D03*
X39626Y-31121D03*
G54D46*
X40828Y-30315D03*
X40078Y-30315D03*
X21712Y-38425D03*
X22462Y-38425D03*
G54D45*
X23504Y-37204D03*
X23504Y-37954D03*
X28583Y-43052D03*
X28583Y-42302D03*
G54D46*
X29883Y-41594D03*
X29133Y-41594D03*
G54D45*
X28543Y-54214D03*
X28543Y-53464D03*
G54D46*
X29844Y-52835D03*
X29094Y-52835D03*
X22145Y-43622D03*
X22895Y-43622D03*
G54D45*
X23976Y-42479D03*
X23976Y-43229D03*
X39528Y-43072D03*
X39528Y-42322D03*
G54D46*
X40847Y-41614D03*
X40097Y-41614D03*
G54D45*
X39567Y-54292D03*
X39567Y-53542D03*
G54D46*
X40847Y-52795D03*
X40097Y-52795D03*
X20806Y-61220D03*
X21556Y-61220D03*
G54D45*
X22638Y-59901D03*
X22638Y-60651D03*
X50374Y-38229D03*
X50374Y-37479D03*
X25433Y-17873D03*
X25433Y-18623D03*
X54941Y-59251D03*
X54941Y-60001D03*
X53819Y-59290D03*
X53819Y-60040D03*
X51496Y-59271D03*
X51496Y-60021D03*
G54D16*
X26289Y-58593D03*
X27323Y-41427D03*
X53868Y-16516D03*
X53868Y-17579D03*
X52795Y-16496D03*
X51791Y-16496D03*
X22224Y-27136D03*
X51663Y-34311D03*
X51663Y-30679D03*
X50709Y-31673D03*
G54D26*
X49006Y-32544D03*
X49006Y-33144D03*
X28346Y-60566D03*
X28346Y-59966D03*
G54D28*
X22465Y-27815D03*
X21865Y-27815D03*
X21865Y-28514D03*
X22465Y-28514D03*
G54D16*
X22146Y-29203D03*
G54D47*
X19469Y-52953D03*
X51220Y-52953D03*
X39469Y-39715D03*
X20543Y-20567D03*
X47972Y-12992D03*
G54D48*
X33524Y-18289D03*
X33524Y-18879D03*
X35000Y-31043D03*
X34410Y-31043D03*
X33976Y-29724D03*
X33976Y-30314D03*
X34901Y-19824D03*
X34311Y-19824D03*
X27540Y-24194D03*
X28130Y-24194D03*
X29094Y-25670D03*
X29094Y-25080D03*
X45826Y-19705D03*
X45236Y-19705D03*
X44587Y-18505D03*
X44587Y-19095D03*
X38603Y-24115D03*
X39193Y-24115D03*
X40079Y-25670D03*
X40079Y-25080D03*
X27520Y-35452D03*
X28110Y-35452D03*
X29272Y-36889D03*
X29272Y-36299D03*
X45945Y-30984D03*
X45355Y-30984D03*
X44783Y-29704D03*
X44783Y-30294D03*
X38524Y-35334D03*
X39114Y-35334D03*
X40295Y-36771D03*
X40295Y-36181D03*
X28996Y-47992D03*
X28996Y-47402D03*
X27618Y-46653D03*
X28208Y-46653D03*
X34094Y-41004D03*
X34094Y-41594D03*
X34941Y-42204D03*
X34351Y-42204D03*
X39606Y-47893D03*
X39606Y-47303D03*
X38642Y-46811D03*
X39232Y-46811D03*
X45039Y-40965D03*
X45039Y-41555D03*
X45846Y-42205D03*
X45256Y-42205D03*
X45846Y-53209D03*
X45256Y-53209D03*
X45089Y-52107D03*
X45089Y-52697D03*
X38642Y-57716D03*
X39232Y-57716D03*
X40098Y-59271D03*
X40098Y-58681D03*
X34842Y-53386D03*
X34252Y-53386D03*
X34075Y-52264D03*
X34075Y-52854D03*
X28898Y-59153D03*
X28898Y-58563D03*
X27658Y-58091D03*
X28248Y-58091D03*
G54D46*
X52521Y-36959D03*
X51771Y-36959D03*
G54D49*
X50196Y-54338D03*
X50196Y-54838D03*
X50196Y-55338D03*
X50196Y-55838D03*
X47696Y-55838D03*
X47696Y-55338D03*
X47696Y-54838D03*
X47696Y-54338D03*
G54D50*
X42500Y-19706D03*
X42697Y-19706D03*
X42894Y-19706D03*
X43091Y-19706D03*
X43091Y-19253D03*
X42894Y-19253D03*
X42697Y-19253D03*
X42500Y-19253D03*
G54D22*
X28132Y-32913D03*
X28132Y-32716D03*
X28132Y-32519D03*
X28132Y-32322D03*
X27679Y-32322D03*
X27679Y-32519D03*
X27679Y-32716D03*
X27679Y-32913D03*
G54D50*
X42500Y-30838D03*
X42697Y-30838D03*
X42894Y-30838D03*
X43091Y-30838D03*
X43091Y-30385D03*
X42894Y-30385D03*
X42697Y-30385D03*
X42500Y-30385D03*
G54D22*
X34972Y-22500D03*
X34972Y-22303D03*
X34972Y-22106D03*
X34972Y-21909D03*
X34519Y-21909D03*
X34519Y-22106D03*
X34519Y-22303D03*
X34519Y-22500D03*
X46721Y-21910D03*
X46721Y-22107D03*
X46721Y-22304D03*
X46721Y-22501D03*
X47174Y-22501D03*
X47174Y-22304D03*
X47174Y-22107D03*
X47174Y-21910D03*
X28181Y-44114D03*
X28181Y-43917D03*
X28181Y-43720D03*
X28181Y-43523D03*
X27728Y-43523D03*
X27728Y-43720D03*
X27728Y-43917D03*
X27728Y-44114D03*
G54D50*
X42500Y-41822D03*
X42697Y-41822D03*
X42894Y-41822D03*
X43091Y-41822D03*
X43091Y-41369D03*
X42894Y-41369D03*
X42697Y-41369D03*
X42500Y-41369D03*
X42500Y-53259D03*
X42697Y-53259D03*
X42894Y-53259D03*
X43091Y-53259D03*
X43091Y-52806D03*
X42894Y-52806D03*
X42697Y-52806D03*
X42500Y-52806D03*
X41713Y-58299D03*
X41910Y-58299D03*
X42107Y-58299D03*
X42304Y-58299D03*
X42304Y-57846D03*
X42107Y-57846D03*
X41910Y-57846D03*
X41713Y-57846D03*
X30729Y-58319D03*
X30926Y-58319D03*
X31123Y-58319D03*
X31320Y-58319D03*
X31320Y-57866D03*
X31123Y-57866D03*
X30926Y-57866D03*
X30729Y-57866D03*
G54D22*
X28771Y-55315D03*
X28771Y-55118D03*
X28771Y-54921D03*
X28771Y-54724D03*
X28318Y-54724D03*
X28318Y-54921D03*
X28318Y-55118D03*
X28318Y-55315D03*
G54D48*
X51821Y-42963D03*
X52411Y-42963D03*
X51811Y-41998D03*
X52401Y-41998D03*
G54D47*
X35345Y-12992D03*
G54D46*
X54241Y-37087D03*
X53491Y-37087D03*
X21034Y-43701D03*
X20284Y-43701D03*
X19265Y-61114D03*
X18515Y-61114D03*
X21936Y-19185D03*
X22686Y-19185D03*
X20914Y-38445D03*
X20164Y-38445D03*
G54D26*
X48661Y-52559D03*
X48661Y-51959D03*
G54D12*
X46691Y-52966D03*
G54D13*
X46691Y-51966D03*
G54D12*
X18291Y-62854D03*
G54D13*
X19291Y-62854D03*
X20291Y-62854D03*
G54D12*
X22917Y-39134D03*
G54D13*
X23917Y-39134D03*
X24917Y-39134D03*
G54D12*
X21222Y-45522D03*
G54D13*
X22222Y-45522D03*
G54D12*
X21998Y-16563D03*
G54D13*
X21998Y-15563D03*
G54D21*
X30246Y-39104D03*
X22156Y-29990D03*
X22470Y-31329D03*
X39931Y-17205D03*
X39911Y-28110D03*
X20974Y-33858D03*
X17200Y-58700D03*
X19350Y-51289D03*
G54D28*
X50340Y-42963D03*
X50940Y-42963D03*
X50350Y-41998D03*
X50950Y-41998D03*
G54D21*
X54630Y-41854D03*
X55630Y-41850D03*
X53622Y-41850D03*
X53622Y-53543D03*
X54634Y-53543D03*
X55630Y-53543D03*
G54D51*
X39193Y-62264D03*
X39449Y-62264D03*
X38937Y-62264D03*
X39193Y-61398D03*
X38937Y-61398D03*
X39449Y-61398D03*
G54D52*
X53228Y-19390D03*
X53228Y-19134D03*
X53228Y-19646D03*
X52362Y-19390D03*
X52362Y-19646D03*
X52362Y-19134D03*
G54D51*
X39173Y-13386D03*
X38917Y-13386D03*
X39429Y-13386D03*
X39173Y-14252D03*
X39429Y-14252D03*
X38917Y-14252D03*
X17126Y-18150D03*
X17382Y-18150D03*
X16870Y-18150D03*
X17126Y-17284D03*
X16870Y-17284D03*
X17382Y-17284D03*
G54D34*
X25059Y-29547D03*
X25059Y-29291D03*
X25059Y-29803D03*
X25807Y-29803D03*
X25807Y-29547D03*
X25807Y-29291D03*
G54D53*
X29547Y-15089D03*
G54D48*
X40886Y-50797D03*
X40296Y-50797D03*
G54D28*
X40999Y-51427D03*
X40399Y-51427D03*
G54D48*
X30029Y-50935D03*
X29439Y-50935D03*
X36476Y-44105D03*
X36476Y-44695D03*
X41427Y-38986D03*
X40837Y-38986D03*
X30049Y-28396D03*
X29459Y-28396D03*
X36722Y-21034D03*
X36722Y-21624D03*
X41279Y-16703D03*
X40689Y-16703D03*
X40906Y-28267D03*
X40906Y-27677D03*
G54D28*
X30123Y-51624D03*
X29523Y-51624D03*
G54D26*
X36476Y-42909D03*
X36476Y-43509D03*
X40955Y-40546D03*
X40955Y-39946D03*
G54D28*
X30143Y-29055D03*
X29543Y-29055D03*
G54D26*
X36732Y-19818D03*
X36732Y-20418D03*
X40906Y-17908D03*
X40906Y-17308D03*
G54D28*
X41038Y-28957D03*
X40438Y-28957D03*
G54D26*
X25839Y-54450D03*
X25839Y-53850D03*
X25181Y-54446D03*
X25181Y-53846D03*
G54D33*
X25587Y-52709D03*
X25843Y-52709D03*
X25331Y-52709D03*
X25331Y-53457D03*
X25587Y-53457D03*
X25843Y-53457D03*
G54D12*
X36252Y-61783D03*
G54D13*
X36252Y-62783D03*
G54D12*
X24437Y-62874D03*
G54D13*
X23437Y-62874D03*
G54D12*
X37449Y-62783D03*
G54D13*
X37449Y-61783D03*
G54D12*
X24380Y-53846D03*
G54D13*
X24380Y-52846D03*
G54D12*
X37197Y-64244D03*
G54D54*
X31418Y-22009D03*
G54D55*
X33288Y-23879D03*
X29548Y-23879D03*
X33288Y-20139D03*
X29548Y-20139D03*
X29942Y-20139D03*
X30139Y-20139D03*
X30336Y-20139D03*
X30533Y-20139D03*
X30729Y-20139D03*
X30926Y-20139D03*
X31123Y-20139D03*
X31320Y-20139D03*
X31507Y-20139D03*
X31714Y-20139D03*
X31911Y-20139D03*
X32108Y-20139D03*
X32304Y-20139D03*
X32501Y-20139D03*
X32698Y-20139D03*
X32894Y-20139D03*
X30138Y-20434D03*
X30335Y-20434D03*
X30532Y-20434D03*
X30729Y-20434D03*
X30926Y-20434D03*
X31123Y-20434D03*
X31320Y-20434D03*
X31516Y-20434D03*
X31713Y-20434D03*
X31910Y-20434D03*
X32107Y-20434D03*
X32304Y-20434D03*
X32501Y-20434D03*
X32698Y-20434D03*
X29548Y-20533D03*
X29548Y-20729D03*
X29548Y-20926D03*
X29548Y-21123D03*
X29548Y-21320D03*
X29548Y-21517D03*
X29548Y-21911D03*
X29548Y-22108D03*
X29548Y-22304D03*
X29548Y-22501D03*
X29548Y-22894D03*
X29548Y-23091D03*
X29548Y-23288D03*
X29548Y-23485D03*
X29548Y-21714D03*
X29548Y-22698D03*
X29843Y-20729D03*
X29843Y-20926D03*
X29843Y-21123D03*
X29843Y-21320D03*
X29843Y-21517D03*
X29843Y-21714D03*
X29843Y-21911D03*
X29843Y-22107D03*
X29843Y-22304D03*
X29843Y-22501D03*
X29843Y-22698D03*
X29843Y-22895D03*
X29843Y-23092D03*
X29843Y-23289D03*
X29942Y-23879D03*
X30138Y-23879D03*
X30335Y-23879D03*
X30532Y-23879D03*
X30729Y-23879D03*
X30926Y-23879D03*
X31123Y-23879D03*
X31320Y-23879D03*
X31516Y-23879D03*
X31713Y-23879D03*
X31910Y-23879D03*
X32107Y-23879D03*
X32304Y-23879D03*
X32501Y-23879D03*
X32698Y-23879D03*
X32894Y-23879D03*
X30138Y-23584D03*
X30335Y-23584D03*
X30532Y-23584D03*
X30729Y-23584D03*
X30926Y-23584D03*
X31123Y-23584D03*
X31320Y-23584D03*
X31516Y-23584D03*
X31713Y-23584D03*
X31910Y-23584D03*
X32107Y-23584D03*
X32304Y-23584D03*
X32501Y-23584D03*
X32698Y-23584D03*
X33288Y-23485D03*
X33288Y-23289D03*
X33288Y-23092D03*
X33288Y-22895D03*
X33288Y-22698D03*
X33288Y-22501D03*
X33288Y-22304D03*
X33288Y-22107D03*
X33288Y-21911D03*
X33288Y-21714D03*
X33288Y-21517D03*
X33288Y-21123D03*
X33288Y-21320D03*
X33288Y-20926D03*
X33288Y-20729D03*
X33288Y-20533D03*
X32993Y-23289D03*
X32993Y-23092D03*
X32993Y-22895D03*
X32993Y-22698D03*
X32993Y-22501D03*
X32993Y-22304D03*
X32993Y-22107D03*
X32993Y-21911D03*
X32993Y-21714D03*
X32993Y-21517D03*
X32993Y-21320D03*
X32993Y-21123D03*
X32993Y-20926D03*
X32993Y-20729D03*
G54D54*
X42402Y-22007D03*
G54D55*
X44272Y-23877D03*
X40532Y-23877D03*
X44272Y-20137D03*
X40532Y-20137D03*
X40926Y-20137D03*
X41123Y-20137D03*
X41320Y-20137D03*
X41517Y-20137D03*
X41713Y-20137D03*
X41910Y-20137D03*
X42107Y-20137D03*
X42304Y-20137D03*
X42491Y-20137D03*
X42698Y-20137D03*
X42895Y-20137D03*
X43092Y-20137D03*
X43288Y-20137D03*
X43485Y-20137D03*
X43682Y-20137D03*
X43878Y-20137D03*
X41122Y-20432D03*
X41319Y-20432D03*
X41516Y-20432D03*
X41713Y-20432D03*
X41910Y-20432D03*
X42107Y-20432D03*
X42304Y-20432D03*
X42500Y-20432D03*
X42697Y-20432D03*
X42894Y-20432D03*
X43091Y-20432D03*
X43288Y-20432D03*
X43485Y-20432D03*
X43682Y-20432D03*
X40532Y-20531D03*
X40532Y-20727D03*
X40532Y-20924D03*
X40532Y-21121D03*
X40532Y-21318D03*
X40532Y-21515D03*
X40532Y-21909D03*
X40532Y-22106D03*
X40532Y-22302D03*
X40532Y-22499D03*
X40532Y-22892D03*
X40532Y-23089D03*
X40532Y-23286D03*
X40532Y-23483D03*
X40532Y-21712D03*
X40532Y-22696D03*
X40827Y-20727D03*
X40827Y-20924D03*
X40827Y-21121D03*
X40827Y-21318D03*
X40827Y-21515D03*
X40827Y-21712D03*
X40827Y-21909D03*
X40827Y-22105D03*
X40827Y-22302D03*
X40827Y-22499D03*
X40827Y-22696D03*
X40827Y-22893D03*
X40827Y-23090D03*
X40827Y-23287D03*
X40926Y-23877D03*
X41122Y-23877D03*
X41319Y-23877D03*
X41516Y-23877D03*
X41713Y-23877D03*
X41910Y-23877D03*
X42107Y-23877D03*
X42304Y-23877D03*
X42500Y-23877D03*
X42697Y-23877D03*
X42894Y-23877D03*
X43091Y-23877D03*
X43288Y-23877D03*
X43485Y-23877D03*
X43682Y-23877D03*
X43878Y-23877D03*
X41122Y-23582D03*
X41319Y-23582D03*
X41516Y-23582D03*
X41713Y-23582D03*
X41910Y-23582D03*
X42107Y-23582D03*
X42304Y-23582D03*
X42500Y-23582D03*
X42697Y-23582D03*
X42894Y-23582D03*
X43091Y-23582D03*
X43288Y-23582D03*
X43485Y-23582D03*
X43682Y-23582D03*
X44272Y-23483D03*
X44272Y-23287D03*
X44272Y-23090D03*
X44272Y-22893D03*
X44272Y-22696D03*
X44272Y-22499D03*
X44272Y-22302D03*
X44272Y-22105D03*
X44272Y-21909D03*
X44272Y-21712D03*
X44272Y-21515D03*
X44272Y-21121D03*
X44272Y-21318D03*
X44272Y-20924D03*
X44272Y-20727D03*
X44272Y-20531D03*
X43977Y-23287D03*
X43977Y-23090D03*
X43977Y-22893D03*
X43977Y-22696D03*
X43977Y-22499D03*
X43977Y-22302D03*
X43977Y-22105D03*
X43977Y-21909D03*
X43977Y-21712D03*
X43977Y-21515D03*
X43977Y-21318D03*
X43977Y-21121D03*
X43977Y-20924D03*
X43977Y-20727D03*
G54D54*
X31418Y-33206D03*
G54D55*
X33288Y-35076D03*
X29548Y-35076D03*
X33288Y-31336D03*
X29548Y-31336D03*
X29942Y-31336D03*
X30139Y-31336D03*
X30336Y-31336D03*
X30533Y-31336D03*
X30729Y-31336D03*
X30926Y-31336D03*
X31123Y-31336D03*
X31320Y-31336D03*
X31507Y-31336D03*
X31714Y-31336D03*
X31911Y-31336D03*
X32108Y-31336D03*
X32304Y-31336D03*
X32501Y-31336D03*
X32698Y-31336D03*
X32894Y-31336D03*
X30138Y-31631D03*
X30335Y-31631D03*
X30532Y-31631D03*
X30729Y-31631D03*
X30926Y-31631D03*
X31123Y-31631D03*
X31320Y-31631D03*
X31516Y-31631D03*
X31713Y-31631D03*
X31910Y-31631D03*
X32107Y-31631D03*
X32304Y-31631D03*
X32501Y-31631D03*
X32698Y-31631D03*
X29548Y-31730D03*
X29548Y-31926D03*
X29548Y-32123D03*
X29548Y-32320D03*
X29548Y-32517D03*
X29548Y-32714D03*
X29548Y-33108D03*
X29548Y-33305D03*
X29548Y-33501D03*
X29548Y-33698D03*
X29548Y-34091D03*
X29548Y-34288D03*
X29548Y-34485D03*
X29548Y-34682D03*
X29548Y-32911D03*
X29548Y-33895D03*
X29843Y-31926D03*
X29843Y-32123D03*
X29843Y-32320D03*
X29843Y-32517D03*
X29843Y-32714D03*
X29843Y-32911D03*
X29843Y-33108D03*
X29843Y-33304D03*
X29843Y-33501D03*
X29843Y-33698D03*
X29843Y-33895D03*
X29843Y-34092D03*
X29843Y-34289D03*
X29843Y-34486D03*
X29942Y-35076D03*
X30138Y-35076D03*
X30335Y-35076D03*
X30532Y-35076D03*
X30729Y-35076D03*
X30926Y-35076D03*
X31123Y-35076D03*
X31320Y-35076D03*
X31516Y-35076D03*
X31713Y-35076D03*
X31910Y-35076D03*
X32107Y-35076D03*
X32304Y-35076D03*
X32501Y-35076D03*
X32698Y-35076D03*
X32894Y-35076D03*
X30138Y-34781D03*
X30335Y-34781D03*
X30532Y-34781D03*
X30729Y-34781D03*
X30926Y-34781D03*
X31123Y-34781D03*
X31320Y-34781D03*
X31516Y-34781D03*
X31713Y-34781D03*
X31910Y-34781D03*
X32107Y-34781D03*
X32304Y-34781D03*
X32501Y-34781D03*
X32698Y-34781D03*
X33288Y-34682D03*
X33288Y-34486D03*
X33288Y-34289D03*
X33288Y-34092D03*
X33288Y-33895D03*
X33288Y-33698D03*
X33288Y-33501D03*
X33288Y-33304D03*
X33288Y-33108D03*
X33288Y-32911D03*
X33288Y-32714D03*
X33288Y-32320D03*
X33288Y-32517D03*
X33288Y-32123D03*
X33288Y-31926D03*
X33288Y-31730D03*
X32993Y-34486D03*
X32993Y-34289D03*
X32993Y-34092D03*
X32993Y-33895D03*
X32993Y-33698D03*
X32993Y-33501D03*
X32993Y-33304D03*
X32993Y-33108D03*
X32993Y-32911D03*
X32993Y-32714D03*
X32993Y-32517D03*
X32993Y-32320D03*
X32993Y-32123D03*
X32993Y-31926D03*
G54D54*
X42402Y-33209D03*
G54D55*
X44272Y-35079D03*
X40532Y-35079D03*
X44272Y-31339D03*
X40532Y-31339D03*
X40926Y-31339D03*
X41123Y-31339D03*
X41320Y-31339D03*
X41517Y-31339D03*
X41713Y-31339D03*
X41910Y-31339D03*
X42107Y-31339D03*
X42304Y-31339D03*
X42491Y-31339D03*
X42698Y-31339D03*
X42895Y-31339D03*
X43092Y-31339D03*
X43288Y-31339D03*
X43485Y-31339D03*
X43682Y-31339D03*
X43878Y-31339D03*
X41122Y-31634D03*
X41319Y-31634D03*
X41516Y-31634D03*
X41713Y-31634D03*
X41910Y-31634D03*
X42107Y-31634D03*
X42304Y-31634D03*
X42500Y-31634D03*
X42697Y-31634D03*
X42894Y-31634D03*
X43091Y-31634D03*
X43288Y-31634D03*
X43485Y-31634D03*
X43682Y-31634D03*
X40532Y-31733D03*
X40532Y-31929D03*
X40532Y-32126D03*
X40532Y-32323D03*
X40532Y-32520D03*
X40532Y-32717D03*
X40532Y-33111D03*
X40532Y-33308D03*
X40532Y-33504D03*
X40532Y-33701D03*
X40532Y-34094D03*
X40532Y-34291D03*
X40532Y-34488D03*
X40532Y-34685D03*
X40532Y-32914D03*
X40532Y-33898D03*
X40827Y-31929D03*
X40827Y-32126D03*
X40827Y-32323D03*
X40827Y-32520D03*
X40827Y-32717D03*
X40827Y-32914D03*
X40827Y-33111D03*
X40827Y-33307D03*
X40827Y-33504D03*
X40827Y-33701D03*
X40827Y-33898D03*
X40827Y-34095D03*
X40827Y-34292D03*
X40827Y-34489D03*
X40926Y-35079D03*
X41122Y-35079D03*
X41319Y-35079D03*
X41516Y-35079D03*
X41713Y-35079D03*
X41910Y-35079D03*
X42107Y-35079D03*
X42304Y-35079D03*
X42500Y-35079D03*
X42697Y-35079D03*
X42894Y-35079D03*
X43091Y-35079D03*
X43288Y-35079D03*
X43485Y-35079D03*
X43682Y-35079D03*
X43878Y-35079D03*
X41122Y-34784D03*
X41319Y-34784D03*
X41516Y-34784D03*
X41713Y-34784D03*
X41910Y-34784D03*
X42107Y-34784D03*
X42304Y-34784D03*
X42500Y-34784D03*
X42697Y-34784D03*
X42894Y-34784D03*
X43091Y-34784D03*
X43288Y-34784D03*
X43485Y-34784D03*
X43682Y-34784D03*
X44272Y-34685D03*
X44272Y-34489D03*
X44272Y-34292D03*
X44272Y-34095D03*
X44272Y-33898D03*
X44272Y-33701D03*
X44272Y-33504D03*
X44272Y-33307D03*
X44272Y-33111D03*
X44272Y-32914D03*
X44272Y-32717D03*
X44272Y-32323D03*
X44272Y-32520D03*
X44272Y-32126D03*
X44272Y-31929D03*
X44272Y-31733D03*
X43977Y-34489D03*
X43977Y-34292D03*
X43977Y-34095D03*
X43977Y-33898D03*
X43977Y-33701D03*
X43977Y-33504D03*
X43977Y-33307D03*
X43977Y-33111D03*
X43977Y-32914D03*
X43977Y-32717D03*
X43977Y-32520D03*
X43977Y-32323D03*
X43977Y-32126D03*
X43977Y-31929D03*
G54D54*
X31417Y-44411D03*
G54D55*
X33287Y-46281D03*
X29547Y-46281D03*
X33287Y-42541D03*
X29547Y-42541D03*
X29941Y-42541D03*
X30138Y-42541D03*
X30335Y-42541D03*
X30532Y-42541D03*
X30728Y-42541D03*
X30925Y-42541D03*
X31122Y-42541D03*
X31319Y-42541D03*
X31506Y-42541D03*
X31713Y-42541D03*
X31910Y-42541D03*
X32107Y-42541D03*
X32303Y-42541D03*
X32500Y-42541D03*
X32697Y-42541D03*
X32893Y-42541D03*
X30137Y-42836D03*
X30334Y-42836D03*
X30531Y-42836D03*
X30728Y-42836D03*
X30925Y-42836D03*
X31122Y-42836D03*
X31319Y-42836D03*
X31515Y-42836D03*
X31712Y-42836D03*
X31909Y-42836D03*
X32106Y-42836D03*
X32303Y-42836D03*
X32500Y-42836D03*
X32697Y-42836D03*
X29547Y-42935D03*
X29547Y-43131D03*
X29547Y-43328D03*
X29547Y-43525D03*
X29547Y-43722D03*
X29547Y-43919D03*
X29547Y-44313D03*
X29547Y-44510D03*
X29547Y-44706D03*
X29547Y-44903D03*
X29547Y-45296D03*
X29547Y-45493D03*
X29547Y-45690D03*
X29547Y-45887D03*
X29547Y-44116D03*
X29547Y-45100D03*
X29842Y-43131D03*
X29842Y-43328D03*
X29842Y-43525D03*
X29842Y-43722D03*
X29842Y-43919D03*
X29842Y-44116D03*
X29842Y-44313D03*
X29842Y-44509D03*
X29842Y-44706D03*
X29842Y-44903D03*
X29842Y-45100D03*
X29842Y-45297D03*
X29842Y-45494D03*
X29842Y-45691D03*
X29941Y-46281D03*
X30137Y-46281D03*
X30334Y-46281D03*
X30531Y-46281D03*
X30728Y-46281D03*
X30925Y-46281D03*
X31122Y-46281D03*
X31319Y-46281D03*
X31515Y-46281D03*
X31712Y-46281D03*
X31909Y-46281D03*
X32106Y-46281D03*
X32303Y-46281D03*
X32500Y-46281D03*
X32697Y-46281D03*
X32893Y-46281D03*
X30137Y-45986D03*
X30334Y-45986D03*
X30531Y-45986D03*
X30728Y-45986D03*
X30925Y-45986D03*
X31122Y-45986D03*
X31319Y-45986D03*
X31515Y-45986D03*
X31712Y-45986D03*
X31909Y-45986D03*
X32106Y-45986D03*
X32303Y-45986D03*
X32500Y-45986D03*
X32697Y-45986D03*
X33287Y-45887D03*
X33287Y-45691D03*
X33287Y-45494D03*
X33287Y-45297D03*
X33287Y-45100D03*
X33287Y-44903D03*
X33287Y-44706D03*
X33287Y-44509D03*
X33287Y-44313D03*
X33287Y-44116D03*
X33287Y-43919D03*
X33287Y-43525D03*
X33287Y-43722D03*
X33287Y-43328D03*
X33287Y-43131D03*
X33287Y-42935D03*
X32992Y-45691D03*
X32992Y-45494D03*
X32992Y-45297D03*
X32992Y-45100D03*
X32992Y-44903D03*
X32992Y-44706D03*
X32992Y-44509D03*
X32992Y-44313D03*
X32992Y-44116D03*
X32992Y-43919D03*
X32992Y-43722D03*
X32992Y-43525D03*
X32992Y-43328D03*
X32992Y-43131D03*
G54D54*
X42401Y-44412D03*
G54D55*
X44271Y-46282D03*
X40531Y-46282D03*
X44271Y-42542D03*
X40531Y-42542D03*
X40925Y-42542D03*
X41122Y-42542D03*
X41319Y-42542D03*
X41516Y-42542D03*
X41712Y-42542D03*
X41909Y-42542D03*
X42106Y-42542D03*
X42303Y-42542D03*
X42490Y-42542D03*
X42697Y-42542D03*
X42894Y-42542D03*
X43091Y-42542D03*
X43287Y-42542D03*
X43484Y-42542D03*
X43681Y-42542D03*
X43877Y-42542D03*
X41121Y-42837D03*
X41318Y-42837D03*
X41515Y-42837D03*
X41712Y-42837D03*
X41909Y-42837D03*
X42106Y-42837D03*
X42303Y-42837D03*
X42499Y-42837D03*
X42696Y-42837D03*
X42893Y-42837D03*
X43090Y-42837D03*
X43287Y-42837D03*
X43484Y-42837D03*
X43681Y-42837D03*
X40531Y-42936D03*
X40531Y-43132D03*
X40531Y-43329D03*
X40531Y-43526D03*
X40531Y-43723D03*
X40531Y-43920D03*
X40531Y-44314D03*
X40531Y-44511D03*
X40531Y-44707D03*
X40531Y-44904D03*
X40531Y-45297D03*
X40531Y-45494D03*
X40531Y-45691D03*
X40531Y-45888D03*
X40531Y-44117D03*
X40531Y-45101D03*
X40826Y-43132D03*
X40826Y-43329D03*
X40826Y-43526D03*
X40826Y-43723D03*
X40826Y-43920D03*
X40826Y-44117D03*
X40826Y-44314D03*
X40826Y-44510D03*
X40826Y-44707D03*
X40826Y-44904D03*
X40826Y-45101D03*
X40826Y-45298D03*
X40826Y-45495D03*
X40826Y-45692D03*
X40925Y-46282D03*
X41121Y-46282D03*
X41318Y-46282D03*
X41515Y-46282D03*
X41712Y-46282D03*
X41909Y-46282D03*
X42106Y-46282D03*
X42303Y-46282D03*
X42499Y-46282D03*
X42696Y-46282D03*
X42893Y-46282D03*
X43090Y-46282D03*
X43287Y-46282D03*
X43484Y-46282D03*
X43681Y-46282D03*
X43877Y-46282D03*
X41121Y-45987D03*
X41318Y-45987D03*
X41515Y-45987D03*
X41712Y-45987D03*
X41909Y-45987D03*
X42106Y-45987D03*
X42303Y-45987D03*
X42499Y-45987D03*
X42696Y-45987D03*
X42893Y-45987D03*
X43090Y-45987D03*
X43287Y-45987D03*
X43484Y-45987D03*
X43681Y-45987D03*
X44271Y-45888D03*
X44271Y-45692D03*
X44271Y-45495D03*
X44271Y-45298D03*
X44271Y-45101D03*
X44271Y-44904D03*
X44271Y-44707D03*
X44271Y-44510D03*
X44271Y-44314D03*
X44271Y-44117D03*
X44271Y-43920D03*
X44271Y-43526D03*
X44271Y-43723D03*
X44271Y-43329D03*
X44271Y-43132D03*
X44271Y-42936D03*
X43976Y-45692D03*
X43976Y-45495D03*
X43976Y-45298D03*
X43976Y-45101D03*
X43976Y-44904D03*
X43976Y-44707D03*
X43976Y-44510D03*
X43976Y-44314D03*
X43976Y-44117D03*
X43976Y-43920D03*
X43976Y-43723D03*
X43976Y-43526D03*
X43976Y-43329D03*
X43976Y-43132D03*
G54D54*
X31417Y-55610D03*
G54D55*
X33287Y-57480D03*
X29547Y-57480D03*
X33287Y-53740D03*
X29547Y-53740D03*
X29941Y-53740D03*
X30138Y-53740D03*
X30335Y-53740D03*
X30532Y-53740D03*
X30728Y-53740D03*
X30925Y-53740D03*
X31122Y-53740D03*
X31319Y-53740D03*
X31506Y-53740D03*
X31713Y-53740D03*
X31910Y-53740D03*
X32107Y-53740D03*
X32303Y-53740D03*
X32500Y-53740D03*
X32697Y-53740D03*
X32893Y-53740D03*
X30137Y-54035D03*
X30334Y-54035D03*
X30531Y-54035D03*
X30728Y-54035D03*
X30925Y-54035D03*
X31122Y-54035D03*
X31319Y-54035D03*
X31515Y-54035D03*
X31712Y-54035D03*
X31909Y-54035D03*
X32106Y-54035D03*
X32303Y-54035D03*
X32500Y-54035D03*
X32697Y-54035D03*
X29547Y-54134D03*
X29547Y-54330D03*
X29547Y-54527D03*
X29547Y-54724D03*
X29547Y-54921D03*
X29547Y-55118D03*
X29547Y-55512D03*
X29547Y-55709D03*
X29547Y-55905D03*
X29547Y-56102D03*
X29547Y-56495D03*
X29547Y-56692D03*
X29547Y-56889D03*
X29547Y-57086D03*
X29547Y-55315D03*
X29547Y-56299D03*
X29842Y-54330D03*
X29842Y-54527D03*
X29842Y-54724D03*
X29842Y-54921D03*
X29842Y-55118D03*
X29842Y-55315D03*
X29842Y-55512D03*
X29842Y-55708D03*
X29842Y-55905D03*
X29842Y-56102D03*
X29842Y-56299D03*
X29842Y-56496D03*
X29842Y-56693D03*
X29842Y-56890D03*
X29941Y-57480D03*
X30137Y-57480D03*
X30334Y-57480D03*
X30531Y-57480D03*
X30728Y-57480D03*
X30925Y-57480D03*
X31122Y-57480D03*
X31319Y-57480D03*
X31515Y-57480D03*
X31712Y-57480D03*
X31909Y-57480D03*
X32106Y-57480D03*
X32303Y-57480D03*
X32500Y-57480D03*
X32697Y-57480D03*
X32893Y-57480D03*
X30137Y-57185D03*
X30334Y-57185D03*
X30531Y-57185D03*
X30728Y-57185D03*
X30925Y-57185D03*
X31122Y-57185D03*
X31319Y-57185D03*
X31515Y-57185D03*
X31712Y-57185D03*
X31909Y-57185D03*
X32106Y-57185D03*
X32303Y-57185D03*
X32500Y-57185D03*
X32697Y-57185D03*
X33287Y-57086D03*
X33287Y-56890D03*
X33287Y-56693D03*
X33287Y-56496D03*
X33287Y-56299D03*
X33287Y-56102D03*
X33287Y-55905D03*
X33287Y-55708D03*
X33287Y-55512D03*
X33287Y-55315D03*
X33287Y-55118D03*
X33287Y-54724D03*
X33287Y-54921D03*
X33287Y-54527D03*
X33287Y-54330D03*
X33287Y-54134D03*
X32992Y-56890D03*
X32992Y-56693D03*
X32992Y-56496D03*
X32992Y-56299D03*
X32992Y-56102D03*
X32992Y-55905D03*
X32992Y-55708D03*
X32992Y-55512D03*
X32992Y-55315D03*
X32992Y-55118D03*
X32992Y-54921D03*
X32992Y-54724D03*
X32992Y-54527D03*
X32992Y-54330D03*
G54D54*
X42401Y-55611D03*
G54D55*
X44271Y-57481D03*
X40531Y-57481D03*
X44271Y-53741D03*
X40531Y-53741D03*
X40925Y-53741D03*
X41122Y-53741D03*
X41319Y-53741D03*
X41516Y-53741D03*
X41712Y-53741D03*
X41909Y-53741D03*
X42106Y-53741D03*
X42303Y-53741D03*
X42490Y-53741D03*
X42697Y-53741D03*
X42894Y-53741D03*
X43091Y-53741D03*
X43287Y-53741D03*
X43484Y-53741D03*
X43681Y-53741D03*
X43877Y-53741D03*
X41121Y-54036D03*
X41318Y-54036D03*
X41515Y-54036D03*
X41712Y-54036D03*
X41909Y-54036D03*
X42106Y-54036D03*
X42303Y-54036D03*
X42499Y-54036D03*
X42696Y-54036D03*
X42893Y-54036D03*
X43090Y-54036D03*
X43287Y-54036D03*
X43484Y-54036D03*
X43681Y-54036D03*
X40531Y-54135D03*
X40531Y-54331D03*
X40531Y-54528D03*
X40531Y-54725D03*
X40531Y-54922D03*
X40531Y-55119D03*
X40531Y-55513D03*
X40531Y-55710D03*
X40531Y-55906D03*
X40531Y-56103D03*
X40531Y-56496D03*
X40531Y-56693D03*
X40531Y-56890D03*
X40531Y-57087D03*
X40531Y-55316D03*
X40531Y-56300D03*
X40826Y-54331D03*
X40826Y-54528D03*
X40826Y-54725D03*
X40826Y-54922D03*
X40826Y-55119D03*
X40826Y-55316D03*
X40826Y-55513D03*
X40826Y-55709D03*
X40826Y-55906D03*
X40826Y-56103D03*
X40826Y-56300D03*
X40826Y-56497D03*
X40826Y-56694D03*
X40826Y-56891D03*
X40925Y-57481D03*
X41121Y-57481D03*
X41318Y-57481D03*
X41515Y-57481D03*
X41712Y-57481D03*
X41909Y-57481D03*
X42106Y-57481D03*
X42303Y-57481D03*
X42499Y-57481D03*
X42696Y-57481D03*
X42893Y-57481D03*
X43090Y-57481D03*
X43287Y-57481D03*
X43484Y-57481D03*
X43681Y-57481D03*
X43877Y-57481D03*
X41121Y-57186D03*
X41318Y-57186D03*
X41515Y-57186D03*
X41712Y-57186D03*
X41909Y-57186D03*
X42106Y-57186D03*
X42303Y-57186D03*
X42499Y-57186D03*
X42696Y-57186D03*
X42893Y-57186D03*
X43090Y-57186D03*
X43287Y-57186D03*
X43484Y-57186D03*
X43681Y-57186D03*
X44271Y-57087D03*
X44271Y-56891D03*
X44271Y-56694D03*
X44271Y-56497D03*
X44271Y-56300D03*
X44271Y-56103D03*
X44271Y-55906D03*
X44271Y-55709D03*
X44271Y-55513D03*
X44271Y-55316D03*
X44271Y-55119D03*
X44271Y-54725D03*
X44271Y-54922D03*
X44271Y-54528D03*
X44271Y-54331D03*
X44271Y-54135D03*
X43976Y-56891D03*
X43976Y-56694D03*
X43976Y-56497D03*
X43976Y-56300D03*
X43976Y-56103D03*
X43976Y-55906D03*
X43976Y-55709D03*
X43976Y-55513D03*
X43976Y-55316D03*
X43976Y-55119D03*
X43976Y-54922D03*
X43976Y-54725D03*
X43976Y-54528D03*
X43976Y-54331D03*
G54D28*
X26520Y-11673D03*
X25920Y-11673D03*
G54D12*
X47695Y-51966D03*
G54D13*
X47695Y-52966D03*
G54D12*
X47562Y-49007D03*
G54D13*
X47562Y-48007D03*
X47562Y-47007D03*
X47562Y-46007D03*
G54D12*
X15915Y-14236D03*
G54D13*
X15915Y-15236D03*
X15915Y-16236D03*
G54D12*
X37584Y-36301D03*
G54D13*
X37584Y-37301D03*
X36584Y-36301D03*
X36584Y-37301D03*
X35584Y-36301D03*
X35584Y-37301D03*
G54D12*
X46078Y-36301D03*
G54D13*
X46078Y-37301D03*
X45078Y-36301D03*
X45078Y-37301D03*
X44078Y-36301D03*
X44078Y-37301D03*
G54D12*
X37419Y-34263D03*
G54D13*
X37419Y-35263D03*
X36419Y-34263D03*
X36419Y-35263D03*
M02*
