G04 (created by PCBNEW (2013-mar-13)-testing) date Mon 05 Aug 2013 21:56:38 BST*
%MOIN*%
G04 Gerber Fmt 3.4, Leading zero omitted, Abs format*
%FSLAX34Y34*%
G01*
G70*
G90*
G04 APERTURE LIST*
%ADD10C,0.000787*%
%ADD11C,0.015000*%
%ADD12C,0.012000*%
G04 APERTURE END LIST*
G54D10*
G54D11*
X22555Y-12003D02*
X22531Y-12003D01*
G54D12*
X6163Y-16584D02*
X6135Y-16622D01*
X6049Y-16660D01*
X5992Y-16660D01*
X5906Y-16622D01*
X5849Y-16546D01*
X5820Y-16470D01*
X5792Y-16318D01*
X5792Y-16203D01*
X5820Y-16051D01*
X5849Y-15975D01*
X5906Y-15899D01*
X5992Y-15860D01*
X6049Y-15860D01*
X6135Y-15899D01*
X6163Y-15937D01*
X6677Y-16127D02*
X6677Y-16660D01*
X6420Y-16127D02*
X6420Y-16546D01*
X6449Y-16622D01*
X6506Y-16660D01*
X6592Y-16660D01*
X6649Y-16622D01*
X6677Y-16584D01*
X6963Y-16660D02*
X6963Y-16127D01*
X6963Y-16279D02*
X6992Y-16203D01*
X7020Y-16165D01*
X7077Y-16127D01*
X7135Y-16127D01*
X7335Y-16660D02*
X7335Y-16127D01*
X7335Y-16279D02*
X7363Y-16203D01*
X7392Y-16165D01*
X7449Y-16127D01*
X7506Y-16127D01*
X7935Y-16622D02*
X7878Y-16660D01*
X7763Y-16660D01*
X7706Y-16622D01*
X7678Y-16546D01*
X7678Y-16241D01*
X7706Y-16165D01*
X7763Y-16127D01*
X7878Y-16127D01*
X7935Y-16165D01*
X7963Y-16241D01*
X7963Y-16318D01*
X7678Y-16394D01*
X8220Y-16127D02*
X8220Y-16660D01*
X8220Y-16203D02*
X8249Y-16165D01*
X8306Y-16127D01*
X8392Y-16127D01*
X8449Y-16165D01*
X8478Y-16241D01*
X8478Y-16660D01*
X8678Y-16127D02*
X8906Y-16127D01*
X8763Y-15860D02*
X8763Y-16546D01*
X8792Y-16622D01*
X8849Y-16660D01*
X8906Y-16660D01*
X9192Y-16660D02*
X9135Y-16622D01*
X9106Y-16546D01*
X9106Y-15860D01*
X9363Y-16127D02*
X9506Y-16660D01*
X9649Y-16127D02*
X9506Y-16660D01*
X9449Y-16851D01*
X9420Y-16889D01*
X9363Y-16927D01*
X10306Y-16432D02*
X10592Y-16432D01*
X10249Y-16660D02*
X10449Y-15860D01*
X10649Y-16660D01*
X11106Y-16622D02*
X11049Y-16660D01*
X10935Y-16660D01*
X10878Y-16622D01*
X10849Y-16584D01*
X10820Y-16508D01*
X10820Y-16279D01*
X10849Y-16203D01*
X10878Y-16165D01*
X10935Y-16127D01*
X11049Y-16127D01*
X11106Y-16165D01*
X11278Y-16127D02*
X11506Y-16127D01*
X11363Y-15860D02*
X11363Y-16546D01*
X11392Y-16622D01*
X11449Y-16660D01*
X11506Y-16660D01*
X11706Y-16660D02*
X11706Y-16127D01*
X11706Y-15860D02*
X11678Y-15899D01*
X11706Y-15937D01*
X11735Y-15899D01*
X11706Y-15860D01*
X11706Y-15937D01*
X11935Y-16127D02*
X12078Y-16660D01*
X12220Y-16127D01*
X12678Y-16622D02*
X12620Y-16660D01*
X12506Y-16660D01*
X12449Y-16622D01*
X12420Y-16546D01*
X12420Y-16241D01*
X12449Y-16165D01*
X12506Y-16127D01*
X12620Y-16127D01*
X12678Y-16165D01*
X12706Y-16241D01*
X12706Y-16318D01*
X12420Y-16394D01*
X8078Y-17900D02*
X7792Y-17900D01*
X7792Y-17100D01*
X8535Y-17900D02*
X8535Y-17481D01*
X8506Y-17405D01*
X8449Y-17367D01*
X8335Y-17367D01*
X8278Y-17405D01*
X8535Y-17862D02*
X8478Y-17900D01*
X8335Y-17900D01*
X8278Y-17862D01*
X8249Y-17786D01*
X8249Y-17710D01*
X8278Y-17634D01*
X8335Y-17596D01*
X8478Y-17596D01*
X8535Y-17558D01*
X8763Y-17367D02*
X8906Y-17900D01*
X9049Y-17367D02*
X8906Y-17900D01*
X8849Y-18091D01*
X8820Y-18129D01*
X8763Y-18167D01*
X9506Y-17862D02*
X9449Y-17900D01*
X9335Y-17900D01*
X9278Y-17862D01*
X9249Y-17786D01*
X9249Y-17481D01*
X9278Y-17405D01*
X9335Y-17367D01*
X9449Y-17367D01*
X9506Y-17405D01*
X9535Y-17481D01*
X9535Y-17558D01*
X9249Y-17634D01*
X9792Y-17900D02*
X9792Y-17367D01*
X9792Y-17519D02*
X9820Y-17443D01*
X9849Y-17405D01*
X9906Y-17367D01*
X9963Y-17367D01*
X10335Y-18205D02*
X10306Y-18167D01*
X10249Y-18053D01*
X10220Y-17977D01*
X10192Y-17862D01*
X10163Y-17672D01*
X10163Y-17519D01*
X10192Y-17329D01*
X10220Y-17215D01*
X10249Y-17139D01*
X10306Y-17024D01*
X10335Y-16986D01*
X10535Y-17862D02*
X10592Y-17900D01*
X10706Y-17900D01*
X10763Y-17862D01*
X10792Y-17786D01*
X10792Y-17748D01*
X10763Y-17672D01*
X10706Y-17634D01*
X10620Y-17634D01*
X10563Y-17596D01*
X10535Y-17519D01*
X10535Y-17481D01*
X10563Y-17405D01*
X10620Y-17367D01*
X10706Y-17367D01*
X10763Y-17405D01*
X10992Y-18205D02*
X11020Y-18167D01*
X11078Y-18053D01*
X11106Y-17977D01*
X11135Y-17862D01*
X11163Y-17672D01*
X11163Y-17519D01*
X11135Y-17329D01*
X11106Y-17215D01*
X11078Y-17139D01*
X11020Y-17024D01*
X10992Y-16986D01*
X92692Y-11554D02*
X92778Y-11592D01*
X92921Y-11592D01*
X92978Y-11554D01*
X93007Y-11516D01*
X93035Y-11440D01*
X93035Y-11364D01*
X93007Y-11288D01*
X92978Y-11250D01*
X92921Y-11211D01*
X92807Y-11173D01*
X92750Y-11135D01*
X92721Y-11097D01*
X92692Y-11021D01*
X92692Y-10945D01*
X92721Y-10869D01*
X92750Y-10831D01*
X92807Y-10792D01*
X92950Y-10792D01*
X93035Y-10831D01*
X93207Y-11059D02*
X93435Y-11059D01*
X93292Y-10792D02*
X93292Y-11478D01*
X93321Y-11554D01*
X93378Y-11592D01*
X93435Y-11592D01*
X93892Y-11592D02*
X93892Y-11173D01*
X93864Y-11097D01*
X93807Y-11059D01*
X93692Y-11059D01*
X93635Y-11097D01*
X93892Y-11554D02*
X93835Y-11592D01*
X93692Y-11592D01*
X93635Y-11554D01*
X93607Y-11478D01*
X93607Y-11402D01*
X93635Y-11326D01*
X93692Y-11288D01*
X93835Y-11288D01*
X93892Y-11250D01*
X94435Y-11554D02*
X94378Y-11592D01*
X94264Y-11592D01*
X94207Y-11554D01*
X94178Y-11516D01*
X94150Y-11440D01*
X94150Y-11211D01*
X94178Y-11135D01*
X94207Y-11097D01*
X94264Y-11059D01*
X94378Y-11059D01*
X94435Y-11097D01*
X94692Y-11592D02*
X94692Y-10792D01*
X94750Y-11288D02*
X94921Y-11592D01*
X94921Y-11059D02*
X94692Y-11364D01*
X95435Y-11059D02*
X95435Y-11592D01*
X95178Y-11059D02*
X95178Y-11478D01*
X95207Y-11554D01*
X95264Y-11592D01*
X95350Y-11592D01*
X95407Y-11554D01*
X95435Y-11516D01*
X95721Y-11059D02*
X95721Y-11859D01*
X95721Y-11097D02*
X95778Y-11059D01*
X95892Y-11059D01*
X95950Y-11097D01*
X95978Y-11135D01*
X96007Y-11211D01*
X96007Y-11440D01*
X95978Y-11516D01*
X95950Y-11554D01*
X95892Y-11592D01*
X95778Y-11592D01*
X95721Y-11554D01*
X92264Y-12528D02*
X92721Y-12528D01*
X93007Y-12528D02*
X93464Y-12528D01*
X93750Y-12528D02*
X94207Y-12528D01*
X94492Y-12528D02*
X94950Y-12528D01*
X95235Y-12528D02*
X95692Y-12528D01*
X95978Y-12528D02*
X96435Y-12528D01*
X5750Y-35698D02*
X5721Y-35736D01*
X5636Y-35774D01*
X5579Y-35774D01*
X5493Y-35736D01*
X5436Y-35660D01*
X5407Y-35584D01*
X5379Y-35432D01*
X5379Y-35317D01*
X5407Y-35165D01*
X5436Y-35089D01*
X5493Y-35013D01*
X5579Y-34974D01*
X5636Y-34974D01*
X5721Y-35013D01*
X5750Y-35051D01*
X6093Y-35774D02*
X6036Y-35736D01*
X6007Y-35698D01*
X5979Y-35622D01*
X5979Y-35393D01*
X6007Y-35317D01*
X6036Y-35279D01*
X6093Y-35241D01*
X6179Y-35241D01*
X6236Y-35279D01*
X6264Y-35317D01*
X6293Y-35393D01*
X6293Y-35622D01*
X6264Y-35698D01*
X6236Y-35736D01*
X6179Y-35774D01*
X6093Y-35774D01*
X6550Y-35774D02*
X6550Y-35241D01*
X6550Y-35317D02*
X6579Y-35279D01*
X6636Y-35241D01*
X6721Y-35241D01*
X6779Y-35279D01*
X6807Y-35355D01*
X6807Y-35774D01*
X6807Y-35355D02*
X6836Y-35279D01*
X6893Y-35241D01*
X6979Y-35241D01*
X7036Y-35279D01*
X7064Y-35355D01*
X7064Y-35774D01*
X7350Y-35774D02*
X7350Y-35241D01*
X7350Y-35317D02*
X7379Y-35279D01*
X7436Y-35241D01*
X7521Y-35241D01*
X7579Y-35279D01*
X7607Y-35355D01*
X7607Y-35774D01*
X7607Y-35355D02*
X7636Y-35279D01*
X7693Y-35241D01*
X7779Y-35241D01*
X7836Y-35279D01*
X7864Y-35355D01*
X7864Y-35774D01*
X8379Y-35736D02*
X8321Y-35774D01*
X8207Y-35774D01*
X8150Y-35736D01*
X8121Y-35660D01*
X8121Y-35355D01*
X8150Y-35279D01*
X8207Y-35241D01*
X8321Y-35241D01*
X8379Y-35279D01*
X8407Y-35355D01*
X8407Y-35432D01*
X8121Y-35508D01*
X8664Y-35241D02*
X8664Y-35774D01*
X8664Y-35317D02*
X8693Y-35279D01*
X8750Y-35241D01*
X8836Y-35241D01*
X8893Y-35279D01*
X8921Y-35355D01*
X8921Y-35774D01*
X9121Y-35241D02*
X9350Y-35241D01*
X9207Y-34974D02*
X9207Y-35660D01*
X9236Y-35736D01*
X9293Y-35774D01*
X9350Y-35774D01*
X9521Y-35736D02*
X9579Y-35774D01*
X9693Y-35774D01*
X9750Y-35736D01*
X9779Y-35660D01*
X9779Y-35622D01*
X9750Y-35546D01*
X9693Y-35508D01*
X9607Y-35508D01*
X9550Y-35470D01*
X9521Y-35393D01*
X9521Y-35355D01*
X9550Y-35279D01*
X9607Y-35241D01*
X9693Y-35241D01*
X9750Y-35279D01*
X18085Y-58161D02*
X17800Y-58161D01*
X17771Y-58542D01*
X17800Y-58504D01*
X17857Y-58466D01*
X18000Y-58466D01*
X18057Y-58504D01*
X18085Y-58542D01*
X18114Y-58619D01*
X18114Y-58809D01*
X18085Y-58885D01*
X18057Y-58923D01*
X18000Y-58961D01*
X17857Y-58961D01*
X17800Y-58923D01*
X17771Y-58885D01*
X18285Y-58161D02*
X18485Y-58961D01*
X18685Y-58161D01*
X20064Y-55722D02*
X20435Y-55722D01*
X20235Y-56027D01*
X20321Y-56027D01*
X20378Y-56065D01*
X20406Y-56103D01*
X20435Y-56180D01*
X20435Y-56370D01*
X20406Y-56446D01*
X20378Y-56484D01*
X20321Y-56522D01*
X20149Y-56522D01*
X20092Y-56484D01*
X20064Y-56446D01*
X20607Y-55722D02*
X20807Y-56522D01*
X21007Y-55722D01*
X21149Y-55722D02*
X21521Y-55722D01*
X21321Y-56027D01*
X21407Y-56027D01*
X21464Y-56065D01*
X21492Y-56103D01*
X21521Y-56180D01*
X21521Y-56370D01*
X21492Y-56446D01*
X21464Y-56484D01*
X21407Y-56522D01*
X21235Y-56522D01*
X21178Y-56484D01*
X21149Y-56446D01*
X23172Y-61532D02*
X22829Y-61532D01*
X23000Y-61532D02*
X23000Y-60732D01*
X22943Y-60847D01*
X22886Y-60923D01*
X22829Y-60961D01*
X23343Y-60732D02*
X23543Y-61532D01*
X23743Y-60732D01*
X16548Y-15535D02*
X16263Y-15535D01*
X16234Y-15916D01*
X16263Y-15878D01*
X16320Y-15840D01*
X16463Y-15840D01*
X16520Y-15878D01*
X16548Y-15916D01*
X16577Y-15993D01*
X16577Y-16183D01*
X16548Y-16259D01*
X16520Y-16297D01*
X16463Y-16335D01*
X16320Y-16335D01*
X16263Y-16297D01*
X16234Y-16259D01*
X16748Y-15535D02*
X16948Y-16335D01*
X17148Y-15535D01*
X28164Y-15299D02*
X28535Y-15299D01*
X28335Y-15604D01*
X28421Y-15604D01*
X28478Y-15642D01*
X28506Y-15680D01*
X28535Y-15757D01*
X28535Y-15947D01*
X28506Y-16023D01*
X28478Y-16061D01*
X28421Y-16099D01*
X28249Y-16099D01*
X28192Y-16061D01*
X28164Y-16023D01*
X28707Y-15299D02*
X28907Y-16099D01*
X29107Y-15299D01*
X29249Y-15299D02*
X29621Y-15299D01*
X29421Y-15604D01*
X29507Y-15604D01*
X29564Y-15642D01*
X29592Y-15680D01*
X29621Y-15757D01*
X29621Y-15947D01*
X29592Y-16023D01*
X29564Y-16061D01*
X29507Y-16099D01*
X29335Y-16099D01*
X29278Y-16061D01*
X29249Y-16023D01*
X25829Y-19770D02*
X25486Y-19770D01*
X25657Y-19770D02*
X25657Y-18970D01*
X25600Y-19085D01*
X25543Y-19161D01*
X25486Y-19199D01*
X26000Y-18970D02*
X26200Y-19770D01*
X26400Y-18970D01*
X23981Y-21165D02*
X24352Y-21165D01*
X24152Y-21470D01*
X24238Y-21470D01*
X24295Y-21508D01*
X24323Y-21546D01*
X24352Y-21623D01*
X24352Y-21813D01*
X24323Y-21889D01*
X24295Y-21927D01*
X24238Y-21965D01*
X24066Y-21965D01*
X24009Y-21927D01*
X23981Y-21889D01*
X24524Y-21165D02*
X24724Y-21965D01*
X24924Y-21165D01*
X25066Y-21165D02*
X25438Y-21165D01*
X25238Y-21470D01*
X25324Y-21470D01*
X25381Y-21508D01*
X25409Y-21546D01*
X25438Y-21623D01*
X25438Y-21813D01*
X25409Y-21889D01*
X25381Y-21927D01*
X25324Y-21965D01*
X25152Y-21965D01*
X25095Y-21927D01*
X25066Y-21889D01*
X20840Y-34709D02*
X20555Y-34709D01*
X20526Y-35090D01*
X20555Y-35052D01*
X20612Y-35014D01*
X20755Y-35014D01*
X20812Y-35052D01*
X20840Y-35090D01*
X20869Y-35167D01*
X20869Y-35357D01*
X20840Y-35433D01*
X20812Y-35471D01*
X20755Y-35509D01*
X20612Y-35509D01*
X20555Y-35471D01*
X20526Y-35433D01*
X21040Y-34709D02*
X21240Y-35509D01*
X21440Y-34709D01*
X23979Y-38835D02*
X23636Y-38835D01*
X23807Y-38835D02*
X23807Y-38035D01*
X23750Y-38150D01*
X23693Y-38226D01*
X23636Y-38264D01*
X24150Y-38035D02*
X24350Y-38835D01*
X24550Y-38035D01*
X20212Y-46215D02*
X20583Y-46215D01*
X20383Y-46520D01*
X20469Y-46520D01*
X20526Y-46558D01*
X20554Y-46596D01*
X20583Y-46673D01*
X20583Y-46863D01*
X20554Y-46939D01*
X20526Y-46977D01*
X20469Y-47015D01*
X20297Y-47015D01*
X20240Y-46977D01*
X20212Y-46939D01*
X20755Y-46215D02*
X20955Y-47015D01*
X21155Y-46215D01*
X21297Y-46215D02*
X21669Y-46215D01*
X21469Y-46520D01*
X21555Y-46520D01*
X21612Y-46558D01*
X21640Y-46596D01*
X21669Y-46673D01*
X21669Y-46863D01*
X21640Y-46939D01*
X21612Y-46977D01*
X21555Y-47015D01*
X21383Y-47015D01*
X21326Y-46977D01*
X21297Y-46939D01*
X19787Y-40722D02*
X19502Y-40722D01*
X19473Y-41103D01*
X19502Y-41065D01*
X19559Y-41027D01*
X19702Y-41027D01*
X19759Y-41065D01*
X19787Y-41103D01*
X19816Y-41180D01*
X19816Y-41370D01*
X19787Y-41446D01*
X19759Y-41484D01*
X19702Y-41522D01*
X19559Y-41522D01*
X19502Y-41484D01*
X19473Y-41446D01*
X19987Y-40722D02*
X20187Y-41522D01*
X20387Y-40722D01*
X24697Y-44288D02*
X24354Y-44288D01*
X24525Y-44288D02*
X24525Y-43488D01*
X24468Y-43603D01*
X24411Y-43679D01*
X24354Y-43717D01*
X24868Y-43488D02*
X25068Y-44288D01*
X25268Y-43488D01*
X36609Y-39994D02*
X36980Y-39994D01*
X36780Y-40299D01*
X36866Y-40299D01*
X36923Y-40337D01*
X36951Y-40375D01*
X36980Y-40452D01*
X36980Y-40642D01*
X36951Y-40718D01*
X36923Y-40756D01*
X36866Y-40794D01*
X36694Y-40794D01*
X36637Y-40756D01*
X36609Y-40718D01*
X37152Y-39994D02*
X37352Y-40794D01*
X37552Y-39994D01*
X37694Y-39994D02*
X38066Y-39994D01*
X37866Y-40299D01*
X37952Y-40299D01*
X38009Y-40337D01*
X38037Y-40375D01*
X38066Y-40452D01*
X38066Y-40642D01*
X38037Y-40718D01*
X38009Y-40756D01*
X37952Y-40794D01*
X37780Y-40794D01*
X37723Y-40756D01*
X37694Y-40718D01*
X37237Y-44642D02*
X36894Y-44642D01*
X37065Y-44642D02*
X37065Y-43842D01*
X37008Y-43957D01*
X36951Y-44033D01*
X36894Y-44071D01*
X37408Y-43842D02*
X37608Y-44642D01*
X37808Y-43842D01*
X63597Y-51356D02*
X63597Y-50556D01*
X63597Y-50937D02*
X63940Y-50937D01*
X63940Y-51356D02*
X63940Y-50556D01*
X64311Y-51356D02*
X64254Y-51318D01*
X64225Y-51280D01*
X64197Y-51204D01*
X64197Y-50975D01*
X64225Y-50899D01*
X64254Y-50861D01*
X64311Y-50823D01*
X64397Y-50823D01*
X64454Y-50861D01*
X64482Y-50899D01*
X64511Y-50975D01*
X64511Y-51204D01*
X64482Y-51280D01*
X64454Y-51318D01*
X64397Y-51356D01*
X64311Y-51356D01*
X64854Y-51356D02*
X64797Y-51318D01*
X64768Y-51242D01*
X64768Y-50556D01*
X65311Y-51318D02*
X65254Y-51356D01*
X65140Y-51356D01*
X65082Y-51318D01*
X65054Y-51242D01*
X65054Y-50937D01*
X65082Y-50861D01*
X65140Y-50823D01*
X65254Y-50823D01*
X65311Y-50861D01*
X65340Y-50937D01*
X65340Y-51014D01*
X65054Y-51090D01*
X66025Y-51318D02*
X66082Y-51356D01*
X66197Y-51356D01*
X66254Y-51318D01*
X66282Y-51242D01*
X66282Y-51204D01*
X66254Y-51128D01*
X66197Y-51090D01*
X66111Y-51090D01*
X66054Y-51052D01*
X66025Y-50975D01*
X66025Y-50937D01*
X66054Y-50861D01*
X66111Y-50823D01*
X66197Y-50823D01*
X66254Y-50861D01*
X66540Y-51356D02*
X66540Y-50823D01*
X66540Y-50556D02*
X66511Y-50595D01*
X66540Y-50633D01*
X66568Y-50595D01*
X66540Y-50556D01*
X66540Y-50633D01*
X66768Y-50823D02*
X67082Y-50823D01*
X66768Y-51356D01*
X67082Y-51356D01*
X67540Y-51318D02*
X67482Y-51356D01*
X67368Y-51356D01*
X67311Y-51318D01*
X67282Y-51242D01*
X67282Y-50937D01*
X67311Y-50861D01*
X67368Y-50823D01*
X67482Y-50823D01*
X67540Y-50861D01*
X67568Y-50937D01*
X67568Y-51014D01*
X67282Y-51090D01*
X68282Y-51356D02*
X68282Y-50823D01*
X68282Y-50556D02*
X68254Y-50595D01*
X68282Y-50633D01*
X68311Y-50595D01*
X68282Y-50556D01*
X68282Y-50633D01*
X68540Y-51318D02*
X68597Y-51356D01*
X68711Y-51356D01*
X68768Y-51318D01*
X68797Y-51242D01*
X68797Y-51204D01*
X68768Y-51128D01*
X68711Y-51090D01*
X68625Y-51090D01*
X68568Y-51052D01*
X68540Y-50975D01*
X68540Y-50937D01*
X68568Y-50861D01*
X68625Y-50823D01*
X68711Y-50823D01*
X68768Y-50861D01*
X69425Y-50823D02*
X69654Y-50823D01*
X69511Y-51356D02*
X69511Y-50671D01*
X69540Y-50595D01*
X69597Y-50556D01*
X69654Y-50556D01*
X69854Y-51356D02*
X69854Y-50823D01*
X69854Y-50556D02*
X69825Y-50595D01*
X69854Y-50633D01*
X69882Y-50595D01*
X69854Y-50556D01*
X69854Y-50633D01*
X70140Y-50823D02*
X70140Y-51356D01*
X70140Y-50899D02*
X70168Y-50861D01*
X70225Y-50823D01*
X70311Y-50823D01*
X70368Y-50861D01*
X70397Y-50937D01*
X70397Y-51356D01*
X70682Y-51356D02*
X70682Y-50823D01*
X70682Y-50556D02*
X70654Y-50595D01*
X70682Y-50633D01*
X70711Y-50595D01*
X70682Y-50556D01*
X70682Y-50633D01*
X70940Y-51318D02*
X70997Y-51356D01*
X71111Y-51356D01*
X71168Y-51318D01*
X71197Y-51242D01*
X71197Y-51204D01*
X71168Y-51128D01*
X71111Y-51090D01*
X71025Y-51090D01*
X70968Y-51052D01*
X70940Y-50975D01*
X70940Y-50937D01*
X70968Y-50861D01*
X71025Y-50823D01*
X71111Y-50823D01*
X71168Y-50861D01*
X71454Y-51356D02*
X71454Y-50556D01*
X71711Y-51356D02*
X71711Y-50937D01*
X71682Y-50861D01*
X71625Y-50823D01*
X71539Y-50823D01*
X71482Y-50861D01*
X71454Y-50899D01*
X72225Y-51318D02*
X72168Y-51356D01*
X72054Y-51356D01*
X71997Y-51318D01*
X71968Y-51242D01*
X71968Y-50937D01*
X71997Y-50861D01*
X72054Y-50823D01*
X72168Y-50823D01*
X72225Y-50861D01*
X72254Y-50937D01*
X72254Y-51014D01*
X71968Y-51090D01*
X72768Y-51356D02*
X72768Y-50556D01*
X72768Y-51318D02*
X72711Y-51356D01*
X72597Y-51356D01*
X72540Y-51318D01*
X72511Y-51280D01*
X72482Y-51204D01*
X72482Y-50975D01*
X72511Y-50899D01*
X72540Y-50861D01*
X72597Y-50823D01*
X72711Y-50823D01*
X72768Y-50861D01*
X73482Y-51318D02*
X73540Y-51356D01*
X73654Y-51356D01*
X73711Y-51318D01*
X73740Y-51242D01*
X73740Y-51204D01*
X73711Y-51128D01*
X73654Y-51090D01*
X73568Y-51090D01*
X73511Y-51052D01*
X73482Y-50975D01*
X73482Y-50937D01*
X73511Y-50861D01*
X73568Y-50823D01*
X73654Y-50823D01*
X73711Y-50861D01*
X73997Y-51356D02*
X73997Y-50823D01*
X73997Y-50556D02*
X73968Y-50595D01*
X73997Y-50633D01*
X74025Y-50595D01*
X73997Y-50556D01*
X73997Y-50633D01*
X74225Y-50823D02*
X74539Y-50823D01*
X74225Y-51356D01*
X74539Y-51356D01*
X74997Y-51318D02*
X74939Y-51356D01*
X74825Y-51356D01*
X74768Y-51318D01*
X74739Y-51242D01*
X74739Y-50937D01*
X74768Y-50861D01*
X74825Y-50823D01*
X74939Y-50823D01*
X74997Y-50861D01*
X75025Y-50937D01*
X75025Y-51014D01*
X74739Y-51090D01*
X75282Y-51280D02*
X75311Y-51318D01*
X75282Y-51356D01*
X75254Y-51318D01*
X75282Y-51280D01*
X75282Y-51356D01*
X63570Y-49939D02*
X63570Y-49139D01*
X63713Y-49139D01*
X63798Y-49178D01*
X63856Y-49254D01*
X63884Y-49330D01*
X63913Y-49482D01*
X63913Y-49597D01*
X63884Y-49749D01*
X63856Y-49825D01*
X63798Y-49901D01*
X63713Y-49939D01*
X63570Y-49939D01*
X64170Y-49939D02*
X64170Y-49406D01*
X64170Y-49558D02*
X64198Y-49482D01*
X64227Y-49444D01*
X64284Y-49406D01*
X64341Y-49406D01*
X64541Y-49939D02*
X64541Y-49406D01*
X64541Y-49139D02*
X64513Y-49178D01*
X64541Y-49216D01*
X64570Y-49178D01*
X64541Y-49139D01*
X64541Y-49216D01*
X64913Y-49939D02*
X64856Y-49901D01*
X64827Y-49825D01*
X64827Y-49139D01*
X65227Y-49939D02*
X65170Y-49901D01*
X65141Y-49825D01*
X65141Y-49139D01*
X65913Y-49939D02*
X65913Y-49139D01*
X66056Y-49139D01*
X66141Y-49178D01*
X66198Y-49254D01*
X66227Y-49330D01*
X66256Y-49482D01*
X66256Y-49597D01*
X66227Y-49749D01*
X66198Y-49825D01*
X66141Y-49901D01*
X66056Y-49939D01*
X65913Y-49939D01*
X66770Y-49939D02*
X66770Y-49520D01*
X66741Y-49444D01*
X66684Y-49406D01*
X66570Y-49406D01*
X66513Y-49444D01*
X66770Y-49901D02*
X66713Y-49939D01*
X66570Y-49939D01*
X66513Y-49901D01*
X66484Y-49825D01*
X66484Y-49749D01*
X66513Y-49673D01*
X66570Y-49635D01*
X66713Y-49635D01*
X66770Y-49597D01*
X66970Y-49406D02*
X67198Y-49406D01*
X67056Y-49139D02*
X67056Y-49825D01*
X67084Y-49901D01*
X67141Y-49939D01*
X67198Y-49939D01*
X67656Y-49939D02*
X67656Y-49520D01*
X67627Y-49444D01*
X67570Y-49406D01*
X67456Y-49406D01*
X67398Y-49444D01*
X67656Y-49901D02*
X67598Y-49939D01*
X67456Y-49939D01*
X67398Y-49901D01*
X67370Y-49825D01*
X67370Y-49749D01*
X67398Y-49673D01*
X67456Y-49635D01*
X67598Y-49635D01*
X67656Y-49597D01*
X68398Y-49939D02*
X68398Y-49406D01*
X68398Y-49139D02*
X68370Y-49178D01*
X68398Y-49216D01*
X68427Y-49178D01*
X68398Y-49139D01*
X68398Y-49216D01*
X68656Y-49901D02*
X68713Y-49939D01*
X68827Y-49939D01*
X68884Y-49901D01*
X68913Y-49825D01*
X68913Y-49787D01*
X68884Y-49711D01*
X68827Y-49673D01*
X68741Y-49673D01*
X68684Y-49635D01*
X68656Y-49558D01*
X68656Y-49520D01*
X68684Y-49444D01*
X68741Y-49406D01*
X68827Y-49406D01*
X68884Y-49444D01*
X69627Y-49939D02*
X69627Y-49406D01*
X69627Y-49139D02*
X69598Y-49178D01*
X69627Y-49216D01*
X69656Y-49178D01*
X69627Y-49139D01*
X69627Y-49216D01*
X69913Y-49406D02*
X69913Y-49939D01*
X69913Y-49482D02*
X69941Y-49444D01*
X69998Y-49406D01*
X70084Y-49406D01*
X70141Y-49444D01*
X70170Y-49520D01*
X70170Y-49939D01*
X70913Y-49520D02*
X71113Y-49520D01*
X71198Y-49939D02*
X70913Y-49939D01*
X70913Y-49139D01*
X71198Y-49139D01*
X71398Y-49939D02*
X71713Y-49406D01*
X71398Y-49406D02*
X71713Y-49939D01*
X72198Y-49901D02*
X72141Y-49939D01*
X72027Y-49939D01*
X71970Y-49901D01*
X71941Y-49863D01*
X71913Y-49787D01*
X71913Y-49558D01*
X71941Y-49482D01*
X71970Y-49444D01*
X72027Y-49406D01*
X72141Y-49406D01*
X72198Y-49444D01*
X72684Y-49901D02*
X72627Y-49939D01*
X72513Y-49939D01*
X72456Y-49901D01*
X72427Y-49825D01*
X72427Y-49520D01*
X72456Y-49444D01*
X72513Y-49406D01*
X72627Y-49406D01*
X72684Y-49444D01*
X72713Y-49520D01*
X72713Y-49597D01*
X72427Y-49673D01*
X73056Y-49939D02*
X72998Y-49901D01*
X72970Y-49825D01*
X72970Y-49139D01*
X73370Y-49939D02*
X73313Y-49901D01*
X73284Y-49825D01*
X73284Y-49139D01*
X73684Y-49939D02*
X73627Y-49901D01*
X73598Y-49863D01*
X73570Y-49787D01*
X73570Y-49558D01*
X73598Y-49482D01*
X73627Y-49444D01*
X73684Y-49406D01*
X73770Y-49406D01*
X73827Y-49444D01*
X73856Y-49482D01*
X73884Y-49558D01*
X73884Y-49787D01*
X73856Y-49863D01*
X73827Y-49901D01*
X73770Y-49939D01*
X73684Y-49939D01*
X74141Y-49406D02*
X74141Y-49939D01*
X74141Y-49482D02*
X74170Y-49444D01*
X74227Y-49406D01*
X74313Y-49406D01*
X74370Y-49444D01*
X74398Y-49520D01*
X74398Y-49939D01*
X75056Y-49406D02*
X75284Y-49406D01*
X75141Y-49939D02*
X75141Y-49254D01*
X75170Y-49178D01*
X75227Y-49139D01*
X75284Y-49139D01*
X75570Y-49939D02*
X75513Y-49901D01*
X75484Y-49863D01*
X75456Y-49787D01*
X75456Y-49558D01*
X75484Y-49482D01*
X75513Y-49444D01*
X75570Y-49406D01*
X75656Y-49406D01*
X75713Y-49444D01*
X75741Y-49482D01*
X75770Y-49558D01*
X75770Y-49787D01*
X75741Y-49863D01*
X75713Y-49901D01*
X75656Y-49939D01*
X75570Y-49939D01*
X76027Y-49939D02*
X76027Y-49406D01*
X76027Y-49558D02*
X76056Y-49482D01*
X76084Y-49444D01*
X76141Y-49406D01*
X76198Y-49406D01*
X76398Y-49939D02*
X76398Y-49406D01*
X76398Y-49482D02*
X76427Y-49444D01*
X76484Y-49406D01*
X76570Y-49406D01*
X76627Y-49444D01*
X76656Y-49520D01*
X76656Y-49939D01*
X76656Y-49520D02*
X76684Y-49444D01*
X76741Y-49406D01*
X76827Y-49406D01*
X76884Y-49444D01*
X76913Y-49520D01*
X76913Y-49939D01*
X77456Y-49939D02*
X77456Y-49520D01*
X77427Y-49444D01*
X77370Y-49406D01*
X77256Y-49406D01*
X77198Y-49444D01*
X77456Y-49901D02*
X77398Y-49939D01*
X77256Y-49939D01*
X77198Y-49901D01*
X77170Y-49825D01*
X77170Y-49749D01*
X77198Y-49673D01*
X77256Y-49635D01*
X77398Y-49635D01*
X77456Y-49597D01*
X77656Y-49406D02*
X77884Y-49406D01*
X77741Y-49139D02*
X77741Y-49825D01*
X77770Y-49901D01*
X77827Y-49939D01*
X77884Y-49939D01*
X78113Y-49901D02*
X78113Y-49939D01*
X78084Y-50016D01*
X78056Y-50054D01*
X78827Y-49406D02*
X78827Y-49939D01*
X78827Y-49482D02*
X78856Y-49444D01*
X78913Y-49406D01*
X78998Y-49406D01*
X79056Y-49444D01*
X79084Y-49520D01*
X79084Y-49939D01*
X79456Y-49939D02*
X79398Y-49901D01*
X79370Y-49863D01*
X79341Y-49787D01*
X79341Y-49558D01*
X79370Y-49482D01*
X79398Y-49444D01*
X79456Y-49406D01*
X79541Y-49406D01*
X79598Y-49444D01*
X79627Y-49482D01*
X79656Y-49558D01*
X79656Y-49787D01*
X79627Y-49863D01*
X79598Y-49901D01*
X79541Y-49939D01*
X79456Y-49939D01*
X80313Y-49406D02*
X80627Y-49406D01*
X80313Y-49939D01*
X80627Y-49939D01*
X81084Y-49901D02*
X81027Y-49939D01*
X80913Y-49939D01*
X80856Y-49901D01*
X80827Y-49825D01*
X80827Y-49520D01*
X80856Y-49444D01*
X80913Y-49406D01*
X81027Y-49406D01*
X81084Y-49444D01*
X81113Y-49520D01*
X81113Y-49597D01*
X80827Y-49673D01*
X81370Y-49939D02*
X81370Y-49406D01*
X81370Y-49558D02*
X81398Y-49482D01*
X81427Y-49444D01*
X81484Y-49406D01*
X81541Y-49406D01*
X81827Y-49939D02*
X81770Y-49901D01*
X81741Y-49863D01*
X81713Y-49787D01*
X81713Y-49558D01*
X81741Y-49482D01*
X81770Y-49444D01*
X81827Y-49406D01*
X81913Y-49406D01*
X81970Y-49444D01*
X81998Y-49482D01*
X82027Y-49558D01*
X82027Y-49787D01*
X81998Y-49863D01*
X81970Y-49901D01*
X81913Y-49939D01*
X81827Y-49939D01*
X82713Y-49901D02*
X82770Y-49939D01*
X82884Y-49939D01*
X82941Y-49901D01*
X82970Y-49825D01*
X82970Y-49787D01*
X82941Y-49711D01*
X82884Y-49673D01*
X82798Y-49673D01*
X82741Y-49635D01*
X82713Y-49558D01*
X82713Y-49520D01*
X82741Y-49444D01*
X82798Y-49406D01*
X82884Y-49406D01*
X82941Y-49444D01*
X83484Y-49406D02*
X83484Y-49939D01*
X83227Y-49406D02*
X83227Y-49825D01*
X83256Y-49901D01*
X83313Y-49939D01*
X83398Y-49939D01*
X83456Y-49901D01*
X83484Y-49863D01*
X83770Y-49406D02*
X83770Y-50206D01*
X83770Y-49444D02*
X83827Y-49406D01*
X83941Y-49406D01*
X83998Y-49444D01*
X84027Y-49482D01*
X84056Y-49558D01*
X84056Y-49787D01*
X84027Y-49863D01*
X83998Y-49901D01*
X83941Y-49939D01*
X83827Y-49939D01*
X83770Y-49901D01*
X84313Y-49406D02*
X84313Y-50206D01*
X84313Y-49444D02*
X84370Y-49406D01*
X84484Y-49406D01*
X84541Y-49444D01*
X84570Y-49482D01*
X84598Y-49558D01*
X84598Y-49787D01*
X84570Y-49863D01*
X84541Y-49901D01*
X84484Y-49939D01*
X84370Y-49939D01*
X84313Y-49901D01*
X84856Y-49939D02*
X84856Y-49406D01*
X84856Y-49558D02*
X84884Y-49482D01*
X84913Y-49444D01*
X84970Y-49406D01*
X85027Y-49406D01*
X85456Y-49901D02*
X85398Y-49939D01*
X85284Y-49939D01*
X85227Y-49901D01*
X85198Y-49825D01*
X85198Y-49520D01*
X85227Y-49444D01*
X85284Y-49406D01*
X85398Y-49406D01*
X85456Y-49444D01*
X85484Y-49520D01*
X85484Y-49597D01*
X85198Y-49673D01*
X85713Y-49901D02*
X85770Y-49939D01*
X85884Y-49939D01*
X85941Y-49901D01*
X85970Y-49825D01*
X85970Y-49787D01*
X85941Y-49711D01*
X85884Y-49673D01*
X85798Y-49673D01*
X85741Y-49635D01*
X85713Y-49558D01*
X85713Y-49520D01*
X85741Y-49444D01*
X85798Y-49406D01*
X85884Y-49406D01*
X85941Y-49444D01*
X86198Y-49901D02*
X86256Y-49939D01*
X86370Y-49939D01*
X86427Y-49901D01*
X86456Y-49825D01*
X86456Y-49787D01*
X86427Y-49711D01*
X86370Y-49673D01*
X86284Y-49673D01*
X86227Y-49635D01*
X86198Y-49558D01*
X86198Y-49520D01*
X86227Y-49444D01*
X86284Y-49406D01*
X86370Y-49406D01*
X86427Y-49444D01*
X86713Y-49939D02*
X86713Y-49406D01*
X86713Y-49139D02*
X86684Y-49178D01*
X86713Y-49216D01*
X86741Y-49178D01*
X86713Y-49139D01*
X86713Y-49216D01*
X87084Y-49939D02*
X87027Y-49901D01*
X86998Y-49863D01*
X86970Y-49787D01*
X86970Y-49558D01*
X86998Y-49482D01*
X87027Y-49444D01*
X87084Y-49406D01*
X87170Y-49406D01*
X87227Y-49444D01*
X87256Y-49482D01*
X87284Y-49558D01*
X87284Y-49787D01*
X87256Y-49863D01*
X87227Y-49901D01*
X87170Y-49939D01*
X87084Y-49939D01*
X87541Y-49406D02*
X87541Y-49939D01*
X87541Y-49482D02*
X87570Y-49444D01*
X87627Y-49406D01*
X87713Y-49406D01*
X87770Y-49444D01*
X87798Y-49520D01*
X87798Y-49939D01*
X88113Y-49901D02*
X88113Y-49939D01*
X88084Y-50016D01*
X88056Y-50054D01*
X89084Y-49939D02*
X89084Y-49520D01*
X89056Y-49444D01*
X88998Y-49406D01*
X88884Y-49406D01*
X88827Y-49444D01*
X89084Y-49901D02*
X89027Y-49939D01*
X88884Y-49939D01*
X88827Y-49901D01*
X88798Y-49825D01*
X88798Y-49749D01*
X88827Y-49673D01*
X88884Y-49635D01*
X89027Y-49635D01*
X89084Y-49597D01*
X89370Y-49939D02*
X89370Y-49139D01*
X89370Y-49444D02*
X89427Y-49406D01*
X89541Y-49406D01*
X89598Y-49444D01*
X89627Y-49482D01*
X89656Y-49558D01*
X89656Y-49787D01*
X89627Y-49863D01*
X89598Y-49901D01*
X89541Y-49939D01*
X89427Y-49939D01*
X89370Y-49901D01*
X89884Y-49901D02*
X89941Y-49939D01*
X90056Y-49939D01*
X90113Y-49901D01*
X90141Y-49825D01*
X90141Y-49787D01*
X90113Y-49711D01*
X90056Y-49673D01*
X89970Y-49673D01*
X89913Y-49635D01*
X89884Y-49558D01*
X89884Y-49520D01*
X89913Y-49444D01*
X89970Y-49406D01*
X90056Y-49406D01*
X90113Y-49444D01*
X90484Y-49939D02*
X90427Y-49901D01*
X90398Y-49863D01*
X90370Y-49787D01*
X90370Y-49558D01*
X90398Y-49482D01*
X90427Y-49444D01*
X90484Y-49406D01*
X90570Y-49406D01*
X90627Y-49444D01*
X90656Y-49482D01*
X90684Y-49558D01*
X90684Y-49787D01*
X90656Y-49863D01*
X90627Y-49901D01*
X90570Y-49939D01*
X90484Y-49939D01*
X91027Y-49939D02*
X90970Y-49901D01*
X90941Y-49825D01*
X90941Y-49139D01*
X91513Y-49406D02*
X91513Y-49939D01*
X91256Y-49406D02*
X91256Y-49825D01*
X91284Y-49901D01*
X91341Y-49939D01*
X91427Y-49939D01*
X91484Y-49901D01*
X91513Y-49863D01*
X91713Y-49406D02*
X91941Y-49406D01*
X91798Y-49139D02*
X91798Y-49825D01*
X91827Y-49901D01*
X91884Y-49939D01*
X91941Y-49939D01*
X92370Y-49901D02*
X92313Y-49939D01*
X92198Y-49939D01*
X92141Y-49901D01*
X92113Y-49825D01*
X92113Y-49520D01*
X92141Y-49444D01*
X92198Y-49406D01*
X92313Y-49406D01*
X92370Y-49444D01*
X92398Y-49520D01*
X92398Y-49597D01*
X92113Y-49673D01*
X93370Y-49901D02*
X93313Y-49939D01*
X93198Y-49939D01*
X93141Y-49901D01*
X93113Y-49863D01*
X93084Y-49787D01*
X93084Y-49558D01*
X93113Y-49482D01*
X93141Y-49444D01*
X93198Y-49406D01*
X93313Y-49406D01*
X93370Y-49444D01*
X93713Y-49939D02*
X93656Y-49901D01*
X93627Y-49863D01*
X93598Y-49787D01*
X93598Y-49558D01*
X93627Y-49482D01*
X93656Y-49444D01*
X93713Y-49406D01*
X93798Y-49406D01*
X93856Y-49444D01*
X93884Y-49482D01*
X93913Y-49558D01*
X93913Y-49787D01*
X93884Y-49863D01*
X93856Y-49901D01*
X93798Y-49939D01*
X93713Y-49939D01*
X94256Y-49939D02*
X94198Y-49901D01*
X94170Y-49863D01*
X94141Y-49787D01*
X94141Y-49558D01*
X94170Y-49482D01*
X94198Y-49444D01*
X94256Y-49406D01*
X94341Y-49406D01*
X94398Y-49444D01*
X94427Y-49482D01*
X94456Y-49558D01*
X94456Y-49787D01*
X94427Y-49863D01*
X94398Y-49901D01*
X94341Y-49939D01*
X94256Y-49939D01*
X94713Y-49939D02*
X94713Y-49406D01*
X94713Y-49558D02*
X94741Y-49482D01*
X94770Y-49444D01*
X94827Y-49406D01*
X94884Y-49406D01*
X95341Y-49939D02*
X95341Y-49139D01*
X95341Y-49901D02*
X95284Y-49939D01*
X95170Y-49939D01*
X95113Y-49901D01*
X95084Y-49863D01*
X95056Y-49787D01*
X95056Y-49558D01*
X95084Y-49482D01*
X95113Y-49444D01*
X95170Y-49406D01*
X95284Y-49406D01*
X95341Y-49444D01*
X95627Y-49939D02*
X95627Y-49406D01*
X95627Y-49139D02*
X95598Y-49178D01*
X95627Y-49216D01*
X95656Y-49178D01*
X95627Y-49139D01*
X95627Y-49216D01*
X95913Y-49406D02*
X95913Y-49939D01*
X95913Y-49482D02*
X95941Y-49444D01*
X95998Y-49406D01*
X96084Y-49406D01*
X96141Y-49444D01*
X96170Y-49520D01*
X96170Y-49939D01*
X96713Y-49939D02*
X96713Y-49520D01*
X96684Y-49444D01*
X96627Y-49406D01*
X96513Y-49406D01*
X96456Y-49444D01*
X96713Y-49901D02*
X96656Y-49939D01*
X96513Y-49939D01*
X96456Y-49901D01*
X96427Y-49825D01*
X96427Y-49749D01*
X96456Y-49673D01*
X96513Y-49635D01*
X96656Y-49635D01*
X96713Y-49597D01*
X96913Y-49406D02*
X97141Y-49406D01*
X96998Y-49139D02*
X96998Y-49825D01*
X97027Y-49901D01*
X97084Y-49939D01*
X97141Y-49939D01*
X97570Y-49901D02*
X97513Y-49939D01*
X97398Y-49939D01*
X97341Y-49901D01*
X97313Y-49825D01*
X97313Y-49520D01*
X97341Y-49444D01*
X97398Y-49406D01*
X97513Y-49406D01*
X97570Y-49444D01*
X97598Y-49520D01*
X97598Y-49597D01*
X97313Y-49673D01*
X97827Y-49901D02*
X97884Y-49939D01*
X97998Y-49939D01*
X98056Y-49901D01*
X98084Y-49825D01*
X98084Y-49787D01*
X98056Y-49711D01*
X97998Y-49673D01*
X97913Y-49673D01*
X97856Y-49635D01*
X97827Y-49558D01*
X97827Y-49520D01*
X97856Y-49444D01*
X97913Y-49406D01*
X97998Y-49406D01*
X98056Y-49444D01*
X98341Y-49863D02*
X98370Y-49901D01*
X98341Y-49939D01*
X98313Y-49901D01*
X98341Y-49863D01*
X98341Y-49939D01*
X63441Y-47498D02*
X63441Y-46698D01*
X63584Y-46698D01*
X63669Y-46737D01*
X63726Y-46813D01*
X63755Y-46889D01*
X63784Y-47041D01*
X63784Y-47156D01*
X63755Y-47308D01*
X63726Y-47384D01*
X63669Y-47460D01*
X63584Y-47498D01*
X63441Y-47498D01*
X64041Y-47498D02*
X64041Y-46965D01*
X64041Y-47117D02*
X64069Y-47041D01*
X64098Y-47003D01*
X64155Y-46965D01*
X64212Y-46965D01*
X64412Y-47498D02*
X64412Y-46965D01*
X64412Y-46698D02*
X64384Y-46737D01*
X64412Y-46775D01*
X64441Y-46737D01*
X64412Y-46698D01*
X64412Y-46775D01*
X64784Y-47498D02*
X64726Y-47460D01*
X64698Y-47384D01*
X64698Y-46698D01*
X65098Y-47498D02*
X65041Y-47460D01*
X65012Y-47384D01*
X65012Y-46698D01*
X65784Y-47498D02*
X65784Y-46698D01*
X65926Y-46698D01*
X66012Y-46737D01*
X66069Y-46813D01*
X66098Y-46889D01*
X66126Y-47041D01*
X66126Y-47156D01*
X66098Y-47308D01*
X66069Y-47384D01*
X66012Y-47460D01*
X65926Y-47498D01*
X65784Y-47498D01*
X66641Y-47498D02*
X66641Y-47079D01*
X66612Y-47003D01*
X66555Y-46965D01*
X66441Y-46965D01*
X66384Y-47003D01*
X66641Y-47460D02*
X66584Y-47498D01*
X66441Y-47498D01*
X66384Y-47460D01*
X66355Y-47384D01*
X66355Y-47308D01*
X66384Y-47232D01*
X66441Y-47194D01*
X66584Y-47194D01*
X66641Y-47156D01*
X66841Y-46965D02*
X67069Y-46965D01*
X66926Y-46698D02*
X66926Y-47384D01*
X66955Y-47460D01*
X67012Y-47498D01*
X67069Y-47498D01*
X67526Y-47498D02*
X67526Y-47079D01*
X67498Y-47003D01*
X67441Y-46965D01*
X67326Y-46965D01*
X67269Y-47003D01*
X67526Y-47460D02*
X67469Y-47498D01*
X67326Y-47498D01*
X67269Y-47460D01*
X67241Y-47384D01*
X67241Y-47308D01*
X67269Y-47232D01*
X67326Y-47194D01*
X67469Y-47194D01*
X67526Y-47156D01*
X63026Y-48434D02*
X63484Y-48434D01*
X63769Y-48434D02*
X64226Y-48434D01*
X64512Y-48434D02*
X64969Y-48434D01*
X65255Y-48434D02*
X65712Y-48434D01*
X65998Y-48434D02*
X66455Y-48434D01*
X66741Y-48434D02*
X67198Y-48434D01*
X67484Y-48434D02*
X67941Y-48434D01*
X65103Y-45020D02*
X65075Y-45058D01*
X64989Y-45096D01*
X64932Y-45096D01*
X64846Y-45058D01*
X64789Y-44982D01*
X64760Y-44906D01*
X64732Y-44754D01*
X64732Y-44639D01*
X64760Y-44487D01*
X64789Y-44411D01*
X64846Y-44335D01*
X64932Y-44296D01*
X64989Y-44296D01*
X65075Y-44335D01*
X65103Y-44373D01*
X65446Y-45096D02*
X65389Y-45058D01*
X65360Y-45020D01*
X65332Y-44944D01*
X65332Y-44715D01*
X65360Y-44639D01*
X65389Y-44601D01*
X65446Y-44563D01*
X65532Y-44563D01*
X65589Y-44601D01*
X65618Y-44639D01*
X65646Y-44715D01*
X65646Y-44944D01*
X65618Y-45020D01*
X65589Y-45058D01*
X65532Y-45096D01*
X65446Y-45096D01*
X65989Y-45096D02*
X65932Y-45058D01*
X65903Y-44982D01*
X65903Y-44296D01*
X66303Y-45096D02*
X66246Y-45058D01*
X66218Y-45020D01*
X66189Y-44944D01*
X66189Y-44715D01*
X66218Y-44639D01*
X66246Y-44601D01*
X66303Y-44563D01*
X66389Y-44563D01*
X66446Y-44601D01*
X66475Y-44639D01*
X66503Y-44715D01*
X66503Y-44944D01*
X66475Y-45020D01*
X66446Y-45058D01*
X66389Y-45096D01*
X66303Y-45096D01*
X67018Y-44563D02*
X67018Y-45096D01*
X66760Y-44563D02*
X66760Y-44982D01*
X66789Y-45058D01*
X66846Y-45096D01*
X66932Y-45096D01*
X66989Y-45058D01*
X67018Y-45020D01*
X67303Y-45096D02*
X67303Y-44563D01*
X67303Y-44715D02*
X67332Y-44639D01*
X67360Y-44601D01*
X67418Y-44563D01*
X67475Y-44563D01*
X68075Y-44563D02*
X68189Y-45096D01*
X68303Y-44715D01*
X68418Y-45096D01*
X68532Y-44563D01*
X68760Y-45096D02*
X68760Y-44296D01*
X69018Y-45096D02*
X69018Y-44677D01*
X68989Y-44601D01*
X68932Y-44563D01*
X68846Y-44563D01*
X68789Y-44601D01*
X68760Y-44639D01*
X69303Y-45096D02*
X69303Y-44563D01*
X69303Y-44296D02*
X69275Y-44335D01*
X69303Y-44373D01*
X69332Y-44335D01*
X69303Y-44296D01*
X69303Y-44373D01*
X69503Y-44563D02*
X69732Y-44563D01*
X69589Y-44296D02*
X69589Y-44982D01*
X69618Y-45058D01*
X69675Y-45096D01*
X69732Y-45096D01*
X70160Y-45058D02*
X70103Y-45096D01*
X69989Y-45096D01*
X69932Y-45058D01*
X69903Y-44982D01*
X69903Y-44677D01*
X69932Y-44601D01*
X69989Y-44563D01*
X70103Y-44563D01*
X70160Y-44601D01*
X70189Y-44677D01*
X70189Y-44754D01*
X69903Y-44830D01*
X70446Y-45020D02*
X70475Y-45058D01*
X70446Y-45096D01*
X70418Y-45058D01*
X70446Y-45020D01*
X70446Y-45096D01*
X71160Y-45058D02*
X71246Y-45096D01*
X71389Y-45096D01*
X71446Y-45058D01*
X71475Y-45020D01*
X71503Y-44944D01*
X71503Y-44868D01*
X71475Y-44792D01*
X71446Y-44754D01*
X71389Y-44715D01*
X71275Y-44677D01*
X71218Y-44639D01*
X71189Y-44601D01*
X71160Y-44525D01*
X71160Y-44449D01*
X71189Y-44373D01*
X71218Y-44335D01*
X71275Y-44296D01*
X71418Y-44296D01*
X71503Y-44335D01*
X72018Y-44563D02*
X72018Y-45096D01*
X71760Y-44563D02*
X71760Y-44982D01*
X71789Y-45058D01*
X71846Y-45096D01*
X71932Y-45096D01*
X71989Y-45058D01*
X72018Y-45020D01*
X72303Y-44563D02*
X72303Y-45363D01*
X72303Y-44601D02*
X72360Y-44563D01*
X72475Y-44563D01*
X72532Y-44601D01*
X72560Y-44639D01*
X72589Y-44715D01*
X72589Y-44944D01*
X72560Y-45020D01*
X72532Y-45058D01*
X72475Y-45096D01*
X72360Y-45096D01*
X72303Y-45058D01*
X72846Y-44563D02*
X72846Y-45363D01*
X72846Y-44601D02*
X72903Y-44563D01*
X73018Y-44563D01*
X73075Y-44601D01*
X73103Y-44639D01*
X73132Y-44715D01*
X73132Y-44944D01*
X73103Y-45020D01*
X73075Y-45058D01*
X73018Y-45096D01*
X72903Y-45096D01*
X72846Y-45058D01*
X73475Y-45096D02*
X73418Y-45058D01*
X73389Y-44982D01*
X73389Y-44296D01*
X73703Y-45096D02*
X73703Y-44563D01*
X73703Y-44296D02*
X73675Y-44335D01*
X73703Y-44373D01*
X73732Y-44335D01*
X73703Y-44296D01*
X73703Y-44373D01*
X74218Y-45058D02*
X74160Y-45096D01*
X74046Y-45096D01*
X73989Y-45058D01*
X73960Y-44982D01*
X73960Y-44677D01*
X73989Y-44601D01*
X74046Y-44563D01*
X74160Y-44563D01*
X74218Y-44601D01*
X74246Y-44677D01*
X74246Y-44754D01*
X73960Y-44830D01*
X74503Y-45096D02*
X74503Y-44563D01*
X74503Y-44715D02*
X74532Y-44639D01*
X74560Y-44601D01*
X74618Y-44563D01*
X74675Y-44563D01*
X75303Y-45058D02*
X75360Y-45096D01*
X75475Y-45096D01*
X75532Y-45058D01*
X75560Y-44982D01*
X75560Y-44944D01*
X75532Y-44868D01*
X75475Y-44830D01*
X75389Y-44830D01*
X75332Y-44792D01*
X75303Y-44715D01*
X75303Y-44677D01*
X75332Y-44601D01*
X75389Y-44563D01*
X75475Y-44563D01*
X75532Y-44601D01*
X75818Y-45096D02*
X75818Y-44296D01*
X76075Y-45096D02*
X76075Y-44677D01*
X76046Y-44601D01*
X75989Y-44563D01*
X75903Y-44563D01*
X75846Y-44601D01*
X75818Y-44639D01*
X76446Y-45096D02*
X76389Y-45058D01*
X76360Y-45020D01*
X76332Y-44944D01*
X76332Y-44715D01*
X76360Y-44639D01*
X76389Y-44601D01*
X76446Y-44563D01*
X76532Y-44563D01*
X76589Y-44601D01*
X76618Y-44639D01*
X76646Y-44715D01*
X76646Y-44944D01*
X76618Y-45020D01*
X76589Y-45058D01*
X76532Y-45096D01*
X76446Y-45096D01*
X77160Y-44563D02*
X77160Y-45096D01*
X76903Y-44563D02*
X76903Y-44982D01*
X76932Y-45058D01*
X76989Y-45096D01*
X77075Y-45096D01*
X77132Y-45058D01*
X77160Y-45020D01*
X77532Y-45096D02*
X77475Y-45058D01*
X77446Y-44982D01*
X77446Y-44296D01*
X78018Y-45096D02*
X78018Y-44296D01*
X78018Y-45058D02*
X77960Y-45096D01*
X77846Y-45096D01*
X77789Y-45058D01*
X77760Y-45020D01*
X77732Y-44944D01*
X77732Y-44715D01*
X77760Y-44639D01*
X77789Y-44601D01*
X77846Y-44563D01*
X77960Y-44563D01*
X78018Y-44601D01*
X78760Y-45096D02*
X78760Y-44563D01*
X78760Y-44715D02*
X78789Y-44639D01*
X78818Y-44601D01*
X78875Y-44563D01*
X78932Y-44563D01*
X79360Y-45058D02*
X79303Y-45096D01*
X79189Y-45096D01*
X79132Y-45058D01*
X79103Y-44982D01*
X79103Y-44677D01*
X79132Y-44601D01*
X79189Y-44563D01*
X79303Y-44563D01*
X79360Y-44601D01*
X79389Y-44677D01*
X79389Y-44754D01*
X79103Y-44830D01*
X79646Y-45096D02*
X79646Y-44563D01*
X79646Y-44639D02*
X79675Y-44601D01*
X79732Y-44563D01*
X79818Y-44563D01*
X79875Y-44601D01*
X79903Y-44677D01*
X79903Y-45096D01*
X79903Y-44677D02*
X79932Y-44601D01*
X79989Y-44563D01*
X80075Y-44563D01*
X80132Y-44601D01*
X80160Y-44677D01*
X80160Y-45096D01*
X80532Y-45096D02*
X80475Y-45058D01*
X80446Y-45020D01*
X80418Y-44944D01*
X80418Y-44715D01*
X80446Y-44639D01*
X80475Y-44601D01*
X80532Y-44563D01*
X80618Y-44563D01*
X80675Y-44601D01*
X80703Y-44639D01*
X80732Y-44715D01*
X80732Y-44944D01*
X80703Y-45020D01*
X80675Y-45058D01*
X80618Y-45096D01*
X80532Y-45096D01*
X80932Y-44563D02*
X81075Y-45096D01*
X81218Y-44563D01*
X81675Y-45058D02*
X81618Y-45096D01*
X81503Y-45096D01*
X81446Y-45058D01*
X81418Y-44982D01*
X81418Y-44677D01*
X81446Y-44601D01*
X81503Y-44563D01*
X81618Y-44563D01*
X81675Y-44601D01*
X81703Y-44677D01*
X81703Y-44754D01*
X81418Y-44830D01*
X82675Y-45096D02*
X82675Y-44677D01*
X82646Y-44601D01*
X82589Y-44563D01*
X82475Y-44563D01*
X82418Y-44601D01*
X82675Y-45058D02*
X82618Y-45096D01*
X82475Y-45096D01*
X82418Y-45058D01*
X82389Y-44982D01*
X82389Y-44906D01*
X82418Y-44830D01*
X82475Y-44792D01*
X82618Y-44792D01*
X82675Y-44754D01*
X82960Y-44563D02*
X82960Y-45096D01*
X82960Y-44639D02*
X82989Y-44601D01*
X83046Y-44563D01*
X83132Y-44563D01*
X83189Y-44601D01*
X83218Y-44677D01*
X83218Y-45096D01*
X83446Y-44563D02*
X83589Y-45096D01*
X83732Y-44563D02*
X83589Y-45096D01*
X83532Y-45287D01*
X83503Y-45325D01*
X83446Y-45363D01*
X84389Y-45058D02*
X84446Y-45096D01*
X84560Y-45096D01*
X84618Y-45058D01*
X84646Y-44982D01*
X84646Y-44944D01*
X84618Y-44868D01*
X84560Y-44830D01*
X84475Y-44830D01*
X84418Y-44792D01*
X84389Y-44715D01*
X84389Y-44677D01*
X84418Y-44601D01*
X84475Y-44563D01*
X84560Y-44563D01*
X84618Y-44601D01*
X84903Y-45096D02*
X84903Y-44563D01*
X84903Y-44296D02*
X84875Y-44335D01*
X84903Y-44373D01*
X84932Y-44335D01*
X84903Y-44296D01*
X84903Y-44373D01*
X85275Y-45096D02*
X85218Y-45058D01*
X85189Y-44982D01*
X85189Y-44296D01*
X85503Y-45096D02*
X85503Y-44296D01*
X85560Y-44792D02*
X85732Y-45096D01*
X85732Y-44563D02*
X85503Y-44868D01*
X85960Y-45058D02*
X86018Y-45096D01*
X86132Y-45096D01*
X86189Y-45058D01*
X86218Y-44982D01*
X86218Y-44944D01*
X86189Y-44868D01*
X86132Y-44830D01*
X86046Y-44830D01*
X85989Y-44792D01*
X85960Y-44715D01*
X85960Y-44677D01*
X85989Y-44601D01*
X86046Y-44563D01*
X86132Y-44563D01*
X86189Y-44601D01*
X86732Y-45058D02*
X86675Y-45096D01*
X86560Y-45096D01*
X86503Y-45058D01*
X86475Y-45020D01*
X86446Y-44944D01*
X86446Y-44715D01*
X86475Y-44639D01*
X86503Y-44601D01*
X86560Y-44563D01*
X86675Y-44563D01*
X86732Y-44601D01*
X86989Y-45096D02*
X86989Y-44563D01*
X86989Y-44715D02*
X87018Y-44639D01*
X87046Y-44601D01*
X87103Y-44563D01*
X87160Y-44563D01*
X87589Y-45058D02*
X87532Y-45096D01*
X87418Y-45096D01*
X87360Y-45058D01*
X87332Y-44982D01*
X87332Y-44677D01*
X87360Y-44601D01*
X87418Y-44563D01*
X87532Y-44563D01*
X87589Y-44601D01*
X87618Y-44677D01*
X87618Y-44754D01*
X87332Y-44830D01*
X88103Y-45058D02*
X88046Y-45096D01*
X87932Y-45096D01*
X87875Y-45058D01*
X87846Y-44982D01*
X87846Y-44677D01*
X87875Y-44601D01*
X87932Y-44563D01*
X88046Y-44563D01*
X88103Y-44601D01*
X88132Y-44677D01*
X88132Y-44754D01*
X87846Y-44830D01*
X88389Y-44563D02*
X88389Y-45096D01*
X88389Y-44639D02*
X88418Y-44601D01*
X88475Y-44563D01*
X88560Y-44563D01*
X88618Y-44601D01*
X88646Y-44677D01*
X88646Y-45096D01*
X89332Y-44563D02*
X89446Y-45096D01*
X89560Y-44715D01*
X89675Y-45096D01*
X89789Y-44563D01*
X90018Y-45096D02*
X90018Y-44296D01*
X90275Y-45096D02*
X90275Y-44677D01*
X90246Y-44601D01*
X90189Y-44563D01*
X90103Y-44563D01*
X90046Y-44601D01*
X90018Y-44639D01*
X90560Y-45096D02*
X90560Y-44563D01*
X90560Y-44296D02*
X90532Y-44335D01*
X90560Y-44373D01*
X90589Y-44335D01*
X90560Y-44296D01*
X90560Y-44373D01*
X91103Y-45058D02*
X91046Y-45096D01*
X90932Y-45096D01*
X90875Y-45058D01*
X90846Y-45020D01*
X90818Y-44944D01*
X90818Y-44715D01*
X90846Y-44639D01*
X90875Y-44601D01*
X90932Y-44563D01*
X91046Y-44563D01*
X91103Y-44601D01*
X91360Y-45096D02*
X91360Y-44296D01*
X91618Y-45096D02*
X91618Y-44677D01*
X91589Y-44601D01*
X91532Y-44563D01*
X91446Y-44563D01*
X91389Y-44601D01*
X91360Y-44639D01*
X92446Y-45096D02*
X92389Y-45058D01*
X92360Y-45020D01*
X92332Y-44944D01*
X92332Y-44715D01*
X92360Y-44639D01*
X92389Y-44601D01*
X92446Y-44563D01*
X92532Y-44563D01*
X92589Y-44601D01*
X92618Y-44639D01*
X92646Y-44715D01*
X92646Y-44944D01*
X92618Y-45020D01*
X92589Y-45058D01*
X92532Y-45096D01*
X92446Y-45096D01*
X92846Y-44563D02*
X92989Y-45096D01*
X93132Y-44563D01*
X93589Y-45058D02*
X93532Y-45096D01*
X93418Y-45096D01*
X93360Y-45058D01*
X93332Y-44982D01*
X93332Y-44677D01*
X93360Y-44601D01*
X93418Y-44563D01*
X93532Y-44563D01*
X93589Y-44601D01*
X93618Y-44677D01*
X93618Y-44754D01*
X93332Y-44830D01*
X93875Y-45096D02*
X93875Y-44563D01*
X93875Y-44715D02*
X93903Y-44639D01*
X93932Y-44601D01*
X93989Y-44563D01*
X94046Y-44563D01*
X94246Y-45096D02*
X94246Y-44296D01*
X94503Y-45096D02*
X94503Y-44677D01*
X94475Y-44601D01*
X94418Y-44563D01*
X94332Y-44563D01*
X94275Y-44601D01*
X94246Y-44639D01*
X95046Y-45096D02*
X95046Y-44677D01*
X95018Y-44601D01*
X94960Y-44563D01*
X94846Y-44563D01*
X94789Y-44601D01*
X95046Y-45058D02*
X94989Y-45096D01*
X94846Y-45096D01*
X94789Y-45058D01*
X94760Y-44982D01*
X94760Y-44906D01*
X94789Y-44830D01*
X94846Y-44792D01*
X94989Y-44792D01*
X95046Y-44754D01*
X95332Y-44563D02*
X95332Y-45096D01*
X95332Y-44639D02*
X95360Y-44601D01*
X95418Y-44563D01*
X95503Y-44563D01*
X95560Y-44601D01*
X95589Y-44677D01*
X95589Y-45096D01*
X96132Y-45096D02*
X96132Y-44296D01*
X96132Y-45058D02*
X96075Y-45096D01*
X95960Y-45096D01*
X95903Y-45058D01*
X95875Y-45020D01*
X95846Y-44944D01*
X95846Y-44715D01*
X95875Y-44639D01*
X95903Y-44601D01*
X95960Y-44563D01*
X96075Y-44563D01*
X96132Y-44601D01*
X96389Y-45058D02*
X96446Y-45096D01*
X96560Y-45096D01*
X96618Y-45058D01*
X96646Y-44982D01*
X96646Y-44944D01*
X96618Y-44868D01*
X96560Y-44830D01*
X96475Y-44830D01*
X96418Y-44792D01*
X96389Y-44715D01*
X96389Y-44677D01*
X96418Y-44601D01*
X96475Y-44563D01*
X96560Y-44563D01*
X96618Y-44601D01*
X97360Y-44563D02*
X97360Y-45363D01*
X97360Y-44601D02*
X97418Y-44563D01*
X97532Y-44563D01*
X97589Y-44601D01*
X97618Y-44639D01*
X97646Y-44715D01*
X97646Y-44944D01*
X97618Y-45020D01*
X97589Y-45058D01*
X97532Y-45096D01*
X97418Y-45096D01*
X97360Y-45058D01*
X98160Y-45096D02*
X98160Y-44677D01*
X98132Y-44601D01*
X98075Y-44563D01*
X97960Y-44563D01*
X97903Y-44601D01*
X98160Y-45058D02*
X98103Y-45096D01*
X97960Y-45096D01*
X97903Y-45058D01*
X97875Y-44982D01*
X97875Y-44906D01*
X97903Y-44830D01*
X97960Y-44792D01*
X98103Y-44792D01*
X98160Y-44754D01*
X98703Y-45096D02*
X98703Y-44296D01*
X98703Y-45058D02*
X98646Y-45096D01*
X98532Y-45096D01*
X98475Y-45058D01*
X98446Y-45020D01*
X98418Y-44944D01*
X98418Y-44715D01*
X98446Y-44639D01*
X98475Y-44601D01*
X98532Y-44563D01*
X98646Y-44563D01*
X98703Y-44601D01*
X98960Y-45058D02*
X99018Y-45096D01*
X99132Y-45096D01*
X99189Y-45058D01*
X99218Y-44982D01*
X99218Y-44944D01*
X99189Y-44868D01*
X99132Y-44830D01*
X99046Y-44830D01*
X98989Y-44792D01*
X98960Y-44715D01*
X98960Y-44677D01*
X98989Y-44601D01*
X99046Y-44563D01*
X99132Y-44563D01*
X99189Y-44601D01*
X99475Y-45020D02*
X99503Y-45058D01*
X99475Y-45096D01*
X99446Y-45058D01*
X99475Y-45020D01*
X99475Y-45096D01*
X63265Y-43398D02*
X63351Y-43436D01*
X63379Y-43475D01*
X63408Y-43551D01*
X63408Y-43665D01*
X63379Y-43741D01*
X63351Y-43779D01*
X63294Y-43817D01*
X63065Y-43817D01*
X63065Y-43017D01*
X63265Y-43017D01*
X63322Y-43056D01*
X63351Y-43094D01*
X63379Y-43170D01*
X63379Y-43246D01*
X63351Y-43322D01*
X63322Y-43360D01*
X63265Y-43398D01*
X63065Y-43398D01*
X63665Y-43741D02*
X63694Y-43779D01*
X63665Y-43817D01*
X63636Y-43779D01*
X63665Y-43741D01*
X63665Y-43817D01*
X63893Y-44122D02*
X63922Y-44084D01*
X63979Y-43970D01*
X64008Y-43894D01*
X64036Y-43779D01*
X64065Y-43589D01*
X64065Y-43436D01*
X64036Y-43246D01*
X64008Y-43132D01*
X63979Y-43056D01*
X63922Y-42941D01*
X63893Y-42903D01*
X64779Y-43779D02*
X64865Y-43817D01*
X65008Y-43817D01*
X65065Y-43779D01*
X65093Y-43741D01*
X65122Y-43665D01*
X65122Y-43589D01*
X65093Y-43513D01*
X65065Y-43475D01*
X65008Y-43436D01*
X64893Y-43398D01*
X64836Y-43360D01*
X64808Y-43322D01*
X64779Y-43246D01*
X64779Y-43170D01*
X64808Y-43094D01*
X64836Y-43056D01*
X64893Y-43017D01*
X65036Y-43017D01*
X65122Y-43056D01*
X65379Y-43817D02*
X65379Y-43284D01*
X65379Y-43017D02*
X65351Y-43056D01*
X65379Y-43094D01*
X65408Y-43056D01*
X65379Y-43017D01*
X65379Y-43094D01*
X65751Y-43817D02*
X65694Y-43779D01*
X65665Y-43703D01*
X65665Y-43017D01*
X65979Y-43817D02*
X65979Y-43017D01*
X66036Y-43513D02*
X66208Y-43817D01*
X66208Y-43284D02*
X65979Y-43589D01*
X66436Y-43779D02*
X66494Y-43817D01*
X66608Y-43817D01*
X66665Y-43779D01*
X66694Y-43703D01*
X66694Y-43665D01*
X66665Y-43589D01*
X66608Y-43551D01*
X66522Y-43551D01*
X66465Y-43513D01*
X66436Y-43436D01*
X66436Y-43398D01*
X66465Y-43322D01*
X66522Y-43284D01*
X66608Y-43284D01*
X66665Y-43322D01*
X67208Y-43779D02*
X67151Y-43817D01*
X67036Y-43817D01*
X66979Y-43779D01*
X66951Y-43741D01*
X66922Y-43665D01*
X66922Y-43436D01*
X66951Y-43360D01*
X66979Y-43322D01*
X67036Y-43284D01*
X67151Y-43284D01*
X67208Y-43322D01*
X67465Y-43817D02*
X67465Y-43284D01*
X67465Y-43436D02*
X67494Y-43360D01*
X67522Y-43322D01*
X67579Y-43284D01*
X67636Y-43284D01*
X68065Y-43779D02*
X68008Y-43817D01*
X67894Y-43817D01*
X67836Y-43779D01*
X67808Y-43703D01*
X67808Y-43398D01*
X67836Y-43322D01*
X67894Y-43284D01*
X68008Y-43284D01*
X68065Y-43322D01*
X68094Y-43398D01*
X68094Y-43475D01*
X67808Y-43551D01*
X68579Y-43779D02*
X68522Y-43817D01*
X68408Y-43817D01*
X68351Y-43779D01*
X68322Y-43703D01*
X68322Y-43398D01*
X68351Y-43322D01*
X68408Y-43284D01*
X68522Y-43284D01*
X68579Y-43322D01*
X68608Y-43398D01*
X68608Y-43475D01*
X68322Y-43551D01*
X68865Y-43284D02*
X68865Y-43817D01*
X68865Y-43360D02*
X68894Y-43322D01*
X68951Y-43284D01*
X69036Y-43284D01*
X69094Y-43322D01*
X69122Y-43398D01*
X69122Y-43817D01*
X64653Y-41338D02*
X64739Y-41376D01*
X64882Y-41376D01*
X64939Y-41338D01*
X64968Y-41300D01*
X64996Y-41224D01*
X64996Y-41148D01*
X64968Y-41072D01*
X64939Y-41034D01*
X64882Y-40995D01*
X64768Y-40957D01*
X64711Y-40919D01*
X64682Y-40881D01*
X64653Y-40805D01*
X64653Y-40729D01*
X64682Y-40653D01*
X64711Y-40615D01*
X64768Y-40576D01*
X64911Y-40576D01*
X64996Y-40615D01*
X65511Y-40843D02*
X65511Y-41376D01*
X65253Y-40843D02*
X65253Y-41262D01*
X65282Y-41338D01*
X65339Y-41376D01*
X65425Y-41376D01*
X65482Y-41338D01*
X65511Y-41300D01*
X65796Y-40843D02*
X65796Y-41643D01*
X65796Y-40881D02*
X65853Y-40843D01*
X65968Y-40843D01*
X66025Y-40881D01*
X66053Y-40919D01*
X66082Y-40995D01*
X66082Y-41224D01*
X66053Y-41300D01*
X66025Y-41338D01*
X65968Y-41376D01*
X65853Y-41376D01*
X65796Y-41338D01*
X66339Y-40843D02*
X66339Y-41643D01*
X66339Y-40881D02*
X66396Y-40843D01*
X66511Y-40843D01*
X66568Y-40881D01*
X66596Y-40919D01*
X66625Y-40995D01*
X66625Y-41224D01*
X66596Y-41300D01*
X66568Y-41338D01*
X66511Y-41376D01*
X66396Y-41376D01*
X66339Y-41338D01*
X66968Y-41376D02*
X66911Y-41338D01*
X66882Y-41262D01*
X66882Y-40576D01*
X67196Y-41376D02*
X67196Y-40843D01*
X67196Y-40576D02*
X67168Y-40615D01*
X67196Y-40653D01*
X67225Y-40615D01*
X67196Y-40576D01*
X67196Y-40653D01*
X67711Y-41338D02*
X67653Y-41376D01*
X67539Y-41376D01*
X67482Y-41338D01*
X67453Y-41262D01*
X67453Y-40957D01*
X67482Y-40881D01*
X67539Y-40843D01*
X67653Y-40843D01*
X67711Y-40881D01*
X67739Y-40957D01*
X67739Y-41034D01*
X67453Y-41110D01*
X67996Y-41376D02*
X67996Y-40843D01*
X67996Y-40995D02*
X68025Y-40919D01*
X68053Y-40881D01*
X68111Y-40843D01*
X68168Y-40843D01*
X68796Y-41338D02*
X68853Y-41376D01*
X68968Y-41376D01*
X69025Y-41338D01*
X69053Y-41262D01*
X69053Y-41224D01*
X69025Y-41148D01*
X68968Y-41110D01*
X68882Y-41110D01*
X68825Y-41072D01*
X68796Y-40995D01*
X68796Y-40957D01*
X68825Y-40881D01*
X68882Y-40843D01*
X68968Y-40843D01*
X69025Y-40881D01*
X69311Y-41376D02*
X69311Y-40576D01*
X69568Y-41376D02*
X69568Y-40957D01*
X69539Y-40881D01*
X69482Y-40843D01*
X69396Y-40843D01*
X69339Y-40881D01*
X69311Y-40919D01*
X69939Y-41376D02*
X69882Y-41338D01*
X69853Y-41300D01*
X69825Y-41224D01*
X69825Y-40995D01*
X69853Y-40919D01*
X69882Y-40881D01*
X69939Y-40843D01*
X70025Y-40843D01*
X70082Y-40881D01*
X70111Y-40919D01*
X70139Y-40995D01*
X70139Y-41224D01*
X70111Y-41300D01*
X70082Y-41338D01*
X70025Y-41376D01*
X69939Y-41376D01*
X70653Y-40843D02*
X70653Y-41376D01*
X70396Y-40843D02*
X70396Y-41262D01*
X70425Y-41338D01*
X70482Y-41376D01*
X70568Y-41376D01*
X70625Y-41338D01*
X70653Y-41300D01*
X71025Y-41376D02*
X70968Y-41338D01*
X70939Y-41262D01*
X70939Y-40576D01*
X71511Y-41376D02*
X71511Y-40576D01*
X71511Y-41338D02*
X71453Y-41376D01*
X71339Y-41376D01*
X71282Y-41338D01*
X71253Y-41300D01*
X71225Y-41224D01*
X71225Y-40995D01*
X71253Y-40919D01*
X71282Y-40881D01*
X71339Y-40843D01*
X71453Y-40843D01*
X71511Y-40881D01*
X72339Y-41376D02*
X72282Y-41338D01*
X72253Y-41300D01*
X72225Y-41224D01*
X72225Y-40995D01*
X72253Y-40919D01*
X72282Y-40881D01*
X72339Y-40843D01*
X72425Y-40843D01*
X72482Y-40881D01*
X72511Y-40919D01*
X72539Y-40995D01*
X72539Y-41224D01*
X72511Y-41300D01*
X72482Y-41338D01*
X72425Y-41376D01*
X72339Y-41376D01*
X72739Y-40843D02*
X72882Y-41376D01*
X73025Y-40843D01*
X73482Y-41338D02*
X73425Y-41376D01*
X73311Y-41376D01*
X73253Y-41338D01*
X73225Y-41262D01*
X73225Y-40957D01*
X73253Y-40881D01*
X73311Y-40843D01*
X73425Y-40843D01*
X73482Y-40881D01*
X73511Y-40957D01*
X73511Y-41034D01*
X73225Y-41110D01*
X73768Y-41376D02*
X73768Y-40843D01*
X73768Y-40995D02*
X73796Y-40919D01*
X73825Y-40881D01*
X73882Y-40843D01*
X73939Y-40843D01*
X74111Y-41338D02*
X74168Y-41376D01*
X74282Y-41376D01*
X74339Y-41338D01*
X74368Y-41262D01*
X74368Y-41224D01*
X74339Y-41148D01*
X74282Y-41110D01*
X74196Y-41110D01*
X74139Y-41072D01*
X74111Y-40995D01*
X74111Y-40957D01*
X74139Y-40881D01*
X74196Y-40843D01*
X74282Y-40843D01*
X74339Y-40881D01*
X74625Y-41376D02*
X74625Y-40843D01*
X74625Y-40576D02*
X74596Y-40615D01*
X74625Y-40653D01*
X74653Y-40615D01*
X74625Y-40576D01*
X74625Y-40653D01*
X74853Y-40843D02*
X75168Y-40843D01*
X74853Y-41376D01*
X75168Y-41376D01*
X75625Y-41338D02*
X75568Y-41376D01*
X75453Y-41376D01*
X75396Y-41338D01*
X75368Y-41262D01*
X75368Y-40957D01*
X75396Y-40881D01*
X75453Y-40843D01*
X75568Y-40843D01*
X75625Y-40881D01*
X75653Y-40957D01*
X75653Y-41034D01*
X75368Y-41110D01*
X76339Y-41338D02*
X76396Y-41376D01*
X76511Y-41376D01*
X76568Y-41338D01*
X76596Y-41262D01*
X76596Y-41224D01*
X76568Y-41148D01*
X76511Y-41110D01*
X76425Y-41110D01*
X76368Y-41072D01*
X76339Y-40995D01*
X76339Y-40957D01*
X76368Y-40881D01*
X76425Y-40843D01*
X76511Y-40843D01*
X76568Y-40881D01*
X76939Y-41376D02*
X76882Y-41338D01*
X76853Y-41300D01*
X76825Y-41224D01*
X76825Y-40995D01*
X76853Y-40919D01*
X76882Y-40881D01*
X76939Y-40843D01*
X77025Y-40843D01*
X77082Y-40881D01*
X77111Y-40919D01*
X77139Y-40995D01*
X77139Y-41224D01*
X77111Y-41300D01*
X77082Y-41338D01*
X77025Y-41376D01*
X76939Y-41376D01*
X77482Y-41376D02*
X77425Y-41338D01*
X77396Y-41262D01*
X77396Y-40576D01*
X77968Y-41376D02*
X77968Y-40576D01*
X77968Y-41338D02*
X77911Y-41376D01*
X77796Y-41376D01*
X77739Y-41338D01*
X77711Y-41300D01*
X77682Y-41224D01*
X77682Y-40995D01*
X77711Y-40919D01*
X77739Y-40881D01*
X77796Y-40843D01*
X77911Y-40843D01*
X77968Y-40881D01*
X78482Y-41338D02*
X78425Y-41376D01*
X78311Y-41376D01*
X78253Y-41338D01*
X78225Y-41262D01*
X78225Y-40957D01*
X78253Y-40881D01*
X78311Y-40843D01*
X78425Y-40843D01*
X78482Y-40881D01*
X78511Y-40957D01*
X78511Y-41034D01*
X78225Y-41110D01*
X78768Y-41376D02*
X78768Y-40843D01*
X78768Y-40995D02*
X78796Y-40919D01*
X78825Y-40881D01*
X78882Y-40843D01*
X78939Y-40843D01*
X79139Y-41376D02*
X79139Y-40843D01*
X79139Y-40919D02*
X79168Y-40881D01*
X79225Y-40843D01*
X79311Y-40843D01*
X79368Y-40881D01*
X79396Y-40957D01*
X79396Y-41376D01*
X79396Y-40957D02*
X79425Y-40881D01*
X79482Y-40843D01*
X79568Y-40843D01*
X79625Y-40881D01*
X79653Y-40957D01*
X79653Y-41376D01*
X80196Y-41376D02*
X80196Y-40957D01*
X80168Y-40881D01*
X80111Y-40843D01*
X79996Y-40843D01*
X79939Y-40881D01*
X80196Y-41338D02*
X80139Y-41376D01*
X79996Y-41376D01*
X79939Y-41338D01*
X79911Y-41262D01*
X79911Y-41186D01*
X79939Y-41110D01*
X79996Y-41072D01*
X80139Y-41072D01*
X80196Y-41034D01*
X80453Y-41338D02*
X80511Y-41376D01*
X80625Y-41376D01*
X80682Y-41338D01*
X80711Y-41262D01*
X80711Y-41224D01*
X80682Y-41148D01*
X80625Y-41110D01*
X80539Y-41110D01*
X80482Y-41072D01*
X80453Y-40995D01*
X80453Y-40957D01*
X80482Y-40881D01*
X80539Y-40843D01*
X80625Y-40843D01*
X80682Y-40881D01*
X80968Y-41376D02*
X80968Y-40576D01*
X81025Y-41072D02*
X81196Y-41376D01*
X81196Y-40843D02*
X80968Y-41148D01*
X81996Y-41376D02*
X81939Y-41338D01*
X81911Y-41300D01*
X81882Y-41224D01*
X81882Y-40995D01*
X81911Y-40919D01*
X81939Y-40881D01*
X81996Y-40843D01*
X82082Y-40843D01*
X82139Y-40881D01*
X82168Y-40919D01*
X82196Y-40995D01*
X82196Y-41224D01*
X82168Y-41300D01*
X82139Y-41338D01*
X82082Y-41376D01*
X81996Y-41376D01*
X82453Y-40843D02*
X82453Y-41376D01*
X82453Y-40919D02*
X82482Y-40881D01*
X82539Y-40843D01*
X82625Y-40843D01*
X82682Y-40881D01*
X82711Y-40957D01*
X82711Y-41376D01*
X83453Y-40843D02*
X83453Y-41643D01*
X83453Y-40881D02*
X83511Y-40843D01*
X83625Y-40843D01*
X83682Y-40881D01*
X83711Y-40919D01*
X83739Y-40995D01*
X83739Y-41224D01*
X83711Y-41300D01*
X83682Y-41338D01*
X83625Y-41376D01*
X83511Y-41376D01*
X83453Y-41338D01*
X84253Y-41376D02*
X84253Y-40957D01*
X84225Y-40881D01*
X84168Y-40843D01*
X84053Y-40843D01*
X83996Y-40881D01*
X84253Y-41338D02*
X84196Y-41376D01*
X84053Y-41376D01*
X83996Y-41338D01*
X83968Y-41262D01*
X83968Y-41186D01*
X83996Y-41110D01*
X84053Y-41072D01*
X84196Y-41072D01*
X84253Y-41034D01*
X84796Y-41376D02*
X84796Y-40576D01*
X84796Y-41338D02*
X84739Y-41376D01*
X84625Y-41376D01*
X84568Y-41338D01*
X84539Y-41300D01*
X84511Y-41224D01*
X84511Y-40995D01*
X84539Y-40919D01*
X84568Y-40881D01*
X84625Y-40843D01*
X84739Y-40843D01*
X84796Y-40881D01*
X85053Y-41338D02*
X85111Y-41376D01*
X85225Y-41376D01*
X85282Y-41338D01*
X85311Y-41262D01*
X85311Y-41224D01*
X85282Y-41148D01*
X85225Y-41110D01*
X85139Y-41110D01*
X85082Y-41072D01*
X85053Y-40995D01*
X85053Y-40957D01*
X85082Y-40881D01*
X85139Y-40843D01*
X85225Y-40843D01*
X85282Y-40881D01*
X85939Y-40843D02*
X86168Y-40843D01*
X86025Y-40576D02*
X86025Y-41262D01*
X86053Y-41338D01*
X86111Y-41376D01*
X86168Y-41376D01*
X86453Y-41376D02*
X86396Y-41338D01*
X86368Y-41300D01*
X86339Y-41224D01*
X86339Y-40995D01*
X86368Y-40919D01*
X86396Y-40881D01*
X86453Y-40843D01*
X86539Y-40843D01*
X86596Y-40881D01*
X86625Y-40919D01*
X86653Y-40995D01*
X86653Y-41224D01*
X86625Y-41300D01*
X86596Y-41338D01*
X86539Y-41376D01*
X86453Y-41376D01*
X87339Y-41338D02*
X87396Y-41376D01*
X87511Y-41376D01*
X87568Y-41338D01*
X87596Y-41262D01*
X87596Y-41224D01*
X87568Y-41148D01*
X87511Y-41110D01*
X87425Y-41110D01*
X87368Y-41072D01*
X87339Y-40995D01*
X87339Y-40957D01*
X87368Y-40881D01*
X87425Y-40843D01*
X87511Y-40843D01*
X87568Y-40881D01*
X88111Y-40843D02*
X88111Y-41376D01*
X87853Y-40843D02*
X87853Y-41262D01*
X87882Y-41338D01*
X87939Y-41376D01*
X88025Y-41376D01*
X88082Y-41338D01*
X88111Y-41300D01*
X88396Y-41376D02*
X88396Y-40843D01*
X88396Y-40576D02*
X88368Y-40615D01*
X88396Y-40653D01*
X88425Y-40615D01*
X88396Y-40576D01*
X88396Y-40653D01*
X88596Y-40843D02*
X88825Y-40843D01*
X88682Y-40576D02*
X88682Y-41262D01*
X88711Y-41338D01*
X88768Y-41376D01*
X88825Y-41376D01*
X89482Y-40843D02*
X89482Y-41643D01*
X89482Y-40881D02*
X89539Y-40843D01*
X89653Y-40843D01*
X89711Y-40881D01*
X89739Y-40919D01*
X89768Y-40995D01*
X89768Y-41224D01*
X89739Y-41300D01*
X89711Y-41338D01*
X89653Y-41376D01*
X89539Y-41376D01*
X89482Y-41338D01*
X90025Y-41376D02*
X90025Y-40843D01*
X90025Y-40995D02*
X90053Y-40919D01*
X90082Y-40881D01*
X90139Y-40843D01*
X90196Y-40843D01*
X90482Y-41376D02*
X90425Y-41338D01*
X90396Y-41300D01*
X90368Y-41224D01*
X90368Y-40995D01*
X90396Y-40919D01*
X90425Y-40881D01*
X90482Y-40843D01*
X90568Y-40843D01*
X90625Y-40881D01*
X90653Y-40919D01*
X90682Y-40995D01*
X90682Y-41224D01*
X90653Y-41300D01*
X90625Y-41338D01*
X90568Y-41376D01*
X90482Y-41376D01*
X91196Y-41338D02*
X91139Y-41376D01*
X91025Y-41376D01*
X90968Y-41338D01*
X90939Y-41300D01*
X90911Y-41224D01*
X90911Y-40995D01*
X90939Y-40919D01*
X90968Y-40881D01*
X91025Y-40843D01*
X91139Y-40843D01*
X91196Y-40881D01*
X91682Y-41338D02*
X91625Y-41376D01*
X91511Y-41376D01*
X91453Y-41338D01*
X91425Y-41262D01*
X91425Y-40957D01*
X91453Y-40881D01*
X91511Y-40843D01*
X91625Y-40843D01*
X91682Y-40881D01*
X91711Y-40957D01*
X91711Y-41034D01*
X91425Y-41110D01*
X91939Y-41338D02*
X91996Y-41376D01*
X92111Y-41376D01*
X92168Y-41338D01*
X92196Y-41262D01*
X92196Y-41224D01*
X92168Y-41148D01*
X92111Y-41110D01*
X92025Y-41110D01*
X91968Y-41072D01*
X91939Y-40995D01*
X91939Y-40957D01*
X91968Y-40881D01*
X92025Y-40843D01*
X92111Y-40843D01*
X92168Y-40881D01*
X92425Y-41338D02*
X92482Y-41376D01*
X92596Y-41376D01*
X92653Y-41338D01*
X92682Y-41262D01*
X92682Y-41224D01*
X92653Y-41148D01*
X92596Y-41110D01*
X92511Y-41110D01*
X92453Y-41072D01*
X92425Y-40995D01*
X92425Y-40957D01*
X92453Y-40881D01*
X92511Y-40843D01*
X92596Y-40843D01*
X92653Y-40881D01*
X92939Y-41300D02*
X92968Y-41338D01*
X92939Y-41376D01*
X92911Y-41338D01*
X92939Y-41300D01*
X92939Y-41376D01*
X64976Y-40135D02*
X64690Y-40135D01*
X64690Y-39335D01*
X65176Y-40135D02*
X65176Y-39602D01*
X65176Y-39335D02*
X65148Y-39374D01*
X65176Y-39412D01*
X65205Y-39374D01*
X65176Y-39335D01*
X65176Y-39412D01*
X65719Y-39602D02*
X65719Y-40402D01*
X65719Y-40097D02*
X65662Y-40135D01*
X65548Y-40135D01*
X65490Y-40097D01*
X65462Y-40059D01*
X65433Y-39983D01*
X65433Y-39754D01*
X65462Y-39678D01*
X65490Y-39640D01*
X65548Y-39602D01*
X65662Y-39602D01*
X65719Y-39640D01*
X66262Y-39602D02*
X66262Y-40135D01*
X66005Y-39602D02*
X66005Y-40021D01*
X66033Y-40097D01*
X66090Y-40135D01*
X66176Y-40135D01*
X66233Y-40097D01*
X66262Y-40059D01*
X66548Y-40135D02*
X66548Y-39602D01*
X66548Y-39335D02*
X66519Y-39374D01*
X66548Y-39412D01*
X66576Y-39374D01*
X66548Y-39335D01*
X66548Y-39412D01*
X67090Y-40135D02*
X67090Y-39335D01*
X67090Y-40097D02*
X67033Y-40135D01*
X66919Y-40135D01*
X66862Y-40097D01*
X66833Y-40059D01*
X66805Y-39983D01*
X66805Y-39754D01*
X66833Y-39678D01*
X66862Y-39640D01*
X66919Y-39602D01*
X67033Y-39602D01*
X67090Y-39640D01*
X67833Y-39602D02*
X67833Y-40402D01*
X67833Y-39640D02*
X67890Y-39602D01*
X68005Y-39602D01*
X68062Y-39640D01*
X68090Y-39678D01*
X68119Y-39754D01*
X68119Y-39983D01*
X68090Y-40059D01*
X68062Y-40097D01*
X68005Y-40135D01*
X67890Y-40135D01*
X67833Y-40097D01*
X68376Y-40135D02*
X68376Y-39335D01*
X68633Y-40135D02*
X68633Y-39716D01*
X68605Y-39640D01*
X68548Y-39602D01*
X68462Y-39602D01*
X68405Y-39640D01*
X68376Y-39678D01*
X69005Y-40135D02*
X68948Y-40097D01*
X68919Y-40059D01*
X68890Y-39983D01*
X68890Y-39754D01*
X68919Y-39678D01*
X68948Y-39640D01*
X69005Y-39602D01*
X69090Y-39602D01*
X69148Y-39640D01*
X69176Y-39678D01*
X69205Y-39754D01*
X69205Y-39983D01*
X69176Y-40059D01*
X69148Y-40097D01*
X69090Y-40135D01*
X69005Y-40135D01*
X69376Y-39602D02*
X69605Y-39602D01*
X69462Y-39335D02*
X69462Y-40021D01*
X69490Y-40097D01*
X69547Y-40135D01*
X69605Y-40135D01*
X69890Y-40135D02*
X69833Y-40097D01*
X69805Y-40059D01*
X69776Y-39983D01*
X69776Y-39754D01*
X69805Y-39678D01*
X69833Y-39640D01*
X69890Y-39602D01*
X69976Y-39602D01*
X70033Y-39640D01*
X70062Y-39678D01*
X70090Y-39754D01*
X70090Y-39983D01*
X70062Y-40059D01*
X70033Y-40097D01*
X69976Y-40135D01*
X69890Y-40135D01*
X70805Y-40135D02*
X70805Y-39602D01*
X70805Y-39335D02*
X70776Y-39374D01*
X70805Y-39412D01*
X70833Y-39374D01*
X70805Y-39335D01*
X70805Y-39412D01*
X71090Y-40135D02*
X71090Y-39602D01*
X71090Y-39678D02*
X71119Y-39640D01*
X71176Y-39602D01*
X71262Y-39602D01*
X71319Y-39640D01*
X71347Y-39716D01*
X71347Y-40135D01*
X71347Y-39716D02*
X71376Y-39640D01*
X71433Y-39602D01*
X71519Y-39602D01*
X71576Y-39640D01*
X71605Y-39716D01*
X71605Y-40135D01*
X72147Y-40135D02*
X72147Y-39716D01*
X72119Y-39640D01*
X72062Y-39602D01*
X71947Y-39602D01*
X71890Y-39640D01*
X72147Y-40097D02*
X72090Y-40135D01*
X71947Y-40135D01*
X71890Y-40097D01*
X71862Y-40021D01*
X71862Y-39945D01*
X71890Y-39869D01*
X71947Y-39831D01*
X72090Y-39831D01*
X72147Y-39793D01*
X72690Y-39602D02*
X72690Y-40250D01*
X72662Y-40326D01*
X72633Y-40364D01*
X72576Y-40402D01*
X72490Y-40402D01*
X72433Y-40364D01*
X72690Y-40097D02*
X72633Y-40135D01*
X72519Y-40135D01*
X72462Y-40097D01*
X72433Y-40059D01*
X72405Y-39983D01*
X72405Y-39754D01*
X72433Y-39678D01*
X72462Y-39640D01*
X72519Y-39602D01*
X72633Y-39602D01*
X72690Y-39640D01*
X73205Y-40097D02*
X73147Y-40135D01*
X73033Y-40135D01*
X72976Y-40097D01*
X72947Y-40021D01*
X72947Y-39716D01*
X72976Y-39640D01*
X73033Y-39602D01*
X73147Y-39602D01*
X73205Y-39640D01*
X73233Y-39716D01*
X73233Y-39793D01*
X72947Y-39869D01*
X73747Y-40135D02*
X73747Y-39716D01*
X73719Y-39640D01*
X73662Y-39602D01*
X73547Y-39602D01*
X73490Y-39640D01*
X73747Y-40097D02*
X73690Y-40135D01*
X73547Y-40135D01*
X73490Y-40097D01*
X73462Y-40021D01*
X73462Y-39945D01*
X73490Y-39869D01*
X73547Y-39831D01*
X73690Y-39831D01*
X73747Y-39793D01*
X74033Y-40135D02*
X74033Y-39335D01*
X74033Y-39640D02*
X74090Y-39602D01*
X74205Y-39602D01*
X74262Y-39640D01*
X74290Y-39678D01*
X74319Y-39754D01*
X74319Y-39983D01*
X74290Y-40059D01*
X74262Y-40097D01*
X74205Y-40135D01*
X74090Y-40135D01*
X74033Y-40097D01*
X74662Y-40135D02*
X74605Y-40097D01*
X74576Y-40021D01*
X74576Y-39335D01*
X75119Y-40097D02*
X75062Y-40135D01*
X74947Y-40135D01*
X74890Y-40097D01*
X74862Y-40021D01*
X74862Y-39716D01*
X74890Y-39640D01*
X74947Y-39602D01*
X75062Y-39602D01*
X75119Y-39640D01*
X75147Y-39716D01*
X75147Y-39793D01*
X74862Y-39869D01*
X75833Y-40097D02*
X75890Y-40135D01*
X76005Y-40135D01*
X76062Y-40097D01*
X76090Y-40021D01*
X76090Y-39983D01*
X76062Y-39907D01*
X76005Y-39869D01*
X75919Y-39869D01*
X75862Y-39831D01*
X75833Y-39754D01*
X75833Y-39716D01*
X75862Y-39640D01*
X75919Y-39602D01*
X76005Y-39602D01*
X76062Y-39640D01*
X76433Y-40135D02*
X76376Y-40097D01*
X76347Y-40059D01*
X76319Y-39983D01*
X76319Y-39754D01*
X76347Y-39678D01*
X76376Y-39640D01*
X76433Y-39602D01*
X76519Y-39602D01*
X76576Y-39640D01*
X76605Y-39678D01*
X76633Y-39754D01*
X76633Y-39983D01*
X76605Y-40059D01*
X76576Y-40097D01*
X76519Y-40135D01*
X76433Y-40135D01*
X76976Y-40135D02*
X76919Y-40097D01*
X76890Y-40021D01*
X76890Y-39335D01*
X77462Y-40135D02*
X77462Y-39335D01*
X77462Y-40097D02*
X77405Y-40135D01*
X77290Y-40135D01*
X77233Y-40097D01*
X77205Y-40059D01*
X77176Y-39983D01*
X77176Y-39754D01*
X77205Y-39678D01*
X77233Y-39640D01*
X77290Y-39602D01*
X77405Y-39602D01*
X77462Y-39640D01*
X77976Y-40097D02*
X77919Y-40135D01*
X77805Y-40135D01*
X77747Y-40097D01*
X77719Y-40021D01*
X77719Y-39716D01*
X77747Y-39640D01*
X77805Y-39602D01*
X77919Y-39602D01*
X77976Y-39640D01*
X78005Y-39716D01*
X78005Y-39793D01*
X77719Y-39869D01*
X78262Y-40135D02*
X78262Y-39602D01*
X78262Y-39754D02*
X78290Y-39678D01*
X78319Y-39640D01*
X78376Y-39602D01*
X78433Y-39602D01*
X78633Y-40135D02*
X78633Y-39602D01*
X78633Y-39678D02*
X78662Y-39640D01*
X78719Y-39602D01*
X78805Y-39602D01*
X78862Y-39640D01*
X78890Y-39716D01*
X78890Y-40135D01*
X78890Y-39716D02*
X78919Y-39640D01*
X78976Y-39602D01*
X79062Y-39602D01*
X79119Y-39640D01*
X79148Y-39716D01*
X79148Y-40135D01*
X79690Y-40135D02*
X79690Y-39716D01*
X79662Y-39640D01*
X79605Y-39602D01*
X79490Y-39602D01*
X79433Y-39640D01*
X79690Y-40097D02*
X79633Y-40135D01*
X79490Y-40135D01*
X79433Y-40097D01*
X79405Y-40021D01*
X79405Y-39945D01*
X79433Y-39869D01*
X79490Y-39831D01*
X79633Y-39831D01*
X79690Y-39793D01*
X79948Y-40097D02*
X80005Y-40135D01*
X80119Y-40135D01*
X80176Y-40097D01*
X80205Y-40021D01*
X80205Y-39983D01*
X80176Y-39907D01*
X80119Y-39869D01*
X80033Y-39869D01*
X79976Y-39831D01*
X79948Y-39754D01*
X79948Y-39716D01*
X79976Y-39640D01*
X80033Y-39602D01*
X80119Y-39602D01*
X80176Y-39640D01*
X80462Y-40135D02*
X80462Y-39335D01*
X80519Y-39831D02*
X80690Y-40135D01*
X80690Y-39602D02*
X80462Y-39907D01*
X81119Y-40440D02*
X81090Y-40402D01*
X81033Y-40288D01*
X81005Y-40212D01*
X80976Y-40097D01*
X80947Y-39907D01*
X80947Y-39754D01*
X80976Y-39564D01*
X81005Y-39450D01*
X81033Y-39374D01*
X81090Y-39259D01*
X81119Y-39221D01*
X81347Y-40135D02*
X81347Y-39335D01*
X81347Y-39640D02*
X81405Y-39602D01*
X81519Y-39602D01*
X81576Y-39640D01*
X81605Y-39678D01*
X81633Y-39754D01*
X81633Y-39983D01*
X81605Y-40059D01*
X81576Y-40097D01*
X81519Y-40135D01*
X81405Y-40135D01*
X81347Y-40097D01*
X81976Y-40135D02*
X81919Y-40097D01*
X81890Y-40021D01*
X81890Y-39335D01*
X82462Y-39602D02*
X82462Y-40135D01*
X82205Y-39602D02*
X82205Y-40021D01*
X82233Y-40097D01*
X82290Y-40135D01*
X82376Y-40135D01*
X82433Y-40097D01*
X82462Y-40059D01*
X82976Y-40097D02*
X82919Y-40135D01*
X82805Y-40135D01*
X82747Y-40097D01*
X82719Y-40021D01*
X82719Y-39716D01*
X82747Y-39640D01*
X82805Y-39602D01*
X82919Y-39602D01*
X82976Y-39640D01*
X83005Y-39716D01*
X83005Y-39793D01*
X82719Y-39869D01*
X83205Y-40440D02*
X83233Y-40402D01*
X83290Y-40288D01*
X83319Y-40212D01*
X83347Y-40097D01*
X83376Y-39907D01*
X83376Y-39754D01*
X83347Y-39564D01*
X83319Y-39450D01*
X83290Y-39374D01*
X83233Y-39259D01*
X83205Y-39221D01*
X83662Y-40059D02*
X83690Y-40097D01*
X83662Y-40135D01*
X83633Y-40097D01*
X83662Y-40059D01*
X83662Y-40135D01*
X84405Y-40135D02*
X84405Y-39335D01*
X84633Y-39335D01*
X84690Y-39374D01*
X84719Y-39412D01*
X84747Y-39488D01*
X84747Y-39602D01*
X84719Y-39678D01*
X84690Y-39716D01*
X84633Y-39754D01*
X84405Y-39754D01*
X85262Y-40135D02*
X85262Y-39716D01*
X85233Y-39640D01*
X85176Y-39602D01*
X85062Y-39602D01*
X85005Y-39640D01*
X85262Y-40097D02*
X85205Y-40135D01*
X85062Y-40135D01*
X85005Y-40097D01*
X84976Y-40021D01*
X84976Y-39945D01*
X85005Y-39869D01*
X85062Y-39831D01*
X85205Y-39831D01*
X85262Y-39793D01*
X85805Y-40135D02*
X85805Y-39335D01*
X85805Y-40097D02*
X85747Y-40135D01*
X85633Y-40135D01*
X85576Y-40097D01*
X85547Y-40059D01*
X85519Y-39983D01*
X85519Y-39754D01*
X85547Y-39678D01*
X85576Y-39640D01*
X85633Y-39602D01*
X85747Y-39602D01*
X85805Y-39640D01*
X86062Y-40097D02*
X86119Y-40135D01*
X86233Y-40135D01*
X86290Y-40097D01*
X86319Y-40021D01*
X86319Y-39983D01*
X86290Y-39907D01*
X86233Y-39869D01*
X86147Y-39869D01*
X86090Y-39831D01*
X86062Y-39754D01*
X86062Y-39716D01*
X86090Y-39640D01*
X86147Y-39602D01*
X86233Y-39602D01*
X86290Y-39640D01*
X87033Y-40135D02*
X87033Y-39335D01*
X87290Y-40135D02*
X87290Y-39716D01*
X87262Y-39640D01*
X87205Y-39602D01*
X87119Y-39602D01*
X87062Y-39640D01*
X87033Y-39678D01*
X87833Y-40135D02*
X87833Y-39716D01*
X87805Y-39640D01*
X87747Y-39602D01*
X87633Y-39602D01*
X87576Y-39640D01*
X87833Y-40097D02*
X87776Y-40135D01*
X87633Y-40135D01*
X87576Y-40097D01*
X87547Y-40021D01*
X87547Y-39945D01*
X87576Y-39869D01*
X87633Y-39831D01*
X87776Y-39831D01*
X87833Y-39793D01*
X88062Y-39602D02*
X88205Y-40135D01*
X88347Y-39602D01*
X88805Y-40097D02*
X88747Y-40135D01*
X88633Y-40135D01*
X88576Y-40097D01*
X88547Y-40021D01*
X88547Y-39716D01*
X88576Y-39640D01*
X88633Y-39602D01*
X88747Y-39602D01*
X88805Y-39640D01*
X88833Y-39716D01*
X88833Y-39793D01*
X88547Y-39869D01*
X89547Y-39602D02*
X89547Y-40135D01*
X89547Y-39678D02*
X89576Y-39640D01*
X89633Y-39602D01*
X89719Y-39602D01*
X89776Y-39640D01*
X89805Y-39716D01*
X89805Y-40135D01*
X90176Y-40135D02*
X90119Y-40097D01*
X90090Y-40059D01*
X90062Y-39983D01*
X90062Y-39754D01*
X90090Y-39678D01*
X90119Y-39640D01*
X90176Y-39602D01*
X90262Y-39602D01*
X90319Y-39640D01*
X90347Y-39678D01*
X90376Y-39754D01*
X90376Y-39983D01*
X90347Y-40059D01*
X90319Y-40097D01*
X90262Y-40135D01*
X90176Y-40135D01*
X90547Y-39602D02*
X90776Y-39602D01*
X90633Y-39335D02*
X90633Y-40021D01*
X90662Y-40097D01*
X90719Y-40135D01*
X90776Y-40135D01*
X91433Y-40135D02*
X91433Y-39335D01*
X91433Y-39640D02*
X91490Y-39602D01*
X91605Y-39602D01*
X91662Y-39640D01*
X91690Y-39678D01*
X91719Y-39754D01*
X91719Y-39983D01*
X91690Y-40059D01*
X91662Y-40097D01*
X91605Y-40135D01*
X91490Y-40135D01*
X91433Y-40097D01*
X92205Y-40097D02*
X92147Y-40135D01*
X92033Y-40135D01*
X91976Y-40097D01*
X91947Y-40021D01*
X91947Y-39716D01*
X91976Y-39640D01*
X92033Y-39602D01*
X92147Y-39602D01*
X92205Y-39640D01*
X92233Y-39716D01*
X92233Y-39793D01*
X91947Y-39869D01*
X92719Y-40097D02*
X92662Y-40135D01*
X92547Y-40135D01*
X92490Y-40097D01*
X92462Y-40021D01*
X92462Y-39716D01*
X92490Y-39640D01*
X92547Y-39602D01*
X92662Y-39602D01*
X92719Y-39640D01*
X92747Y-39716D01*
X92747Y-39793D01*
X92462Y-39869D01*
X93005Y-39602D02*
X93005Y-40135D01*
X93005Y-39678D02*
X93033Y-39640D01*
X93090Y-39602D01*
X93176Y-39602D01*
X93233Y-39640D01*
X93262Y-39716D01*
X93262Y-40135D01*
X94090Y-40135D02*
X94033Y-40097D01*
X94005Y-40059D01*
X93976Y-39983D01*
X93976Y-39754D01*
X94005Y-39678D01*
X94033Y-39640D01*
X94090Y-39602D01*
X94176Y-39602D01*
X94233Y-39640D01*
X94262Y-39678D01*
X94290Y-39754D01*
X94290Y-39983D01*
X94262Y-40059D01*
X94233Y-40097D01*
X94176Y-40135D01*
X94090Y-40135D01*
X94490Y-39602D02*
X94633Y-40135D01*
X94776Y-39602D01*
X95233Y-40097D02*
X95176Y-40135D01*
X95062Y-40135D01*
X95005Y-40097D01*
X94976Y-40021D01*
X94976Y-39716D01*
X95005Y-39640D01*
X95062Y-39602D01*
X95176Y-39602D01*
X95233Y-39640D01*
X95262Y-39716D01*
X95262Y-39793D01*
X94976Y-39869D01*
X95519Y-40135D02*
X95519Y-39602D01*
X95519Y-39754D02*
X95548Y-39678D01*
X95576Y-39640D01*
X95633Y-39602D01*
X95690Y-39602D01*
X95862Y-40097D02*
X95919Y-40135D01*
X96033Y-40135D01*
X96090Y-40097D01*
X96119Y-40021D01*
X96119Y-39983D01*
X96090Y-39907D01*
X96033Y-39869D01*
X95948Y-39869D01*
X95890Y-39831D01*
X95862Y-39754D01*
X95862Y-39716D01*
X95890Y-39640D01*
X95948Y-39602D01*
X96033Y-39602D01*
X96090Y-39640D01*
X96376Y-40135D02*
X96376Y-39602D01*
X96376Y-39335D02*
X96348Y-39374D01*
X96376Y-39412D01*
X96405Y-39374D01*
X96376Y-39335D01*
X96376Y-39412D01*
X96605Y-39602D02*
X96919Y-39602D01*
X96605Y-40135D01*
X96919Y-40135D01*
X97376Y-40097D02*
X97319Y-40135D01*
X97205Y-40135D01*
X97147Y-40097D01*
X97119Y-40021D01*
X97119Y-39716D01*
X97147Y-39640D01*
X97205Y-39602D01*
X97319Y-39602D01*
X97376Y-39640D01*
X97405Y-39716D01*
X97405Y-39793D01*
X97119Y-39869D01*
X97919Y-40135D02*
X97919Y-39335D01*
X97919Y-40097D02*
X97862Y-40135D01*
X97747Y-40135D01*
X97690Y-40097D01*
X97662Y-40059D01*
X97633Y-39983D01*
X97633Y-39754D01*
X97662Y-39678D01*
X97690Y-39640D01*
X97747Y-39602D01*
X97862Y-39602D01*
X97919Y-39640D01*
X98205Y-40059D02*
X98233Y-40097D01*
X98205Y-40135D01*
X98176Y-40097D01*
X98205Y-40059D01*
X98205Y-40135D01*
X65305Y-34303D02*
X65105Y-34303D01*
X65105Y-34722D02*
X65105Y-33922D01*
X65391Y-33922D01*
X65619Y-34722D02*
X65619Y-34189D01*
X65619Y-33922D02*
X65591Y-33961D01*
X65619Y-33999D01*
X65648Y-33961D01*
X65619Y-33922D01*
X65619Y-33999D01*
X65905Y-34189D02*
X65905Y-34722D01*
X65905Y-34265D02*
X65933Y-34227D01*
X65991Y-34189D01*
X66076Y-34189D01*
X66133Y-34227D01*
X66162Y-34303D01*
X66162Y-34722D01*
X66448Y-34722D02*
X66448Y-34189D01*
X66448Y-33922D02*
X66419Y-33961D01*
X66448Y-33999D01*
X66476Y-33961D01*
X66448Y-33922D01*
X66448Y-33999D01*
X66705Y-34684D02*
X66762Y-34722D01*
X66876Y-34722D01*
X66933Y-34684D01*
X66962Y-34608D01*
X66962Y-34570D01*
X66933Y-34494D01*
X66876Y-34456D01*
X66791Y-34456D01*
X66733Y-34418D01*
X66705Y-34341D01*
X66705Y-34303D01*
X66733Y-34227D01*
X66791Y-34189D01*
X66876Y-34189D01*
X66933Y-34227D01*
X67219Y-34722D02*
X67219Y-33922D01*
X67476Y-34722D02*
X67476Y-34303D01*
X67448Y-34227D01*
X67391Y-34189D01*
X67305Y-34189D01*
X67248Y-34227D01*
X67219Y-34265D01*
X64205Y-35658D02*
X64662Y-35658D01*
X64948Y-35658D02*
X65405Y-35658D01*
X65691Y-35658D02*
X66148Y-35658D01*
X66433Y-35658D02*
X66891Y-35658D01*
X67176Y-35658D02*
X67633Y-35658D01*
X67919Y-35658D02*
X68376Y-35658D01*
X62991Y-38214D02*
X63276Y-38214D01*
X62933Y-38442D02*
X63133Y-37642D01*
X63333Y-38442D01*
X63533Y-38366D02*
X63562Y-38404D01*
X63533Y-38442D01*
X63505Y-38404D01*
X63533Y-38366D01*
X63533Y-38442D01*
X63762Y-38747D02*
X63791Y-38709D01*
X63848Y-38595D01*
X63876Y-38519D01*
X63905Y-38404D01*
X63933Y-38214D01*
X63933Y-38061D01*
X63905Y-37871D01*
X63876Y-37757D01*
X63848Y-37681D01*
X63791Y-37566D01*
X63762Y-37528D01*
X64648Y-38404D02*
X64733Y-38442D01*
X64876Y-38442D01*
X64933Y-38404D01*
X64962Y-38366D01*
X64991Y-38290D01*
X64991Y-38214D01*
X64962Y-38138D01*
X64933Y-38100D01*
X64876Y-38061D01*
X64762Y-38023D01*
X64705Y-37985D01*
X64676Y-37947D01*
X64648Y-37871D01*
X64648Y-37795D01*
X64676Y-37719D01*
X64705Y-37681D01*
X64762Y-37642D01*
X64905Y-37642D01*
X64991Y-37681D01*
X65333Y-38442D02*
X65276Y-38404D01*
X65248Y-38366D01*
X65219Y-38290D01*
X65219Y-38061D01*
X65248Y-37985D01*
X65276Y-37947D01*
X65333Y-37909D01*
X65419Y-37909D01*
X65476Y-37947D01*
X65505Y-37985D01*
X65533Y-38061D01*
X65533Y-38290D01*
X65505Y-38366D01*
X65476Y-38404D01*
X65419Y-38442D01*
X65333Y-38442D01*
X65876Y-38442D02*
X65819Y-38404D01*
X65791Y-38328D01*
X65791Y-37642D01*
X66362Y-38442D02*
X66362Y-37642D01*
X66362Y-38404D02*
X66305Y-38442D01*
X66191Y-38442D01*
X66133Y-38404D01*
X66105Y-38366D01*
X66076Y-38290D01*
X66076Y-38061D01*
X66105Y-37985D01*
X66133Y-37947D01*
X66191Y-37909D01*
X66305Y-37909D01*
X66362Y-37947D01*
X66876Y-38404D02*
X66819Y-38442D01*
X66705Y-38442D01*
X66648Y-38404D01*
X66619Y-38328D01*
X66619Y-38023D01*
X66648Y-37947D01*
X66705Y-37909D01*
X66819Y-37909D01*
X66876Y-37947D01*
X66905Y-38023D01*
X66905Y-38100D01*
X66619Y-38176D01*
X67162Y-38442D02*
X67162Y-37909D01*
X67162Y-38061D02*
X67191Y-37985D01*
X67219Y-37947D01*
X67276Y-37909D01*
X67333Y-37909D01*
X67533Y-38442D02*
X67533Y-37909D01*
X67533Y-37985D02*
X67562Y-37947D01*
X67619Y-37909D01*
X67705Y-37909D01*
X67762Y-37947D01*
X67791Y-38023D01*
X67791Y-38442D01*
X67791Y-38023D02*
X67819Y-37947D01*
X67876Y-37909D01*
X67962Y-37909D01*
X68019Y-37947D01*
X68048Y-38023D01*
X68048Y-38442D01*
X68591Y-38442D02*
X68591Y-38023D01*
X68562Y-37947D01*
X68505Y-37909D01*
X68391Y-37909D01*
X68333Y-37947D01*
X68591Y-38404D02*
X68533Y-38442D01*
X68391Y-38442D01*
X68333Y-38404D01*
X68305Y-38328D01*
X68305Y-38252D01*
X68333Y-38176D01*
X68391Y-38138D01*
X68533Y-38138D01*
X68591Y-38100D01*
X68848Y-38404D02*
X68905Y-38442D01*
X69019Y-38442D01*
X69076Y-38404D01*
X69105Y-38328D01*
X69105Y-38290D01*
X69076Y-38214D01*
X69019Y-38176D01*
X68933Y-38176D01*
X68876Y-38138D01*
X68848Y-38061D01*
X68848Y-38023D01*
X68876Y-37947D01*
X68933Y-37909D01*
X69019Y-37909D01*
X69076Y-37947D01*
X69362Y-38442D02*
X69362Y-37642D01*
X69419Y-38138D02*
X69591Y-38442D01*
X69591Y-37909D02*
X69362Y-38214D01*
X62334Y-31458D02*
X62134Y-31458D01*
X62134Y-31877D02*
X62134Y-31077D01*
X62420Y-31077D01*
X62649Y-31877D02*
X62649Y-31344D01*
X62649Y-31077D02*
X62620Y-31116D01*
X62649Y-31154D01*
X62677Y-31116D01*
X62649Y-31077D01*
X62649Y-31154D01*
X62934Y-31344D02*
X62934Y-31877D01*
X62934Y-31420D02*
X62963Y-31382D01*
X63020Y-31344D01*
X63106Y-31344D01*
X63163Y-31382D01*
X63192Y-31458D01*
X63192Y-31877D01*
X63477Y-31877D02*
X63477Y-31344D01*
X63477Y-31077D02*
X63449Y-31116D01*
X63477Y-31154D01*
X63506Y-31116D01*
X63477Y-31077D01*
X63477Y-31154D01*
X63734Y-31839D02*
X63792Y-31877D01*
X63906Y-31877D01*
X63963Y-31839D01*
X63992Y-31763D01*
X63992Y-31725D01*
X63963Y-31649D01*
X63906Y-31611D01*
X63820Y-31611D01*
X63763Y-31573D01*
X63734Y-31496D01*
X63734Y-31458D01*
X63763Y-31382D01*
X63820Y-31344D01*
X63906Y-31344D01*
X63963Y-31382D01*
X64249Y-31877D02*
X64249Y-31077D01*
X64506Y-31877D02*
X64506Y-31458D01*
X64477Y-31382D01*
X64420Y-31344D01*
X64334Y-31344D01*
X64277Y-31382D01*
X64249Y-31420D01*
X65020Y-31839D02*
X64963Y-31877D01*
X64849Y-31877D01*
X64791Y-31839D01*
X64763Y-31763D01*
X64763Y-31458D01*
X64791Y-31382D01*
X64849Y-31344D01*
X64963Y-31344D01*
X65020Y-31382D01*
X65049Y-31458D01*
X65049Y-31535D01*
X64763Y-31611D01*
X65563Y-31877D02*
X65563Y-31077D01*
X65563Y-31839D02*
X65506Y-31877D01*
X65391Y-31877D01*
X65334Y-31839D01*
X65306Y-31801D01*
X65277Y-31725D01*
X65277Y-31496D01*
X65306Y-31420D01*
X65334Y-31382D01*
X65391Y-31344D01*
X65506Y-31344D01*
X65563Y-31382D01*
X66506Y-31458D02*
X66591Y-31496D01*
X66620Y-31535D01*
X66649Y-31611D01*
X66649Y-31725D01*
X66620Y-31801D01*
X66591Y-31839D01*
X66534Y-31877D01*
X66306Y-31877D01*
X66306Y-31077D01*
X66506Y-31077D01*
X66563Y-31116D01*
X66591Y-31154D01*
X66620Y-31230D01*
X66620Y-31306D01*
X66591Y-31382D01*
X66563Y-31420D01*
X66506Y-31458D01*
X66306Y-31458D01*
X66991Y-31877D02*
X66934Y-31839D01*
X66906Y-31801D01*
X66877Y-31725D01*
X66877Y-31496D01*
X66906Y-31420D01*
X66934Y-31382D01*
X66991Y-31344D01*
X67077Y-31344D01*
X67134Y-31382D01*
X67163Y-31420D01*
X67191Y-31496D01*
X67191Y-31725D01*
X67163Y-31801D01*
X67134Y-31839D01*
X67077Y-31877D01*
X66991Y-31877D01*
X67706Y-31877D02*
X67706Y-31458D01*
X67677Y-31382D01*
X67620Y-31344D01*
X67506Y-31344D01*
X67449Y-31382D01*
X67706Y-31839D02*
X67649Y-31877D01*
X67506Y-31877D01*
X67449Y-31839D01*
X67420Y-31763D01*
X67420Y-31687D01*
X67449Y-31611D01*
X67506Y-31573D01*
X67649Y-31573D01*
X67706Y-31535D01*
X67991Y-31877D02*
X67991Y-31344D01*
X67991Y-31496D02*
X68020Y-31420D01*
X68049Y-31382D01*
X68106Y-31344D01*
X68163Y-31344D01*
X68620Y-31877D02*
X68620Y-31077D01*
X68620Y-31839D02*
X68563Y-31877D01*
X68449Y-31877D01*
X68392Y-31839D01*
X68363Y-31801D01*
X68334Y-31725D01*
X68334Y-31496D01*
X68363Y-31420D01*
X68392Y-31382D01*
X68449Y-31344D01*
X68563Y-31344D01*
X68620Y-31382D01*
X69277Y-31344D02*
X69506Y-31344D01*
X69363Y-31077D02*
X69363Y-31763D01*
X69392Y-31839D01*
X69449Y-31877D01*
X69506Y-31877D01*
X69706Y-31877D02*
X69706Y-31077D01*
X69963Y-31877D02*
X69963Y-31458D01*
X69934Y-31382D01*
X69877Y-31344D01*
X69791Y-31344D01*
X69734Y-31382D01*
X69706Y-31420D01*
X70249Y-31877D02*
X70249Y-31344D01*
X70249Y-31077D02*
X70220Y-31116D01*
X70249Y-31154D01*
X70277Y-31116D01*
X70249Y-31077D01*
X70249Y-31154D01*
X70791Y-31839D02*
X70734Y-31877D01*
X70620Y-31877D01*
X70563Y-31839D01*
X70534Y-31801D01*
X70506Y-31725D01*
X70506Y-31496D01*
X70534Y-31420D01*
X70563Y-31382D01*
X70620Y-31344D01*
X70734Y-31344D01*
X70791Y-31382D01*
X71049Y-31877D02*
X71049Y-31077D01*
X71106Y-31573D02*
X71277Y-31877D01*
X71277Y-31344D02*
X71049Y-31649D01*
X71534Y-31344D02*
X71534Y-31877D01*
X71534Y-31420D02*
X71563Y-31382D01*
X71620Y-31344D01*
X71706Y-31344D01*
X71763Y-31382D01*
X71791Y-31458D01*
X71791Y-31877D01*
X72306Y-31839D02*
X72249Y-31877D01*
X72134Y-31877D01*
X72077Y-31839D01*
X72049Y-31763D01*
X72049Y-31458D01*
X72077Y-31382D01*
X72134Y-31344D01*
X72249Y-31344D01*
X72306Y-31382D01*
X72334Y-31458D01*
X72334Y-31535D01*
X72049Y-31611D01*
X72563Y-31839D02*
X72620Y-31877D01*
X72734Y-31877D01*
X72791Y-31839D01*
X72820Y-31763D01*
X72820Y-31725D01*
X72791Y-31649D01*
X72734Y-31611D01*
X72649Y-31611D01*
X72591Y-31573D01*
X72563Y-31496D01*
X72563Y-31458D01*
X72591Y-31382D01*
X72649Y-31344D01*
X72734Y-31344D01*
X72791Y-31382D01*
X73049Y-31839D02*
X73106Y-31877D01*
X73220Y-31877D01*
X73277Y-31839D01*
X73306Y-31763D01*
X73306Y-31725D01*
X73277Y-31649D01*
X73220Y-31611D01*
X73134Y-31611D01*
X73077Y-31573D01*
X73049Y-31496D01*
X73049Y-31458D01*
X73077Y-31382D01*
X73134Y-31344D01*
X73220Y-31344D01*
X73277Y-31382D01*
X74020Y-31573D02*
X74477Y-31573D01*
X75534Y-31877D02*
X75191Y-31877D01*
X75363Y-31877D02*
X75363Y-31077D01*
X75306Y-31192D01*
X75249Y-31268D01*
X75191Y-31306D01*
X75791Y-31801D02*
X75820Y-31839D01*
X75791Y-31877D01*
X75763Y-31839D01*
X75791Y-31801D01*
X75791Y-31877D01*
X76334Y-31077D02*
X76220Y-31077D01*
X76163Y-31116D01*
X76134Y-31154D01*
X76077Y-31268D01*
X76049Y-31420D01*
X76049Y-31725D01*
X76077Y-31801D01*
X76106Y-31839D01*
X76163Y-31877D01*
X76277Y-31877D01*
X76334Y-31839D01*
X76363Y-31801D01*
X76391Y-31725D01*
X76391Y-31535D01*
X76363Y-31458D01*
X76334Y-31420D01*
X76277Y-31382D01*
X76163Y-31382D01*
X76106Y-31420D01*
X76077Y-31458D01*
X76049Y-31535D01*
X76649Y-31877D02*
X76649Y-31344D01*
X76649Y-31420D02*
X76677Y-31382D01*
X76734Y-31344D01*
X76820Y-31344D01*
X76877Y-31382D01*
X76906Y-31458D01*
X76906Y-31877D01*
X76906Y-31458D02*
X76934Y-31382D01*
X76991Y-31344D01*
X77077Y-31344D01*
X77134Y-31382D01*
X77163Y-31458D01*
X77163Y-31877D01*
X77449Y-31877D02*
X77449Y-31344D01*
X77449Y-31420D02*
X77477Y-31382D01*
X77534Y-31344D01*
X77620Y-31344D01*
X77677Y-31382D01*
X77706Y-31458D01*
X77706Y-31877D01*
X77706Y-31458D02*
X77734Y-31382D01*
X77791Y-31344D01*
X77877Y-31344D01*
X77934Y-31382D01*
X77963Y-31458D01*
X77963Y-31877D01*
X78706Y-31420D02*
X79163Y-31420D01*
X78934Y-31725D02*
X78934Y-31116D01*
X79163Y-31877D02*
X78706Y-31877D01*
X80020Y-31077D02*
X80077Y-31077D01*
X80134Y-31116D01*
X80163Y-31154D01*
X80191Y-31230D01*
X80220Y-31382D01*
X80220Y-31573D01*
X80191Y-31725D01*
X80163Y-31801D01*
X80134Y-31839D01*
X80077Y-31877D01*
X80020Y-31877D01*
X79963Y-31839D01*
X79934Y-31801D01*
X79906Y-31725D01*
X79877Y-31573D01*
X79877Y-31382D01*
X79906Y-31230D01*
X79934Y-31154D01*
X79963Y-31116D01*
X80020Y-31077D01*
X80477Y-31801D02*
X80506Y-31839D01*
X80477Y-31877D01*
X80449Y-31839D01*
X80477Y-31801D01*
X80477Y-31877D01*
X81077Y-31877D02*
X80734Y-31877D01*
X80906Y-31877D02*
X80906Y-31077D01*
X80849Y-31192D01*
X80792Y-31268D01*
X80734Y-31306D01*
X81334Y-31877D02*
X81334Y-31344D01*
X81334Y-31420D02*
X81363Y-31382D01*
X81420Y-31344D01*
X81506Y-31344D01*
X81563Y-31382D01*
X81592Y-31458D01*
X81592Y-31877D01*
X81592Y-31458D02*
X81620Y-31382D01*
X81677Y-31344D01*
X81763Y-31344D01*
X81820Y-31382D01*
X81849Y-31458D01*
X81849Y-31877D01*
X82134Y-31877D02*
X82134Y-31344D01*
X82134Y-31420D02*
X82163Y-31382D01*
X82220Y-31344D01*
X82306Y-31344D01*
X82363Y-31382D01*
X82392Y-31458D01*
X82392Y-31877D01*
X82392Y-31458D02*
X82420Y-31382D01*
X82477Y-31344D01*
X82563Y-31344D01*
X82620Y-31382D01*
X82649Y-31458D01*
X82649Y-31877D01*
X94834Y-20079D02*
X94805Y-20117D01*
X94719Y-20155D01*
X94662Y-20155D01*
X94577Y-20117D01*
X94519Y-20041D01*
X94491Y-19965D01*
X94462Y-19813D01*
X94462Y-19698D01*
X94491Y-19546D01*
X94519Y-19470D01*
X94577Y-19394D01*
X94662Y-19355D01*
X94719Y-19355D01*
X94805Y-19394D01*
X94834Y-19432D01*
X95177Y-20155D02*
X95119Y-20117D01*
X95091Y-20079D01*
X95062Y-20003D01*
X95062Y-19774D01*
X95091Y-19698D01*
X95119Y-19660D01*
X95177Y-19622D01*
X95262Y-19622D01*
X95319Y-19660D01*
X95348Y-19698D01*
X95377Y-19774D01*
X95377Y-20003D01*
X95348Y-20079D01*
X95319Y-20117D01*
X95262Y-20155D01*
X95177Y-20155D01*
X95634Y-19622D02*
X95634Y-20422D01*
X95634Y-19660D02*
X95691Y-19622D01*
X95805Y-19622D01*
X95862Y-19660D01*
X95891Y-19698D01*
X95919Y-19774D01*
X95919Y-20003D01*
X95891Y-20079D01*
X95862Y-20117D01*
X95805Y-20155D01*
X95691Y-20155D01*
X95634Y-20117D01*
X96177Y-19622D02*
X96177Y-20422D01*
X96177Y-19660D02*
X96234Y-19622D01*
X96348Y-19622D01*
X96405Y-19660D01*
X96434Y-19698D01*
X96462Y-19774D01*
X96462Y-20003D01*
X96434Y-20079D01*
X96405Y-20117D01*
X96348Y-20155D01*
X96234Y-20155D01*
X96177Y-20117D01*
X96948Y-20117D02*
X96891Y-20155D01*
X96777Y-20155D01*
X96719Y-20117D01*
X96691Y-20041D01*
X96691Y-19736D01*
X96719Y-19660D01*
X96777Y-19622D01*
X96891Y-19622D01*
X96948Y-19660D01*
X96977Y-19736D01*
X96977Y-19813D01*
X96691Y-19889D01*
X97234Y-20155D02*
X97234Y-19622D01*
X97234Y-19774D02*
X97262Y-19698D01*
X97291Y-19660D01*
X97348Y-19622D01*
X97405Y-19622D01*
X98005Y-19355D02*
X98148Y-20155D01*
X98262Y-19584D01*
X98377Y-20155D01*
X98519Y-19355D01*
X98977Y-20117D02*
X98919Y-20155D01*
X98805Y-20155D01*
X98748Y-20117D01*
X98719Y-20041D01*
X98719Y-19736D01*
X98748Y-19660D01*
X98805Y-19622D01*
X98919Y-19622D01*
X98977Y-19660D01*
X99005Y-19736D01*
X99005Y-19813D01*
X98719Y-19889D01*
X99262Y-20155D02*
X99262Y-19622D01*
X99262Y-19355D02*
X99234Y-19394D01*
X99262Y-19432D01*
X99291Y-19394D01*
X99262Y-19355D01*
X99262Y-19432D01*
X99805Y-19622D02*
X99805Y-20270D01*
X99777Y-20346D01*
X99748Y-20384D01*
X99691Y-20422D01*
X99605Y-20422D01*
X99548Y-20384D01*
X99805Y-20117D02*
X99748Y-20155D01*
X99634Y-20155D01*
X99577Y-20117D01*
X99548Y-20079D01*
X99519Y-20003D01*
X99519Y-19774D01*
X99548Y-19698D01*
X99577Y-19660D01*
X99634Y-19622D01*
X99748Y-19622D01*
X99805Y-19660D01*
X100091Y-20155D02*
X100091Y-19355D01*
X100348Y-20155D02*
X100348Y-19736D01*
X100319Y-19660D01*
X100262Y-19622D01*
X100177Y-19622D01*
X100119Y-19660D01*
X100091Y-19698D01*
X100548Y-19622D02*
X100777Y-19622D01*
X100634Y-19355D02*
X100634Y-20041D01*
X100662Y-20117D01*
X100719Y-20155D01*
X100777Y-20155D01*
X101605Y-20460D02*
X101577Y-20422D01*
X101519Y-20308D01*
X101491Y-20232D01*
X101462Y-20117D01*
X101434Y-19927D01*
X101434Y-19774D01*
X101462Y-19584D01*
X101491Y-19470D01*
X101519Y-19394D01*
X101577Y-19279D01*
X101605Y-19241D01*
X101834Y-20155D02*
X101834Y-19355D01*
X102062Y-19355D01*
X102119Y-19394D01*
X102148Y-19432D01*
X102177Y-19508D01*
X102177Y-19622D01*
X102148Y-19698D01*
X102119Y-19736D01*
X102062Y-19774D01*
X101834Y-19774D01*
X102434Y-20155D02*
X102434Y-19622D01*
X102434Y-19774D02*
X102462Y-19698D01*
X102491Y-19660D01*
X102548Y-19622D01*
X102605Y-19622D01*
X103034Y-20117D02*
X102977Y-20155D01*
X102862Y-20155D01*
X102805Y-20117D01*
X102777Y-20041D01*
X102777Y-19736D01*
X102805Y-19660D01*
X102862Y-19622D01*
X102977Y-19622D01*
X103034Y-19660D01*
X103062Y-19736D01*
X103062Y-19813D01*
X102777Y-19889D01*
X103777Y-20155D02*
X103777Y-19355D01*
X104005Y-19355D01*
X104062Y-19394D01*
X104091Y-19432D01*
X104119Y-19508D01*
X104119Y-19622D01*
X104091Y-19698D01*
X104062Y-19736D01*
X104005Y-19774D01*
X103777Y-19774D01*
X104462Y-20155D02*
X104405Y-20117D01*
X104377Y-20041D01*
X104377Y-19355D01*
X104948Y-20155D02*
X104948Y-19736D01*
X104919Y-19660D01*
X104862Y-19622D01*
X104748Y-19622D01*
X104691Y-19660D01*
X104948Y-20117D02*
X104891Y-20155D01*
X104748Y-20155D01*
X104691Y-20117D01*
X104662Y-20041D01*
X104662Y-19965D01*
X104691Y-19889D01*
X104748Y-19851D01*
X104891Y-19851D01*
X104948Y-19813D01*
X105148Y-19622D02*
X105377Y-19622D01*
X105234Y-19355D02*
X105234Y-20041D01*
X105262Y-20117D01*
X105319Y-20155D01*
X105377Y-20155D01*
X105577Y-20155D02*
X105577Y-19622D01*
X105577Y-19355D02*
X105548Y-19394D01*
X105577Y-19432D01*
X105605Y-19394D01*
X105577Y-19355D01*
X105577Y-19432D01*
X105862Y-19622D02*
X105862Y-20155D01*
X105862Y-19698D02*
X105891Y-19660D01*
X105948Y-19622D01*
X106034Y-19622D01*
X106091Y-19660D01*
X106119Y-19736D01*
X106119Y-20155D01*
X106662Y-19622D02*
X106662Y-20270D01*
X106634Y-20346D01*
X106605Y-20384D01*
X106548Y-20422D01*
X106462Y-20422D01*
X106405Y-20384D01*
X106662Y-20117D02*
X106605Y-20155D01*
X106491Y-20155D01*
X106434Y-20117D01*
X106405Y-20079D01*
X106377Y-20003D01*
X106377Y-19774D01*
X106405Y-19698D01*
X106434Y-19660D01*
X106491Y-19622D01*
X106605Y-19622D01*
X106662Y-19660D01*
X106891Y-20460D02*
X106919Y-20422D01*
X106977Y-20308D01*
X107005Y-20232D01*
X107034Y-20117D01*
X107062Y-19927D01*
X107062Y-19774D01*
X107034Y-19584D01*
X107005Y-19470D01*
X106977Y-19394D01*
X106919Y-19279D01*
X106891Y-19241D01*
X99805Y-21835D02*
X99862Y-21835D01*
X99919Y-21874D01*
X99948Y-21912D01*
X99977Y-21988D01*
X100005Y-22140D01*
X100005Y-22331D01*
X99977Y-22483D01*
X99948Y-22559D01*
X99919Y-22597D01*
X99862Y-22635D01*
X99805Y-22635D01*
X99748Y-22597D01*
X99719Y-22559D01*
X99691Y-22483D01*
X99662Y-22331D01*
X99662Y-22140D01*
X99691Y-21988D01*
X99719Y-21912D01*
X99748Y-21874D01*
X99805Y-21835D01*
X100262Y-22559D02*
X100291Y-22597D01*
X100262Y-22635D01*
X100234Y-22597D01*
X100262Y-22559D01*
X100262Y-22635D01*
X100834Y-21835D02*
X100548Y-21835D01*
X100519Y-22216D01*
X100548Y-22178D01*
X100605Y-22140D01*
X100748Y-22140D01*
X100805Y-22178D01*
X100834Y-22216D01*
X100862Y-22293D01*
X100862Y-22483D01*
X100834Y-22559D01*
X100805Y-22597D01*
X100748Y-22635D01*
X100605Y-22635D01*
X100548Y-22597D01*
X100519Y-22559D01*
X101205Y-22635D02*
X101148Y-22597D01*
X101119Y-22559D01*
X101091Y-22483D01*
X101091Y-22254D01*
X101119Y-22178D01*
X101148Y-22140D01*
X101205Y-22102D01*
X101291Y-22102D01*
X101348Y-22140D01*
X101377Y-22178D01*
X101405Y-22254D01*
X101405Y-22483D01*
X101377Y-22559D01*
X101348Y-22597D01*
X101291Y-22635D01*
X101205Y-22635D01*
X101605Y-22102D02*
X101919Y-22102D01*
X101605Y-22635D01*
X101919Y-22635D01*
X100005Y-23875D02*
X99662Y-23875D01*
X99834Y-23875D02*
X99834Y-23075D01*
X99777Y-23190D01*
X99719Y-23266D01*
X99662Y-23304D01*
X100262Y-23799D02*
X100291Y-23837D01*
X100262Y-23875D01*
X100234Y-23837D01*
X100262Y-23799D01*
X100262Y-23875D01*
X100662Y-23075D02*
X100719Y-23075D01*
X100777Y-23114D01*
X100805Y-23152D01*
X100834Y-23228D01*
X100862Y-23380D01*
X100862Y-23571D01*
X100834Y-23723D01*
X100805Y-23799D01*
X100777Y-23837D01*
X100719Y-23875D01*
X100662Y-23875D01*
X100605Y-23837D01*
X100577Y-23799D01*
X100548Y-23723D01*
X100519Y-23571D01*
X100519Y-23380D01*
X100548Y-23228D01*
X100577Y-23152D01*
X100605Y-23114D01*
X100662Y-23075D01*
X101205Y-23875D02*
X101148Y-23837D01*
X101119Y-23799D01*
X101091Y-23723D01*
X101091Y-23494D01*
X101119Y-23418D01*
X101148Y-23380D01*
X101205Y-23342D01*
X101291Y-23342D01*
X101348Y-23380D01*
X101377Y-23418D01*
X101405Y-23494D01*
X101405Y-23723D01*
X101377Y-23799D01*
X101348Y-23837D01*
X101291Y-23875D01*
X101205Y-23875D01*
X101605Y-23342D02*
X101919Y-23342D01*
X101605Y-23875D01*
X101919Y-23875D01*
X100005Y-25115D02*
X99662Y-25115D01*
X99834Y-25115D02*
X99834Y-24315D01*
X99777Y-24430D01*
X99719Y-24506D01*
X99662Y-24544D01*
X100262Y-25039D02*
X100291Y-25077D01*
X100262Y-25115D01*
X100234Y-25077D01*
X100262Y-25039D01*
X100262Y-25115D01*
X100662Y-24315D02*
X100719Y-24315D01*
X100777Y-24354D01*
X100805Y-24392D01*
X100834Y-24468D01*
X100862Y-24620D01*
X100862Y-24811D01*
X100834Y-24963D01*
X100805Y-25039D01*
X100777Y-25077D01*
X100719Y-25115D01*
X100662Y-25115D01*
X100605Y-25077D01*
X100577Y-25039D01*
X100548Y-24963D01*
X100519Y-24811D01*
X100519Y-24620D01*
X100548Y-24468D01*
X100577Y-24392D01*
X100605Y-24354D01*
X100662Y-24315D01*
X101205Y-25115D02*
X101148Y-25077D01*
X101119Y-25039D01*
X101091Y-24963D01*
X101091Y-24734D01*
X101119Y-24658D01*
X101148Y-24620D01*
X101205Y-24582D01*
X101291Y-24582D01*
X101348Y-24620D01*
X101377Y-24658D01*
X101405Y-24734D01*
X101405Y-24963D01*
X101377Y-25039D01*
X101348Y-25077D01*
X101291Y-25115D01*
X101205Y-25115D01*
X101605Y-24582D02*
X101919Y-24582D01*
X101605Y-25115D01*
X101919Y-25115D01*
X99805Y-25555D02*
X99862Y-25555D01*
X99919Y-25594D01*
X99948Y-25632D01*
X99977Y-25708D01*
X100005Y-25860D01*
X100005Y-26051D01*
X99977Y-26203D01*
X99948Y-26279D01*
X99919Y-26317D01*
X99862Y-26355D01*
X99805Y-26355D01*
X99748Y-26317D01*
X99719Y-26279D01*
X99691Y-26203D01*
X99662Y-26051D01*
X99662Y-25860D01*
X99691Y-25708D01*
X99719Y-25632D01*
X99748Y-25594D01*
X99805Y-25555D01*
X100262Y-26279D02*
X100291Y-26317D01*
X100262Y-26355D01*
X100234Y-26317D01*
X100262Y-26279D01*
X100262Y-26355D01*
X100834Y-25555D02*
X100548Y-25555D01*
X100519Y-25936D01*
X100548Y-25898D01*
X100605Y-25860D01*
X100748Y-25860D01*
X100805Y-25898D01*
X100834Y-25936D01*
X100862Y-26013D01*
X100862Y-26203D01*
X100834Y-26279D01*
X100805Y-26317D01*
X100748Y-26355D01*
X100605Y-26355D01*
X100548Y-26317D01*
X100519Y-26279D01*
X101205Y-26355D02*
X101148Y-26317D01*
X101119Y-26279D01*
X101091Y-26203D01*
X101091Y-25974D01*
X101119Y-25898D01*
X101148Y-25860D01*
X101205Y-25822D01*
X101291Y-25822D01*
X101348Y-25860D01*
X101377Y-25898D01*
X101405Y-25974D01*
X101405Y-26203D01*
X101377Y-26279D01*
X101348Y-26317D01*
X101291Y-26355D01*
X101205Y-26355D01*
X101605Y-25822D02*
X101919Y-25822D01*
X101605Y-26355D01*
X101919Y-26355D01*
X88573Y-20106D02*
X88288Y-20106D01*
X88288Y-19306D01*
X89031Y-20106D02*
X89031Y-19687D01*
X89002Y-19611D01*
X88945Y-19573D01*
X88831Y-19573D01*
X88773Y-19611D01*
X89031Y-20068D02*
X88973Y-20106D01*
X88831Y-20106D01*
X88773Y-20068D01*
X88745Y-19992D01*
X88745Y-19916D01*
X88773Y-19840D01*
X88831Y-19802D01*
X88973Y-19802D01*
X89031Y-19764D01*
X89259Y-19573D02*
X89402Y-20106D01*
X89545Y-19573D02*
X89402Y-20106D01*
X89345Y-20297D01*
X89316Y-20335D01*
X89259Y-20373D01*
X90002Y-20068D02*
X89945Y-20106D01*
X89831Y-20106D01*
X89773Y-20068D01*
X89745Y-19992D01*
X89745Y-19687D01*
X89773Y-19611D01*
X89831Y-19573D01*
X89945Y-19573D01*
X90002Y-19611D01*
X90031Y-19687D01*
X90031Y-19764D01*
X89745Y-19840D01*
X90288Y-20106D02*
X90288Y-19573D01*
X90288Y-19725D02*
X90316Y-19649D01*
X90345Y-19611D01*
X90402Y-19573D01*
X90459Y-19573D01*
X86373Y-22586D02*
X86088Y-22586D01*
X86088Y-21786D01*
X86830Y-22586D02*
X86830Y-22167D01*
X86802Y-22091D01*
X86745Y-22053D01*
X86630Y-22053D01*
X86573Y-22091D01*
X86830Y-22548D02*
X86773Y-22586D01*
X86630Y-22586D01*
X86573Y-22548D01*
X86545Y-22472D01*
X86545Y-22396D01*
X86573Y-22320D01*
X86630Y-22282D01*
X86773Y-22282D01*
X86830Y-22244D01*
X87059Y-22053D02*
X87202Y-22586D01*
X87345Y-22053D02*
X87202Y-22586D01*
X87145Y-22777D01*
X87116Y-22815D01*
X87059Y-22853D01*
X87802Y-22548D02*
X87745Y-22586D01*
X87630Y-22586D01*
X87573Y-22548D01*
X87545Y-22472D01*
X87545Y-22167D01*
X87573Y-22091D01*
X87630Y-22053D01*
X87745Y-22053D01*
X87802Y-22091D01*
X87830Y-22167D01*
X87830Y-22244D01*
X87545Y-22320D01*
X88088Y-22586D02*
X88088Y-22053D01*
X88088Y-22205D02*
X88116Y-22129D01*
X88145Y-22091D01*
X88202Y-22053D01*
X88259Y-22053D01*
X89031Y-21786D02*
X89088Y-21786D01*
X89145Y-21825D01*
X89173Y-21863D01*
X89202Y-21939D01*
X89231Y-22091D01*
X89231Y-22282D01*
X89202Y-22434D01*
X89173Y-22510D01*
X89145Y-22548D01*
X89088Y-22586D01*
X89031Y-22586D01*
X88973Y-22548D01*
X88945Y-22510D01*
X88916Y-22434D01*
X88888Y-22282D01*
X88888Y-22091D01*
X88916Y-21939D01*
X88945Y-21863D01*
X88973Y-21825D01*
X89031Y-21786D01*
X89802Y-22586D02*
X89459Y-22586D01*
X89631Y-22586D02*
X89631Y-21786D01*
X89573Y-21901D01*
X89516Y-21977D01*
X89459Y-22015D01*
X90688Y-22891D02*
X90659Y-22853D01*
X90602Y-22739D01*
X90573Y-22663D01*
X90545Y-22548D01*
X90516Y-22358D01*
X90516Y-22205D01*
X90545Y-22015D01*
X90573Y-21901D01*
X90602Y-21825D01*
X90659Y-21710D01*
X90688Y-21672D01*
X90831Y-21786D02*
X91173Y-21786D01*
X91002Y-22586D02*
X91002Y-21786D01*
X91459Y-22586D02*
X91402Y-22548D01*
X91373Y-22510D01*
X91345Y-22434D01*
X91345Y-22205D01*
X91373Y-22129D01*
X91402Y-22091D01*
X91459Y-22053D01*
X91545Y-22053D01*
X91602Y-22091D01*
X91631Y-22129D01*
X91659Y-22205D01*
X91659Y-22434D01*
X91631Y-22510D01*
X91602Y-22548D01*
X91545Y-22586D01*
X91459Y-22586D01*
X91916Y-22053D02*
X91916Y-22853D01*
X91916Y-22091D02*
X91973Y-22053D01*
X92088Y-22053D01*
X92145Y-22091D01*
X92173Y-22129D01*
X92202Y-22205D01*
X92202Y-22434D01*
X92173Y-22510D01*
X92145Y-22548D01*
X92088Y-22586D01*
X91973Y-22586D01*
X91916Y-22548D01*
X92402Y-22891D02*
X92431Y-22853D01*
X92488Y-22739D01*
X92516Y-22663D01*
X92545Y-22548D01*
X92573Y-22358D01*
X92573Y-22205D01*
X92545Y-22015D01*
X92516Y-21901D01*
X92488Y-21825D01*
X92431Y-21710D01*
X92402Y-21672D01*
X86302Y-23826D02*
X86016Y-23826D01*
X86016Y-23026D01*
X86759Y-23826D02*
X86759Y-23407D01*
X86731Y-23331D01*
X86673Y-23293D01*
X86559Y-23293D01*
X86502Y-23331D01*
X86759Y-23788D02*
X86702Y-23826D01*
X86559Y-23826D01*
X86502Y-23788D01*
X86473Y-23712D01*
X86473Y-23636D01*
X86502Y-23560D01*
X86559Y-23522D01*
X86702Y-23522D01*
X86759Y-23484D01*
X86988Y-23293D02*
X87130Y-23826D01*
X87273Y-23293D02*
X87130Y-23826D01*
X87073Y-24017D01*
X87045Y-24055D01*
X86988Y-24093D01*
X87731Y-23788D02*
X87673Y-23826D01*
X87559Y-23826D01*
X87502Y-23788D01*
X87473Y-23712D01*
X87473Y-23407D01*
X87502Y-23331D01*
X87559Y-23293D01*
X87673Y-23293D01*
X87731Y-23331D01*
X87759Y-23407D01*
X87759Y-23484D01*
X87473Y-23560D01*
X88016Y-23826D02*
X88016Y-23293D01*
X88016Y-23445D02*
X88045Y-23369D01*
X88073Y-23331D01*
X88131Y-23293D01*
X88188Y-23293D01*
X88959Y-23026D02*
X89016Y-23026D01*
X89073Y-23065D01*
X89102Y-23103D01*
X89131Y-23179D01*
X89159Y-23331D01*
X89159Y-23522D01*
X89131Y-23674D01*
X89102Y-23750D01*
X89073Y-23788D01*
X89016Y-23826D01*
X88959Y-23826D01*
X88902Y-23788D01*
X88873Y-23750D01*
X88845Y-23674D01*
X88816Y-23522D01*
X88816Y-23331D01*
X88845Y-23179D01*
X88873Y-23103D01*
X88902Y-23065D01*
X88959Y-23026D01*
X89388Y-23103D02*
X89416Y-23065D01*
X89473Y-23026D01*
X89616Y-23026D01*
X89673Y-23065D01*
X89702Y-23103D01*
X89731Y-23179D01*
X89731Y-23255D01*
X89702Y-23369D01*
X89359Y-23826D01*
X89731Y-23826D01*
X90616Y-24131D02*
X90588Y-24093D01*
X90531Y-23979D01*
X90502Y-23903D01*
X90473Y-23788D01*
X90445Y-23598D01*
X90445Y-23445D01*
X90473Y-23255D01*
X90502Y-23141D01*
X90531Y-23065D01*
X90588Y-22950D01*
X90616Y-22912D01*
X91159Y-23065D02*
X91102Y-23026D01*
X91016Y-23026D01*
X90931Y-23065D01*
X90873Y-23141D01*
X90845Y-23217D01*
X90816Y-23369D01*
X90816Y-23484D01*
X90845Y-23636D01*
X90873Y-23712D01*
X90931Y-23788D01*
X91016Y-23826D01*
X91073Y-23826D01*
X91159Y-23788D01*
X91188Y-23750D01*
X91188Y-23484D01*
X91073Y-23484D01*
X91445Y-23293D02*
X91445Y-23826D01*
X91445Y-23369D02*
X91473Y-23331D01*
X91531Y-23293D01*
X91616Y-23293D01*
X91673Y-23331D01*
X91702Y-23407D01*
X91702Y-23826D01*
X92245Y-23826D02*
X92245Y-23026D01*
X92245Y-23788D02*
X92188Y-23826D01*
X92073Y-23826D01*
X92016Y-23788D01*
X91988Y-23750D01*
X91959Y-23674D01*
X91959Y-23445D01*
X91988Y-23369D01*
X92016Y-23331D01*
X92073Y-23293D01*
X92188Y-23293D01*
X92245Y-23331D01*
X92473Y-24131D02*
X92502Y-24093D01*
X92559Y-23979D01*
X92588Y-23903D01*
X92616Y-23788D01*
X92645Y-23598D01*
X92645Y-23445D01*
X92616Y-23255D01*
X92588Y-23141D01*
X92559Y-23065D01*
X92502Y-22950D01*
X92473Y-22912D01*
X86345Y-25066D02*
X86059Y-25066D01*
X86059Y-24266D01*
X86802Y-25066D02*
X86802Y-24647D01*
X86773Y-24571D01*
X86716Y-24533D01*
X86602Y-24533D01*
X86545Y-24571D01*
X86802Y-25028D02*
X86745Y-25066D01*
X86602Y-25066D01*
X86545Y-25028D01*
X86516Y-24952D01*
X86516Y-24876D01*
X86545Y-24800D01*
X86602Y-24762D01*
X86745Y-24762D01*
X86802Y-24724D01*
X87030Y-24533D02*
X87173Y-25066D01*
X87316Y-24533D02*
X87173Y-25066D01*
X87116Y-25257D01*
X87088Y-25295D01*
X87030Y-25333D01*
X87773Y-25028D02*
X87716Y-25066D01*
X87602Y-25066D01*
X87545Y-25028D01*
X87516Y-24952D01*
X87516Y-24647D01*
X87545Y-24571D01*
X87602Y-24533D01*
X87716Y-24533D01*
X87773Y-24571D01*
X87802Y-24647D01*
X87802Y-24724D01*
X87516Y-24800D01*
X88059Y-25066D02*
X88059Y-24533D01*
X88059Y-24685D02*
X88088Y-24609D01*
X88116Y-24571D01*
X88173Y-24533D01*
X88231Y-24533D01*
X89002Y-24266D02*
X89059Y-24266D01*
X89116Y-24305D01*
X89145Y-24343D01*
X89173Y-24419D01*
X89202Y-24571D01*
X89202Y-24762D01*
X89173Y-24914D01*
X89145Y-24990D01*
X89116Y-25028D01*
X89059Y-25066D01*
X89002Y-25066D01*
X88945Y-25028D01*
X88916Y-24990D01*
X88888Y-24914D01*
X88859Y-24762D01*
X88859Y-24571D01*
X88888Y-24419D01*
X88916Y-24343D01*
X88945Y-24305D01*
X89002Y-24266D01*
X89402Y-24266D02*
X89773Y-24266D01*
X89573Y-24571D01*
X89659Y-24571D01*
X89716Y-24609D01*
X89745Y-24647D01*
X89773Y-24724D01*
X89773Y-24914D01*
X89745Y-24990D01*
X89716Y-25028D01*
X89659Y-25066D01*
X89488Y-25066D01*
X89431Y-25028D01*
X89402Y-24990D01*
X90659Y-25371D02*
X90631Y-25333D01*
X90573Y-25219D01*
X90545Y-25143D01*
X90516Y-25028D01*
X90488Y-24838D01*
X90488Y-24685D01*
X90516Y-24495D01*
X90545Y-24381D01*
X90573Y-24305D01*
X90631Y-24190D01*
X90659Y-24152D01*
X90888Y-25066D02*
X90888Y-24266D01*
X91116Y-24266D01*
X91173Y-24305D01*
X91202Y-24343D01*
X91231Y-24419D01*
X91231Y-24533D01*
X91202Y-24609D01*
X91173Y-24647D01*
X91116Y-24685D01*
X90888Y-24685D01*
X91431Y-24533D02*
X91545Y-25066D01*
X91659Y-24685D01*
X91773Y-25066D01*
X91888Y-24533D01*
X92116Y-25066D02*
X92116Y-24533D01*
X92116Y-24685D02*
X92145Y-24609D01*
X92173Y-24571D01*
X92231Y-24533D01*
X92288Y-24533D01*
X92431Y-25371D02*
X92459Y-25333D01*
X92516Y-25219D01*
X92545Y-25143D01*
X92573Y-25028D01*
X92602Y-24838D01*
X92602Y-24685D01*
X92573Y-24495D01*
X92545Y-24381D01*
X92516Y-24305D01*
X92459Y-24190D01*
X92431Y-24152D01*
X86402Y-26306D02*
X86116Y-26306D01*
X86116Y-25506D01*
X86859Y-26306D02*
X86859Y-25887D01*
X86831Y-25811D01*
X86773Y-25773D01*
X86659Y-25773D01*
X86602Y-25811D01*
X86859Y-26268D02*
X86802Y-26306D01*
X86659Y-26306D01*
X86602Y-26268D01*
X86573Y-26192D01*
X86573Y-26116D01*
X86602Y-26040D01*
X86659Y-26002D01*
X86802Y-26002D01*
X86859Y-25964D01*
X87088Y-25773D02*
X87230Y-26306D01*
X87373Y-25773D02*
X87230Y-26306D01*
X87173Y-26497D01*
X87145Y-26535D01*
X87088Y-26573D01*
X87831Y-26268D02*
X87773Y-26306D01*
X87659Y-26306D01*
X87602Y-26268D01*
X87573Y-26192D01*
X87573Y-25887D01*
X87602Y-25811D01*
X87659Y-25773D01*
X87773Y-25773D01*
X87831Y-25811D01*
X87859Y-25887D01*
X87859Y-25964D01*
X87573Y-26040D01*
X88116Y-26306D02*
X88116Y-25773D01*
X88116Y-25925D02*
X88145Y-25849D01*
X88173Y-25811D01*
X88231Y-25773D01*
X88288Y-25773D01*
X89059Y-25506D02*
X89116Y-25506D01*
X89173Y-25545D01*
X89202Y-25583D01*
X89231Y-25659D01*
X89259Y-25811D01*
X89259Y-26002D01*
X89231Y-26154D01*
X89202Y-26230D01*
X89173Y-26268D01*
X89116Y-26306D01*
X89059Y-26306D01*
X89002Y-26268D01*
X88973Y-26230D01*
X88945Y-26154D01*
X88916Y-26002D01*
X88916Y-25811D01*
X88945Y-25659D01*
X88973Y-25583D01*
X89002Y-25545D01*
X89059Y-25506D01*
X89773Y-25773D02*
X89773Y-26306D01*
X89631Y-25468D02*
X89488Y-26040D01*
X89859Y-26040D01*
X90716Y-26611D02*
X90688Y-26573D01*
X90631Y-26459D01*
X90602Y-26383D01*
X90573Y-26268D01*
X90545Y-26078D01*
X90545Y-25925D01*
X90573Y-25735D01*
X90602Y-25621D01*
X90631Y-25545D01*
X90688Y-25430D01*
X90716Y-25392D01*
X91145Y-25887D02*
X91231Y-25925D01*
X91259Y-25964D01*
X91288Y-26040D01*
X91288Y-26154D01*
X91259Y-26230D01*
X91231Y-26268D01*
X91173Y-26306D01*
X90945Y-26306D01*
X90945Y-25506D01*
X91145Y-25506D01*
X91202Y-25545D01*
X91231Y-25583D01*
X91259Y-25659D01*
X91259Y-25735D01*
X91231Y-25811D01*
X91202Y-25849D01*
X91145Y-25887D01*
X90945Y-25887D01*
X91631Y-26306D02*
X91573Y-26268D01*
X91545Y-26230D01*
X91516Y-26154D01*
X91516Y-25925D01*
X91545Y-25849D01*
X91573Y-25811D01*
X91631Y-25773D01*
X91716Y-25773D01*
X91773Y-25811D01*
X91802Y-25849D01*
X91831Y-25925D01*
X91831Y-26154D01*
X91802Y-26230D01*
X91773Y-26268D01*
X91716Y-26306D01*
X91631Y-26306D01*
X92002Y-25773D02*
X92231Y-25773D01*
X92088Y-25506D02*
X92088Y-26192D01*
X92116Y-26268D01*
X92173Y-26306D01*
X92231Y-26306D01*
X92373Y-26611D02*
X92402Y-26573D01*
X92459Y-26459D01*
X92488Y-26383D01*
X92516Y-26268D01*
X92545Y-26078D01*
X92545Y-25925D01*
X92516Y-25735D01*
X92488Y-25621D01*
X92459Y-25545D01*
X92402Y-25430D01*
X92373Y-25392D01*
X87322Y-16504D02*
X87407Y-16542D01*
X87550Y-16542D01*
X87607Y-16504D01*
X87636Y-16466D01*
X87664Y-16390D01*
X87664Y-16314D01*
X87636Y-16238D01*
X87607Y-16200D01*
X87550Y-16161D01*
X87436Y-16123D01*
X87379Y-16085D01*
X87350Y-16047D01*
X87322Y-15971D01*
X87322Y-15895D01*
X87350Y-15819D01*
X87379Y-15781D01*
X87436Y-15742D01*
X87579Y-15742D01*
X87664Y-15781D01*
X87836Y-16009D02*
X88064Y-16009D01*
X87922Y-15742D02*
X87922Y-16428D01*
X87950Y-16504D01*
X88007Y-16542D01*
X88064Y-16542D01*
X88522Y-16542D02*
X88522Y-16123D01*
X88493Y-16047D01*
X88436Y-16009D01*
X88322Y-16009D01*
X88264Y-16047D01*
X88522Y-16504D02*
X88464Y-16542D01*
X88322Y-16542D01*
X88264Y-16504D01*
X88236Y-16428D01*
X88236Y-16352D01*
X88264Y-16276D01*
X88322Y-16238D01*
X88464Y-16238D01*
X88522Y-16200D01*
X89064Y-16504D02*
X89007Y-16542D01*
X88893Y-16542D01*
X88836Y-16504D01*
X88807Y-16466D01*
X88779Y-16390D01*
X88779Y-16161D01*
X88807Y-16085D01*
X88836Y-16047D01*
X88893Y-16009D01*
X89007Y-16009D01*
X89064Y-16047D01*
X89322Y-16542D02*
X89322Y-15742D01*
X89379Y-16238D02*
X89550Y-16542D01*
X89550Y-16009D02*
X89322Y-16314D01*
X90064Y-16009D02*
X90064Y-16542D01*
X89807Y-16009D02*
X89807Y-16428D01*
X89836Y-16504D01*
X89893Y-16542D01*
X89979Y-16542D01*
X90036Y-16504D01*
X90064Y-16466D01*
X90350Y-16009D02*
X90350Y-16809D01*
X90350Y-16047D02*
X90407Y-16009D01*
X90522Y-16009D01*
X90579Y-16047D01*
X90607Y-16085D01*
X90636Y-16161D01*
X90636Y-16390D01*
X90607Y-16466D01*
X90579Y-16504D01*
X90522Y-16542D01*
X90407Y-16542D01*
X90350Y-16504D01*
X91350Y-16542D02*
X91350Y-16009D01*
X91350Y-15742D02*
X91322Y-15781D01*
X91350Y-15819D01*
X91379Y-15781D01*
X91350Y-15742D01*
X91350Y-15819D01*
X91607Y-16504D02*
X91664Y-16542D01*
X91779Y-16542D01*
X91836Y-16504D01*
X91864Y-16428D01*
X91864Y-16390D01*
X91836Y-16314D01*
X91779Y-16276D01*
X91693Y-16276D01*
X91636Y-16238D01*
X91607Y-16161D01*
X91607Y-16123D01*
X91636Y-16047D01*
X91693Y-16009D01*
X91779Y-16009D01*
X91836Y-16047D01*
X92493Y-16009D02*
X92722Y-16009D01*
X92579Y-15742D02*
X92579Y-16428D01*
X92607Y-16504D01*
X92664Y-16542D01*
X92722Y-16542D01*
X93007Y-16542D02*
X92950Y-16504D01*
X92922Y-16466D01*
X92893Y-16390D01*
X92893Y-16161D01*
X92922Y-16085D01*
X92950Y-16047D01*
X93007Y-16009D01*
X93093Y-16009D01*
X93150Y-16047D01*
X93179Y-16085D01*
X93207Y-16161D01*
X93207Y-16390D01*
X93179Y-16466D01*
X93150Y-16504D01*
X93093Y-16542D01*
X93007Y-16542D01*
X93922Y-16542D02*
X93922Y-15742D01*
X93922Y-16047D02*
X93979Y-16009D01*
X94093Y-16009D01*
X94150Y-16047D01*
X94179Y-16085D01*
X94207Y-16161D01*
X94207Y-16390D01*
X94179Y-16466D01*
X94150Y-16504D01*
X94093Y-16542D01*
X93979Y-16542D01*
X93922Y-16504D01*
X94693Y-16504D02*
X94636Y-16542D01*
X94522Y-16542D01*
X94464Y-16504D01*
X94436Y-16428D01*
X94436Y-16123D01*
X94464Y-16047D01*
X94522Y-16009D01*
X94636Y-16009D01*
X94693Y-16047D01*
X94722Y-16123D01*
X94722Y-16200D01*
X94436Y-16276D01*
X95693Y-16542D02*
X95693Y-16123D01*
X95664Y-16047D01*
X95607Y-16009D01*
X95493Y-16009D01*
X95436Y-16047D01*
X95693Y-16504D02*
X95636Y-16542D01*
X95493Y-16542D01*
X95436Y-16504D01*
X95407Y-16428D01*
X95407Y-16352D01*
X95436Y-16276D01*
X95493Y-16238D01*
X95636Y-16238D01*
X95693Y-16200D01*
X95950Y-16504D02*
X96007Y-16542D01*
X96122Y-16542D01*
X96179Y-16504D01*
X96207Y-16428D01*
X96207Y-16390D01*
X96179Y-16314D01*
X96122Y-16276D01*
X96036Y-16276D01*
X95979Y-16238D01*
X95950Y-16161D01*
X95950Y-16123D01*
X95979Y-16047D01*
X96036Y-16009D01*
X96122Y-16009D01*
X96179Y-16047D01*
X96836Y-16009D02*
X97064Y-16009D01*
X96922Y-16542D02*
X96922Y-15857D01*
X96950Y-15781D01*
X97007Y-15742D01*
X97064Y-15742D01*
X97350Y-16542D02*
X97293Y-16504D01*
X97264Y-16466D01*
X97236Y-16390D01*
X97236Y-16161D01*
X97264Y-16085D01*
X97293Y-16047D01*
X97350Y-16009D01*
X97436Y-16009D01*
X97493Y-16047D01*
X97522Y-16085D01*
X97550Y-16161D01*
X97550Y-16390D01*
X97522Y-16466D01*
X97493Y-16504D01*
X97436Y-16542D01*
X97350Y-16542D01*
X97893Y-16542D02*
X97836Y-16504D01*
X97807Y-16428D01*
X97807Y-15742D01*
X98207Y-16542D02*
X98150Y-16504D01*
X98122Y-16428D01*
X98122Y-15742D01*
X98522Y-16542D02*
X98464Y-16504D01*
X98436Y-16466D01*
X98407Y-16390D01*
X98407Y-16161D01*
X98436Y-16085D01*
X98464Y-16047D01*
X98522Y-16009D01*
X98607Y-16009D01*
X98664Y-16047D01*
X98693Y-16085D01*
X98722Y-16161D01*
X98722Y-16390D01*
X98693Y-16466D01*
X98664Y-16504D01*
X98607Y-16542D01*
X98522Y-16542D01*
X98922Y-16009D02*
X99036Y-16542D01*
X99150Y-16161D01*
X99264Y-16542D01*
X99379Y-16009D01*
X99579Y-16504D02*
X99636Y-16542D01*
X99750Y-16542D01*
X99807Y-16504D01*
X99836Y-16428D01*
X99836Y-16390D01*
X99807Y-16314D01*
X99750Y-16276D01*
X99664Y-16276D01*
X99607Y-16238D01*
X99579Y-16161D01*
X99579Y-16123D01*
X99607Y-16047D01*
X99664Y-16009D01*
X99750Y-16009D01*
X99807Y-16047D01*
X100093Y-16466D02*
X100122Y-16504D01*
X100093Y-16542D01*
X100064Y-16504D01*
X100093Y-16466D01*
X100093Y-16542D01*
X100093Y-16047D02*
X100122Y-16085D01*
X100093Y-16123D01*
X100064Y-16085D01*
X100093Y-16047D01*
X100093Y-16123D01*
X68646Y-15092D02*
X68589Y-15053D01*
X68503Y-15053D01*
X68417Y-15092D01*
X68360Y-15168D01*
X68332Y-15244D01*
X68303Y-15396D01*
X68303Y-15511D01*
X68332Y-15663D01*
X68360Y-15739D01*
X68417Y-15815D01*
X68503Y-15853D01*
X68560Y-15853D01*
X68646Y-15815D01*
X68675Y-15777D01*
X68675Y-15511D01*
X68560Y-15511D01*
X69160Y-15815D02*
X69103Y-15853D01*
X68989Y-15853D01*
X68932Y-15815D01*
X68903Y-15739D01*
X68903Y-15434D01*
X68932Y-15358D01*
X68989Y-15320D01*
X69103Y-15320D01*
X69160Y-15358D01*
X69189Y-15434D01*
X69189Y-15511D01*
X68903Y-15587D01*
X69446Y-15320D02*
X69446Y-15853D01*
X69446Y-15396D02*
X69475Y-15358D01*
X69532Y-15320D01*
X69617Y-15320D01*
X69675Y-15358D01*
X69703Y-15434D01*
X69703Y-15853D01*
X70217Y-15815D02*
X70160Y-15853D01*
X70046Y-15853D01*
X69989Y-15815D01*
X69960Y-15739D01*
X69960Y-15434D01*
X69989Y-15358D01*
X70046Y-15320D01*
X70160Y-15320D01*
X70217Y-15358D01*
X70246Y-15434D01*
X70246Y-15511D01*
X69960Y-15587D01*
X70503Y-15853D02*
X70503Y-15320D01*
X70503Y-15472D02*
X70532Y-15396D01*
X70560Y-15358D01*
X70617Y-15320D01*
X70675Y-15320D01*
X71132Y-15853D02*
X71132Y-15434D01*
X71103Y-15358D01*
X71046Y-15320D01*
X70932Y-15320D01*
X70875Y-15358D01*
X71132Y-15815D02*
X71075Y-15853D01*
X70932Y-15853D01*
X70875Y-15815D01*
X70846Y-15739D01*
X70846Y-15663D01*
X70875Y-15587D01*
X70932Y-15549D01*
X71075Y-15549D01*
X71132Y-15511D01*
X71503Y-15853D02*
X71446Y-15815D01*
X71417Y-15739D01*
X71417Y-15053D01*
X72189Y-15853D02*
X72189Y-15053D01*
X72475Y-15320D02*
X72475Y-15853D01*
X72475Y-15396D02*
X72503Y-15358D01*
X72560Y-15320D01*
X72646Y-15320D01*
X72703Y-15358D01*
X72732Y-15434D01*
X72732Y-15853D01*
X72932Y-15320D02*
X73160Y-15320D01*
X73017Y-15853D02*
X73017Y-15168D01*
X73046Y-15092D01*
X73103Y-15053D01*
X73160Y-15053D01*
X73446Y-15853D02*
X73389Y-15815D01*
X73360Y-15777D01*
X73332Y-15701D01*
X73332Y-15472D01*
X73360Y-15396D01*
X73389Y-15358D01*
X73446Y-15320D01*
X73532Y-15320D01*
X73589Y-15358D01*
X73617Y-15396D01*
X73646Y-15472D01*
X73646Y-15701D01*
X73617Y-15777D01*
X73589Y-15815D01*
X73532Y-15853D01*
X73446Y-15853D01*
X67775Y-16789D02*
X68232Y-16789D01*
X68517Y-16789D02*
X68975Y-16789D01*
X69260Y-16789D02*
X69717Y-16789D01*
X70003Y-16789D02*
X70460Y-16789D01*
X70746Y-16789D02*
X71203Y-16789D01*
X71489Y-16789D02*
X71946Y-16789D01*
X72232Y-16789D02*
X72689Y-16789D01*
X72975Y-16789D02*
X73432Y-16789D01*
X73717Y-16789D02*
X74175Y-16789D01*
X62403Y-19154D02*
X62489Y-19192D01*
X62517Y-19231D01*
X62546Y-19307D01*
X62546Y-19421D01*
X62517Y-19497D01*
X62489Y-19535D01*
X62432Y-19573D01*
X62203Y-19573D01*
X62203Y-18773D01*
X62403Y-18773D01*
X62460Y-18812D01*
X62489Y-18850D01*
X62517Y-18926D01*
X62517Y-19002D01*
X62489Y-19078D01*
X62460Y-19116D01*
X62403Y-19154D01*
X62203Y-19154D01*
X62889Y-19573D02*
X62832Y-19535D01*
X62803Y-19497D01*
X62775Y-19421D01*
X62775Y-19192D01*
X62803Y-19116D01*
X62832Y-19078D01*
X62889Y-19040D01*
X62975Y-19040D01*
X63032Y-19078D01*
X63060Y-19116D01*
X63089Y-19192D01*
X63089Y-19421D01*
X63060Y-19497D01*
X63032Y-19535D01*
X62975Y-19573D01*
X62889Y-19573D01*
X63603Y-19573D02*
X63603Y-19154D01*
X63575Y-19078D01*
X63517Y-19040D01*
X63403Y-19040D01*
X63346Y-19078D01*
X63603Y-19535D02*
X63546Y-19573D01*
X63403Y-19573D01*
X63346Y-19535D01*
X63317Y-19459D01*
X63317Y-19383D01*
X63346Y-19307D01*
X63403Y-19269D01*
X63546Y-19269D01*
X63603Y-19231D01*
X63889Y-19573D02*
X63889Y-19040D01*
X63889Y-19192D02*
X63917Y-19116D01*
X63946Y-19078D01*
X64003Y-19040D01*
X64060Y-19040D01*
X64517Y-19573D02*
X64517Y-18773D01*
X64517Y-19535D02*
X64460Y-19573D01*
X64346Y-19573D01*
X64289Y-19535D01*
X64260Y-19497D01*
X64232Y-19421D01*
X64232Y-19192D01*
X64260Y-19116D01*
X64289Y-19078D01*
X64346Y-19040D01*
X64460Y-19040D01*
X64517Y-19078D01*
X65260Y-19573D02*
X65260Y-18773D01*
X65403Y-18773D01*
X65489Y-18812D01*
X65546Y-18888D01*
X65575Y-18964D01*
X65603Y-19116D01*
X65603Y-19231D01*
X65575Y-19383D01*
X65546Y-19459D01*
X65489Y-19535D01*
X65403Y-19573D01*
X65260Y-19573D01*
X65860Y-19573D02*
X65860Y-19040D01*
X65860Y-18773D02*
X65832Y-18812D01*
X65860Y-18850D01*
X65889Y-18812D01*
X65860Y-18773D01*
X65860Y-18850D01*
X66146Y-19573D02*
X66146Y-19040D01*
X66146Y-19116D02*
X66175Y-19078D01*
X66232Y-19040D01*
X66317Y-19040D01*
X66375Y-19078D01*
X66403Y-19154D01*
X66403Y-19573D01*
X66403Y-19154D02*
X66432Y-19078D01*
X66489Y-19040D01*
X66575Y-19040D01*
X66632Y-19078D01*
X66660Y-19154D01*
X66660Y-19573D01*
X67175Y-19535D02*
X67117Y-19573D01*
X67003Y-19573D01*
X66946Y-19535D01*
X66917Y-19459D01*
X66917Y-19154D01*
X66946Y-19078D01*
X67003Y-19040D01*
X67117Y-19040D01*
X67175Y-19078D01*
X67203Y-19154D01*
X67203Y-19231D01*
X66917Y-19307D01*
X67460Y-19040D02*
X67460Y-19573D01*
X67460Y-19116D02*
X67489Y-19078D01*
X67546Y-19040D01*
X67632Y-19040D01*
X67689Y-19078D01*
X67717Y-19154D01*
X67717Y-19573D01*
X67975Y-19535D02*
X68032Y-19573D01*
X68146Y-19573D01*
X68203Y-19535D01*
X68232Y-19459D01*
X68232Y-19421D01*
X68203Y-19345D01*
X68146Y-19307D01*
X68060Y-19307D01*
X68003Y-19269D01*
X67975Y-19192D01*
X67975Y-19154D01*
X68003Y-19078D01*
X68060Y-19040D01*
X68146Y-19040D01*
X68203Y-19078D01*
X68489Y-19573D02*
X68489Y-19040D01*
X68489Y-18773D02*
X68460Y-18812D01*
X68489Y-18850D01*
X68517Y-18812D01*
X68489Y-18773D01*
X68489Y-18850D01*
X68860Y-19573D02*
X68803Y-19535D01*
X68774Y-19497D01*
X68746Y-19421D01*
X68746Y-19192D01*
X68774Y-19116D01*
X68803Y-19078D01*
X68860Y-19040D01*
X68946Y-19040D01*
X69003Y-19078D01*
X69032Y-19116D01*
X69060Y-19192D01*
X69060Y-19421D01*
X69032Y-19497D01*
X69003Y-19535D01*
X68946Y-19573D01*
X68860Y-19573D01*
X69317Y-19040D02*
X69317Y-19573D01*
X69317Y-19116D02*
X69346Y-19078D01*
X69403Y-19040D01*
X69489Y-19040D01*
X69546Y-19078D01*
X69574Y-19154D01*
X69574Y-19573D01*
X69832Y-19535D02*
X69889Y-19573D01*
X70003Y-19573D01*
X70060Y-19535D01*
X70089Y-19459D01*
X70089Y-19421D01*
X70060Y-19345D01*
X70003Y-19307D01*
X69917Y-19307D01*
X69860Y-19269D01*
X69832Y-19192D01*
X69832Y-19154D01*
X69860Y-19078D01*
X69917Y-19040D01*
X70003Y-19040D01*
X70060Y-19078D01*
X70803Y-19269D02*
X71260Y-19269D01*
X72317Y-19573D02*
X71974Y-19573D01*
X72146Y-19573D02*
X72146Y-18773D01*
X72089Y-18888D01*
X72032Y-18964D01*
X71974Y-19002D01*
X72689Y-18773D02*
X72746Y-18773D01*
X72803Y-18812D01*
X72832Y-18850D01*
X72860Y-18926D01*
X72889Y-19078D01*
X72889Y-19269D01*
X72860Y-19421D01*
X72832Y-19497D01*
X72803Y-19535D01*
X72746Y-19573D01*
X72689Y-19573D01*
X72632Y-19535D01*
X72603Y-19497D01*
X72574Y-19421D01*
X72546Y-19269D01*
X72546Y-19078D01*
X72574Y-18926D01*
X72603Y-18850D01*
X72632Y-18812D01*
X72689Y-18773D01*
X73432Y-18773D02*
X73146Y-18773D01*
X73117Y-19154D01*
X73146Y-19116D01*
X73203Y-19078D01*
X73346Y-19078D01*
X73403Y-19116D01*
X73432Y-19154D01*
X73460Y-19231D01*
X73460Y-19421D01*
X73432Y-19497D01*
X73403Y-19535D01*
X73346Y-19573D01*
X73203Y-19573D01*
X73146Y-19535D01*
X73117Y-19497D01*
X73717Y-19573D02*
X73717Y-19040D01*
X73717Y-19116D02*
X73746Y-19078D01*
X73803Y-19040D01*
X73889Y-19040D01*
X73946Y-19078D01*
X73975Y-19154D01*
X73975Y-19573D01*
X73975Y-19154D02*
X74003Y-19078D01*
X74060Y-19040D01*
X74146Y-19040D01*
X74203Y-19078D01*
X74232Y-19154D01*
X74232Y-19573D01*
X74517Y-19573D02*
X74517Y-19040D01*
X74517Y-19116D02*
X74546Y-19078D01*
X74603Y-19040D01*
X74689Y-19040D01*
X74746Y-19078D01*
X74775Y-19154D01*
X74775Y-19573D01*
X74775Y-19154D02*
X74803Y-19078D01*
X74860Y-19040D01*
X74946Y-19040D01*
X75003Y-19078D01*
X75032Y-19154D01*
X75032Y-19573D01*
X75717Y-19573D02*
X76032Y-19040D01*
X75717Y-19040D02*
X76032Y-19573D01*
X77032Y-19573D02*
X76689Y-19573D01*
X76860Y-19573D02*
X76860Y-18773D01*
X76803Y-18888D01*
X76746Y-18964D01*
X76689Y-19002D01*
X77546Y-19040D02*
X77546Y-19573D01*
X77403Y-18735D02*
X77260Y-19307D01*
X77632Y-19307D01*
X77832Y-18850D02*
X77860Y-18812D01*
X77917Y-18773D01*
X78060Y-18773D01*
X78117Y-18812D01*
X78146Y-18850D01*
X78175Y-18926D01*
X78175Y-19002D01*
X78146Y-19116D01*
X77803Y-19573D01*
X78175Y-19573D01*
X78432Y-19573D02*
X78432Y-19040D01*
X78432Y-19116D02*
X78460Y-19078D01*
X78517Y-19040D01*
X78603Y-19040D01*
X78660Y-19078D01*
X78689Y-19154D01*
X78689Y-19573D01*
X78689Y-19154D02*
X78717Y-19078D01*
X78775Y-19040D01*
X78860Y-19040D01*
X78917Y-19078D01*
X78946Y-19154D01*
X78946Y-19573D01*
X79232Y-19573D02*
X79232Y-19040D01*
X79232Y-19116D02*
X79260Y-19078D01*
X79317Y-19040D01*
X79403Y-19040D01*
X79460Y-19078D01*
X79489Y-19154D01*
X79489Y-19573D01*
X79489Y-19154D02*
X79517Y-19078D01*
X79575Y-19040D01*
X79660Y-19040D01*
X79717Y-19078D01*
X79746Y-19154D01*
X79746Y-19573D01*
X65975Y-20813D02*
X65975Y-20013D01*
X66317Y-20813D01*
X66317Y-20013D01*
X66860Y-20280D02*
X66860Y-20813D01*
X66603Y-20280D02*
X66603Y-20699D01*
X66632Y-20775D01*
X66689Y-20813D01*
X66775Y-20813D01*
X66832Y-20775D01*
X66860Y-20737D01*
X67146Y-20813D02*
X67146Y-20280D01*
X67146Y-20356D02*
X67175Y-20318D01*
X67232Y-20280D01*
X67317Y-20280D01*
X67375Y-20318D01*
X67403Y-20394D01*
X67403Y-20813D01*
X67403Y-20394D02*
X67432Y-20318D01*
X67489Y-20280D01*
X67575Y-20280D01*
X67632Y-20318D01*
X67660Y-20394D01*
X67660Y-20813D01*
X67946Y-20813D02*
X67946Y-20013D01*
X67946Y-20318D02*
X68003Y-20280D01*
X68117Y-20280D01*
X68175Y-20318D01*
X68203Y-20356D01*
X68232Y-20432D01*
X68232Y-20661D01*
X68203Y-20737D01*
X68175Y-20775D01*
X68117Y-20813D01*
X68003Y-20813D01*
X67946Y-20775D01*
X68717Y-20775D02*
X68660Y-20813D01*
X68546Y-20813D01*
X68489Y-20775D01*
X68460Y-20699D01*
X68460Y-20394D01*
X68489Y-20318D01*
X68546Y-20280D01*
X68660Y-20280D01*
X68717Y-20318D01*
X68746Y-20394D01*
X68746Y-20471D01*
X68460Y-20547D01*
X69003Y-20813D02*
X69003Y-20280D01*
X69003Y-20432D02*
X69032Y-20356D01*
X69060Y-20318D01*
X69117Y-20280D01*
X69175Y-20280D01*
X69917Y-20813D02*
X69860Y-20775D01*
X69832Y-20737D01*
X69803Y-20661D01*
X69803Y-20432D01*
X69832Y-20356D01*
X69860Y-20318D01*
X69917Y-20280D01*
X70003Y-20280D01*
X70060Y-20318D01*
X70089Y-20356D01*
X70117Y-20432D01*
X70117Y-20661D01*
X70089Y-20737D01*
X70060Y-20775D01*
X70003Y-20813D01*
X69917Y-20813D01*
X70289Y-20280D02*
X70517Y-20280D01*
X70375Y-20813D02*
X70375Y-20128D01*
X70403Y-20052D01*
X70460Y-20013D01*
X70517Y-20013D01*
X71460Y-20813D02*
X71175Y-20813D01*
X71175Y-20013D01*
X71917Y-20813D02*
X71917Y-20394D01*
X71889Y-20318D01*
X71832Y-20280D01*
X71717Y-20280D01*
X71660Y-20318D01*
X71917Y-20775D02*
X71860Y-20813D01*
X71717Y-20813D01*
X71660Y-20775D01*
X71632Y-20699D01*
X71632Y-20623D01*
X71660Y-20547D01*
X71717Y-20509D01*
X71860Y-20509D01*
X71917Y-20471D01*
X72146Y-20280D02*
X72289Y-20813D01*
X72432Y-20280D02*
X72289Y-20813D01*
X72232Y-21004D01*
X72203Y-21042D01*
X72146Y-21080D01*
X72889Y-20775D02*
X72832Y-20813D01*
X72717Y-20813D01*
X72660Y-20775D01*
X72632Y-20699D01*
X72632Y-20394D01*
X72660Y-20318D01*
X72717Y-20280D01*
X72832Y-20280D01*
X72889Y-20318D01*
X72917Y-20394D01*
X72917Y-20471D01*
X72632Y-20547D01*
X73175Y-20813D02*
X73175Y-20280D01*
X73175Y-20432D02*
X73203Y-20356D01*
X73232Y-20318D01*
X73289Y-20280D01*
X73346Y-20280D01*
X73517Y-20775D02*
X73575Y-20813D01*
X73689Y-20813D01*
X73746Y-20775D01*
X73775Y-20699D01*
X73775Y-20661D01*
X73746Y-20585D01*
X73689Y-20547D01*
X73603Y-20547D01*
X73546Y-20509D01*
X73517Y-20432D01*
X73517Y-20394D01*
X73546Y-20318D01*
X73603Y-20280D01*
X73689Y-20280D01*
X73746Y-20318D01*
X74489Y-20509D02*
X74946Y-20509D01*
X75946Y-20280D02*
X75946Y-20813D01*
X75803Y-19975D02*
X75660Y-20547D01*
X76032Y-20547D01*
X66175Y-22015D02*
X66260Y-22053D01*
X66403Y-22053D01*
X66460Y-22015D01*
X66489Y-21977D01*
X66517Y-21901D01*
X66517Y-21825D01*
X66489Y-21749D01*
X66460Y-21711D01*
X66403Y-21672D01*
X66289Y-21634D01*
X66232Y-21596D01*
X66203Y-21558D01*
X66175Y-21482D01*
X66175Y-21406D01*
X66203Y-21330D01*
X66232Y-21292D01*
X66289Y-21253D01*
X66432Y-21253D01*
X66517Y-21292D01*
X66775Y-22053D02*
X66775Y-21520D01*
X66775Y-21596D02*
X66803Y-21558D01*
X66860Y-21520D01*
X66946Y-21520D01*
X67003Y-21558D01*
X67032Y-21634D01*
X67032Y-22053D01*
X67032Y-21634D02*
X67060Y-21558D01*
X67117Y-21520D01*
X67203Y-21520D01*
X67260Y-21558D01*
X67289Y-21634D01*
X67289Y-22053D01*
X67832Y-22053D02*
X67832Y-21634D01*
X67803Y-21558D01*
X67746Y-21520D01*
X67632Y-21520D01*
X67575Y-21558D01*
X67832Y-22015D02*
X67775Y-22053D01*
X67632Y-22053D01*
X67575Y-22015D01*
X67546Y-21939D01*
X67546Y-21863D01*
X67575Y-21787D01*
X67632Y-21749D01*
X67775Y-21749D01*
X67832Y-21711D01*
X68203Y-22053D02*
X68146Y-22015D01*
X68117Y-21939D01*
X68117Y-21253D01*
X68517Y-22053D02*
X68460Y-22015D01*
X68432Y-21939D01*
X68432Y-21253D01*
X68975Y-22015D02*
X68917Y-22053D01*
X68803Y-22053D01*
X68746Y-22015D01*
X68717Y-21939D01*
X68717Y-21634D01*
X68746Y-21558D01*
X68803Y-21520D01*
X68917Y-21520D01*
X68975Y-21558D01*
X69003Y-21634D01*
X69003Y-21711D01*
X68717Y-21787D01*
X69232Y-22015D02*
X69289Y-22053D01*
X69403Y-22053D01*
X69460Y-22015D01*
X69489Y-21939D01*
X69489Y-21901D01*
X69460Y-21825D01*
X69403Y-21787D01*
X69317Y-21787D01*
X69260Y-21749D01*
X69232Y-21672D01*
X69232Y-21634D01*
X69260Y-21558D01*
X69317Y-21520D01*
X69403Y-21520D01*
X69460Y-21558D01*
X69660Y-21520D02*
X69889Y-21520D01*
X69746Y-21253D02*
X69746Y-21939D01*
X69775Y-22015D01*
X69832Y-22053D01*
X69889Y-22053D01*
X70546Y-22053D02*
X70546Y-21253D01*
X70546Y-21634D02*
X70889Y-21634D01*
X70889Y-22053D02*
X70889Y-21253D01*
X71260Y-22053D02*
X71203Y-22015D01*
X71175Y-21977D01*
X71146Y-21901D01*
X71146Y-21672D01*
X71175Y-21596D01*
X71203Y-21558D01*
X71260Y-21520D01*
X71346Y-21520D01*
X71403Y-21558D01*
X71432Y-21596D01*
X71460Y-21672D01*
X71460Y-21901D01*
X71432Y-21977D01*
X71403Y-22015D01*
X71346Y-22053D01*
X71260Y-22053D01*
X71803Y-22053D02*
X71746Y-22015D01*
X71717Y-21939D01*
X71717Y-21253D01*
X72260Y-22015D02*
X72203Y-22053D01*
X72089Y-22053D01*
X72032Y-22015D01*
X72003Y-21939D01*
X72003Y-21634D01*
X72032Y-21558D01*
X72089Y-21520D01*
X72203Y-21520D01*
X72260Y-21558D01*
X72289Y-21634D01*
X72289Y-21711D01*
X72003Y-21787D01*
X73117Y-21253D02*
X73175Y-21253D01*
X73232Y-21292D01*
X73260Y-21330D01*
X73289Y-21406D01*
X73317Y-21558D01*
X73317Y-21749D01*
X73289Y-21901D01*
X73260Y-21977D01*
X73232Y-22015D01*
X73175Y-22053D01*
X73117Y-22053D01*
X73060Y-22015D01*
X73032Y-21977D01*
X73003Y-21901D01*
X72975Y-21749D01*
X72975Y-21558D01*
X73003Y-21406D01*
X73032Y-21330D01*
X73060Y-21292D01*
X73117Y-21253D01*
X73575Y-21977D02*
X73603Y-22015D01*
X73575Y-22053D01*
X73546Y-22015D01*
X73575Y-21977D01*
X73575Y-22053D01*
X73832Y-21330D02*
X73860Y-21292D01*
X73917Y-21253D01*
X74060Y-21253D01*
X74117Y-21292D01*
X74146Y-21330D01*
X74175Y-21406D01*
X74175Y-21482D01*
X74146Y-21596D01*
X73803Y-22053D01*
X74175Y-22053D01*
X74432Y-22053D02*
X74432Y-21520D01*
X74432Y-21596D02*
X74460Y-21558D01*
X74517Y-21520D01*
X74603Y-21520D01*
X74660Y-21558D01*
X74689Y-21634D01*
X74689Y-22053D01*
X74689Y-21634D02*
X74717Y-21558D01*
X74775Y-21520D01*
X74860Y-21520D01*
X74917Y-21558D01*
X74946Y-21634D01*
X74946Y-22053D01*
X75232Y-22053D02*
X75232Y-21520D01*
X75232Y-21596D02*
X75260Y-21558D01*
X75317Y-21520D01*
X75403Y-21520D01*
X75460Y-21558D01*
X75489Y-21634D01*
X75489Y-22053D01*
X75489Y-21634D02*
X75517Y-21558D01*
X75575Y-21520D01*
X75660Y-21520D01*
X75717Y-21558D01*
X75746Y-21634D01*
X75746Y-22053D01*
X63617Y-23293D02*
X63617Y-22493D01*
X63960Y-23293D01*
X63960Y-22493D01*
X64503Y-22760D02*
X64503Y-23293D01*
X64246Y-22760D02*
X64246Y-23179D01*
X64274Y-23255D01*
X64332Y-23293D01*
X64417Y-23293D01*
X64474Y-23255D01*
X64503Y-23217D01*
X64789Y-23293D02*
X64789Y-22760D01*
X64789Y-22836D02*
X64817Y-22798D01*
X64874Y-22760D01*
X64960Y-22760D01*
X65017Y-22798D01*
X65046Y-22874D01*
X65046Y-23293D01*
X65046Y-22874D02*
X65074Y-22798D01*
X65132Y-22760D01*
X65217Y-22760D01*
X65274Y-22798D01*
X65303Y-22874D01*
X65303Y-23293D01*
X65589Y-23293D02*
X65589Y-22493D01*
X65589Y-22798D02*
X65646Y-22760D01*
X65760Y-22760D01*
X65817Y-22798D01*
X65846Y-22836D01*
X65874Y-22912D01*
X65874Y-23141D01*
X65846Y-23217D01*
X65817Y-23255D01*
X65760Y-23293D01*
X65646Y-23293D01*
X65589Y-23255D01*
X66360Y-23255D02*
X66303Y-23293D01*
X66189Y-23293D01*
X66132Y-23255D01*
X66103Y-23179D01*
X66103Y-22874D01*
X66132Y-22798D01*
X66189Y-22760D01*
X66303Y-22760D01*
X66360Y-22798D01*
X66389Y-22874D01*
X66389Y-22951D01*
X66103Y-23027D01*
X66646Y-23293D02*
X66646Y-22760D01*
X66646Y-22912D02*
X66674Y-22836D01*
X66703Y-22798D01*
X66760Y-22760D01*
X66817Y-22760D01*
X67560Y-23293D02*
X67503Y-23255D01*
X67474Y-23217D01*
X67446Y-23141D01*
X67446Y-22912D01*
X67474Y-22836D01*
X67503Y-22798D01*
X67560Y-22760D01*
X67646Y-22760D01*
X67703Y-22798D01*
X67732Y-22836D01*
X67760Y-22912D01*
X67760Y-23141D01*
X67732Y-23217D01*
X67703Y-23255D01*
X67646Y-23293D01*
X67560Y-23293D01*
X67932Y-22760D02*
X68160Y-22760D01*
X68017Y-23293D02*
X68017Y-22608D01*
X68046Y-22532D01*
X68103Y-22493D01*
X68160Y-22493D01*
X68817Y-23293D02*
X68817Y-22493D01*
X69074Y-23293D02*
X69074Y-22874D01*
X69046Y-22798D01*
X68989Y-22760D01*
X68903Y-22760D01*
X68846Y-22798D01*
X68817Y-22836D01*
X69446Y-23293D02*
X69389Y-23255D01*
X69360Y-23217D01*
X69332Y-23141D01*
X69332Y-22912D01*
X69360Y-22836D01*
X69389Y-22798D01*
X69446Y-22760D01*
X69532Y-22760D01*
X69589Y-22798D01*
X69617Y-22836D01*
X69646Y-22912D01*
X69646Y-23141D01*
X69617Y-23217D01*
X69589Y-23255D01*
X69532Y-23293D01*
X69446Y-23293D01*
X69989Y-23293D02*
X69932Y-23255D01*
X69903Y-23179D01*
X69903Y-22493D01*
X70446Y-23255D02*
X70389Y-23293D01*
X70274Y-23293D01*
X70217Y-23255D01*
X70189Y-23179D01*
X70189Y-22874D01*
X70217Y-22798D01*
X70274Y-22760D01*
X70389Y-22760D01*
X70446Y-22798D01*
X70474Y-22874D01*
X70474Y-22951D01*
X70189Y-23027D01*
X70703Y-23255D02*
X70760Y-23293D01*
X70874Y-23293D01*
X70932Y-23255D01*
X70960Y-23179D01*
X70960Y-23141D01*
X70932Y-23065D01*
X70874Y-23027D01*
X70789Y-23027D01*
X70732Y-22989D01*
X70703Y-22912D01*
X70703Y-22874D01*
X70732Y-22798D01*
X70789Y-22760D01*
X70874Y-22760D01*
X70932Y-22798D01*
X71674Y-22989D02*
X72132Y-22989D01*
X72846Y-23065D02*
X73132Y-23065D01*
X72789Y-23293D02*
X72989Y-22493D01*
X73189Y-23293D01*
X73389Y-22760D02*
X73389Y-23560D01*
X73389Y-22798D02*
X73446Y-22760D01*
X73560Y-22760D01*
X73617Y-22798D01*
X73646Y-22836D01*
X73674Y-22912D01*
X73674Y-23141D01*
X73646Y-23217D01*
X73617Y-23255D01*
X73560Y-23293D01*
X73446Y-23293D01*
X73389Y-23255D01*
X73932Y-22760D02*
X73932Y-23560D01*
X73932Y-22798D02*
X73989Y-22760D01*
X74103Y-22760D01*
X74160Y-22798D01*
X74189Y-22836D01*
X74217Y-22912D01*
X74217Y-23141D01*
X74189Y-23217D01*
X74160Y-23255D01*
X74103Y-23293D01*
X73989Y-23293D01*
X73932Y-23255D01*
X74474Y-23293D02*
X74474Y-22760D01*
X74474Y-22912D02*
X74503Y-22836D01*
X74532Y-22798D01*
X74589Y-22760D01*
X74646Y-22760D01*
X74932Y-23293D02*
X74875Y-23255D01*
X74846Y-23217D01*
X74817Y-23141D01*
X74817Y-22912D01*
X74846Y-22836D01*
X74875Y-22798D01*
X74932Y-22760D01*
X75017Y-22760D01*
X75075Y-22798D01*
X75103Y-22836D01*
X75132Y-22912D01*
X75132Y-23141D01*
X75103Y-23217D01*
X75075Y-23255D01*
X75017Y-23293D01*
X74932Y-23293D01*
X75332Y-23293D02*
X75646Y-22760D01*
X75332Y-22760D02*
X75646Y-23293D01*
X76646Y-23293D02*
X76303Y-23293D01*
X76474Y-23293D02*
X76474Y-22493D01*
X76417Y-22608D01*
X76360Y-22684D01*
X76303Y-22722D01*
X77217Y-23293D02*
X76875Y-23293D01*
X77046Y-23293D02*
X77046Y-22493D01*
X76989Y-22608D01*
X76932Y-22684D01*
X76875Y-22722D01*
X77589Y-22493D02*
X77646Y-22493D01*
X77703Y-22532D01*
X77732Y-22570D01*
X77760Y-22646D01*
X77789Y-22798D01*
X77789Y-22989D01*
X77760Y-23141D01*
X77732Y-23217D01*
X77703Y-23255D01*
X77646Y-23293D01*
X77589Y-23293D01*
X77532Y-23255D01*
X77503Y-23217D01*
X77475Y-23141D01*
X77446Y-22989D01*
X77446Y-22798D01*
X77475Y-22646D01*
X77503Y-22570D01*
X77532Y-22532D01*
X77589Y-22493D01*
X78160Y-22493D02*
X78217Y-22493D01*
X78275Y-22532D01*
X78303Y-22570D01*
X78332Y-22646D01*
X78360Y-22798D01*
X78360Y-22989D01*
X78332Y-23141D01*
X78303Y-23217D01*
X78275Y-23255D01*
X78217Y-23293D01*
X78160Y-23293D01*
X78103Y-23255D01*
X78075Y-23217D01*
X78046Y-23141D01*
X78017Y-22989D01*
X78017Y-22798D01*
X78046Y-22646D01*
X78075Y-22570D01*
X78103Y-22532D01*
X78160Y-22493D01*
X62989Y-24533D02*
X62989Y-23733D01*
X63189Y-24305D01*
X63389Y-23733D01*
X63389Y-24533D01*
X63675Y-24533D02*
X63675Y-24000D01*
X63675Y-23733D02*
X63646Y-23772D01*
X63675Y-23810D01*
X63703Y-23772D01*
X63675Y-23733D01*
X63675Y-23810D01*
X63960Y-24000D02*
X63960Y-24533D01*
X63960Y-24076D02*
X63989Y-24038D01*
X64046Y-24000D01*
X64132Y-24000D01*
X64189Y-24038D01*
X64217Y-24114D01*
X64217Y-24533D01*
X64503Y-24533D02*
X64503Y-24000D01*
X64503Y-23733D02*
X64475Y-23772D01*
X64503Y-23810D01*
X64532Y-23772D01*
X64503Y-23733D01*
X64503Y-23810D01*
X64789Y-24533D02*
X64789Y-24000D01*
X64789Y-24076D02*
X64817Y-24038D01*
X64874Y-24000D01*
X64960Y-24000D01*
X65017Y-24038D01*
X65046Y-24114D01*
X65046Y-24533D01*
X65046Y-24114D02*
X65074Y-24038D01*
X65132Y-24000D01*
X65217Y-24000D01*
X65274Y-24038D01*
X65303Y-24114D01*
X65303Y-24533D01*
X65846Y-24000D02*
X65846Y-24533D01*
X65589Y-24000D02*
X65589Y-24419D01*
X65617Y-24495D01*
X65674Y-24533D01*
X65760Y-24533D01*
X65817Y-24495D01*
X65846Y-24457D01*
X66132Y-24533D02*
X66132Y-24000D01*
X66132Y-24076D02*
X66160Y-24038D01*
X66217Y-24000D01*
X66303Y-24000D01*
X66360Y-24038D01*
X66389Y-24114D01*
X66389Y-24533D01*
X66389Y-24114D02*
X66417Y-24038D01*
X66474Y-24000D01*
X66560Y-24000D01*
X66617Y-24038D01*
X66646Y-24114D01*
X66646Y-24533D01*
X67303Y-23733D02*
X67646Y-23733D01*
X67474Y-24533D02*
X67474Y-23733D01*
X67846Y-24533D02*
X67846Y-24000D01*
X67846Y-24152D02*
X67875Y-24076D01*
X67903Y-24038D01*
X67960Y-24000D01*
X68017Y-24000D01*
X68475Y-24533D02*
X68475Y-24114D01*
X68446Y-24038D01*
X68389Y-24000D01*
X68275Y-24000D01*
X68217Y-24038D01*
X68475Y-24495D02*
X68417Y-24533D01*
X68275Y-24533D01*
X68217Y-24495D01*
X68189Y-24419D01*
X68189Y-24343D01*
X68217Y-24267D01*
X68275Y-24229D01*
X68417Y-24229D01*
X68475Y-24191D01*
X69017Y-24495D02*
X68960Y-24533D01*
X68846Y-24533D01*
X68789Y-24495D01*
X68760Y-24457D01*
X68732Y-24381D01*
X68732Y-24152D01*
X68760Y-24076D01*
X68789Y-24038D01*
X68846Y-24000D01*
X68960Y-24000D01*
X69017Y-24038D01*
X69275Y-24533D02*
X69275Y-23733D01*
X69332Y-24229D02*
X69503Y-24533D01*
X69503Y-24000D02*
X69275Y-24305D01*
X70475Y-24533D02*
X70475Y-24114D01*
X70446Y-24038D01*
X70389Y-24000D01*
X70275Y-24000D01*
X70217Y-24038D01*
X70475Y-24495D02*
X70417Y-24533D01*
X70275Y-24533D01*
X70217Y-24495D01*
X70189Y-24419D01*
X70189Y-24343D01*
X70217Y-24267D01*
X70275Y-24229D01*
X70417Y-24229D01*
X70475Y-24191D01*
X70760Y-24000D02*
X70760Y-24533D01*
X70760Y-24076D02*
X70789Y-24038D01*
X70846Y-24000D01*
X70932Y-24000D01*
X70989Y-24038D01*
X71017Y-24114D01*
X71017Y-24533D01*
X71560Y-24533D02*
X71560Y-23733D01*
X71560Y-24495D02*
X71503Y-24533D01*
X71389Y-24533D01*
X71332Y-24495D01*
X71303Y-24457D01*
X71275Y-24381D01*
X71275Y-24152D01*
X71303Y-24076D01*
X71332Y-24038D01*
X71389Y-24000D01*
X71503Y-24000D01*
X71560Y-24038D01*
X72617Y-23772D02*
X72560Y-23733D01*
X72475Y-23733D01*
X72389Y-23772D01*
X72332Y-23848D01*
X72303Y-23924D01*
X72275Y-24076D01*
X72275Y-24191D01*
X72303Y-24343D01*
X72332Y-24419D01*
X72389Y-24495D01*
X72475Y-24533D01*
X72532Y-24533D01*
X72617Y-24495D01*
X72646Y-24457D01*
X72646Y-24191D01*
X72532Y-24191D01*
X73160Y-24533D02*
X73160Y-24114D01*
X73132Y-24038D01*
X73075Y-24000D01*
X72960Y-24000D01*
X72903Y-24038D01*
X73160Y-24495D02*
X73103Y-24533D01*
X72960Y-24533D01*
X72903Y-24495D01*
X72875Y-24419D01*
X72875Y-24343D01*
X72903Y-24267D01*
X72960Y-24229D01*
X73103Y-24229D01*
X73160Y-24191D01*
X73446Y-24000D02*
X73446Y-24800D01*
X73446Y-24038D02*
X73503Y-24000D01*
X73617Y-24000D01*
X73675Y-24038D01*
X73703Y-24076D01*
X73732Y-24152D01*
X73732Y-24381D01*
X73703Y-24457D01*
X73675Y-24495D01*
X73617Y-24533D01*
X73503Y-24533D01*
X73446Y-24495D01*
X74446Y-24229D02*
X74903Y-24229D01*
X75760Y-23733D02*
X75817Y-23733D01*
X75875Y-23772D01*
X75903Y-23810D01*
X75932Y-23886D01*
X75960Y-24038D01*
X75960Y-24229D01*
X75932Y-24381D01*
X75903Y-24457D01*
X75875Y-24495D01*
X75817Y-24533D01*
X75760Y-24533D01*
X75703Y-24495D01*
X75675Y-24457D01*
X75646Y-24381D01*
X75617Y-24229D01*
X75617Y-24038D01*
X75646Y-23886D01*
X75675Y-23810D01*
X75703Y-23772D01*
X75760Y-23733D01*
X76217Y-24457D02*
X76246Y-24495D01*
X76217Y-24533D01*
X76189Y-24495D01*
X76217Y-24457D01*
X76217Y-24533D01*
X76817Y-24533D02*
X76475Y-24533D01*
X76646Y-24533D02*
X76646Y-23733D01*
X76589Y-23848D01*
X76532Y-23924D01*
X76475Y-23962D01*
X77360Y-23733D02*
X77075Y-23733D01*
X77046Y-24114D01*
X77075Y-24076D01*
X77132Y-24038D01*
X77275Y-24038D01*
X77332Y-24076D01*
X77360Y-24114D01*
X77389Y-24191D01*
X77389Y-24381D01*
X77360Y-24457D01*
X77332Y-24495D01*
X77275Y-24533D01*
X77132Y-24533D01*
X77075Y-24495D01*
X77046Y-24457D01*
X77646Y-24533D02*
X77646Y-24000D01*
X77646Y-24076D02*
X77675Y-24038D01*
X77732Y-24000D01*
X77817Y-24000D01*
X77875Y-24038D01*
X77903Y-24114D01*
X77903Y-24533D01*
X77903Y-24114D02*
X77932Y-24038D01*
X77989Y-24000D01*
X78075Y-24000D01*
X78132Y-24038D01*
X78160Y-24114D01*
X78160Y-24533D01*
X78446Y-24533D02*
X78446Y-24000D01*
X78446Y-24076D02*
X78475Y-24038D01*
X78532Y-24000D01*
X78617Y-24000D01*
X78675Y-24038D01*
X78703Y-24114D01*
X78703Y-24533D01*
X78703Y-24114D02*
X78732Y-24038D01*
X78789Y-24000D01*
X78875Y-24000D01*
X78932Y-24038D01*
X78960Y-24114D01*
X78960Y-24533D01*
X65660Y-25773D02*
X65660Y-24973D01*
X66003Y-25773D02*
X65746Y-25316D01*
X66003Y-24973D02*
X65660Y-25431D01*
X66260Y-25240D02*
X66260Y-25773D01*
X66260Y-25316D02*
X66289Y-25278D01*
X66346Y-25240D01*
X66432Y-25240D01*
X66489Y-25278D01*
X66517Y-25354D01*
X66517Y-25773D01*
X66889Y-25773D02*
X66832Y-25735D01*
X66803Y-25697D01*
X66775Y-25621D01*
X66775Y-25392D01*
X66803Y-25316D01*
X66832Y-25278D01*
X66889Y-25240D01*
X66975Y-25240D01*
X67032Y-25278D01*
X67060Y-25316D01*
X67089Y-25392D01*
X67089Y-25621D01*
X67060Y-25697D01*
X67032Y-25735D01*
X66975Y-25773D01*
X66889Y-25773D01*
X67289Y-25240D02*
X67403Y-25773D01*
X67517Y-25392D01*
X67632Y-25773D01*
X67746Y-25240D01*
X67974Y-25240D02*
X67974Y-25773D01*
X67974Y-25316D02*
X68003Y-25278D01*
X68060Y-25240D01*
X68146Y-25240D01*
X68203Y-25278D01*
X68232Y-25354D01*
X68232Y-25773D01*
X69289Y-25012D02*
X69232Y-24973D01*
X69146Y-24973D01*
X69060Y-25012D01*
X69003Y-25088D01*
X68974Y-25164D01*
X68946Y-25316D01*
X68946Y-25431D01*
X68974Y-25583D01*
X69003Y-25659D01*
X69060Y-25735D01*
X69146Y-25773D01*
X69203Y-25773D01*
X69289Y-25735D01*
X69317Y-25697D01*
X69317Y-25431D01*
X69203Y-25431D01*
X69660Y-25773D02*
X69603Y-25735D01*
X69574Y-25697D01*
X69546Y-25621D01*
X69546Y-25392D01*
X69574Y-25316D01*
X69603Y-25278D01*
X69660Y-25240D01*
X69746Y-25240D01*
X69803Y-25278D01*
X69832Y-25316D01*
X69860Y-25392D01*
X69860Y-25621D01*
X69832Y-25697D01*
X69803Y-25735D01*
X69746Y-25773D01*
X69660Y-25773D01*
X70203Y-25773D02*
X70146Y-25735D01*
X70117Y-25697D01*
X70089Y-25621D01*
X70089Y-25392D01*
X70117Y-25316D01*
X70146Y-25278D01*
X70203Y-25240D01*
X70289Y-25240D01*
X70346Y-25278D01*
X70374Y-25316D01*
X70403Y-25392D01*
X70403Y-25621D01*
X70374Y-25697D01*
X70346Y-25735D01*
X70289Y-25773D01*
X70203Y-25773D01*
X70917Y-25773D02*
X70917Y-24973D01*
X70917Y-25735D02*
X70860Y-25773D01*
X70746Y-25773D01*
X70689Y-25735D01*
X70660Y-25697D01*
X70632Y-25621D01*
X70632Y-25392D01*
X70660Y-25316D01*
X70689Y-25278D01*
X70746Y-25240D01*
X70860Y-25240D01*
X70917Y-25278D01*
X71660Y-25354D02*
X71860Y-25354D01*
X71946Y-25773D02*
X71660Y-25773D01*
X71660Y-24973D01*
X71946Y-24973D01*
X72203Y-25773D02*
X72203Y-25240D01*
X72203Y-25392D02*
X72232Y-25316D01*
X72260Y-25278D01*
X72317Y-25240D01*
X72374Y-25240D01*
X72574Y-25773D02*
X72574Y-25240D01*
X72574Y-25392D02*
X72603Y-25316D01*
X72632Y-25278D01*
X72689Y-25240D01*
X72746Y-25240D01*
X73032Y-25773D02*
X72975Y-25735D01*
X72946Y-25697D01*
X72917Y-25621D01*
X72917Y-25392D01*
X72946Y-25316D01*
X72975Y-25278D01*
X73032Y-25240D01*
X73117Y-25240D01*
X73175Y-25278D01*
X73203Y-25316D01*
X73232Y-25392D01*
X73232Y-25621D01*
X73203Y-25697D01*
X73175Y-25735D01*
X73117Y-25773D01*
X73032Y-25773D01*
X73489Y-25773D02*
X73489Y-25240D01*
X73489Y-25392D02*
X73517Y-25316D01*
X73546Y-25278D01*
X73603Y-25240D01*
X73660Y-25240D01*
X73832Y-25735D02*
X73889Y-25773D01*
X74003Y-25773D01*
X74060Y-25735D01*
X74089Y-25659D01*
X74089Y-25621D01*
X74060Y-25545D01*
X74003Y-25507D01*
X73917Y-25507D01*
X73860Y-25469D01*
X73832Y-25392D01*
X73832Y-25354D01*
X73860Y-25278D01*
X73917Y-25240D01*
X74003Y-25240D01*
X74060Y-25278D01*
X74803Y-25469D02*
X75260Y-25469D01*
X76117Y-24973D02*
X76175Y-24973D01*
X76232Y-25012D01*
X76260Y-25050D01*
X76289Y-25126D01*
X76317Y-25278D01*
X76317Y-25469D01*
X76289Y-25621D01*
X76260Y-25697D01*
X76232Y-25735D01*
X76175Y-25773D01*
X76117Y-25773D01*
X76060Y-25735D01*
X76032Y-25697D01*
X76003Y-25621D01*
X75975Y-25469D01*
X75975Y-25278D01*
X76003Y-25126D01*
X76032Y-25050D01*
X76060Y-25012D01*
X76117Y-24973D01*
X64391Y-12113D02*
X64391Y-11313D01*
X64620Y-11313D01*
X64677Y-11352D01*
X64706Y-11390D01*
X64734Y-11466D01*
X64734Y-11580D01*
X64706Y-11656D01*
X64677Y-11694D01*
X64620Y-11732D01*
X64391Y-11732D01*
X65334Y-12037D02*
X65306Y-12075D01*
X65220Y-12113D01*
X65163Y-12113D01*
X65077Y-12075D01*
X65020Y-11999D01*
X64991Y-11923D01*
X64963Y-11771D01*
X64963Y-11656D01*
X64991Y-11504D01*
X65020Y-11428D01*
X65077Y-11352D01*
X65163Y-11313D01*
X65220Y-11313D01*
X65306Y-11352D01*
X65334Y-11390D01*
X65791Y-11694D02*
X65877Y-11732D01*
X65906Y-11771D01*
X65934Y-11847D01*
X65934Y-11961D01*
X65906Y-12037D01*
X65877Y-12075D01*
X65820Y-12113D01*
X65591Y-12113D01*
X65591Y-11313D01*
X65791Y-11313D01*
X65849Y-11352D01*
X65877Y-11390D01*
X65906Y-11466D01*
X65906Y-11542D01*
X65877Y-11618D01*
X65849Y-11656D01*
X65791Y-11694D01*
X65591Y-11694D01*
X66649Y-12113D02*
X66649Y-11313D01*
X66849Y-11885D01*
X67049Y-11313D01*
X67049Y-12113D01*
X67591Y-12113D02*
X67591Y-11694D01*
X67563Y-11618D01*
X67506Y-11580D01*
X67391Y-11580D01*
X67334Y-11618D01*
X67591Y-12075D02*
X67534Y-12113D01*
X67391Y-12113D01*
X67334Y-12075D01*
X67306Y-11999D01*
X67306Y-11923D01*
X67334Y-11847D01*
X67391Y-11809D01*
X67534Y-11809D01*
X67591Y-11771D01*
X67877Y-11580D02*
X67877Y-12113D01*
X67877Y-11656D02*
X67906Y-11618D01*
X67963Y-11580D01*
X68049Y-11580D01*
X68106Y-11618D01*
X68134Y-11694D01*
X68134Y-12113D01*
X68677Y-11580D02*
X68677Y-12113D01*
X68420Y-11580D02*
X68420Y-11999D01*
X68449Y-12075D01*
X68506Y-12113D01*
X68591Y-12113D01*
X68649Y-12075D01*
X68677Y-12037D01*
X68877Y-11580D02*
X69106Y-11580D01*
X68963Y-12113D02*
X68963Y-11428D01*
X68991Y-11352D01*
X69049Y-11313D01*
X69106Y-11313D01*
X69563Y-12113D02*
X69563Y-11694D01*
X69534Y-11618D01*
X69477Y-11580D01*
X69363Y-11580D01*
X69306Y-11618D01*
X69563Y-12075D02*
X69506Y-12113D01*
X69363Y-12113D01*
X69306Y-12075D01*
X69277Y-11999D01*
X69277Y-11923D01*
X69306Y-11847D01*
X69363Y-11809D01*
X69506Y-11809D01*
X69563Y-11771D01*
X70106Y-12075D02*
X70049Y-12113D01*
X69934Y-12113D01*
X69877Y-12075D01*
X69849Y-12037D01*
X69820Y-11961D01*
X69820Y-11732D01*
X69849Y-11656D01*
X69877Y-11618D01*
X69934Y-11580D01*
X70049Y-11580D01*
X70106Y-11618D01*
X70277Y-11580D02*
X70506Y-11580D01*
X70363Y-11313D02*
X70363Y-11999D01*
X70391Y-12075D01*
X70449Y-12113D01*
X70506Y-12113D01*
X70963Y-11580D02*
X70963Y-12113D01*
X70706Y-11580D02*
X70706Y-11999D01*
X70734Y-12075D01*
X70791Y-12113D01*
X70877Y-12113D01*
X70934Y-12075D01*
X70963Y-12037D01*
X71249Y-12113D02*
X71249Y-11580D01*
X71249Y-11732D02*
X71277Y-11656D01*
X71306Y-11618D01*
X71363Y-11580D01*
X71420Y-11580D01*
X71620Y-12113D02*
X71620Y-11580D01*
X71620Y-11313D02*
X71591Y-11352D01*
X71620Y-11390D01*
X71649Y-11352D01*
X71620Y-11313D01*
X71620Y-11390D01*
X71906Y-11580D02*
X71906Y-12113D01*
X71906Y-11656D02*
X71934Y-11618D01*
X71991Y-11580D01*
X72077Y-11580D01*
X72134Y-11618D01*
X72163Y-11694D01*
X72163Y-12113D01*
X72706Y-11580D02*
X72706Y-12228D01*
X72677Y-12304D01*
X72649Y-12342D01*
X72591Y-12380D01*
X72506Y-12380D01*
X72449Y-12342D01*
X72706Y-12075D02*
X72649Y-12113D01*
X72534Y-12113D01*
X72477Y-12075D01*
X72449Y-12037D01*
X72420Y-11961D01*
X72420Y-11732D01*
X72449Y-11656D01*
X72477Y-11618D01*
X72534Y-11580D01*
X72649Y-11580D01*
X72706Y-11618D01*
X73449Y-12113D02*
X73449Y-11313D01*
X73734Y-11580D02*
X73734Y-12113D01*
X73734Y-11656D02*
X73763Y-11618D01*
X73820Y-11580D01*
X73906Y-11580D01*
X73963Y-11618D01*
X73991Y-11694D01*
X73991Y-12113D01*
X74191Y-11580D02*
X74420Y-11580D01*
X74277Y-12113D02*
X74277Y-11428D01*
X74306Y-11352D01*
X74363Y-11313D01*
X74420Y-11313D01*
X74706Y-12113D02*
X74649Y-12075D01*
X74620Y-12037D01*
X74591Y-11961D01*
X74591Y-11732D01*
X74620Y-11656D01*
X74649Y-11618D01*
X74706Y-11580D01*
X74791Y-11580D01*
X74849Y-11618D01*
X74877Y-11656D01*
X74906Y-11732D01*
X74906Y-11961D01*
X74877Y-12037D01*
X74849Y-12075D01*
X74791Y-12113D01*
X74706Y-12113D01*
X75163Y-12113D02*
X75163Y-11580D01*
X75163Y-11732D02*
X75191Y-11656D01*
X75220Y-11618D01*
X75277Y-11580D01*
X75334Y-11580D01*
X75534Y-12113D02*
X75534Y-11580D01*
X75534Y-11656D02*
X75563Y-11618D01*
X75620Y-11580D01*
X75706Y-11580D01*
X75763Y-11618D01*
X75791Y-11694D01*
X75791Y-12113D01*
X75791Y-11694D02*
X75820Y-11618D01*
X75877Y-11580D01*
X75963Y-11580D01*
X76020Y-11618D01*
X76049Y-11694D01*
X76049Y-12113D01*
X76591Y-12113D02*
X76591Y-11694D01*
X76563Y-11618D01*
X76506Y-11580D01*
X76391Y-11580D01*
X76334Y-11618D01*
X76591Y-12075D02*
X76534Y-12113D01*
X76391Y-12113D01*
X76334Y-12075D01*
X76306Y-11999D01*
X76306Y-11923D01*
X76334Y-11847D01*
X76391Y-11809D01*
X76534Y-11809D01*
X76591Y-11771D01*
X76791Y-11580D02*
X77020Y-11580D01*
X76877Y-11313D02*
X76877Y-11999D01*
X76906Y-12075D01*
X76963Y-12113D01*
X77020Y-12113D01*
X77220Y-12113D02*
X77220Y-11580D01*
X77220Y-11313D02*
X77191Y-11352D01*
X77220Y-11390D01*
X77249Y-11352D01*
X77220Y-11313D01*
X77220Y-11390D01*
X77591Y-12113D02*
X77534Y-12075D01*
X77506Y-12037D01*
X77477Y-11961D01*
X77477Y-11732D01*
X77506Y-11656D01*
X77534Y-11618D01*
X77591Y-11580D01*
X77677Y-11580D01*
X77734Y-11618D01*
X77763Y-11656D01*
X77791Y-11732D01*
X77791Y-11961D01*
X77763Y-12037D01*
X77734Y-12075D01*
X77677Y-12113D01*
X77591Y-12113D01*
X78048Y-11580D02*
X78048Y-12113D01*
X78048Y-11656D02*
X78077Y-11618D01*
X78134Y-11580D01*
X78220Y-11580D01*
X78277Y-11618D01*
X78306Y-11694D01*
X78306Y-12113D01*
X64063Y-13049D02*
X64520Y-13049D01*
X64806Y-13049D02*
X65263Y-13049D01*
X65549Y-13049D02*
X66006Y-13049D01*
X66291Y-13049D02*
X66749Y-13049D01*
X67034Y-13049D02*
X67491Y-13049D01*
X67777Y-13049D02*
X68234Y-13049D01*
X68520Y-13049D02*
X68977Y-13049D01*
X69263Y-13049D02*
X69720Y-13049D01*
X70006Y-13049D02*
X70463Y-13049D01*
X70749Y-13049D02*
X71206Y-13049D01*
X71491Y-13049D02*
X71949Y-13049D01*
X72234Y-13049D02*
X72691Y-13049D01*
X72977Y-13049D02*
X73434Y-13049D01*
X73720Y-13049D02*
X74177Y-13049D01*
X74463Y-13049D02*
X74920Y-13049D01*
X75206Y-13049D02*
X75663Y-13049D01*
X75948Y-13049D02*
X76406Y-13049D01*
X76691Y-13049D02*
X77148Y-13049D01*
X77434Y-13049D02*
X77891Y-13049D01*
X78177Y-13049D02*
X78634Y-13049D01*
M02*
