G04 (created by PCBNEW (2013-mar-13)-testing) date Mon 05 Aug 2013 21:56:38 BST*
%MOIN*%
G04 Gerber Fmt 3.4, Leading zero omitted, Abs format*
%FSLAX34Y34*%
G01*
G70*
G90*
G04 APERTURE LIST*
%ADD10C,0.000787*%
%ADD11C,0.012000*%
%ADD12R,0.060000X0.060000*%
%ADD13C,0.060000*%
%ADD14R,0.055000X0.055000*%
%ADD15C,0.055000*%
%ADD16C,0.031600*%
%ADD17R,0.063000X0.063000*%
%ADD18R,0.196900X0.118100*%
%ADD19R,0.118100X0.196900*%
%ADD20C,0.059100*%
%ADD21C,0.070900*%
%ADD22C,0.196900*%
%ADD23C,0.118110*%
G04 APERTURE END LIST*
G54D10*
G54D11*
X5372Y-33797D02*
X5457Y-33835D01*
X5600Y-33835D01*
X5657Y-33797D01*
X5686Y-33759D01*
X5715Y-33683D01*
X5715Y-33607D01*
X5686Y-33531D01*
X5657Y-33493D01*
X5600Y-33454D01*
X5486Y-33416D01*
X5429Y-33378D01*
X5400Y-33340D01*
X5372Y-33264D01*
X5372Y-33188D01*
X5400Y-33112D01*
X5429Y-33074D01*
X5486Y-33035D01*
X5629Y-33035D01*
X5715Y-33074D01*
X6057Y-33835D02*
X6000Y-33797D01*
X5972Y-33759D01*
X5943Y-33683D01*
X5943Y-33454D01*
X5972Y-33378D01*
X6000Y-33340D01*
X6057Y-33302D01*
X6143Y-33302D01*
X6200Y-33340D01*
X6229Y-33378D01*
X6257Y-33454D01*
X6257Y-33683D01*
X6229Y-33759D01*
X6200Y-33797D01*
X6143Y-33835D01*
X6057Y-33835D01*
X6600Y-33835D02*
X6543Y-33797D01*
X6515Y-33721D01*
X6515Y-33035D01*
X7086Y-33835D02*
X7086Y-33035D01*
X7086Y-33797D02*
X7029Y-33835D01*
X6915Y-33835D01*
X6857Y-33797D01*
X6829Y-33759D01*
X6800Y-33683D01*
X6800Y-33454D01*
X6829Y-33378D01*
X6857Y-33340D01*
X6915Y-33302D01*
X7029Y-33302D01*
X7086Y-33340D01*
X7600Y-33797D02*
X7543Y-33835D01*
X7429Y-33835D01*
X7372Y-33797D01*
X7343Y-33721D01*
X7343Y-33416D01*
X7372Y-33340D01*
X7429Y-33302D01*
X7543Y-33302D01*
X7600Y-33340D01*
X7629Y-33416D01*
X7629Y-33493D01*
X7343Y-33569D01*
X7886Y-33835D02*
X7886Y-33302D01*
X7886Y-33454D02*
X7915Y-33378D01*
X7943Y-33340D01*
X8000Y-33302D01*
X8057Y-33302D01*
X8715Y-33835D02*
X8715Y-33035D01*
X8915Y-33607D01*
X9115Y-33035D01*
X9115Y-33835D01*
X9657Y-33835D02*
X9657Y-33416D01*
X9629Y-33340D01*
X9572Y-33302D01*
X9457Y-33302D01*
X9400Y-33340D01*
X9657Y-33797D02*
X9600Y-33835D01*
X9457Y-33835D01*
X9400Y-33797D01*
X9372Y-33721D01*
X9372Y-33645D01*
X9400Y-33569D01*
X9457Y-33531D01*
X9600Y-33531D01*
X9657Y-33493D01*
X9915Y-33797D02*
X9972Y-33835D01*
X10086Y-33835D01*
X10143Y-33797D01*
X10172Y-33721D01*
X10172Y-33683D01*
X10143Y-33607D01*
X10086Y-33569D01*
X10000Y-33569D01*
X9943Y-33531D01*
X9915Y-33454D01*
X9915Y-33416D01*
X9943Y-33340D01*
X10000Y-33302D01*
X10086Y-33302D01*
X10143Y-33340D01*
X10429Y-33835D02*
X10429Y-33035D01*
X10486Y-33531D02*
X10657Y-33835D01*
X10657Y-33302D02*
X10429Y-33607D01*
X11543Y-34140D02*
X11515Y-34102D01*
X11457Y-33988D01*
X11429Y-33912D01*
X11400Y-33797D01*
X11372Y-33607D01*
X11372Y-33454D01*
X11400Y-33264D01*
X11429Y-33150D01*
X11457Y-33074D01*
X11515Y-32959D01*
X11543Y-32921D01*
X11972Y-33416D02*
X12057Y-33454D01*
X12086Y-33493D01*
X12115Y-33569D01*
X12115Y-33683D01*
X12086Y-33759D01*
X12057Y-33797D01*
X12000Y-33835D01*
X11772Y-33835D01*
X11772Y-33035D01*
X11972Y-33035D01*
X12029Y-33074D01*
X12057Y-33112D01*
X12086Y-33188D01*
X12086Y-33264D01*
X12057Y-33340D01*
X12029Y-33378D01*
X11972Y-33416D01*
X11772Y-33416D01*
X12629Y-33835D02*
X12629Y-33416D01*
X12600Y-33340D01*
X12543Y-33302D01*
X12429Y-33302D01*
X12372Y-33340D01*
X12629Y-33797D02*
X12572Y-33835D01*
X12429Y-33835D01*
X12372Y-33797D01*
X12343Y-33721D01*
X12343Y-33645D01*
X12372Y-33569D01*
X12429Y-33531D01*
X12572Y-33531D01*
X12629Y-33493D01*
X13172Y-33797D02*
X13115Y-33835D01*
X13000Y-33835D01*
X12943Y-33797D01*
X12915Y-33759D01*
X12886Y-33683D01*
X12886Y-33454D01*
X12915Y-33378D01*
X12943Y-33340D01*
X13000Y-33302D01*
X13115Y-33302D01*
X13172Y-33340D01*
X13429Y-33835D02*
X13429Y-33035D01*
X13486Y-33531D02*
X13657Y-33835D01*
X13657Y-33302D02*
X13429Y-33607D01*
X13857Y-34140D02*
X13886Y-34102D01*
X13943Y-33988D01*
X13972Y-33912D01*
X14000Y-33797D01*
X14029Y-33607D01*
X14029Y-33454D01*
X14000Y-33264D01*
X13972Y-33150D01*
X13943Y-33074D01*
X13886Y-32959D01*
X13857Y-32921D01*
G54D12*
X45570Y-49008D03*
G54D13*
X45570Y-48008D03*
G54D12*
X46566Y-49008D03*
G54D13*
X46566Y-48008D03*
G54D12*
X46562Y-47008D03*
G54D13*
X46562Y-46008D03*
G54D12*
X22939Y-11242D03*
G54D13*
X22939Y-12242D03*
X21939Y-11242D03*
X21939Y-12242D03*
X20939Y-11242D03*
X20939Y-12242D03*
X19939Y-11242D03*
X19939Y-12242D03*
X18939Y-11242D03*
X18939Y-12242D03*
X17939Y-11242D03*
X17939Y-12242D03*
X16939Y-11242D03*
X16939Y-12242D03*
X15939Y-12242D03*
X15939Y-11242D03*
G54D14*
X22929Y-13248D03*
G54D15*
X21929Y-13248D03*
X20929Y-13248D03*
X19929Y-13248D03*
X18929Y-13248D03*
X17929Y-13248D03*
X16929Y-13248D03*
X15929Y-13248D03*
G54D16*
X20443Y-26348D03*
G54D14*
X38598Y-59459D03*
G54D15*
X37598Y-59459D03*
X36598Y-59459D03*
G54D17*
X24951Y-11250D03*
G54D18*
X47982Y-62041D03*
X47982Y-59581D03*
G54D19*
X49872Y-60762D03*
G54D20*
X20827Y-15315D03*
X26122Y-42894D03*
G54D21*
X30236Y-40069D03*
G54D16*
X22303Y-24567D03*
G54D12*
X18935Y-43630D03*
G54D13*
X17935Y-43630D03*
X18935Y-42630D03*
X17935Y-42630D03*
X18935Y-41630D03*
X17935Y-41630D03*
X18935Y-40630D03*
X17935Y-40630D03*
X18935Y-39630D03*
X17935Y-39630D03*
X18935Y-38630D03*
X17935Y-38630D03*
X18935Y-37630D03*
X17935Y-37630D03*
X18935Y-36630D03*
X17935Y-36630D03*
X18935Y-35630D03*
X17935Y-35630D03*
X18935Y-34630D03*
X17935Y-34630D03*
G54D16*
X26289Y-58593D03*
X27323Y-41427D03*
X53868Y-16516D03*
X53868Y-17579D03*
X52795Y-16496D03*
X51791Y-16496D03*
X22224Y-27136D03*
X51663Y-34311D03*
X51663Y-30679D03*
X50709Y-31673D03*
X22146Y-29203D03*
G54D22*
X19469Y-52953D03*
X51220Y-52953D03*
X39469Y-39715D03*
X20543Y-20567D03*
X47972Y-12992D03*
X35345Y-12992D03*
G54D12*
X46691Y-52966D03*
G54D13*
X46691Y-51966D03*
G54D12*
X18291Y-62854D03*
G54D13*
X19291Y-62854D03*
X20291Y-62854D03*
G54D12*
X22917Y-39134D03*
G54D13*
X23917Y-39134D03*
X24917Y-39134D03*
G54D12*
X21222Y-45522D03*
G54D13*
X22222Y-45522D03*
G54D12*
X21998Y-16563D03*
G54D13*
X21998Y-15563D03*
G54D21*
X30246Y-39104D03*
X22156Y-29990D03*
X22470Y-31329D03*
X39931Y-17205D03*
X39911Y-28110D03*
X20974Y-33858D03*
X17200Y-58700D03*
X19350Y-51289D03*
X54630Y-41854D03*
X55630Y-41850D03*
X53622Y-41850D03*
X53622Y-53543D03*
X54634Y-53543D03*
X55630Y-53543D03*
G54D23*
X29547Y-15089D03*
G54D12*
X36252Y-61783D03*
G54D13*
X36252Y-62783D03*
G54D12*
X24437Y-62874D03*
G54D13*
X23437Y-62874D03*
G54D12*
X37449Y-62783D03*
G54D13*
X37449Y-61783D03*
G54D12*
X24380Y-53846D03*
G54D13*
X24380Y-52846D03*
G54D12*
X37197Y-64244D03*
X47695Y-51966D03*
G54D13*
X47695Y-52966D03*
G54D12*
X47562Y-49007D03*
G54D13*
X47562Y-48007D03*
X47562Y-47007D03*
X47562Y-46007D03*
G54D12*
X15915Y-14236D03*
G54D13*
X15915Y-15236D03*
X15915Y-16236D03*
G54D12*
X37584Y-36301D03*
G54D13*
X37584Y-37301D03*
X36584Y-36301D03*
X36584Y-37301D03*
X35584Y-36301D03*
X35584Y-37301D03*
G54D12*
X46078Y-36301D03*
G54D13*
X46078Y-37301D03*
X45078Y-36301D03*
X45078Y-37301D03*
X44078Y-36301D03*
X44078Y-37301D03*
G54D12*
X37419Y-34263D03*
G54D13*
X37419Y-35263D03*
X36419Y-34263D03*
X36419Y-35263D03*
M02*
