M48
;DRILL file {Pcbnew (2012-01-19 BZR 3256)-stable} date Wed 26 Sep 2012 11:24:10 BST
;FORMAT={-:-/ absolute / inch / decimal}
FMAT,2
INCH,TZ
T1C0.008
T2C0.012
T3C0.020
T4C0.032
T5C0.039
T6C0.040
T7C0.047
%
G90
G05
M72
T1
X1.587Y2.875
X1.606Y4.811
X1.608Y2.205
X1.610Y3.032
X1.610Y3.071
X1.610Y5.087
X1.612Y3.110
X1.612Y3.150
X1.612Y3.189
X1.612Y3.228
X1.612Y3.268
X1.612Y3.307
X1.612Y3.347
X1.612Y3.386
X1.612Y4.949
X1.614Y2.894
X1.616Y4.535
X1.616Y4.673
X1.618Y2.845
X1.622Y2.343
X1.641Y1.728
X1.650Y2.106
X1.652Y2.028
X1.652Y2.185
X1.652Y2.146
X1.653Y1.949
X1.653Y1.988
X1.653Y2.461
X1.653Y2.520
X1.653Y2.815
X1.653Y2.913
X1.653Y3.091
X1.653Y3.130
X1.653Y3.169
X1.653Y3.209
X1.653Y3.248
X1.653Y3.287
X1.653Y3.327
X1.653Y3.366
X1.654Y3.051
X1.655Y2.323
X1.698Y3.780
X1.705Y3.514
X1.713Y1.894
X1.766Y1.959
X1.766Y3.351
X1.801Y2.010
X1.801Y2.193
X1.815Y1.472
X1.829Y1.894
X1.831Y1.547
X1.852Y1.472
X1.852Y6.175
X1.862Y1.705
X1.886Y5.888
X1.925Y2.173
X1.960Y6.168
X1.961Y1.734
X1.970Y1.375
X1.974Y3.575
X1.985Y6.092
X1.986Y6.136
X2.002Y2.514
X2.002Y3.224
X2.004Y4.573
X2.004Y4.813
X2.006Y5.871
X2.010Y6.180
X2.014Y3.567
X2.014Y2.220
X2.014Y2.461
X2.026Y2.766
X2.030Y6.136
X2.032Y6.093
X2.034Y4.843
X2.034Y5.089
X2.035Y4.433
X2.055Y4.173
X2.056Y1.376
X2.057Y2.501
X2.077Y3.911
X2.085Y4.063
X2.108Y3.900
X2.109Y2.857
X2.110Y4.431
X2.112Y1.921
X2.126Y4.065
X2.131Y3.819
X2.132Y4.136
X2.141Y3.608
X2.143Y4.405
X2.145Y3.900
X2.150Y5.996
X2.163Y4.362
X2.168Y4.431
X2.169Y4.065
X2.181Y3.900
X2.208Y1.985
X2.211Y6.122
X2.211Y6.159
X2.211Y6.201
X2.213Y4.069
X2.213Y4.433
X2.213Y5.949
X2.215Y2.389
X2.215Y3.502
X2.216Y4.977
X2.216Y4.297
X2.220Y2.501
X2.237Y1.985
X2.242Y3.777
X2.242Y3.901
X2.243Y2.327
X2.245Y1.700
X2.251Y1.621
X2.252Y4.839
X2.252Y4.871
X2.252Y4.943
X2.253Y4.905
X2.255Y1.663
X2.262Y3.049
X2.264Y6.120
X2.265Y6.160
X2.269Y1.866
X2.269Y1.974
X2.276Y2.089
X2.284Y3.734
X2.285Y3.663
X2.285Y3.795
X2.285Y4.187
X2.289Y3.835
X2.297Y1.293
X2.297Y1.339
X2.299Y2.677
X2.299Y4.901
X2.313Y6.120
X2.317Y4.248
X2.323Y1.316
X2.323Y1.459
X2.323Y2.722
X2.323Y2.766
X2.323Y4.870
X2.327Y5.833
X2.345Y1.488
X2.345Y2.654
X2.345Y2.803
X2.345Y4.905
X2.350Y3.860
X2.362Y4.030
X2.366Y1.287
X2.366Y1.433
X2.366Y2.508
X2.366Y2.697
X2.366Y4.839
X2.366Y4.947
X2.370Y1.131
X2.376Y5.852
X2.376Y5.894
X2.388Y1.403
X2.388Y2.628
X2.388Y4.992
X2.391Y3.680
X2.392Y1.313
X2.409Y2.742
X2.409Y2.929
X2.409Y2.980
X2.409Y3.795
X2.409Y5.032
X2.409Y5.177
X2.409Y5.228
X2.411Y3.012
X2.417Y1.518
X2.417Y1.610
X2.431Y1.980
X2.431Y5.075
X2.432Y4.510
X2.439Y1.847
X2.445Y1.565
X2.453Y3.567
X2.453Y4.941
X2.455Y4.835
X2.457Y3.630
X2.459Y4.045
X2.459Y4.114
X2.459Y5.815
X2.461Y2.955
X2.463Y1.980
X2.463Y2.833
X2.465Y2.327
X2.465Y3.201
X2.472Y2.534
X2.472Y2.778
X2.482Y3.595
X2.482Y4.797
X2.482Y5.203
X2.486Y4.870
X2.486Y4.994
X2.488Y5.035
X2.488Y5.079
X2.494Y4.075
X2.498Y3.630
X2.500Y3.049
X2.504Y5.856
X2.518Y5.413
X2.523Y1.957
X2.524Y1.917
X2.530Y2.386
X2.535Y5.911
X2.545Y4.894
X2.551Y2.327
X2.551Y2.843
X2.557Y2.459
X2.561Y5.945
X2.561Y6.110
X2.585Y5.415
X2.587Y1.919
X2.587Y4.020
X2.588Y1.955
X2.589Y3.965
X2.614Y2.874
X2.618Y2.778
X2.620Y3.770
X2.624Y2.931
X2.626Y1.919
X2.626Y2.534
X2.628Y4.732
X2.628Y5.445
X2.630Y5.905
X2.632Y4.797
X2.632Y5.203
X2.638Y5.035
X2.642Y3.825
X2.652Y4.988
X2.654Y2.803
X2.654Y5.118
X2.656Y5.941
X2.656Y6.100
X2.663Y3.201
X2.663Y3.874
X2.673Y5.061
X2.675Y1.697
X2.677Y1.634
X2.685Y3.821
X2.689Y2.508
X2.697Y3.035
X2.707Y3.791
X2.716Y1.201
X2.720Y2.573
X2.722Y4.772
X2.722Y5.445
X2.722Y5.908
X2.726Y1.634
X2.726Y1.697
X2.746Y5.278
X2.748Y4.846
X2.748Y5.939
X2.748Y6.118
X2.762Y3.963
X2.784Y4.106
X2.799Y5.750
X2.801Y3.488
X2.813Y4.614
X2.817Y1.831
X2.817Y3.888
X2.850Y1.140
X2.880Y4.666
X2.880Y5.785
X2.880Y2.425
X2.880Y3.545
X2.889Y1.140
X2.904Y3.813
X2.907Y4.691
X2.907Y2.451
X2.907Y3.571
X2.915Y2.089
X2.923Y6.443
X2.925Y3.961
X2.943Y6.024
X2.963Y6.445
X2.969Y4.045
X2.970Y5.997
X2.978Y1.826
X3.002Y6.445
X3.002Y5.961
X3.004Y3.591
X3.004Y5.892
X3.014Y3.634
X3.016Y4.537
X3.018Y2.295
X3.020Y4.486
X3.022Y2.506
X3.022Y4.789
X3.024Y3.366
X3.024Y3.417
X3.026Y2.242
X3.026Y5.602
X3.026Y5.650
X3.036Y4.459
X3.039Y2.740
X3.039Y4.384
X3.039Y4.425
X3.043Y5.500
X3.045Y2.076
X3.045Y3.254
X3.045Y5.687
X3.047Y3.447
X3.049Y3.211
X3.051Y3.654
X3.051Y5.441
X3.053Y2.535
X3.053Y3.341
X3.053Y3.394
X3.053Y4.514
X3.053Y4.750
X3.055Y2.181
X3.055Y2.219
X3.055Y3.291
X3.055Y5.579
X3.057Y5.535
X3.057Y5.626
X3.061Y2.136
X3.061Y2.262
X3.067Y4.567
X3.073Y2.585
X3.073Y3.707
X3.073Y4.799
X3.079Y2.075
X3.081Y2.317
X3.081Y5.667
X3.087Y1.132
X3.091Y4.534
X3.093Y2.535
X3.093Y3.654
X3.093Y4.750
X3.104Y3.405
X3.106Y2.287
X3.110Y2.074
X3.112Y2.585
X3.112Y3.707
X3.112Y4.799
X3.117Y1.777
X3.120Y5.659
X3.126Y1.130
X3.128Y5.073
X3.132Y2.535
X3.132Y3.654
X3.132Y4.750
X3.141Y2.073
X3.145Y1.504
X3.146Y2.289
X3.150Y4.532
X3.152Y2.585
X3.152Y3.707
X3.152Y4.799
X3.152Y6.202
X3.165Y1.530
X3.168Y5.864
X3.173Y2.071
X3.173Y3.409
X3.176Y2.313
X3.182Y6.231
X3.185Y1.504
X3.191Y2.535
X3.191Y3.652
X3.191Y4.750
X3.197Y6.390
X3.204Y2.072
X3.204Y1.530
X3.207Y6.260
X3.211Y2.583
X3.211Y3.707
X3.211Y4.799
X3.213Y3.238
X3.213Y4.329
X3.217Y5.465
X3.219Y6.290
X3.224Y1.504
X3.228Y3.437
X3.230Y2.535
X3.230Y3.652
X3.230Y4.750
X3.231Y5.684
X3.232Y2.315
X3.233Y2.071
X3.239Y6.388
X3.240Y4.508
X3.244Y1.104
X3.249Y2.164
X3.250Y2.583
X3.250Y3.707
X3.250Y4.799
X3.252Y1.884
X3.252Y4.431
X3.254Y3.008
X3.256Y4.124
X3.257Y2.191
X3.259Y5.693
X3.260Y5.236
X3.264Y5.522
X3.265Y2.071
X3.268Y3.282
X3.268Y4.390
X3.272Y5.571
X3.273Y3.331
X3.273Y4.451
X3.275Y3.370
X3.276Y2.250
X3.277Y2.211
X3.277Y5.610
X3.278Y4.490
X3.280Y5.882
X3.283Y1.532
X3.285Y3.057
X3.285Y4.175
X3.303Y1.506
X3.314Y2.523
X3.322Y1.532
X3.332Y6.023
X3.342Y3.584
X3.342Y4.716
X3.342Y1.508
X3.345Y2.461
X3.354Y5.829
X3.356Y6.439
X3.362Y1.534
X3.364Y4.199
X3.364Y5.319
X3.364Y1.959
X3.364Y3.079
X3.374Y2.740
X3.379Y5.905
X3.382Y1.100
X3.382Y2.555
X3.382Y3.568
X3.384Y4.227
X3.384Y5.346
X3.384Y1.986
X3.384Y3.106
X3.386Y2.451
X3.391Y4.692
X3.392Y5.812
X3.401Y1.880
X3.404Y2.331
X3.404Y3.435
X3.405Y4.553
X3.408Y4.596
X3.411Y3.480
X3.411Y5.679
X3.411Y5.719
X3.413Y2.410
X3.413Y4.291
X3.431Y2.364
X3.439Y2.577
X3.439Y2.632
X3.441Y1.903
X3.449Y2.065
X3.455Y3.173
X3.457Y4.285
X3.457Y5.423
X3.469Y2.488
X3.469Y2.719
X3.474Y6.443
X3.475Y6.260
X3.480Y4.658
X3.489Y3.597
X3.498Y2.581
X3.498Y2.681
X3.502Y4.969
X3.522Y4.508
X3.524Y4.457
X3.526Y4.333
X3.526Y4.372
X3.526Y4.411
X3.526Y4.908
X3.528Y5.453
X3.528Y5.492
X3.528Y5.532
X3.528Y5.571
X3.528Y5.610
X3.537Y3.213
X3.537Y3.252
X3.537Y3.291
X3.537Y3.331
X3.537Y3.372
X3.541Y2.715
X3.545Y2.606
X3.547Y2.514
X3.551Y5.947
X3.557Y2.093
X3.557Y2.132
X3.557Y2.171
X3.557Y2.211
X3.575Y3.554
X3.579Y4.431
X3.579Y4.484
X3.579Y4.530
X3.581Y4.392
X3.583Y4.352
X3.595Y5.472
X3.595Y5.512
X3.595Y5.551
X3.595Y5.591
X3.595Y5.630
X3.598Y3.232
X3.600Y3.272
X3.600Y3.311
X3.602Y2.112
X3.602Y2.152
X3.602Y2.191
X3.602Y2.230
X3.602Y3.350
X3.602Y3.394
X3.620Y4.750
X3.622Y4.841
X3.630Y4.974
X3.638Y2.352
X3.644Y2.250
X3.675Y3.658
X3.679Y2.280
X3.696Y3.575
X3.703Y2.659
X3.711Y2.606
X3.711Y2.715
X3.713Y2.514
X3.725Y3.658
X3.728Y3.343
X3.766Y2.488
X3.766Y2.606
X3.774Y4.908
X3.778Y4.974
X3.780Y4.940
X3.782Y4.750
X3.784Y4.841
X3.791Y2.539
X3.795Y1.577
X3.795Y1.626
X3.811Y4.724
X3.819Y2.490
X3.825Y2.443
X3.839Y4.776
X3.843Y6.278
X3.846Y1.293
X3.852Y1.429
X3.858Y2.581
X3.860Y2.659
X3.866Y4.628
X3.866Y4.724
X3.886Y4.815
X3.892Y5.429
X3.894Y5.711
X3.894Y6.034
X3.896Y3.486
X3.903Y3.451
X3.905Y2.770
X3.908Y2.347
X3.909Y3.187
X3.911Y1.516
X3.911Y1.597
X3.917Y1.474
X3.917Y4.632
X3.919Y6.077
X3.923Y1.104
X3.925Y6.437
X3.933Y2.604
X3.943Y5.701
X3.945Y5.000
X3.949Y2.343
X3.954Y3.606
X3.963Y1.134
X3.965Y6.402
X3.971Y4.553
X3.971Y6.063
X3.976Y1.339
X3.978Y4.666
X3.978Y5.785
X3.978Y2.425
X3.978Y3.545
X3.980Y3.630
X3.990Y4.866
X4.002Y1.104
X4.006Y4.691
X4.006Y5.811
X4.006Y2.451
X4.006Y3.571
X4.014Y3.212
X4.022Y1.134
X4.024Y6.402
X4.030Y6.066
X4.042Y1.102
X4.043Y6.443
X4.063Y6.040
X4.067Y5.857
X4.079Y4.974
X4.083Y4.770
X4.085Y5.221
X4.096Y6.035
X4.114Y5.658
X4.118Y4.537
X4.120Y2.295
X4.120Y3.415
X4.122Y5.604
X4.124Y2.242
X4.124Y2.516
X4.124Y3.360
X4.124Y4.484
X4.125Y3.545
X4.140Y5.500
X4.142Y3.252
X4.144Y4.378
X4.146Y5.636
X4.150Y2.134
X4.150Y2.175
X4.152Y2.535
X4.152Y3.667
X4.152Y4.459
X4.152Y4.512
X4.152Y4.766
X4.154Y2.219
X4.154Y2.270
X4.154Y3.217
X4.154Y3.392
X4.154Y5.579
X4.155Y3.339
X4.155Y4.415
X4.155Y5.445
X4.158Y3.295
X4.158Y5.537
X4.159Y6.106
X4.161Y6.230
X4.163Y4.569
X4.165Y2.329
X4.165Y5.689
X4.167Y3.449
X4.171Y2.585
X4.171Y3.732
X4.171Y4.813
X4.179Y1.136
X4.183Y2.293
X4.187Y4.534
X4.189Y3.415
X4.191Y2.535
X4.191Y3.667
X4.191Y4.766
X4.193Y4.312
X4.211Y2.585
X4.211Y3.732
X4.211Y4.544
X4.211Y4.813
X4.211Y5.663
X4.213Y3.101
X4.219Y6.264
X4.219Y1.134
X4.221Y6.402
X4.221Y4.314
X4.228Y3.413
X4.230Y2.535
X4.230Y3.667
X4.230Y4.766
X4.238Y1.252
X4.250Y2.585
X4.250Y3.734
X4.250Y4.310
X4.250Y4.813
X4.258Y1.299
X4.268Y2.297
X4.270Y5.841
X4.278Y1.252
X4.285Y4.309
X4.289Y2.535
X4.289Y3.667
X4.289Y4.766
X4.297Y1.299
X4.301Y3.441
X4.309Y2.585
X4.309Y3.736
X4.309Y4.813
X4.311Y2.087
X4.311Y5.474
X4.317Y1.252
X4.318Y3.412
X4.323Y4.309
X4.327Y2.315
X4.329Y2.535
X4.329Y3.669
X4.329Y4.766
X4.335Y1.561
X4.337Y1.101
X4.339Y5.646
X4.339Y6.382
X4.348Y2.216
X4.348Y2.585
X4.348Y3.738
X4.348Y4.813
X4.348Y5.693
X4.350Y2.150
X4.352Y4.116
X4.352Y4.429
X4.356Y2.191
X4.356Y1.134
X4.358Y1.742
X4.358Y6.421
X4.359Y5.532
X4.360Y3.004
X4.362Y4.404
X4.362Y5.207
X4.363Y4.373
X4.364Y5.980
X4.367Y5.571
X4.368Y3.291
X4.370Y3.331
X4.373Y3.370
X4.374Y2.250
X4.374Y4.451
X4.376Y1.252
X4.376Y1.886
X4.376Y4.490
X4.376Y5.610
X4.386Y5.900
X4.396Y1.307
X4.413Y3.491
X4.415Y1.252
X4.421Y2.526
X4.429Y5.874
X4.435Y1.307
X4.441Y4.716
X4.442Y3.592
X4.455Y1.252
X4.460Y2.608
X4.461Y6.264
X4.462Y4.199
X4.462Y5.319
X4.463Y1.959
X4.463Y3.079
X4.463Y5.829
X4.466Y2.441
X4.474Y1.134
X4.476Y6.382
X4.482Y4.227
X4.482Y5.347
X4.492Y3.100
X4.493Y4.690
X4.498Y5.807
X4.500Y3.587
X4.504Y2.317
X4.504Y2.358
X4.506Y3.433
X4.508Y3.480
X4.512Y5.679
X4.514Y2.012
X4.514Y4.555
X4.514Y5.719
X4.516Y4.594
X4.528Y5.370
X4.532Y5.772
X4.539Y3.142
X4.551Y2.069
X4.551Y4.268
X4.598Y5.453
X4.598Y5.492
X4.598Y5.532
X4.598Y5.571
X4.598Y5.612
X4.603Y4.558
X4.612Y2.534
X4.620Y4.451
X4.620Y4.333
X4.620Y4.372
X4.620Y4.411
X4.620Y4.492
X4.622Y3.456
X4.642Y3.232
X4.642Y3.272
X4.642Y3.311
X4.642Y3.350
X4.642Y3.390
X4.648Y2.093
X4.648Y2.132
X4.648Y2.171
X4.667Y5.472
X4.667Y5.512
X4.667Y5.551
X4.667Y5.591
X4.667Y5.636
X4.677Y2.502
X4.703Y4.352
X4.704Y4.392
X4.705Y4.431
X4.705Y4.471
X4.705Y4.514
X4.713Y2.112
X4.713Y2.152
X4.716Y3.213
X4.716Y3.252
X4.716Y3.291
X4.716Y3.331
X4.716Y3.370
X4.746Y2.191
X4.750Y2.230
X4.770Y2.295
X4.774Y4.641
X4.789Y2.211
X4.791Y2.258
X4.866Y2.394
X4.901Y3.354
X4.931Y4.868
X4.945Y5.675
X4.947Y1.652
X4.951Y3.955
X4.953Y3.996
X4.959Y1.719
X4.959Y3.911
X4.972Y4.028
X4.974Y3.205
X4.984Y4.561
X4.984Y4.813
X4.988Y2.146
X4.998Y3.242
X4.998Y3.394
X5.000Y2.181
X5.016Y2.466
X5.016Y4.845
X5.016Y5.085
X5.024Y3.209
X5.028Y2.043
X5.043Y3.691
X5.055Y3.132
X5.071Y2.065
X5.071Y3.207
X5.077Y6.004
X5.096Y3.240
X5.096Y3.392
X5.096Y6.055
X5.098Y3.854
X5.100Y3.748
X5.102Y3.817
X5.104Y2.085
X5.108Y2.122
X5.116Y6.116
X5.118Y2.161
X5.123Y3.680
X5.138Y3.030
X5.140Y2.569
X5.142Y3.817
X5.146Y3.748
X5.150Y6.053
X5.175Y2.191
X5.181Y6.262
X5.187Y1.939
X5.187Y5.583
X5.189Y4.045
X5.193Y3.236
X5.193Y3.394
X5.213Y6.297
X5.219Y3.187
X5.230Y1.728
X5.232Y1.266
X5.242Y3.967
X5.244Y6.272
X5.258Y5.522
X5.261Y3.641
X5.266Y3.994
X5.297Y1.858
X5.300Y3.718
X5.303Y3.684
X5.315Y5.508
X5.321Y3.969
X5.325Y3.931
X5.368Y3.978
X5.380Y5.520
X5.384Y3.776
X5.384Y1.965
X5.407Y3.977
X5.415Y5.583
X5.431Y6.299
X5.439Y6.221
X5.439Y6.358
X5.449Y3.980
X5.466Y4.404
X5.474Y6.104
X5.488Y3.984
X5.492Y3.028
X5.492Y3.067
X5.492Y3.106
X5.492Y3.146
X5.492Y3.185
X5.492Y3.224
X5.492Y3.264
X5.492Y3.303
X5.492Y3.343
X5.492Y3.382
X5.496Y1.984
X5.496Y2.102
X5.496Y2.142
X5.498Y1.945
X5.498Y2.024
X5.498Y2.181
X5.516Y2.319
X5.524Y2.201
X5.534Y3.047
X5.534Y3.087
X5.534Y3.126
X5.534Y3.165
X5.534Y3.205
X5.534Y3.244
X5.534Y3.284
X5.534Y3.323
X5.535Y2.457
X5.535Y2.516
X5.535Y2.811
X5.535Y3.362
X5.539Y4.945
X5.541Y2.890
X5.543Y4.669
X5.545Y4.807
X5.551Y4.532
X5.561Y5.083
X5.589Y1.724
X5.591Y1.652
T2
X1.921Y6.181
X2.010Y3.905
X2.192Y5.994
X2.200Y1.864
X2.337Y4.220
X2.610Y1.803
X2.612Y1.761
X2.780Y3.183
X2.780Y4.305
X2.782Y4.230
X2.785Y5.421
X2.797Y2.067
X2.797Y2.368
X2.801Y4.175
X2.815Y5.303
X2.827Y3.020
X2.835Y4.134
X2.837Y1.919
X2.841Y5.262
X2.843Y5.716
X2.847Y2.345
X2.847Y3.467
X2.847Y4.587
X2.852Y2.972
X2.860Y1.864
X2.860Y3.055
X2.878Y5.230
X2.909Y2.976
X2.911Y5.811
X2.913Y1.864
X2.984Y5.224
X2.990Y2.965
X2.990Y4.093
X2.992Y1.864
X2.996Y4.711
X3.000Y2.461
X3.002Y5.837
X3.104Y4.404
X3.104Y4.441
X3.104Y4.479
X3.104Y5.524
X3.104Y5.561
X3.104Y5.598
X3.104Y2.163
X3.104Y2.201
X3.104Y2.238
X3.104Y3.283
X3.104Y3.321
X3.104Y3.358
X3.142Y4.404
X3.142Y4.479
X3.142Y5.524
X3.142Y5.598
X3.142Y2.163
X3.142Y2.238
X3.142Y3.283
X3.142Y3.358
X3.142Y4.441
X3.142Y5.561
X3.142Y2.201
X3.142Y3.321
X3.179Y4.404
X3.179Y4.441
X3.179Y4.479
X3.179Y5.524
X3.179Y5.561
X3.179Y5.598
X3.179Y2.163
X3.179Y2.201
X3.179Y2.238
X3.179Y3.283
X3.179Y3.321
X3.179Y3.358
X3.280Y5.293
X3.284Y2.469
X3.285Y3.589
X3.285Y4.713
X3.287Y1.935
X3.287Y5.835
X3.408Y3.169
X3.409Y2.049
X3.409Y5.404
X3.429Y4.648
X3.429Y5.768
X3.435Y3.530
X3.890Y4.307
X3.900Y2.065
X3.931Y4.585
X3.933Y1.902
X3.939Y3.465
X3.939Y4.185
X3.949Y1.858
X3.957Y5.311
X3.959Y1.943
X3.959Y2.986
X3.959Y3.063
X3.959Y4.132
X3.963Y5.224
X3.963Y5.268
X4.008Y2.972
X4.010Y4.104
X4.014Y1.858
X4.089Y1.843
X4.089Y2.965
X4.091Y4.102
X4.093Y3.581
X4.095Y5.831
X4.100Y4.721
X4.104Y2.461
X4.203Y4.404
X4.203Y4.441
X4.203Y4.479
X4.203Y5.524
X4.203Y5.561
X4.203Y5.599
X4.203Y2.163
X4.203Y2.201
X4.203Y2.238
X4.203Y3.284
X4.203Y3.321
X4.203Y3.358
X4.240Y4.404
X4.240Y4.479
X4.240Y5.524
X4.240Y5.599
X4.240Y2.163
X4.240Y2.238
X4.240Y3.284
X4.240Y3.358
X4.240Y4.441
X4.240Y5.561
X4.240Y2.201
X4.240Y3.321
X4.277Y4.404
X4.277Y4.441
X4.277Y4.479
X4.277Y5.524
X4.277Y5.561
X4.277Y5.599
X4.277Y2.163
X4.277Y2.201
X4.277Y2.238
X4.277Y3.284
X4.277Y3.321
X4.277Y3.358
X4.378Y4.715
X4.380Y3.053
X4.382Y5.839
X4.384Y1.935
X4.384Y2.473
X4.384Y3.589
X4.384Y4.175
X4.384Y5.297
X4.504Y5.415
X4.506Y2.059
X4.508Y3.177
X4.510Y4.291
X4.518Y2.410
X4.532Y3.530
X4.547Y4.657
X5.108Y5.811
X5.108Y5.872
X5.144Y4.437
X5.171Y5.811
X5.171Y5.874
X5.362Y4.301
X5.362Y5.234
X5.382Y5.882
X5.435Y6.047
X5.439Y5.925
X5.463Y5.221
X5.494Y5.797
X5.494Y6.051
X5.541Y6.102
T3
X2.044Y2.635
X2.215Y2.920
X2.222Y2.714
X2.230Y2.457
X2.629Y5.859
X2.732Y4.143
X5.071Y3.167
X5.166Y3.068
X5.166Y3.431
X5.179Y1.650
X5.280Y1.650
X5.387Y1.652
X5.387Y1.758
T4
X1.720Y5.870
X1.935Y5.129
X2.097Y3.386
X2.216Y2.999
X2.247Y3.133
X3.024Y4.007
X3.025Y3.910
X3.991Y2.811
X3.993Y1.721
X5.118Y5.652
X5.303Y3.637
X5.494Y5.732
X5.500Y5.868
T5
X1.594Y1.124
X1.594Y1.224
X1.694Y1.124
X1.694Y1.224
X1.794Y1.124
X1.794Y1.224
X1.894Y1.124
X1.894Y1.224
X1.994Y1.124
X1.994Y1.224
X2.083Y1.532
X2.094Y1.124
X2.094Y1.224
X2.194Y1.124
X2.194Y1.224
X2.294Y1.124
X2.294Y1.224
X2.612Y4.289
X3.660Y5.946
X3.760Y5.946
X3.860Y5.946
X5.362Y4.185
X5.362Y5.354
X5.463Y4.185
X5.463Y5.354
X5.563Y4.185
X5.563Y5.354
T6
X1.794Y3.463
X1.794Y3.563
X1.794Y3.663
X1.794Y3.763
X1.794Y3.863
X1.794Y3.963
X1.794Y4.063
X1.794Y4.163
X1.794Y4.263
X1.794Y4.363
X1.829Y6.285
X1.894Y3.463
X1.894Y3.563
X1.894Y3.663
X1.894Y3.763
X1.894Y3.863
X1.894Y3.963
X1.894Y4.063
X1.894Y4.163
X1.894Y4.263
X1.894Y4.363
X1.929Y6.285
X2.029Y6.285
X2.122Y4.552
X2.200Y1.556
X2.200Y1.656
X2.222Y4.552
X2.292Y3.913
X2.344Y6.287
X2.392Y3.913
X2.438Y5.285
X2.438Y5.385
X2.444Y6.287
X2.492Y3.913
X2.495Y1.125
X3.625Y6.178
X3.625Y6.278
X3.720Y6.424
X3.745Y6.178
X3.745Y6.278
X4.716Y4.601
X4.716Y4.701
X4.717Y4.801
X4.717Y4.901
X4.741Y3.653
X4.741Y3.753
X4.841Y3.653
X4.841Y3.753
T7
X4.749Y5.958G85X4.847Y5.958
G05
X4.749Y6.204G85X4.847Y6.204
G05
X4.987Y6.037G85X4.987Y6.116
G05
T0
M30
