G04 (created by PCBNEW-RS274X (2012-01-19 BZR 3256)-stable) date Tue 25 Sep 2012 19:39:51 BST*
G01*
G70*
G90*
%MOIN*%
G04 Gerber Fmt 3.4, Leading zero omitted, Abs format*
%FSLAX34Y34*%
G04 APERTURE LIST*
%ADD10C,0.009800*%
%ADD11C,0.012000*%
%ADD12R,0.055000X0.055000*%
%ADD13C,0.055000*%
%ADD14R,0.063000X0.063000*%
%ADD15R,0.060000X0.060000*%
%ADD16C,0.060000*%
%ADD17R,0.196900X0.118100*%
%ADD18R,0.118100X0.196900*%
%ADD19C,0.059100*%
%ADD20C,0.078700*%
%ADD21C,0.039400*%
%ADD22C,0.196900*%
%ADD23C,0.035400*%
%ADD24C,0.031500*%
%ADD25C,0.019700*%
%ADD26C,0.023600*%
%ADD27C,0.055100*%
%ADD28C,0.039400*%
%ADD29C,0.005900*%
%ADD30C,0.019700*%
%ADD31C,0.011800*%
%ADD32C,0.002000*%
G04 APERTURE END LIST*
G54D10*
G54D11*
X05703Y-26220D02*
X05417Y-26220D01*
X05417Y-25420D01*
X06160Y-26220D02*
X06160Y-25801D01*
X06131Y-25725D01*
X06074Y-25686D01*
X05960Y-25686D01*
X05903Y-25725D01*
X06160Y-26182D02*
X06103Y-26220D01*
X05960Y-26220D01*
X05903Y-26182D01*
X05874Y-26106D01*
X05874Y-26029D01*
X05903Y-25953D01*
X05960Y-25915D01*
X06103Y-25915D01*
X06160Y-25877D01*
X06389Y-25686D02*
X06532Y-26220D01*
X06674Y-25686D02*
X06532Y-26220D01*
X06474Y-26410D01*
X06446Y-26448D01*
X06389Y-26486D01*
X07131Y-26182D02*
X07074Y-26220D01*
X06960Y-26220D01*
X06903Y-26182D01*
X06874Y-26106D01*
X06874Y-25801D01*
X06903Y-25725D01*
X06960Y-25686D01*
X07074Y-25686D01*
X07131Y-25725D01*
X07160Y-25801D01*
X07160Y-25877D01*
X06874Y-25953D01*
X07417Y-26220D02*
X07417Y-25686D01*
X07417Y-25839D02*
X07445Y-25763D01*
X07474Y-25725D01*
X07531Y-25686D01*
X07588Y-25686D01*
X08359Y-25420D02*
X08416Y-25420D01*
X08473Y-25458D01*
X08502Y-25496D01*
X08531Y-25572D01*
X08559Y-25725D01*
X08559Y-25915D01*
X08531Y-26067D01*
X08502Y-26144D01*
X08473Y-26182D01*
X08416Y-26220D01*
X08359Y-26220D01*
X08302Y-26182D01*
X08273Y-26144D01*
X08245Y-26067D01*
X08216Y-25915D01*
X08216Y-25725D01*
X08245Y-25572D01*
X08273Y-25496D01*
X08302Y-25458D01*
X08359Y-25420D01*
X09073Y-25686D02*
X09073Y-26220D01*
X08930Y-25382D02*
X08787Y-25953D01*
X09159Y-25953D01*
X10015Y-26525D02*
X09987Y-26486D01*
X09930Y-26372D01*
X09901Y-26296D01*
X09872Y-26182D01*
X09844Y-25991D01*
X09844Y-25839D01*
X09872Y-25648D01*
X09901Y-25534D01*
X09930Y-25458D01*
X09987Y-25344D01*
X10015Y-25306D01*
X10444Y-25801D02*
X10530Y-25839D01*
X10558Y-25877D01*
X10587Y-25953D01*
X10587Y-26067D01*
X10558Y-26144D01*
X10530Y-26182D01*
X10472Y-26220D01*
X10244Y-26220D01*
X10244Y-25420D01*
X10444Y-25420D01*
X10501Y-25458D01*
X10530Y-25496D01*
X10558Y-25572D01*
X10558Y-25648D01*
X10530Y-25725D01*
X10501Y-25763D01*
X10444Y-25801D01*
X10244Y-25801D01*
X10958Y-25420D02*
X11072Y-25420D01*
X11130Y-25458D01*
X11187Y-25534D01*
X11215Y-25686D01*
X11215Y-25953D01*
X11187Y-26106D01*
X11130Y-26182D01*
X11072Y-26220D01*
X10958Y-26220D01*
X10901Y-26182D01*
X10844Y-26106D01*
X10815Y-25953D01*
X10815Y-25686D01*
X10844Y-25534D01*
X10901Y-25458D01*
X10958Y-25420D01*
X11387Y-25420D02*
X11730Y-25420D01*
X11559Y-26220D02*
X11559Y-25420D01*
X11873Y-26525D02*
X11901Y-26486D01*
X11958Y-26372D01*
X11987Y-26296D01*
X12016Y-26182D01*
X12044Y-25991D01*
X12044Y-25839D01*
X12016Y-25648D01*
X11987Y-25534D01*
X11958Y-25458D01*
X11901Y-25344D01*
X11873Y-25306D01*
G54D12*
X38598Y-59459D03*
G54D13*
X37598Y-59459D03*
X36598Y-59459D03*
G54D14*
X24951Y-11250D03*
G54D15*
X22939Y-11242D03*
G54D16*
X22939Y-12242D03*
X21939Y-11242D03*
X21939Y-12242D03*
X20939Y-11242D03*
X20939Y-12242D03*
X19939Y-11242D03*
X19939Y-12242D03*
X18939Y-11242D03*
X18939Y-12242D03*
X17939Y-11242D03*
X17939Y-12242D03*
X16939Y-11242D03*
X16939Y-12242D03*
X15939Y-12242D03*
X15939Y-11242D03*
G54D17*
X47982Y-62041D03*
X47982Y-59581D03*
G54D18*
X49872Y-60762D03*
G54D19*
X20827Y-15315D03*
X26122Y-42894D03*
G54D20*
X30236Y-40069D03*
G54D21*
X22303Y-24567D03*
G54D15*
X18935Y-43630D03*
G54D16*
X17935Y-43630D03*
X18935Y-42630D03*
X17935Y-42630D03*
X18935Y-41630D03*
X17935Y-41630D03*
X18935Y-40630D03*
X17935Y-40630D03*
X18935Y-39630D03*
X17935Y-39630D03*
X18935Y-38630D03*
X17935Y-38630D03*
X18935Y-37630D03*
X17935Y-37630D03*
X18935Y-36630D03*
X17935Y-36630D03*
X18935Y-35630D03*
X17935Y-35630D03*
X18935Y-34630D03*
X17935Y-34630D03*
G54D21*
X26289Y-58593D03*
X27323Y-41427D03*
X53868Y-16516D03*
X53868Y-17579D03*
X52795Y-16496D03*
X51791Y-16496D03*
X22224Y-27136D03*
X51663Y-34311D03*
X51663Y-30679D03*
X50709Y-31673D03*
X22146Y-29203D03*
G54D22*
X19469Y-52953D03*
X51220Y-52953D03*
X39469Y-39715D03*
X20543Y-20567D03*
X47972Y-12992D03*
G54D21*
X20443Y-26348D03*
G54D22*
X35345Y-12992D03*
G54D15*
X48337Y-37528D03*
G54D16*
X48337Y-36528D03*
G54D15*
X18291Y-62854D03*
G54D16*
X19291Y-62854D03*
X20291Y-62854D03*
G54D15*
X22917Y-39134D03*
G54D16*
X23917Y-39134D03*
X24917Y-39134D03*
G54D15*
X21222Y-45522D03*
G54D16*
X22222Y-45522D03*
G54D15*
X21998Y-16563D03*
G54D16*
X21998Y-15563D03*
G54D15*
X47165Y-47008D03*
G54D16*
X47165Y-46008D03*
G54D15*
X47169Y-49008D03*
G54D16*
X47169Y-48008D03*
G54D20*
X30246Y-39104D03*
X22156Y-29990D03*
X22470Y-31329D03*
X39931Y-17205D03*
X39911Y-28110D03*
X20974Y-33858D03*
X17200Y-58700D03*
X19350Y-51289D03*
X54630Y-41854D03*
X55630Y-41850D03*
X53622Y-41850D03*
X53622Y-53543D03*
X54634Y-53543D03*
X55630Y-53543D03*
G54D22*
X29547Y-15089D03*
G54D15*
X36252Y-61783D03*
G54D16*
X36252Y-62783D03*
G54D15*
X24437Y-62874D03*
G54D16*
X23437Y-62874D03*
G54D15*
X37449Y-62783D03*
G54D16*
X37449Y-61783D03*
G54D15*
X24380Y-53846D03*
G54D16*
X24380Y-52846D03*
G54D15*
X37197Y-64244D03*
X47274Y-37528D03*
G54D16*
X47274Y-36528D03*
G54D23*
X51713Y-58740D03*
X51083Y-58110D03*
X51713Y-58110D03*
X51083Y-58720D03*
G54D24*
X38996Y-20650D03*
G54D25*
X50965Y-32402D03*
X52996Y-37177D03*
G54D26*
X28169Y-38878D03*
G54D25*
X52323Y-12657D03*
G54D26*
X52972Y-18583D03*
G54D24*
X45098Y-42913D03*
G54D26*
X39094Y-31870D03*
G54D25*
X26319Y-52028D03*
X26378Y-50354D03*
G54D26*
X39488Y-23425D03*
G54D25*
X25295Y-23858D03*
X49528Y-39961D03*
G54D26*
X25866Y-40197D03*
G54D25*
X26181Y-27776D03*
X49980Y-32421D03*
G54D23*
X51437Y-44370D03*
G54D24*
X34094Y-20493D03*
X45039Y-54153D03*
X28425Y-57165D03*
G54D26*
X49587Y-39114D03*
X38464Y-12933D03*
X52614Y-36409D03*
G54D25*
X27481Y-61182D03*
G54D24*
X34291Y-57677D03*
G54D26*
X38425Y-62776D03*
X35748Y-35541D03*
G54D24*
X27972Y-20669D03*
X34134Y-42913D03*
G54D26*
X18524Y-14715D03*
G54D24*
X34075Y-31692D03*
G54D26*
X38917Y-54291D03*
G54D24*
X28465Y-34665D03*
G54D25*
X26319Y-47972D03*
G54D24*
X34094Y-54035D03*
G54D25*
X22195Y-25010D03*
G54D24*
X28465Y-45866D03*
X27795Y-43051D03*
G54D25*
X26260Y-25335D03*
G54D24*
X27854Y-54213D03*
G54D25*
X37106Y-27145D03*
G54D24*
X34291Y-46476D03*
G54D26*
X17126Y-18937D03*
G54D24*
X28465Y-23445D03*
G54D25*
X51929Y-32362D03*
X26240Y-29311D03*
G54D24*
X38898Y-43071D03*
G54D25*
X25611Y-61103D03*
G54D24*
X34350Y-35295D03*
X39390Y-34645D03*
G54D27*
X53031Y-36374D03*
G54D26*
X18287Y-18937D03*
G54D25*
X37835Y-48406D03*
X37125Y-25137D03*
X49508Y-39547D03*
G54D26*
X24173Y-15177D03*
G54D24*
X45059Y-20592D03*
G54D25*
X53031Y-36839D03*
G54D24*
X45315Y-35295D03*
G54D25*
X37106Y-26062D03*
X49724Y-40276D03*
G54D24*
X39311Y-45846D03*
G54D26*
X18307Y-15472D03*
G54D25*
X21093Y-28573D03*
G54D24*
X45079Y-31771D03*
X39429Y-57008D03*
G54D26*
X36752Y-36575D03*
G54D24*
X45177Y-24096D03*
G54D25*
X45315Y-57717D03*
G54D26*
X48661Y-23937D03*
G54D24*
X45472Y-46574D03*
G54D25*
X37776Y-49744D03*
G54D23*
X27795Y-31831D03*
G54D26*
X34134Y-24096D03*
G54D25*
X37815Y-47500D03*
X26556Y-61004D03*
G54D26*
X18150Y-14724D03*
X24173Y-16102D03*
X27835Y-41063D03*
X21319Y-41358D03*
X20059Y-58711D03*
X21407Y-36083D03*
X25886Y-39646D03*
G54D25*
X52421Y-39665D03*
G54D24*
X26102Y-18031D03*
G54D25*
X53209Y-39685D03*
G54D26*
X22126Y-59488D03*
X23169Y-42480D03*
G54D25*
X21496Y-59961D03*
G54D26*
X22835Y-37343D03*
G54D25*
X50984Y-38543D03*
G54D24*
X53819Y-58819D03*
G54D27*
X54996Y-58677D03*
G54D25*
X23907Y-36801D03*
G54D26*
X54656Y-44035D03*
X51810Y-62618D03*
G54D24*
X26122Y-17608D03*
X23366Y-42195D03*
G54D26*
X52440Y-62716D03*
G54D24*
X21919Y-59941D03*
G54D26*
X22854Y-41870D03*
G54D25*
X52657Y-39941D03*
G54D24*
X54941Y-57972D03*
X54390Y-59252D03*
G54D23*
X54626Y-52205D03*
G54D26*
X51024Y-38169D03*
G54D25*
X53248Y-39311D03*
X22854Y-36634D03*
G54D26*
X51417Y-38169D03*
X52125Y-62972D03*
G54D25*
X53835Y-37756D03*
X32185Y-62902D03*
X25846Y-54154D03*
X25177Y-54134D03*
X24094Y-29803D03*
X24094Y-29291D03*
X24094Y-27421D03*
X24094Y-51772D03*
X24094Y-50315D03*
X24114Y-30118D03*
X24094Y-52283D03*
G54D26*
X24587Y-58150D03*
G54D25*
X22992Y-49006D03*
X26201Y-37697D03*
G54D26*
X22520Y-48711D03*
G54D25*
X22992Y-26772D03*
X22972Y-13386D03*
G54D26*
X49744Y-32047D03*
G54D25*
X50276Y-20433D03*
G54D24*
X40886Y-18425D03*
G54D26*
X27264Y-16339D03*
G54D24*
X32835Y-24686D03*
G54D26*
X26772Y-16339D03*
X22077Y-19852D03*
G54D25*
X34311Y-23642D03*
G54D26*
X45039Y-23584D03*
X27264Y-16969D03*
G54D25*
X24626Y-19803D03*
X24311Y-19803D03*
G54D24*
X41043Y-24607D03*
G54D26*
X22687Y-18661D03*
G54D24*
X29921Y-18642D03*
G54D26*
X22372Y-19852D03*
G54D24*
X32874Y-19351D03*
G54D26*
X26752Y-16969D03*
X22687Y-19744D03*
G54D24*
X43839Y-24725D03*
X43839Y-19351D03*
X30000Y-24607D03*
G54D25*
X35787Y-44311D03*
X31909Y-36516D03*
X31516Y-37067D03*
X35256Y-44114D03*
X32106Y-37067D03*
X35236Y-44567D03*
X31319Y-36535D03*
X35807Y-43917D03*
X35787Y-44843D03*
X32303Y-36516D03*
X35256Y-43720D03*
X31122Y-37067D03*
X35217Y-45079D03*
X32500Y-37067D03*
X35827Y-43524D03*
X30925Y-36535D03*
X35787Y-45295D03*
X30512Y-36535D03*
X35256Y-43327D03*
X30728Y-37067D03*
X30610Y-21358D03*
G54D26*
X24626Y-28327D03*
G54D25*
X30453Y-32539D03*
X26969Y-30354D03*
X29701Y-59969D03*
X33740Y-27402D03*
X32677Y-43898D03*
X31280Y-50728D03*
X35020Y-49685D03*
X30394Y-27402D03*
X32490Y-21644D03*
X32677Y-32815D03*
X32638Y-55217D03*
X30807Y-23169D03*
G54D24*
X27972Y-23681D03*
G54D25*
X31457Y-22894D03*
X30217Y-25060D03*
G54D26*
X34012Y-18799D03*
G54D25*
X31756Y-23134D03*
X34488Y-20651D03*
X32323Y-23150D03*
G54D26*
X22146Y-23888D03*
X22431Y-23268D03*
X32516Y-18839D03*
X31171Y-17766D03*
X29783Y-18258D03*
X29154Y-20886D03*
G54D25*
X30449Y-20756D03*
X30787Y-20748D03*
X32037Y-20719D03*
G54D26*
X23701Y-11309D03*
G54D25*
X31732Y-20709D03*
X31098Y-20740D03*
X31409Y-20732D03*
X32648Y-20709D03*
X32333Y-20709D03*
X25571Y-24587D03*
X24646Y-32008D03*
X31063Y-22874D03*
X30551Y-21811D03*
X30551Y-32913D03*
X26634Y-32008D03*
X30472Y-34469D03*
X26890Y-25079D03*
X30236Y-33661D03*
G54D26*
X26142Y-28740D03*
G54D25*
X30256Y-22421D03*
X31043Y-34055D03*
X28012Y-34882D03*
X31732Y-34094D03*
X30138Y-36339D03*
X32539Y-30078D03*
X32126Y-32382D03*
X32283Y-34370D03*
X34547Y-31732D03*
X32569Y-21911D03*
X27205Y-25728D03*
X30492Y-32106D03*
X33819Y-25551D03*
X30531Y-33936D03*
X25512Y-28425D03*
X30610Y-22618D03*
X26535Y-28031D03*
X31516Y-25846D03*
X35374Y-32913D03*
X31909Y-25354D03*
X36004Y-33110D03*
X36004Y-32717D03*
X31319Y-25354D03*
X35374Y-33307D03*
X32106Y-25827D03*
X31122Y-25846D03*
X35374Y-32520D03*
X36024Y-33504D03*
X32303Y-25354D03*
X30925Y-25354D03*
X35984Y-32323D03*
X32500Y-25827D03*
X35374Y-33720D03*
X30728Y-25846D03*
X35374Y-32126D03*
X30531Y-25354D03*
X36024Y-33937D03*
G54D23*
X21998Y-18642D03*
G54D25*
X22756Y-20886D03*
X18012Y-21929D03*
X22618Y-30492D03*
X18012Y-20098D03*
X25000Y-30492D03*
X30236Y-34173D03*
X30177Y-22954D03*
X30531Y-33405D03*
X24646Y-23268D03*
X25512Y-23268D03*
X28169Y-18307D03*
X30551Y-22185D03*
X23445Y-49055D03*
X23445Y-28031D03*
G54D26*
X22972Y-12933D03*
G54D25*
X25354Y-59114D03*
X26634Y-38740D03*
X23445Y-26535D03*
X24882Y-50787D03*
G54D26*
X22520Y-49429D03*
G54D25*
X25453Y-48937D03*
X23445Y-14882D03*
X32240Y-15039D03*
X35571Y-21713D03*
X36024Y-21516D03*
X32043Y-15299D03*
X35571Y-21319D03*
X31846Y-15039D03*
X31654Y-15299D03*
X36024Y-21122D03*
X35571Y-20925D03*
X31453Y-15039D03*
G54D26*
X34114Y-34802D03*
X24823Y-35945D03*
X24567Y-36299D03*
G54D24*
X43799Y-30531D03*
G54D26*
X45079Y-34802D03*
G54D24*
X40886Y-29646D03*
G54D26*
X21811Y-38996D03*
X30039Y-35906D03*
X21083Y-38996D03*
G54D24*
X43839Y-35885D03*
G54D26*
X20768Y-39114D03*
X32854Y-30571D03*
X21307Y-38193D03*
G54D24*
X40925Y-35806D03*
G54D26*
X21447Y-38996D03*
G54D24*
X32854Y-35885D03*
G54D26*
X24528Y-35669D03*
X24980Y-36299D03*
G54D23*
X29902Y-29646D03*
G54D26*
X37283Y-33425D03*
X39026Y-34508D03*
G54D25*
X51378Y-30295D03*
X51398Y-25689D03*
X42894Y-36673D03*
X47047Y-44311D03*
X42500Y-37343D03*
X46201Y-44114D03*
X43091Y-37362D03*
X46199Y-44510D03*
X47044Y-43920D03*
X42303Y-36673D03*
X43287Y-36693D03*
X47047Y-44705D03*
X46201Y-43720D03*
X42106Y-37323D03*
X46201Y-44921D03*
X43484Y-37382D03*
X47028Y-43524D03*
X41909Y-36673D03*
X41516Y-36673D03*
X47047Y-45138D03*
X46201Y-43327D03*
X41713Y-37323D03*
X41496Y-21340D03*
X37028Y-26594D03*
X39055Y-27697D03*
X41417Y-32519D03*
X41654Y-23288D03*
X39075Y-23466D03*
X42677Y-22972D03*
X41240Y-25159D03*
X43760Y-18859D03*
X43110Y-20867D03*
X43268Y-23150D03*
X45512Y-20690D03*
X39331Y-26043D03*
X41535Y-32165D03*
X43563Y-21909D03*
X46122Y-25335D03*
X41831Y-22933D03*
X41890Y-34154D03*
X41575Y-32952D03*
X41496Y-21752D03*
X37657Y-26063D03*
X38583Y-25807D03*
G54D26*
X39537Y-36063D03*
X40138Y-32116D03*
X39803Y-36299D03*
X42126Y-31014D03*
G54D25*
X41673Y-34487D03*
G54D26*
X38957Y-34862D03*
G54D25*
X42283Y-34134D03*
G54D26*
X41250Y-35453D03*
X43181Y-34118D03*
G54D25*
X43602Y-30039D03*
X43012Y-34409D03*
X45394Y-31417D03*
X44134Y-34911D03*
X41240Y-33602D03*
X38189Y-24902D03*
X41240Y-22421D03*
X37657Y-24882D03*
X41535Y-22697D03*
X37913Y-25394D03*
X41535Y-33917D03*
X47165Y-32913D03*
X42500Y-25846D03*
X42894Y-25354D03*
X46417Y-33110D03*
X42303Y-25354D03*
X46417Y-32717D03*
X43091Y-25846D03*
X47165Y-33307D03*
X42106Y-25846D03*
X47165Y-32520D03*
X43287Y-25354D03*
X46417Y-33504D03*
X41909Y-25354D03*
X46417Y-32323D03*
X47165Y-33701D03*
X43484Y-25846D03*
X41713Y-25846D03*
X47165Y-32126D03*
X41516Y-25354D03*
X46417Y-33898D03*
G54D23*
X20098Y-39055D03*
G54D25*
X41535Y-22186D03*
X41201Y-34153D03*
X36378Y-23524D03*
X41201Y-22953D03*
G54D26*
X39763Y-13386D03*
G54D25*
X38248Y-24429D03*
X46772Y-25020D03*
X49882Y-21457D03*
X38602Y-26594D03*
X41555Y-33385D03*
X43346Y-15610D03*
X43583Y-17421D03*
X43169Y-12520D03*
X46476Y-21713D03*
X47126Y-21516D03*
X42972Y-12992D03*
X46476Y-21319D03*
X42776Y-12520D03*
X47126Y-21122D03*
X42579Y-12992D03*
X46476Y-20925D03*
X42382Y-12520D03*
G54D26*
X19598Y-61681D03*
X45138Y-57185D03*
X20295Y-61362D03*
X20315Y-60925D03*
X34114Y-57185D03*
X20100Y-61800D03*
X23268Y-58327D03*
G54D24*
X43819Y-58386D03*
X40945Y-58307D03*
X19213Y-61811D03*
X29843Y-52244D03*
G54D26*
X23760Y-58524D03*
G54D24*
X43839Y-52972D03*
G54D26*
X23760Y-58937D03*
X19850Y-60921D03*
G54D24*
X32874Y-58346D03*
X30020Y-58366D03*
X32795Y-52933D03*
G54D26*
X40846Y-52205D03*
X19858Y-61358D03*
G54D25*
X50157Y-50846D03*
X50157Y-48445D03*
G54D26*
X44606Y-62638D03*
X42185Y-62638D03*
G54D25*
X35256Y-49075D03*
X41437Y-43779D03*
X39449Y-50000D03*
X41398Y-55000D03*
X43504Y-21496D03*
X43681Y-32913D03*
X43622Y-44035D03*
X49006Y-33543D03*
X43593Y-55315D03*
X39705Y-45531D03*
X41634Y-45689D03*
X42106Y-45437D03*
X40827Y-47697D03*
X43524Y-41161D03*
X43228Y-43087D03*
X43632Y-43730D03*
X45512Y-42677D03*
G54D26*
X39902Y-48661D03*
G54D25*
X43524Y-44291D03*
G54D26*
X41555Y-54449D03*
G54D25*
X46033Y-45581D03*
X37736Y-49075D03*
X41555Y-44154D03*
X41870Y-45335D03*
X41575Y-55374D03*
G54D26*
X38858Y-48150D03*
G54D25*
X41457Y-56358D03*
X38386Y-47756D03*
X41516Y-45118D03*
X41654Y-56890D03*
X38937Y-57106D03*
X42106Y-56634D03*
X40665Y-58571D03*
X43110Y-54744D03*
X43622Y-52067D03*
X45276Y-53701D03*
X43386Y-56457D03*
X41220Y-56043D03*
X41240Y-44842D03*
X38661Y-47244D03*
X38110Y-47244D03*
X42500Y-48130D03*
X45984Y-55315D03*
X46673Y-55512D03*
X42894Y-47657D03*
X42303Y-47657D03*
X46673Y-55118D03*
X45984Y-55709D03*
X43091Y-48130D03*
X45984Y-54921D03*
X42106Y-48130D03*
X43287Y-47657D03*
X46673Y-55906D03*
X46673Y-54724D03*
X41909Y-47657D03*
X45984Y-56122D03*
X43484Y-48130D03*
X41713Y-48130D03*
X45984Y-54528D03*
X46673Y-56358D03*
X41516Y-47657D03*
X24547Y-48346D03*
G54D26*
X27224Y-59075D03*
G54D25*
X34390Y-26319D03*
X27067Y-37913D03*
G54D26*
X22156Y-49774D03*
G54D25*
X23917Y-13130D03*
X23878Y-26280D03*
X23878Y-49921D03*
X34390Y-25768D03*
X24528Y-49409D03*
X23878Y-14035D03*
G54D26*
X18524Y-61752D03*
X22530Y-49055D03*
G54D25*
X23228Y-27657D03*
G54D26*
X23228Y-13159D03*
G54D25*
X26417Y-38248D03*
X23228Y-48701D03*
X25039Y-58563D03*
X23228Y-27224D03*
X23228Y-14587D03*
X24862Y-49941D03*
X24862Y-48701D03*
X34685Y-27185D03*
X34685Y-24882D03*
X41142Y-56575D03*
X41516Y-44587D03*
X38661Y-46280D03*
X40787Y-49744D03*
X49311Y-48681D03*
X41181Y-45374D03*
X53839Y-19646D03*
X39173Y-46319D03*
X38937Y-60335D03*
X41535Y-55787D03*
X49843Y-48130D03*
X49843Y-45610D03*
G54D24*
X41004Y-47205D03*
X29902Y-40925D03*
G54D26*
X22126Y-44331D03*
G54D24*
X32854Y-47126D03*
G54D26*
X34075Y-45964D03*
G54D24*
X40906Y-41024D03*
G54D26*
X21427Y-44045D03*
G54D24*
X43839Y-41752D03*
G54D23*
X29961Y-47106D03*
G54D26*
X24587Y-40453D03*
X24941Y-40748D03*
X24587Y-41142D03*
X21102Y-44311D03*
X45157Y-45944D03*
G54D24*
X32854Y-41752D03*
X43780Y-47145D03*
G54D26*
X21634Y-43622D03*
X21683Y-44311D03*
G54D25*
X34752Y-62602D03*
G54D26*
X32067Y-62598D03*
G54D25*
X30394Y-43838D03*
X24311Y-50748D03*
X27461Y-52776D03*
X30433Y-55000D03*
X28130Y-46142D03*
X30669Y-45669D03*
X31496Y-45315D03*
X30217Y-47894D03*
X32126Y-43287D03*
X32559Y-41240D03*
X34567Y-42854D03*
X32402Y-45078D03*
G54D26*
X26516Y-49882D03*
G54D25*
X30256Y-56023D03*
X30197Y-44862D03*
X27992Y-57500D03*
X30807Y-56673D03*
X31201Y-56594D03*
X30039Y-58917D03*
X32165Y-54646D03*
X32598Y-52362D03*
X34567Y-54232D03*
X32307Y-56835D03*
X34803Y-46575D03*
X27480Y-48465D03*
X30512Y-54409D03*
X32520Y-44311D03*
X26280Y-47323D03*
X27224Y-54449D03*
X30571Y-55354D03*
X30906Y-45335D03*
X30394Y-44252D03*
X26280Y-54449D03*
X27224Y-47717D03*
X30453Y-56870D03*
X26732Y-50610D03*
X30571Y-56260D03*
X30531Y-45137D03*
X26535Y-51181D03*
X31516Y-47992D03*
X35276Y-55315D03*
X31909Y-47500D03*
X35945Y-55512D03*
X35945Y-55118D03*
X31319Y-47500D03*
X32106Y-47992D03*
X35276Y-55709D03*
X31122Y-47992D03*
X35276Y-54921D03*
X35945Y-55906D03*
X32303Y-47500D03*
X35945Y-54724D03*
X30925Y-47500D03*
X32500Y-47992D03*
X35276Y-56102D03*
X30728Y-47992D03*
X35276Y-54528D03*
X30531Y-47500D03*
X35945Y-56299D03*
G54D26*
X20354Y-44331D03*
G54D25*
X30256Y-56496D03*
X32795Y-58819D03*
X30157Y-45374D03*
X30551Y-55787D03*
X16407Y-17283D03*
X30364Y-44587D03*
X24321Y-45098D03*
X16978Y-37795D03*
G54D26*
X50709Y-32067D03*
X50157Y-24665D03*
G54D25*
X51043Y-20846D03*
G54D27*
X54937Y-57315D03*
G54D26*
X39114Y-15965D03*
X39114Y-15157D03*
G54D25*
X38523Y-14291D03*
X52303Y-17283D03*
X43858Y-58996D03*
X39705Y-60630D03*
X50000Y-21811D03*
X51752Y-21909D03*
X49449Y-56752D03*
G54D26*
X18622Y-17047D03*
G54D25*
X19252Y-21732D03*
G54D26*
X37953Y-15768D03*
G54D25*
X37953Y-16260D03*
X51083Y-21220D03*
G54D26*
X50551Y-31319D03*
G54D25*
X17657Y-33514D03*
X17657Y-19587D03*
G54D26*
X52185Y-31870D03*
G54D25*
X51181Y-21614D03*
X50709Y-20650D03*
G54D26*
X50236Y-32087D03*
X15866Y-28750D03*
X16181Y-28445D03*
G54D25*
X31815Y-62311D03*
X35512Y-59469D03*
X30024Y-59606D03*
G54D26*
X31683Y-58642D03*
G54D25*
X31524Y-62024D03*
X33319Y-60232D03*
X29429Y-60240D03*
X32591Y-56929D03*
X41614Y-62295D03*
X44287Y-58736D03*
X42701Y-58406D03*
X40965Y-60354D03*
X41587Y-61055D03*
X43642Y-59799D03*
X43484Y-56933D03*
X40630Y-60402D03*
X34114Y-56791D03*
G54D26*
X33445Y-24606D03*
X33858Y-24508D03*
G54D23*
X42774Y-55985D03*
G54D26*
X34409Y-19026D03*
G54D25*
X30020Y-64449D03*
G54D23*
X31790Y-55610D03*
G54D25*
X55335Y-31260D03*
G54D26*
X25236Y-19173D03*
G54D25*
X33817Y-11003D03*
G54D26*
X44821Y-42266D03*
X25226Y-19567D03*
X54881Y-39843D03*
G54D25*
X30866Y-11319D03*
G54D26*
X16063Y-48110D03*
G54D25*
X16102Y-30709D03*
G54D26*
X51160Y-61161D03*
G54D25*
X16555Y-23228D03*
G54D23*
X31043Y-21635D03*
G54D25*
X28895Y-11397D03*
X53799Y-55197D03*
X39252Y-64370D03*
X54921Y-33425D03*
G54D23*
X42026Y-55237D03*
G54D26*
X28799Y-35450D03*
X44665Y-24410D03*
G54D23*
X28346Y-41339D03*
X42026Y-55985D03*
G54D25*
X55354Y-33622D03*
G54D24*
X40098Y-41043D03*
G54D26*
X54488Y-39804D03*
G54D25*
X16535Y-28150D03*
G54D23*
X31043Y-33580D03*
G54D25*
X54921Y-32244D03*
G54D23*
X42401Y-55611D03*
G54D25*
X55906Y-16516D03*
G54D23*
X31418Y-33206D03*
G54D26*
X26260Y-19193D03*
X55354Y-25157D03*
X22890Y-38346D03*
G54D23*
X28602Y-18642D03*
X42400Y-55985D03*
G54D25*
X54961Y-19843D03*
X24606Y-29547D03*
G54D26*
X22421Y-39012D03*
G54D23*
X31042Y-44037D03*
G54D26*
X39782Y-57855D03*
G54D23*
X31790Y-44411D03*
X42026Y-55611D03*
X42774Y-44038D03*
G54D24*
X54941Y-60512D03*
G54D26*
X20551Y-41733D03*
G54D24*
X40079Y-29724D03*
G54D26*
X39783Y-24251D03*
G54D25*
X51870Y-55827D03*
G54D26*
X22106Y-61220D03*
G54D25*
X16535Y-31299D03*
G54D23*
X42027Y-21633D03*
G54D25*
X28502Y-11397D03*
X54961Y-21024D03*
X54921Y-31457D03*
G54D26*
X24094Y-37953D03*
X22509Y-16213D03*
G54D23*
X31417Y-32832D03*
X31791Y-22009D03*
G54D26*
X27618Y-39626D03*
G54D25*
X16535Y-31693D03*
G54D23*
X31791Y-21635D03*
G54D26*
X54980Y-19449D03*
G54D23*
X42027Y-33209D03*
G54D25*
X16535Y-24606D03*
G54D23*
X28268Y-30197D03*
G54D26*
X44213Y-25257D03*
G54D25*
X16535Y-19488D03*
X54921Y-32638D03*
X16496Y-21063D03*
X39646Y-64016D03*
G54D23*
X31790Y-55984D03*
G54D25*
X35413Y-27145D03*
G54D26*
X22549Y-16626D03*
G54D25*
X16516Y-21850D03*
G54D23*
X40138Y-18583D03*
G54D26*
X55433Y-46693D03*
G54D23*
X31043Y-22009D03*
X42026Y-44038D03*
X42401Y-22381D03*
G54D26*
X50965Y-60551D03*
G54D25*
X35472Y-25137D03*
G54D23*
X42026Y-44786D03*
G54D25*
X54980Y-20236D03*
G54D26*
X28798Y-57854D03*
G54D23*
X42400Y-44786D03*
G54D26*
X51230Y-36801D03*
X54311Y-62992D03*
G54D25*
X27165Y-12008D03*
G54D24*
X39587Y-30630D03*
G54D26*
X20846Y-40630D03*
G54D25*
X40218Y-11339D03*
G54D26*
X54074Y-39765D03*
X23622Y-40296D03*
G54D23*
X31042Y-55610D03*
G54D25*
X25611Y-59449D03*
G54D24*
X39587Y-41319D03*
G54D26*
X44764Y-63819D03*
G54D23*
X42400Y-55237D03*
G54D25*
X45138Y-20118D03*
X16535Y-25197D03*
G54D26*
X40057Y-46912D03*
X55394Y-49449D03*
G54D25*
X55335Y-30472D03*
G54D23*
X42775Y-22381D03*
G54D26*
X21122Y-19213D03*
G54D25*
X39193Y-60768D03*
G54D23*
X42775Y-32835D03*
G54D25*
X55335Y-30866D03*
X49980Y-33937D03*
G54D23*
X42401Y-44412D03*
G54D25*
X16122Y-33465D03*
X43564Y-11340D03*
X16535Y-30906D03*
G54D26*
X29074Y-35706D03*
G54D25*
X20256Y-27657D03*
X24724Y-25335D03*
G54D23*
X31416Y-55236D03*
X42027Y-32835D03*
X31417Y-33580D03*
G54D25*
X45118Y-56791D03*
G54D26*
X33641Y-19588D03*
G54D25*
X55335Y-33228D03*
G54D23*
X31416Y-44785D03*
G54D26*
X44624Y-53190D03*
G54D25*
X54921Y-31063D03*
G54D23*
X31417Y-55610D03*
X31418Y-22009D03*
X31416Y-55984D03*
X42774Y-55237D03*
G54D26*
X39783Y-35453D03*
G54D23*
X28602Y-30551D03*
G54D26*
X33837Y-42265D03*
G54D23*
X42402Y-22007D03*
G54D24*
X39567Y-53110D03*
G54D26*
X34035Y-34350D03*
G54D25*
X16516Y-20276D03*
X16536Y-30513D03*
X32766Y-22106D03*
X54980Y-21811D03*
X50965Y-33917D03*
X16142Y-28937D03*
G54D26*
X51457Y-37480D03*
G54D23*
X42774Y-44412D03*
G54D25*
X27481Y-59390D03*
X22648Y-61604D03*
G54D26*
X45000Y-35865D03*
G54D25*
X34055Y-45531D03*
X24724Y-27776D03*
X33543Y-58287D03*
X24882Y-50354D03*
X16122Y-31102D03*
G54D26*
X21260Y-40650D03*
X33640Y-41990D03*
G54D25*
X19606Y-17343D03*
G54D23*
X31043Y-22383D03*
G54D26*
X29074Y-24509D03*
G54D23*
X42026Y-44412D03*
G54D26*
X16122Y-49488D03*
X20137Y-35666D03*
G54D25*
X40021Y-11044D03*
X20571Y-25010D03*
X16083Y-22047D03*
G54D24*
X39390Y-41850D03*
X54350Y-60472D03*
X39626Y-52244D03*
G54D26*
X44821Y-53465D03*
G54D25*
X43671Y-55709D03*
G54D23*
X31791Y-32832D03*
G54D26*
X51004Y-37480D03*
X22417Y-37768D03*
G54D25*
X16220Y-23425D03*
X36299Y-49744D03*
G54D24*
X55413Y-61024D03*
G54D23*
X42401Y-32835D03*
G54D24*
X29114Y-58110D03*
G54D23*
X31042Y-55984D03*
G54D25*
X32386Y-63878D03*
G54D26*
X55512Y-45315D03*
G54D24*
X28780Y-52303D03*
G54D23*
X42775Y-33583D03*
G54D25*
X54921Y-33031D03*
X49469Y-16516D03*
G54D23*
X53622Y-43012D03*
G54D26*
X34035Y-23307D03*
X33837Y-53464D03*
X45138Y-45551D03*
G54D23*
X42027Y-22381D03*
G54D25*
X44921Y-31003D03*
X16535Y-33661D03*
G54D23*
X42027Y-22007D03*
G54D26*
X54743Y-61043D03*
G54D25*
X55335Y-31654D03*
G54D23*
X31417Y-22383D03*
G54D25*
X24823Y-52028D03*
G54D26*
X45058Y-34330D03*
G54D23*
X27815Y-42303D03*
G54D26*
X23130Y-61201D03*
G54D23*
X28366Y-19193D03*
G54D25*
X40236Y-64016D03*
G54D23*
X29094Y-29764D03*
G54D26*
X54390Y-63583D03*
G54D25*
X40433Y-64429D03*
G54D26*
X28798Y-46655D03*
G54D23*
X42775Y-33209D03*
G54D25*
X16535Y-29134D03*
X55157Y-23189D03*
G54D26*
X25866Y-19193D03*
G54D23*
X28524Y-29724D03*
G54D26*
X33640Y-53189D03*
G54D25*
X43583Y-64213D03*
X54921Y-30276D03*
X54921Y-31850D03*
X32717Y-55709D03*
X31969Y-63898D03*
X35452Y-26062D03*
G54D26*
X37254Y-36575D03*
G54D25*
X31260Y-11303D03*
X39627Y-11339D03*
X55335Y-32441D03*
X34744Y-64429D03*
X33563Y-64390D03*
X44745Y-11339D03*
G54D26*
X33907Y-46919D03*
X33415Y-47156D03*
X44409Y-47156D03*
X44931Y-46900D03*
X33917Y-58120D03*
X24390Y-18465D03*
G54D23*
X31790Y-44037D03*
G54D26*
X44419Y-35915D03*
X33819Y-35679D03*
X33415Y-35837D03*
G54D25*
X32726Y-33307D03*
X16122Y-32284D03*
X42205Y-64016D03*
G54D26*
X33641Y-30785D03*
X29252Y-39606D03*
X40058Y-35709D03*
G54D23*
X28012Y-41752D03*
G54D24*
X28406Y-52618D03*
G54D25*
X40415Y-11024D03*
G54D26*
X39782Y-46656D03*
X21693Y-40650D03*
G54D23*
X39331Y-19016D03*
G54D26*
X51890Y-40453D03*
G54D23*
X31417Y-21635D03*
G54D25*
X44980Y-58071D03*
G54D23*
X31042Y-44411D03*
G54D25*
X55335Y-32047D03*
G54D26*
X44625Y-30788D03*
X29073Y-46911D03*
X16161Y-45354D03*
G54D23*
X31790Y-55236D03*
G54D26*
X23504Y-38602D03*
X44624Y-41991D03*
G54D25*
X25876Y-19547D03*
G54D26*
X22146Y-35020D03*
G54D23*
X29134Y-18642D03*
G54D26*
X44625Y-19586D03*
G54D25*
X43740Y-44508D03*
G54D26*
X55453Y-48071D03*
G54D25*
X16535Y-32480D03*
G54D23*
X31042Y-44785D03*
G54D25*
X29626Y-64449D03*
G54D23*
X39488Y-18583D03*
G54D25*
X52579Y-55217D03*
X26556Y-59410D03*
X54154Y-55827D03*
X32726Y-44508D03*
G54D26*
X53681Y-39784D03*
X50433Y-36909D03*
X40057Y-58111D03*
G54D27*
X51177Y-56524D03*
G54D25*
X39173Y-14744D03*
G54D26*
X22165Y-42972D03*
G54D23*
X42774Y-44786D03*
G54D26*
X55610Y-50827D03*
G54D25*
X41795Y-11362D03*
X16517Y-21458D03*
X42186Y-11340D03*
X53150Y-55079D03*
X16122Y-31890D03*
G54D26*
X40058Y-24507D03*
G54D25*
X18858Y-58878D03*
G54D23*
X31790Y-44785D03*
G54D26*
X19743Y-35745D03*
X17047Y-35138D03*
G54D25*
X16535Y-19882D03*
G54D23*
X42775Y-22007D03*
X53622Y-52343D03*
X42027Y-33583D03*
X31791Y-22383D03*
X42402Y-33209D03*
G54D25*
X49587Y-17185D03*
G54D26*
X24449Y-15650D03*
G54D24*
X28150Y-53031D03*
G54D26*
X50768Y-60039D03*
G54D23*
X31043Y-33206D03*
X31043Y-32832D03*
G54D26*
X16102Y-50866D03*
G54D23*
X31416Y-44037D03*
G54D25*
X16122Y-31496D03*
X16122Y-33071D03*
X16535Y-33268D03*
G54D26*
X45039Y-23169D03*
G54D24*
X39626Y-52677D03*
G54D26*
X55413Y-28898D03*
G54D25*
X54921Y-30669D03*
X44626Y-58287D03*
G54D26*
X55354Y-24567D03*
X22106Y-62008D03*
G54D25*
X16122Y-32677D03*
X16535Y-32874D03*
G54D26*
X28799Y-24253D03*
G54D25*
X51929Y-33937D03*
G54D26*
X54390Y-62205D03*
G54D23*
X42401Y-21633D03*
X31791Y-33206D03*
G54D25*
X16535Y-32087D03*
G54D23*
X31042Y-55236D03*
G54D25*
X43367Y-11005D03*
G54D26*
X55354Y-28110D03*
G54D25*
X54921Y-33819D03*
X43484Y-22156D03*
X32441Y-11043D03*
X36201Y-47500D03*
G54D24*
X39587Y-29862D03*
G54D26*
X55236Y-22008D03*
G54D25*
X55886Y-17244D03*
G54D23*
X42774Y-55611D03*
X42401Y-33583D03*
G54D25*
X39234Y-11044D03*
X55335Y-32835D03*
G54D26*
X33838Y-31060D03*
X22126Y-40689D03*
G54D23*
X42775Y-21633D03*
G54D26*
X33838Y-19863D03*
X22854Y-37953D03*
G54D23*
X39587Y-19429D03*
X42400Y-44038D03*
G54D25*
X51870Y-19390D03*
X16102Y-30315D03*
G54D23*
X31791Y-33580D03*
G54D26*
X16122Y-33858D03*
X22450Y-17000D03*
G54D25*
X24823Y-47972D03*
G54D26*
X22638Y-61201D03*
X51496Y-60531D03*
G54D25*
X54961Y-21417D03*
X43386Y-63819D03*
G54D23*
X31417Y-44411D03*
G54D26*
X16161Y-46732D03*
X22106Y-61594D03*
G54D25*
X36220Y-48406D03*
X44596Y-26083D03*
X32776Y-44902D03*
X32766Y-56102D03*
X43740Y-22500D03*
X32756Y-22500D03*
X33140Y-25226D03*
X43730Y-33701D03*
X37795Y-49400D03*
X40305Y-60659D03*
X43760Y-56102D03*
X43760Y-44902D03*
X47736Y-46407D03*
X32746Y-33701D03*
X36959Y-35748D03*
X34892Y-35974D03*
X33789Y-59045D03*
X36791Y-22795D03*
X33622Y-15343D03*
X33224Y-15323D03*
X36024Y-22303D03*
X32827Y-15319D03*
X36024Y-21909D03*
X20335Y-50886D03*
X20335Y-48425D03*
X20039Y-45728D03*
X20039Y-48130D03*
X43760Y-12520D03*
X47461Y-21909D03*
X43957Y-13071D03*
X47894Y-22106D03*
X47500Y-22303D03*
X44154Y-12520D03*
G54D26*
X47913Y-22579D03*
G54D25*
X44350Y-13071D03*
X47697Y-22953D03*
X44547Y-12520D03*
X20138Y-24606D03*
X20138Y-22205D03*
X20020Y-25138D03*
X20020Y-32244D03*
G54D26*
X20561Y-13760D03*
X19695Y-13750D03*
G54D25*
X29232Y-64429D03*
X33028Y-15063D03*
X35571Y-22106D03*
X33421Y-15075D03*
X36437Y-22500D03*
G54D26*
X46220Y-34557D03*
G54D25*
X43701Y-33307D03*
X42500Y-43102D03*
X41933Y-43122D03*
X42209Y-43138D03*
X42846Y-43091D03*
X26850Y-38209D03*
X23661Y-14331D03*
G54D26*
X22520Y-48386D03*
G54D25*
X23661Y-25079D03*
X34980Y-26811D03*
X23661Y-49469D03*
X23661Y-12874D03*
G54D26*
X29035Y-38130D03*
G54D25*
X34980Y-25807D03*
X23661Y-48386D03*
X23661Y-26969D03*
X26299Y-59055D03*
G54D26*
X29685Y-40453D03*
G54D28*
X51713Y-58110D02*
X51083Y-58110D01*
X51083Y-58110D02*
X51083Y-58720D01*
X51713Y-58740D02*
X51713Y-58110D01*
X51713Y-58740D02*
X51103Y-58740D01*
X51103Y-58740D02*
X51083Y-58720D01*
X55630Y-41850D02*
X55630Y-40929D01*
X55941Y-38343D02*
X55941Y-37532D01*
X55630Y-40929D02*
X55941Y-40618D01*
X18150Y-14724D02*
X17588Y-14724D01*
X17588Y-14724D02*
X15939Y-13075D01*
X18150Y-14724D02*
X18515Y-14724D01*
X55630Y-41850D02*
X55630Y-42126D01*
X53602Y-44370D02*
X51437Y-44370D01*
X55630Y-42342D02*
X53602Y-44370D01*
X54783Y-36374D02*
X53031Y-36374D01*
X55941Y-37532D02*
X54783Y-36374D01*
X55941Y-40618D02*
X55941Y-38343D01*
G54D29*
X17126Y-18937D02*
X18287Y-18937D01*
G54D28*
X55630Y-41850D02*
X55630Y-42342D01*
X15939Y-13075D02*
X15939Y-12242D01*
G54D30*
X18515Y-14724D02*
X18524Y-14715D01*
G54D29*
X23169Y-39646D02*
X22598Y-40217D01*
X22520Y-34331D02*
X22106Y-34331D01*
X21407Y-35030D02*
X21407Y-36083D01*
X24094Y-16319D02*
X24094Y-16181D01*
X22156Y-41358D02*
X21319Y-41358D01*
X22106Y-34331D02*
X21407Y-35030D01*
X27854Y-36850D02*
X24350Y-33346D01*
X25886Y-39646D02*
X25885Y-39646D01*
X22756Y-43345D02*
X22756Y-56949D01*
X22756Y-56998D02*
X21043Y-58711D01*
X22756Y-56949D02*
X22756Y-56998D01*
X25531Y-40000D02*
X25531Y-40570D01*
X24350Y-28917D02*
X24350Y-27736D01*
X25886Y-36634D02*
X23583Y-34331D01*
X22598Y-40217D02*
X22598Y-40916D01*
X24094Y-25177D02*
X24094Y-16319D01*
X21043Y-58711D02*
X20059Y-58711D01*
X22598Y-40916D02*
X22156Y-41358D01*
X24390Y-27696D02*
X24390Y-25473D01*
X24390Y-25473D02*
X24094Y-25177D01*
X27835Y-41063D02*
X27854Y-41044D01*
X25886Y-39646D02*
X23169Y-39646D01*
X24350Y-33346D02*
X24350Y-28917D01*
X25531Y-40570D02*
X22756Y-43345D01*
X25885Y-39646D02*
X25531Y-40000D01*
X23583Y-34331D02*
X22520Y-34331D01*
X24350Y-27736D02*
X24390Y-27696D01*
X24094Y-16181D02*
X24173Y-16102D01*
X25886Y-39646D02*
X25886Y-36850D01*
X25886Y-36850D02*
X25886Y-36634D01*
X27854Y-41044D02*
X27854Y-36850D01*
X54656Y-44035D02*
X54646Y-44035D01*
G54D28*
X55630Y-53543D02*
X55630Y-52559D01*
X55197Y-58677D02*
X55630Y-58244D01*
X54996Y-58677D02*
X55197Y-58677D01*
G54D29*
X23907Y-36801D02*
X23907Y-36791D01*
G54D28*
X55276Y-52205D02*
X54626Y-52205D01*
G54D29*
X21919Y-59941D02*
X21919Y-59931D01*
X26102Y-18031D02*
X26102Y-18022D01*
G54D28*
X55630Y-58244D02*
X55630Y-53543D01*
G54D29*
X23366Y-42195D02*
X23366Y-42185D01*
G54D28*
X54996Y-58677D02*
X54996Y-58674D01*
X55630Y-52559D02*
X55276Y-52205D01*
G54D29*
X26122Y-17608D02*
X26122Y-17598D01*
G54D28*
X55390Y-39362D02*
X55390Y-40248D01*
X55390Y-39362D02*
X55390Y-38690D01*
X55389Y-40248D02*
X54630Y-41007D01*
X54630Y-41007D02*
X54630Y-41854D01*
X55390Y-38690D02*
X53835Y-37756D01*
X55390Y-40248D02*
X55389Y-40248D01*
X55390Y-40268D02*
X55390Y-40248D01*
G54D29*
X29173Y-60275D02*
X29173Y-61433D01*
X29173Y-59410D02*
X29173Y-60275D01*
X29173Y-61433D02*
X30642Y-62902D01*
X30642Y-62902D02*
X32185Y-62902D01*
X25846Y-56083D02*
X29173Y-59410D01*
X25846Y-54154D02*
X25846Y-56083D01*
X37197Y-64244D02*
X37197Y-64453D01*
X28937Y-59489D02*
X25177Y-55729D01*
X28937Y-61535D02*
X28937Y-59489D01*
X25177Y-55729D02*
X25177Y-54134D01*
X37197Y-64453D02*
X36985Y-64665D01*
X32067Y-64665D02*
X28937Y-61535D01*
X36985Y-64665D02*
X32067Y-64665D01*
X24094Y-29291D02*
X24094Y-27421D01*
X24094Y-29291D02*
X24094Y-29803D01*
X27283Y-40591D02*
X27283Y-36565D01*
X24094Y-51772D02*
X24094Y-52283D01*
X24114Y-33396D02*
X24114Y-30118D01*
X24094Y-50472D02*
X24094Y-51772D01*
X24094Y-43780D02*
X24094Y-47441D01*
X27283Y-36565D02*
X24114Y-33396D01*
X24094Y-47441D02*
X24094Y-50472D01*
X27283Y-40591D02*
X24094Y-43780D01*
X24094Y-50472D02*
X24094Y-50315D01*
X19822Y-44454D02*
X19822Y-39517D01*
X22520Y-48711D02*
X21792Y-48711D01*
X22992Y-57441D02*
X23701Y-58150D01*
X22992Y-57205D02*
X22992Y-57441D01*
X20658Y-45290D02*
X19822Y-44454D01*
X20658Y-47577D02*
X20658Y-45290D01*
X19822Y-39517D02*
X18935Y-38630D01*
X22992Y-26772D02*
X22992Y-33544D01*
X22992Y-43917D02*
X22992Y-43602D01*
X23701Y-58150D02*
X24587Y-58150D01*
X26201Y-37697D02*
X26201Y-40393D01*
X26201Y-36753D02*
X22992Y-33544D01*
X22972Y-13386D02*
X22992Y-13406D01*
X26201Y-37697D02*
X26201Y-36753D01*
X22992Y-49006D02*
X22992Y-57205D01*
X21792Y-48711D02*
X20658Y-47577D01*
X22992Y-43917D02*
X22992Y-49006D01*
X22992Y-43602D02*
X26201Y-40393D01*
X22992Y-13406D02*
X22992Y-26772D01*
X49724Y-31988D02*
X49724Y-32027D01*
X50276Y-21909D02*
X50276Y-20433D01*
X49724Y-32027D02*
X49744Y-32047D01*
X49724Y-31988D02*
X49724Y-22461D01*
X49724Y-22461D02*
X50276Y-21909D01*
G54D31*
X22842Y-15962D02*
X22443Y-15563D01*
X22697Y-18661D02*
X22842Y-18516D01*
X22842Y-18516D02*
X22842Y-15962D01*
X22443Y-15563D02*
X21998Y-15563D01*
X22687Y-18661D02*
X22697Y-18661D01*
G54D29*
X36122Y-44311D02*
X36693Y-43740D01*
X31909Y-38346D02*
X31909Y-36516D01*
X36693Y-40236D02*
X35256Y-38799D01*
X36693Y-43740D02*
X36693Y-40236D01*
X32362Y-38799D02*
X31909Y-38346D01*
X35256Y-38799D02*
X32362Y-38799D01*
X35787Y-44311D02*
X36122Y-44311D01*
X35177Y-38957D02*
X36535Y-40315D01*
X36535Y-40315D02*
X36535Y-43662D01*
X32008Y-38957D02*
X35177Y-38957D01*
X31516Y-38465D02*
X32008Y-38957D01*
X31516Y-37067D02*
X31516Y-38465D01*
X36083Y-44114D02*
X35256Y-44114D01*
X36535Y-43662D02*
X36083Y-44114D01*
X36083Y-44587D02*
X35591Y-44587D01*
X32441Y-38642D02*
X35335Y-38642D01*
X35236Y-44567D02*
X35256Y-44587D01*
X36850Y-40157D02*
X36850Y-43820D01*
X35256Y-44587D02*
X35591Y-44587D01*
X32106Y-38307D02*
X32441Y-38642D01*
X36850Y-43820D02*
X36083Y-44587D01*
X35335Y-38642D02*
X36850Y-40157D01*
X32106Y-37067D02*
X32106Y-38307D01*
X36378Y-40394D02*
X35098Y-39114D01*
X31319Y-38504D02*
X31319Y-36535D01*
X35807Y-43917D02*
X36044Y-43917D01*
X36044Y-43917D02*
X36378Y-43583D01*
X36378Y-43583D02*
X36378Y-40394D01*
X31929Y-39114D02*
X31319Y-38504D01*
X35098Y-39114D02*
X31929Y-39114D01*
X32303Y-38268D02*
X32519Y-38484D01*
X35787Y-44843D02*
X35827Y-44843D01*
X37008Y-43898D02*
X36063Y-44843D01*
X32519Y-38484D02*
X35394Y-38484D01*
X32303Y-36516D02*
X32303Y-38268D01*
X36063Y-44843D02*
X35827Y-44843D01*
X37008Y-40098D02*
X37008Y-43898D01*
X35394Y-38484D02*
X37008Y-40098D01*
X31122Y-37067D02*
X31122Y-38543D01*
X31851Y-39272D02*
X35020Y-39272D01*
X36220Y-43505D02*
X36005Y-43720D01*
X36220Y-40472D02*
X36220Y-43505D01*
X35020Y-39272D02*
X36220Y-40472D01*
X31122Y-38543D02*
X31851Y-39272D01*
X36005Y-43720D02*
X35256Y-43720D01*
X32500Y-38189D02*
X32638Y-38327D01*
X35217Y-45079D02*
X36043Y-45079D01*
X37165Y-43957D02*
X36043Y-45079D01*
X35453Y-38327D02*
X37165Y-40039D01*
X37165Y-40039D02*
X37165Y-43957D01*
X32500Y-37067D02*
X32500Y-38189D01*
X32638Y-38327D02*
X35453Y-38327D01*
X31772Y-39429D02*
X30925Y-38582D01*
X35827Y-43524D02*
X35964Y-43524D01*
X30925Y-38582D02*
X30925Y-36535D01*
X36063Y-40551D02*
X34941Y-39429D01*
X35964Y-43524D02*
X36063Y-43425D01*
X34941Y-39429D02*
X31772Y-39429D01*
X36063Y-43425D02*
X36063Y-40551D01*
X32719Y-38169D02*
X32697Y-38147D01*
X37323Y-44015D02*
X37323Y-39981D01*
X35787Y-45295D02*
X36043Y-45295D01*
X32697Y-38147D02*
X32697Y-36338D01*
X36043Y-45295D02*
X37323Y-44015D01*
X30788Y-36220D02*
X30512Y-36496D01*
X32579Y-36220D02*
X30788Y-36220D01*
X30512Y-36496D02*
X30512Y-36535D01*
X32697Y-36338D02*
X32579Y-36220D01*
X35511Y-38169D02*
X32719Y-38169D01*
X37323Y-39981D02*
X35511Y-38169D01*
X30728Y-38622D02*
X31693Y-39587D01*
X35906Y-43031D02*
X35610Y-43327D01*
X30728Y-37067D02*
X30728Y-38622D01*
X31693Y-39587D02*
X34863Y-39587D01*
X34863Y-39587D02*
X35906Y-40630D01*
X35610Y-43327D02*
X35256Y-43327D01*
X35906Y-40630D02*
X35906Y-43031D01*
X24961Y-22874D02*
X24961Y-24193D01*
X30610Y-21358D02*
X30296Y-21673D01*
X24961Y-28012D02*
X24961Y-24193D01*
X30296Y-21673D02*
X30295Y-21673D01*
X30295Y-21673D02*
X26220Y-21673D01*
X24626Y-28327D02*
X24646Y-28327D01*
X24646Y-28327D02*
X24961Y-28012D01*
X26162Y-21673D02*
X24961Y-22874D01*
X26220Y-21673D02*
X26162Y-21673D01*
X27106Y-32539D02*
X27283Y-32539D01*
X27283Y-32539D02*
X30453Y-32539D01*
X26969Y-30354D02*
X26969Y-32402D01*
X26969Y-32402D02*
X27106Y-32539D01*
X36142Y-30945D02*
X36142Y-30039D01*
X35315Y-24133D02*
X35315Y-21870D01*
X35434Y-29331D02*
X31575Y-29331D01*
X34055Y-32815D02*
X32677Y-32815D01*
X35571Y-37992D02*
X35571Y-37983D01*
X35020Y-32067D02*
X36142Y-30945D01*
X35669Y-45591D02*
X35964Y-45591D01*
X35157Y-33917D02*
X35020Y-33780D01*
X30394Y-28150D02*
X30394Y-27402D01*
X31280Y-50728D02*
X32363Y-51811D01*
X36299Y-52637D02*
X36299Y-53800D01*
X37480Y-44075D02*
X35964Y-45591D01*
X35335Y-45591D02*
X33720Y-43976D01*
X35157Y-37176D02*
X35157Y-35118D01*
X35453Y-45591D02*
X35354Y-45591D01*
X33061Y-60167D02*
X29899Y-60167D01*
X34803Y-58425D02*
X33061Y-60167D01*
X36142Y-30039D02*
X35434Y-29331D01*
X35473Y-51811D02*
X36299Y-52637D01*
X34094Y-27048D02*
X34094Y-24823D01*
X34704Y-55217D02*
X33071Y-55217D01*
X32363Y-51811D02*
X35473Y-51811D01*
X33720Y-43976D02*
X33720Y-43976D01*
X35571Y-37992D02*
X37480Y-39901D01*
X31575Y-29331D02*
X30394Y-28150D01*
X32755Y-43976D02*
X32677Y-43898D01*
X32559Y-21575D02*
X32490Y-21644D01*
X35020Y-33780D02*
X34055Y-32815D01*
X32697Y-21575D02*
X32559Y-21575D01*
X35157Y-37569D02*
X35157Y-37176D01*
X35137Y-24311D02*
X35315Y-24133D01*
X35315Y-21870D02*
X35020Y-21575D01*
X33740Y-27402D02*
X34094Y-27048D01*
X35020Y-49685D02*
X35020Y-48799D01*
X29899Y-60167D02*
X29701Y-59969D01*
X35571Y-37983D02*
X35157Y-37569D01*
X35020Y-21575D02*
X32697Y-21575D01*
X33720Y-43976D02*
X32755Y-43976D01*
X35020Y-33780D02*
X35020Y-32067D01*
X33071Y-55217D02*
X32638Y-55217D01*
X34803Y-55118D02*
X34704Y-55217D01*
X34094Y-24823D02*
X34606Y-24311D01*
X34803Y-55118D02*
X34803Y-58425D01*
X35157Y-35118D02*
X35157Y-33917D01*
X34606Y-24311D02*
X35137Y-24311D01*
X35669Y-45591D02*
X35453Y-45591D01*
X35354Y-45591D02*
X35335Y-45591D01*
X35098Y-54193D02*
X34803Y-54488D01*
X35669Y-48150D02*
X35020Y-48799D01*
X34803Y-54488D02*
X34803Y-55118D01*
X37480Y-39901D02*
X37480Y-44075D01*
X35669Y-45591D02*
X35669Y-48150D01*
X36299Y-53800D02*
X35906Y-54193D01*
X35906Y-54193D02*
X35098Y-54193D01*
X28090Y-23799D02*
X27972Y-23681D01*
X29311Y-23386D02*
X28898Y-23799D01*
X28898Y-23799D02*
X28090Y-23799D01*
X30590Y-23386D02*
X30551Y-23386D01*
X30807Y-23169D02*
X30590Y-23386D01*
X30551Y-23386D02*
X29311Y-23386D01*
X30906Y-24094D02*
X30906Y-24370D01*
X30906Y-23543D02*
X30906Y-23445D01*
X30906Y-23543D02*
X30906Y-24094D01*
X30906Y-23445D02*
X31457Y-22894D01*
X30906Y-24370D02*
X30591Y-24685D01*
X30591Y-24685D02*
X30591Y-24686D01*
X30591Y-24686D02*
X30217Y-25060D01*
X33251Y-21068D02*
X33251Y-19560D01*
X33180Y-21139D02*
X33251Y-21068D01*
X32106Y-21516D02*
X32106Y-21600D01*
X32483Y-21139D02*
X32106Y-21516D01*
X32569Y-21139D02*
X32483Y-21139D01*
X32106Y-22784D02*
X32106Y-21600D01*
X32567Y-21139D02*
X32569Y-21139D01*
X32569Y-21139D02*
X33180Y-21139D01*
X31756Y-23134D02*
X32106Y-22784D01*
X33251Y-19560D02*
X34012Y-18799D01*
X34075Y-21260D02*
X32638Y-21260D01*
X32638Y-21260D02*
X32617Y-21260D01*
X32274Y-21525D02*
X32274Y-22835D01*
X32274Y-22835D02*
X32323Y-22884D01*
X32617Y-21260D02*
X32539Y-21260D01*
X34488Y-20651D02*
X34488Y-20847D01*
X32539Y-21260D02*
X32274Y-21525D01*
X34488Y-20847D02*
X34075Y-21260D01*
X32323Y-22884D02*
X32323Y-23150D01*
X17539Y-13169D02*
X16939Y-12569D01*
X21395Y-14478D02*
X21395Y-14121D01*
X21395Y-14478D02*
X21395Y-14469D01*
X21395Y-14121D02*
X20443Y-13169D01*
X21395Y-19717D02*
X21395Y-14478D01*
X16939Y-12569D02*
X16939Y-12242D01*
X22146Y-20468D02*
X21395Y-19717D01*
X20443Y-13169D02*
X17539Y-13169D01*
X22146Y-23888D02*
X22146Y-20468D01*
X22431Y-23268D02*
X22431Y-20581D01*
X20610Y-13002D02*
X17864Y-13002D01*
X17431Y-11734D02*
X16939Y-11242D01*
X21240Y-13632D02*
X20610Y-13002D01*
X21516Y-13908D02*
X21240Y-13632D01*
X17864Y-13002D02*
X17431Y-12569D01*
X21516Y-19666D02*
X21516Y-13908D01*
X17431Y-12569D02*
X17431Y-11734D01*
X22431Y-20581D02*
X21516Y-19666D01*
X26420Y-10214D02*
X23914Y-10214D01*
X17939Y-12219D02*
X18445Y-11713D01*
X18685Y-10214D02*
X23914Y-10214D01*
X32516Y-18839D02*
X32516Y-17092D01*
X18445Y-10454D02*
X18685Y-10214D01*
X31018Y-15594D02*
X31018Y-14310D01*
X28463Y-11755D02*
X27961Y-11755D01*
X18684Y-10214D02*
X18685Y-10214D01*
X18445Y-11713D02*
X18445Y-10454D01*
X17939Y-12242D02*
X17939Y-12219D01*
X27961Y-11755D02*
X26420Y-10214D01*
X32516Y-17092D02*
X31018Y-15594D01*
X31018Y-14310D02*
X28463Y-11755D01*
X18939Y-11242D02*
X18939Y-11169D01*
X18939Y-11169D02*
X19773Y-10335D01*
X27910Y-11876D02*
X26369Y-10335D01*
X31171Y-15919D02*
X30897Y-15645D01*
X30897Y-14361D02*
X28412Y-11876D01*
X28412Y-11876D02*
X27910Y-11876D01*
X31171Y-17766D02*
X31171Y-15919D01*
X26369Y-10335D02*
X23863Y-10335D01*
X30897Y-15645D02*
X30897Y-14361D01*
X23863Y-10335D02*
X19773Y-10335D01*
X29783Y-18073D02*
X29780Y-18073D01*
X23445Y-12628D02*
X23356Y-12717D01*
X29780Y-18073D02*
X24335Y-12628D01*
X29783Y-18258D02*
X29783Y-18073D01*
X24335Y-12628D02*
X23445Y-12628D01*
X23356Y-12717D02*
X19414Y-12717D01*
X19414Y-12717D02*
X18939Y-12242D01*
X28012Y-11634D02*
X26471Y-10093D01*
X29734Y-20886D02*
X29822Y-20974D01*
X28514Y-11634D02*
X28012Y-11634D01*
X33130Y-17534D02*
X31139Y-15543D01*
X32717Y-20974D02*
X33130Y-20561D01*
X29154Y-20886D02*
X29734Y-20886D01*
X17939Y-10788D02*
X18634Y-10093D01*
X31139Y-14259D02*
X28514Y-11634D01*
X17939Y-11242D02*
X17939Y-10788D01*
X33130Y-20561D02*
X33130Y-18907D01*
X18634Y-10093D02*
X24316Y-10093D01*
X31139Y-15543D02*
X31139Y-14259D01*
X26471Y-10093D02*
X24316Y-10093D01*
X33130Y-18907D02*
X33130Y-17534D01*
X29822Y-20974D02*
X32717Y-20974D01*
X30449Y-20756D02*
X30449Y-18567D01*
X24262Y-12382D02*
X24262Y-12383D01*
X30449Y-18567D02*
X30446Y-18567D01*
X24122Y-12242D02*
X24262Y-12382D01*
X22939Y-12242D02*
X24122Y-12242D01*
X30446Y-18567D02*
X24262Y-12383D01*
X30787Y-20748D02*
X30787Y-18736D01*
X30022Y-17971D02*
X24348Y-12297D01*
X30787Y-18736D02*
X30022Y-17971D01*
X22372Y-11809D02*
X21939Y-12242D01*
X23860Y-11809D02*
X22372Y-11809D01*
X23860Y-11809D02*
X23854Y-11803D01*
X24348Y-12297D02*
X23860Y-11809D01*
X20939Y-12242D02*
X20939Y-12240D01*
X32037Y-19298D02*
X31001Y-18262D01*
X32037Y-20719D02*
X32037Y-19298D01*
X23288Y-10719D02*
X21693Y-10719D01*
X23458Y-10719D02*
X23998Y-11259D01*
X31001Y-18262D02*
X23998Y-11259D01*
X21427Y-10985D02*
X21693Y-10719D01*
X21427Y-11752D02*
X21427Y-10985D01*
X20939Y-12240D02*
X21427Y-11752D01*
X23288Y-10719D02*
X23458Y-10719D01*
X23770Y-11378D02*
X23701Y-11309D01*
X31732Y-20709D02*
X31732Y-19165D01*
X31732Y-19164D02*
X23946Y-11378D01*
X31732Y-19165D02*
X31732Y-19164D01*
X23946Y-11378D02*
X23770Y-11378D01*
X23905Y-11682D02*
X25334Y-13111D01*
X22939Y-11551D02*
X22939Y-11242D01*
X23375Y-11682D02*
X23905Y-11682D01*
X25334Y-13111D02*
X31098Y-18875D01*
X23070Y-11682D02*
X22939Y-11551D01*
X31098Y-20740D02*
X31098Y-18875D01*
X23375Y-11682D02*
X23070Y-11682D01*
X22341Y-10840D02*
X21939Y-11242D01*
X23929Y-11534D02*
X23623Y-11534D01*
X23406Y-10958D02*
X23288Y-10840D01*
X23406Y-11349D02*
X23406Y-10958D01*
X23288Y-10840D02*
X22341Y-10840D01*
X31409Y-19014D02*
X24008Y-11613D01*
X31409Y-20732D02*
X31409Y-19014D01*
X24008Y-11613D02*
X23929Y-11534D01*
X23623Y-11534D02*
X23591Y-11534D01*
X23591Y-11534D02*
X23406Y-11349D01*
X32648Y-20709D02*
X32648Y-19548D01*
X20512Y-11683D02*
X19724Y-11683D01*
X30776Y-14412D02*
X30776Y-17676D01*
X27859Y-11996D02*
X26335Y-10472D01*
X30776Y-17676D02*
X32648Y-19548D01*
X27859Y-11997D02*
X28361Y-11997D01*
X20939Y-11242D02*
X20939Y-11256D01*
X27859Y-11997D02*
X27859Y-11996D01*
X20939Y-11256D02*
X20512Y-11683D01*
X26335Y-10472D02*
X19865Y-10472D01*
X19449Y-10888D02*
X19865Y-10472D01*
X19449Y-11408D02*
X19449Y-10888D01*
X19724Y-11683D02*
X19449Y-11408D01*
X28361Y-11997D02*
X30776Y-14412D01*
X32333Y-19405D02*
X24284Y-11356D01*
X24284Y-11356D02*
X24284Y-11355D01*
X24284Y-11355D02*
X23522Y-10593D01*
X23522Y-10593D02*
X20588Y-10593D01*
X32333Y-20709D02*
X32333Y-19405D01*
X20588Y-10593D02*
X19939Y-11242D01*
X30562Y-23021D02*
X30561Y-23021D01*
X27027Y-23091D02*
X28878Y-23091D01*
X30709Y-22874D02*
X31063Y-22874D01*
X26890Y-25079D02*
X26890Y-26516D01*
X25630Y-34252D02*
X24646Y-33268D01*
X30472Y-34469D02*
X30452Y-34449D01*
X27421Y-28918D02*
X26634Y-29705D01*
X30562Y-23021D02*
X30709Y-22874D01*
X26939Y-23179D02*
X27027Y-23091D01*
X30393Y-23189D02*
X28976Y-23189D01*
X26939Y-25030D02*
X26939Y-23179D01*
X26890Y-26516D02*
X27244Y-26870D01*
X24646Y-33268D02*
X24646Y-32008D01*
X27421Y-27047D02*
X27421Y-28918D01*
X28839Y-34252D02*
X25630Y-34252D01*
X28976Y-23189D02*
X28878Y-23091D01*
X27244Y-26870D02*
X27421Y-27047D01*
X26634Y-29705D02*
X26634Y-32008D01*
X29036Y-34449D02*
X28839Y-34252D01*
X25236Y-23012D02*
X25236Y-23307D01*
X25236Y-23307D02*
X25571Y-23642D01*
X30551Y-21811D02*
X30433Y-21929D01*
X26988Y-32913D02*
X30551Y-32913D01*
X30433Y-21929D02*
X26319Y-21929D01*
X26890Y-25079D02*
X26939Y-25030D01*
X30561Y-23021D02*
X30393Y-23189D01*
X26634Y-32559D02*
X26988Y-32913D01*
X30452Y-34449D02*
X29036Y-34449D01*
X26319Y-21929D02*
X25236Y-23012D01*
X25571Y-23642D02*
X25571Y-24587D01*
X26634Y-32008D02*
X26634Y-32559D01*
X25807Y-27459D02*
X25906Y-27558D01*
X25807Y-23248D02*
X26633Y-22422D01*
X25807Y-26870D02*
X25807Y-27459D01*
X25807Y-26772D02*
X25807Y-23248D01*
X25906Y-28740D02*
X25906Y-27558D01*
X25906Y-28740D02*
X26142Y-28740D01*
X30020Y-33445D02*
X27245Y-33445D01*
X25906Y-32913D02*
X25906Y-28740D01*
X25807Y-26870D02*
X25807Y-26772D01*
X27245Y-33445D02*
X26438Y-33445D01*
X26633Y-22422D02*
X30256Y-22421D01*
X26438Y-33445D02*
X25906Y-32913D01*
X30236Y-33661D02*
X30020Y-33445D01*
X31043Y-34055D02*
X31043Y-34489D01*
X31043Y-34489D02*
X30473Y-35059D01*
X30079Y-35059D02*
X28189Y-35059D01*
X30473Y-35059D02*
X30079Y-35059D01*
X28189Y-35059D02*
X28012Y-34882D01*
X30295Y-36182D02*
X30138Y-36339D01*
X31732Y-34094D02*
X31732Y-35689D01*
X30295Y-36181D02*
X30295Y-36182D01*
X31732Y-35689D02*
X31437Y-35984D01*
X31437Y-35984D02*
X30492Y-35984D01*
X30492Y-35984D02*
X30295Y-36181D01*
X32539Y-30078D02*
X32126Y-30078D01*
X32126Y-32382D02*
X32126Y-30078D01*
X32539Y-32539D02*
X32520Y-32539D01*
X34547Y-32047D02*
X34547Y-31732D01*
X32539Y-32539D02*
X34390Y-32539D01*
X32402Y-34173D02*
X32402Y-33898D01*
X32283Y-34292D02*
X32402Y-34173D01*
X32283Y-34370D02*
X32283Y-34292D01*
X32402Y-32657D02*
X32402Y-33898D01*
X32520Y-32539D02*
X32402Y-32657D01*
X34547Y-32382D02*
X34547Y-32047D01*
X34390Y-32539D02*
X34547Y-32382D01*
X30492Y-32106D02*
X30275Y-32323D01*
X27205Y-26398D02*
X27205Y-25728D01*
X33189Y-24921D02*
X33819Y-25551D01*
X27677Y-29095D02*
X27677Y-26870D01*
X27343Y-29429D02*
X27677Y-29095D01*
X27677Y-26870D02*
X27205Y-26398D01*
X33189Y-24921D02*
X33189Y-22028D01*
X27657Y-32323D02*
X27343Y-32009D01*
X30275Y-32323D02*
X27657Y-32323D01*
X33011Y-21911D02*
X32569Y-21911D01*
X27343Y-32009D02*
X27343Y-29429D01*
X33189Y-22028D02*
X33011Y-21911D01*
X29843Y-33661D02*
X27303Y-33661D01*
X30472Y-22736D02*
X30472Y-22737D01*
X25512Y-28425D02*
X25512Y-33248D01*
X26535Y-28031D02*
X26870Y-27696D01*
X26870Y-27283D02*
X26024Y-26437D01*
X26870Y-27696D02*
X26870Y-27283D01*
X30491Y-22737D02*
X30473Y-22737D01*
X30492Y-33897D02*
X30079Y-33897D01*
X30610Y-22618D02*
X30491Y-22737D01*
X30473Y-22737D02*
X30472Y-22736D01*
X26024Y-26437D02*
X26024Y-23327D01*
X25925Y-33661D02*
X27303Y-33661D01*
X30531Y-33936D02*
X30492Y-33897D01*
X26024Y-23327D02*
X26614Y-22737D01*
X25512Y-33248D02*
X25925Y-33661D01*
X30079Y-33897D02*
X29843Y-33661D01*
X26614Y-22737D02*
X30472Y-22737D01*
X35374Y-32913D02*
X36142Y-32913D01*
X36969Y-32263D02*
X36969Y-29725D01*
X36969Y-29725D02*
X35748Y-28504D01*
X35748Y-28504D02*
X32047Y-28504D01*
X36319Y-32913D02*
X36969Y-32263D01*
X32047Y-28504D02*
X31516Y-27973D01*
X36142Y-32913D02*
X36319Y-32913D01*
X31516Y-27973D02*
X31516Y-25846D01*
X36201Y-33110D02*
X36339Y-33110D01*
X31909Y-28110D02*
X32145Y-28346D01*
X32145Y-28346D02*
X35806Y-28346D01*
X31909Y-25354D02*
X31909Y-28110D01*
X36339Y-33110D02*
X37126Y-32323D01*
X36201Y-33110D02*
X36004Y-33110D01*
X37126Y-29666D02*
X35806Y-28346D01*
X37126Y-32323D02*
X37126Y-29666D01*
X31319Y-28031D02*
X31949Y-28661D01*
X31949Y-28661D02*
X35688Y-28661D01*
X36004Y-32717D02*
X36298Y-32717D01*
X31319Y-25354D02*
X31319Y-28031D01*
X36298Y-32717D02*
X36811Y-32204D01*
X36811Y-29784D02*
X35688Y-28661D01*
X36811Y-32204D02*
X36811Y-29784D01*
X37283Y-29605D02*
X35867Y-28189D01*
X32106Y-28051D02*
X32106Y-25827D01*
X35867Y-28189D02*
X32244Y-28189D01*
X32244Y-28189D02*
X32106Y-28051D01*
X36359Y-33307D02*
X37283Y-32383D01*
X37283Y-32383D02*
X37283Y-29605D01*
X36142Y-33307D02*
X36359Y-33307D01*
X35374Y-33307D02*
X36142Y-33307D01*
X35630Y-28819D02*
X31851Y-28819D01*
X36654Y-29843D02*
X35630Y-28819D01*
X36654Y-32146D02*
X36654Y-29843D01*
X35374Y-32520D02*
X36043Y-32520D01*
X31851Y-28819D02*
X31122Y-28090D01*
X36043Y-32520D02*
X36280Y-32520D01*
X36280Y-32520D02*
X36654Y-32146D01*
X31122Y-28090D02*
X31122Y-25846D01*
X32303Y-25354D02*
X32303Y-28012D01*
X36378Y-33504D02*
X37441Y-32441D01*
X32322Y-28031D02*
X35925Y-28031D01*
X37441Y-29547D02*
X35925Y-28031D01*
X36220Y-33504D02*
X36378Y-33504D01*
X37441Y-32441D02*
X37441Y-29547D01*
X32303Y-28012D02*
X32322Y-28031D01*
X36220Y-33504D02*
X36024Y-33504D01*
X36496Y-29902D02*
X35570Y-28976D01*
X36220Y-32323D02*
X35984Y-32323D01*
X36220Y-32323D02*
X36260Y-32323D01*
X36496Y-32087D02*
X36496Y-29902D01*
X30925Y-25354D02*
X30925Y-28150D01*
X36260Y-32323D02*
X36496Y-32087D01*
X31751Y-28976D02*
X35570Y-28976D01*
X30925Y-28150D02*
X31751Y-28976D01*
X36378Y-33720D02*
X37598Y-32500D01*
X37598Y-29487D02*
X35985Y-27874D01*
X35985Y-27874D02*
X32519Y-27874D01*
X32500Y-27855D02*
X32500Y-25827D01*
X36201Y-33720D02*
X36378Y-33720D01*
X35374Y-33720D02*
X36201Y-33720D01*
X37598Y-32500D02*
X37598Y-29487D01*
X32519Y-27874D02*
X32500Y-27855D01*
X36240Y-32126D02*
X36339Y-32027D01*
X30728Y-28208D02*
X30728Y-25846D01*
X35512Y-29134D02*
X31654Y-29134D01*
X36024Y-32126D02*
X36240Y-32126D01*
X36339Y-29961D02*
X35512Y-29134D01*
X36339Y-32027D02*
X36339Y-29961D01*
X35374Y-32126D02*
X36024Y-32126D01*
X31654Y-29134D02*
X30728Y-28208D01*
X30610Y-25039D02*
X32520Y-25039D01*
X37756Y-32558D02*
X37756Y-29429D01*
X32697Y-25216D02*
X32697Y-27678D01*
X36220Y-33937D02*
X36024Y-33937D01*
X36377Y-33937D02*
X37756Y-32558D01*
X36220Y-33937D02*
X36377Y-33937D01*
X32697Y-27678D02*
X32736Y-27717D01*
X30531Y-25118D02*
X30610Y-25039D01*
X32520Y-25039D02*
X32697Y-25216D01*
X30531Y-25354D02*
X30531Y-25118D01*
X32736Y-27717D02*
X36044Y-27717D01*
X37756Y-29429D02*
X36044Y-27717D01*
G54D30*
X21998Y-18533D02*
X21998Y-16563D01*
X21998Y-18642D02*
X21998Y-18533D01*
G54D29*
X25650Y-33996D02*
X25000Y-33346D01*
X29606Y-34094D02*
X29508Y-33996D01*
X19376Y-33262D02*
X18415Y-34223D01*
X18415Y-41110D02*
X18935Y-41630D01*
X22618Y-30492D02*
X22756Y-30354D01*
X19838Y-33262D02*
X19833Y-33267D01*
X26043Y-33996D02*
X25650Y-33996D01*
X22756Y-30354D02*
X22756Y-20886D01*
X22608Y-30492D02*
X19838Y-33262D01*
X25000Y-33346D02*
X25000Y-30492D01*
X18415Y-34223D02*
X18415Y-41110D01*
X29508Y-33996D02*
X26043Y-33996D01*
X30157Y-34094D02*
X29606Y-34094D01*
X19838Y-33262D02*
X19376Y-33262D01*
X18012Y-21929D02*
X18012Y-20098D01*
X22618Y-30492D02*
X22608Y-30492D01*
X30236Y-34173D02*
X30157Y-34094D01*
X26299Y-29666D02*
X26299Y-32756D01*
X26575Y-26634D02*
X27136Y-27195D01*
X30177Y-22954D02*
X30158Y-22954D01*
X26871Y-22913D02*
X26575Y-23209D01*
X30158Y-22954D02*
X30117Y-22913D01*
X26575Y-23209D02*
X26575Y-26634D01*
X26693Y-33150D02*
X26476Y-32933D01*
X27136Y-28829D02*
X26615Y-29350D01*
X26299Y-32756D02*
X26476Y-32933D01*
X27136Y-27195D02*
X27136Y-28829D01*
X30117Y-22913D02*
X26871Y-22913D01*
X26615Y-29350D02*
X26299Y-29666D01*
X30531Y-33405D02*
X30276Y-33150D01*
X30276Y-33150D02*
X26693Y-33150D01*
X27579Y-20630D02*
X26851Y-21358D01*
X30551Y-22185D02*
X30531Y-22185D01*
X26615Y-22165D02*
X25512Y-23268D01*
X27579Y-20138D02*
X27579Y-20630D01*
X24646Y-23268D02*
X24646Y-22520D01*
X24646Y-22520D02*
X25808Y-21358D01*
X30531Y-22185D02*
X30511Y-22165D01*
X25808Y-21358D02*
X26851Y-21358D01*
X28169Y-18307D02*
X27579Y-18897D01*
X27579Y-18897D02*
X27579Y-20138D01*
X30511Y-22165D02*
X26615Y-22165D01*
X23445Y-14882D02*
X23445Y-13022D01*
X26634Y-40474D02*
X26634Y-38740D01*
X25453Y-50768D02*
X25453Y-48937D01*
X26634Y-38740D02*
X26634Y-36753D01*
X25472Y-50787D02*
X25453Y-50768D01*
X23445Y-43760D02*
X23445Y-43662D01*
X23445Y-49055D02*
X23445Y-56299D01*
X24882Y-50787D02*
X25472Y-50787D01*
X23445Y-26535D02*
X23445Y-28031D01*
X23356Y-12933D02*
X22972Y-12933D01*
X26634Y-36753D02*
X26634Y-36674D01*
X23445Y-43662D02*
X26634Y-40474D01*
X22520Y-49429D02*
X22166Y-49429D01*
X26634Y-36674D02*
X23445Y-33485D01*
X20416Y-47679D02*
X20416Y-45392D01*
X22166Y-49429D02*
X20416Y-47679D01*
X25354Y-58031D02*
X25354Y-59114D01*
X23445Y-56299D02*
X23445Y-57067D01*
X23445Y-14882D02*
X23445Y-26535D01*
X24823Y-57500D02*
X25354Y-58031D01*
X20416Y-45392D02*
X19580Y-44556D01*
X23445Y-13022D02*
X23356Y-12933D01*
X23445Y-33485D02*
X23445Y-28031D01*
X23878Y-57500D02*
X24823Y-57500D01*
X23445Y-49055D02*
X23445Y-43760D01*
X19580Y-41275D02*
X18935Y-40630D01*
X23445Y-57067D02*
X23878Y-57500D01*
X19580Y-44556D02*
X19580Y-41275D01*
X32240Y-15039D02*
X32240Y-15520D01*
X37205Y-17795D02*
X37205Y-17815D01*
X37205Y-21279D02*
X36771Y-21713D01*
X36771Y-21713D02*
X35571Y-21713D01*
X34055Y-16909D02*
X36378Y-16909D01*
X37205Y-17736D02*
X37205Y-17795D01*
X37205Y-17815D02*
X37205Y-21279D01*
X34055Y-16909D02*
X33629Y-16909D01*
X33629Y-16909D02*
X33621Y-16909D01*
X37166Y-17697D02*
X37205Y-17736D01*
X32240Y-15520D02*
X33629Y-16909D01*
X36378Y-16909D02*
X37166Y-17697D01*
X36752Y-21516D02*
X37047Y-21221D01*
X33760Y-17067D02*
X33544Y-17067D01*
X36300Y-17067D02*
X33760Y-17067D01*
X37047Y-21221D02*
X37047Y-18051D01*
X36024Y-21516D02*
X36752Y-21516D01*
X32043Y-15566D02*
X32047Y-15570D01*
X37047Y-17814D02*
X36300Y-17067D01*
X32043Y-15504D02*
X32043Y-15566D01*
X37047Y-18051D02*
X37047Y-17814D01*
X32043Y-15299D02*
X32043Y-15504D01*
X33544Y-17067D02*
X32047Y-15570D01*
X33464Y-17224D02*
X36220Y-17224D01*
X31846Y-15039D02*
X31845Y-15040D01*
X36890Y-17894D02*
X36890Y-21082D01*
X31845Y-15040D02*
X31845Y-15604D01*
X36220Y-17224D02*
X36890Y-17894D01*
X36653Y-21319D02*
X35571Y-21319D01*
X36890Y-21082D02*
X36653Y-21319D01*
X33189Y-16949D02*
X33464Y-17224D01*
X31845Y-15604D02*
X33187Y-16946D01*
X33187Y-16946D02*
X33189Y-16946D01*
X33189Y-16946D02*
X33189Y-16949D01*
X31654Y-15299D02*
X31654Y-15650D01*
X36732Y-18150D02*
X36732Y-17972D01*
X33386Y-17382D02*
X33425Y-17382D01*
X36594Y-21122D02*
X36732Y-20984D01*
X36732Y-20984D02*
X36732Y-18150D01*
X36024Y-21122D02*
X36594Y-21122D01*
X31654Y-15650D02*
X33386Y-17382D01*
X36142Y-17382D02*
X33425Y-17382D01*
X36732Y-17972D02*
X36142Y-17382D01*
X35571Y-20925D02*
X36535Y-20925D01*
X36535Y-20925D02*
X36575Y-20885D01*
X33583Y-17539D02*
X36062Y-17539D01*
X36062Y-17539D02*
X36575Y-18052D01*
X33583Y-17539D02*
X33307Y-17539D01*
X33307Y-17539D02*
X31453Y-15685D01*
X31453Y-15039D02*
X31453Y-15685D01*
X36575Y-20885D02*
X36575Y-18052D01*
X39026Y-34508D02*
X37943Y-33425D01*
X37943Y-33425D02*
X37283Y-33425D01*
X51378Y-30295D02*
X51398Y-30275D01*
X51398Y-28445D02*
X51398Y-25689D01*
X51398Y-30275D02*
X51398Y-28445D01*
X46784Y-38635D02*
X43183Y-38635D01*
X48031Y-39882D02*
X46784Y-38635D01*
X42894Y-38248D02*
X42894Y-38346D01*
X47047Y-44311D02*
X47264Y-44311D01*
X47264Y-44311D02*
X48031Y-43544D01*
X42894Y-38346D02*
X43183Y-38635D01*
X48031Y-43544D02*
X48031Y-39882D01*
X42894Y-38248D02*
X42894Y-36673D01*
X47874Y-39961D02*
X46712Y-38799D01*
X42814Y-38799D02*
X42500Y-38485D01*
X47874Y-43464D02*
X47874Y-39961D01*
X46201Y-44114D02*
X47224Y-44114D01*
X42500Y-38485D02*
X42500Y-37343D01*
X46712Y-38799D02*
X42814Y-38799D01*
X47224Y-44114D02*
X47874Y-43464D01*
X43091Y-38307D02*
X43249Y-38465D01*
X46851Y-38465D02*
X48189Y-39803D01*
X43249Y-38465D02*
X46851Y-38465D01*
X47301Y-44510D02*
X46199Y-44510D01*
X48189Y-43622D02*
X47301Y-44510D01*
X43091Y-37362D02*
X43091Y-38307D01*
X48189Y-39803D02*
X48189Y-43622D01*
X47717Y-43385D02*
X47182Y-43920D01*
X47717Y-40039D02*
X47717Y-43385D01*
X42303Y-36673D02*
X42303Y-38524D01*
X46635Y-38957D02*
X47717Y-40039D01*
X47182Y-43920D02*
X47044Y-43920D01*
X42303Y-38524D02*
X42736Y-38957D01*
X42736Y-38957D02*
X46635Y-38957D01*
X48346Y-43702D02*
X48346Y-39724D01*
X46929Y-38307D02*
X43327Y-38307D01*
X47047Y-44705D02*
X47343Y-44705D01*
X43327Y-38307D02*
X43287Y-38267D01*
X47343Y-44705D02*
X48346Y-43702D01*
X43287Y-38267D02*
X43287Y-36693D01*
X48346Y-39724D02*
X46929Y-38307D01*
X42657Y-39114D02*
X42106Y-38563D01*
X47165Y-43720D02*
X47559Y-43326D01*
X46555Y-39114D02*
X42657Y-39114D01*
X46201Y-43720D02*
X47165Y-43720D01*
X42106Y-38563D02*
X42106Y-37323D01*
X47559Y-43326D02*
X47559Y-40118D01*
X47559Y-40118D02*
X46555Y-39114D01*
X43484Y-37382D02*
X43484Y-38051D01*
X43484Y-38051D02*
X43583Y-38150D01*
X48504Y-43780D02*
X47363Y-44921D01*
X43583Y-38150D02*
X47008Y-38150D01*
X48504Y-39646D02*
X48504Y-43780D01*
X47008Y-38150D02*
X48504Y-39646D01*
X47363Y-44921D02*
X46201Y-44921D01*
X41909Y-38602D02*
X42579Y-39272D01*
X42579Y-39272D02*
X46477Y-39272D01*
X47028Y-43524D02*
X47067Y-43524D01*
X41909Y-36673D02*
X41909Y-38602D01*
X47402Y-40197D02*
X47402Y-43150D01*
X47067Y-43524D02*
X47402Y-43189D01*
X47402Y-43189D02*
X47402Y-43150D01*
X46477Y-39272D02*
X47402Y-40197D01*
X43465Y-36339D02*
X41693Y-36339D01*
X47086Y-37992D02*
X43780Y-37992D01*
X43681Y-37893D02*
X43681Y-36555D01*
X47382Y-45138D02*
X48661Y-43859D01*
X48661Y-39567D02*
X47086Y-37992D01*
X47047Y-45138D02*
X47382Y-45138D01*
X48661Y-43859D02*
X48661Y-39567D01*
X43681Y-36555D02*
X43465Y-36339D01*
X41693Y-36339D02*
X41516Y-36516D01*
X43780Y-37992D02*
X43681Y-37893D01*
X41516Y-36516D02*
X41516Y-36673D01*
X47224Y-40256D02*
X46397Y-39429D01*
X42520Y-39429D02*
X41713Y-38622D01*
X46397Y-39429D02*
X42520Y-39429D01*
X46752Y-43327D02*
X47224Y-42855D01*
X41713Y-38622D02*
X41713Y-37323D01*
X47224Y-42855D02*
X47224Y-40256D01*
X46201Y-43327D02*
X46752Y-43327D01*
X41496Y-21340D02*
X39350Y-21340D01*
X36555Y-26121D02*
X37028Y-26594D01*
X39231Y-21340D02*
X36555Y-24016D01*
X36555Y-24331D02*
X36555Y-26121D01*
X39350Y-21340D02*
X39231Y-21340D01*
X36555Y-24016D02*
X36555Y-24331D01*
X39055Y-27697D02*
X39055Y-31162D01*
X39508Y-32795D02*
X39606Y-32893D01*
X39055Y-31162D02*
X39508Y-31615D01*
X39606Y-32893D02*
X41141Y-32893D01*
X41417Y-32617D02*
X41141Y-32893D01*
X41417Y-32519D02*
X41417Y-32617D01*
X39508Y-31615D02*
X39508Y-32795D01*
X39075Y-23466D02*
X39075Y-23681D01*
X41458Y-23484D02*
X41654Y-23288D01*
X39213Y-23819D02*
X40118Y-23819D01*
X40118Y-23819D02*
X40453Y-23484D01*
X39075Y-23681D02*
X39213Y-23819D01*
X40453Y-23484D02*
X41458Y-23484D01*
X41240Y-25159D02*
X41240Y-24921D01*
X41909Y-24252D02*
X41909Y-23346D01*
X41909Y-23327D02*
X41909Y-23346D01*
X42677Y-22972D02*
X42264Y-22972D01*
X41240Y-24921D02*
X41909Y-24252D01*
X42264Y-22972D02*
X41909Y-23327D01*
X43327Y-20650D02*
X43110Y-20867D01*
X43760Y-18859D02*
X43581Y-18859D01*
X43581Y-18859D02*
X43327Y-19113D01*
X43327Y-19113D02*
X43327Y-20650D01*
X43406Y-21240D02*
X45354Y-21240D01*
X43268Y-23150D02*
X43268Y-22303D01*
X45512Y-21082D02*
X45512Y-20690D01*
X43406Y-21240D02*
X43386Y-21240D01*
X43268Y-21358D02*
X43268Y-22303D01*
X45354Y-21240D02*
X45512Y-21082D01*
X43386Y-21240D02*
X43268Y-21358D01*
X41122Y-32204D02*
X41122Y-32382D01*
X41535Y-32165D02*
X41161Y-32165D01*
X46023Y-21909D02*
X43563Y-21909D01*
X46122Y-23976D02*
X46122Y-22008D01*
X39705Y-32402D02*
X39705Y-31536D01*
X39331Y-31162D02*
X39331Y-26043D01*
X46122Y-22008D02*
X46023Y-21909D01*
X46122Y-23976D02*
X46122Y-25335D01*
X41122Y-32382D02*
X41043Y-32461D01*
X39705Y-31536D02*
X39331Y-31162D01*
X41161Y-32165D02*
X41122Y-32204D01*
X41043Y-32461D02*
X39764Y-32461D01*
X39764Y-32461D02*
X39705Y-32402D01*
X41004Y-33306D02*
X41358Y-32952D01*
X39566Y-33306D02*
X40984Y-33306D01*
X39390Y-21870D02*
X38957Y-21870D01*
X37657Y-27087D02*
X37657Y-26063D01*
X41378Y-34390D02*
X41004Y-34390D01*
X37008Y-23819D02*
X37008Y-24528D01*
X38957Y-21870D02*
X37008Y-23819D01*
X38583Y-25669D02*
X38583Y-23523D01*
X41378Y-23189D02*
X41299Y-23268D01*
X40866Y-34252D02*
X39015Y-34252D01*
X41693Y-34075D02*
X41378Y-34390D01*
X41378Y-21870D02*
X39390Y-21870D01*
X41811Y-22913D02*
X41654Y-22913D01*
X41358Y-32952D02*
X41575Y-32952D01*
X37894Y-33131D02*
X37894Y-27324D01*
X41122Y-23268D02*
X40945Y-23091D01*
X38858Y-32598D02*
X39566Y-33306D01*
X41496Y-21752D02*
X41378Y-21870D01*
X41890Y-34154D02*
X41811Y-34075D01*
X40945Y-23091D02*
X39134Y-23091D01*
X38858Y-26200D02*
X38858Y-32598D01*
X38583Y-25807D02*
X38583Y-25669D01*
X40984Y-33306D02*
X41004Y-33306D01*
X41811Y-34075D02*
X41693Y-34075D01*
X36831Y-24881D02*
X36831Y-25237D01*
X41004Y-34390D02*
X40866Y-34252D01*
X41299Y-23268D02*
X41122Y-23268D01*
X39134Y-23091D02*
X39015Y-23091D01*
X41654Y-22913D02*
X41378Y-23189D01*
X38583Y-25925D02*
X38858Y-26200D01*
X41831Y-22933D02*
X41811Y-22913D01*
X36831Y-25237D02*
X37657Y-26063D01*
X39015Y-23091D02*
X38583Y-23523D01*
X37894Y-27324D02*
X37657Y-27087D01*
X37008Y-24704D02*
X36831Y-24881D01*
X38583Y-25807D02*
X38583Y-25925D01*
X37008Y-24528D02*
X37008Y-24704D01*
X39015Y-34252D02*
X37894Y-33131D01*
X43032Y-33730D02*
X42028Y-34734D01*
X40285Y-31969D02*
X42530Y-31969D01*
X42028Y-35128D02*
X41093Y-36063D01*
X43100Y-32539D02*
X43100Y-33662D01*
X42028Y-34734D02*
X42028Y-35128D01*
X40138Y-32116D02*
X40285Y-31969D01*
X42530Y-31969D02*
X43100Y-32539D01*
X43100Y-33662D02*
X43032Y-33730D01*
X39537Y-36063D02*
X41093Y-36063D01*
X42126Y-31397D02*
X43221Y-32492D01*
X42165Y-35178D02*
X41044Y-36299D01*
X42126Y-31014D02*
X42126Y-31397D01*
X43219Y-33730D02*
X42165Y-34784D01*
X42165Y-34784D02*
X42165Y-35178D01*
X41044Y-36299D02*
X39803Y-36299D01*
X43221Y-32492D02*
X43221Y-33730D01*
X43221Y-33730D02*
X43219Y-33730D01*
X41673Y-34705D02*
X41319Y-35059D01*
X39154Y-35059D02*
X38957Y-34862D01*
X41319Y-35059D02*
X39154Y-35059D01*
X41673Y-34487D02*
X41673Y-34705D01*
X41909Y-34507D02*
X41909Y-34794D01*
X41909Y-34794D02*
X41605Y-35098D01*
X41605Y-35098D02*
X41250Y-35453D01*
X42283Y-34134D02*
X41909Y-34507D01*
X43353Y-33946D02*
X43181Y-34118D01*
X43353Y-33946D02*
X43353Y-30288D01*
X43602Y-30039D02*
X43353Y-30288D01*
X43474Y-34341D02*
X43474Y-32835D01*
X45453Y-31929D02*
X44902Y-32480D01*
X43406Y-34409D02*
X43474Y-34341D01*
X43012Y-34409D02*
X43406Y-34409D01*
X43474Y-32835D02*
X43602Y-32707D01*
X43602Y-32707D02*
X44675Y-32707D01*
X45394Y-31417D02*
X45453Y-31476D01*
X45453Y-31476D02*
X45453Y-31929D01*
X44675Y-32707D02*
X44902Y-32480D01*
X46317Y-35571D02*
X47274Y-36528D01*
X44794Y-35571D02*
X46317Y-35571D01*
X44134Y-34911D02*
X44794Y-35571D01*
X37717Y-23622D02*
X37717Y-24822D01*
X38445Y-32933D02*
X38445Y-26871D01*
X41240Y-33602D02*
X41142Y-33700D01*
X38445Y-26871D02*
X38346Y-26772D01*
X38346Y-25059D02*
X38189Y-24902D01*
X39370Y-33700D02*
X39212Y-33700D01*
X38917Y-22422D02*
X37717Y-23622D01*
X39212Y-33700D02*
X38445Y-32933D01*
X38346Y-26772D02*
X38346Y-25059D01*
X41240Y-22421D02*
X38917Y-22422D01*
X39547Y-33700D02*
X39370Y-33700D01*
X37717Y-24822D02*
X37657Y-24882D01*
X39547Y-33700D02*
X41142Y-33700D01*
X38287Y-33051D02*
X38248Y-33012D01*
X37913Y-25394D02*
X37913Y-25354D01*
X38150Y-25886D02*
X37913Y-25649D01*
X39016Y-22697D02*
X38897Y-22697D01*
X38897Y-22697D02*
X37913Y-23681D01*
X37913Y-23681D02*
X37913Y-24744D01*
X41535Y-33917D02*
X41476Y-33858D01*
X39331Y-33897D02*
X39133Y-33897D01*
X40650Y-33858D02*
X40611Y-33897D01*
X37913Y-25354D02*
X37913Y-24744D01*
X39133Y-33897D02*
X38514Y-33278D01*
X37913Y-25649D02*
X37913Y-25394D01*
X38248Y-33012D02*
X38248Y-26988D01*
X41535Y-22697D02*
X39016Y-22697D01*
X41476Y-33858D02*
X40650Y-33858D01*
X38150Y-26890D02*
X38150Y-25886D01*
X38514Y-33278D02*
X38287Y-33051D01*
X38248Y-26988D02*
X38150Y-26890D01*
X39331Y-33897D02*
X40611Y-33897D01*
X39075Y-22697D02*
X39016Y-22697D01*
X42500Y-27795D02*
X43150Y-28445D01*
X48583Y-32047D02*
X47717Y-32913D01*
X47165Y-28445D02*
X47539Y-28445D01*
X48583Y-29489D02*
X48583Y-32047D01*
X42500Y-25846D02*
X42500Y-27795D01*
X43150Y-28445D02*
X47165Y-28445D01*
X47539Y-28445D02*
X48583Y-29489D01*
X47717Y-32913D02*
X47165Y-32913D01*
X47264Y-28287D02*
X47618Y-28287D01*
X47776Y-33110D02*
X46417Y-33110D01*
X48740Y-29409D02*
X48740Y-32146D01*
X47618Y-28287D02*
X48740Y-29409D01*
X42894Y-25354D02*
X42894Y-27933D01*
X43248Y-28287D02*
X47264Y-28287D01*
X42894Y-27933D02*
X43248Y-28287D01*
X48740Y-32146D02*
X47776Y-33110D01*
X48425Y-31949D02*
X47657Y-32717D01*
X47106Y-28602D02*
X47460Y-28602D01*
X42303Y-27854D02*
X43051Y-28602D01*
X48425Y-29567D02*
X48425Y-31949D01*
X47460Y-28602D02*
X48425Y-29567D01*
X43051Y-28602D02*
X47106Y-28602D01*
X42303Y-25354D02*
X42303Y-27854D01*
X47657Y-32717D02*
X46417Y-32717D01*
X43091Y-27894D02*
X43327Y-28130D01*
X48898Y-29331D02*
X48898Y-32244D01*
X47697Y-28130D02*
X48898Y-29331D01*
X43091Y-25846D02*
X43091Y-27894D01*
X48898Y-32244D02*
X47835Y-33307D01*
X43327Y-28130D02*
X47402Y-28130D01*
X47402Y-28130D02*
X47697Y-28130D01*
X47835Y-33307D02*
X47165Y-33307D01*
X48268Y-29646D02*
X48268Y-31850D01*
X42106Y-25846D02*
X42106Y-27913D01*
X42953Y-28760D02*
X46791Y-28760D01*
X47382Y-28760D02*
X48268Y-29646D01*
X47598Y-32520D02*
X47165Y-32520D01*
X42106Y-27913D02*
X42953Y-28760D01*
X48268Y-31850D02*
X47598Y-32520D01*
X46791Y-28760D02*
X47382Y-28760D01*
X43287Y-25354D02*
X43287Y-27854D01*
X47775Y-27972D02*
X49055Y-29252D01*
X49055Y-29252D02*
X49055Y-32343D01*
X49055Y-32343D02*
X47894Y-33504D01*
X47894Y-33504D02*
X46417Y-33504D01*
X43405Y-27972D02*
X47520Y-27972D01*
X43287Y-27854D02*
X43405Y-27972D01*
X47520Y-27972D02*
X47775Y-27972D01*
X41909Y-25354D02*
X41909Y-27972D01*
X48110Y-31752D02*
X47539Y-32323D01*
X48110Y-29724D02*
X48110Y-31752D01*
X47028Y-28917D02*
X47303Y-28917D01*
X46417Y-32323D02*
X47539Y-32323D01*
X42854Y-28917D02*
X47028Y-28917D01*
X47303Y-28917D02*
X48110Y-29724D01*
X41909Y-27972D02*
X42854Y-28917D01*
X47854Y-27815D02*
X49213Y-29174D01*
X49213Y-29174D02*
X49213Y-32440D01*
X47952Y-33701D02*
X47165Y-33701D01*
X47343Y-27815D02*
X47854Y-27815D01*
X49213Y-32440D02*
X47952Y-33701D01*
X43445Y-25885D02*
X43445Y-27717D01*
X43484Y-25846D02*
X43445Y-25885D01*
X43543Y-27815D02*
X47343Y-27815D01*
X43445Y-27717D02*
X43543Y-27815D01*
X42757Y-29075D02*
X46142Y-29075D01*
X47225Y-29075D02*
X47953Y-29803D01*
X46142Y-29075D02*
X47225Y-29075D01*
X47953Y-31654D02*
X47481Y-32126D01*
X47481Y-32126D02*
X47165Y-32126D01*
X47953Y-29803D02*
X47953Y-31654D01*
X41713Y-28031D02*
X42757Y-29075D01*
X41713Y-25846D02*
X41713Y-28031D01*
X47520Y-27657D02*
X47933Y-27657D01*
X49370Y-32539D02*
X48011Y-33898D01*
X43819Y-27657D02*
X47520Y-27657D01*
X41516Y-25354D02*
X41516Y-25059D01*
X48011Y-33898D02*
X46417Y-33898D01*
X47933Y-27657D02*
X49370Y-29094D01*
X41536Y-25039D02*
X43523Y-25039D01*
X49370Y-29094D02*
X49370Y-32539D01*
X43523Y-25039D02*
X43681Y-25197D01*
X43681Y-25197D02*
X43681Y-27519D01*
X41516Y-25059D02*
X41536Y-25039D01*
X43681Y-27519D02*
X43819Y-27657D01*
G54D30*
X22917Y-39150D02*
X22530Y-39537D01*
X22530Y-39537D02*
X20580Y-39537D01*
X20580Y-39537D02*
X20098Y-39055D01*
G54D29*
X22917Y-39134D02*
X22917Y-39150D01*
X38071Y-33071D02*
X38071Y-27165D01*
X41535Y-22186D02*
X38937Y-22186D01*
X37421Y-25020D02*
X37421Y-25393D01*
X39213Y-34094D02*
X39094Y-34094D01*
X38209Y-33209D02*
X38071Y-33071D01*
X38897Y-22186D02*
X37421Y-23662D01*
X39094Y-34094D02*
X38209Y-33209D01*
X37972Y-25944D02*
X37421Y-25393D01*
X38937Y-22186D02*
X38897Y-22186D01*
X38071Y-27165D02*
X37972Y-27066D01*
X39213Y-34094D02*
X41142Y-34094D01*
X37421Y-23662D02*
X37421Y-25020D01*
X37972Y-27066D02*
X37972Y-25944D01*
X41201Y-34153D02*
X41142Y-34094D01*
X41929Y-13720D02*
X40097Y-13720D01*
X41181Y-21102D02*
X42913Y-19370D01*
X41201Y-22953D02*
X41142Y-22894D01*
X36555Y-23524D02*
X38977Y-21102D01*
X42913Y-14704D02*
X41929Y-13720D01*
X38977Y-21102D02*
X41181Y-21102D01*
X41142Y-22894D02*
X38956Y-22894D01*
X36378Y-23524D02*
X36555Y-23524D01*
X38956Y-22894D02*
X38248Y-23602D01*
X40097Y-13720D02*
X39763Y-13386D01*
X42913Y-19370D02*
X42913Y-14704D01*
X38248Y-23602D02*
X38248Y-24429D01*
X39606Y-33503D02*
X39389Y-33503D01*
X39389Y-33503D02*
X38661Y-32775D01*
X46772Y-25020D02*
X46772Y-23445D01*
X47776Y-23445D02*
X46772Y-23445D01*
X39606Y-33503D02*
X41004Y-33503D01*
X41555Y-33385D02*
X41496Y-33326D01*
X47894Y-23445D02*
X49882Y-21457D01*
X38661Y-32775D02*
X38661Y-26653D01*
X41496Y-33326D02*
X41181Y-33326D01*
X41181Y-33326D02*
X41004Y-33503D01*
X38661Y-26653D02*
X38602Y-26594D01*
X47776Y-23445D02*
X47894Y-23445D01*
X43346Y-15610D02*
X43583Y-15847D01*
X43583Y-15847D02*
X43583Y-17421D01*
X47598Y-21713D02*
X46476Y-21713D01*
X44606Y-15059D02*
X47244Y-15059D01*
X48268Y-16083D02*
X48268Y-17658D01*
X48268Y-21043D02*
X47598Y-21713D01*
X43169Y-12520D02*
X43169Y-13622D01*
X43169Y-13622D02*
X44606Y-15059D01*
X48268Y-17658D02*
X48268Y-21043D01*
X47244Y-15059D02*
X48268Y-16083D01*
X48071Y-17678D02*
X48071Y-16122D01*
X47539Y-21516D02*
X48071Y-20984D01*
X48071Y-20984D02*
X48071Y-17678D01*
X47126Y-21516D02*
X47539Y-21516D01*
X44528Y-15217D02*
X42972Y-13661D01*
X42972Y-13661D02*
X42972Y-12992D01*
X48071Y-16122D02*
X47166Y-15217D01*
X47166Y-15217D02*
X44528Y-15217D01*
X47087Y-15374D02*
X47913Y-16200D01*
X47481Y-21319D02*
X46476Y-21319D01*
X47913Y-20887D02*
X47481Y-21319D01*
X44449Y-15374D02*
X47087Y-15374D01*
X47913Y-17735D02*
X47913Y-20887D01*
X42776Y-12520D02*
X42776Y-13701D01*
X42776Y-13701D02*
X44449Y-15374D01*
X47913Y-16200D02*
X47913Y-17735D01*
X47461Y-21122D02*
X47756Y-20827D01*
X47126Y-21122D02*
X47461Y-21122D01*
X47756Y-16279D02*
X47008Y-15531D01*
X44370Y-15531D02*
X42579Y-13740D01*
X47756Y-20827D02*
X47756Y-17795D01*
X47756Y-17795D02*
X47756Y-16279D01*
X47008Y-15531D02*
X44370Y-15531D01*
X42579Y-13740D02*
X42579Y-12992D01*
X42382Y-12520D02*
X42382Y-13780D01*
X44291Y-15689D02*
X46929Y-15689D01*
X47599Y-20728D02*
X47599Y-17854D01*
X47402Y-20925D02*
X47599Y-20728D01*
X46929Y-15689D02*
X47599Y-16359D01*
X47599Y-16359D02*
X47599Y-17854D01*
X46476Y-20925D02*
X47402Y-20925D01*
X42382Y-13780D02*
X44291Y-15689D01*
G54D30*
X19291Y-62854D02*
X19291Y-61889D01*
G54D29*
X20315Y-60925D02*
X20315Y-60933D01*
G54D30*
X19291Y-61889D02*
X19213Y-61811D01*
G54D29*
X50157Y-48445D02*
X50157Y-50846D01*
X42185Y-62638D02*
X44606Y-62638D01*
X37205Y-48563D02*
X37205Y-44940D01*
X38031Y-44114D02*
X38681Y-44114D01*
X41437Y-43779D02*
X41102Y-44114D01*
X41102Y-44114D02*
X38681Y-44114D01*
X36674Y-49094D02*
X37205Y-48563D01*
X37205Y-44940D02*
X38031Y-44114D01*
X35275Y-49094D02*
X36674Y-49094D01*
X35256Y-49075D02*
X35275Y-49094D01*
X39291Y-53169D02*
X39291Y-53681D01*
X39291Y-50178D02*
X39449Y-50000D01*
X41083Y-55315D02*
X39882Y-55315D01*
X41398Y-55000D02*
X41083Y-55315D01*
X39291Y-53681D02*
X39488Y-53878D01*
X39488Y-53878D02*
X39882Y-54272D01*
X39882Y-54272D02*
X39882Y-55315D01*
X39291Y-53169D02*
X39291Y-50178D01*
X44567Y-55315D02*
X43642Y-55315D01*
X49528Y-33465D02*
X49528Y-32637D01*
X49006Y-33543D02*
X49006Y-33977D01*
X48957Y-34026D02*
X48957Y-34035D01*
X49006Y-33543D02*
X49001Y-33538D01*
X49459Y-33534D02*
X49528Y-33465D01*
X48405Y-45374D02*
X48937Y-44842D01*
X48937Y-44842D02*
X48937Y-50039D01*
X46447Y-27176D02*
X46349Y-27078D01*
X49459Y-33533D02*
X49459Y-33534D01*
X43642Y-55315D02*
X43593Y-55315D01*
X43720Y-21712D02*
X43504Y-21496D01*
X49006Y-33986D02*
X49006Y-33987D01*
X46349Y-27078D02*
X46349Y-21959D01*
X48957Y-34035D02*
X49006Y-33986D01*
X44891Y-34104D02*
X48366Y-34104D01*
X45866Y-56614D02*
X44567Y-55315D01*
X49882Y-50984D02*
X49882Y-55040D01*
X48937Y-34056D02*
X49006Y-33987D01*
X49006Y-33543D02*
X49450Y-33543D01*
X43622Y-44035D02*
X44783Y-44035D01*
X48366Y-34104D02*
X48888Y-34104D01*
X43700Y-32913D02*
X44891Y-34104D01*
X48308Y-56614D02*
X45866Y-56614D01*
X46771Y-27500D02*
X46447Y-27176D01*
X49528Y-29016D02*
X48012Y-27500D01*
X48937Y-38367D02*
X48937Y-34056D01*
X46349Y-21959D02*
X46103Y-21713D01*
X46122Y-45374D02*
X48405Y-45374D01*
X49006Y-33977D02*
X48957Y-34026D01*
X48937Y-50039D02*
X49882Y-50984D01*
X46103Y-21713D02*
X43720Y-21713D01*
X48888Y-34104D02*
X48957Y-34035D01*
X48937Y-38367D02*
X48937Y-43760D01*
X43720Y-21713D02*
X43720Y-21712D01*
X48012Y-27500D02*
X46771Y-27500D01*
X44783Y-44035D02*
X46122Y-45374D01*
X49882Y-55040D02*
X48308Y-56614D01*
X49528Y-32637D02*
X49528Y-29016D01*
X49450Y-33543D02*
X49459Y-33534D01*
X48937Y-43760D02*
X48937Y-44842D01*
X49459Y-33534D02*
X49459Y-33533D01*
X43681Y-32913D02*
X43700Y-32913D01*
X49006Y-33987D02*
X49459Y-33534D01*
X40000Y-45531D02*
X39705Y-45531D01*
X40335Y-45866D02*
X40000Y-45531D01*
X41476Y-45866D02*
X40453Y-45866D01*
X41634Y-45689D02*
X41634Y-45708D01*
X40453Y-45866D02*
X40335Y-45866D01*
X41634Y-45708D02*
X41476Y-45866D01*
X42106Y-45433D02*
X41909Y-45630D01*
X41339Y-47342D02*
X40984Y-47697D01*
X40984Y-47697D02*
X40827Y-47697D01*
X41909Y-46615D02*
X41339Y-47185D01*
X41909Y-45630D02*
X41909Y-46615D01*
X41339Y-47185D02*
X41339Y-47342D01*
X42106Y-45437D02*
X42106Y-45433D01*
X43524Y-42791D02*
X43524Y-41161D01*
X43228Y-43087D02*
X43524Y-42791D01*
X45512Y-42677D02*
X45512Y-42962D01*
X44744Y-43730D02*
X43632Y-43730D01*
X45512Y-42962D02*
X44744Y-43730D01*
X44606Y-44311D02*
X45807Y-45512D01*
X45964Y-45512D02*
X45807Y-45512D01*
X46033Y-45581D02*
X45964Y-45512D01*
X39902Y-51555D02*
X39902Y-48661D01*
X40236Y-51889D02*
X39902Y-51555D01*
X43544Y-44311D02*
X43524Y-44291D01*
X41555Y-54449D02*
X40276Y-54449D01*
X40276Y-54449D02*
X40236Y-54409D01*
X40236Y-54409D02*
X40236Y-51889D01*
X44154Y-44311D02*
X43544Y-44311D01*
X44154Y-44311D02*
X44606Y-44311D01*
X39882Y-55512D02*
X39745Y-55512D01*
X38858Y-47520D02*
X38858Y-47973D01*
X41437Y-55512D02*
X39882Y-55512D01*
X41043Y-45591D02*
X41358Y-45591D01*
X38858Y-47520D02*
X38858Y-45925D01*
X38858Y-45473D02*
X39016Y-45315D01*
X41575Y-55374D02*
X41437Y-55512D01*
X41614Y-45335D02*
X41870Y-45335D01*
X40767Y-45315D02*
X41043Y-45591D01*
X39745Y-55512D02*
X39528Y-55295D01*
X37382Y-48721D02*
X37736Y-49075D01*
X41358Y-45591D02*
X41614Y-45335D01*
X39528Y-54311D02*
X39094Y-53877D01*
X39016Y-45315D02*
X40767Y-45315D01*
X38131Y-44291D02*
X37382Y-45040D01*
X38858Y-48150D02*
X39094Y-48386D01*
X41418Y-44291D02*
X38131Y-44291D01*
X39094Y-53877D02*
X39094Y-48386D01*
X39528Y-55295D02*
X39528Y-54311D01*
X38858Y-45925D02*
X38858Y-45473D01*
X38858Y-47973D02*
X38858Y-48150D01*
X37382Y-45040D02*
X37382Y-48721D01*
X41555Y-44154D02*
X41418Y-44291D01*
X38465Y-47460D02*
X38465Y-44999D01*
X41516Y-45118D02*
X41496Y-45098D01*
X41142Y-45098D02*
X40945Y-44901D01*
X38465Y-44999D02*
X38563Y-44901D01*
X40886Y-56102D02*
X38602Y-56102D01*
X38465Y-47677D02*
X38386Y-47756D01*
X38386Y-47756D02*
X38386Y-47756D01*
X41241Y-56280D02*
X41064Y-56280D01*
X41064Y-56280D02*
X40886Y-56102D01*
X38602Y-56102D02*
X38287Y-55788D01*
X41457Y-56358D02*
X41319Y-56358D01*
X38287Y-55788D02*
X38287Y-48445D01*
X38563Y-44901D02*
X38661Y-44901D01*
X38287Y-48445D02*
X38287Y-47855D01*
X41319Y-56358D02*
X41241Y-56280D01*
X38465Y-47460D02*
X38465Y-47677D01*
X41496Y-45098D02*
X41142Y-45098D01*
X40945Y-44901D02*
X38661Y-44901D01*
X38287Y-47855D02*
X38386Y-47756D01*
X41654Y-56890D02*
X41575Y-56811D01*
X40866Y-56811D02*
X40551Y-56496D01*
X41575Y-56811D02*
X40866Y-56811D01*
X40551Y-56496D02*
X39272Y-56496D01*
X39272Y-56496D02*
X38937Y-57106D01*
X41920Y-57686D02*
X41575Y-58031D01*
X41920Y-56840D02*
X41920Y-57686D01*
X42106Y-56634D02*
X41920Y-56840D01*
X41575Y-58031D02*
X41575Y-58090D01*
X41094Y-58571D02*
X40665Y-58571D01*
X41575Y-58090D02*
X41094Y-58571D01*
X43444Y-52067D02*
X43622Y-52067D01*
X43110Y-52657D02*
X43444Y-52067D01*
X43110Y-54744D02*
X43110Y-52657D01*
X43386Y-55177D02*
X43534Y-55029D01*
X45276Y-53701D02*
X45276Y-53859D01*
X45276Y-53859D02*
X45374Y-53957D01*
X45374Y-53957D02*
X45374Y-54567D01*
X43386Y-56457D02*
X43386Y-55177D01*
X45374Y-55020D02*
X45374Y-54567D01*
X43534Y-55029D02*
X45365Y-55029D01*
X45365Y-55029D02*
X45374Y-55020D01*
X38878Y-55906D02*
X38504Y-55533D01*
X41240Y-44842D02*
X41102Y-44704D01*
X38504Y-55533D02*
X38504Y-48347D01*
X38661Y-47244D02*
X38661Y-47736D01*
X38110Y-47244D02*
X38268Y-47086D01*
X41220Y-56043D02*
X41220Y-56043D01*
X38268Y-44763D02*
X38327Y-44704D01*
X38504Y-48070D02*
X38504Y-48347D01*
X38661Y-47913D02*
X38504Y-48070D01*
X41220Y-56043D02*
X41024Y-55906D01*
X41102Y-44704D02*
X38701Y-44704D01*
X38327Y-44704D02*
X38701Y-44704D01*
X38268Y-47086D02*
X38268Y-44763D01*
X41024Y-55906D02*
X38878Y-55906D01*
X38661Y-47736D02*
X38661Y-47913D01*
X42500Y-49272D02*
X42500Y-48130D01*
X48150Y-55315D02*
X48898Y-54567D01*
X45984Y-55315D02*
X48150Y-55315D01*
X43838Y-50610D02*
X42500Y-49272D01*
X48898Y-51496D02*
X48012Y-50610D01*
X48898Y-54567D02*
X48898Y-51496D01*
X48012Y-50610D02*
X43838Y-50610D01*
X42894Y-49429D02*
X43918Y-50453D01*
X48091Y-50453D02*
X49055Y-51417D01*
X42894Y-47657D02*
X42894Y-49429D01*
X48188Y-55512D02*
X46673Y-55512D01*
X43918Y-50453D02*
X48091Y-50453D01*
X49055Y-54645D02*
X48188Y-55512D01*
X49055Y-51417D02*
X49055Y-54645D01*
X48110Y-55118D02*
X46673Y-55118D01*
X43760Y-50768D02*
X47933Y-50768D01*
X42303Y-47657D02*
X42303Y-49311D01*
X42303Y-49311D02*
X43760Y-50768D01*
X48740Y-51575D02*
X48740Y-54488D01*
X48740Y-54488D02*
X48110Y-55118D01*
X47933Y-50768D02*
X48740Y-51575D01*
X48169Y-50295D02*
X43995Y-50295D01*
X45984Y-55709D02*
X48228Y-55709D01*
X49213Y-54724D02*
X49213Y-51339D01*
X48228Y-55709D02*
X49213Y-54724D01*
X49213Y-51339D02*
X48169Y-50295D01*
X43995Y-50295D02*
X43091Y-49391D01*
X43091Y-49391D02*
X43091Y-48130D01*
X48583Y-54410D02*
X48583Y-51654D01*
X42106Y-49350D02*
X42106Y-48130D01*
X48583Y-51654D02*
X47854Y-50925D01*
X47854Y-50925D02*
X43681Y-50925D01*
X48072Y-54921D02*
X48583Y-54410D01*
X43681Y-50925D02*
X42106Y-49350D01*
X45984Y-54921D02*
X48072Y-54921D01*
X49370Y-51260D02*
X49370Y-54803D01*
X48267Y-55906D02*
X46673Y-55906D01*
X44075Y-50138D02*
X48248Y-50138D01*
X48248Y-50138D02*
X49370Y-51260D01*
X43287Y-47657D02*
X43287Y-49350D01*
X49370Y-54803D02*
X48267Y-55906D01*
X43287Y-49350D02*
X44075Y-50138D01*
X48425Y-54331D02*
X48032Y-54724D01*
X48032Y-54724D02*
X46673Y-54724D01*
X43602Y-51083D02*
X47776Y-51083D01*
X41909Y-47657D02*
X41909Y-49390D01*
X48425Y-51732D02*
X48425Y-54331D01*
X41909Y-49390D02*
X43602Y-51083D01*
X47776Y-51083D02*
X48425Y-51732D01*
X48288Y-56122D02*
X49528Y-54882D01*
X49528Y-51181D02*
X48327Y-49980D01*
X44153Y-49980D02*
X43484Y-49311D01*
X43484Y-49311D02*
X43484Y-48130D01*
X48327Y-49980D02*
X44153Y-49980D01*
X45984Y-56122D02*
X48288Y-56122D01*
X49528Y-54882D02*
X49528Y-51181D01*
X45984Y-54528D02*
X47992Y-54528D01*
X43523Y-51240D02*
X41713Y-49430D01*
X47697Y-51240D02*
X43523Y-51240D01*
X41713Y-49430D02*
X41713Y-48130D01*
X48268Y-54252D02*
X48268Y-51811D01*
X47992Y-54528D02*
X48268Y-54252D01*
X48268Y-51811D02*
X47697Y-51240D01*
X41595Y-47323D02*
X43485Y-47323D01*
X49685Y-51102D02*
X49685Y-54961D01*
X47717Y-56358D02*
X46673Y-56358D01*
X43485Y-47323D02*
X43681Y-47519D01*
X41516Y-47402D02*
X41595Y-47323D01*
X47717Y-56358D02*
X48288Y-56358D01*
X44232Y-49823D02*
X48406Y-49823D01*
X43681Y-47519D02*
X43681Y-49272D01*
X48288Y-56358D02*
X49685Y-54961D01*
X41516Y-47657D02*
X41516Y-47402D01*
X43681Y-49272D02*
X44232Y-49823D01*
X48406Y-49823D02*
X49685Y-51102D01*
X20295Y-45443D02*
X19459Y-44607D01*
X19459Y-44607D02*
X19459Y-43154D01*
X23878Y-26280D02*
X23878Y-32992D01*
X24528Y-48365D02*
X24528Y-49409D01*
X23878Y-56220D02*
X23878Y-56733D01*
X24547Y-48346D02*
X24528Y-48365D01*
X27224Y-58740D02*
X27224Y-59075D01*
X23917Y-13130D02*
X23878Y-13169D01*
X27067Y-37913D02*
X27067Y-37933D01*
X26811Y-58327D02*
X27224Y-58740D01*
X23878Y-13169D02*
X23878Y-14035D01*
X24074Y-56929D02*
X25413Y-56929D01*
X23878Y-14035D02*
X23878Y-26280D01*
X23878Y-33406D02*
X27067Y-36595D01*
X20295Y-47913D02*
X20295Y-45443D01*
X27067Y-36595D02*
X27067Y-37913D01*
X34390Y-26319D02*
X34390Y-25768D01*
X23878Y-43740D02*
X23878Y-49921D01*
X23878Y-56733D02*
X24074Y-56929D01*
X27067Y-37933D02*
X27067Y-40551D01*
X19459Y-43154D02*
X18935Y-42630D01*
X27067Y-40551D02*
X23878Y-43740D01*
X26811Y-58327D02*
X25413Y-56929D01*
X22156Y-49774D02*
X20295Y-47913D01*
X23878Y-49921D02*
X23878Y-56220D01*
X23878Y-32992D02*
X23878Y-33406D01*
G54D30*
X18291Y-61985D02*
X18291Y-62854D01*
X18524Y-61752D02*
X18291Y-61985D01*
G54D29*
X26417Y-38248D02*
X26417Y-40434D01*
X23228Y-48622D02*
X23228Y-48701D01*
X20537Y-45341D02*
X19701Y-44505D01*
X25039Y-58563D02*
X25039Y-58130D01*
X23228Y-14587D02*
X23228Y-13159D01*
X23228Y-48701D02*
X23228Y-57343D01*
X22530Y-49055D02*
X21964Y-49055D01*
X25039Y-58130D02*
X24724Y-57815D01*
X20537Y-47628D02*
X20537Y-45341D01*
X23228Y-27657D02*
X23228Y-33169D01*
X19701Y-40396D02*
X18935Y-39630D01*
X23228Y-33169D02*
X23228Y-33523D01*
X23228Y-43623D02*
X23228Y-48622D01*
X23228Y-14587D02*
X23228Y-27224D01*
X24724Y-57815D02*
X23700Y-57815D01*
X34685Y-24882D02*
X34685Y-27185D01*
X23228Y-33523D02*
X26417Y-36712D01*
X26417Y-40434D02*
X23228Y-43623D01*
X21964Y-49055D02*
X20537Y-47628D01*
X23228Y-27224D02*
X23228Y-27657D01*
X24862Y-49941D02*
X24862Y-48701D01*
X19701Y-44505D02*
X19701Y-40396D01*
X26417Y-36712D02*
X26417Y-38248D01*
X23700Y-57815D02*
X23228Y-57343D01*
X38091Y-48975D02*
X38091Y-56023D01*
X37559Y-48444D02*
X38091Y-48975D01*
X38267Y-44449D02*
X37559Y-45157D01*
X40866Y-56299D02*
X41142Y-56575D01*
X41516Y-44587D02*
X41378Y-44449D01*
X38366Y-56299D02*
X40866Y-56299D01*
X41378Y-44449D02*
X38267Y-44449D01*
X38091Y-56023D02*
X38366Y-56299D01*
X37559Y-45157D02*
X37559Y-48444D01*
X40787Y-49744D02*
X40787Y-48957D01*
X52421Y-31516D02*
X51614Y-31516D01*
X51496Y-20237D02*
X51654Y-20079D01*
X50827Y-30729D02*
X50827Y-22815D01*
X41102Y-45295D02*
X40945Y-45138D01*
X49213Y-37755D02*
X52500Y-34468D01*
X52500Y-32421D02*
X52500Y-31595D01*
X39173Y-46319D02*
X39134Y-46358D01*
X53839Y-19646D02*
X53406Y-20079D01*
X50827Y-22815D02*
X51378Y-22264D01*
X38661Y-45335D02*
X38661Y-46280D01*
X52185Y-20079D02*
X53406Y-20079D01*
X39134Y-46358D02*
X39134Y-47304D01*
X51496Y-20315D02*
X51496Y-20237D01*
X49311Y-48681D02*
X49213Y-48583D01*
X38858Y-45138D02*
X38661Y-45335D01*
X52500Y-33209D02*
X52500Y-32421D01*
X40945Y-45138D02*
X38858Y-45138D01*
X52500Y-34468D02*
X52500Y-33209D01*
X51614Y-31516D02*
X50827Y-30729D01*
X51496Y-22146D02*
X51496Y-20315D01*
X51378Y-22264D02*
X51496Y-22146D01*
X49213Y-48583D02*
X49213Y-37755D01*
X51654Y-20079D02*
X52185Y-20079D01*
X52500Y-31595D02*
X52421Y-31516D01*
X39134Y-47304D02*
X40787Y-48957D01*
X41181Y-45374D02*
X41102Y-45295D01*
X41181Y-59291D02*
X41178Y-59291D01*
X41831Y-56398D02*
X42382Y-56398D01*
X41723Y-56290D02*
X41831Y-56398D01*
X41673Y-56161D02*
X41673Y-56240D01*
X42382Y-57480D02*
X41831Y-58031D01*
X41831Y-58641D02*
X41181Y-59291D01*
X41178Y-59291D02*
X40134Y-60335D01*
X41831Y-58031D02*
X41831Y-58641D01*
X40134Y-60335D02*
X38937Y-60335D01*
X38937Y-60335D02*
X38947Y-60325D01*
X41673Y-56240D02*
X41723Y-56290D01*
X41535Y-55787D02*
X41535Y-56023D01*
X42382Y-56398D02*
X42382Y-57480D01*
X41535Y-56023D02*
X41673Y-56161D01*
X49843Y-45610D02*
X49843Y-48130D01*
G54D30*
X22222Y-44427D02*
X22126Y-44331D01*
X22222Y-45522D02*
X22222Y-44427D01*
G54D29*
X34748Y-62598D02*
X34752Y-62602D01*
X32067Y-62598D02*
X34748Y-62598D01*
X30394Y-43838D02*
X30118Y-44114D01*
X27047Y-44114D02*
X26674Y-44114D01*
X25728Y-49666D02*
X25728Y-50985D01*
X26063Y-44725D02*
X26063Y-49331D01*
X26674Y-44114D02*
X26063Y-44725D01*
X25650Y-51063D02*
X24626Y-51063D01*
X24626Y-51063D02*
X24311Y-50748D01*
X30118Y-44114D02*
X27047Y-44114D01*
X26063Y-49331D02*
X25728Y-49666D01*
X25728Y-50985D02*
X25650Y-51063D01*
X30118Y-55315D02*
X27854Y-55315D01*
X30433Y-55000D02*
X30118Y-55315D01*
X27539Y-55315D02*
X27461Y-55237D01*
X27854Y-55315D02*
X27539Y-55315D01*
X27461Y-55237D02*
X27461Y-52776D01*
X30669Y-45669D02*
X30590Y-45669D01*
X30590Y-45669D02*
X30491Y-45768D01*
X29094Y-45669D02*
X29015Y-45590D01*
X28130Y-45590D02*
X28130Y-45846D01*
X29193Y-45768D02*
X29094Y-45669D01*
X29015Y-45590D02*
X28130Y-45590D01*
X28130Y-45846D02*
X28130Y-46142D01*
X30491Y-45768D02*
X29193Y-45768D01*
X30925Y-46674D02*
X30217Y-47382D01*
X31496Y-46103D02*
X30925Y-46674D01*
X30217Y-47382D02*
X30217Y-47894D01*
X31496Y-45315D02*
X31496Y-46103D01*
X32126Y-43287D02*
X32126Y-41358D01*
X32126Y-41358D02*
X32441Y-41358D01*
X32441Y-41358D02*
X32559Y-41240D01*
X32303Y-43681D02*
X32540Y-43444D01*
X32402Y-45078D02*
X32402Y-44548D01*
X34567Y-43346D02*
X34567Y-42854D01*
X32540Y-43444D02*
X34350Y-43444D01*
X32402Y-44548D02*
X32303Y-44449D01*
X32303Y-44449D02*
X32303Y-43681D01*
X34350Y-43444D02*
X34469Y-43444D01*
X34469Y-43444D02*
X34567Y-43346D01*
X26516Y-49961D02*
X26516Y-49882D01*
X27067Y-55905D02*
X27461Y-55905D01*
X26516Y-47559D02*
X26516Y-44901D01*
X26752Y-50984D02*
X26752Y-55590D01*
X26516Y-49882D02*
X26516Y-47559D01*
X30039Y-44704D02*
X27067Y-44704D01*
X30157Y-56023D02*
X30039Y-55905D01*
X26693Y-50925D02*
X26752Y-50984D01*
X26240Y-49961D02*
X26102Y-50099D01*
X30256Y-56023D02*
X30157Y-56023D01*
X26102Y-50099D02*
X26102Y-50551D01*
X30197Y-44862D02*
X30039Y-44704D01*
X26988Y-55826D02*
X27067Y-55905D01*
X26516Y-44901D02*
X26713Y-44704D01*
X26713Y-44704D02*
X27067Y-44704D01*
X26752Y-55590D02*
X26988Y-55826D01*
X26102Y-50551D02*
X26476Y-50925D01*
X30039Y-55905D02*
X27461Y-55905D01*
X26516Y-49961D02*
X26240Y-49961D01*
X26476Y-50925D02*
X26693Y-50925D01*
X30728Y-57244D02*
X30472Y-57500D01*
X30728Y-56752D02*
X30728Y-57244D01*
X30807Y-56673D02*
X30728Y-56752D01*
X30472Y-57500D02*
X30217Y-57500D01*
X30217Y-57500D02*
X27992Y-57500D01*
X31201Y-56594D02*
X30925Y-56870D01*
X30925Y-58484D02*
X30492Y-58917D01*
X30492Y-58917D02*
X30039Y-58917D01*
X30925Y-56870D02*
X30925Y-58484D01*
X32165Y-52441D02*
X32244Y-52362D01*
X32165Y-54646D02*
X32165Y-52441D01*
X32244Y-52362D02*
X32598Y-52362D01*
X34567Y-54232D02*
X34016Y-54783D01*
X32300Y-56828D02*
X32307Y-56835D01*
X34016Y-54783D02*
X32704Y-54783D01*
X32300Y-55022D02*
X32300Y-56828D01*
X32539Y-54783D02*
X32300Y-55022D01*
X32704Y-54783D02*
X32539Y-54783D01*
X32913Y-44311D02*
X33720Y-44311D01*
X27697Y-53405D02*
X27697Y-51989D01*
X28701Y-54409D02*
X27697Y-53405D01*
X33720Y-44311D02*
X34803Y-45394D01*
X34803Y-46575D02*
X34803Y-45965D01*
X27480Y-51772D02*
X27480Y-48465D01*
X34803Y-45394D02*
X34803Y-45965D01*
X30512Y-54409D02*
X28701Y-54409D01*
X27697Y-51989D02*
X27480Y-51772D01*
X32913Y-44311D02*
X32520Y-44311D01*
X27224Y-54449D02*
X27224Y-55314D01*
X27224Y-47677D02*
X27224Y-47717D01*
X30394Y-56811D02*
X27107Y-56811D01*
X26280Y-55984D02*
X26280Y-54449D01*
X27224Y-55314D02*
X27422Y-55512D01*
X29429Y-45354D02*
X29666Y-45591D01*
X30276Y-44370D02*
X26752Y-44370D01*
X29666Y-45591D02*
X30394Y-45591D01*
X30413Y-55512D02*
X30571Y-55354D01*
X30650Y-45335D02*
X30906Y-45335D01*
X27224Y-47677D02*
X27224Y-47146D01*
X26280Y-44842D02*
X26280Y-47323D01*
X30453Y-56870D02*
X30394Y-56811D01*
X27107Y-56811D02*
X26280Y-55984D01*
X27224Y-45709D02*
X27579Y-45354D01*
X27579Y-45354D02*
X29429Y-45354D01*
X27422Y-55512D02*
X30413Y-55512D01*
X30394Y-45591D02*
X30650Y-45335D01*
X27224Y-47146D02*
X27224Y-45709D01*
X27224Y-47717D02*
X27224Y-54449D01*
X26752Y-44370D02*
X26280Y-44842D01*
X30394Y-44252D02*
X30276Y-44370D01*
X26732Y-44980D02*
X26811Y-44901D01*
X30099Y-56299D02*
X29902Y-56102D01*
X29666Y-44901D02*
X27067Y-44901D01*
X30492Y-45098D02*
X29863Y-45098D01*
X26731Y-56003D02*
X26535Y-55807D01*
X30531Y-56299D02*
X30099Y-56299D01*
X26732Y-56003D02*
X26731Y-56003D01*
X30571Y-56260D02*
X30531Y-56299D01*
X26732Y-47283D02*
X26732Y-44980D01*
X30531Y-45137D02*
X30492Y-45098D01*
X26831Y-56102D02*
X27480Y-56102D01*
X29902Y-56102D02*
X27480Y-56102D01*
X26811Y-44901D02*
X27067Y-44901D01*
X26535Y-55807D02*
X26535Y-51181D01*
X29863Y-45098D02*
X29666Y-44901D01*
X26732Y-47283D02*
X26732Y-50610D01*
X26732Y-56003D02*
X26831Y-56102D01*
X35276Y-55315D02*
X36063Y-55315D01*
X37146Y-52244D02*
X35867Y-50965D01*
X32894Y-50965D02*
X31516Y-49587D01*
X36142Y-55315D02*
X37146Y-54311D01*
X35867Y-50965D02*
X32894Y-50965D01*
X31516Y-49587D02*
X31516Y-47992D01*
X36063Y-55315D02*
X36142Y-55315D01*
X37146Y-54311D02*
X37146Y-52244D01*
X31909Y-47500D02*
X31909Y-49744D01*
X31909Y-49744D02*
X32972Y-50807D01*
X36180Y-55512D02*
X35945Y-55512D01*
X35945Y-50807D02*
X37303Y-52165D01*
X37303Y-52165D02*
X37303Y-54389D01*
X37303Y-54389D02*
X36180Y-55512D01*
X35846Y-50807D02*
X35945Y-50807D01*
X32972Y-50807D02*
X35846Y-50807D01*
X36988Y-54233D02*
X36103Y-55118D01*
X31319Y-47500D02*
X31319Y-49626D01*
X36103Y-55118D02*
X35945Y-55118D01*
X31319Y-49626D02*
X32815Y-51122D01*
X35591Y-51122D02*
X35788Y-51122D01*
X32815Y-51122D02*
X35591Y-51122D01*
X36988Y-52322D02*
X36988Y-54233D01*
X35788Y-51122D02*
X36988Y-52322D01*
X35965Y-50650D02*
X33052Y-50650D01*
X33052Y-50650D02*
X32106Y-49704D01*
X35276Y-55709D02*
X36043Y-55709D01*
X36102Y-50728D02*
X36024Y-50650D01*
X36024Y-50650D02*
X36102Y-50728D01*
X32106Y-49704D02*
X32106Y-47992D01*
X37461Y-52087D02*
X36102Y-50728D01*
X36043Y-55709D02*
X36220Y-55709D01*
X35965Y-50650D02*
X36024Y-50650D01*
X36220Y-55709D02*
X37461Y-54468D01*
X37461Y-54468D02*
X37461Y-52087D01*
X32737Y-51280D02*
X31122Y-49665D01*
X36831Y-52402D02*
X35709Y-51280D01*
X35886Y-54921D02*
X36063Y-54921D01*
X36831Y-54153D02*
X36831Y-52402D01*
X36063Y-54921D02*
X36831Y-54153D01*
X31122Y-49665D02*
X31122Y-47992D01*
X35276Y-54921D02*
X35886Y-54921D01*
X35709Y-51280D02*
X32737Y-51280D01*
X36259Y-55906D02*
X35945Y-55906D01*
X32303Y-47500D02*
X32303Y-49665D01*
X36102Y-50492D02*
X37618Y-52008D01*
X32303Y-49665D02*
X33130Y-50492D01*
X37618Y-54547D02*
X36259Y-55906D01*
X37618Y-52008D02*
X37618Y-54547D01*
X33130Y-50492D02*
X35886Y-50492D01*
X35886Y-50492D02*
X36102Y-50492D01*
X36673Y-53996D02*
X35945Y-54724D01*
X36673Y-52480D02*
X36673Y-53996D01*
X32657Y-51437D02*
X35276Y-51437D01*
X35630Y-51437D02*
X36673Y-52480D01*
X35276Y-51437D02*
X35630Y-51437D01*
X30925Y-47500D02*
X30925Y-49705D01*
X30925Y-49705D02*
X32657Y-51437D01*
X33209Y-50335D02*
X32500Y-49626D01*
X35276Y-56102D02*
X36043Y-56102D01*
X37776Y-54626D02*
X37776Y-51930D01*
X32500Y-49626D02*
X32500Y-47992D01*
X36043Y-56102D02*
X36300Y-56102D01*
X36300Y-56102D02*
X37776Y-54626D01*
X36181Y-50335D02*
X33209Y-50335D01*
X37776Y-51930D02*
X36181Y-50335D01*
X36516Y-53878D02*
X35866Y-54528D01*
X35551Y-51594D02*
X36516Y-52559D01*
X30728Y-49744D02*
X30728Y-47992D01*
X32578Y-51594D02*
X30728Y-49744D01*
X35276Y-54528D02*
X35866Y-54528D01*
X35315Y-51594D02*
X35551Y-51594D01*
X35315Y-51594D02*
X32578Y-51594D01*
X36516Y-52559D02*
X36516Y-53878D01*
X33287Y-50177D02*
X36024Y-50177D01*
X30531Y-47500D02*
X30531Y-47304D01*
X30630Y-47205D02*
X32422Y-47205D01*
X32697Y-49587D02*
X33287Y-50177D01*
X30531Y-47304D02*
X30630Y-47205D01*
X37933Y-51850D02*
X37933Y-54705D01*
X32697Y-47480D02*
X32697Y-49587D01*
X37933Y-54705D02*
X36339Y-56299D01*
X36339Y-56299D02*
X35945Y-56299D01*
X36024Y-50177D02*
X36260Y-50177D01*
X36260Y-50177D02*
X37933Y-51850D01*
X32422Y-47205D02*
X32697Y-47480D01*
G54D30*
X20354Y-44331D02*
X21222Y-45199D01*
X21222Y-45199D02*
X21222Y-45522D01*
G54D29*
X32087Y-58623D02*
X32283Y-58819D01*
X32283Y-58819D02*
X32795Y-58819D01*
X31712Y-56378D02*
X32087Y-56753D01*
X30787Y-56378D02*
X31712Y-56378D01*
X32087Y-56753D02*
X32087Y-58623D01*
X30650Y-56496D02*
X30787Y-56378D01*
X30256Y-56496D02*
X30650Y-56496D01*
X30157Y-45374D02*
X30078Y-45295D01*
X29666Y-45295D02*
X29489Y-45118D01*
X26989Y-45118D02*
X26969Y-45138D01*
X29489Y-45118D02*
X26989Y-45118D01*
X30473Y-55709D02*
X30551Y-55787D01*
X27224Y-55709D02*
X30473Y-55709D01*
X26969Y-47224D02*
X26969Y-55454D01*
X26969Y-55454D02*
X27224Y-55709D01*
X26969Y-45138D02*
X26969Y-47224D01*
X30078Y-45295D02*
X29666Y-45295D01*
X30650Y-44409D02*
X30650Y-43809D01*
X16772Y-35946D02*
X16772Y-34577D01*
X30650Y-43809D02*
X30650Y-43799D01*
X17067Y-34282D02*
X17067Y-19360D01*
X25895Y-43524D02*
X24321Y-45098D01*
X30364Y-44587D02*
X30472Y-44587D01*
X17067Y-19340D02*
X16407Y-18680D01*
X30650Y-43799D02*
X30375Y-43524D01*
X16978Y-36152D02*
X16772Y-35946D01*
X17067Y-19351D02*
X17067Y-19340D01*
X30375Y-43524D02*
X25895Y-43524D01*
X16772Y-34577D02*
X17067Y-34282D01*
X30472Y-44587D02*
X30650Y-44409D01*
X16407Y-18680D02*
X16407Y-17283D01*
X17067Y-19360D02*
X17067Y-19351D01*
X16978Y-37795D02*
X16978Y-36152D01*
X50157Y-31515D02*
X50157Y-31456D01*
X50709Y-32067D02*
X50157Y-31515D01*
X50689Y-22067D02*
X50689Y-21200D01*
X50689Y-21200D02*
X51043Y-20846D01*
X50157Y-22599D02*
X50689Y-22067D01*
X50157Y-24665D02*
X50157Y-22599D01*
X50157Y-31456D02*
X50157Y-24665D01*
G54D28*
X54937Y-53846D02*
X54634Y-53543D01*
G54D29*
X54937Y-57315D02*
X54949Y-57303D01*
G54D28*
X54937Y-57315D02*
X54937Y-53846D01*
G54D29*
X39114Y-15965D02*
X39114Y-15157D01*
X52894Y-31693D02*
X52894Y-32382D01*
X51594Y-22520D02*
X51595Y-22520D01*
X50000Y-21142D02*
X50000Y-20275D01*
X40817Y-61063D02*
X42884Y-58996D01*
X40138Y-61063D02*
X40817Y-61063D01*
X42884Y-58996D02*
X43858Y-58996D01*
X51713Y-31299D02*
X52500Y-31299D01*
X51595Y-22520D02*
X51752Y-22363D01*
X51043Y-23071D02*
X51043Y-30531D01*
X51594Y-19567D02*
X50708Y-19567D01*
X39705Y-60630D02*
X40138Y-61063D01*
X50030Y-51643D02*
X50768Y-50905D01*
X50000Y-20275D02*
X50708Y-19567D01*
X52274Y-35757D02*
X52894Y-35137D01*
X51043Y-30629D02*
X51713Y-31299D01*
X52500Y-31299D02*
X52894Y-31693D01*
X52264Y-35768D02*
X52185Y-35847D01*
X51594Y-17992D02*
X51594Y-19567D01*
X50000Y-21811D02*
X50118Y-21693D01*
X52185Y-35847D02*
X52185Y-35867D01*
X52185Y-38228D02*
X50768Y-39645D01*
X52894Y-32795D02*
X52894Y-32382D01*
X49449Y-55974D02*
X49449Y-56752D01*
X52185Y-35867D02*
X52185Y-38228D01*
X50118Y-21260D02*
X50000Y-21142D01*
X50030Y-55393D02*
X50030Y-51643D01*
X51752Y-22363D02*
X51752Y-21909D01*
X52264Y-35767D02*
X52264Y-35768D01*
X52303Y-17283D02*
X51594Y-17992D01*
X51594Y-22520D02*
X51043Y-23071D01*
X52894Y-32795D02*
X52894Y-35137D01*
X51043Y-30531D02*
X51043Y-30629D01*
X52264Y-35767D02*
X52274Y-35757D01*
X50768Y-50905D02*
X50768Y-39645D01*
X50118Y-21693D02*
X50118Y-21260D01*
X49449Y-55974D02*
X50030Y-55393D01*
X18622Y-21102D02*
X18622Y-17047D01*
X19252Y-21732D02*
X18622Y-21102D01*
X37953Y-16260D02*
X37953Y-15768D01*
X50906Y-21397D02*
X51083Y-21220D01*
X50433Y-31201D02*
X50551Y-31319D01*
X50374Y-31142D02*
X50374Y-22677D01*
X50374Y-22677D02*
X50906Y-22145D01*
X50433Y-31201D02*
X50374Y-31142D01*
X50906Y-22145D02*
X50906Y-21397D01*
X17657Y-21850D02*
X17657Y-19587D01*
X17657Y-21850D02*
X17657Y-33514D01*
X50591Y-30906D02*
X50591Y-30965D01*
X50591Y-30965D02*
X51496Y-31870D01*
X51181Y-21614D02*
X51122Y-21673D01*
X51122Y-21673D02*
X51122Y-22225D01*
X51122Y-22225D02*
X50591Y-22756D01*
X51496Y-31870D02*
X52185Y-31870D01*
X50591Y-30079D02*
X50591Y-30906D01*
X50591Y-22756D02*
X50591Y-30079D01*
X50472Y-20887D02*
X50472Y-21989D01*
X50709Y-20650D02*
X50472Y-20887D01*
X50472Y-21989D02*
X49941Y-22520D01*
X50236Y-32087D02*
X49941Y-31792D01*
X49941Y-22520D02*
X49941Y-31535D01*
X49941Y-31792D02*
X49941Y-31535D01*
X15610Y-37305D02*
X17935Y-39630D01*
X15866Y-28750D02*
X15610Y-29006D01*
X15610Y-29006D02*
X15610Y-37305D01*
X16171Y-28435D02*
X15767Y-28435D01*
X15767Y-28435D02*
X15489Y-28713D01*
X15489Y-39184D02*
X17935Y-41630D01*
X16181Y-28445D02*
X16171Y-28435D01*
X15489Y-28713D02*
X15489Y-39184D01*
X32673Y-62311D02*
X31815Y-62311D01*
X34018Y-60966D02*
X32673Y-62311D01*
X34035Y-60949D02*
X34035Y-60946D01*
X34018Y-60963D02*
X34018Y-60966D01*
X34035Y-60946D02*
X35512Y-59469D01*
X34018Y-60966D02*
X34035Y-60949D01*
X30988Y-58642D02*
X30024Y-59606D01*
X31683Y-58642D02*
X30988Y-58642D01*
X31527Y-62024D02*
X33319Y-60232D01*
X31524Y-62024D02*
X31527Y-62024D01*
X29429Y-59898D02*
X29429Y-60240D01*
X32448Y-59831D02*
X29922Y-59831D01*
X29622Y-59705D02*
X29429Y-59898D01*
X32591Y-56929D02*
X32591Y-57615D01*
X29796Y-59705D02*
X29622Y-59705D01*
X33303Y-58976D02*
X32448Y-59831D01*
X32591Y-57615D02*
X33303Y-58327D01*
X33303Y-58327D02*
X33303Y-58976D01*
X29922Y-59831D02*
X29796Y-59705D01*
X44287Y-59622D02*
X41614Y-62295D01*
X44287Y-58736D02*
X44287Y-59622D01*
X42701Y-58406D02*
X40965Y-60142D01*
X40965Y-60142D02*
X40965Y-60354D01*
X42386Y-61055D02*
X41587Y-61055D01*
X43642Y-59799D02*
X42386Y-61055D01*
X40630Y-60402D02*
X40630Y-60165D01*
X43484Y-56933D02*
X43484Y-57315D01*
X43484Y-57315D02*
X40650Y-60149D01*
X40646Y-60149D02*
X40650Y-60149D01*
X40630Y-60165D02*
X40646Y-60149D01*
X31418Y-33206D02*
X31418Y-32833D01*
X42402Y-33209D02*
X42401Y-33209D01*
X31418Y-33206D02*
X31418Y-33207D01*
X42401Y-44412D02*
X42401Y-44039D01*
X31417Y-44411D02*
X31790Y-44411D01*
X31417Y-44411D02*
X31416Y-44411D01*
X42401Y-44412D02*
X42400Y-44412D01*
X42402Y-33582D02*
X42401Y-33583D01*
X42401Y-33209D02*
X42027Y-32835D01*
X42401Y-55611D02*
X42401Y-55984D01*
X42401Y-55611D02*
X42400Y-55611D01*
X31417Y-44411D02*
X31417Y-44412D01*
X31417Y-33206D02*
X31043Y-32832D01*
X31418Y-33205D02*
X31791Y-32832D01*
X42401Y-55611D02*
X42401Y-55238D01*
X42401Y-33209D02*
X42027Y-33583D01*
X42401Y-55611D02*
X42026Y-55611D01*
X31417Y-44412D02*
X31790Y-44785D01*
X31417Y-55609D02*
X31790Y-55236D01*
X42402Y-33208D02*
X42775Y-32835D01*
X31417Y-55237D02*
X31416Y-55236D01*
X31417Y-55610D02*
X31417Y-55609D01*
X31417Y-55610D02*
X31417Y-55611D01*
X31417Y-55610D02*
X31417Y-55237D01*
X31417Y-55610D02*
X31790Y-55610D01*
X42401Y-44412D02*
X42026Y-44412D01*
X42402Y-33209D02*
X42402Y-33208D01*
X31417Y-55610D02*
X31417Y-55983D01*
X42401Y-44412D02*
X42774Y-44412D01*
X42401Y-55610D02*
X42774Y-55237D01*
X42402Y-33209D02*
X42027Y-33209D01*
X31417Y-44410D02*
X31790Y-44037D01*
X42401Y-55611D02*
X42401Y-55610D01*
X42402Y-33209D02*
X42402Y-33210D01*
G54D28*
X53622Y-41850D02*
X53622Y-43012D01*
G54D29*
X42401Y-44785D02*
X42400Y-44786D01*
X42400Y-44412D02*
X42026Y-44786D01*
X31417Y-44784D02*
X31416Y-44785D01*
X42401Y-55238D02*
X42400Y-55237D01*
X42401Y-44412D02*
X42401Y-44413D01*
X42401Y-44411D02*
X42774Y-44038D01*
X42402Y-33209D02*
X42402Y-32836D01*
X42401Y-44039D02*
X42400Y-44038D01*
X42402Y-32836D02*
X42401Y-32835D01*
G54D28*
X53622Y-53543D02*
X53622Y-52343D01*
G54D29*
X31416Y-55610D02*
X31042Y-55236D01*
X42401Y-44412D02*
X42401Y-44411D01*
X17047Y-35138D02*
X17047Y-35742D01*
X42402Y-33209D02*
X42775Y-33209D01*
X42401Y-55611D02*
X42401Y-55612D01*
X31417Y-44411D02*
X31417Y-44410D01*
X31418Y-33206D02*
X31417Y-33206D01*
X31418Y-33206D02*
X31418Y-33205D01*
X42401Y-44413D02*
X42774Y-44786D01*
X17555Y-34630D02*
X17047Y-35138D01*
X31417Y-55610D02*
X31416Y-55610D01*
X31416Y-55610D02*
X31042Y-55984D01*
X31417Y-44411D02*
X31417Y-44784D01*
X42402Y-33210D02*
X42775Y-33583D01*
X17935Y-34630D02*
X17555Y-34630D01*
X42400Y-55611D02*
X42026Y-55237D01*
X31417Y-44411D02*
X31042Y-44411D01*
X31418Y-33206D02*
X31043Y-33206D01*
X31417Y-55611D02*
X31790Y-55984D01*
X42400Y-44412D02*
X42026Y-44038D01*
X31418Y-33579D02*
X31417Y-33580D01*
X31418Y-32833D02*
X31417Y-32832D01*
X31417Y-44038D02*
X31416Y-44037D01*
X31416Y-44411D02*
X31042Y-44785D01*
X42401Y-55984D02*
X42400Y-55985D01*
X42401Y-55611D02*
X42774Y-55611D01*
X31417Y-33206D02*
X31043Y-33580D01*
X42401Y-55612D02*
X42774Y-55985D01*
G54D28*
X51177Y-56524D02*
X51142Y-56489D01*
G54D29*
X31418Y-33206D02*
X31791Y-33206D01*
X31417Y-44411D02*
X31417Y-44038D01*
X17047Y-35742D02*
X17935Y-36630D01*
X31417Y-55983D02*
X31416Y-55984D01*
X31416Y-44411D02*
X31042Y-44037D01*
X31418Y-33206D02*
X31418Y-33579D01*
X31417Y-55610D02*
X31042Y-55610D01*
X31418Y-33207D02*
X31791Y-33580D01*
X42402Y-33209D02*
X42402Y-33582D01*
X42401Y-44412D02*
X42401Y-44785D01*
X42400Y-55611D02*
X42026Y-55985D01*
X32756Y-22500D02*
X32756Y-23071D01*
X32166Y-34606D02*
X32057Y-34497D01*
X32281Y-33898D02*
X32281Y-33691D01*
X32281Y-33939D02*
X32281Y-33898D01*
X32057Y-34497D02*
X32057Y-34163D01*
X32057Y-34163D02*
X32281Y-33939D01*
X44606Y-25000D02*
X44203Y-24597D01*
X42235Y-35974D02*
X41733Y-35974D01*
X32737Y-52136D02*
X32835Y-52234D01*
X32756Y-22500D02*
X32756Y-23651D01*
X43730Y-34479D02*
X42235Y-35974D01*
X44596Y-26083D02*
X44606Y-26073D01*
X32608Y-54951D02*
X33937Y-54951D01*
X29715Y-37786D02*
X29715Y-35787D01*
X32746Y-33701D02*
X32746Y-34292D01*
X32776Y-44902D02*
X32776Y-45108D01*
X32776Y-45108D02*
X32500Y-45384D01*
X32500Y-45384D02*
X32313Y-45384D01*
X32313Y-45384D02*
X32165Y-45236D01*
X32165Y-45236D02*
X32165Y-45226D01*
X32165Y-45226D02*
X32165Y-45108D01*
X29715Y-35787D02*
X29892Y-35610D01*
X31535Y-33898D02*
X32281Y-33898D01*
X34911Y-35955D02*
X34911Y-34084D01*
X34892Y-35974D02*
X34911Y-35955D01*
X44203Y-24597D02*
X44203Y-22963D01*
X32461Y-24725D02*
X32962Y-25226D01*
X34646Y-56890D02*
X33858Y-56102D01*
X44606Y-26073D02*
X44606Y-25000D01*
X32746Y-34292D02*
X32432Y-34606D01*
X33937Y-54951D02*
X34173Y-54951D01*
X29892Y-35610D02*
X31319Y-35610D01*
X31319Y-35610D02*
X31457Y-35472D01*
X31457Y-35472D02*
X31457Y-33976D01*
X34911Y-34084D02*
X34528Y-33701D01*
X30813Y-24636D02*
X30410Y-25039D01*
X31791Y-32382D02*
X32281Y-32872D01*
X30410Y-25039D02*
X30410Y-25151D01*
X32421Y-55138D02*
X32608Y-54951D01*
X33858Y-56102D02*
X32766Y-56102D01*
X32421Y-55935D02*
X32421Y-55138D01*
X44557Y-45699D02*
X44567Y-45699D01*
X32588Y-56102D02*
X32421Y-55935D01*
X43730Y-33701D02*
X43730Y-34479D01*
X32962Y-25226D02*
X33140Y-25226D01*
X31457Y-33976D02*
X31535Y-33898D01*
X32165Y-45108D02*
X32165Y-44961D01*
X32165Y-43740D02*
X31841Y-43416D01*
X30138Y-28140D02*
X31791Y-29793D01*
X32756Y-23651D02*
X32461Y-23946D01*
X31791Y-29793D02*
X31791Y-32382D01*
X31841Y-39912D02*
X29715Y-37786D01*
X32281Y-32872D02*
X32281Y-33691D01*
X34528Y-33701D02*
X32746Y-33701D01*
X31841Y-43416D02*
X31841Y-39912D01*
X45994Y-46240D02*
X46732Y-45502D01*
X32766Y-56102D02*
X32588Y-56102D01*
X30410Y-25151D02*
X30138Y-25423D01*
X32461Y-23946D02*
X32461Y-24725D01*
X32165Y-44961D02*
X32165Y-43740D01*
X44203Y-22963D02*
X43740Y-22500D01*
X30138Y-25423D02*
X30138Y-28140D01*
X32432Y-34606D02*
X32166Y-34606D01*
X32145Y-44961D02*
X31998Y-45108D01*
X33789Y-59045D02*
X33809Y-59045D01*
X34577Y-49627D02*
X34577Y-45404D01*
X34842Y-49892D02*
X34577Y-49627D01*
X31270Y-45383D02*
X29646Y-47007D01*
X31270Y-45206D02*
X31270Y-45383D01*
X32746Y-53730D02*
X32402Y-53386D01*
X34075Y-44902D02*
X32776Y-44902D01*
X43760Y-57736D02*
X41270Y-60226D01*
X41270Y-60226D02*
X41270Y-60413D01*
X41270Y-60413D02*
X41024Y-60659D01*
X41024Y-60659D02*
X40305Y-60659D01*
X43760Y-44902D02*
X44557Y-45699D01*
X44567Y-45699D02*
X45108Y-46240D01*
X45108Y-46240D02*
X45994Y-46240D01*
X46732Y-45502D02*
X47470Y-45502D01*
X47746Y-45778D02*
X47470Y-45502D01*
X47746Y-46397D02*
X47746Y-45778D01*
X47736Y-46407D02*
X47746Y-46397D01*
X43760Y-56102D02*
X43760Y-57736D01*
X32047Y-45108D02*
X32165Y-45226D01*
X32165Y-44961D02*
X32145Y-44961D01*
X32835Y-52480D02*
X32687Y-52628D01*
X32835Y-52234D02*
X32835Y-52480D01*
X37845Y-36634D02*
X36959Y-35748D01*
X31890Y-51841D02*
X32185Y-52136D01*
X32185Y-52136D02*
X32737Y-52136D01*
X34911Y-54209D02*
X34911Y-54006D01*
X32756Y-23071D02*
X31191Y-24636D01*
X31191Y-24636D02*
X30813Y-24636D01*
X31890Y-51840D02*
X31890Y-51841D01*
X41073Y-36634D02*
X37845Y-36634D01*
X41733Y-35974D02*
X41073Y-36634D01*
X29646Y-47007D02*
X29646Y-49596D01*
X31368Y-45108D02*
X31270Y-45206D01*
X34577Y-45404D02*
X34075Y-44902D01*
X31998Y-45108D02*
X32047Y-45108D01*
X37795Y-49400D02*
X35689Y-49400D01*
X35689Y-49400D02*
X35197Y-49892D01*
X35197Y-49892D02*
X34842Y-49892D01*
X34646Y-58208D02*
X34646Y-56890D01*
X33809Y-59045D02*
X34646Y-58208D01*
X34635Y-53730D02*
X32746Y-53730D01*
X33937Y-54951D02*
X34169Y-54951D01*
X34169Y-54951D02*
X34911Y-54209D01*
X34911Y-54006D02*
X34635Y-53730D01*
X29646Y-49596D02*
X31890Y-51840D01*
X31998Y-45108D02*
X31368Y-45108D01*
X32402Y-52707D02*
X32402Y-53386D01*
X32481Y-52628D02*
X32402Y-52707D01*
X32687Y-52628D02*
X32481Y-52628D01*
X36949Y-22756D02*
X37028Y-22756D01*
X37028Y-22756D02*
X37992Y-21792D01*
X36771Y-16122D02*
X34689Y-16122D01*
X37992Y-21693D02*
X37992Y-21792D01*
X34402Y-16122D02*
X34181Y-16122D01*
X36791Y-22795D02*
X36830Y-22756D01*
X34401Y-16122D02*
X34402Y-16122D01*
X37992Y-21693D02*
X37992Y-17343D01*
X34181Y-16122D02*
X33622Y-15563D01*
X34402Y-16122D02*
X34689Y-16122D01*
X36830Y-22756D02*
X36949Y-22756D01*
X37992Y-17343D02*
X36771Y-16122D01*
X33622Y-15563D02*
X33622Y-15343D01*
X36614Y-16437D02*
X34039Y-16437D01*
X36713Y-22303D02*
X36969Y-22303D01*
X33228Y-15327D02*
X33228Y-15626D01*
X37677Y-21536D02*
X37677Y-21595D01*
X33228Y-15626D02*
X34039Y-16437D01*
X37677Y-17500D02*
X36614Y-16437D01*
X36713Y-22303D02*
X36024Y-22303D01*
X37677Y-21536D02*
X37677Y-17500D01*
X36969Y-22303D02*
X37677Y-21595D01*
X33224Y-15323D02*
X33228Y-15327D01*
X37362Y-17657D02*
X36457Y-16752D01*
X32827Y-15697D02*
X33882Y-16752D01*
X37362Y-21397D02*
X37362Y-17657D01*
X36024Y-21909D02*
X36850Y-21909D01*
X32827Y-15319D02*
X32827Y-15697D01*
X36850Y-21909D02*
X37362Y-21397D01*
X33882Y-16752D02*
X33918Y-16752D01*
X36457Y-16752D02*
X33918Y-16752D01*
X20335Y-50650D02*
X20335Y-48425D01*
X20335Y-50886D02*
X20335Y-50650D01*
X20039Y-48130D02*
X20039Y-45728D01*
X48425Y-17579D02*
X48425Y-16004D01*
X48425Y-21141D02*
X48425Y-17579D01*
X43760Y-13721D02*
X43760Y-12520D01*
X48425Y-16004D02*
X47323Y-14902D01*
X47657Y-21909D02*
X48425Y-21141D01*
X47461Y-21909D02*
X47657Y-21909D01*
X44941Y-14902D02*
X43760Y-13721D01*
X47323Y-14902D02*
X44941Y-14902D01*
X48583Y-15926D02*
X48583Y-17520D01*
X47894Y-22028D02*
X48583Y-21339D01*
X43957Y-13071D02*
X43957Y-13681D01*
X47894Y-22106D02*
X47894Y-22028D01*
X45020Y-14744D02*
X47401Y-14744D01*
X47401Y-14744D02*
X48583Y-15926D01*
X48583Y-21339D02*
X48583Y-21338D01*
X43957Y-13681D02*
X45020Y-14744D01*
X48583Y-21338D02*
X48583Y-17520D01*
X48740Y-21457D02*
X48740Y-17461D01*
X44232Y-13701D02*
X44213Y-13701D01*
X44154Y-13642D02*
X44154Y-12520D01*
X48012Y-22303D02*
X47500Y-22303D01*
X45118Y-14587D02*
X44232Y-13701D01*
X48091Y-22106D02*
X48091Y-22244D01*
X48740Y-21457D02*
X48091Y-22106D01*
X48740Y-15866D02*
X47461Y-14587D01*
X48740Y-17460D02*
X48740Y-17461D01*
X48091Y-22244D02*
X48012Y-22303D01*
X44213Y-13701D02*
X44154Y-13642D01*
X48740Y-17461D02*
X48740Y-15866D01*
X47461Y-14587D02*
X45118Y-14587D01*
X48898Y-15808D02*
X48898Y-17402D01*
X45196Y-14429D02*
X47519Y-14429D01*
X44350Y-13583D02*
X45196Y-14429D01*
X48051Y-22500D02*
X48898Y-21653D01*
X47519Y-14429D02*
X48898Y-15808D01*
X47933Y-22579D02*
X47972Y-22579D01*
X47913Y-22579D02*
X47933Y-22579D01*
X48898Y-21653D02*
X48898Y-17402D01*
X44350Y-13071D02*
X44350Y-13583D01*
X47972Y-22579D02*
X48051Y-22500D01*
X48091Y-22953D02*
X49055Y-21989D01*
X47697Y-22953D02*
X48091Y-22953D01*
X44547Y-13563D02*
X44547Y-12520D01*
X49055Y-15748D02*
X47579Y-14272D01*
X49055Y-17343D02*
X49055Y-15748D01*
X47579Y-14272D02*
X45256Y-14272D01*
X45256Y-14272D02*
X44547Y-13563D01*
X49055Y-17343D02*
X49055Y-17342D01*
X49055Y-21989D02*
X49055Y-17343D01*
X20138Y-24606D02*
X20138Y-22205D01*
X20020Y-32244D02*
X20020Y-25138D01*
X20551Y-13750D02*
X19695Y-13750D01*
X20561Y-13760D02*
X20551Y-13750D01*
X33972Y-16594D02*
X34067Y-16594D01*
X33028Y-15650D02*
X33972Y-16594D01*
X37520Y-21457D02*
X37520Y-21495D01*
X36752Y-22106D02*
X36909Y-22106D01*
X33976Y-16594D02*
X34067Y-16594D01*
X35807Y-22106D02*
X36752Y-22106D01*
X35807Y-22106D02*
X35571Y-22106D01*
X33028Y-15063D02*
X33028Y-15331D01*
X37520Y-17579D02*
X37520Y-21457D01*
X34067Y-16594D02*
X36535Y-16594D01*
X33028Y-15331D02*
X33028Y-15650D01*
X36535Y-16594D02*
X37520Y-17579D01*
X36909Y-22106D02*
X37520Y-21495D01*
X34114Y-16280D02*
X36694Y-16280D01*
X36791Y-22500D02*
X37027Y-22500D01*
X36437Y-22500D02*
X36791Y-22500D01*
X37835Y-17421D02*
X37835Y-21613D01*
X33421Y-15075D02*
X33421Y-15587D01*
X37027Y-22500D02*
X37835Y-21692D01*
X37835Y-21613D02*
X37835Y-21692D01*
X33421Y-15587D02*
X34114Y-16280D01*
X36694Y-16280D02*
X37835Y-17421D01*
X46693Y-34557D02*
X47057Y-34557D01*
X46220Y-34557D02*
X46693Y-34557D01*
X48337Y-35837D02*
X48337Y-36528D01*
X47057Y-34557D02*
X48337Y-35837D01*
X44862Y-34557D02*
X46220Y-34557D01*
X43701Y-33307D02*
X43701Y-33396D01*
X43701Y-33396D02*
X44862Y-34557D01*
X43210Y-44838D02*
X43210Y-43681D01*
X42864Y-43335D02*
X42733Y-43335D01*
X47165Y-47008D02*
X45380Y-47008D01*
X45380Y-47008D02*
X43210Y-44838D01*
X43210Y-43681D02*
X42864Y-43335D01*
X42733Y-43335D02*
X42500Y-43102D01*
X43697Y-46295D02*
X42949Y-45547D01*
X42539Y-45138D02*
X41835Y-45138D01*
X44969Y-48094D02*
X44969Y-48095D01*
X42559Y-45157D02*
X42558Y-45157D01*
X42558Y-45157D02*
X42539Y-45138D01*
X44130Y-46728D02*
X44130Y-47255D01*
X44130Y-47255D02*
X44969Y-48094D01*
X45900Y-49026D02*
X44969Y-48095D01*
X43697Y-46295D02*
X44130Y-46728D01*
X41835Y-45138D02*
X41744Y-45047D01*
X41744Y-43311D02*
X41933Y-43122D01*
X41744Y-45047D02*
X41744Y-43311D01*
X42949Y-45547D02*
X42559Y-45157D01*
X45900Y-49026D02*
X45882Y-49008D01*
X47151Y-49026D02*
X47169Y-49008D01*
X45900Y-49026D02*
X47151Y-49026D01*
X43850Y-46161D02*
X43087Y-45398D01*
X45414Y-47725D02*
X43850Y-46161D01*
X43087Y-43730D02*
X42814Y-43457D01*
X42528Y-43457D02*
X42209Y-43138D01*
X42814Y-43457D02*
X42528Y-43457D01*
X43087Y-45398D02*
X43087Y-44384D01*
X43087Y-44384D02*
X43087Y-43730D01*
X45414Y-47725D02*
X46886Y-47725D01*
X45414Y-47725D02*
X45425Y-47736D01*
X46886Y-47725D02*
X47169Y-48008D01*
X47165Y-46008D02*
X46323Y-46850D01*
X43331Y-44787D02*
X43331Y-43630D01*
X44437Y-45894D02*
X44437Y-45893D01*
X42843Y-43142D02*
X42843Y-43094D01*
X42843Y-43094D02*
X42846Y-43091D01*
X44437Y-45894D02*
X44438Y-45894D01*
X45394Y-46850D02*
X46323Y-46850D01*
X42950Y-43249D02*
X42843Y-43142D01*
X43331Y-43630D02*
X42950Y-43249D01*
X44438Y-45894D02*
X45394Y-46850D01*
X44437Y-45893D02*
X43331Y-44787D01*
X20140Y-44587D02*
X19943Y-44390D01*
X29685Y-38780D02*
X29035Y-38130D01*
X26850Y-40512D02*
X23661Y-43701D01*
X19429Y-38887D02*
X19429Y-37124D01*
X23661Y-14331D02*
X23661Y-25079D01*
X23661Y-49370D02*
X23661Y-49469D01*
X23661Y-56929D02*
X23917Y-57185D01*
X22520Y-48386D02*
X21639Y-48386D01*
X20779Y-45239D02*
X20142Y-44592D01*
X23661Y-25079D02*
X23661Y-26535D01*
X26850Y-38248D02*
X26850Y-38209D01*
X26299Y-58425D02*
X26299Y-59055D01*
X23661Y-43701D02*
X23661Y-48386D01*
X23661Y-26969D02*
X23661Y-32874D01*
X23661Y-48386D02*
X23661Y-49370D01*
X23661Y-49370D02*
X23661Y-56693D01*
X23661Y-26535D02*
X23661Y-26969D01*
X20142Y-44592D02*
X20142Y-44591D01*
X25059Y-57185D02*
X26299Y-58425D01*
X20779Y-47526D02*
X20779Y-45239D01*
X23917Y-57185D02*
X25059Y-57185D01*
X19943Y-44390D02*
X19943Y-39880D01*
X20140Y-44590D02*
X20140Y-44587D01*
X23661Y-33444D02*
X26850Y-36633D01*
X26850Y-36633D02*
X26850Y-38248D01*
X26850Y-38248D02*
X26850Y-40512D01*
X19943Y-39401D02*
X19429Y-38887D01*
X23661Y-12874D02*
X23661Y-14331D01*
X23661Y-32874D02*
X23661Y-33444D01*
X23661Y-56693D02*
X23661Y-56929D01*
X21639Y-48386D02*
X20779Y-47526D01*
X19943Y-39880D02*
X19943Y-39401D01*
X19429Y-37124D02*
X18935Y-36630D01*
X34980Y-25807D02*
X34980Y-26811D01*
X29685Y-38780D02*
X29685Y-40453D01*
X20142Y-44592D02*
X20140Y-44590D01*
G54D10*
G36*
X56034Y-42254D02*
X55226Y-42254D01*
X55226Y-41368D01*
X56034Y-41368D01*
X56034Y-42254D01*
X56034Y-42254D01*
G37*
G54D29*
X56034Y-42254D02*
X55226Y-42254D01*
X55226Y-41368D01*
X56034Y-41368D01*
X56034Y-42254D01*
G54D10*
G36*
X55050Y-42254D02*
X54202Y-42254D01*
X54202Y-41368D01*
X55050Y-41368D01*
X55050Y-42254D01*
X55050Y-42254D01*
G37*
G54D29*
X55050Y-42254D02*
X54202Y-42254D01*
X54202Y-41368D01*
X55050Y-41368D01*
X55050Y-42254D01*
G54D10*
G36*
X54006Y-42254D02*
X53218Y-42254D01*
X53218Y-41328D01*
X54006Y-41328D01*
X54006Y-42254D01*
X54006Y-42254D01*
G37*
G54D29*
X54006Y-42254D02*
X53218Y-42254D01*
X53218Y-41328D01*
X54006Y-41328D01*
X54006Y-42254D01*
G54D10*
G36*
X56054Y-54125D02*
X55285Y-54125D01*
X55285Y-52962D01*
X56054Y-52962D01*
X56054Y-54125D01*
X56054Y-54125D01*
G37*
G54D29*
X56054Y-54125D02*
X55285Y-54125D01*
X55285Y-52962D01*
X56054Y-52962D01*
X56054Y-54125D01*
G54D10*
G36*
X55109Y-54125D02*
X54222Y-54125D01*
X54222Y-52962D01*
X55109Y-52962D01*
X55109Y-54125D01*
X55109Y-54125D01*
G37*
G54D29*
X55109Y-54125D02*
X54222Y-54125D01*
X54222Y-52962D01*
X55109Y-52962D01*
X55109Y-54125D01*
G54D10*
G36*
X54026Y-54125D02*
X53218Y-54125D01*
X53218Y-52962D01*
X54026Y-52962D01*
X54026Y-54125D01*
X54026Y-54125D01*
G37*
G54D29*
X54026Y-54125D02*
X53218Y-54125D01*
X53218Y-52962D01*
X54026Y-52962D01*
X54026Y-54125D01*
G54D10*
G36*
X52373Y-59577D02*
X49134Y-59577D01*
X49134Y-60552D01*
X46368Y-60552D01*
X46368Y-57736D01*
X52373Y-57736D01*
X52373Y-59577D01*
X52373Y-59577D01*
G37*
G54D29*
X52373Y-59577D02*
X49134Y-59577D01*
X49134Y-60552D01*
X46368Y-60552D01*
X46368Y-57736D01*
X52373Y-57736D01*
X52373Y-59577D01*
G54D10*
G36*
X32284Y-34014D02*
X32134Y-34164D01*
X31998Y-34164D01*
X31998Y-34077D01*
X32116Y-33959D01*
X32116Y-33799D01*
X32284Y-33799D01*
X32284Y-34014D01*
X32284Y-34014D01*
G37*
G54D29*
X32284Y-34014D02*
X32134Y-34164D01*
X31998Y-34164D01*
X31998Y-34077D01*
X32116Y-33959D01*
X32116Y-33799D01*
X32284Y-33799D01*
X32284Y-34014D01*
G54D10*
G36*
X32195Y-45276D02*
X32017Y-45276D01*
X32017Y-44980D01*
X32195Y-44980D01*
X32195Y-45276D01*
X32195Y-45276D01*
G37*
G54D29*
X32195Y-45276D02*
X32017Y-45276D01*
X32017Y-44980D01*
X32195Y-44980D01*
X32195Y-45276D01*
G54D10*
G36*
X32766Y-23277D02*
X32544Y-23277D01*
X32766Y-23055D01*
X32766Y-23277D01*
X32766Y-23277D01*
G37*
G54D32*
X32766Y-23277D02*
X32544Y-23277D01*
X32766Y-23055D01*
X32766Y-23277D01*
M02*
