G04 (created by PCBNEW (2012-01-19 BZR 3256)-stable) date Fri 21 Sep 2012 20:50:24 BST*
G01*
G70*
G90*
%MOIN*%
G04 Gerber Fmt 3.4, Leading zero omitted, Abs format*
%FSLAX34Y34*%
G04 APERTURE LIST*
%ADD10C,0.001000*%
%ADD11C,0.015000*%
%ADD12C,0.008000*%
G04 APERTURE END LIST*
G54D10*
G54D11*
X56358Y-09882D02*
X56358Y-11083D01*
X15236Y-09882D02*
X15236Y-11063D01*
X56358Y-65335D02*
X15236Y-65335D01*
X15236Y-09882D02*
X56358Y-09882D01*
X56358Y-65335D02*
X56358Y-11102D01*
X15236Y-18661D02*
X15236Y-11102D01*
X15236Y-65315D02*
X15236Y-65335D01*
X15236Y-18681D02*
X15236Y-65315D01*
G54D10*
X18879Y-52363D02*
X20059Y-53543D01*
X20059Y-52363D02*
X18879Y-53543D01*
X19953Y-19977D02*
X21133Y-21157D01*
X21133Y-19977D02*
X19953Y-21157D01*
X28957Y-14499D02*
X30137Y-15679D01*
X30137Y-14499D02*
X28957Y-15679D01*
X34755Y-12402D02*
X35935Y-13582D01*
X35935Y-12402D02*
X34755Y-13582D01*
X38879Y-39125D02*
X40059Y-40305D01*
X40059Y-39125D02*
X38879Y-40305D01*
X47382Y-12402D02*
X48562Y-13582D01*
X48562Y-12402D02*
X47382Y-13582D01*
X50630Y-52363D02*
X51810Y-53543D01*
X51810Y-52363D02*
X50630Y-53543D01*
G54D12*
X05475Y-69972D02*
X05475Y-69172D01*
X05666Y-69172D01*
X05780Y-69210D01*
X05856Y-69286D01*
X05895Y-69362D01*
X05933Y-69515D01*
X05933Y-69629D01*
X05895Y-69781D01*
X05856Y-69858D01*
X05780Y-69934D01*
X05666Y-69972D01*
X05475Y-69972D01*
X06275Y-69972D02*
X06275Y-69438D01*
X06275Y-69591D02*
X06314Y-69515D01*
X06352Y-69477D01*
X06428Y-69438D01*
X06504Y-69438D01*
X06770Y-69972D02*
X06770Y-69438D01*
X06770Y-69172D02*
X06732Y-69210D01*
X06770Y-69248D01*
X06809Y-69210D01*
X06770Y-69172D01*
X06770Y-69248D01*
X07266Y-69972D02*
X07190Y-69934D01*
X07151Y-69858D01*
X07151Y-69172D01*
X07685Y-69972D02*
X07609Y-69934D01*
X07570Y-69858D01*
X07570Y-69172D01*
X08599Y-69972D02*
X08599Y-69172D01*
X08866Y-69743D01*
X09133Y-69172D01*
X09133Y-69972D01*
X09856Y-69972D02*
X09856Y-69553D01*
X09818Y-69477D01*
X09742Y-69438D01*
X09590Y-69438D01*
X09513Y-69477D01*
X09856Y-69934D02*
X09780Y-69972D01*
X09590Y-69972D01*
X09513Y-69934D01*
X09475Y-69858D01*
X09475Y-69781D01*
X09513Y-69705D01*
X09590Y-69667D01*
X09780Y-69667D01*
X09856Y-69629D01*
X10237Y-69438D02*
X10237Y-70238D01*
X10237Y-69477D02*
X10314Y-69438D01*
X10466Y-69438D01*
X10542Y-69477D01*
X10580Y-69515D01*
X10618Y-69591D01*
X10618Y-69819D01*
X10580Y-69896D01*
X10542Y-69934D01*
X10466Y-69972D01*
X10314Y-69972D01*
X10237Y-69934D01*
X10961Y-69896D02*
X11000Y-69934D01*
X10961Y-69972D01*
X10923Y-69934D01*
X10961Y-69896D01*
X10961Y-69972D01*
X10961Y-69477D02*
X11000Y-69515D01*
X10961Y-69553D01*
X10923Y-69515D01*
X10961Y-69477D01*
X10961Y-69553D01*
X03904Y-70738D02*
X05084Y-71918D01*
X05084Y-70738D02*
X03904Y-71918D01*
X05628Y-70852D02*
X05704Y-70852D01*
X05780Y-70890D01*
X05818Y-70928D01*
X05856Y-71004D01*
X05895Y-71157D01*
X05895Y-71347D01*
X05856Y-71499D01*
X05818Y-71576D01*
X05780Y-71614D01*
X05704Y-71652D01*
X05628Y-71652D01*
X05552Y-71614D01*
X05514Y-71576D01*
X05475Y-71499D01*
X05437Y-71347D01*
X05437Y-71157D01*
X05475Y-71004D01*
X05514Y-70928D01*
X05552Y-70890D01*
X05628Y-70852D01*
X06237Y-71576D02*
X06276Y-71614D01*
X06237Y-71652D01*
X06199Y-71614D01*
X06237Y-71576D01*
X06237Y-71652D01*
X07038Y-71652D02*
X06580Y-71652D01*
X06809Y-71652D02*
X06809Y-70852D01*
X06733Y-70966D01*
X06657Y-71042D01*
X06580Y-71080D01*
X07800Y-71652D02*
X07342Y-71652D01*
X07571Y-71652D02*
X07571Y-70852D01*
X07495Y-70966D01*
X07419Y-71042D01*
X07342Y-71080D01*
X08257Y-71195D02*
X08181Y-71157D01*
X08142Y-71118D01*
X08104Y-71042D01*
X08104Y-71004D01*
X08142Y-70928D01*
X08181Y-70890D01*
X08257Y-70852D01*
X08409Y-70852D01*
X08485Y-70890D01*
X08523Y-70928D01*
X08562Y-71004D01*
X08562Y-71042D01*
X08523Y-71118D01*
X08485Y-71157D01*
X08409Y-71195D01*
X08257Y-71195D01*
X08181Y-71233D01*
X08142Y-71271D01*
X08104Y-71347D01*
X08104Y-71499D01*
X08142Y-71576D01*
X08181Y-71614D01*
X08257Y-71652D01*
X08409Y-71652D01*
X08485Y-71614D01*
X08523Y-71576D01*
X08562Y-71499D01*
X08562Y-71347D01*
X08523Y-71271D01*
X08485Y-71233D01*
X08409Y-71195D01*
X08866Y-70852D02*
X08866Y-71004D01*
X09171Y-70852D02*
X09171Y-71004D01*
X10696Y-70814D02*
X10010Y-71842D01*
X11496Y-70852D02*
X11992Y-70852D01*
X11725Y-71157D01*
X11839Y-71157D01*
X11915Y-71195D01*
X11953Y-71233D01*
X11992Y-71309D01*
X11992Y-71499D01*
X11953Y-71576D01*
X11915Y-71614D01*
X11839Y-71652D01*
X11611Y-71652D01*
X11534Y-71614D01*
X11496Y-71576D01*
X12334Y-71576D02*
X12373Y-71614D01*
X12334Y-71652D01*
X12296Y-71614D01*
X12334Y-71576D01*
X12334Y-71652D01*
X12868Y-70852D02*
X12944Y-70852D01*
X13020Y-70890D01*
X13058Y-70928D01*
X13096Y-71004D01*
X13135Y-71157D01*
X13135Y-71347D01*
X13096Y-71499D01*
X13058Y-71576D01*
X13020Y-71614D01*
X12944Y-71652D01*
X12868Y-71652D01*
X12792Y-71614D01*
X12754Y-71576D01*
X12715Y-71499D01*
X12677Y-71347D01*
X12677Y-71157D01*
X12715Y-71004D01*
X12754Y-70928D01*
X12792Y-70890D01*
X12868Y-70852D01*
X13630Y-70852D02*
X13706Y-70852D01*
X13782Y-70890D01*
X13820Y-70928D01*
X13858Y-71004D01*
X13897Y-71157D01*
X13897Y-71347D01*
X13858Y-71499D01*
X13820Y-71576D01*
X13782Y-71614D01*
X13706Y-71652D01*
X13630Y-71652D01*
X13554Y-71614D01*
X13516Y-71576D01*
X13477Y-71499D01*
X13439Y-71347D01*
X13439Y-71157D01*
X13477Y-71004D01*
X13516Y-70928D01*
X13554Y-70890D01*
X13630Y-70852D01*
X14239Y-71652D02*
X14239Y-71118D01*
X14239Y-71195D02*
X14278Y-71157D01*
X14354Y-71118D01*
X14468Y-71118D01*
X14544Y-71157D01*
X14582Y-71233D01*
X14582Y-71652D01*
X14582Y-71233D02*
X14620Y-71157D01*
X14697Y-71118D01*
X14811Y-71118D01*
X14887Y-71157D01*
X14925Y-71233D01*
X14925Y-71652D01*
X15306Y-71652D02*
X15306Y-71118D01*
X15306Y-71195D02*
X15345Y-71157D01*
X15421Y-71118D01*
X15535Y-71118D01*
X15611Y-71157D01*
X15649Y-71233D01*
X15649Y-71652D01*
X15649Y-71233D02*
X15687Y-71157D01*
X15764Y-71118D01*
X15878Y-71118D01*
X15954Y-71157D01*
X15992Y-71233D01*
X15992Y-71652D01*
X17212Y-71957D02*
X17174Y-71918D01*
X17098Y-71804D01*
X17060Y-71728D01*
X17022Y-71614D01*
X16983Y-71423D01*
X16983Y-71271D01*
X17022Y-71080D01*
X17060Y-70966D01*
X17098Y-70890D01*
X17174Y-70776D01*
X17212Y-70738D01*
X17440Y-70852D02*
X17974Y-70852D01*
X17631Y-71652D01*
X18888Y-71652D02*
X18888Y-70852D01*
X19231Y-71652D02*
X19231Y-71233D01*
X19193Y-71157D01*
X19117Y-71118D01*
X19003Y-71118D01*
X18927Y-71157D01*
X18888Y-71195D01*
X19727Y-71652D02*
X19651Y-71614D01*
X19612Y-71576D01*
X19574Y-71499D01*
X19574Y-71271D01*
X19612Y-71195D01*
X19651Y-71157D01*
X19727Y-71118D01*
X19841Y-71118D01*
X19917Y-71157D01*
X19955Y-71195D01*
X19993Y-71271D01*
X19993Y-71499D01*
X19955Y-71576D01*
X19917Y-71614D01*
X19841Y-71652D01*
X19727Y-71652D01*
X20451Y-71652D02*
X20375Y-71614D01*
X20336Y-71538D01*
X20336Y-70852D01*
X21060Y-71614D02*
X20984Y-71652D01*
X20832Y-71652D01*
X20755Y-71614D01*
X20717Y-71538D01*
X20717Y-71233D01*
X20755Y-71157D01*
X20832Y-71118D01*
X20984Y-71118D01*
X21060Y-71157D01*
X21098Y-71233D01*
X21098Y-71309D01*
X20717Y-71385D01*
X21403Y-71614D02*
X21480Y-71652D01*
X21632Y-71652D01*
X21708Y-71614D01*
X21746Y-71538D01*
X21746Y-71499D01*
X21708Y-71423D01*
X21632Y-71385D01*
X21518Y-71385D01*
X21441Y-71347D01*
X21403Y-71271D01*
X21403Y-71233D01*
X21441Y-71157D01*
X21518Y-71118D01*
X21632Y-71118D01*
X21708Y-71157D01*
X22013Y-71957D02*
X22051Y-71918D01*
X22128Y-71804D01*
X22166Y-71728D01*
X22204Y-71614D01*
X22242Y-71423D01*
X22242Y-71271D01*
X22204Y-71080D01*
X22166Y-70966D01*
X22128Y-70890D01*
X22051Y-70776D01*
X22013Y-70738D01*
M02*
