G04 (created by PCBNEW-RS274X (2012-01-19 BZR 3256)-stable) date Wed 19 Sep 2012 13:05:18 BST*
G01*
G70*
G90*
%MOIN*%
G04 Gerber Fmt 3.4, Leading zero omitted, Abs format*
%FSLAX34Y34*%
G04 APERTURE LIST*
%ADD10C,0.009800*%
%ADD11C,0.012000*%
G04 APERTURE END LIST*
G54D10*
G54D11*
X63489Y-54044D02*
X63489Y-53244D01*
X63689Y-53510D02*
X63918Y-53510D01*
X63775Y-53244D02*
X63775Y-53930D01*
X63803Y-54006D01*
X63861Y-54044D01*
X63918Y-54044D01*
X64575Y-54044D02*
X64575Y-53510D01*
X64575Y-53244D02*
X64546Y-53282D01*
X64575Y-53320D01*
X64603Y-53282D01*
X64575Y-53244D01*
X64575Y-53320D01*
X64832Y-54006D02*
X64889Y-54044D01*
X65004Y-54044D01*
X65061Y-54006D01*
X65089Y-53930D01*
X65089Y-53891D01*
X65061Y-53815D01*
X65004Y-53777D01*
X64918Y-53777D01*
X64861Y-53739D01*
X64832Y-53663D01*
X64832Y-53625D01*
X64861Y-53549D01*
X64918Y-53510D01*
X65004Y-53510D01*
X65061Y-53549D01*
X66061Y-54044D02*
X66061Y-53625D01*
X66032Y-53549D01*
X65975Y-53510D01*
X65861Y-53510D01*
X65804Y-53549D01*
X66061Y-54006D02*
X66004Y-54044D01*
X65861Y-54044D01*
X65804Y-54006D01*
X65775Y-53930D01*
X65775Y-53853D01*
X65804Y-53777D01*
X65861Y-53739D01*
X66004Y-53739D01*
X66061Y-53701D01*
X66604Y-54006D02*
X66547Y-54044D01*
X66433Y-54044D01*
X66375Y-54006D01*
X66347Y-53968D01*
X66318Y-53891D01*
X66318Y-53663D01*
X66347Y-53587D01*
X66375Y-53549D01*
X66433Y-53510D01*
X66547Y-53510D01*
X66604Y-53549D01*
X67118Y-54006D02*
X67061Y-54044D01*
X66947Y-54044D01*
X66889Y-54006D01*
X66861Y-53968D01*
X66832Y-53891D01*
X66832Y-53663D01*
X66861Y-53587D01*
X66889Y-53549D01*
X66947Y-53510D01*
X67061Y-53510D01*
X67118Y-53549D01*
X67603Y-54006D02*
X67546Y-54044D01*
X67432Y-54044D01*
X67375Y-54006D01*
X67346Y-53930D01*
X67346Y-53625D01*
X67375Y-53549D01*
X67432Y-53510D01*
X67546Y-53510D01*
X67603Y-53549D01*
X67632Y-53625D01*
X67632Y-53701D01*
X67346Y-53777D01*
X67889Y-53510D02*
X67889Y-54310D01*
X67889Y-53549D02*
X67946Y-53510D01*
X68060Y-53510D01*
X68117Y-53549D01*
X68146Y-53587D01*
X68175Y-53663D01*
X68175Y-53891D01*
X68146Y-53968D01*
X68117Y-54006D01*
X68060Y-54044D01*
X67946Y-54044D01*
X67889Y-54006D01*
X68346Y-53510D02*
X68575Y-53510D01*
X68432Y-53244D02*
X68432Y-53930D01*
X68460Y-54006D01*
X68518Y-54044D01*
X68575Y-54044D01*
X69032Y-54044D02*
X69032Y-53625D01*
X69003Y-53549D01*
X68946Y-53510D01*
X68832Y-53510D01*
X68775Y-53549D01*
X69032Y-54006D02*
X68975Y-54044D01*
X68832Y-54044D01*
X68775Y-54006D01*
X68746Y-53930D01*
X68746Y-53853D01*
X68775Y-53777D01*
X68832Y-53739D01*
X68975Y-53739D01*
X69032Y-53701D01*
X69318Y-54044D02*
X69318Y-53244D01*
X69318Y-53549D02*
X69375Y-53510D01*
X69489Y-53510D01*
X69546Y-53549D01*
X69575Y-53587D01*
X69604Y-53663D01*
X69604Y-53891D01*
X69575Y-53968D01*
X69546Y-54006D01*
X69489Y-54044D01*
X69375Y-54044D01*
X69318Y-54006D01*
X69947Y-54044D02*
X69889Y-54006D01*
X69861Y-53930D01*
X69861Y-53244D01*
X70403Y-54006D02*
X70346Y-54044D01*
X70232Y-54044D01*
X70175Y-54006D01*
X70146Y-53930D01*
X70146Y-53625D01*
X70175Y-53549D01*
X70232Y-53510D01*
X70346Y-53510D01*
X70403Y-53549D01*
X70432Y-53625D01*
X70432Y-53701D01*
X70146Y-53777D01*
X71060Y-53510D02*
X71289Y-53510D01*
X71146Y-54044D02*
X71146Y-53358D01*
X71174Y-53282D01*
X71232Y-53244D01*
X71289Y-53244D01*
X71575Y-54044D02*
X71517Y-54006D01*
X71489Y-53968D01*
X71460Y-53891D01*
X71460Y-53663D01*
X71489Y-53587D01*
X71517Y-53549D01*
X71575Y-53510D01*
X71660Y-53510D01*
X71717Y-53549D01*
X71746Y-53587D01*
X71775Y-53663D01*
X71775Y-53891D01*
X71746Y-53968D01*
X71717Y-54006D01*
X71660Y-54044D01*
X71575Y-54044D01*
X72032Y-54044D02*
X72032Y-53510D01*
X72032Y-53663D02*
X72060Y-53587D01*
X72089Y-53549D01*
X72146Y-53510D01*
X72203Y-53510D01*
X72774Y-53510D02*
X73003Y-53510D01*
X72860Y-53244D02*
X72860Y-53930D01*
X72888Y-54006D01*
X72946Y-54044D01*
X73003Y-54044D01*
X73203Y-54044D02*
X73203Y-53244D01*
X73460Y-54044D02*
X73460Y-53625D01*
X73431Y-53549D01*
X73374Y-53510D01*
X73289Y-53510D01*
X73231Y-53549D01*
X73203Y-53587D01*
X73974Y-54006D02*
X73917Y-54044D01*
X73803Y-54044D01*
X73746Y-54006D01*
X73717Y-53930D01*
X73717Y-53625D01*
X73746Y-53549D01*
X73803Y-53510D01*
X73917Y-53510D01*
X73974Y-53549D01*
X74003Y-53625D01*
X74003Y-53701D01*
X73717Y-53777D01*
X75003Y-53244D02*
X74717Y-53244D01*
X74688Y-53625D01*
X74717Y-53587D01*
X74774Y-53549D01*
X74917Y-53549D01*
X74974Y-53587D01*
X75003Y-53625D01*
X75031Y-53701D01*
X75031Y-53891D01*
X75003Y-53968D01*
X74974Y-54006D01*
X74917Y-54044D01*
X74774Y-54044D01*
X74717Y-54006D01*
X74688Y-53968D01*
X75745Y-54044D02*
X75745Y-53510D01*
X75745Y-53587D02*
X75773Y-53549D01*
X75831Y-53510D01*
X75916Y-53510D01*
X75973Y-53549D01*
X76002Y-53625D01*
X76002Y-54044D01*
X76002Y-53625D02*
X76031Y-53549D01*
X76088Y-53510D01*
X76173Y-53510D01*
X76231Y-53549D01*
X76259Y-53625D01*
X76259Y-54044D01*
X76631Y-54044D02*
X76573Y-54006D01*
X76545Y-53968D01*
X76516Y-53891D01*
X76516Y-53663D01*
X76545Y-53587D01*
X76573Y-53549D01*
X76631Y-53510D01*
X76716Y-53510D01*
X76773Y-53549D01*
X76802Y-53587D01*
X76831Y-53663D01*
X76831Y-53891D01*
X76802Y-53968D01*
X76773Y-54006D01*
X76716Y-54044D01*
X76631Y-54044D01*
X77345Y-53510D02*
X77345Y-54044D01*
X77088Y-53510D02*
X77088Y-53930D01*
X77116Y-54006D01*
X77174Y-54044D01*
X77259Y-54044D01*
X77316Y-54006D01*
X77345Y-53968D01*
X77631Y-53510D02*
X77631Y-54044D01*
X77631Y-53587D02*
X77659Y-53549D01*
X77717Y-53510D01*
X77802Y-53510D01*
X77859Y-53549D01*
X77888Y-53625D01*
X77888Y-54044D01*
X78088Y-53510D02*
X78317Y-53510D01*
X78174Y-53244D02*
X78174Y-53930D01*
X78202Y-54006D01*
X78260Y-54044D01*
X78317Y-54044D01*
X78517Y-54044D02*
X78517Y-53510D01*
X78517Y-53244D02*
X78488Y-53282D01*
X78517Y-53320D01*
X78545Y-53282D01*
X78517Y-53244D01*
X78517Y-53320D01*
X78803Y-53510D02*
X78803Y-54044D01*
X78803Y-53587D02*
X78831Y-53549D01*
X78889Y-53510D01*
X78974Y-53510D01*
X79031Y-53549D01*
X79060Y-53625D01*
X79060Y-54044D01*
X79603Y-53510D02*
X79603Y-54158D01*
X79574Y-54234D01*
X79546Y-54272D01*
X79489Y-54310D01*
X79403Y-54310D01*
X79346Y-54272D01*
X79603Y-54006D02*
X79546Y-54044D01*
X79432Y-54044D01*
X79374Y-54006D01*
X79346Y-53968D01*
X79317Y-53891D01*
X79317Y-53663D01*
X79346Y-53587D01*
X79374Y-53549D01*
X79432Y-53510D01*
X79546Y-53510D01*
X79603Y-53549D01*
X80346Y-54044D02*
X80346Y-53244D01*
X80603Y-54044D02*
X80603Y-53625D01*
X80574Y-53549D01*
X80517Y-53510D01*
X80432Y-53510D01*
X80374Y-53549D01*
X80346Y-53587D01*
X80975Y-54044D02*
X80917Y-54006D01*
X80889Y-53968D01*
X80860Y-53891D01*
X80860Y-53663D01*
X80889Y-53587D01*
X80917Y-53549D01*
X80975Y-53510D01*
X81060Y-53510D01*
X81117Y-53549D01*
X81146Y-53587D01*
X81175Y-53663D01*
X81175Y-53891D01*
X81146Y-53968D01*
X81117Y-54006D01*
X81060Y-54044D01*
X80975Y-54044D01*
X81518Y-54044D02*
X81460Y-54006D01*
X81432Y-53930D01*
X81432Y-53244D01*
X81974Y-54006D02*
X81917Y-54044D01*
X81803Y-54044D01*
X81746Y-54006D01*
X81717Y-53930D01*
X81717Y-53625D01*
X81746Y-53549D01*
X81803Y-53510D01*
X81917Y-53510D01*
X81974Y-53549D01*
X82003Y-53625D01*
X82003Y-53701D01*
X81717Y-53777D01*
X82231Y-54006D02*
X82288Y-54044D01*
X82403Y-54044D01*
X82460Y-54006D01*
X82488Y-53930D01*
X82488Y-53891D01*
X82460Y-53815D01*
X82403Y-53777D01*
X82317Y-53777D01*
X82260Y-53739D01*
X82231Y-53663D01*
X82231Y-53625D01*
X82260Y-53549D01*
X82317Y-53510D01*
X82403Y-53510D01*
X82460Y-53549D01*
X83203Y-54044D02*
X83203Y-53510D01*
X83203Y-53587D02*
X83231Y-53549D01*
X83289Y-53510D01*
X83374Y-53510D01*
X83431Y-53549D01*
X83460Y-53625D01*
X83460Y-54044D01*
X83460Y-53625D02*
X83489Y-53549D01*
X83546Y-53510D01*
X83631Y-53510D01*
X83689Y-53549D01*
X83717Y-53625D01*
X83717Y-54044D01*
X84260Y-54044D02*
X84260Y-53625D01*
X84231Y-53549D01*
X84174Y-53510D01*
X84060Y-53510D01*
X84003Y-53549D01*
X84260Y-54006D02*
X84203Y-54044D01*
X84060Y-54044D01*
X84003Y-54006D01*
X83974Y-53930D01*
X83974Y-53853D01*
X84003Y-53777D01*
X84060Y-53739D01*
X84203Y-53739D01*
X84260Y-53701D01*
X84546Y-54044D02*
X84546Y-53510D01*
X84546Y-53663D02*
X84574Y-53587D01*
X84603Y-53549D01*
X84660Y-53510D01*
X84717Y-53510D01*
X84917Y-54044D02*
X84917Y-53244D01*
X84974Y-53739D02*
X85145Y-54044D01*
X85145Y-53510D02*
X84917Y-53815D01*
X85631Y-54006D02*
X85574Y-54044D01*
X85460Y-54044D01*
X85403Y-54006D01*
X85374Y-53930D01*
X85374Y-53625D01*
X85403Y-53549D01*
X85460Y-53510D01*
X85574Y-53510D01*
X85631Y-53549D01*
X85660Y-53625D01*
X85660Y-53701D01*
X85374Y-53777D01*
X86174Y-54044D02*
X86174Y-53244D01*
X86174Y-54006D02*
X86117Y-54044D01*
X86003Y-54044D01*
X85945Y-54006D01*
X85917Y-53968D01*
X85888Y-53891D01*
X85888Y-53663D01*
X85917Y-53587D01*
X85945Y-53549D01*
X86003Y-53510D01*
X86117Y-53510D01*
X86174Y-53549D01*
X86888Y-53244D02*
X86888Y-53396D01*
X87117Y-53244D02*
X87117Y-53396D01*
X87374Y-54044D02*
X87374Y-53244D01*
X87717Y-54044D01*
X87717Y-53244D01*
X88089Y-54044D02*
X88031Y-54006D01*
X88003Y-53968D01*
X87974Y-53891D01*
X87974Y-53663D01*
X88003Y-53587D01*
X88031Y-53549D01*
X88089Y-53510D01*
X88174Y-53510D01*
X88231Y-53549D01*
X88260Y-53587D01*
X88289Y-53663D01*
X88289Y-53891D01*
X88260Y-53968D01*
X88231Y-54006D01*
X88174Y-54044D01*
X88089Y-54044D01*
X88546Y-53510D02*
X88546Y-54044D01*
X88546Y-53587D02*
X88574Y-53549D01*
X88632Y-53510D01*
X88717Y-53510D01*
X88774Y-53549D01*
X88803Y-53625D01*
X88803Y-54044D01*
X89089Y-53739D02*
X89546Y-53739D01*
X89832Y-53510D02*
X89832Y-54310D01*
X89832Y-53549D02*
X89889Y-53510D01*
X90003Y-53510D01*
X90060Y-53549D01*
X90089Y-53587D01*
X90118Y-53663D01*
X90118Y-53891D01*
X90089Y-53968D01*
X90060Y-54006D01*
X90003Y-54044D01*
X89889Y-54044D01*
X89832Y-54006D01*
X90461Y-54044D02*
X90403Y-54006D01*
X90375Y-53930D01*
X90375Y-53244D01*
X90946Y-54044D02*
X90946Y-53625D01*
X90917Y-53549D01*
X90860Y-53510D01*
X90746Y-53510D01*
X90689Y-53549D01*
X90946Y-54006D02*
X90889Y-54044D01*
X90746Y-54044D01*
X90689Y-54006D01*
X90660Y-53930D01*
X90660Y-53853D01*
X90689Y-53777D01*
X90746Y-53739D01*
X90889Y-53739D01*
X90946Y-53701D01*
X91146Y-53510D02*
X91375Y-53510D01*
X91232Y-53244D02*
X91232Y-53930D01*
X91260Y-54006D01*
X91318Y-54044D01*
X91375Y-54044D01*
X91803Y-54006D02*
X91746Y-54044D01*
X91632Y-54044D01*
X91575Y-54006D01*
X91546Y-53930D01*
X91546Y-53625D01*
X91575Y-53549D01*
X91632Y-53510D01*
X91746Y-53510D01*
X91803Y-53549D01*
X91832Y-53625D01*
X91832Y-53701D01*
X91546Y-53777D01*
X92346Y-54044D02*
X92346Y-53244D01*
X92346Y-54006D02*
X92289Y-54044D01*
X92175Y-54044D01*
X92117Y-54006D01*
X92089Y-53968D01*
X92060Y-53891D01*
X92060Y-53663D01*
X92089Y-53587D01*
X92117Y-53549D01*
X92175Y-53510D01*
X92289Y-53510D01*
X92346Y-53549D01*
X93003Y-53510D02*
X93232Y-53510D01*
X93089Y-53244D02*
X93089Y-53930D01*
X93117Y-54006D01*
X93175Y-54044D01*
X93232Y-54044D01*
X93432Y-54044D02*
X93432Y-53244D01*
X93689Y-54044D02*
X93689Y-53625D01*
X93660Y-53549D01*
X93603Y-53510D01*
X93518Y-53510D01*
X93460Y-53549D01*
X93432Y-53587D01*
X93975Y-54044D02*
X93975Y-53510D01*
X93975Y-53663D02*
X94003Y-53587D01*
X94032Y-53549D01*
X94089Y-53510D01*
X94146Y-53510D01*
X94432Y-54044D02*
X94374Y-54006D01*
X94346Y-53968D01*
X94317Y-53891D01*
X94317Y-53663D01*
X94346Y-53587D01*
X94374Y-53549D01*
X94432Y-53510D01*
X94517Y-53510D01*
X94574Y-53549D01*
X94603Y-53587D01*
X94632Y-53663D01*
X94632Y-53891D01*
X94603Y-53968D01*
X94574Y-54006D01*
X94517Y-54044D01*
X94432Y-54044D01*
X95146Y-53510D02*
X95146Y-54044D01*
X94889Y-53510D02*
X94889Y-53930D01*
X94917Y-54006D01*
X94975Y-54044D01*
X95060Y-54044D01*
X95117Y-54006D01*
X95146Y-53968D01*
X95689Y-53510D02*
X95689Y-54158D01*
X95660Y-54234D01*
X95632Y-54272D01*
X95575Y-54310D01*
X95489Y-54310D01*
X95432Y-54272D01*
X95689Y-54006D02*
X95632Y-54044D01*
X95518Y-54044D01*
X95460Y-54006D01*
X95432Y-53968D01*
X95403Y-53891D01*
X95403Y-53663D01*
X95432Y-53587D01*
X95460Y-53549D01*
X95518Y-53510D01*
X95632Y-53510D01*
X95689Y-53549D01*
X95975Y-54044D02*
X95975Y-53244D01*
X96232Y-54044D02*
X96232Y-53625D01*
X96203Y-53549D01*
X96146Y-53510D01*
X96061Y-53510D01*
X96003Y-53549D01*
X95975Y-53587D01*
X96975Y-54044D02*
X96975Y-53244D01*
X97232Y-54044D02*
X97232Y-53625D01*
X97203Y-53549D01*
X97146Y-53510D01*
X97061Y-53510D01*
X97003Y-53549D01*
X96975Y-53587D01*
X97604Y-54044D02*
X97546Y-54006D01*
X97518Y-53968D01*
X97489Y-53891D01*
X97489Y-53663D01*
X97518Y-53587D01*
X97546Y-53549D01*
X97604Y-53510D01*
X97689Y-53510D01*
X97746Y-53549D01*
X97775Y-53587D01*
X97804Y-53663D01*
X97804Y-53891D01*
X97775Y-53968D01*
X97746Y-54006D01*
X97689Y-54044D01*
X97604Y-54044D01*
X98147Y-54044D02*
X98089Y-54006D01*
X98061Y-53930D01*
X98061Y-53244D01*
X98603Y-54006D02*
X98546Y-54044D01*
X98432Y-54044D01*
X98375Y-54006D01*
X98346Y-53930D01*
X98346Y-53625D01*
X98375Y-53549D01*
X98432Y-53510D01*
X98546Y-53510D01*
X98603Y-53549D01*
X98632Y-53625D01*
X98632Y-53701D01*
X98346Y-53777D01*
X98860Y-53244D02*
X98860Y-53396D01*
X99089Y-53244D02*
X99089Y-53396D01*
X63403Y-54750D02*
X63632Y-54750D01*
X63489Y-54484D02*
X63489Y-55170D01*
X63517Y-55246D01*
X63575Y-55284D01*
X63632Y-55284D01*
X63918Y-55284D02*
X63860Y-55246D01*
X63832Y-55208D01*
X63803Y-55131D01*
X63803Y-54903D01*
X63832Y-54827D01*
X63860Y-54789D01*
X63918Y-54750D01*
X64003Y-54750D01*
X64060Y-54789D01*
X64089Y-54827D01*
X64118Y-54903D01*
X64118Y-55131D01*
X64089Y-55208D01*
X64060Y-55246D01*
X64003Y-55284D01*
X63918Y-55284D01*
X64832Y-55284D02*
X64832Y-54484D01*
X64832Y-54789D02*
X64889Y-54750D01*
X65003Y-54750D01*
X65060Y-54789D01*
X65089Y-54827D01*
X65118Y-54903D01*
X65118Y-55131D01*
X65089Y-55208D01*
X65060Y-55246D01*
X65003Y-55284D01*
X64889Y-55284D01*
X64832Y-55246D01*
X65603Y-55246D02*
X65546Y-55284D01*
X65432Y-55284D01*
X65375Y-55246D01*
X65346Y-55170D01*
X65346Y-54865D01*
X65375Y-54789D01*
X65432Y-54750D01*
X65546Y-54750D01*
X65603Y-54789D01*
X65632Y-54865D01*
X65632Y-54941D01*
X65346Y-55017D01*
X66346Y-54750D02*
X66346Y-55550D01*
X66346Y-54789D02*
X66403Y-54750D01*
X66517Y-54750D01*
X66574Y-54789D01*
X66603Y-54827D01*
X66632Y-54903D01*
X66632Y-55131D01*
X66603Y-55208D01*
X66574Y-55246D01*
X66517Y-55284D01*
X66403Y-55284D01*
X66346Y-55246D01*
X66975Y-55284D02*
X66917Y-55246D01*
X66889Y-55170D01*
X66889Y-54484D01*
X67460Y-55284D02*
X67460Y-54865D01*
X67431Y-54789D01*
X67374Y-54750D01*
X67260Y-54750D01*
X67203Y-54789D01*
X67460Y-55246D02*
X67403Y-55284D01*
X67260Y-55284D01*
X67203Y-55246D01*
X67174Y-55170D01*
X67174Y-55093D01*
X67203Y-55017D01*
X67260Y-54979D01*
X67403Y-54979D01*
X67460Y-54941D01*
X67660Y-54750D02*
X67889Y-54750D01*
X67746Y-54484D02*
X67746Y-55170D01*
X67774Y-55246D01*
X67832Y-55284D01*
X67889Y-55284D01*
X68317Y-55246D02*
X68260Y-55284D01*
X68146Y-55284D01*
X68089Y-55246D01*
X68060Y-55170D01*
X68060Y-54865D01*
X68089Y-54789D01*
X68146Y-54750D01*
X68260Y-54750D01*
X68317Y-54789D01*
X68346Y-54865D01*
X68346Y-54941D01*
X68060Y-55017D01*
X68860Y-55284D02*
X68860Y-54484D01*
X68860Y-55246D02*
X68803Y-55284D01*
X68689Y-55284D01*
X68631Y-55246D01*
X68603Y-55208D01*
X68574Y-55131D01*
X68574Y-54903D01*
X68603Y-54827D01*
X68631Y-54789D01*
X68689Y-54750D01*
X68803Y-54750D01*
X68860Y-54789D01*
X69174Y-55246D02*
X69174Y-55284D01*
X69146Y-55360D01*
X69117Y-55398D01*
X69889Y-55284D02*
X69889Y-54750D01*
X69889Y-54484D02*
X69860Y-54522D01*
X69889Y-54560D01*
X69917Y-54522D01*
X69889Y-54484D01*
X69889Y-54560D01*
X70089Y-54750D02*
X70318Y-54750D01*
X70175Y-55284D02*
X70175Y-54598D01*
X70203Y-54522D01*
X70261Y-54484D01*
X70318Y-54484D01*
X70889Y-54750D02*
X71118Y-54750D01*
X70975Y-54484D02*
X70975Y-55170D01*
X71003Y-55246D01*
X71061Y-55284D01*
X71118Y-55284D01*
X71318Y-55284D02*
X71318Y-54484D01*
X71575Y-55284D02*
X71575Y-54865D01*
X71546Y-54789D01*
X71489Y-54750D01*
X71404Y-54750D01*
X71346Y-54789D01*
X71318Y-54827D01*
X71861Y-55284D02*
X71861Y-54750D01*
X71861Y-54484D02*
X71832Y-54522D01*
X71861Y-54560D01*
X71889Y-54522D01*
X71861Y-54484D01*
X71861Y-54560D01*
X72118Y-55246D02*
X72175Y-55284D01*
X72290Y-55284D01*
X72347Y-55246D01*
X72375Y-55170D01*
X72375Y-55131D01*
X72347Y-55055D01*
X72290Y-55017D01*
X72204Y-55017D01*
X72147Y-54979D01*
X72118Y-54903D01*
X72118Y-54865D01*
X72147Y-54789D01*
X72204Y-54750D01*
X72290Y-54750D01*
X72347Y-54789D01*
X73347Y-55284D02*
X73347Y-54865D01*
X73318Y-54789D01*
X73261Y-54750D01*
X73147Y-54750D01*
X73090Y-54789D01*
X73347Y-55246D02*
X73290Y-55284D01*
X73147Y-55284D01*
X73090Y-55246D01*
X73061Y-55170D01*
X73061Y-55093D01*
X73090Y-55017D01*
X73147Y-54979D01*
X73290Y-54979D01*
X73347Y-54941D01*
X73633Y-55284D02*
X73633Y-54750D01*
X73633Y-54484D02*
X73604Y-54522D01*
X73633Y-54560D01*
X73661Y-54522D01*
X73633Y-54484D01*
X73633Y-54560D01*
X74176Y-55284D02*
X74176Y-54484D01*
X74176Y-55246D02*
X74119Y-55284D01*
X74005Y-55284D01*
X73947Y-55246D01*
X73919Y-55208D01*
X73890Y-55131D01*
X73890Y-54903D01*
X73919Y-54827D01*
X73947Y-54789D01*
X74005Y-54750D01*
X74119Y-54750D01*
X74176Y-54789D01*
X74433Y-55246D02*
X74490Y-55284D01*
X74605Y-55284D01*
X74662Y-55246D01*
X74690Y-55170D01*
X74690Y-55131D01*
X74662Y-55055D01*
X74605Y-55017D01*
X74519Y-55017D01*
X74462Y-54979D01*
X74433Y-54903D01*
X74433Y-54865D01*
X74462Y-54789D01*
X74519Y-54750D01*
X74605Y-54750D01*
X74662Y-54789D01*
X75405Y-55284D02*
X75405Y-54750D01*
X75405Y-54827D02*
X75433Y-54789D01*
X75491Y-54750D01*
X75576Y-54750D01*
X75633Y-54789D01*
X75662Y-54865D01*
X75662Y-55284D01*
X75662Y-54865D02*
X75691Y-54789D01*
X75748Y-54750D01*
X75833Y-54750D01*
X75891Y-54789D01*
X75919Y-54865D01*
X75919Y-55284D01*
X76462Y-55284D02*
X76462Y-54865D01*
X76433Y-54789D01*
X76376Y-54750D01*
X76262Y-54750D01*
X76205Y-54789D01*
X76462Y-55246D02*
X76405Y-55284D01*
X76262Y-55284D01*
X76205Y-55246D01*
X76176Y-55170D01*
X76176Y-55093D01*
X76205Y-55017D01*
X76262Y-54979D01*
X76405Y-54979D01*
X76462Y-54941D01*
X76748Y-54750D02*
X76748Y-55284D01*
X76748Y-54827D02*
X76776Y-54789D01*
X76834Y-54750D01*
X76919Y-54750D01*
X76976Y-54789D01*
X77005Y-54865D01*
X77005Y-55284D01*
X77548Y-54750D02*
X77548Y-55284D01*
X77291Y-54750D02*
X77291Y-55170D01*
X77319Y-55246D01*
X77377Y-55284D01*
X77462Y-55284D01*
X77519Y-55246D01*
X77548Y-55208D01*
X77748Y-54750D02*
X77977Y-54750D01*
X77834Y-55284D02*
X77834Y-54598D01*
X77862Y-54522D01*
X77920Y-54484D01*
X77977Y-54484D01*
X78434Y-55284D02*
X78434Y-54865D01*
X78405Y-54789D01*
X78348Y-54750D01*
X78234Y-54750D01*
X78177Y-54789D01*
X78434Y-55246D02*
X78377Y-55284D01*
X78234Y-55284D01*
X78177Y-55246D01*
X78148Y-55170D01*
X78148Y-55093D01*
X78177Y-55017D01*
X78234Y-54979D01*
X78377Y-54979D01*
X78434Y-54941D01*
X78977Y-55246D02*
X78920Y-55284D01*
X78806Y-55284D01*
X78748Y-55246D01*
X78720Y-55208D01*
X78691Y-55131D01*
X78691Y-54903D01*
X78720Y-54827D01*
X78748Y-54789D01*
X78806Y-54750D01*
X78920Y-54750D01*
X78977Y-54789D01*
X79148Y-54750D02*
X79377Y-54750D01*
X79234Y-54484D02*
X79234Y-55170D01*
X79262Y-55246D01*
X79320Y-55284D01*
X79377Y-55284D01*
X79834Y-54750D02*
X79834Y-55284D01*
X79577Y-54750D02*
X79577Y-55170D01*
X79605Y-55246D01*
X79663Y-55284D01*
X79748Y-55284D01*
X79805Y-55246D01*
X79834Y-55208D01*
X80120Y-55284D02*
X80120Y-54750D01*
X80120Y-54903D02*
X80148Y-54827D01*
X80177Y-54789D01*
X80234Y-54750D01*
X80291Y-54750D01*
X80491Y-55284D02*
X80491Y-54750D01*
X80491Y-54484D02*
X80462Y-54522D01*
X80491Y-54560D01*
X80519Y-54522D01*
X80491Y-54484D01*
X80491Y-54560D01*
X80777Y-54750D02*
X80777Y-55284D01*
X80777Y-54827D02*
X80805Y-54789D01*
X80863Y-54750D01*
X80948Y-54750D01*
X81005Y-54789D01*
X81034Y-54865D01*
X81034Y-55284D01*
X81577Y-54750D02*
X81577Y-55398D01*
X81548Y-55474D01*
X81520Y-55512D01*
X81463Y-55550D01*
X81377Y-55550D01*
X81320Y-55512D01*
X81577Y-55246D02*
X81520Y-55284D01*
X81406Y-55284D01*
X81348Y-55246D01*
X81320Y-55208D01*
X81291Y-55131D01*
X81291Y-54903D01*
X81320Y-54827D01*
X81348Y-54789D01*
X81406Y-54750D01*
X81520Y-54750D01*
X81577Y-54789D01*
X81863Y-55208D02*
X81891Y-55246D01*
X81863Y-55284D01*
X81834Y-55246D01*
X81863Y-55208D01*
X81863Y-55284D01*
X06165Y-16547D02*
X06136Y-16585D01*
X06050Y-16623D01*
X05993Y-16623D01*
X05908Y-16585D01*
X05850Y-16509D01*
X05822Y-16432D01*
X05793Y-16280D01*
X05793Y-16166D01*
X05822Y-16013D01*
X05850Y-15937D01*
X05908Y-15861D01*
X05993Y-15823D01*
X06050Y-15823D01*
X06136Y-15861D01*
X06165Y-15899D01*
X06679Y-16089D02*
X06679Y-16623D01*
X06422Y-16089D02*
X06422Y-16509D01*
X06450Y-16585D01*
X06508Y-16623D01*
X06593Y-16623D01*
X06650Y-16585D01*
X06679Y-16547D01*
X06965Y-16623D02*
X06965Y-16089D01*
X06965Y-16242D02*
X06993Y-16166D01*
X07022Y-16128D01*
X07079Y-16089D01*
X07136Y-16089D01*
X07336Y-16623D02*
X07336Y-16089D01*
X07336Y-16242D02*
X07364Y-16166D01*
X07393Y-16128D01*
X07450Y-16089D01*
X07507Y-16089D01*
X07935Y-16585D02*
X07878Y-16623D01*
X07764Y-16623D01*
X07707Y-16585D01*
X07678Y-16509D01*
X07678Y-16204D01*
X07707Y-16128D01*
X07764Y-16089D01*
X07878Y-16089D01*
X07935Y-16128D01*
X07964Y-16204D01*
X07964Y-16280D01*
X07678Y-16356D01*
X08221Y-16089D02*
X08221Y-16623D01*
X08221Y-16166D02*
X08249Y-16128D01*
X08307Y-16089D01*
X08392Y-16089D01*
X08449Y-16128D01*
X08478Y-16204D01*
X08478Y-16623D01*
X08678Y-16089D02*
X08907Y-16089D01*
X08764Y-15823D02*
X08764Y-16509D01*
X08792Y-16585D01*
X08850Y-16623D01*
X08907Y-16623D01*
X09193Y-16623D02*
X09135Y-16585D01*
X09107Y-16509D01*
X09107Y-15823D01*
X09364Y-16089D02*
X09507Y-16623D01*
X09649Y-16089D02*
X09507Y-16623D01*
X09449Y-16813D01*
X09421Y-16851D01*
X09364Y-16889D01*
X10306Y-16394D02*
X10592Y-16394D01*
X10249Y-16623D02*
X10449Y-15823D01*
X10649Y-16623D01*
X11106Y-16585D02*
X11049Y-16623D01*
X10935Y-16623D01*
X10877Y-16585D01*
X10849Y-16547D01*
X10820Y-16470D01*
X10820Y-16242D01*
X10849Y-16166D01*
X10877Y-16128D01*
X10935Y-16089D01*
X11049Y-16089D01*
X11106Y-16128D01*
X11277Y-16089D02*
X11506Y-16089D01*
X11363Y-15823D02*
X11363Y-16509D01*
X11391Y-16585D01*
X11449Y-16623D01*
X11506Y-16623D01*
X11706Y-16623D02*
X11706Y-16089D01*
X11706Y-15823D02*
X11677Y-15861D01*
X11706Y-15899D01*
X11734Y-15861D01*
X11706Y-15823D01*
X11706Y-15899D01*
X11935Y-16089D02*
X12078Y-16623D01*
X12220Y-16089D01*
X12677Y-16585D02*
X12620Y-16623D01*
X12506Y-16623D01*
X12449Y-16585D01*
X12420Y-16509D01*
X12420Y-16204D01*
X12449Y-16128D01*
X12506Y-16089D01*
X12620Y-16089D01*
X12677Y-16128D01*
X12706Y-16204D01*
X12706Y-16280D01*
X12420Y-16356D01*
X08079Y-17863D02*
X07793Y-17863D01*
X07793Y-17063D01*
X08536Y-17863D02*
X08536Y-17444D01*
X08507Y-17368D01*
X08450Y-17329D01*
X08336Y-17329D01*
X08279Y-17368D01*
X08536Y-17825D02*
X08479Y-17863D01*
X08336Y-17863D01*
X08279Y-17825D01*
X08250Y-17749D01*
X08250Y-17672D01*
X08279Y-17596D01*
X08336Y-17558D01*
X08479Y-17558D01*
X08536Y-17520D01*
X08765Y-17329D02*
X08908Y-17863D01*
X09050Y-17329D02*
X08908Y-17863D01*
X08850Y-18053D01*
X08822Y-18091D01*
X08765Y-18129D01*
X09507Y-17825D02*
X09450Y-17863D01*
X09336Y-17863D01*
X09279Y-17825D01*
X09250Y-17749D01*
X09250Y-17444D01*
X09279Y-17368D01*
X09336Y-17329D01*
X09450Y-17329D01*
X09507Y-17368D01*
X09536Y-17444D01*
X09536Y-17520D01*
X09250Y-17596D01*
X09793Y-17863D02*
X09793Y-17329D01*
X09793Y-17482D02*
X09821Y-17406D01*
X09850Y-17368D01*
X09907Y-17329D01*
X09964Y-17329D01*
X10335Y-18168D02*
X10307Y-18129D01*
X10250Y-18015D01*
X10221Y-17939D01*
X10192Y-17825D01*
X10164Y-17634D01*
X10164Y-17482D01*
X10192Y-17291D01*
X10221Y-17177D01*
X10250Y-17101D01*
X10307Y-16987D01*
X10335Y-16949D01*
X10535Y-17825D02*
X10592Y-17863D01*
X10707Y-17863D01*
X10764Y-17825D01*
X10792Y-17749D01*
X10792Y-17710D01*
X10764Y-17634D01*
X10707Y-17596D01*
X10621Y-17596D01*
X10564Y-17558D01*
X10535Y-17482D01*
X10535Y-17444D01*
X10564Y-17368D01*
X10621Y-17329D01*
X10707Y-17329D01*
X10764Y-17368D01*
X10993Y-18168D02*
X11021Y-18129D01*
X11078Y-18015D01*
X11107Y-17939D01*
X11136Y-17825D01*
X11164Y-17634D01*
X11164Y-17482D01*
X11136Y-17291D01*
X11107Y-17177D01*
X11078Y-17101D01*
X11021Y-16987D01*
X10993Y-16949D01*
X92693Y-11517D02*
X92779Y-11555D01*
X92922Y-11555D01*
X92979Y-11517D01*
X93008Y-11479D01*
X93036Y-11402D01*
X93036Y-11326D01*
X93008Y-11250D01*
X92979Y-11212D01*
X92922Y-11174D01*
X92808Y-11136D01*
X92750Y-11098D01*
X92722Y-11060D01*
X92693Y-10983D01*
X92693Y-10907D01*
X92722Y-10831D01*
X92750Y-10793D01*
X92808Y-10755D01*
X92950Y-10755D01*
X93036Y-10793D01*
X93207Y-11021D02*
X93436Y-11021D01*
X93293Y-10755D02*
X93293Y-11441D01*
X93321Y-11517D01*
X93379Y-11555D01*
X93436Y-11555D01*
X93893Y-11555D02*
X93893Y-11136D01*
X93864Y-11060D01*
X93807Y-11021D01*
X93693Y-11021D01*
X93636Y-11060D01*
X93893Y-11517D02*
X93836Y-11555D01*
X93693Y-11555D01*
X93636Y-11517D01*
X93607Y-11441D01*
X93607Y-11364D01*
X93636Y-11288D01*
X93693Y-11250D01*
X93836Y-11250D01*
X93893Y-11212D01*
X94436Y-11517D02*
X94379Y-11555D01*
X94265Y-11555D01*
X94207Y-11517D01*
X94179Y-11479D01*
X94150Y-11402D01*
X94150Y-11174D01*
X94179Y-11098D01*
X94207Y-11060D01*
X94265Y-11021D01*
X94379Y-11021D01*
X94436Y-11060D01*
X94693Y-11555D02*
X94693Y-10755D01*
X94750Y-11250D02*
X94921Y-11555D01*
X94921Y-11021D02*
X94693Y-11326D01*
X95436Y-11021D02*
X95436Y-11555D01*
X95179Y-11021D02*
X95179Y-11441D01*
X95207Y-11517D01*
X95265Y-11555D01*
X95350Y-11555D01*
X95407Y-11517D01*
X95436Y-11479D01*
X95722Y-11021D02*
X95722Y-11821D01*
X95722Y-11060D02*
X95779Y-11021D01*
X95893Y-11021D01*
X95950Y-11060D01*
X95979Y-11098D01*
X96008Y-11174D01*
X96008Y-11402D01*
X95979Y-11479D01*
X95950Y-11517D01*
X95893Y-11555D01*
X95779Y-11555D01*
X95722Y-11517D01*
X92264Y-12490D02*
X92721Y-12490D01*
X93007Y-12490D02*
X93464Y-12490D01*
X93750Y-12490D02*
X94207Y-12490D01*
X94493Y-12490D02*
X94950Y-12490D01*
X95236Y-12490D02*
X95693Y-12490D01*
X95979Y-12490D02*
X96436Y-12490D01*
X05751Y-35661D02*
X05722Y-35699D01*
X05636Y-35737D01*
X05579Y-35737D01*
X05494Y-35699D01*
X05436Y-35623D01*
X05408Y-35546D01*
X05379Y-35394D01*
X05379Y-35280D01*
X05408Y-35127D01*
X05436Y-35051D01*
X05494Y-34975D01*
X05579Y-34937D01*
X05636Y-34937D01*
X05722Y-34975D01*
X05751Y-35013D01*
X06094Y-35737D02*
X06036Y-35699D01*
X06008Y-35661D01*
X05979Y-35584D01*
X05979Y-35356D01*
X06008Y-35280D01*
X06036Y-35242D01*
X06094Y-35203D01*
X06179Y-35203D01*
X06236Y-35242D01*
X06265Y-35280D01*
X06294Y-35356D01*
X06294Y-35584D01*
X06265Y-35661D01*
X06236Y-35699D01*
X06179Y-35737D01*
X06094Y-35737D01*
X06551Y-35737D02*
X06551Y-35203D01*
X06551Y-35280D02*
X06579Y-35242D01*
X06637Y-35203D01*
X06722Y-35203D01*
X06779Y-35242D01*
X06808Y-35318D01*
X06808Y-35737D01*
X06808Y-35318D02*
X06837Y-35242D01*
X06894Y-35203D01*
X06979Y-35203D01*
X07037Y-35242D01*
X07065Y-35318D01*
X07065Y-35737D01*
X07351Y-35737D02*
X07351Y-35203D01*
X07351Y-35280D02*
X07379Y-35242D01*
X07437Y-35203D01*
X07522Y-35203D01*
X07579Y-35242D01*
X07608Y-35318D01*
X07608Y-35737D01*
X07608Y-35318D02*
X07637Y-35242D01*
X07694Y-35203D01*
X07779Y-35203D01*
X07837Y-35242D01*
X07865Y-35318D01*
X07865Y-35737D01*
X08379Y-35699D02*
X08322Y-35737D01*
X08208Y-35737D01*
X08151Y-35699D01*
X08122Y-35623D01*
X08122Y-35318D01*
X08151Y-35242D01*
X08208Y-35203D01*
X08322Y-35203D01*
X08379Y-35242D01*
X08408Y-35318D01*
X08408Y-35394D01*
X08122Y-35470D01*
X08665Y-35203D02*
X08665Y-35737D01*
X08665Y-35280D02*
X08693Y-35242D01*
X08751Y-35203D01*
X08836Y-35203D01*
X08893Y-35242D01*
X08922Y-35318D01*
X08922Y-35737D01*
X09122Y-35203D02*
X09351Y-35203D01*
X09208Y-34937D02*
X09208Y-35623D01*
X09236Y-35699D01*
X09294Y-35737D01*
X09351Y-35737D01*
X09522Y-35699D02*
X09579Y-35737D01*
X09694Y-35737D01*
X09751Y-35699D01*
X09779Y-35623D01*
X09779Y-35584D01*
X09751Y-35508D01*
X09694Y-35470D01*
X09608Y-35470D01*
X09551Y-35432D01*
X09522Y-35356D01*
X09522Y-35318D01*
X09551Y-35242D01*
X09608Y-35203D01*
X09694Y-35203D01*
X09751Y-35242D01*
X18087Y-58124D02*
X17801Y-58124D01*
X17772Y-58505D01*
X17801Y-58467D01*
X17858Y-58429D01*
X18001Y-58429D01*
X18058Y-58467D01*
X18087Y-58505D01*
X18115Y-58581D01*
X18115Y-58771D01*
X18087Y-58848D01*
X18058Y-58886D01*
X18001Y-58924D01*
X17858Y-58924D01*
X17801Y-58886D01*
X17772Y-58848D01*
X18286Y-58124D02*
X18486Y-58924D01*
X18686Y-58124D01*
X20065Y-55685D02*
X20436Y-55685D01*
X20236Y-55990D01*
X20322Y-55990D01*
X20379Y-56028D01*
X20408Y-56066D01*
X20436Y-56142D01*
X20436Y-56332D01*
X20408Y-56409D01*
X20379Y-56447D01*
X20322Y-56485D01*
X20150Y-56485D01*
X20093Y-56447D01*
X20065Y-56409D01*
X20607Y-55685D02*
X20807Y-56485D01*
X21007Y-55685D01*
X21150Y-55685D02*
X21521Y-55685D01*
X21321Y-55990D01*
X21407Y-55990D01*
X21464Y-56028D01*
X21493Y-56066D01*
X21521Y-56142D01*
X21521Y-56332D01*
X21493Y-56409D01*
X21464Y-56447D01*
X21407Y-56485D01*
X21235Y-56485D01*
X21178Y-56447D01*
X21150Y-56409D01*
X23173Y-61495D02*
X22830Y-61495D01*
X23002Y-61495D02*
X23002Y-60695D01*
X22945Y-60809D01*
X22887Y-60885D01*
X22830Y-60923D01*
X23344Y-60695D02*
X23544Y-61495D01*
X23744Y-60695D01*
X16550Y-15498D02*
X16264Y-15498D01*
X16235Y-15879D01*
X16264Y-15841D01*
X16321Y-15803D01*
X16464Y-15803D01*
X16521Y-15841D01*
X16550Y-15879D01*
X16578Y-15955D01*
X16578Y-16145D01*
X16550Y-16222D01*
X16521Y-16260D01*
X16464Y-16298D01*
X16321Y-16298D01*
X16264Y-16260D01*
X16235Y-16222D01*
X16749Y-15498D02*
X16949Y-16298D01*
X17149Y-15498D01*
X28165Y-15262D02*
X28536Y-15262D01*
X28336Y-15567D01*
X28422Y-15567D01*
X28479Y-15605D01*
X28508Y-15643D01*
X28536Y-15719D01*
X28536Y-15909D01*
X28508Y-15986D01*
X28479Y-16024D01*
X28422Y-16062D01*
X28250Y-16062D01*
X28193Y-16024D01*
X28165Y-15986D01*
X28707Y-15262D02*
X28907Y-16062D01*
X29107Y-15262D01*
X29250Y-15262D02*
X29621Y-15262D01*
X29421Y-15567D01*
X29507Y-15567D01*
X29564Y-15605D01*
X29593Y-15643D01*
X29621Y-15719D01*
X29621Y-15909D01*
X29593Y-15986D01*
X29564Y-16024D01*
X29507Y-16062D01*
X29335Y-16062D01*
X29278Y-16024D01*
X29250Y-15986D01*
X25830Y-19733D02*
X25487Y-19733D01*
X25659Y-19733D02*
X25659Y-18933D01*
X25602Y-19047D01*
X25544Y-19123D01*
X25487Y-19161D01*
X26001Y-18933D02*
X26201Y-19733D01*
X26401Y-18933D01*
X23982Y-21128D02*
X24353Y-21128D01*
X24153Y-21433D01*
X24239Y-21433D01*
X24296Y-21471D01*
X24325Y-21509D01*
X24353Y-21585D01*
X24353Y-21775D01*
X24325Y-21852D01*
X24296Y-21890D01*
X24239Y-21928D01*
X24067Y-21928D01*
X24010Y-21890D01*
X23982Y-21852D01*
X24524Y-21128D02*
X24724Y-21928D01*
X24924Y-21128D01*
X25067Y-21128D02*
X25438Y-21128D01*
X25238Y-21433D01*
X25324Y-21433D01*
X25381Y-21471D01*
X25410Y-21509D01*
X25438Y-21585D01*
X25438Y-21775D01*
X25410Y-21852D01*
X25381Y-21890D01*
X25324Y-21928D01*
X25152Y-21928D01*
X25095Y-21890D01*
X25067Y-21852D01*
X20842Y-34672D02*
X20556Y-34672D01*
X20527Y-35053D01*
X20556Y-35015D01*
X20613Y-34977D01*
X20756Y-34977D01*
X20813Y-35015D01*
X20842Y-35053D01*
X20870Y-35129D01*
X20870Y-35319D01*
X20842Y-35396D01*
X20813Y-35434D01*
X20756Y-35472D01*
X20613Y-35472D01*
X20556Y-35434D01*
X20527Y-35396D01*
X21041Y-34672D02*
X21241Y-35472D01*
X21441Y-34672D01*
X23980Y-38798D02*
X23637Y-38798D01*
X23809Y-38798D02*
X23809Y-37998D01*
X23752Y-38112D01*
X23694Y-38188D01*
X23637Y-38226D01*
X24151Y-37998D02*
X24351Y-38798D01*
X24551Y-37998D01*
X20213Y-46178D02*
X20584Y-46178D01*
X20384Y-46483D01*
X20470Y-46483D01*
X20527Y-46521D01*
X20556Y-46559D01*
X20584Y-46635D01*
X20584Y-46825D01*
X20556Y-46902D01*
X20527Y-46940D01*
X20470Y-46978D01*
X20298Y-46978D01*
X20241Y-46940D01*
X20213Y-46902D01*
X20755Y-46178D02*
X20955Y-46978D01*
X21155Y-46178D01*
X21298Y-46178D02*
X21669Y-46178D01*
X21469Y-46483D01*
X21555Y-46483D01*
X21612Y-46521D01*
X21641Y-46559D01*
X21669Y-46635D01*
X21669Y-46825D01*
X21641Y-46902D01*
X21612Y-46940D01*
X21555Y-46978D01*
X21383Y-46978D01*
X21326Y-46940D01*
X21298Y-46902D01*
X19789Y-40685D02*
X19503Y-40685D01*
X19474Y-41066D01*
X19503Y-41028D01*
X19560Y-40990D01*
X19703Y-40990D01*
X19760Y-41028D01*
X19789Y-41066D01*
X19817Y-41142D01*
X19817Y-41332D01*
X19789Y-41409D01*
X19760Y-41447D01*
X19703Y-41485D01*
X19560Y-41485D01*
X19503Y-41447D01*
X19474Y-41409D01*
X19988Y-40685D02*
X20188Y-41485D01*
X20388Y-40685D01*
X24698Y-44251D02*
X24355Y-44251D01*
X24527Y-44251D02*
X24527Y-43451D01*
X24470Y-43565D01*
X24412Y-43641D01*
X24355Y-43679D01*
X24869Y-43451D02*
X25069Y-44251D01*
X25269Y-43451D01*
X36610Y-39957D02*
X36981Y-39957D01*
X36781Y-40262D01*
X36867Y-40262D01*
X36924Y-40300D01*
X36953Y-40338D01*
X36981Y-40414D01*
X36981Y-40604D01*
X36953Y-40681D01*
X36924Y-40719D01*
X36867Y-40757D01*
X36695Y-40757D01*
X36638Y-40719D01*
X36610Y-40681D01*
X37152Y-39957D02*
X37352Y-40757D01*
X37552Y-39957D01*
X37695Y-39957D02*
X38066Y-39957D01*
X37866Y-40262D01*
X37952Y-40262D01*
X38009Y-40300D01*
X38038Y-40338D01*
X38066Y-40414D01*
X38066Y-40604D01*
X38038Y-40681D01*
X38009Y-40719D01*
X37952Y-40757D01*
X37780Y-40757D01*
X37723Y-40719D01*
X37695Y-40681D01*
X37238Y-44605D02*
X36895Y-44605D01*
X37067Y-44605D02*
X37067Y-43805D01*
X37010Y-43919D01*
X36952Y-43995D01*
X36895Y-44033D01*
X37409Y-43805D02*
X37609Y-44605D01*
X37809Y-43805D01*
X63596Y-51319D02*
X63596Y-50519D01*
X63596Y-50900D02*
X63939Y-50900D01*
X63939Y-51319D02*
X63939Y-50519D01*
X64311Y-51319D02*
X64253Y-51281D01*
X64225Y-51243D01*
X64196Y-51166D01*
X64196Y-50938D01*
X64225Y-50862D01*
X64253Y-50824D01*
X64311Y-50785D01*
X64396Y-50785D01*
X64453Y-50824D01*
X64482Y-50862D01*
X64511Y-50938D01*
X64511Y-51166D01*
X64482Y-51243D01*
X64453Y-51281D01*
X64396Y-51319D01*
X64311Y-51319D01*
X64854Y-51319D02*
X64796Y-51281D01*
X64768Y-51205D01*
X64768Y-50519D01*
X65310Y-51281D02*
X65253Y-51319D01*
X65139Y-51319D01*
X65082Y-51281D01*
X65053Y-51205D01*
X65053Y-50900D01*
X65082Y-50824D01*
X65139Y-50785D01*
X65253Y-50785D01*
X65310Y-50824D01*
X65339Y-50900D01*
X65339Y-50976D01*
X65053Y-51052D01*
X66024Y-51281D02*
X66081Y-51319D01*
X66196Y-51319D01*
X66253Y-51281D01*
X66281Y-51205D01*
X66281Y-51166D01*
X66253Y-51090D01*
X66196Y-51052D01*
X66110Y-51052D01*
X66053Y-51014D01*
X66024Y-50938D01*
X66024Y-50900D01*
X66053Y-50824D01*
X66110Y-50785D01*
X66196Y-50785D01*
X66253Y-50824D01*
X66539Y-51319D02*
X66539Y-50785D01*
X66539Y-50519D02*
X66510Y-50557D01*
X66539Y-50595D01*
X66567Y-50557D01*
X66539Y-50519D01*
X66539Y-50595D01*
X66768Y-50785D02*
X67082Y-50785D01*
X66768Y-51319D01*
X67082Y-51319D01*
X67539Y-51281D02*
X67482Y-51319D01*
X67368Y-51319D01*
X67311Y-51281D01*
X67282Y-51205D01*
X67282Y-50900D01*
X67311Y-50824D01*
X67368Y-50785D01*
X67482Y-50785D01*
X67539Y-50824D01*
X67568Y-50900D01*
X67568Y-50976D01*
X67282Y-51052D01*
X68282Y-51319D02*
X68282Y-50785D01*
X68282Y-50519D02*
X68253Y-50557D01*
X68282Y-50595D01*
X68310Y-50557D01*
X68282Y-50519D01*
X68282Y-50595D01*
X68539Y-51281D02*
X68596Y-51319D01*
X68711Y-51319D01*
X68768Y-51281D01*
X68796Y-51205D01*
X68796Y-51166D01*
X68768Y-51090D01*
X68711Y-51052D01*
X68625Y-51052D01*
X68568Y-51014D01*
X68539Y-50938D01*
X68539Y-50900D01*
X68568Y-50824D01*
X68625Y-50785D01*
X68711Y-50785D01*
X68768Y-50824D01*
X69425Y-50785D02*
X69654Y-50785D01*
X69511Y-51319D02*
X69511Y-50633D01*
X69539Y-50557D01*
X69597Y-50519D01*
X69654Y-50519D01*
X69854Y-51319D02*
X69854Y-50785D01*
X69854Y-50519D02*
X69825Y-50557D01*
X69854Y-50595D01*
X69882Y-50557D01*
X69854Y-50519D01*
X69854Y-50595D01*
X70140Y-50785D02*
X70140Y-51319D01*
X70140Y-50862D02*
X70168Y-50824D01*
X70226Y-50785D01*
X70311Y-50785D01*
X70368Y-50824D01*
X70397Y-50900D01*
X70397Y-51319D01*
X70683Y-51319D02*
X70683Y-50785D01*
X70683Y-50519D02*
X70654Y-50557D01*
X70683Y-50595D01*
X70711Y-50557D01*
X70683Y-50519D01*
X70683Y-50595D01*
X70940Y-51281D02*
X70997Y-51319D01*
X71112Y-51319D01*
X71169Y-51281D01*
X71197Y-51205D01*
X71197Y-51166D01*
X71169Y-51090D01*
X71112Y-51052D01*
X71026Y-51052D01*
X70969Y-51014D01*
X70940Y-50938D01*
X70940Y-50900D01*
X70969Y-50824D01*
X71026Y-50785D01*
X71112Y-50785D01*
X71169Y-50824D01*
X71455Y-51319D02*
X71455Y-50519D01*
X71712Y-51319D02*
X71712Y-50900D01*
X71683Y-50824D01*
X71626Y-50785D01*
X71541Y-50785D01*
X71483Y-50824D01*
X71455Y-50862D01*
X72226Y-51281D02*
X72169Y-51319D01*
X72055Y-51319D01*
X71998Y-51281D01*
X71969Y-51205D01*
X71969Y-50900D01*
X71998Y-50824D01*
X72055Y-50785D01*
X72169Y-50785D01*
X72226Y-50824D01*
X72255Y-50900D01*
X72255Y-50976D01*
X71969Y-51052D01*
X72769Y-51319D02*
X72769Y-50519D01*
X72769Y-51281D02*
X72712Y-51319D01*
X72598Y-51319D01*
X72540Y-51281D01*
X72512Y-51243D01*
X72483Y-51166D01*
X72483Y-50938D01*
X72512Y-50862D01*
X72540Y-50824D01*
X72598Y-50785D01*
X72712Y-50785D01*
X72769Y-50824D01*
X73483Y-51281D02*
X73540Y-51319D01*
X73655Y-51319D01*
X73712Y-51281D01*
X73740Y-51205D01*
X73740Y-51166D01*
X73712Y-51090D01*
X73655Y-51052D01*
X73569Y-51052D01*
X73512Y-51014D01*
X73483Y-50938D01*
X73483Y-50900D01*
X73512Y-50824D01*
X73569Y-50785D01*
X73655Y-50785D01*
X73712Y-50824D01*
X73998Y-51319D02*
X73998Y-50785D01*
X73998Y-50519D02*
X73969Y-50557D01*
X73998Y-50595D01*
X74026Y-50557D01*
X73998Y-50519D01*
X73998Y-50595D01*
X74227Y-50785D02*
X74541Y-50785D01*
X74227Y-51319D01*
X74541Y-51319D01*
X74998Y-51281D02*
X74941Y-51319D01*
X74827Y-51319D01*
X74770Y-51281D01*
X74741Y-51205D01*
X74741Y-50900D01*
X74770Y-50824D01*
X74827Y-50785D01*
X74941Y-50785D01*
X74998Y-50824D01*
X75027Y-50900D01*
X75027Y-50976D01*
X74741Y-51052D01*
X75284Y-51243D02*
X75312Y-51281D01*
X75284Y-51319D01*
X75255Y-51281D01*
X75284Y-51243D01*
X75284Y-51319D01*
X63570Y-49902D02*
X63570Y-49102D01*
X63713Y-49102D01*
X63798Y-49140D01*
X63856Y-49216D01*
X63884Y-49292D01*
X63913Y-49445D01*
X63913Y-49559D01*
X63884Y-49711D01*
X63856Y-49788D01*
X63798Y-49864D01*
X63713Y-49902D01*
X63570Y-49902D01*
X64170Y-49902D02*
X64170Y-49368D01*
X64170Y-49521D02*
X64198Y-49445D01*
X64227Y-49407D01*
X64284Y-49368D01*
X64341Y-49368D01*
X64541Y-49902D02*
X64541Y-49368D01*
X64541Y-49102D02*
X64512Y-49140D01*
X64541Y-49178D01*
X64569Y-49140D01*
X64541Y-49102D01*
X64541Y-49178D01*
X64913Y-49902D02*
X64855Y-49864D01*
X64827Y-49788D01*
X64827Y-49102D01*
X65227Y-49902D02*
X65169Y-49864D01*
X65141Y-49788D01*
X65141Y-49102D01*
X65912Y-49902D02*
X65912Y-49102D01*
X66055Y-49102D01*
X66140Y-49140D01*
X66198Y-49216D01*
X66226Y-49292D01*
X66255Y-49445D01*
X66255Y-49559D01*
X66226Y-49711D01*
X66198Y-49788D01*
X66140Y-49864D01*
X66055Y-49902D01*
X65912Y-49902D01*
X66769Y-49902D02*
X66769Y-49483D01*
X66740Y-49407D01*
X66683Y-49368D01*
X66569Y-49368D01*
X66512Y-49407D01*
X66769Y-49864D02*
X66712Y-49902D01*
X66569Y-49902D01*
X66512Y-49864D01*
X66483Y-49788D01*
X66483Y-49711D01*
X66512Y-49635D01*
X66569Y-49597D01*
X66712Y-49597D01*
X66769Y-49559D01*
X66969Y-49368D02*
X67198Y-49368D01*
X67055Y-49102D02*
X67055Y-49788D01*
X67083Y-49864D01*
X67141Y-49902D01*
X67198Y-49902D01*
X67655Y-49902D02*
X67655Y-49483D01*
X67626Y-49407D01*
X67569Y-49368D01*
X67455Y-49368D01*
X67398Y-49407D01*
X67655Y-49864D02*
X67598Y-49902D01*
X67455Y-49902D01*
X67398Y-49864D01*
X67369Y-49788D01*
X67369Y-49711D01*
X67398Y-49635D01*
X67455Y-49597D01*
X67598Y-49597D01*
X67655Y-49559D01*
X68398Y-49902D02*
X68398Y-49368D01*
X68398Y-49102D02*
X68369Y-49140D01*
X68398Y-49178D01*
X68426Y-49140D01*
X68398Y-49102D01*
X68398Y-49178D01*
X68655Y-49864D02*
X68712Y-49902D01*
X68827Y-49902D01*
X68884Y-49864D01*
X68912Y-49788D01*
X68912Y-49749D01*
X68884Y-49673D01*
X68827Y-49635D01*
X68741Y-49635D01*
X68684Y-49597D01*
X68655Y-49521D01*
X68655Y-49483D01*
X68684Y-49407D01*
X68741Y-49368D01*
X68827Y-49368D01*
X68884Y-49407D01*
X69627Y-49902D02*
X69627Y-49368D01*
X69627Y-49102D02*
X69598Y-49140D01*
X69627Y-49178D01*
X69655Y-49140D01*
X69627Y-49102D01*
X69627Y-49178D01*
X69913Y-49368D02*
X69913Y-49902D01*
X69913Y-49445D02*
X69941Y-49407D01*
X69999Y-49368D01*
X70084Y-49368D01*
X70141Y-49407D01*
X70170Y-49483D01*
X70170Y-49902D01*
X70913Y-49483D02*
X71113Y-49483D01*
X71199Y-49902D02*
X70913Y-49902D01*
X70913Y-49102D01*
X71199Y-49102D01*
X71399Y-49902D02*
X71713Y-49368D01*
X71399Y-49368D02*
X71713Y-49902D01*
X72199Y-49864D02*
X72142Y-49902D01*
X72028Y-49902D01*
X71970Y-49864D01*
X71942Y-49826D01*
X71913Y-49749D01*
X71913Y-49521D01*
X71942Y-49445D01*
X71970Y-49407D01*
X72028Y-49368D01*
X72142Y-49368D01*
X72199Y-49407D01*
X72684Y-49864D02*
X72627Y-49902D01*
X72513Y-49902D01*
X72456Y-49864D01*
X72427Y-49788D01*
X72427Y-49483D01*
X72456Y-49407D01*
X72513Y-49368D01*
X72627Y-49368D01*
X72684Y-49407D01*
X72713Y-49483D01*
X72713Y-49559D01*
X72427Y-49635D01*
X73056Y-49902D02*
X72998Y-49864D01*
X72970Y-49788D01*
X72970Y-49102D01*
X73370Y-49902D02*
X73312Y-49864D01*
X73284Y-49788D01*
X73284Y-49102D01*
X73684Y-49902D02*
X73626Y-49864D01*
X73598Y-49826D01*
X73569Y-49749D01*
X73569Y-49521D01*
X73598Y-49445D01*
X73626Y-49407D01*
X73684Y-49368D01*
X73769Y-49368D01*
X73826Y-49407D01*
X73855Y-49445D01*
X73884Y-49521D01*
X73884Y-49749D01*
X73855Y-49826D01*
X73826Y-49864D01*
X73769Y-49902D01*
X73684Y-49902D01*
X74141Y-49368D02*
X74141Y-49902D01*
X74141Y-49445D02*
X74169Y-49407D01*
X74227Y-49368D01*
X74312Y-49368D01*
X74369Y-49407D01*
X74398Y-49483D01*
X74398Y-49902D01*
X75055Y-49368D02*
X75284Y-49368D01*
X75141Y-49902D02*
X75141Y-49216D01*
X75169Y-49140D01*
X75227Y-49102D01*
X75284Y-49102D01*
X75570Y-49902D02*
X75512Y-49864D01*
X75484Y-49826D01*
X75455Y-49749D01*
X75455Y-49521D01*
X75484Y-49445D01*
X75512Y-49407D01*
X75570Y-49368D01*
X75655Y-49368D01*
X75712Y-49407D01*
X75741Y-49445D01*
X75770Y-49521D01*
X75770Y-49749D01*
X75741Y-49826D01*
X75712Y-49864D01*
X75655Y-49902D01*
X75570Y-49902D01*
X76027Y-49902D02*
X76027Y-49368D01*
X76027Y-49521D02*
X76055Y-49445D01*
X76084Y-49407D01*
X76141Y-49368D01*
X76198Y-49368D01*
X76398Y-49902D02*
X76398Y-49368D01*
X76398Y-49445D02*
X76426Y-49407D01*
X76484Y-49368D01*
X76569Y-49368D01*
X76626Y-49407D01*
X76655Y-49483D01*
X76655Y-49902D01*
X76655Y-49483D02*
X76684Y-49407D01*
X76741Y-49368D01*
X76826Y-49368D01*
X76884Y-49407D01*
X76912Y-49483D01*
X76912Y-49902D01*
X77455Y-49902D02*
X77455Y-49483D01*
X77426Y-49407D01*
X77369Y-49368D01*
X77255Y-49368D01*
X77198Y-49407D01*
X77455Y-49864D02*
X77398Y-49902D01*
X77255Y-49902D01*
X77198Y-49864D01*
X77169Y-49788D01*
X77169Y-49711D01*
X77198Y-49635D01*
X77255Y-49597D01*
X77398Y-49597D01*
X77455Y-49559D01*
X77655Y-49368D02*
X77884Y-49368D01*
X77741Y-49102D02*
X77741Y-49788D01*
X77769Y-49864D01*
X77827Y-49902D01*
X77884Y-49902D01*
X78112Y-49864D02*
X78112Y-49902D01*
X78084Y-49978D01*
X78055Y-50016D01*
X78827Y-49368D02*
X78827Y-49902D01*
X78827Y-49445D02*
X78855Y-49407D01*
X78913Y-49368D01*
X78998Y-49368D01*
X79055Y-49407D01*
X79084Y-49483D01*
X79084Y-49902D01*
X79456Y-49902D02*
X79398Y-49864D01*
X79370Y-49826D01*
X79341Y-49749D01*
X79341Y-49521D01*
X79370Y-49445D01*
X79398Y-49407D01*
X79456Y-49368D01*
X79541Y-49368D01*
X79598Y-49407D01*
X79627Y-49445D01*
X79656Y-49521D01*
X79656Y-49749D01*
X79627Y-49826D01*
X79598Y-49864D01*
X79541Y-49902D01*
X79456Y-49902D01*
X80313Y-49368D02*
X80627Y-49368D01*
X80313Y-49902D01*
X80627Y-49902D01*
X81084Y-49864D02*
X81027Y-49902D01*
X80913Y-49902D01*
X80856Y-49864D01*
X80827Y-49788D01*
X80827Y-49483D01*
X80856Y-49407D01*
X80913Y-49368D01*
X81027Y-49368D01*
X81084Y-49407D01*
X81113Y-49483D01*
X81113Y-49559D01*
X80827Y-49635D01*
X81370Y-49902D02*
X81370Y-49368D01*
X81370Y-49521D02*
X81398Y-49445D01*
X81427Y-49407D01*
X81484Y-49368D01*
X81541Y-49368D01*
X81827Y-49902D02*
X81769Y-49864D01*
X81741Y-49826D01*
X81712Y-49749D01*
X81712Y-49521D01*
X81741Y-49445D01*
X81769Y-49407D01*
X81827Y-49368D01*
X81912Y-49368D01*
X81969Y-49407D01*
X81998Y-49445D01*
X82027Y-49521D01*
X82027Y-49749D01*
X81998Y-49826D01*
X81969Y-49864D01*
X81912Y-49902D01*
X81827Y-49902D01*
X82712Y-49864D02*
X82769Y-49902D01*
X82884Y-49902D01*
X82941Y-49864D01*
X82969Y-49788D01*
X82969Y-49749D01*
X82941Y-49673D01*
X82884Y-49635D01*
X82798Y-49635D01*
X82741Y-49597D01*
X82712Y-49521D01*
X82712Y-49483D01*
X82741Y-49407D01*
X82798Y-49368D01*
X82884Y-49368D01*
X82941Y-49407D01*
X83484Y-49368D02*
X83484Y-49902D01*
X83227Y-49368D02*
X83227Y-49788D01*
X83255Y-49864D01*
X83313Y-49902D01*
X83398Y-49902D01*
X83455Y-49864D01*
X83484Y-49826D01*
X83770Y-49368D02*
X83770Y-50168D01*
X83770Y-49407D02*
X83827Y-49368D01*
X83941Y-49368D01*
X83998Y-49407D01*
X84027Y-49445D01*
X84056Y-49521D01*
X84056Y-49749D01*
X84027Y-49826D01*
X83998Y-49864D01*
X83941Y-49902D01*
X83827Y-49902D01*
X83770Y-49864D01*
X84313Y-49368D02*
X84313Y-50168D01*
X84313Y-49407D02*
X84370Y-49368D01*
X84484Y-49368D01*
X84541Y-49407D01*
X84570Y-49445D01*
X84599Y-49521D01*
X84599Y-49749D01*
X84570Y-49826D01*
X84541Y-49864D01*
X84484Y-49902D01*
X84370Y-49902D01*
X84313Y-49864D01*
X84856Y-49902D02*
X84856Y-49368D01*
X84856Y-49521D02*
X84884Y-49445D01*
X84913Y-49407D01*
X84970Y-49368D01*
X85027Y-49368D01*
X85455Y-49864D02*
X85398Y-49902D01*
X85284Y-49902D01*
X85227Y-49864D01*
X85198Y-49788D01*
X85198Y-49483D01*
X85227Y-49407D01*
X85284Y-49368D01*
X85398Y-49368D01*
X85455Y-49407D01*
X85484Y-49483D01*
X85484Y-49559D01*
X85198Y-49635D01*
X85712Y-49864D02*
X85769Y-49902D01*
X85884Y-49902D01*
X85941Y-49864D01*
X85969Y-49788D01*
X85969Y-49749D01*
X85941Y-49673D01*
X85884Y-49635D01*
X85798Y-49635D01*
X85741Y-49597D01*
X85712Y-49521D01*
X85712Y-49483D01*
X85741Y-49407D01*
X85798Y-49368D01*
X85884Y-49368D01*
X85941Y-49407D01*
X86198Y-49864D02*
X86255Y-49902D01*
X86370Y-49902D01*
X86427Y-49864D01*
X86455Y-49788D01*
X86455Y-49749D01*
X86427Y-49673D01*
X86370Y-49635D01*
X86284Y-49635D01*
X86227Y-49597D01*
X86198Y-49521D01*
X86198Y-49483D01*
X86227Y-49407D01*
X86284Y-49368D01*
X86370Y-49368D01*
X86427Y-49407D01*
X86713Y-49902D02*
X86713Y-49368D01*
X86713Y-49102D02*
X86684Y-49140D01*
X86713Y-49178D01*
X86741Y-49140D01*
X86713Y-49102D01*
X86713Y-49178D01*
X87085Y-49902D02*
X87027Y-49864D01*
X86999Y-49826D01*
X86970Y-49749D01*
X86970Y-49521D01*
X86999Y-49445D01*
X87027Y-49407D01*
X87085Y-49368D01*
X87170Y-49368D01*
X87227Y-49407D01*
X87256Y-49445D01*
X87285Y-49521D01*
X87285Y-49749D01*
X87256Y-49826D01*
X87227Y-49864D01*
X87170Y-49902D01*
X87085Y-49902D01*
X87542Y-49368D02*
X87542Y-49902D01*
X87542Y-49445D02*
X87570Y-49407D01*
X87628Y-49368D01*
X87713Y-49368D01*
X87770Y-49407D01*
X87799Y-49483D01*
X87799Y-49902D01*
X88113Y-49864D02*
X88113Y-49902D01*
X88085Y-49978D01*
X88056Y-50016D01*
X89085Y-49902D02*
X89085Y-49483D01*
X89056Y-49407D01*
X88999Y-49368D01*
X88885Y-49368D01*
X88828Y-49407D01*
X89085Y-49864D02*
X89028Y-49902D01*
X88885Y-49902D01*
X88828Y-49864D01*
X88799Y-49788D01*
X88799Y-49711D01*
X88828Y-49635D01*
X88885Y-49597D01*
X89028Y-49597D01*
X89085Y-49559D01*
X89371Y-49902D02*
X89371Y-49102D01*
X89371Y-49407D02*
X89428Y-49368D01*
X89542Y-49368D01*
X89599Y-49407D01*
X89628Y-49445D01*
X89657Y-49521D01*
X89657Y-49749D01*
X89628Y-49826D01*
X89599Y-49864D01*
X89542Y-49902D01*
X89428Y-49902D01*
X89371Y-49864D01*
X89885Y-49864D02*
X89942Y-49902D01*
X90057Y-49902D01*
X90114Y-49864D01*
X90142Y-49788D01*
X90142Y-49749D01*
X90114Y-49673D01*
X90057Y-49635D01*
X89971Y-49635D01*
X89914Y-49597D01*
X89885Y-49521D01*
X89885Y-49483D01*
X89914Y-49407D01*
X89971Y-49368D01*
X90057Y-49368D01*
X90114Y-49407D01*
X90486Y-49902D02*
X90428Y-49864D01*
X90400Y-49826D01*
X90371Y-49749D01*
X90371Y-49521D01*
X90400Y-49445D01*
X90428Y-49407D01*
X90486Y-49368D01*
X90571Y-49368D01*
X90628Y-49407D01*
X90657Y-49445D01*
X90686Y-49521D01*
X90686Y-49749D01*
X90657Y-49826D01*
X90628Y-49864D01*
X90571Y-49902D01*
X90486Y-49902D01*
X91029Y-49902D02*
X90971Y-49864D01*
X90943Y-49788D01*
X90943Y-49102D01*
X91514Y-49368D02*
X91514Y-49902D01*
X91257Y-49368D02*
X91257Y-49788D01*
X91285Y-49864D01*
X91343Y-49902D01*
X91428Y-49902D01*
X91485Y-49864D01*
X91514Y-49826D01*
X91714Y-49368D02*
X91943Y-49368D01*
X91800Y-49102D02*
X91800Y-49788D01*
X91828Y-49864D01*
X91886Y-49902D01*
X91943Y-49902D01*
X92371Y-49864D02*
X92314Y-49902D01*
X92200Y-49902D01*
X92143Y-49864D01*
X92114Y-49788D01*
X92114Y-49483D01*
X92143Y-49407D01*
X92200Y-49368D01*
X92314Y-49368D01*
X92371Y-49407D01*
X92400Y-49483D01*
X92400Y-49559D01*
X92114Y-49635D01*
X93371Y-49864D02*
X93314Y-49902D01*
X93200Y-49902D01*
X93142Y-49864D01*
X93114Y-49826D01*
X93085Y-49749D01*
X93085Y-49521D01*
X93114Y-49445D01*
X93142Y-49407D01*
X93200Y-49368D01*
X93314Y-49368D01*
X93371Y-49407D01*
X93714Y-49902D02*
X93656Y-49864D01*
X93628Y-49826D01*
X93599Y-49749D01*
X93599Y-49521D01*
X93628Y-49445D01*
X93656Y-49407D01*
X93714Y-49368D01*
X93799Y-49368D01*
X93856Y-49407D01*
X93885Y-49445D01*
X93914Y-49521D01*
X93914Y-49749D01*
X93885Y-49826D01*
X93856Y-49864D01*
X93799Y-49902D01*
X93714Y-49902D01*
X94257Y-49902D02*
X94199Y-49864D01*
X94171Y-49826D01*
X94142Y-49749D01*
X94142Y-49521D01*
X94171Y-49445D01*
X94199Y-49407D01*
X94257Y-49368D01*
X94342Y-49368D01*
X94399Y-49407D01*
X94428Y-49445D01*
X94457Y-49521D01*
X94457Y-49749D01*
X94428Y-49826D01*
X94399Y-49864D01*
X94342Y-49902D01*
X94257Y-49902D01*
X94714Y-49902D02*
X94714Y-49368D01*
X94714Y-49521D02*
X94742Y-49445D01*
X94771Y-49407D01*
X94828Y-49368D01*
X94885Y-49368D01*
X95342Y-49902D02*
X95342Y-49102D01*
X95342Y-49864D02*
X95285Y-49902D01*
X95171Y-49902D01*
X95113Y-49864D01*
X95085Y-49826D01*
X95056Y-49749D01*
X95056Y-49521D01*
X95085Y-49445D01*
X95113Y-49407D01*
X95171Y-49368D01*
X95285Y-49368D01*
X95342Y-49407D01*
X95628Y-49902D02*
X95628Y-49368D01*
X95628Y-49102D02*
X95599Y-49140D01*
X95628Y-49178D01*
X95656Y-49140D01*
X95628Y-49102D01*
X95628Y-49178D01*
X95914Y-49368D02*
X95914Y-49902D01*
X95914Y-49445D02*
X95942Y-49407D01*
X96000Y-49368D01*
X96085Y-49368D01*
X96142Y-49407D01*
X96171Y-49483D01*
X96171Y-49902D01*
X96714Y-49902D02*
X96714Y-49483D01*
X96685Y-49407D01*
X96628Y-49368D01*
X96514Y-49368D01*
X96457Y-49407D01*
X96714Y-49864D02*
X96657Y-49902D01*
X96514Y-49902D01*
X96457Y-49864D01*
X96428Y-49788D01*
X96428Y-49711D01*
X96457Y-49635D01*
X96514Y-49597D01*
X96657Y-49597D01*
X96714Y-49559D01*
X96914Y-49368D02*
X97143Y-49368D01*
X97000Y-49102D02*
X97000Y-49788D01*
X97028Y-49864D01*
X97086Y-49902D01*
X97143Y-49902D01*
X97571Y-49864D02*
X97514Y-49902D01*
X97400Y-49902D01*
X97343Y-49864D01*
X97314Y-49788D01*
X97314Y-49483D01*
X97343Y-49407D01*
X97400Y-49368D01*
X97514Y-49368D01*
X97571Y-49407D01*
X97600Y-49483D01*
X97600Y-49559D01*
X97314Y-49635D01*
X97828Y-49864D02*
X97885Y-49902D01*
X98000Y-49902D01*
X98057Y-49864D01*
X98085Y-49788D01*
X98085Y-49749D01*
X98057Y-49673D01*
X98000Y-49635D01*
X97914Y-49635D01*
X97857Y-49597D01*
X97828Y-49521D01*
X97828Y-49483D01*
X97857Y-49407D01*
X97914Y-49368D01*
X98000Y-49368D01*
X98057Y-49407D01*
X98343Y-49826D02*
X98371Y-49864D01*
X98343Y-49902D01*
X98314Y-49864D01*
X98343Y-49826D01*
X98343Y-49902D01*
X63442Y-47461D02*
X63442Y-46661D01*
X63585Y-46661D01*
X63670Y-46699D01*
X63728Y-46775D01*
X63756Y-46851D01*
X63785Y-47004D01*
X63785Y-47118D01*
X63756Y-47270D01*
X63728Y-47347D01*
X63670Y-47423D01*
X63585Y-47461D01*
X63442Y-47461D01*
X64042Y-47461D02*
X64042Y-46927D01*
X64042Y-47080D02*
X64070Y-47004D01*
X64099Y-46966D01*
X64156Y-46927D01*
X64213Y-46927D01*
X64413Y-47461D02*
X64413Y-46927D01*
X64413Y-46661D02*
X64384Y-46699D01*
X64413Y-46737D01*
X64441Y-46699D01*
X64413Y-46661D01*
X64413Y-46737D01*
X64785Y-47461D02*
X64727Y-47423D01*
X64699Y-47347D01*
X64699Y-46661D01*
X65099Y-47461D02*
X65041Y-47423D01*
X65013Y-47347D01*
X65013Y-46661D01*
X65784Y-47461D02*
X65784Y-46661D01*
X65927Y-46661D01*
X66012Y-46699D01*
X66070Y-46775D01*
X66098Y-46851D01*
X66127Y-47004D01*
X66127Y-47118D01*
X66098Y-47270D01*
X66070Y-47347D01*
X66012Y-47423D01*
X65927Y-47461D01*
X65784Y-47461D01*
X66641Y-47461D02*
X66641Y-47042D01*
X66612Y-46966D01*
X66555Y-46927D01*
X66441Y-46927D01*
X66384Y-46966D01*
X66641Y-47423D02*
X66584Y-47461D01*
X66441Y-47461D01*
X66384Y-47423D01*
X66355Y-47347D01*
X66355Y-47270D01*
X66384Y-47194D01*
X66441Y-47156D01*
X66584Y-47156D01*
X66641Y-47118D01*
X66841Y-46927D02*
X67070Y-46927D01*
X66927Y-46661D02*
X66927Y-47347D01*
X66955Y-47423D01*
X67013Y-47461D01*
X67070Y-47461D01*
X67527Y-47461D02*
X67527Y-47042D01*
X67498Y-46966D01*
X67441Y-46927D01*
X67327Y-46927D01*
X67270Y-46966D01*
X67527Y-47423D02*
X67470Y-47461D01*
X67327Y-47461D01*
X67270Y-47423D01*
X67241Y-47347D01*
X67241Y-47270D01*
X67270Y-47194D01*
X67327Y-47156D01*
X67470Y-47156D01*
X67527Y-47118D01*
X63027Y-48396D02*
X63484Y-48396D01*
X63770Y-48396D02*
X64227Y-48396D01*
X64513Y-48396D02*
X64970Y-48396D01*
X65256Y-48396D02*
X65713Y-48396D01*
X65999Y-48396D02*
X66456Y-48396D01*
X66742Y-48396D02*
X67199Y-48396D01*
X67485Y-48396D02*
X67942Y-48396D01*
X65104Y-44983D02*
X65075Y-45021D01*
X64989Y-45059D01*
X64932Y-45059D01*
X64847Y-45021D01*
X64789Y-44945D01*
X64761Y-44868D01*
X64732Y-44716D01*
X64732Y-44602D01*
X64761Y-44449D01*
X64789Y-44373D01*
X64847Y-44297D01*
X64932Y-44259D01*
X64989Y-44259D01*
X65075Y-44297D01*
X65104Y-44335D01*
X65447Y-45059D02*
X65389Y-45021D01*
X65361Y-44983D01*
X65332Y-44906D01*
X65332Y-44678D01*
X65361Y-44602D01*
X65389Y-44564D01*
X65447Y-44525D01*
X65532Y-44525D01*
X65589Y-44564D01*
X65618Y-44602D01*
X65647Y-44678D01*
X65647Y-44906D01*
X65618Y-44983D01*
X65589Y-45021D01*
X65532Y-45059D01*
X65447Y-45059D01*
X65990Y-45059D02*
X65932Y-45021D01*
X65904Y-44945D01*
X65904Y-44259D01*
X66304Y-45059D02*
X66246Y-45021D01*
X66218Y-44983D01*
X66189Y-44906D01*
X66189Y-44678D01*
X66218Y-44602D01*
X66246Y-44564D01*
X66304Y-44525D01*
X66389Y-44525D01*
X66446Y-44564D01*
X66475Y-44602D01*
X66504Y-44678D01*
X66504Y-44906D01*
X66475Y-44983D01*
X66446Y-45021D01*
X66389Y-45059D01*
X66304Y-45059D01*
X67018Y-44525D02*
X67018Y-45059D01*
X66761Y-44525D02*
X66761Y-44945D01*
X66789Y-45021D01*
X66847Y-45059D01*
X66932Y-45059D01*
X66989Y-45021D01*
X67018Y-44983D01*
X67304Y-45059D02*
X67304Y-44525D01*
X67304Y-44678D02*
X67332Y-44602D01*
X67361Y-44564D01*
X67418Y-44525D01*
X67475Y-44525D01*
X68075Y-44525D02*
X68189Y-45059D01*
X68303Y-44678D01*
X68418Y-45059D01*
X68532Y-44525D01*
X68761Y-45059D02*
X68761Y-44259D01*
X69018Y-45059D02*
X69018Y-44640D01*
X68989Y-44564D01*
X68932Y-44525D01*
X68847Y-44525D01*
X68789Y-44564D01*
X68761Y-44602D01*
X69304Y-45059D02*
X69304Y-44525D01*
X69304Y-44259D02*
X69275Y-44297D01*
X69304Y-44335D01*
X69332Y-44297D01*
X69304Y-44259D01*
X69304Y-44335D01*
X69504Y-44525D02*
X69733Y-44525D01*
X69590Y-44259D02*
X69590Y-44945D01*
X69618Y-45021D01*
X69676Y-45059D01*
X69733Y-45059D01*
X70161Y-45021D02*
X70104Y-45059D01*
X69990Y-45059D01*
X69933Y-45021D01*
X69904Y-44945D01*
X69904Y-44640D01*
X69933Y-44564D01*
X69990Y-44525D01*
X70104Y-44525D01*
X70161Y-44564D01*
X70190Y-44640D01*
X70190Y-44716D01*
X69904Y-44792D01*
X70447Y-44983D02*
X70475Y-45021D01*
X70447Y-45059D01*
X70418Y-45021D01*
X70447Y-44983D01*
X70447Y-45059D01*
X71161Y-45021D02*
X71247Y-45059D01*
X71390Y-45059D01*
X71447Y-45021D01*
X71476Y-44983D01*
X71504Y-44906D01*
X71504Y-44830D01*
X71476Y-44754D01*
X71447Y-44716D01*
X71390Y-44678D01*
X71276Y-44640D01*
X71218Y-44602D01*
X71190Y-44564D01*
X71161Y-44487D01*
X71161Y-44411D01*
X71190Y-44335D01*
X71218Y-44297D01*
X71276Y-44259D01*
X71418Y-44259D01*
X71504Y-44297D01*
X72018Y-44525D02*
X72018Y-45059D01*
X71761Y-44525D02*
X71761Y-44945D01*
X71789Y-45021D01*
X71847Y-45059D01*
X71932Y-45059D01*
X71989Y-45021D01*
X72018Y-44983D01*
X72304Y-44525D02*
X72304Y-45325D01*
X72304Y-44564D02*
X72361Y-44525D01*
X72475Y-44525D01*
X72532Y-44564D01*
X72561Y-44602D01*
X72590Y-44678D01*
X72590Y-44906D01*
X72561Y-44983D01*
X72532Y-45021D01*
X72475Y-45059D01*
X72361Y-45059D01*
X72304Y-45021D01*
X72847Y-44525D02*
X72847Y-45325D01*
X72847Y-44564D02*
X72904Y-44525D01*
X73018Y-44525D01*
X73075Y-44564D01*
X73104Y-44602D01*
X73133Y-44678D01*
X73133Y-44906D01*
X73104Y-44983D01*
X73075Y-45021D01*
X73018Y-45059D01*
X72904Y-45059D01*
X72847Y-45021D01*
X73476Y-45059D02*
X73418Y-45021D01*
X73390Y-44945D01*
X73390Y-44259D01*
X73704Y-45059D02*
X73704Y-44525D01*
X73704Y-44259D02*
X73675Y-44297D01*
X73704Y-44335D01*
X73732Y-44297D01*
X73704Y-44259D01*
X73704Y-44335D01*
X74218Y-45021D02*
X74161Y-45059D01*
X74047Y-45059D01*
X73990Y-45021D01*
X73961Y-44945D01*
X73961Y-44640D01*
X73990Y-44564D01*
X74047Y-44525D01*
X74161Y-44525D01*
X74218Y-44564D01*
X74247Y-44640D01*
X74247Y-44716D01*
X73961Y-44792D01*
X74504Y-45059D02*
X74504Y-44525D01*
X74504Y-44678D02*
X74532Y-44602D01*
X74561Y-44564D01*
X74618Y-44525D01*
X74675Y-44525D01*
X75303Y-45021D02*
X75360Y-45059D01*
X75475Y-45059D01*
X75532Y-45021D01*
X75560Y-44945D01*
X75560Y-44906D01*
X75532Y-44830D01*
X75475Y-44792D01*
X75389Y-44792D01*
X75332Y-44754D01*
X75303Y-44678D01*
X75303Y-44640D01*
X75332Y-44564D01*
X75389Y-44525D01*
X75475Y-44525D01*
X75532Y-44564D01*
X75818Y-45059D02*
X75818Y-44259D01*
X76075Y-45059D02*
X76075Y-44640D01*
X76046Y-44564D01*
X75989Y-44525D01*
X75904Y-44525D01*
X75846Y-44564D01*
X75818Y-44602D01*
X76447Y-45059D02*
X76389Y-45021D01*
X76361Y-44983D01*
X76332Y-44906D01*
X76332Y-44678D01*
X76361Y-44602D01*
X76389Y-44564D01*
X76447Y-44525D01*
X76532Y-44525D01*
X76589Y-44564D01*
X76618Y-44602D01*
X76647Y-44678D01*
X76647Y-44906D01*
X76618Y-44983D01*
X76589Y-45021D01*
X76532Y-45059D01*
X76447Y-45059D01*
X77161Y-44525D02*
X77161Y-45059D01*
X76904Y-44525D02*
X76904Y-44945D01*
X76932Y-45021D01*
X76990Y-45059D01*
X77075Y-45059D01*
X77132Y-45021D01*
X77161Y-44983D01*
X77533Y-45059D02*
X77475Y-45021D01*
X77447Y-44945D01*
X77447Y-44259D01*
X78018Y-45059D02*
X78018Y-44259D01*
X78018Y-45021D02*
X77961Y-45059D01*
X77847Y-45059D01*
X77789Y-45021D01*
X77761Y-44983D01*
X77732Y-44906D01*
X77732Y-44678D01*
X77761Y-44602D01*
X77789Y-44564D01*
X77847Y-44525D01*
X77961Y-44525D01*
X78018Y-44564D01*
X78761Y-45059D02*
X78761Y-44525D01*
X78761Y-44678D02*
X78789Y-44602D01*
X78818Y-44564D01*
X78875Y-44525D01*
X78932Y-44525D01*
X79360Y-45021D02*
X79303Y-45059D01*
X79189Y-45059D01*
X79132Y-45021D01*
X79103Y-44945D01*
X79103Y-44640D01*
X79132Y-44564D01*
X79189Y-44525D01*
X79303Y-44525D01*
X79360Y-44564D01*
X79389Y-44640D01*
X79389Y-44716D01*
X79103Y-44792D01*
X79646Y-45059D02*
X79646Y-44525D01*
X79646Y-44602D02*
X79674Y-44564D01*
X79732Y-44525D01*
X79817Y-44525D01*
X79874Y-44564D01*
X79903Y-44640D01*
X79903Y-45059D01*
X79903Y-44640D02*
X79932Y-44564D01*
X79989Y-44525D01*
X80074Y-44525D01*
X80132Y-44564D01*
X80160Y-44640D01*
X80160Y-45059D01*
X80532Y-45059D02*
X80474Y-45021D01*
X80446Y-44983D01*
X80417Y-44906D01*
X80417Y-44678D01*
X80446Y-44602D01*
X80474Y-44564D01*
X80532Y-44525D01*
X80617Y-44525D01*
X80674Y-44564D01*
X80703Y-44602D01*
X80732Y-44678D01*
X80732Y-44906D01*
X80703Y-44983D01*
X80674Y-45021D01*
X80617Y-45059D01*
X80532Y-45059D01*
X80932Y-44525D02*
X81075Y-45059D01*
X81217Y-44525D01*
X81674Y-45021D02*
X81617Y-45059D01*
X81503Y-45059D01*
X81446Y-45021D01*
X81417Y-44945D01*
X81417Y-44640D01*
X81446Y-44564D01*
X81503Y-44525D01*
X81617Y-44525D01*
X81674Y-44564D01*
X81703Y-44640D01*
X81703Y-44716D01*
X81417Y-44792D01*
X82674Y-45059D02*
X82674Y-44640D01*
X82645Y-44564D01*
X82588Y-44525D01*
X82474Y-44525D01*
X82417Y-44564D01*
X82674Y-45021D02*
X82617Y-45059D01*
X82474Y-45059D01*
X82417Y-45021D01*
X82388Y-44945D01*
X82388Y-44868D01*
X82417Y-44792D01*
X82474Y-44754D01*
X82617Y-44754D01*
X82674Y-44716D01*
X82960Y-44525D02*
X82960Y-45059D01*
X82960Y-44602D02*
X82988Y-44564D01*
X83046Y-44525D01*
X83131Y-44525D01*
X83188Y-44564D01*
X83217Y-44640D01*
X83217Y-45059D01*
X83446Y-44525D02*
X83589Y-45059D01*
X83731Y-44525D02*
X83589Y-45059D01*
X83531Y-45249D01*
X83503Y-45287D01*
X83446Y-45325D01*
X84388Y-45021D02*
X84445Y-45059D01*
X84560Y-45059D01*
X84617Y-45021D01*
X84645Y-44945D01*
X84645Y-44906D01*
X84617Y-44830D01*
X84560Y-44792D01*
X84474Y-44792D01*
X84417Y-44754D01*
X84388Y-44678D01*
X84388Y-44640D01*
X84417Y-44564D01*
X84474Y-44525D01*
X84560Y-44525D01*
X84617Y-44564D01*
X84903Y-45059D02*
X84903Y-44525D01*
X84903Y-44259D02*
X84874Y-44297D01*
X84903Y-44335D01*
X84931Y-44297D01*
X84903Y-44259D01*
X84903Y-44335D01*
X85275Y-45059D02*
X85217Y-45021D01*
X85189Y-44945D01*
X85189Y-44259D01*
X85503Y-45059D02*
X85503Y-44259D01*
X85560Y-44754D02*
X85731Y-45059D01*
X85731Y-44525D02*
X85503Y-44830D01*
X85960Y-45021D02*
X86017Y-45059D01*
X86132Y-45059D01*
X86189Y-45021D01*
X86217Y-44945D01*
X86217Y-44906D01*
X86189Y-44830D01*
X86132Y-44792D01*
X86046Y-44792D01*
X85989Y-44754D01*
X85960Y-44678D01*
X85960Y-44640D01*
X85989Y-44564D01*
X86046Y-44525D01*
X86132Y-44525D01*
X86189Y-44564D01*
X86732Y-45021D02*
X86675Y-45059D01*
X86561Y-45059D01*
X86503Y-45021D01*
X86475Y-44983D01*
X86446Y-44906D01*
X86446Y-44678D01*
X86475Y-44602D01*
X86503Y-44564D01*
X86561Y-44525D01*
X86675Y-44525D01*
X86732Y-44564D01*
X86989Y-45059D02*
X86989Y-44525D01*
X86989Y-44678D02*
X87017Y-44602D01*
X87046Y-44564D01*
X87103Y-44525D01*
X87160Y-44525D01*
X87588Y-45021D02*
X87531Y-45059D01*
X87417Y-45059D01*
X87360Y-45021D01*
X87331Y-44945D01*
X87331Y-44640D01*
X87360Y-44564D01*
X87417Y-44525D01*
X87531Y-44525D01*
X87588Y-44564D01*
X87617Y-44640D01*
X87617Y-44716D01*
X87331Y-44792D01*
X88102Y-45021D02*
X88045Y-45059D01*
X87931Y-45059D01*
X87874Y-45021D01*
X87845Y-44945D01*
X87845Y-44640D01*
X87874Y-44564D01*
X87931Y-44525D01*
X88045Y-44525D01*
X88102Y-44564D01*
X88131Y-44640D01*
X88131Y-44716D01*
X87845Y-44792D01*
X88388Y-44525D02*
X88388Y-45059D01*
X88388Y-44602D02*
X88416Y-44564D01*
X88474Y-44525D01*
X88559Y-44525D01*
X88616Y-44564D01*
X88645Y-44640D01*
X88645Y-45059D01*
X89331Y-44525D02*
X89445Y-45059D01*
X89559Y-44678D01*
X89674Y-45059D01*
X89788Y-44525D01*
X90017Y-45059D02*
X90017Y-44259D01*
X90274Y-45059D02*
X90274Y-44640D01*
X90245Y-44564D01*
X90188Y-44525D01*
X90103Y-44525D01*
X90045Y-44564D01*
X90017Y-44602D01*
X90560Y-45059D02*
X90560Y-44525D01*
X90560Y-44259D02*
X90531Y-44297D01*
X90560Y-44335D01*
X90588Y-44297D01*
X90560Y-44259D01*
X90560Y-44335D01*
X91103Y-45021D02*
X91046Y-45059D01*
X90932Y-45059D01*
X90874Y-45021D01*
X90846Y-44983D01*
X90817Y-44906D01*
X90817Y-44678D01*
X90846Y-44602D01*
X90874Y-44564D01*
X90932Y-44525D01*
X91046Y-44525D01*
X91103Y-44564D01*
X91360Y-45059D02*
X91360Y-44259D01*
X91617Y-45059D02*
X91617Y-44640D01*
X91588Y-44564D01*
X91531Y-44525D01*
X91446Y-44525D01*
X91388Y-44564D01*
X91360Y-44602D01*
X92446Y-45059D02*
X92388Y-45021D01*
X92360Y-44983D01*
X92331Y-44906D01*
X92331Y-44678D01*
X92360Y-44602D01*
X92388Y-44564D01*
X92446Y-44525D01*
X92531Y-44525D01*
X92588Y-44564D01*
X92617Y-44602D01*
X92646Y-44678D01*
X92646Y-44906D01*
X92617Y-44983D01*
X92588Y-45021D01*
X92531Y-45059D01*
X92446Y-45059D01*
X92846Y-44525D02*
X92989Y-45059D01*
X93131Y-44525D01*
X93588Y-45021D02*
X93531Y-45059D01*
X93417Y-45059D01*
X93360Y-45021D01*
X93331Y-44945D01*
X93331Y-44640D01*
X93360Y-44564D01*
X93417Y-44525D01*
X93531Y-44525D01*
X93588Y-44564D01*
X93617Y-44640D01*
X93617Y-44716D01*
X93331Y-44792D01*
X93874Y-45059D02*
X93874Y-44525D01*
X93874Y-44678D02*
X93902Y-44602D01*
X93931Y-44564D01*
X93988Y-44525D01*
X94045Y-44525D01*
X94245Y-45059D02*
X94245Y-44259D01*
X94502Y-45059D02*
X94502Y-44640D01*
X94473Y-44564D01*
X94416Y-44525D01*
X94331Y-44525D01*
X94273Y-44564D01*
X94245Y-44602D01*
X95045Y-45059D02*
X95045Y-44640D01*
X95016Y-44564D01*
X94959Y-44525D01*
X94845Y-44525D01*
X94788Y-44564D01*
X95045Y-45021D02*
X94988Y-45059D01*
X94845Y-45059D01*
X94788Y-45021D01*
X94759Y-44945D01*
X94759Y-44868D01*
X94788Y-44792D01*
X94845Y-44754D01*
X94988Y-44754D01*
X95045Y-44716D01*
X95331Y-44525D02*
X95331Y-45059D01*
X95331Y-44602D02*
X95359Y-44564D01*
X95417Y-44525D01*
X95502Y-44525D01*
X95559Y-44564D01*
X95588Y-44640D01*
X95588Y-45059D01*
X96131Y-45059D02*
X96131Y-44259D01*
X96131Y-45021D02*
X96074Y-45059D01*
X95960Y-45059D01*
X95902Y-45021D01*
X95874Y-44983D01*
X95845Y-44906D01*
X95845Y-44678D01*
X95874Y-44602D01*
X95902Y-44564D01*
X95960Y-44525D01*
X96074Y-44525D01*
X96131Y-44564D01*
X96388Y-45021D02*
X96445Y-45059D01*
X96560Y-45059D01*
X96617Y-45021D01*
X96645Y-44945D01*
X96645Y-44906D01*
X96617Y-44830D01*
X96560Y-44792D01*
X96474Y-44792D01*
X96417Y-44754D01*
X96388Y-44678D01*
X96388Y-44640D01*
X96417Y-44564D01*
X96474Y-44525D01*
X96560Y-44525D01*
X96617Y-44564D01*
X97360Y-44525D02*
X97360Y-45325D01*
X97360Y-44564D02*
X97417Y-44525D01*
X97531Y-44525D01*
X97588Y-44564D01*
X97617Y-44602D01*
X97646Y-44678D01*
X97646Y-44906D01*
X97617Y-44983D01*
X97588Y-45021D01*
X97531Y-45059D01*
X97417Y-45059D01*
X97360Y-45021D01*
X98160Y-45059D02*
X98160Y-44640D01*
X98131Y-44564D01*
X98074Y-44525D01*
X97960Y-44525D01*
X97903Y-44564D01*
X98160Y-45021D02*
X98103Y-45059D01*
X97960Y-45059D01*
X97903Y-45021D01*
X97874Y-44945D01*
X97874Y-44868D01*
X97903Y-44792D01*
X97960Y-44754D01*
X98103Y-44754D01*
X98160Y-44716D01*
X98703Y-45059D02*
X98703Y-44259D01*
X98703Y-45021D02*
X98646Y-45059D01*
X98532Y-45059D01*
X98474Y-45021D01*
X98446Y-44983D01*
X98417Y-44906D01*
X98417Y-44678D01*
X98446Y-44602D01*
X98474Y-44564D01*
X98532Y-44525D01*
X98646Y-44525D01*
X98703Y-44564D01*
X98960Y-45021D02*
X99017Y-45059D01*
X99132Y-45059D01*
X99189Y-45021D01*
X99217Y-44945D01*
X99217Y-44906D01*
X99189Y-44830D01*
X99132Y-44792D01*
X99046Y-44792D01*
X98989Y-44754D01*
X98960Y-44678D01*
X98960Y-44640D01*
X98989Y-44564D01*
X99046Y-44525D01*
X99132Y-44525D01*
X99189Y-44564D01*
X99475Y-44983D02*
X99503Y-45021D01*
X99475Y-45059D01*
X99446Y-45021D01*
X99475Y-44983D01*
X99475Y-45059D01*
X63266Y-43361D02*
X63352Y-43399D01*
X63380Y-43437D01*
X63409Y-43513D01*
X63409Y-43627D01*
X63380Y-43704D01*
X63352Y-43742D01*
X63294Y-43780D01*
X63066Y-43780D01*
X63066Y-42980D01*
X63266Y-42980D01*
X63323Y-43018D01*
X63352Y-43056D01*
X63380Y-43132D01*
X63380Y-43208D01*
X63352Y-43285D01*
X63323Y-43323D01*
X63266Y-43361D01*
X63066Y-43361D01*
X63666Y-43704D02*
X63694Y-43742D01*
X63666Y-43780D01*
X63637Y-43742D01*
X63666Y-43704D01*
X63666Y-43780D01*
X63895Y-44085D02*
X63923Y-44046D01*
X63980Y-43932D01*
X64009Y-43856D01*
X64038Y-43742D01*
X64066Y-43551D01*
X64066Y-43399D01*
X64038Y-43208D01*
X64009Y-43094D01*
X63980Y-43018D01*
X63923Y-42904D01*
X63895Y-42866D01*
X64780Y-43742D02*
X64866Y-43780D01*
X65009Y-43780D01*
X65066Y-43742D01*
X65095Y-43704D01*
X65123Y-43627D01*
X65123Y-43551D01*
X65095Y-43475D01*
X65066Y-43437D01*
X65009Y-43399D01*
X64895Y-43361D01*
X64837Y-43323D01*
X64809Y-43285D01*
X64780Y-43208D01*
X64780Y-43132D01*
X64809Y-43056D01*
X64837Y-43018D01*
X64895Y-42980D01*
X65037Y-42980D01*
X65123Y-43018D01*
X65380Y-43780D02*
X65380Y-43246D01*
X65380Y-42980D02*
X65351Y-43018D01*
X65380Y-43056D01*
X65408Y-43018D01*
X65380Y-42980D01*
X65380Y-43056D01*
X65752Y-43780D02*
X65694Y-43742D01*
X65666Y-43666D01*
X65666Y-42980D01*
X65980Y-43780D02*
X65980Y-42980D01*
X66037Y-43475D02*
X66208Y-43780D01*
X66208Y-43246D02*
X65980Y-43551D01*
X66437Y-43742D02*
X66494Y-43780D01*
X66609Y-43780D01*
X66666Y-43742D01*
X66694Y-43666D01*
X66694Y-43627D01*
X66666Y-43551D01*
X66609Y-43513D01*
X66523Y-43513D01*
X66466Y-43475D01*
X66437Y-43399D01*
X66437Y-43361D01*
X66466Y-43285D01*
X66523Y-43246D01*
X66609Y-43246D01*
X66666Y-43285D01*
X67209Y-43742D02*
X67152Y-43780D01*
X67038Y-43780D01*
X66980Y-43742D01*
X66952Y-43704D01*
X66923Y-43627D01*
X66923Y-43399D01*
X66952Y-43323D01*
X66980Y-43285D01*
X67038Y-43246D01*
X67152Y-43246D01*
X67209Y-43285D01*
X67466Y-43780D02*
X67466Y-43246D01*
X67466Y-43399D02*
X67494Y-43323D01*
X67523Y-43285D01*
X67580Y-43246D01*
X67637Y-43246D01*
X68065Y-43742D02*
X68008Y-43780D01*
X67894Y-43780D01*
X67837Y-43742D01*
X67808Y-43666D01*
X67808Y-43361D01*
X67837Y-43285D01*
X67894Y-43246D01*
X68008Y-43246D01*
X68065Y-43285D01*
X68094Y-43361D01*
X68094Y-43437D01*
X67808Y-43513D01*
X68579Y-43742D02*
X68522Y-43780D01*
X68408Y-43780D01*
X68351Y-43742D01*
X68322Y-43666D01*
X68322Y-43361D01*
X68351Y-43285D01*
X68408Y-43246D01*
X68522Y-43246D01*
X68579Y-43285D01*
X68608Y-43361D01*
X68608Y-43437D01*
X68322Y-43513D01*
X68865Y-43246D02*
X68865Y-43780D01*
X68865Y-43323D02*
X68893Y-43285D01*
X68951Y-43246D01*
X69036Y-43246D01*
X69093Y-43285D01*
X69122Y-43361D01*
X69122Y-43780D01*
X64653Y-41301D02*
X64739Y-41339D01*
X64882Y-41339D01*
X64939Y-41301D01*
X64968Y-41263D01*
X64996Y-41186D01*
X64996Y-41110D01*
X64968Y-41034D01*
X64939Y-40996D01*
X64882Y-40958D01*
X64768Y-40920D01*
X64710Y-40882D01*
X64682Y-40844D01*
X64653Y-40767D01*
X64653Y-40691D01*
X64682Y-40615D01*
X64710Y-40577D01*
X64768Y-40539D01*
X64910Y-40539D01*
X64996Y-40577D01*
X65510Y-40805D02*
X65510Y-41339D01*
X65253Y-40805D02*
X65253Y-41225D01*
X65281Y-41301D01*
X65339Y-41339D01*
X65424Y-41339D01*
X65481Y-41301D01*
X65510Y-41263D01*
X65796Y-40805D02*
X65796Y-41605D01*
X65796Y-40844D02*
X65853Y-40805D01*
X65967Y-40805D01*
X66024Y-40844D01*
X66053Y-40882D01*
X66082Y-40958D01*
X66082Y-41186D01*
X66053Y-41263D01*
X66024Y-41301D01*
X65967Y-41339D01*
X65853Y-41339D01*
X65796Y-41301D01*
X66339Y-40805D02*
X66339Y-41605D01*
X66339Y-40844D02*
X66396Y-40805D01*
X66510Y-40805D01*
X66567Y-40844D01*
X66596Y-40882D01*
X66625Y-40958D01*
X66625Y-41186D01*
X66596Y-41263D01*
X66567Y-41301D01*
X66510Y-41339D01*
X66396Y-41339D01*
X66339Y-41301D01*
X66968Y-41339D02*
X66910Y-41301D01*
X66882Y-41225D01*
X66882Y-40539D01*
X67196Y-41339D02*
X67196Y-40805D01*
X67196Y-40539D02*
X67167Y-40577D01*
X67196Y-40615D01*
X67224Y-40577D01*
X67196Y-40539D01*
X67196Y-40615D01*
X67710Y-41301D02*
X67653Y-41339D01*
X67539Y-41339D01*
X67482Y-41301D01*
X67453Y-41225D01*
X67453Y-40920D01*
X67482Y-40844D01*
X67539Y-40805D01*
X67653Y-40805D01*
X67710Y-40844D01*
X67739Y-40920D01*
X67739Y-40996D01*
X67453Y-41072D01*
X67996Y-41339D02*
X67996Y-40805D01*
X67996Y-40958D02*
X68024Y-40882D01*
X68053Y-40844D01*
X68110Y-40805D01*
X68167Y-40805D01*
X68795Y-41301D02*
X68852Y-41339D01*
X68967Y-41339D01*
X69024Y-41301D01*
X69052Y-41225D01*
X69052Y-41186D01*
X69024Y-41110D01*
X68967Y-41072D01*
X68881Y-41072D01*
X68824Y-41034D01*
X68795Y-40958D01*
X68795Y-40920D01*
X68824Y-40844D01*
X68881Y-40805D01*
X68967Y-40805D01*
X69024Y-40844D01*
X69310Y-41339D02*
X69310Y-40539D01*
X69567Y-41339D02*
X69567Y-40920D01*
X69538Y-40844D01*
X69481Y-40805D01*
X69396Y-40805D01*
X69338Y-40844D01*
X69310Y-40882D01*
X69939Y-41339D02*
X69881Y-41301D01*
X69853Y-41263D01*
X69824Y-41186D01*
X69824Y-40958D01*
X69853Y-40882D01*
X69881Y-40844D01*
X69939Y-40805D01*
X70024Y-40805D01*
X70081Y-40844D01*
X70110Y-40882D01*
X70139Y-40958D01*
X70139Y-41186D01*
X70110Y-41263D01*
X70081Y-41301D01*
X70024Y-41339D01*
X69939Y-41339D01*
X70653Y-40805D02*
X70653Y-41339D01*
X70396Y-40805D02*
X70396Y-41225D01*
X70424Y-41301D01*
X70482Y-41339D01*
X70567Y-41339D01*
X70624Y-41301D01*
X70653Y-41263D01*
X71025Y-41339D02*
X70967Y-41301D01*
X70939Y-41225D01*
X70939Y-40539D01*
X71510Y-41339D02*
X71510Y-40539D01*
X71510Y-41301D02*
X71453Y-41339D01*
X71339Y-41339D01*
X71281Y-41301D01*
X71253Y-41263D01*
X71224Y-41186D01*
X71224Y-40958D01*
X71253Y-40882D01*
X71281Y-40844D01*
X71339Y-40805D01*
X71453Y-40805D01*
X71510Y-40844D01*
X72339Y-41339D02*
X72281Y-41301D01*
X72253Y-41263D01*
X72224Y-41186D01*
X72224Y-40958D01*
X72253Y-40882D01*
X72281Y-40844D01*
X72339Y-40805D01*
X72424Y-40805D01*
X72481Y-40844D01*
X72510Y-40882D01*
X72539Y-40958D01*
X72539Y-41186D01*
X72510Y-41263D01*
X72481Y-41301D01*
X72424Y-41339D01*
X72339Y-41339D01*
X72739Y-40805D02*
X72882Y-41339D01*
X73024Y-40805D01*
X73481Y-41301D02*
X73424Y-41339D01*
X73310Y-41339D01*
X73253Y-41301D01*
X73224Y-41225D01*
X73224Y-40920D01*
X73253Y-40844D01*
X73310Y-40805D01*
X73424Y-40805D01*
X73481Y-40844D01*
X73510Y-40920D01*
X73510Y-40996D01*
X73224Y-41072D01*
X73767Y-41339D02*
X73767Y-40805D01*
X73767Y-40958D02*
X73795Y-40882D01*
X73824Y-40844D01*
X73881Y-40805D01*
X73938Y-40805D01*
X74109Y-41301D02*
X74166Y-41339D01*
X74281Y-41339D01*
X74338Y-41301D01*
X74366Y-41225D01*
X74366Y-41186D01*
X74338Y-41110D01*
X74281Y-41072D01*
X74195Y-41072D01*
X74138Y-41034D01*
X74109Y-40958D01*
X74109Y-40920D01*
X74138Y-40844D01*
X74195Y-40805D01*
X74281Y-40805D01*
X74338Y-40844D01*
X74624Y-41339D02*
X74624Y-40805D01*
X74624Y-40539D02*
X74595Y-40577D01*
X74624Y-40615D01*
X74652Y-40577D01*
X74624Y-40539D01*
X74624Y-40615D01*
X74853Y-40805D02*
X75167Y-40805D01*
X74853Y-41339D01*
X75167Y-41339D01*
X75624Y-41301D02*
X75567Y-41339D01*
X75453Y-41339D01*
X75396Y-41301D01*
X75367Y-41225D01*
X75367Y-40920D01*
X75396Y-40844D01*
X75453Y-40805D01*
X75567Y-40805D01*
X75624Y-40844D01*
X75653Y-40920D01*
X75653Y-40996D01*
X75367Y-41072D01*
X76338Y-41301D02*
X76395Y-41339D01*
X76510Y-41339D01*
X76567Y-41301D01*
X76595Y-41225D01*
X76595Y-41186D01*
X76567Y-41110D01*
X76510Y-41072D01*
X76424Y-41072D01*
X76367Y-41034D01*
X76338Y-40958D01*
X76338Y-40920D01*
X76367Y-40844D01*
X76424Y-40805D01*
X76510Y-40805D01*
X76567Y-40844D01*
X76939Y-41339D02*
X76881Y-41301D01*
X76853Y-41263D01*
X76824Y-41186D01*
X76824Y-40958D01*
X76853Y-40882D01*
X76881Y-40844D01*
X76939Y-40805D01*
X77024Y-40805D01*
X77081Y-40844D01*
X77110Y-40882D01*
X77139Y-40958D01*
X77139Y-41186D01*
X77110Y-41263D01*
X77081Y-41301D01*
X77024Y-41339D01*
X76939Y-41339D01*
X77482Y-41339D02*
X77424Y-41301D01*
X77396Y-41225D01*
X77396Y-40539D01*
X77967Y-41339D02*
X77967Y-40539D01*
X77967Y-41301D02*
X77910Y-41339D01*
X77796Y-41339D01*
X77738Y-41301D01*
X77710Y-41263D01*
X77681Y-41186D01*
X77681Y-40958D01*
X77710Y-40882D01*
X77738Y-40844D01*
X77796Y-40805D01*
X77910Y-40805D01*
X77967Y-40844D01*
X78481Y-41301D02*
X78424Y-41339D01*
X78310Y-41339D01*
X78253Y-41301D01*
X78224Y-41225D01*
X78224Y-40920D01*
X78253Y-40844D01*
X78310Y-40805D01*
X78424Y-40805D01*
X78481Y-40844D01*
X78510Y-40920D01*
X78510Y-40996D01*
X78224Y-41072D01*
X78767Y-41339D02*
X78767Y-40805D01*
X78767Y-40958D02*
X78795Y-40882D01*
X78824Y-40844D01*
X78881Y-40805D01*
X78938Y-40805D01*
X79138Y-41339D02*
X79138Y-40805D01*
X79138Y-40882D02*
X79166Y-40844D01*
X79224Y-40805D01*
X79309Y-40805D01*
X79366Y-40844D01*
X79395Y-40920D01*
X79395Y-41339D01*
X79395Y-40920D02*
X79424Y-40844D01*
X79481Y-40805D01*
X79566Y-40805D01*
X79624Y-40844D01*
X79652Y-40920D01*
X79652Y-41339D01*
X80195Y-41339D02*
X80195Y-40920D01*
X80166Y-40844D01*
X80109Y-40805D01*
X79995Y-40805D01*
X79938Y-40844D01*
X80195Y-41301D02*
X80138Y-41339D01*
X79995Y-41339D01*
X79938Y-41301D01*
X79909Y-41225D01*
X79909Y-41148D01*
X79938Y-41072D01*
X79995Y-41034D01*
X80138Y-41034D01*
X80195Y-40996D01*
X80452Y-41301D02*
X80509Y-41339D01*
X80624Y-41339D01*
X80681Y-41301D01*
X80709Y-41225D01*
X80709Y-41186D01*
X80681Y-41110D01*
X80624Y-41072D01*
X80538Y-41072D01*
X80481Y-41034D01*
X80452Y-40958D01*
X80452Y-40920D01*
X80481Y-40844D01*
X80538Y-40805D01*
X80624Y-40805D01*
X80681Y-40844D01*
X80967Y-41339D02*
X80967Y-40539D01*
X81024Y-41034D02*
X81195Y-41339D01*
X81195Y-40805D02*
X80967Y-41110D01*
X81996Y-41339D02*
X81938Y-41301D01*
X81910Y-41263D01*
X81881Y-41186D01*
X81881Y-40958D01*
X81910Y-40882D01*
X81938Y-40844D01*
X81996Y-40805D01*
X82081Y-40805D01*
X82138Y-40844D01*
X82167Y-40882D01*
X82196Y-40958D01*
X82196Y-41186D01*
X82167Y-41263D01*
X82138Y-41301D01*
X82081Y-41339D01*
X81996Y-41339D01*
X82453Y-40805D02*
X82453Y-41339D01*
X82453Y-40882D02*
X82481Y-40844D01*
X82539Y-40805D01*
X82624Y-40805D01*
X82681Y-40844D01*
X82710Y-40920D01*
X82710Y-41339D01*
X83453Y-40805D02*
X83453Y-41605D01*
X83453Y-40844D02*
X83510Y-40805D01*
X83624Y-40805D01*
X83681Y-40844D01*
X83710Y-40882D01*
X83739Y-40958D01*
X83739Y-41186D01*
X83710Y-41263D01*
X83681Y-41301D01*
X83624Y-41339D01*
X83510Y-41339D01*
X83453Y-41301D01*
X84253Y-41339D02*
X84253Y-40920D01*
X84224Y-40844D01*
X84167Y-40805D01*
X84053Y-40805D01*
X83996Y-40844D01*
X84253Y-41301D02*
X84196Y-41339D01*
X84053Y-41339D01*
X83996Y-41301D01*
X83967Y-41225D01*
X83967Y-41148D01*
X83996Y-41072D01*
X84053Y-41034D01*
X84196Y-41034D01*
X84253Y-40996D01*
X84796Y-41339D02*
X84796Y-40539D01*
X84796Y-41301D02*
X84739Y-41339D01*
X84625Y-41339D01*
X84567Y-41301D01*
X84539Y-41263D01*
X84510Y-41186D01*
X84510Y-40958D01*
X84539Y-40882D01*
X84567Y-40844D01*
X84625Y-40805D01*
X84739Y-40805D01*
X84796Y-40844D01*
X85053Y-41301D02*
X85110Y-41339D01*
X85225Y-41339D01*
X85282Y-41301D01*
X85310Y-41225D01*
X85310Y-41186D01*
X85282Y-41110D01*
X85225Y-41072D01*
X85139Y-41072D01*
X85082Y-41034D01*
X85053Y-40958D01*
X85053Y-40920D01*
X85082Y-40844D01*
X85139Y-40805D01*
X85225Y-40805D01*
X85282Y-40844D01*
X85939Y-40805D02*
X86168Y-40805D01*
X86025Y-40539D02*
X86025Y-41225D01*
X86053Y-41301D01*
X86111Y-41339D01*
X86168Y-41339D01*
X86454Y-41339D02*
X86396Y-41301D01*
X86368Y-41263D01*
X86339Y-41186D01*
X86339Y-40958D01*
X86368Y-40882D01*
X86396Y-40844D01*
X86454Y-40805D01*
X86539Y-40805D01*
X86596Y-40844D01*
X86625Y-40882D01*
X86654Y-40958D01*
X86654Y-41186D01*
X86625Y-41263D01*
X86596Y-41301D01*
X86539Y-41339D01*
X86454Y-41339D01*
X87339Y-41301D02*
X87396Y-41339D01*
X87511Y-41339D01*
X87568Y-41301D01*
X87596Y-41225D01*
X87596Y-41186D01*
X87568Y-41110D01*
X87511Y-41072D01*
X87425Y-41072D01*
X87368Y-41034D01*
X87339Y-40958D01*
X87339Y-40920D01*
X87368Y-40844D01*
X87425Y-40805D01*
X87511Y-40805D01*
X87568Y-40844D01*
X88111Y-40805D02*
X88111Y-41339D01*
X87854Y-40805D02*
X87854Y-41225D01*
X87882Y-41301D01*
X87940Y-41339D01*
X88025Y-41339D01*
X88082Y-41301D01*
X88111Y-41263D01*
X88397Y-41339D02*
X88397Y-40805D01*
X88397Y-40539D02*
X88368Y-40577D01*
X88397Y-40615D01*
X88425Y-40577D01*
X88397Y-40539D01*
X88397Y-40615D01*
X88597Y-40805D02*
X88826Y-40805D01*
X88683Y-40539D02*
X88683Y-41225D01*
X88711Y-41301D01*
X88769Y-41339D01*
X88826Y-41339D01*
X89483Y-40805D02*
X89483Y-41605D01*
X89483Y-40844D02*
X89540Y-40805D01*
X89654Y-40805D01*
X89711Y-40844D01*
X89740Y-40882D01*
X89769Y-40958D01*
X89769Y-41186D01*
X89740Y-41263D01*
X89711Y-41301D01*
X89654Y-41339D01*
X89540Y-41339D01*
X89483Y-41301D01*
X90026Y-41339D02*
X90026Y-40805D01*
X90026Y-40958D02*
X90054Y-40882D01*
X90083Y-40844D01*
X90140Y-40805D01*
X90197Y-40805D01*
X90483Y-41339D02*
X90425Y-41301D01*
X90397Y-41263D01*
X90368Y-41186D01*
X90368Y-40958D01*
X90397Y-40882D01*
X90425Y-40844D01*
X90483Y-40805D01*
X90568Y-40805D01*
X90625Y-40844D01*
X90654Y-40882D01*
X90683Y-40958D01*
X90683Y-41186D01*
X90654Y-41263D01*
X90625Y-41301D01*
X90568Y-41339D01*
X90483Y-41339D01*
X91197Y-41301D02*
X91140Y-41339D01*
X91026Y-41339D01*
X90968Y-41301D01*
X90940Y-41263D01*
X90911Y-41186D01*
X90911Y-40958D01*
X90940Y-40882D01*
X90968Y-40844D01*
X91026Y-40805D01*
X91140Y-40805D01*
X91197Y-40844D01*
X91682Y-41301D02*
X91625Y-41339D01*
X91511Y-41339D01*
X91454Y-41301D01*
X91425Y-41225D01*
X91425Y-40920D01*
X91454Y-40844D01*
X91511Y-40805D01*
X91625Y-40805D01*
X91682Y-40844D01*
X91711Y-40920D01*
X91711Y-40996D01*
X91425Y-41072D01*
X91939Y-41301D02*
X91996Y-41339D01*
X92111Y-41339D01*
X92168Y-41301D01*
X92196Y-41225D01*
X92196Y-41186D01*
X92168Y-41110D01*
X92111Y-41072D01*
X92025Y-41072D01*
X91968Y-41034D01*
X91939Y-40958D01*
X91939Y-40920D01*
X91968Y-40844D01*
X92025Y-40805D01*
X92111Y-40805D01*
X92168Y-40844D01*
X92425Y-41301D02*
X92482Y-41339D01*
X92597Y-41339D01*
X92654Y-41301D01*
X92682Y-41225D01*
X92682Y-41186D01*
X92654Y-41110D01*
X92597Y-41072D01*
X92511Y-41072D01*
X92454Y-41034D01*
X92425Y-40958D01*
X92425Y-40920D01*
X92454Y-40844D01*
X92511Y-40805D01*
X92597Y-40805D01*
X92654Y-40844D01*
X92940Y-41263D02*
X92968Y-41301D01*
X92940Y-41339D01*
X92911Y-41301D01*
X92940Y-41263D01*
X92940Y-41339D01*
X64976Y-40098D02*
X64690Y-40098D01*
X64690Y-39298D01*
X65176Y-40098D02*
X65176Y-39564D01*
X65176Y-39298D02*
X65147Y-39336D01*
X65176Y-39374D01*
X65204Y-39336D01*
X65176Y-39298D01*
X65176Y-39374D01*
X65719Y-39564D02*
X65719Y-40364D01*
X65719Y-40060D02*
X65662Y-40098D01*
X65548Y-40098D01*
X65490Y-40060D01*
X65462Y-40022D01*
X65433Y-39945D01*
X65433Y-39717D01*
X65462Y-39641D01*
X65490Y-39603D01*
X65548Y-39564D01*
X65662Y-39564D01*
X65719Y-39603D01*
X66262Y-39564D02*
X66262Y-40098D01*
X66005Y-39564D02*
X66005Y-39984D01*
X66033Y-40060D01*
X66091Y-40098D01*
X66176Y-40098D01*
X66233Y-40060D01*
X66262Y-40022D01*
X66548Y-40098D02*
X66548Y-39564D01*
X66548Y-39298D02*
X66519Y-39336D01*
X66548Y-39374D01*
X66576Y-39336D01*
X66548Y-39298D01*
X66548Y-39374D01*
X67091Y-40098D02*
X67091Y-39298D01*
X67091Y-40060D02*
X67034Y-40098D01*
X66920Y-40098D01*
X66862Y-40060D01*
X66834Y-40022D01*
X66805Y-39945D01*
X66805Y-39717D01*
X66834Y-39641D01*
X66862Y-39603D01*
X66920Y-39564D01*
X67034Y-39564D01*
X67091Y-39603D01*
X67834Y-39564D02*
X67834Y-40364D01*
X67834Y-39603D02*
X67891Y-39564D01*
X68005Y-39564D01*
X68062Y-39603D01*
X68091Y-39641D01*
X68120Y-39717D01*
X68120Y-39945D01*
X68091Y-40022D01*
X68062Y-40060D01*
X68005Y-40098D01*
X67891Y-40098D01*
X67834Y-40060D01*
X68377Y-40098D02*
X68377Y-39298D01*
X68634Y-40098D02*
X68634Y-39679D01*
X68605Y-39603D01*
X68548Y-39564D01*
X68463Y-39564D01*
X68405Y-39603D01*
X68377Y-39641D01*
X69006Y-40098D02*
X68948Y-40060D01*
X68920Y-40022D01*
X68891Y-39945D01*
X68891Y-39717D01*
X68920Y-39641D01*
X68948Y-39603D01*
X69006Y-39564D01*
X69091Y-39564D01*
X69148Y-39603D01*
X69177Y-39641D01*
X69206Y-39717D01*
X69206Y-39945D01*
X69177Y-40022D01*
X69148Y-40060D01*
X69091Y-40098D01*
X69006Y-40098D01*
X69377Y-39564D02*
X69606Y-39564D01*
X69463Y-39298D02*
X69463Y-39984D01*
X69491Y-40060D01*
X69549Y-40098D01*
X69606Y-40098D01*
X69892Y-40098D02*
X69834Y-40060D01*
X69806Y-40022D01*
X69777Y-39945D01*
X69777Y-39717D01*
X69806Y-39641D01*
X69834Y-39603D01*
X69892Y-39564D01*
X69977Y-39564D01*
X70034Y-39603D01*
X70063Y-39641D01*
X70092Y-39717D01*
X70092Y-39945D01*
X70063Y-40022D01*
X70034Y-40060D01*
X69977Y-40098D01*
X69892Y-40098D01*
X70806Y-40098D02*
X70806Y-39564D01*
X70806Y-39298D02*
X70777Y-39336D01*
X70806Y-39374D01*
X70834Y-39336D01*
X70806Y-39298D01*
X70806Y-39374D01*
X71092Y-40098D02*
X71092Y-39564D01*
X71092Y-39641D02*
X71120Y-39603D01*
X71178Y-39564D01*
X71263Y-39564D01*
X71320Y-39603D01*
X71349Y-39679D01*
X71349Y-40098D01*
X71349Y-39679D02*
X71378Y-39603D01*
X71435Y-39564D01*
X71520Y-39564D01*
X71578Y-39603D01*
X71606Y-39679D01*
X71606Y-40098D01*
X72149Y-40098D02*
X72149Y-39679D01*
X72120Y-39603D01*
X72063Y-39564D01*
X71949Y-39564D01*
X71892Y-39603D01*
X72149Y-40060D02*
X72092Y-40098D01*
X71949Y-40098D01*
X71892Y-40060D01*
X71863Y-39984D01*
X71863Y-39907D01*
X71892Y-39831D01*
X71949Y-39793D01*
X72092Y-39793D01*
X72149Y-39755D01*
X72692Y-39564D02*
X72692Y-40212D01*
X72663Y-40288D01*
X72635Y-40326D01*
X72578Y-40364D01*
X72492Y-40364D01*
X72435Y-40326D01*
X72692Y-40060D02*
X72635Y-40098D01*
X72521Y-40098D01*
X72463Y-40060D01*
X72435Y-40022D01*
X72406Y-39945D01*
X72406Y-39717D01*
X72435Y-39641D01*
X72463Y-39603D01*
X72521Y-39564D01*
X72635Y-39564D01*
X72692Y-39603D01*
X73206Y-40060D02*
X73149Y-40098D01*
X73035Y-40098D01*
X72978Y-40060D01*
X72949Y-39984D01*
X72949Y-39679D01*
X72978Y-39603D01*
X73035Y-39564D01*
X73149Y-39564D01*
X73206Y-39603D01*
X73235Y-39679D01*
X73235Y-39755D01*
X72949Y-39831D01*
X73749Y-40098D02*
X73749Y-39679D01*
X73720Y-39603D01*
X73663Y-39564D01*
X73549Y-39564D01*
X73492Y-39603D01*
X73749Y-40060D02*
X73692Y-40098D01*
X73549Y-40098D01*
X73492Y-40060D01*
X73463Y-39984D01*
X73463Y-39907D01*
X73492Y-39831D01*
X73549Y-39793D01*
X73692Y-39793D01*
X73749Y-39755D01*
X74035Y-40098D02*
X74035Y-39298D01*
X74035Y-39603D02*
X74092Y-39564D01*
X74206Y-39564D01*
X74263Y-39603D01*
X74292Y-39641D01*
X74321Y-39717D01*
X74321Y-39945D01*
X74292Y-40022D01*
X74263Y-40060D01*
X74206Y-40098D01*
X74092Y-40098D01*
X74035Y-40060D01*
X74664Y-40098D02*
X74606Y-40060D01*
X74578Y-39984D01*
X74578Y-39298D01*
X75120Y-40060D02*
X75063Y-40098D01*
X74949Y-40098D01*
X74892Y-40060D01*
X74863Y-39984D01*
X74863Y-39679D01*
X74892Y-39603D01*
X74949Y-39564D01*
X75063Y-39564D01*
X75120Y-39603D01*
X75149Y-39679D01*
X75149Y-39755D01*
X74863Y-39831D01*
X75834Y-40060D02*
X75891Y-40098D01*
X76006Y-40098D01*
X76063Y-40060D01*
X76091Y-39984D01*
X76091Y-39945D01*
X76063Y-39869D01*
X76006Y-39831D01*
X75920Y-39831D01*
X75863Y-39793D01*
X75834Y-39717D01*
X75834Y-39679D01*
X75863Y-39603D01*
X75920Y-39564D01*
X76006Y-39564D01*
X76063Y-39603D01*
X76435Y-40098D02*
X76377Y-40060D01*
X76349Y-40022D01*
X76320Y-39945D01*
X76320Y-39717D01*
X76349Y-39641D01*
X76377Y-39603D01*
X76435Y-39564D01*
X76520Y-39564D01*
X76577Y-39603D01*
X76606Y-39641D01*
X76635Y-39717D01*
X76635Y-39945D01*
X76606Y-40022D01*
X76577Y-40060D01*
X76520Y-40098D01*
X76435Y-40098D01*
X76978Y-40098D02*
X76920Y-40060D01*
X76892Y-39984D01*
X76892Y-39298D01*
X77463Y-40098D02*
X77463Y-39298D01*
X77463Y-40060D02*
X77406Y-40098D01*
X77292Y-40098D01*
X77234Y-40060D01*
X77206Y-40022D01*
X77177Y-39945D01*
X77177Y-39717D01*
X77206Y-39641D01*
X77234Y-39603D01*
X77292Y-39564D01*
X77406Y-39564D01*
X77463Y-39603D01*
X77977Y-40060D02*
X77920Y-40098D01*
X77806Y-40098D01*
X77749Y-40060D01*
X77720Y-39984D01*
X77720Y-39679D01*
X77749Y-39603D01*
X77806Y-39564D01*
X77920Y-39564D01*
X77977Y-39603D01*
X78006Y-39679D01*
X78006Y-39755D01*
X77720Y-39831D01*
X78263Y-40098D02*
X78263Y-39564D01*
X78263Y-39717D02*
X78291Y-39641D01*
X78320Y-39603D01*
X78377Y-39564D01*
X78434Y-39564D01*
X78634Y-40098D02*
X78634Y-39564D01*
X78634Y-39641D02*
X78662Y-39603D01*
X78720Y-39564D01*
X78805Y-39564D01*
X78862Y-39603D01*
X78891Y-39679D01*
X78891Y-40098D01*
X78891Y-39679D02*
X78920Y-39603D01*
X78977Y-39564D01*
X79062Y-39564D01*
X79120Y-39603D01*
X79148Y-39679D01*
X79148Y-40098D01*
X79691Y-40098D02*
X79691Y-39679D01*
X79662Y-39603D01*
X79605Y-39564D01*
X79491Y-39564D01*
X79434Y-39603D01*
X79691Y-40060D02*
X79634Y-40098D01*
X79491Y-40098D01*
X79434Y-40060D01*
X79405Y-39984D01*
X79405Y-39907D01*
X79434Y-39831D01*
X79491Y-39793D01*
X79634Y-39793D01*
X79691Y-39755D01*
X79948Y-40060D02*
X80005Y-40098D01*
X80120Y-40098D01*
X80177Y-40060D01*
X80205Y-39984D01*
X80205Y-39945D01*
X80177Y-39869D01*
X80120Y-39831D01*
X80034Y-39831D01*
X79977Y-39793D01*
X79948Y-39717D01*
X79948Y-39679D01*
X79977Y-39603D01*
X80034Y-39564D01*
X80120Y-39564D01*
X80177Y-39603D01*
X80463Y-40098D02*
X80463Y-39298D01*
X80520Y-39793D02*
X80691Y-40098D01*
X80691Y-39564D02*
X80463Y-39869D01*
X81120Y-40403D02*
X81092Y-40364D01*
X81035Y-40250D01*
X81006Y-40174D01*
X80977Y-40060D01*
X80949Y-39869D01*
X80949Y-39717D01*
X80977Y-39526D01*
X81006Y-39412D01*
X81035Y-39336D01*
X81092Y-39222D01*
X81120Y-39184D01*
X81349Y-40098D02*
X81349Y-39298D01*
X81349Y-39603D02*
X81406Y-39564D01*
X81520Y-39564D01*
X81577Y-39603D01*
X81606Y-39641D01*
X81635Y-39717D01*
X81635Y-39945D01*
X81606Y-40022D01*
X81577Y-40060D01*
X81520Y-40098D01*
X81406Y-40098D01*
X81349Y-40060D01*
X81978Y-40098D02*
X81920Y-40060D01*
X81892Y-39984D01*
X81892Y-39298D01*
X82463Y-39564D02*
X82463Y-40098D01*
X82206Y-39564D02*
X82206Y-39984D01*
X82234Y-40060D01*
X82292Y-40098D01*
X82377Y-40098D01*
X82434Y-40060D01*
X82463Y-40022D01*
X82977Y-40060D02*
X82920Y-40098D01*
X82806Y-40098D01*
X82749Y-40060D01*
X82720Y-39984D01*
X82720Y-39679D01*
X82749Y-39603D01*
X82806Y-39564D01*
X82920Y-39564D01*
X82977Y-39603D01*
X83006Y-39679D01*
X83006Y-39755D01*
X82720Y-39831D01*
X83206Y-40403D02*
X83234Y-40364D01*
X83291Y-40250D01*
X83320Y-40174D01*
X83349Y-40060D01*
X83377Y-39869D01*
X83377Y-39717D01*
X83349Y-39526D01*
X83320Y-39412D01*
X83291Y-39336D01*
X83234Y-39222D01*
X83206Y-39184D01*
X83663Y-40022D02*
X83691Y-40060D01*
X83663Y-40098D01*
X83634Y-40060D01*
X83663Y-40022D01*
X83663Y-40098D01*
X84406Y-40098D02*
X84406Y-39298D01*
X84634Y-39298D01*
X84692Y-39336D01*
X84720Y-39374D01*
X84749Y-39450D01*
X84749Y-39564D01*
X84720Y-39641D01*
X84692Y-39679D01*
X84634Y-39717D01*
X84406Y-39717D01*
X85263Y-40098D02*
X85263Y-39679D01*
X85234Y-39603D01*
X85177Y-39564D01*
X85063Y-39564D01*
X85006Y-39603D01*
X85263Y-40060D02*
X85206Y-40098D01*
X85063Y-40098D01*
X85006Y-40060D01*
X84977Y-39984D01*
X84977Y-39907D01*
X85006Y-39831D01*
X85063Y-39793D01*
X85206Y-39793D01*
X85263Y-39755D01*
X85806Y-40098D02*
X85806Y-39298D01*
X85806Y-40060D02*
X85749Y-40098D01*
X85635Y-40098D01*
X85577Y-40060D01*
X85549Y-40022D01*
X85520Y-39945D01*
X85520Y-39717D01*
X85549Y-39641D01*
X85577Y-39603D01*
X85635Y-39564D01*
X85749Y-39564D01*
X85806Y-39603D01*
X86063Y-40060D02*
X86120Y-40098D01*
X86235Y-40098D01*
X86292Y-40060D01*
X86320Y-39984D01*
X86320Y-39945D01*
X86292Y-39869D01*
X86235Y-39831D01*
X86149Y-39831D01*
X86092Y-39793D01*
X86063Y-39717D01*
X86063Y-39679D01*
X86092Y-39603D01*
X86149Y-39564D01*
X86235Y-39564D01*
X86292Y-39603D01*
X87035Y-40098D02*
X87035Y-39298D01*
X87292Y-40098D02*
X87292Y-39679D01*
X87263Y-39603D01*
X87206Y-39564D01*
X87121Y-39564D01*
X87063Y-39603D01*
X87035Y-39641D01*
X87835Y-40098D02*
X87835Y-39679D01*
X87806Y-39603D01*
X87749Y-39564D01*
X87635Y-39564D01*
X87578Y-39603D01*
X87835Y-40060D02*
X87778Y-40098D01*
X87635Y-40098D01*
X87578Y-40060D01*
X87549Y-39984D01*
X87549Y-39907D01*
X87578Y-39831D01*
X87635Y-39793D01*
X87778Y-39793D01*
X87835Y-39755D01*
X88064Y-39564D02*
X88207Y-40098D01*
X88349Y-39564D01*
X88806Y-40060D02*
X88749Y-40098D01*
X88635Y-40098D01*
X88578Y-40060D01*
X88549Y-39984D01*
X88549Y-39679D01*
X88578Y-39603D01*
X88635Y-39564D01*
X88749Y-39564D01*
X88806Y-39603D01*
X88835Y-39679D01*
X88835Y-39755D01*
X88549Y-39831D01*
X89549Y-39564D02*
X89549Y-40098D01*
X89549Y-39641D02*
X89577Y-39603D01*
X89635Y-39564D01*
X89720Y-39564D01*
X89777Y-39603D01*
X89806Y-39679D01*
X89806Y-40098D01*
X90178Y-40098D02*
X90120Y-40060D01*
X90092Y-40022D01*
X90063Y-39945D01*
X90063Y-39717D01*
X90092Y-39641D01*
X90120Y-39603D01*
X90178Y-39564D01*
X90263Y-39564D01*
X90320Y-39603D01*
X90349Y-39641D01*
X90378Y-39717D01*
X90378Y-39945D01*
X90349Y-40022D01*
X90320Y-40060D01*
X90263Y-40098D01*
X90178Y-40098D01*
X90549Y-39564D02*
X90778Y-39564D01*
X90635Y-39298D02*
X90635Y-39984D01*
X90663Y-40060D01*
X90721Y-40098D01*
X90778Y-40098D01*
X91435Y-40098D02*
X91435Y-39298D01*
X91435Y-39603D02*
X91492Y-39564D01*
X91606Y-39564D01*
X91663Y-39603D01*
X91692Y-39641D01*
X91721Y-39717D01*
X91721Y-39945D01*
X91692Y-40022D01*
X91663Y-40060D01*
X91606Y-40098D01*
X91492Y-40098D01*
X91435Y-40060D01*
X92206Y-40060D02*
X92149Y-40098D01*
X92035Y-40098D01*
X91978Y-40060D01*
X91949Y-39984D01*
X91949Y-39679D01*
X91978Y-39603D01*
X92035Y-39564D01*
X92149Y-39564D01*
X92206Y-39603D01*
X92235Y-39679D01*
X92235Y-39755D01*
X91949Y-39831D01*
X92720Y-40060D02*
X92663Y-40098D01*
X92549Y-40098D01*
X92492Y-40060D01*
X92463Y-39984D01*
X92463Y-39679D01*
X92492Y-39603D01*
X92549Y-39564D01*
X92663Y-39564D01*
X92720Y-39603D01*
X92749Y-39679D01*
X92749Y-39755D01*
X92463Y-39831D01*
X93006Y-39564D02*
X93006Y-40098D01*
X93006Y-39641D02*
X93034Y-39603D01*
X93092Y-39564D01*
X93177Y-39564D01*
X93234Y-39603D01*
X93263Y-39679D01*
X93263Y-40098D01*
X94092Y-40098D02*
X94034Y-40060D01*
X94006Y-40022D01*
X93977Y-39945D01*
X93977Y-39717D01*
X94006Y-39641D01*
X94034Y-39603D01*
X94092Y-39564D01*
X94177Y-39564D01*
X94234Y-39603D01*
X94263Y-39641D01*
X94292Y-39717D01*
X94292Y-39945D01*
X94263Y-40022D01*
X94234Y-40060D01*
X94177Y-40098D01*
X94092Y-40098D01*
X94492Y-39564D02*
X94635Y-40098D01*
X94777Y-39564D01*
X95234Y-40060D02*
X95177Y-40098D01*
X95063Y-40098D01*
X95006Y-40060D01*
X94977Y-39984D01*
X94977Y-39679D01*
X95006Y-39603D01*
X95063Y-39564D01*
X95177Y-39564D01*
X95234Y-39603D01*
X95263Y-39679D01*
X95263Y-39755D01*
X94977Y-39831D01*
X95520Y-40098D02*
X95520Y-39564D01*
X95520Y-39717D02*
X95548Y-39641D01*
X95577Y-39603D01*
X95634Y-39564D01*
X95691Y-39564D01*
X95862Y-40060D02*
X95919Y-40098D01*
X96034Y-40098D01*
X96091Y-40060D01*
X96119Y-39984D01*
X96119Y-39945D01*
X96091Y-39869D01*
X96034Y-39831D01*
X95948Y-39831D01*
X95891Y-39793D01*
X95862Y-39717D01*
X95862Y-39679D01*
X95891Y-39603D01*
X95948Y-39564D01*
X96034Y-39564D01*
X96091Y-39603D01*
X96377Y-40098D02*
X96377Y-39564D01*
X96377Y-39298D02*
X96348Y-39336D01*
X96377Y-39374D01*
X96405Y-39336D01*
X96377Y-39298D01*
X96377Y-39374D01*
X96606Y-39564D02*
X96920Y-39564D01*
X96606Y-40098D01*
X96920Y-40098D01*
X97377Y-40060D02*
X97320Y-40098D01*
X97206Y-40098D01*
X97149Y-40060D01*
X97120Y-39984D01*
X97120Y-39679D01*
X97149Y-39603D01*
X97206Y-39564D01*
X97320Y-39564D01*
X97377Y-39603D01*
X97406Y-39679D01*
X97406Y-39755D01*
X97120Y-39831D01*
X97920Y-40098D02*
X97920Y-39298D01*
X97920Y-40060D02*
X97863Y-40098D01*
X97749Y-40098D01*
X97691Y-40060D01*
X97663Y-40022D01*
X97634Y-39945D01*
X97634Y-39717D01*
X97663Y-39641D01*
X97691Y-39603D01*
X97749Y-39564D01*
X97863Y-39564D01*
X97920Y-39603D01*
X98206Y-40022D02*
X98234Y-40060D01*
X98206Y-40098D01*
X98177Y-40060D01*
X98206Y-40022D01*
X98206Y-40098D01*
X65305Y-34266D02*
X65105Y-34266D01*
X65105Y-34685D02*
X65105Y-33885D01*
X65391Y-33885D01*
X65619Y-34685D02*
X65619Y-34151D01*
X65619Y-33885D02*
X65590Y-33923D01*
X65619Y-33961D01*
X65647Y-33923D01*
X65619Y-33885D01*
X65619Y-33961D01*
X65905Y-34151D02*
X65905Y-34685D01*
X65905Y-34228D02*
X65933Y-34190D01*
X65991Y-34151D01*
X66076Y-34151D01*
X66133Y-34190D01*
X66162Y-34266D01*
X66162Y-34685D01*
X66448Y-34685D02*
X66448Y-34151D01*
X66448Y-33885D02*
X66419Y-33923D01*
X66448Y-33961D01*
X66476Y-33923D01*
X66448Y-33885D01*
X66448Y-33961D01*
X66705Y-34647D02*
X66762Y-34685D01*
X66877Y-34685D01*
X66934Y-34647D01*
X66962Y-34571D01*
X66962Y-34532D01*
X66934Y-34456D01*
X66877Y-34418D01*
X66791Y-34418D01*
X66734Y-34380D01*
X66705Y-34304D01*
X66705Y-34266D01*
X66734Y-34190D01*
X66791Y-34151D01*
X66877Y-34151D01*
X66934Y-34190D01*
X67220Y-34685D02*
X67220Y-33885D01*
X67477Y-34685D02*
X67477Y-34266D01*
X67448Y-34190D01*
X67391Y-34151D01*
X67306Y-34151D01*
X67248Y-34190D01*
X67220Y-34228D01*
X64205Y-35620D02*
X64662Y-35620D01*
X64948Y-35620D02*
X65405Y-35620D01*
X65691Y-35620D02*
X66148Y-35620D01*
X66434Y-35620D02*
X66891Y-35620D01*
X67177Y-35620D02*
X67634Y-35620D01*
X67920Y-35620D02*
X68377Y-35620D01*
X62991Y-38176D02*
X63277Y-38176D01*
X62934Y-38405D02*
X63134Y-37605D01*
X63334Y-38405D01*
X63534Y-38329D02*
X63562Y-38367D01*
X63534Y-38405D01*
X63505Y-38367D01*
X63534Y-38329D01*
X63534Y-38405D01*
X63763Y-38710D02*
X63791Y-38671D01*
X63848Y-38557D01*
X63877Y-38481D01*
X63906Y-38367D01*
X63934Y-38176D01*
X63934Y-38024D01*
X63906Y-37833D01*
X63877Y-37719D01*
X63848Y-37643D01*
X63791Y-37529D01*
X63763Y-37491D01*
X64648Y-38367D02*
X64734Y-38405D01*
X64877Y-38405D01*
X64934Y-38367D01*
X64963Y-38329D01*
X64991Y-38252D01*
X64991Y-38176D01*
X64963Y-38100D01*
X64934Y-38062D01*
X64877Y-38024D01*
X64763Y-37986D01*
X64705Y-37948D01*
X64677Y-37910D01*
X64648Y-37833D01*
X64648Y-37757D01*
X64677Y-37681D01*
X64705Y-37643D01*
X64763Y-37605D01*
X64905Y-37605D01*
X64991Y-37643D01*
X65334Y-38405D02*
X65276Y-38367D01*
X65248Y-38329D01*
X65219Y-38252D01*
X65219Y-38024D01*
X65248Y-37948D01*
X65276Y-37910D01*
X65334Y-37871D01*
X65419Y-37871D01*
X65476Y-37910D01*
X65505Y-37948D01*
X65534Y-38024D01*
X65534Y-38252D01*
X65505Y-38329D01*
X65476Y-38367D01*
X65419Y-38405D01*
X65334Y-38405D01*
X65877Y-38405D02*
X65819Y-38367D01*
X65791Y-38291D01*
X65791Y-37605D01*
X66362Y-38405D02*
X66362Y-37605D01*
X66362Y-38367D02*
X66305Y-38405D01*
X66191Y-38405D01*
X66133Y-38367D01*
X66105Y-38329D01*
X66076Y-38252D01*
X66076Y-38024D01*
X66105Y-37948D01*
X66133Y-37910D01*
X66191Y-37871D01*
X66305Y-37871D01*
X66362Y-37910D01*
X66876Y-38367D02*
X66819Y-38405D01*
X66705Y-38405D01*
X66648Y-38367D01*
X66619Y-38291D01*
X66619Y-37986D01*
X66648Y-37910D01*
X66705Y-37871D01*
X66819Y-37871D01*
X66876Y-37910D01*
X66905Y-37986D01*
X66905Y-38062D01*
X66619Y-38138D01*
X67162Y-38405D02*
X67162Y-37871D01*
X67162Y-38024D02*
X67190Y-37948D01*
X67219Y-37910D01*
X67276Y-37871D01*
X67333Y-37871D01*
X67533Y-38405D02*
X67533Y-37871D01*
X67533Y-37948D02*
X67561Y-37910D01*
X67619Y-37871D01*
X67704Y-37871D01*
X67761Y-37910D01*
X67790Y-37986D01*
X67790Y-38405D01*
X67790Y-37986D02*
X67819Y-37910D01*
X67876Y-37871D01*
X67961Y-37871D01*
X68019Y-37910D01*
X68047Y-37986D01*
X68047Y-38405D01*
X68590Y-38405D02*
X68590Y-37986D01*
X68561Y-37910D01*
X68504Y-37871D01*
X68390Y-37871D01*
X68333Y-37910D01*
X68590Y-38367D02*
X68533Y-38405D01*
X68390Y-38405D01*
X68333Y-38367D01*
X68304Y-38291D01*
X68304Y-38214D01*
X68333Y-38138D01*
X68390Y-38100D01*
X68533Y-38100D01*
X68590Y-38062D01*
X68847Y-38367D02*
X68904Y-38405D01*
X69019Y-38405D01*
X69076Y-38367D01*
X69104Y-38291D01*
X69104Y-38252D01*
X69076Y-38176D01*
X69019Y-38138D01*
X68933Y-38138D01*
X68876Y-38100D01*
X68847Y-38024D01*
X68847Y-37986D01*
X68876Y-37910D01*
X68933Y-37871D01*
X69019Y-37871D01*
X69076Y-37910D01*
X69362Y-38405D02*
X69362Y-37605D01*
X69419Y-38100D02*
X69590Y-38405D01*
X69590Y-37871D02*
X69362Y-38176D01*
X62335Y-31421D02*
X62135Y-31421D01*
X62135Y-31840D02*
X62135Y-31040D01*
X62421Y-31040D01*
X62649Y-31840D02*
X62649Y-31306D01*
X62649Y-31040D02*
X62620Y-31078D01*
X62649Y-31116D01*
X62677Y-31078D01*
X62649Y-31040D01*
X62649Y-31116D01*
X62935Y-31306D02*
X62935Y-31840D01*
X62935Y-31383D02*
X62963Y-31345D01*
X63021Y-31306D01*
X63106Y-31306D01*
X63163Y-31345D01*
X63192Y-31421D01*
X63192Y-31840D01*
X63478Y-31840D02*
X63478Y-31306D01*
X63478Y-31040D02*
X63449Y-31078D01*
X63478Y-31116D01*
X63506Y-31078D01*
X63478Y-31040D01*
X63478Y-31116D01*
X63735Y-31802D02*
X63792Y-31840D01*
X63907Y-31840D01*
X63964Y-31802D01*
X63992Y-31726D01*
X63992Y-31687D01*
X63964Y-31611D01*
X63907Y-31573D01*
X63821Y-31573D01*
X63764Y-31535D01*
X63735Y-31459D01*
X63735Y-31421D01*
X63764Y-31345D01*
X63821Y-31306D01*
X63907Y-31306D01*
X63964Y-31345D01*
X64250Y-31840D02*
X64250Y-31040D01*
X64507Y-31840D02*
X64507Y-31421D01*
X64478Y-31345D01*
X64421Y-31306D01*
X64336Y-31306D01*
X64278Y-31345D01*
X64250Y-31383D01*
X65021Y-31802D02*
X64964Y-31840D01*
X64850Y-31840D01*
X64793Y-31802D01*
X64764Y-31726D01*
X64764Y-31421D01*
X64793Y-31345D01*
X64850Y-31306D01*
X64964Y-31306D01*
X65021Y-31345D01*
X65050Y-31421D01*
X65050Y-31497D01*
X64764Y-31573D01*
X65564Y-31840D02*
X65564Y-31040D01*
X65564Y-31802D02*
X65507Y-31840D01*
X65393Y-31840D01*
X65335Y-31802D01*
X65307Y-31764D01*
X65278Y-31687D01*
X65278Y-31459D01*
X65307Y-31383D01*
X65335Y-31345D01*
X65393Y-31306D01*
X65507Y-31306D01*
X65564Y-31345D01*
X66507Y-31421D02*
X66593Y-31459D01*
X66621Y-31497D01*
X66650Y-31573D01*
X66650Y-31687D01*
X66621Y-31764D01*
X66593Y-31802D01*
X66535Y-31840D01*
X66307Y-31840D01*
X66307Y-31040D01*
X66507Y-31040D01*
X66564Y-31078D01*
X66593Y-31116D01*
X66621Y-31192D01*
X66621Y-31268D01*
X66593Y-31345D01*
X66564Y-31383D01*
X66507Y-31421D01*
X66307Y-31421D01*
X66993Y-31840D02*
X66935Y-31802D01*
X66907Y-31764D01*
X66878Y-31687D01*
X66878Y-31459D01*
X66907Y-31383D01*
X66935Y-31345D01*
X66993Y-31306D01*
X67078Y-31306D01*
X67135Y-31345D01*
X67164Y-31383D01*
X67193Y-31459D01*
X67193Y-31687D01*
X67164Y-31764D01*
X67135Y-31802D01*
X67078Y-31840D01*
X66993Y-31840D01*
X67707Y-31840D02*
X67707Y-31421D01*
X67678Y-31345D01*
X67621Y-31306D01*
X67507Y-31306D01*
X67450Y-31345D01*
X67707Y-31802D02*
X67650Y-31840D01*
X67507Y-31840D01*
X67450Y-31802D01*
X67421Y-31726D01*
X67421Y-31649D01*
X67450Y-31573D01*
X67507Y-31535D01*
X67650Y-31535D01*
X67707Y-31497D01*
X67993Y-31840D02*
X67993Y-31306D01*
X67993Y-31459D02*
X68021Y-31383D01*
X68050Y-31345D01*
X68107Y-31306D01*
X68164Y-31306D01*
X68621Y-31840D02*
X68621Y-31040D01*
X68621Y-31802D02*
X68564Y-31840D01*
X68450Y-31840D01*
X68392Y-31802D01*
X68364Y-31764D01*
X68335Y-31687D01*
X68335Y-31459D01*
X68364Y-31383D01*
X68392Y-31345D01*
X68450Y-31306D01*
X68564Y-31306D01*
X68621Y-31345D01*
X69278Y-31306D02*
X69507Y-31306D01*
X69364Y-31040D02*
X69364Y-31726D01*
X69392Y-31802D01*
X69450Y-31840D01*
X69507Y-31840D01*
X69707Y-31840D02*
X69707Y-31040D01*
X69964Y-31840D02*
X69964Y-31421D01*
X69935Y-31345D01*
X69878Y-31306D01*
X69793Y-31306D01*
X69735Y-31345D01*
X69707Y-31383D01*
X70250Y-31840D02*
X70250Y-31306D01*
X70250Y-31040D02*
X70221Y-31078D01*
X70250Y-31116D01*
X70278Y-31078D01*
X70250Y-31040D01*
X70250Y-31116D01*
X70793Y-31802D02*
X70736Y-31840D01*
X70622Y-31840D01*
X70564Y-31802D01*
X70536Y-31764D01*
X70507Y-31687D01*
X70507Y-31459D01*
X70536Y-31383D01*
X70564Y-31345D01*
X70622Y-31306D01*
X70736Y-31306D01*
X70793Y-31345D01*
X71050Y-31840D02*
X71050Y-31040D01*
X71107Y-31535D02*
X71278Y-31840D01*
X71278Y-31306D02*
X71050Y-31611D01*
X71536Y-31306D02*
X71536Y-31840D01*
X71536Y-31383D02*
X71564Y-31345D01*
X71622Y-31306D01*
X71707Y-31306D01*
X71764Y-31345D01*
X71793Y-31421D01*
X71793Y-31840D01*
X72307Y-31802D02*
X72250Y-31840D01*
X72136Y-31840D01*
X72079Y-31802D01*
X72050Y-31726D01*
X72050Y-31421D01*
X72079Y-31345D01*
X72136Y-31306D01*
X72250Y-31306D01*
X72307Y-31345D01*
X72336Y-31421D01*
X72336Y-31497D01*
X72050Y-31573D01*
X72564Y-31802D02*
X72621Y-31840D01*
X72736Y-31840D01*
X72793Y-31802D01*
X72821Y-31726D01*
X72821Y-31687D01*
X72793Y-31611D01*
X72736Y-31573D01*
X72650Y-31573D01*
X72593Y-31535D01*
X72564Y-31459D01*
X72564Y-31421D01*
X72593Y-31345D01*
X72650Y-31306D01*
X72736Y-31306D01*
X72793Y-31345D01*
X73050Y-31802D02*
X73107Y-31840D01*
X73222Y-31840D01*
X73279Y-31802D01*
X73307Y-31726D01*
X73307Y-31687D01*
X73279Y-31611D01*
X73222Y-31573D01*
X73136Y-31573D01*
X73079Y-31535D01*
X73050Y-31459D01*
X73050Y-31421D01*
X73079Y-31345D01*
X73136Y-31306D01*
X73222Y-31306D01*
X73279Y-31345D01*
X74022Y-31535D02*
X74479Y-31535D01*
X75536Y-31840D02*
X75193Y-31840D01*
X75365Y-31840D02*
X75365Y-31040D01*
X75308Y-31154D01*
X75250Y-31230D01*
X75193Y-31268D01*
X75793Y-31764D02*
X75821Y-31802D01*
X75793Y-31840D01*
X75764Y-31802D01*
X75793Y-31764D01*
X75793Y-31840D01*
X76336Y-31040D02*
X76222Y-31040D01*
X76165Y-31078D01*
X76136Y-31116D01*
X76079Y-31230D01*
X76050Y-31383D01*
X76050Y-31687D01*
X76079Y-31764D01*
X76107Y-31802D01*
X76165Y-31840D01*
X76279Y-31840D01*
X76336Y-31802D01*
X76365Y-31764D01*
X76393Y-31687D01*
X76393Y-31497D01*
X76365Y-31421D01*
X76336Y-31383D01*
X76279Y-31345D01*
X76165Y-31345D01*
X76107Y-31383D01*
X76079Y-31421D01*
X76050Y-31497D01*
X76650Y-31840D02*
X76650Y-31306D01*
X76650Y-31383D02*
X76678Y-31345D01*
X76736Y-31306D01*
X76821Y-31306D01*
X76878Y-31345D01*
X76907Y-31421D01*
X76907Y-31840D01*
X76907Y-31421D02*
X76936Y-31345D01*
X76993Y-31306D01*
X77078Y-31306D01*
X77136Y-31345D01*
X77164Y-31421D01*
X77164Y-31840D01*
X77450Y-31840D02*
X77450Y-31306D01*
X77450Y-31383D02*
X77478Y-31345D01*
X77536Y-31306D01*
X77621Y-31306D01*
X77678Y-31345D01*
X77707Y-31421D01*
X77707Y-31840D01*
X77707Y-31421D02*
X77736Y-31345D01*
X77793Y-31306D01*
X77878Y-31306D01*
X77936Y-31345D01*
X77964Y-31421D01*
X77964Y-31840D01*
X78707Y-31383D02*
X79164Y-31383D01*
X78935Y-31687D02*
X78935Y-31078D01*
X79164Y-31840D02*
X78707Y-31840D01*
X80021Y-31040D02*
X80078Y-31040D01*
X80135Y-31078D01*
X80164Y-31116D01*
X80193Y-31192D01*
X80221Y-31345D01*
X80221Y-31535D01*
X80193Y-31687D01*
X80164Y-31764D01*
X80135Y-31802D01*
X80078Y-31840D01*
X80021Y-31840D01*
X79964Y-31802D01*
X79935Y-31764D01*
X79907Y-31687D01*
X79878Y-31535D01*
X79878Y-31345D01*
X79907Y-31192D01*
X79935Y-31116D01*
X79964Y-31078D01*
X80021Y-31040D01*
X80478Y-31764D02*
X80506Y-31802D01*
X80478Y-31840D01*
X80449Y-31802D01*
X80478Y-31764D01*
X80478Y-31840D01*
X81078Y-31840D02*
X80735Y-31840D01*
X80907Y-31840D02*
X80907Y-31040D01*
X80850Y-31154D01*
X80792Y-31230D01*
X80735Y-31268D01*
X81335Y-31840D02*
X81335Y-31306D01*
X81335Y-31383D02*
X81363Y-31345D01*
X81421Y-31306D01*
X81506Y-31306D01*
X81563Y-31345D01*
X81592Y-31421D01*
X81592Y-31840D01*
X81592Y-31421D02*
X81621Y-31345D01*
X81678Y-31306D01*
X81763Y-31306D01*
X81821Y-31345D01*
X81849Y-31421D01*
X81849Y-31840D01*
X82135Y-31840D02*
X82135Y-31306D01*
X82135Y-31383D02*
X82163Y-31345D01*
X82221Y-31306D01*
X82306Y-31306D01*
X82363Y-31345D01*
X82392Y-31421D01*
X82392Y-31840D01*
X82392Y-31421D02*
X82421Y-31345D01*
X82478Y-31306D01*
X82563Y-31306D01*
X82621Y-31345D01*
X82649Y-31421D01*
X82649Y-31840D01*
X94835Y-20042D02*
X94806Y-20080D01*
X94720Y-20118D01*
X94663Y-20118D01*
X94578Y-20080D01*
X94520Y-20004D01*
X94492Y-19927D01*
X94463Y-19775D01*
X94463Y-19661D01*
X94492Y-19508D01*
X94520Y-19432D01*
X94578Y-19356D01*
X94663Y-19318D01*
X94720Y-19318D01*
X94806Y-19356D01*
X94835Y-19394D01*
X95178Y-20118D02*
X95120Y-20080D01*
X95092Y-20042D01*
X95063Y-19965D01*
X95063Y-19737D01*
X95092Y-19661D01*
X95120Y-19623D01*
X95178Y-19584D01*
X95263Y-19584D01*
X95320Y-19623D01*
X95349Y-19661D01*
X95378Y-19737D01*
X95378Y-19965D01*
X95349Y-20042D01*
X95320Y-20080D01*
X95263Y-20118D01*
X95178Y-20118D01*
X95635Y-19584D02*
X95635Y-20384D01*
X95635Y-19623D02*
X95692Y-19584D01*
X95806Y-19584D01*
X95863Y-19623D01*
X95892Y-19661D01*
X95921Y-19737D01*
X95921Y-19965D01*
X95892Y-20042D01*
X95863Y-20080D01*
X95806Y-20118D01*
X95692Y-20118D01*
X95635Y-20080D01*
X96178Y-19584D02*
X96178Y-20384D01*
X96178Y-19623D02*
X96235Y-19584D01*
X96349Y-19584D01*
X96406Y-19623D01*
X96435Y-19661D01*
X96464Y-19737D01*
X96464Y-19965D01*
X96435Y-20042D01*
X96406Y-20080D01*
X96349Y-20118D01*
X96235Y-20118D01*
X96178Y-20080D01*
X96949Y-20080D02*
X96892Y-20118D01*
X96778Y-20118D01*
X96721Y-20080D01*
X96692Y-20004D01*
X96692Y-19699D01*
X96721Y-19623D01*
X96778Y-19584D01*
X96892Y-19584D01*
X96949Y-19623D01*
X96978Y-19699D01*
X96978Y-19775D01*
X96692Y-19851D01*
X97235Y-20118D02*
X97235Y-19584D01*
X97235Y-19737D02*
X97263Y-19661D01*
X97292Y-19623D01*
X97349Y-19584D01*
X97406Y-19584D01*
X98006Y-19318D02*
X98149Y-20118D01*
X98263Y-19546D01*
X98377Y-20118D01*
X98520Y-19318D01*
X98977Y-20080D02*
X98920Y-20118D01*
X98806Y-20118D01*
X98749Y-20080D01*
X98720Y-20004D01*
X98720Y-19699D01*
X98749Y-19623D01*
X98806Y-19584D01*
X98920Y-19584D01*
X98977Y-19623D01*
X99006Y-19699D01*
X99006Y-19775D01*
X98720Y-19851D01*
X99263Y-20118D02*
X99263Y-19584D01*
X99263Y-19318D02*
X99234Y-19356D01*
X99263Y-19394D01*
X99291Y-19356D01*
X99263Y-19318D01*
X99263Y-19394D01*
X99806Y-19584D02*
X99806Y-20232D01*
X99777Y-20308D01*
X99749Y-20346D01*
X99692Y-20384D01*
X99606Y-20384D01*
X99549Y-20346D01*
X99806Y-20080D02*
X99749Y-20118D01*
X99635Y-20118D01*
X99577Y-20080D01*
X99549Y-20042D01*
X99520Y-19965D01*
X99520Y-19737D01*
X99549Y-19661D01*
X99577Y-19623D01*
X99635Y-19584D01*
X99749Y-19584D01*
X99806Y-19623D01*
X100092Y-20118D02*
X100092Y-19318D01*
X100349Y-20118D02*
X100349Y-19699D01*
X100320Y-19623D01*
X100263Y-19584D01*
X100178Y-19584D01*
X100120Y-19623D01*
X100092Y-19661D01*
X100549Y-19584D02*
X100778Y-19584D01*
X100635Y-19318D02*
X100635Y-20004D01*
X100663Y-20080D01*
X100721Y-20118D01*
X100778Y-20118D01*
X101606Y-20423D02*
X101578Y-20384D01*
X101521Y-20270D01*
X101492Y-20194D01*
X101463Y-20080D01*
X101435Y-19889D01*
X101435Y-19737D01*
X101463Y-19546D01*
X101492Y-19432D01*
X101521Y-19356D01*
X101578Y-19242D01*
X101606Y-19204D01*
X101835Y-20118D02*
X101835Y-19318D01*
X102063Y-19318D01*
X102121Y-19356D01*
X102149Y-19394D01*
X102178Y-19470D01*
X102178Y-19584D01*
X102149Y-19661D01*
X102121Y-19699D01*
X102063Y-19737D01*
X101835Y-19737D01*
X102435Y-20118D02*
X102435Y-19584D01*
X102435Y-19737D02*
X102463Y-19661D01*
X102492Y-19623D01*
X102549Y-19584D01*
X102606Y-19584D01*
X103034Y-20080D02*
X102977Y-20118D01*
X102863Y-20118D01*
X102806Y-20080D01*
X102777Y-20004D01*
X102777Y-19699D01*
X102806Y-19623D01*
X102863Y-19584D01*
X102977Y-19584D01*
X103034Y-19623D01*
X103063Y-19699D01*
X103063Y-19775D01*
X102777Y-19851D01*
X103777Y-20118D02*
X103777Y-19318D01*
X104005Y-19318D01*
X104063Y-19356D01*
X104091Y-19394D01*
X104120Y-19470D01*
X104120Y-19584D01*
X104091Y-19661D01*
X104063Y-19699D01*
X104005Y-19737D01*
X103777Y-19737D01*
X104463Y-20118D02*
X104405Y-20080D01*
X104377Y-20004D01*
X104377Y-19318D01*
X104948Y-20118D02*
X104948Y-19699D01*
X104919Y-19623D01*
X104862Y-19584D01*
X104748Y-19584D01*
X104691Y-19623D01*
X104948Y-20080D02*
X104891Y-20118D01*
X104748Y-20118D01*
X104691Y-20080D01*
X104662Y-20004D01*
X104662Y-19927D01*
X104691Y-19851D01*
X104748Y-19813D01*
X104891Y-19813D01*
X104948Y-19775D01*
X105148Y-19584D02*
X105377Y-19584D01*
X105234Y-19318D02*
X105234Y-20004D01*
X105262Y-20080D01*
X105320Y-20118D01*
X105377Y-20118D01*
X105577Y-20118D02*
X105577Y-19584D01*
X105577Y-19318D02*
X105548Y-19356D01*
X105577Y-19394D01*
X105605Y-19356D01*
X105577Y-19318D01*
X105577Y-19394D01*
X105863Y-19584D02*
X105863Y-20118D01*
X105863Y-19661D02*
X105891Y-19623D01*
X105949Y-19584D01*
X106034Y-19584D01*
X106091Y-19623D01*
X106120Y-19699D01*
X106120Y-20118D01*
X106663Y-19584D02*
X106663Y-20232D01*
X106634Y-20308D01*
X106606Y-20346D01*
X106549Y-20384D01*
X106463Y-20384D01*
X106406Y-20346D01*
X106663Y-20080D02*
X106606Y-20118D01*
X106492Y-20118D01*
X106434Y-20080D01*
X106406Y-20042D01*
X106377Y-19965D01*
X106377Y-19737D01*
X106406Y-19661D01*
X106434Y-19623D01*
X106492Y-19584D01*
X106606Y-19584D01*
X106663Y-19623D01*
X106892Y-20423D02*
X106920Y-20384D01*
X106977Y-20270D01*
X107006Y-20194D01*
X107035Y-20080D01*
X107063Y-19889D01*
X107063Y-19737D01*
X107035Y-19546D01*
X107006Y-19432D01*
X106977Y-19356D01*
X106920Y-19242D01*
X106892Y-19204D01*
X99806Y-21798D02*
X99863Y-21798D01*
X99920Y-21836D01*
X99949Y-21874D01*
X99978Y-21950D01*
X100006Y-22103D01*
X100006Y-22293D01*
X99978Y-22445D01*
X99949Y-22522D01*
X99920Y-22560D01*
X99863Y-22598D01*
X99806Y-22598D01*
X99749Y-22560D01*
X99720Y-22522D01*
X99692Y-22445D01*
X99663Y-22293D01*
X99663Y-22103D01*
X99692Y-21950D01*
X99720Y-21874D01*
X99749Y-21836D01*
X99806Y-21798D01*
X100263Y-22522D02*
X100291Y-22560D01*
X100263Y-22598D01*
X100234Y-22560D01*
X100263Y-22522D01*
X100263Y-22598D01*
X100835Y-21798D02*
X100549Y-21798D01*
X100520Y-22179D01*
X100549Y-22141D01*
X100606Y-22103D01*
X100749Y-22103D01*
X100806Y-22141D01*
X100835Y-22179D01*
X100863Y-22255D01*
X100863Y-22445D01*
X100835Y-22522D01*
X100806Y-22560D01*
X100749Y-22598D01*
X100606Y-22598D01*
X100549Y-22560D01*
X100520Y-22522D01*
X101206Y-22598D02*
X101148Y-22560D01*
X101120Y-22522D01*
X101091Y-22445D01*
X101091Y-22217D01*
X101120Y-22141D01*
X101148Y-22103D01*
X101206Y-22064D01*
X101291Y-22064D01*
X101348Y-22103D01*
X101377Y-22141D01*
X101406Y-22217D01*
X101406Y-22445D01*
X101377Y-22522D01*
X101348Y-22560D01*
X101291Y-22598D01*
X101206Y-22598D01*
X101606Y-22064D02*
X101920Y-22064D01*
X101606Y-22598D01*
X101920Y-22598D01*
X100006Y-23838D02*
X99663Y-23838D01*
X99835Y-23838D02*
X99835Y-23038D01*
X99778Y-23152D01*
X99720Y-23228D01*
X99663Y-23266D01*
X100263Y-23762D02*
X100291Y-23800D01*
X100263Y-23838D01*
X100234Y-23800D01*
X100263Y-23762D01*
X100263Y-23838D01*
X100663Y-23038D02*
X100720Y-23038D01*
X100777Y-23076D01*
X100806Y-23114D01*
X100835Y-23190D01*
X100863Y-23343D01*
X100863Y-23533D01*
X100835Y-23685D01*
X100806Y-23762D01*
X100777Y-23800D01*
X100720Y-23838D01*
X100663Y-23838D01*
X100606Y-23800D01*
X100577Y-23762D01*
X100549Y-23685D01*
X100520Y-23533D01*
X100520Y-23343D01*
X100549Y-23190D01*
X100577Y-23114D01*
X100606Y-23076D01*
X100663Y-23038D01*
X101206Y-23838D02*
X101148Y-23800D01*
X101120Y-23762D01*
X101091Y-23685D01*
X101091Y-23457D01*
X101120Y-23381D01*
X101148Y-23343D01*
X101206Y-23304D01*
X101291Y-23304D01*
X101348Y-23343D01*
X101377Y-23381D01*
X101406Y-23457D01*
X101406Y-23685D01*
X101377Y-23762D01*
X101348Y-23800D01*
X101291Y-23838D01*
X101206Y-23838D01*
X101606Y-23304D02*
X101920Y-23304D01*
X101606Y-23838D01*
X101920Y-23838D01*
X100006Y-25078D02*
X99663Y-25078D01*
X99835Y-25078D02*
X99835Y-24278D01*
X99778Y-24392D01*
X99720Y-24468D01*
X99663Y-24506D01*
X100263Y-25002D02*
X100291Y-25040D01*
X100263Y-25078D01*
X100234Y-25040D01*
X100263Y-25002D01*
X100263Y-25078D01*
X100663Y-24278D02*
X100720Y-24278D01*
X100777Y-24316D01*
X100806Y-24354D01*
X100835Y-24430D01*
X100863Y-24583D01*
X100863Y-24773D01*
X100835Y-24925D01*
X100806Y-25002D01*
X100777Y-25040D01*
X100720Y-25078D01*
X100663Y-25078D01*
X100606Y-25040D01*
X100577Y-25002D01*
X100549Y-24925D01*
X100520Y-24773D01*
X100520Y-24583D01*
X100549Y-24430D01*
X100577Y-24354D01*
X100606Y-24316D01*
X100663Y-24278D01*
X101206Y-25078D02*
X101148Y-25040D01*
X101120Y-25002D01*
X101091Y-24925D01*
X101091Y-24697D01*
X101120Y-24621D01*
X101148Y-24583D01*
X101206Y-24544D01*
X101291Y-24544D01*
X101348Y-24583D01*
X101377Y-24621D01*
X101406Y-24697D01*
X101406Y-24925D01*
X101377Y-25002D01*
X101348Y-25040D01*
X101291Y-25078D01*
X101206Y-25078D01*
X101606Y-24544D02*
X101920Y-24544D01*
X101606Y-25078D01*
X101920Y-25078D01*
X99806Y-25518D02*
X99863Y-25518D01*
X99920Y-25556D01*
X99949Y-25594D01*
X99978Y-25670D01*
X100006Y-25823D01*
X100006Y-26013D01*
X99978Y-26165D01*
X99949Y-26242D01*
X99920Y-26280D01*
X99863Y-26318D01*
X99806Y-26318D01*
X99749Y-26280D01*
X99720Y-26242D01*
X99692Y-26165D01*
X99663Y-26013D01*
X99663Y-25823D01*
X99692Y-25670D01*
X99720Y-25594D01*
X99749Y-25556D01*
X99806Y-25518D01*
X100263Y-26242D02*
X100291Y-26280D01*
X100263Y-26318D01*
X100234Y-26280D01*
X100263Y-26242D01*
X100263Y-26318D01*
X100835Y-25518D02*
X100549Y-25518D01*
X100520Y-25899D01*
X100549Y-25861D01*
X100606Y-25823D01*
X100749Y-25823D01*
X100806Y-25861D01*
X100835Y-25899D01*
X100863Y-25975D01*
X100863Y-26165D01*
X100835Y-26242D01*
X100806Y-26280D01*
X100749Y-26318D01*
X100606Y-26318D01*
X100549Y-26280D01*
X100520Y-26242D01*
X101206Y-26318D02*
X101148Y-26280D01*
X101120Y-26242D01*
X101091Y-26165D01*
X101091Y-25937D01*
X101120Y-25861D01*
X101148Y-25823D01*
X101206Y-25784D01*
X101291Y-25784D01*
X101348Y-25823D01*
X101377Y-25861D01*
X101406Y-25937D01*
X101406Y-26165D01*
X101377Y-26242D01*
X101348Y-26280D01*
X101291Y-26318D01*
X101206Y-26318D01*
X101606Y-25784D02*
X101920Y-25784D01*
X101606Y-26318D01*
X101920Y-26318D01*
X88575Y-20069D02*
X88289Y-20069D01*
X88289Y-19269D01*
X89032Y-20069D02*
X89032Y-19650D01*
X89003Y-19574D01*
X88946Y-19535D01*
X88832Y-19535D01*
X88775Y-19574D01*
X89032Y-20031D02*
X88975Y-20069D01*
X88832Y-20069D01*
X88775Y-20031D01*
X88746Y-19955D01*
X88746Y-19878D01*
X88775Y-19802D01*
X88832Y-19764D01*
X88975Y-19764D01*
X89032Y-19726D01*
X89261Y-19535D02*
X89404Y-20069D01*
X89546Y-19535D02*
X89404Y-20069D01*
X89346Y-20259D01*
X89318Y-20297D01*
X89261Y-20335D01*
X90003Y-20031D02*
X89946Y-20069D01*
X89832Y-20069D01*
X89775Y-20031D01*
X89746Y-19955D01*
X89746Y-19650D01*
X89775Y-19574D01*
X89832Y-19535D01*
X89946Y-19535D01*
X90003Y-19574D01*
X90032Y-19650D01*
X90032Y-19726D01*
X89746Y-19802D01*
X90289Y-20069D02*
X90289Y-19535D01*
X90289Y-19688D02*
X90317Y-19612D01*
X90346Y-19574D01*
X90403Y-19535D01*
X90460Y-19535D01*
X86375Y-22549D02*
X86089Y-22549D01*
X86089Y-21749D01*
X86832Y-22549D02*
X86832Y-22130D01*
X86803Y-22054D01*
X86746Y-22015D01*
X86632Y-22015D01*
X86575Y-22054D01*
X86832Y-22511D02*
X86775Y-22549D01*
X86632Y-22549D01*
X86575Y-22511D01*
X86546Y-22435D01*
X86546Y-22358D01*
X86575Y-22282D01*
X86632Y-22244D01*
X86775Y-22244D01*
X86832Y-22206D01*
X87061Y-22015D02*
X87204Y-22549D01*
X87346Y-22015D02*
X87204Y-22549D01*
X87146Y-22739D01*
X87118Y-22777D01*
X87061Y-22815D01*
X87803Y-22511D02*
X87746Y-22549D01*
X87632Y-22549D01*
X87575Y-22511D01*
X87546Y-22435D01*
X87546Y-22130D01*
X87575Y-22054D01*
X87632Y-22015D01*
X87746Y-22015D01*
X87803Y-22054D01*
X87832Y-22130D01*
X87832Y-22206D01*
X87546Y-22282D01*
X88089Y-22549D02*
X88089Y-22015D01*
X88089Y-22168D02*
X88117Y-22092D01*
X88146Y-22054D01*
X88203Y-22015D01*
X88260Y-22015D01*
X89031Y-21749D02*
X89088Y-21749D01*
X89145Y-21787D01*
X89174Y-21825D01*
X89203Y-21901D01*
X89231Y-22054D01*
X89231Y-22244D01*
X89203Y-22396D01*
X89174Y-22473D01*
X89145Y-22511D01*
X89088Y-22549D01*
X89031Y-22549D01*
X88974Y-22511D01*
X88945Y-22473D01*
X88917Y-22396D01*
X88888Y-22244D01*
X88888Y-22054D01*
X88917Y-21901D01*
X88945Y-21825D01*
X88974Y-21787D01*
X89031Y-21749D01*
X89802Y-22549D02*
X89459Y-22549D01*
X89631Y-22549D02*
X89631Y-21749D01*
X89574Y-21863D01*
X89516Y-21939D01*
X89459Y-21977D01*
X90687Y-22854D02*
X90659Y-22815D01*
X90602Y-22701D01*
X90573Y-22625D01*
X90544Y-22511D01*
X90516Y-22320D01*
X90516Y-22168D01*
X90544Y-21977D01*
X90573Y-21863D01*
X90602Y-21787D01*
X90659Y-21673D01*
X90687Y-21635D01*
X90830Y-21749D02*
X91173Y-21749D01*
X91002Y-22549D02*
X91002Y-21749D01*
X91459Y-22549D02*
X91401Y-22511D01*
X91373Y-22473D01*
X91344Y-22396D01*
X91344Y-22168D01*
X91373Y-22092D01*
X91401Y-22054D01*
X91459Y-22015D01*
X91544Y-22015D01*
X91601Y-22054D01*
X91630Y-22092D01*
X91659Y-22168D01*
X91659Y-22396D01*
X91630Y-22473D01*
X91601Y-22511D01*
X91544Y-22549D01*
X91459Y-22549D01*
X91916Y-22015D02*
X91916Y-22815D01*
X91916Y-22054D02*
X91973Y-22015D01*
X92087Y-22015D01*
X92144Y-22054D01*
X92173Y-22092D01*
X92202Y-22168D01*
X92202Y-22396D01*
X92173Y-22473D01*
X92144Y-22511D01*
X92087Y-22549D01*
X91973Y-22549D01*
X91916Y-22511D01*
X92402Y-22854D02*
X92430Y-22815D01*
X92487Y-22701D01*
X92516Y-22625D01*
X92545Y-22511D01*
X92573Y-22320D01*
X92573Y-22168D01*
X92545Y-21977D01*
X92516Y-21863D01*
X92487Y-21787D01*
X92430Y-21673D01*
X92402Y-21635D01*
X86304Y-23789D02*
X86018Y-23789D01*
X86018Y-22989D01*
X86761Y-23789D02*
X86761Y-23370D01*
X86732Y-23294D01*
X86675Y-23255D01*
X86561Y-23255D01*
X86504Y-23294D01*
X86761Y-23751D02*
X86704Y-23789D01*
X86561Y-23789D01*
X86504Y-23751D01*
X86475Y-23675D01*
X86475Y-23598D01*
X86504Y-23522D01*
X86561Y-23484D01*
X86704Y-23484D01*
X86761Y-23446D01*
X86990Y-23255D02*
X87133Y-23789D01*
X87275Y-23255D02*
X87133Y-23789D01*
X87075Y-23979D01*
X87047Y-24017D01*
X86990Y-24055D01*
X87732Y-23751D02*
X87675Y-23789D01*
X87561Y-23789D01*
X87504Y-23751D01*
X87475Y-23675D01*
X87475Y-23370D01*
X87504Y-23294D01*
X87561Y-23255D01*
X87675Y-23255D01*
X87732Y-23294D01*
X87761Y-23370D01*
X87761Y-23446D01*
X87475Y-23522D01*
X88018Y-23789D02*
X88018Y-23255D01*
X88018Y-23408D02*
X88046Y-23332D01*
X88075Y-23294D01*
X88132Y-23255D01*
X88189Y-23255D01*
X88960Y-22989D02*
X89017Y-22989D01*
X89074Y-23027D01*
X89103Y-23065D01*
X89132Y-23141D01*
X89160Y-23294D01*
X89160Y-23484D01*
X89132Y-23636D01*
X89103Y-23713D01*
X89074Y-23751D01*
X89017Y-23789D01*
X88960Y-23789D01*
X88903Y-23751D01*
X88874Y-23713D01*
X88846Y-23636D01*
X88817Y-23484D01*
X88817Y-23294D01*
X88846Y-23141D01*
X88874Y-23065D01*
X88903Y-23027D01*
X88960Y-22989D01*
X89388Y-23065D02*
X89417Y-23027D01*
X89474Y-22989D01*
X89617Y-22989D01*
X89674Y-23027D01*
X89703Y-23065D01*
X89731Y-23141D01*
X89731Y-23217D01*
X89703Y-23332D01*
X89360Y-23789D01*
X89731Y-23789D01*
X90616Y-24094D02*
X90588Y-24055D01*
X90531Y-23941D01*
X90502Y-23865D01*
X90473Y-23751D01*
X90445Y-23560D01*
X90445Y-23408D01*
X90473Y-23217D01*
X90502Y-23103D01*
X90531Y-23027D01*
X90588Y-22913D01*
X90616Y-22875D01*
X91159Y-23027D02*
X91102Y-22989D01*
X91016Y-22989D01*
X90931Y-23027D01*
X90873Y-23103D01*
X90845Y-23179D01*
X90816Y-23332D01*
X90816Y-23446D01*
X90845Y-23598D01*
X90873Y-23675D01*
X90931Y-23751D01*
X91016Y-23789D01*
X91073Y-23789D01*
X91159Y-23751D01*
X91188Y-23713D01*
X91188Y-23446D01*
X91073Y-23446D01*
X91445Y-23255D02*
X91445Y-23789D01*
X91445Y-23332D02*
X91473Y-23294D01*
X91531Y-23255D01*
X91616Y-23255D01*
X91673Y-23294D01*
X91702Y-23370D01*
X91702Y-23789D01*
X92245Y-23789D02*
X92245Y-22989D01*
X92245Y-23751D02*
X92188Y-23789D01*
X92074Y-23789D01*
X92016Y-23751D01*
X91988Y-23713D01*
X91959Y-23636D01*
X91959Y-23408D01*
X91988Y-23332D01*
X92016Y-23294D01*
X92074Y-23255D01*
X92188Y-23255D01*
X92245Y-23294D01*
X92474Y-24094D02*
X92502Y-24055D01*
X92559Y-23941D01*
X92588Y-23865D01*
X92617Y-23751D01*
X92645Y-23560D01*
X92645Y-23408D01*
X92617Y-23217D01*
X92588Y-23103D01*
X92559Y-23027D01*
X92502Y-22913D01*
X92474Y-22875D01*
X86347Y-25029D02*
X86061Y-25029D01*
X86061Y-24229D01*
X86804Y-25029D02*
X86804Y-24610D01*
X86775Y-24534D01*
X86718Y-24495D01*
X86604Y-24495D01*
X86547Y-24534D01*
X86804Y-24991D02*
X86747Y-25029D01*
X86604Y-25029D01*
X86547Y-24991D01*
X86518Y-24915D01*
X86518Y-24838D01*
X86547Y-24762D01*
X86604Y-24724D01*
X86747Y-24724D01*
X86804Y-24686D01*
X87033Y-24495D02*
X87176Y-25029D01*
X87318Y-24495D02*
X87176Y-25029D01*
X87118Y-25219D01*
X87090Y-25257D01*
X87033Y-25295D01*
X87775Y-24991D02*
X87718Y-25029D01*
X87604Y-25029D01*
X87547Y-24991D01*
X87518Y-24915D01*
X87518Y-24610D01*
X87547Y-24534D01*
X87604Y-24495D01*
X87718Y-24495D01*
X87775Y-24534D01*
X87804Y-24610D01*
X87804Y-24686D01*
X87518Y-24762D01*
X88061Y-25029D02*
X88061Y-24495D01*
X88061Y-24648D02*
X88089Y-24572D01*
X88118Y-24534D01*
X88175Y-24495D01*
X88232Y-24495D01*
X89003Y-24229D02*
X89060Y-24229D01*
X89117Y-24267D01*
X89146Y-24305D01*
X89175Y-24381D01*
X89203Y-24534D01*
X89203Y-24724D01*
X89175Y-24876D01*
X89146Y-24953D01*
X89117Y-24991D01*
X89060Y-25029D01*
X89003Y-25029D01*
X88946Y-24991D01*
X88917Y-24953D01*
X88889Y-24876D01*
X88860Y-24724D01*
X88860Y-24534D01*
X88889Y-24381D01*
X88917Y-24305D01*
X88946Y-24267D01*
X89003Y-24229D01*
X89403Y-24229D02*
X89774Y-24229D01*
X89574Y-24534D01*
X89660Y-24534D01*
X89717Y-24572D01*
X89746Y-24610D01*
X89774Y-24686D01*
X89774Y-24876D01*
X89746Y-24953D01*
X89717Y-24991D01*
X89660Y-25029D01*
X89488Y-25029D01*
X89431Y-24991D01*
X89403Y-24953D01*
X90659Y-25334D02*
X90631Y-25295D01*
X90574Y-25181D01*
X90545Y-25105D01*
X90516Y-24991D01*
X90488Y-24800D01*
X90488Y-24648D01*
X90516Y-24457D01*
X90545Y-24343D01*
X90574Y-24267D01*
X90631Y-24153D01*
X90659Y-24115D01*
X90888Y-25029D02*
X90888Y-24229D01*
X91116Y-24229D01*
X91174Y-24267D01*
X91202Y-24305D01*
X91231Y-24381D01*
X91231Y-24495D01*
X91202Y-24572D01*
X91174Y-24610D01*
X91116Y-24648D01*
X90888Y-24648D01*
X91431Y-24495D02*
X91545Y-25029D01*
X91659Y-24648D01*
X91774Y-25029D01*
X91888Y-24495D01*
X92117Y-25029D02*
X92117Y-24495D01*
X92117Y-24648D02*
X92145Y-24572D01*
X92174Y-24534D01*
X92231Y-24495D01*
X92288Y-24495D01*
X92431Y-25334D02*
X92459Y-25295D01*
X92516Y-25181D01*
X92545Y-25105D01*
X92574Y-24991D01*
X92602Y-24800D01*
X92602Y-24648D01*
X92574Y-24457D01*
X92545Y-24343D01*
X92516Y-24267D01*
X92459Y-24153D01*
X92431Y-24115D01*
X86404Y-26269D02*
X86118Y-26269D01*
X86118Y-25469D01*
X86861Y-26269D02*
X86861Y-25850D01*
X86832Y-25774D01*
X86775Y-25735D01*
X86661Y-25735D01*
X86604Y-25774D01*
X86861Y-26231D02*
X86804Y-26269D01*
X86661Y-26269D01*
X86604Y-26231D01*
X86575Y-26155D01*
X86575Y-26078D01*
X86604Y-26002D01*
X86661Y-25964D01*
X86804Y-25964D01*
X86861Y-25926D01*
X87090Y-25735D02*
X87233Y-26269D01*
X87375Y-25735D02*
X87233Y-26269D01*
X87175Y-26459D01*
X87147Y-26497D01*
X87090Y-26535D01*
X87832Y-26231D02*
X87775Y-26269D01*
X87661Y-26269D01*
X87604Y-26231D01*
X87575Y-26155D01*
X87575Y-25850D01*
X87604Y-25774D01*
X87661Y-25735D01*
X87775Y-25735D01*
X87832Y-25774D01*
X87861Y-25850D01*
X87861Y-25926D01*
X87575Y-26002D01*
X88118Y-26269D02*
X88118Y-25735D01*
X88118Y-25888D02*
X88146Y-25812D01*
X88175Y-25774D01*
X88232Y-25735D01*
X88289Y-25735D01*
X89060Y-25469D02*
X89117Y-25469D01*
X89174Y-25507D01*
X89203Y-25545D01*
X89232Y-25621D01*
X89260Y-25774D01*
X89260Y-25964D01*
X89232Y-26116D01*
X89203Y-26193D01*
X89174Y-26231D01*
X89117Y-26269D01*
X89060Y-26269D01*
X89003Y-26231D01*
X88974Y-26193D01*
X88946Y-26116D01*
X88917Y-25964D01*
X88917Y-25774D01*
X88946Y-25621D01*
X88974Y-25545D01*
X89003Y-25507D01*
X89060Y-25469D01*
X89774Y-25735D02*
X89774Y-26269D01*
X89631Y-25431D02*
X89488Y-26002D01*
X89860Y-26002D01*
X90716Y-26574D02*
X90688Y-26535D01*
X90631Y-26421D01*
X90602Y-26345D01*
X90573Y-26231D01*
X90545Y-26040D01*
X90545Y-25888D01*
X90573Y-25697D01*
X90602Y-25583D01*
X90631Y-25507D01*
X90688Y-25393D01*
X90716Y-25355D01*
X91145Y-25850D02*
X91231Y-25888D01*
X91259Y-25926D01*
X91288Y-26002D01*
X91288Y-26116D01*
X91259Y-26193D01*
X91231Y-26231D01*
X91173Y-26269D01*
X90945Y-26269D01*
X90945Y-25469D01*
X91145Y-25469D01*
X91202Y-25507D01*
X91231Y-25545D01*
X91259Y-25621D01*
X91259Y-25697D01*
X91231Y-25774D01*
X91202Y-25812D01*
X91145Y-25850D01*
X90945Y-25850D01*
X91631Y-26269D02*
X91573Y-26231D01*
X91545Y-26193D01*
X91516Y-26116D01*
X91516Y-25888D01*
X91545Y-25812D01*
X91573Y-25774D01*
X91631Y-25735D01*
X91716Y-25735D01*
X91773Y-25774D01*
X91802Y-25812D01*
X91831Y-25888D01*
X91831Y-26116D01*
X91802Y-26193D01*
X91773Y-26231D01*
X91716Y-26269D01*
X91631Y-26269D01*
X92002Y-25735D02*
X92231Y-25735D01*
X92088Y-25469D02*
X92088Y-26155D01*
X92116Y-26231D01*
X92174Y-26269D01*
X92231Y-26269D01*
X92374Y-26574D02*
X92402Y-26535D01*
X92459Y-26421D01*
X92488Y-26345D01*
X92517Y-26231D01*
X92545Y-26040D01*
X92545Y-25888D01*
X92517Y-25697D01*
X92488Y-25583D01*
X92459Y-25507D01*
X92402Y-25393D01*
X92374Y-25355D01*
X87321Y-16467D02*
X87407Y-16505D01*
X87550Y-16505D01*
X87607Y-16467D01*
X87636Y-16429D01*
X87664Y-16352D01*
X87664Y-16276D01*
X87636Y-16200D01*
X87607Y-16162D01*
X87550Y-16124D01*
X87436Y-16086D01*
X87378Y-16048D01*
X87350Y-16010D01*
X87321Y-15933D01*
X87321Y-15857D01*
X87350Y-15781D01*
X87378Y-15743D01*
X87436Y-15705D01*
X87578Y-15705D01*
X87664Y-15743D01*
X87835Y-15971D02*
X88064Y-15971D01*
X87921Y-15705D02*
X87921Y-16391D01*
X87949Y-16467D01*
X88007Y-16505D01*
X88064Y-16505D01*
X88521Y-16505D02*
X88521Y-16086D01*
X88492Y-16010D01*
X88435Y-15971D01*
X88321Y-15971D01*
X88264Y-16010D01*
X88521Y-16467D02*
X88464Y-16505D01*
X88321Y-16505D01*
X88264Y-16467D01*
X88235Y-16391D01*
X88235Y-16314D01*
X88264Y-16238D01*
X88321Y-16200D01*
X88464Y-16200D01*
X88521Y-16162D01*
X89064Y-16467D02*
X89007Y-16505D01*
X88893Y-16505D01*
X88835Y-16467D01*
X88807Y-16429D01*
X88778Y-16352D01*
X88778Y-16124D01*
X88807Y-16048D01*
X88835Y-16010D01*
X88893Y-15971D01*
X89007Y-15971D01*
X89064Y-16010D01*
X89321Y-16505D02*
X89321Y-15705D01*
X89378Y-16200D02*
X89549Y-16505D01*
X89549Y-15971D02*
X89321Y-16276D01*
X90064Y-15971D02*
X90064Y-16505D01*
X89807Y-15971D02*
X89807Y-16391D01*
X89835Y-16467D01*
X89893Y-16505D01*
X89978Y-16505D01*
X90035Y-16467D01*
X90064Y-16429D01*
X90350Y-15971D02*
X90350Y-16771D01*
X90350Y-16010D02*
X90407Y-15971D01*
X90521Y-15971D01*
X90578Y-16010D01*
X90607Y-16048D01*
X90636Y-16124D01*
X90636Y-16352D01*
X90607Y-16429D01*
X90578Y-16467D01*
X90521Y-16505D01*
X90407Y-16505D01*
X90350Y-16467D01*
X91350Y-16505D02*
X91350Y-15971D01*
X91350Y-15705D02*
X91321Y-15743D01*
X91350Y-15781D01*
X91378Y-15743D01*
X91350Y-15705D01*
X91350Y-15781D01*
X91607Y-16467D02*
X91664Y-16505D01*
X91779Y-16505D01*
X91836Y-16467D01*
X91864Y-16391D01*
X91864Y-16352D01*
X91836Y-16276D01*
X91779Y-16238D01*
X91693Y-16238D01*
X91636Y-16200D01*
X91607Y-16124D01*
X91607Y-16086D01*
X91636Y-16010D01*
X91693Y-15971D01*
X91779Y-15971D01*
X91836Y-16010D01*
X92493Y-15971D02*
X92722Y-15971D01*
X92579Y-15705D02*
X92579Y-16391D01*
X92607Y-16467D01*
X92665Y-16505D01*
X92722Y-16505D01*
X93008Y-16505D02*
X92950Y-16467D01*
X92922Y-16429D01*
X92893Y-16352D01*
X92893Y-16124D01*
X92922Y-16048D01*
X92950Y-16010D01*
X93008Y-15971D01*
X93093Y-15971D01*
X93150Y-16010D01*
X93179Y-16048D01*
X93208Y-16124D01*
X93208Y-16352D01*
X93179Y-16429D01*
X93150Y-16467D01*
X93093Y-16505D01*
X93008Y-16505D01*
X93922Y-16505D02*
X93922Y-15705D01*
X93922Y-16010D02*
X93979Y-15971D01*
X94093Y-15971D01*
X94150Y-16010D01*
X94179Y-16048D01*
X94208Y-16124D01*
X94208Y-16352D01*
X94179Y-16429D01*
X94150Y-16467D01*
X94093Y-16505D01*
X93979Y-16505D01*
X93922Y-16467D01*
X94693Y-16467D02*
X94636Y-16505D01*
X94522Y-16505D01*
X94465Y-16467D01*
X94436Y-16391D01*
X94436Y-16086D01*
X94465Y-16010D01*
X94522Y-15971D01*
X94636Y-15971D01*
X94693Y-16010D01*
X94722Y-16086D01*
X94722Y-16162D01*
X94436Y-16238D01*
X95693Y-16505D02*
X95693Y-16086D01*
X95664Y-16010D01*
X95607Y-15971D01*
X95493Y-15971D01*
X95436Y-16010D01*
X95693Y-16467D02*
X95636Y-16505D01*
X95493Y-16505D01*
X95436Y-16467D01*
X95407Y-16391D01*
X95407Y-16314D01*
X95436Y-16238D01*
X95493Y-16200D01*
X95636Y-16200D01*
X95693Y-16162D01*
X95950Y-16467D02*
X96007Y-16505D01*
X96122Y-16505D01*
X96179Y-16467D01*
X96207Y-16391D01*
X96207Y-16352D01*
X96179Y-16276D01*
X96122Y-16238D01*
X96036Y-16238D01*
X95979Y-16200D01*
X95950Y-16124D01*
X95950Y-16086D01*
X95979Y-16010D01*
X96036Y-15971D01*
X96122Y-15971D01*
X96179Y-16010D01*
X96836Y-15971D02*
X97065Y-15971D01*
X96922Y-16505D02*
X96922Y-15819D01*
X96950Y-15743D01*
X97008Y-15705D01*
X97065Y-15705D01*
X97351Y-16505D02*
X97293Y-16467D01*
X97265Y-16429D01*
X97236Y-16352D01*
X97236Y-16124D01*
X97265Y-16048D01*
X97293Y-16010D01*
X97351Y-15971D01*
X97436Y-15971D01*
X97493Y-16010D01*
X97522Y-16048D01*
X97551Y-16124D01*
X97551Y-16352D01*
X97522Y-16429D01*
X97493Y-16467D01*
X97436Y-16505D01*
X97351Y-16505D01*
X97894Y-16505D02*
X97836Y-16467D01*
X97808Y-16391D01*
X97808Y-15705D01*
X98208Y-16505D02*
X98150Y-16467D01*
X98122Y-16391D01*
X98122Y-15705D01*
X98522Y-16505D02*
X98464Y-16467D01*
X98436Y-16429D01*
X98407Y-16352D01*
X98407Y-16124D01*
X98436Y-16048D01*
X98464Y-16010D01*
X98522Y-15971D01*
X98607Y-15971D01*
X98664Y-16010D01*
X98693Y-16048D01*
X98722Y-16124D01*
X98722Y-16352D01*
X98693Y-16429D01*
X98664Y-16467D01*
X98607Y-16505D01*
X98522Y-16505D01*
X98922Y-15971D02*
X99036Y-16505D01*
X99150Y-16124D01*
X99265Y-16505D01*
X99379Y-15971D01*
X99579Y-16467D02*
X99636Y-16505D01*
X99751Y-16505D01*
X99808Y-16467D01*
X99836Y-16391D01*
X99836Y-16352D01*
X99808Y-16276D01*
X99751Y-16238D01*
X99665Y-16238D01*
X99608Y-16200D01*
X99579Y-16124D01*
X99579Y-16086D01*
X99608Y-16010D01*
X99665Y-15971D01*
X99751Y-15971D01*
X99808Y-16010D01*
X100094Y-16429D02*
X100122Y-16467D01*
X100094Y-16505D01*
X100065Y-16467D01*
X100094Y-16429D01*
X100094Y-16505D01*
X100094Y-16010D02*
X100122Y-16048D01*
X100094Y-16086D01*
X100065Y-16048D01*
X100094Y-16010D01*
X100094Y-16086D01*
X68647Y-15054D02*
X68590Y-15016D01*
X68504Y-15016D01*
X68419Y-15054D01*
X68361Y-15130D01*
X68333Y-15206D01*
X68304Y-15359D01*
X68304Y-15473D01*
X68333Y-15625D01*
X68361Y-15702D01*
X68419Y-15778D01*
X68504Y-15816D01*
X68561Y-15816D01*
X68647Y-15778D01*
X68676Y-15740D01*
X68676Y-15473D01*
X68561Y-15473D01*
X69161Y-15778D02*
X69104Y-15816D01*
X68990Y-15816D01*
X68933Y-15778D01*
X68904Y-15702D01*
X68904Y-15397D01*
X68933Y-15321D01*
X68990Y-15282D01*
X69104Y-15282D01*
X69161Y-15321D01*
X69190Y-15397D01*
X69190Y-15473D01*
X68904Y-15549D01*
X69447Y-15282D02*
X69447Y-15816D01*
X69447Y-15359D02*
X69475Y-15321D01*
X69533Y-15282D01*
X69618Y-15282D01*
X69675Y-15321D01*
X69704Y-15397D01*
X69704Y-15816D01*
X70218Y-15778D02*
X70161Y-15816D01*
X70047Y-15816D01*
X69990Y-15778D01*
X69961Y-15702D01*
X69961Y-15397D01*
X69990Y-15321D01*
X70047Y-15282D01*
X70161Y-15282D01*
X70218Y-15321D01*
X70247Y-15397D01*
X70247Y-15473D01*
X69961Y-15549D01*
X70504Y-15816D02*
X70504Y-15282D01*
X70504Y-15435D02*
X70532Y-15359D01*
X70561Y-15321D01*
X70618Y-15282D01*
X70675Y-15282D01*
X71132Y-15816D02*
X71132Y-15397D01*
X71103Y-15321D01*
X71046Y-15282D01*
X70932Y-15282D01*
X70875Y-15321D01*
X71132Y-15778D02*
X71075Y-15816D01*
X70932Y-15816D01*
X70875Y-15778D01*
X70846Y-15702D01*
X70846Y-15625D01*
X70875Y-15549D01*
X70932Y-15511D01*
X71075Y-15511D01*
X71132Y-15473D01*
X71504Y-15816D02*
X71446Y-15778D01*
X71418Y-15702D01*
X71418Y-15016D01*
X72189Y-15816D02*
X72189Y-15016D01*
X72475Y-15282D02*
X72475Y-15816D01*
X72475Y-15359D02*
X72503Y-15321D01*
X72561Y-15282D01*
X72646Y-15282D01*
X72703Y-15321D01*
X72732Y-15397D01*
X72732Y-15816D01*
X72932Y-15282D02*
X73161Y-15282D01*
X73018Y-15816D02*
X73018Y-15130D01*
X73046Y-15054D01*
X73104Y-15016D01*
X73161Y-15016D01*
X73447Y-15816D02*
X73389Y-15778D01*
X73361Y-15740D01*
X73332Y-15663D01*
X73332Y-15435D01*
X73361Y-15359D01*
X73389Y-15321D01*
X73447Y-15282D01*
X73532Y-15282D01*
X73589Y-15321D01*
X73618Y-15359D01*
X73647Y-15435D01*
X73647Y-15663D01*
X73618Y-15740D01*
X73589Y-15778D01*
X73532Y-15816D01*
X73447Y-15816D01*
X67775Y-16751D02*
X68232Y-16751D01*
X68518Y-16751D02*
X68975Y-16751D01*
X69261Y-16751D02*
X69718Y-16751D01*
X70004Y-16751D02*
X70461Y-16751D01*
X70747Y-16751D02*
X71204Y-16751D01*
X71490Y-16751D02*
X71947Y-16751D01*
X72233Y-16751D02*
X72690Y-16751D01*
X72976Y-16751D02*
X73433Y-16751D01*
X73719Y-16751D02*
X74176Y-16751D01*
X62405Y-19117D02*
X62491Y-19155D01*
X62519Y-19193D01*
X62548Y-19269D01*
X62548Y-19383D01*
X62519Y-19460D01*
X62491Y-19498D01*
X62433Y-19536D01*
X62205Y-19536D01*
X62205Y-18736D01*
X62405Y-18736D01*
X62462Y-18774D01*
X62491Y-18812D01*
X62519Y-18888D01*
X62519Y-18964D01*
X62491Y-19041D01*
X62462Y-19079D01*
X62405Y-19117D01*
X62205Y-19117D01*
X62891Y-19536D02*
X62833Y-19498D01*
X62805Y-19460D01*
X62776Y-19383D01*
X62776Y-19155D01*
X62805Y-19079D01*
X62833Y-19041D01*
X62891Y-19002D01*
X62976Y-19002D01*
X63033Y-19041D01*
X63062Y-19079D01*
X63091Y-19155D01*
X63091Y-19383D01*
X63062Y-19460D01*
X63033Y-19498D01*
X62976Y-19536D01*
X62891Y-19536D01*
X63605Y-19536D02*
X63605Y-19117D01*
X63576Y-19041D01*
X63519Y-19002D01*
X63405Y-19002D01*
X63348Y-19041D01*
X63605Y-19498D02*
X63548Y-19536D01*
X63405Y-19536D01*
X63348Y-19498D01*
X63319Y-19422D01*
X63319Y-19345D01*
X63348Y-19269D01*
X63405Y-19231D01*
X63548Y-19231D01*
X63605Y-19193D01*
X63891Y-19536D02*
X63891Y-19002D01*
X63891Y-19155D02*
X63919Y-19079D01*
X63948Y-19041D01*
X64005Y-19002D01*
X64062Y-19002D01*
X64519Y-19536D02*
X64519Y-18736D01*
X64519Y-19498D02*
X64462Y-19536D01*
X64348Y-19536D01*
X64290Y-19498D01*
X64262Y-19460D01*
X64233Y-19383D01*
X64233Y-19155D01*
X64262Y-19079D01*
X64290Y-19041D01*
X64348Y-19002D01*
X64462Y-19002D01*
X64519Y-19041D01*
X65262Y-19536D02*
X65262Y-18736D01*
X65405Y-18736D01*
X65490Y-18774D01*
X65548Y-18850D01*
X65576Y-18926D01*
X65605Y-19079D01*
X65605Y-19193D01*
X65576Y-19345D01*
X65548Y-19422D01*
X65490Y-19498D01*
X65405Y-19536D01*
X65262Y-19536D01*
X65862Y-19536D02*
X65862Y-19002D01*
X65862Y-18736D02*
X65833Y-18774D01*
X65862Y-18812D01*
X65890Y-18774D01*
X65862Y-18736D01*
X65862Y-18812D01*
X66148Y-19536D02*
X66148Y-19002D01*
X66148Y-19079D02*
X66176Y-19041D01*
X66234Y-19002D01*
X66319Y-19002D01*
X66376Y-19041D01*
X66405Y-19117D01*
X66405Y-19536D01*
X66405Y-19117D02*
X66434Y-19041D01*
X66491Y-19002D01*
X66576Y-19002D01*
X66634Y-19041D01*
X66662Y-19117D01*
X66662Y-19536D01*
X67176Y-19498D02*
X67119Y-19536D01*
X67005Y-19536D01*
X66948Y-19498D01*
X66919Y-19422D01*
X66919Y-19117D01*
X66948Y-19041D01*
X67005Y-19002D01*
X67119Y-19002D01*
X67176Y-19041D01*
X67205Y-19117D01*
X67205Y-19193D01*
X66919Y-19269D01*
X67462Y-19002D02*
X67462Y-19536D01*
X67462Y-19079D02*
X67490Y-19041D01*
X67548Y-19002D01*
X67633Y-19002D01*
X67690Y-19041D01*
X67719Y-19117D01*
X67719Y-19536D01*
X67976Y-19498D02*
X68033Y-19536D01*
X68148Y-19536D01*
X68205Y-19498D01*
X68233Y-19422D01*
X68233Y-19383D01*
X68205Y-19307D01*
X68148Y-19269D01*
X68062Y-19269D01*
X68005Y-19231D01*
X67976Y-19155D01*
X67976Y-19117D01*
X68005Y-19041D01*
X68062Y-19002D01*
X68148Y-19002D01*
X68205Y-19041D01*
X68491Y-19536D02*
X68491Y-19002D01*
X68491Y-18736D02*
X68462Y-18774D01*
X68491Y-18812D01*
X68519Y-18774D01*
X68491Y-18736D01*
X68491Y-18812D01*
X68863Y-19536D02*
X68805Y-19498D01*
X68777Y-19460D01*
X68748Y-19383D01*
X68748Y-19155D01*
X68777Y-19079D01*
X68805Y-19041D01*
X68863Y-19002D01*
X68948Y-19002D01*
X69005Y-19041D01*
X69034Y-19079D01*
X69063Y-19155D01*
X69063Y-19383D01*
X69034Y-19460D01*
X69005Y-19498D01*
X68948Y-19536D01*
X68863Y-19536D01*
X69320Y-19002D02*
X69320Y-19536D01*
X69320Y-19079D02*
X69348Y-19041D01*
X69406Y-19002D01*
X69491Y-19002D01*
X69548Y-19041D01*
X69577Y-19117D01*
X69577Y-19536D01*
X69834Y-19498D02*
X69891Y-19536D01*
X70006Y-19536D01*
X70063Y-19498D01*
X70091Y-19422D01*
X70091Y-19383D01*
X70063Y-19307D01*
X70006Y-19269D01*
X69920Y-19269D01*
X69863Y-19231D01*
X69834Y-19155D01*
X69834Y-19117D01*
X69863Y-19041D01*
X69920Y-19002D01*
X70006Y-19002D01*
X70063Y-19041D01*
X70806Y-19231D02*
X71263Y-19231D01*
X72320Y-19536D02*
X71977Y-19536D01*
X72149Y-19536D02*
X72149Y-18736D01*
X72092Y-18850D01*
X72034Y-18926D01*
X71977Y-18964D01*
X72691Y-18736D02*
X72748Y-18736D01*
X72805Y-18774D01*
X72834Y-18812D01*
X72863Y-18888D01*
X72891Y-19041D01*
X72891Y-19231D01*
X72863Y-19383D01*
X72834Y-19460D01*
X72805Y-19498D01*
X72748Y-19536D01*
X72691Y-19536D01*
X72634Y-19498D01*
X72605Y-19460D01*
X72577Y-19383D01*
X72548Y-19231D01*
X72548Y-19041D01*
X72577Y-18888D01*
X72605Y-18812D01*
X72634Y-18774D01*
X72691Y-18736D01*
X73434Y-18736D02*
X73148Y-18736D01*
X73119Y-19117D01*
X73148Y-19079D01*
X73205Y-19041D01*
X73348Y-19041D01*
X73405Y-19079D01*
X73434Y-19117D01*
X73462Y-19193D01*
X73462Y-19383D01*
X73434Y-19460D01*
X73405Y-19498D01*
X73348Y-19536D01*
X73205Y-19536D01*
X73148Y-19498D01*
X73119Y-19460D01*
X73719Y-19536D02*
X73719Y-19002D01*
X73719Y-19079D02*
X73747Y-19041D01*
X73805Y-19002D01*
X73890Y-19002D01*
X73947Y-19041D01*
X73976Y-19117D01*
X73976Y-19536D01*
X73976Y-19117D02*
X74005Y-19041D01*
X74062Y-19002D01*
X74147Y-19002D01*
X74205Y-19041D01*
X74233Y-19117D01*
X74233Y-19536D01*
X74519Y-19536D02*
X74519Y-19002D01*
X74519Y-19079D02*
X74547Y-19041D01*
X74605Y-19002D01*
X74690Y-19002D01*
X74747Y-19041D01*
X74776Y-19117D01*
X74776Y-19536D01*
X74776Y-19117D02*
X74805Y-19041D01*
X74862Y-19002D01*
X74947Y-19002D01*
X75005Y-19041D01*
X75033Y-19117D01*
X75033Y-19536D01*
X75719Y-19536D02*
X76033Y-19002D01*
X75719Y-19002D02*
X76033Y-19536D01*
X77033Y-19536D02*
X76690Y-19536D01*
X76862Y-19536D02*
X76862Y-18736D01*
X76805Y-18850D01*
X76747Y-18926D01*
X76690Y-18964D01*
X77547Y-19002D02*
X77547Y-19536D01*
X77404Y-18698D02*
X77261Y-19269D01*
X77633Y-19269D01*
X77832Y-18812D02*
X77861Y-18774D01*
X77918Y-18736D01*
X78061Y-18736D01*
X78118Y-18774D01*
X78147Y-18812D01*
X78175Y-18888D01*
X78175Y-18964D01*
X78147Y-19079D01*
X77804Y-19536D01*
X78175Y-19536D01*
X78432Y-19536D02*
X78432Y-19002D01*
X78432Y-19079D02*
X78460Y-19041D01*
X78518Y-19002D01*
X78603Y-19002D01*
X78660Y-19041D01*
X78689Y-19117D01*
X78689Y-19536D01*
X78689Y-19117D02*
X78718Y-19041D01*
X78775Y-19002D01*
X78860Y-19002D01*
X78918Y-19041D01*
X78946Y-19117D01*
X78946Y-19536D01*
X79232Y-19536D02*
X79232Y-19002D01*
X79232Y-19079D02*
X79260Y-19041D01*
X79318Y-19002D01*
X79403Y-19002D01*
X79460Y-19041D01*
X79489Y-19117D01*
X79489Y-19536D01*
X79489Y-19117D02*
X79518Y-19041D01*
X79575Y-19002D01*
X79660Y-19002D01*
X79718Y-19041D01*
X79746Y-19117D01*
X79746Y-19536D01*
X65976Y-20776D02*
X65976Y-19976D01*
X66319Y-20776D01*
X66319Y-19976D01*
X66862Y-20242D02*
X66862Y-20776D01*
X66605Y-20242D02*
X66605Y-20662D01*
X66633Y-20738D01*
X66691Y-20776D01*
X66776Y-20776D01*
X66833Y-20738D01*
X66862Y-20700D01*
X67148Y-20776D02*
X67148Y-20242D01*
X67148Y-20319D02*
X67176Y-20281D01*
X67234Y-20242D01*
X67319Y-20242D01*
X67376Y-20281D01*
X67405Y-20357D01*
X67405Y-20776D01*
X67405Y-20357D02*
X67434Y-20281D01*
X67491Y-20242D01*
X67576Y-20242D01*
X67634Y-20281D01*
X67662Y-20357D01*
X67662Y-20776D01*
X67948Y-20776D02*
X67948Y-19976D01*
X67948Y-20281D02*
X68005Y-20242D01*
X68119Y-20242D01*
X68176Y-20281D01*
X68205Y-20319D01*
X68234Y-20395D01*
X68234Y-20623D01*
X68205Y-20700D01*
X68176Y-20738D01*
X68119Y-20776D01*
X68005Y-20776D01*
X67948Y-20738D01*
X68719Y-20738D02*
X68662Y-20776D01*
X68548Y-20776D01*
X68491Y-20738D01*
X68462Y-20662D01*
X68462Y-20357D01*
X68491Y-20281D01*
X68548Y-20242D01*
X68662Y-20242D01*
X68719Y-20281D01*
X68748Y-20357D01*
X68748Y-20433D01*
X68462Y-20509D01*
X69005Y-20776D02*
X69005Y-20242D01*
X69005Y-20395D02*
X69033Y-20319D01*
X69062Y-20281D01*
X69119Y-20242D01*
X69176Y-20242D01*
X69919Y-20776D02*
X69861Y-20738D01*
X69833Y-20700D01*
X69804Y-20623D01*
X69804Y-20395D01*
X69833Y-20319D01*
X69861Y-20281D01*
X69919Y-20242D01*
X70004Y-20242D01*
X70061Y-20281D01*
X70090Y-20319D01*
X70119Y-20395D01*
X70119Y-20623D01*
X70090Y-20700D01*
X70061Y-20738D01*
X70004Y-20776D01*
X69919Y-20776D01*
X70290Y-20242D02*
X70519Y-20242D01*
X70376Y-20776D02*
X70376Y-20090D01*
X70404Y-20014D01*
X70462Y-19976D01*
X70519Y-19976D01*
X71462Y-20776D02*
X71176Y-20776D01*
X71176Y-19976D01*
X71919Y-20776D02*
X71919Y-20357D01*
X71890Y-20281D01*
X71833Y-20242D01*
X71719Y-20242D01*
X71662Y-20281D01*
X71919Y-20738D02*
X71862Y-20776D01*
X71719Y-20776D01*
X71662Y-20738D01*
X71633Y-20662D01*
X71633Y-20585D01*
X71662Y-20509D01*
X71719Y-20471D01*
X71862Y-20471D01*
X71919Y-20433D01*
X72148Y-20242D02*
X72291Y-20776D01*
X72433Y-20242D02*
X72291Y-20776D01*
X72233Y-20966D01*
X72205Y-21004D01*
X72148Y-21042D01*
X72890Y-20738D02*
X72833Y-20776D01*
X72719Y-20776D01*
X72662Y-20738D01*
X72633Y-20662D01*
X72633Y-20357D01*
X72662Y-20281D01*
X72719Y-20242D01*
X72833Y-20242D01*
X72890Y-20281D01*
X72919Y-20357D01*
X72919Y-20433D01*
X72633Y-20509D01*
X73176Y-20776D02*
X73176Y-20242D01*
X73176Y-20395D02*
X73204Y-20319D01*
X73233Y-20281D01*
X73290Y-20242D01*
X73347Y-20242D01*
X73518Y-20738D02*
X73575Y-20776D01*
X73690Y-20776D01*
X73747Y-20738D01*
X73775Y-20662D01*
X73775Y-20623D01*
X73747Y-20547D01*
X73690Y-20509D01*
X73604Y-20509D01*
X73547Y-20471D01*
X73518Y-20395D01*
X73518Y-20357D01*
X73547Y-20281D01*
X73604Y-20242D01*
X73690Y-20242D01*
X73747Y-20281D01*
X74490Y-20471D02*
X74947Y-20471D01*
X75947Y-20242D02*
X75947Y-20776D01*
X75804Y-19938D02*
X75661Y-20509D01*
X76033Y-20509D01*
X66176Y-21978D02*
X66262Y-22016D01*
X66405Y-22016D01*
X66462Y-21978D01*
X66491Y-21940D01*
X66519Y-21863D01*
X66519Y-21787D01*
X66491Y-21711D01*
X66462Y-21673D01*
X66405Y-21635D01*
X66291Y-21597D01*
X66233Y-21559D01*
X66205Y-21521D01*
X66176Y-21444D01*
X66176Y-21368D01*
X66205Y-21292D01*
X66233Y-21254D01*
X66291Y-21216D01*
X66433Y-21216D01*
X66519Y-21254D01*
X66776Y-22016D02*
X66776Y-21482D01*
X66776Y-21559D02*
X66804Y-21521D01*
X66862Y-21482D01*
X66947Y-21482D01*
X67004Y-21521D01*
X67033Y-21597D01*
X67033Y-22016D01*
X67033Y-21597D02*
X67062Y-21521D01*
X67119Y-21482D01*
X67204Y-21482D01*
X67262Y-21521D01*
X67290Y-21597D01*
X67290Y-22016D01*
X67833Y-22016D02*
X67833Y-21597D01*
X67804Y-21521D01*
X67747Y-21482D01*
X67633Y-21482D01*
X67576Y-21521D01*
X67833Y-21978D02*
X67776Y-22016D01*
X67633Y-22016D01*
X67576Y-21978D01*
X67547Y-21902D01*
X67547Y-21825D01*
X67576Y-21749D01*
X67633Y-21711D01*
X67776Y-21711D01*
X67833Y-21673D01*
X68205Y-22016D02*
X68147Y-21978D01*
X68119Y-21902D01*
X68119Y-21216D01*
X68519Y-22016D02*
X68461Y-21978D01*
X68433Y-21902D01*
X68433Y-21216D01*
X68975Y-21978D02*
X68918Y-22016D01*
X68804Y-22016D01*
X68747Y-21978D01*
X68718Y-21902D01*
X68718Y-21597D01*
X68747Y-21521D01*
X68804Y-21482D01*
X68918Y-21482D01*
X68975Y-21521D01*
X69004Y-21597D01*
X69004Y-21673D01*
X68718Y-21749D01*
X69232Y-21978D02*
X69289Y-22016D01*
X69404Y-22016D01*
X69461Y-21978D01*
X69489Y-21902D01*
X69489Y-21863D01*
X69461Y-21787D01*
X69404Y-21749D01*
X69318Y-21749D01*
X69261Y-21711D01*
X69232Y-21635D01*
X69232Y-21597D01*
X69261Y-21521D01*
X69318Y-21482D01*
X69404Y-21482D01*
X69461Y-21521D01*
X69661Y-21482D02*
X69890Y-21482D01*
X69747Y-21216D02*
X69747Y-21902D01*
X69775Y-21978D01*
X69833Y-22016D01*
X69890Y-22016D01*
X70547Y-22016D02*
X70547Y-21216D01*
X70547Y-21597D02*
X70890Y-21597D01*
X70890Y-22016D02*
X70890Y-21216D01*
X71262Y-22016D02*
X71204Y-21978D01*
X71176Y-21940D01*
X71147Y-21863D01*
X71147Y-21635D01*
X71176Y-21559D01*
X71204Y-21521D01*
X71262Y-21482D01*
X71347Y-21482D01*
X71404Y-21521D01*
X71433Y-21559D01*
X71462Y-21635D01*
X71462Y-21863D01*
X71433Y-21940D01*
X71404Y-21978D01*
X71347Y-22016D01*
X71262Y-22016D01*
X71805Y-22016D02*
X71747Y-21978D01*
X71719Y-21902D01*
X71719Y-21216D01*
X72261Y-21978D02*
X72204Y-22016D01*
X72090Y-22016D01*
X72033Y-21978D01*
X72004Y-21902D01*
X72004Y-21597D01*
X72033Y-21521D01*
X72090Y-21482D01*
X72204Y-21482D01*
X72261Y-21521D01*
X72290Y-21597D01*
X72290Y-21673D01*
X72004Y-21749D01*
X73118Y-21216D02*
X73175Y-21216D01*
X73232Y-21254D01*
X73261Y-21292D01*
X73290Y-21368D01*
X73318Y-21521D01*
X73318Y-21711D01*
X73290Y-21863D01*
X73261Y-21940D01*
X73232Y-21978D01*
X73175Y-22016D01*
X73118Y-22016D01*
X73061Y-21978D01*
X73032Y-21940D01*
X73004Y-21863D01*
X72975Y-21711D01*
X72975Y-21521D01*
X73004Y-21368D01*
X73032Y-21292D01*
X73061Y-21254D01*
X73118Y-21216D01*
X73575Y-21940D02*
X73603Y-21978D01*
X73575Y-22016D01*
X73546Y-21978D01*
X73575Y-21940D01*
X73575Y-22016D01*
X73832Y-21292D02*
X73861Y-21254D01*
X73918Y-21216D01*
X74061Y-21216D01*
X74118Y-21254D01*
X74147Y-21292D01*
X74175Y-21368D01*
X74175Y-21444D01*
X74147Y-21559D01*
X73804Y-22016D01*
X74175Y-22016D01*
X74432Y-22016D02*
X74432Y-21482D01*
X74432Y-21559D02*
X74460Y-21521D01*
X74518Y-21482D01*
X74603Y-21482D01*
X74660Y-21521D01*
X74689Y-21597D01*
X74689Y-22016D01*
X74689Y-21597D02*
X74718Y-21521D01*
X74775Y-21482D01*
X74860Y-21482D01*
X74918Y-21521D01*
X74946Y-21597D01*
X74946Y-22016D01*
X75232Y-22016D02*
X75232Y-21482D01*
X75232Y-21559D02*
X75260Y-21521D01*
X75318Y-21482D01*
X75403Y-21482D01*
X75460Y-21521D01*
X75489Y-21597D01*
X75489Y-22016D01*
X75489Y-21597D02*
X75518Y-21521D01*
X75575Y-21482D01*
X75660Y-21482D01*
X75718Y-21521D01*
X75746Y-21597D01*
X75746Y-22016D01*
X63619Y-23256D02*
X63619Y-22456D01*
X63962Y-23256D01*
X63962Y-22456D01*
X64505Y-22722D02*
X64505Y-23256D01*
X64248Y-22722D02*
X64248Y-23142D01*
X64276Y-23218D01*
X64334Y-23256D01*
X64419Y-23256D01*
X64476Y-23218D01*
X64505Y-23180D01*
X64791Y-23256D02*
X64791Y-22722D01*
X64791Y-22799D02*
X64819Y-22761D01*
X64877Y-22722D01*
X64962Y-22722D01*
X65019Y-22761D01*
X65048Y-22837D01*
X65048Y-23256D01*
X65048Y-22837D02*
X65077Y-22761D01*
X65134Y-22722D01*
X65219Y-22722D01*
X65277Y-22761D01*
X65305Y-22837D01*
X65305Y-23256D01*
X65591Y-23256D02*
X65591Y-22456D01*
X65591Y-22761D02*
X65648Y-22722D01*
X65762Y-22722D01*
X65819Y-22761D01*
X65848Y-22799D01*
X65877Y-22875D01*
X65877Y-23103D01*
X65848Y-23180D01*
X65819Y-23218D01*
X65762Y-23256D01*
X65648Y-23256D01*
X65591Y-23218D01*
X66362Y-23218D02*
X66305Y-23256D01*
X66191Y-23256D01*
X66134Y-23218D01*
X66105Y-23142D01*
X66105Y-22837D01*
X66134Y-22761D01*
X66191Y-22722D01*
X66305Y-22722D01*
X66362Y-22761D01*
X66391Y-22837D01*
X66391Y-22913D01*
X66105Y-22989D01*
X66648Y-23256D02*
X66648Y-22722D01*
X66648Y-22875D02*
X66676Y-22799D01*
X66705Y-22761D01*
X66762Y-22722D01*
X66819Y-22722D01*
X67562Y-23256D02*
X67504Y-23218D01*
X67476Y-23180D01*
X67447Y-23103D01*
X67447Y-22875D01*
X67476Y-22799D01*
X67504Y-22761D01*
X67562Y-22722D01*
X67647Y-22722D01*
X67704Y-22761D01*
X67733Y-22799D01*
X67762Y-22875D01*
X67762Y-23103D01*
X67733Y-23180D01*
X67704Y-23218D01*
X67647Y-23256D01*
X67562Y-23256D01*
X67933Y-22722D02*
X68162Y-22722D01*
X68019Y-23256D02*
X68019Y-22570D01*
X68047Y-22494D01*
X68105Y-22456D01*
X68162Y-22456D01*
X68819Y-23256D02*
X68819Y-22456D01*
X69076Y-23256D02*
X69076Y-22837D01*
X69047Y-22761D01*
X68990Y-22722D01*
X68905Y-22722D01*
X68847Y-22761D01*
X68819Y-22799D01*
X69448Y-23256D02*
X69390Y-23218D01*
X69362Y-23180D01*
X69333Y-23103D01*
X69333Y-22875D01*
X69362Y-22799D01*
X69390Y-22761D01*
X69448Y-22722D01*
X69533Y-22722D01*
X69590Y-22761D01*
X69619Y-22799D01*
X69648Y-22875D01*
X69648Y-23103D01*
X69619Y-23180D01*
X69590Y-23218D01*
X69533Y-23256D01*
X69448Y-23256D01*
X69991Y-23256D02*
X69933Y-23218D01*
X69905Y-23142D01*
X69905Y-22456D01*
X70447Y-23218D02*
X70390Y-23256D01*
X70276Y-23256D01*
X70219Y-23218D01*
X70190Y-23142D01*
X70190Y-22837D01*
X70219Y-22761D01*
X70276Y-22722D01*
X70390Y-22722D01*
X70447Y-22761D01*
X70476Y-22837D01*
X70476Y-22913D01*
X70190Y-22989D01*
X70704Y-23218D02*
X70761Y-23256D01*
X70876Y-23256D01*
X70933Y-23218D01*
X70961Y-23142D01*
X70961Y-23103D01*
X70933Y-23027D01*
X70876Y-22989D01*
X70790Y-22989D01*
X70733Y-22951D01*
X70704Y-22875D01*
X70704Y-22837D01*
X70733Y-22761D01*
X70790Y-22722D01*
X70876Y-22722D01*
X70933Y-22761D01*
X71676Y-22951D02*
X72133Y-22951D01*
X72847Y-23027D02*
X73133Y-23027D01*
X72790Y-23256D02*
X72990Y-22456D01*
X73190Y-23256D01*
X73390Y-22722D02*
X73390Y-23522D01*
X73390Y-22761D02*
X73447Y-22722D01*
X73561Y-22722D01*
X73618Y-22761D01*
X73647Y-22799D01*
X73676Y-22875D01*
X73676Y-23103D01*
X73647Y-23180D01*
X73618Y-23218D01*
X73561Y-23256D01*
X73447Y-23256D01*
X73390Y-23218D01*
X73933Y-22722D02*
X73933Y-23522D01*
X73933Y-22761D02*
X73990Y-22722D01*
X74104Y-22722D01*
X74161Y-22761D01*
X74190Y-22799D01*
X74219Y-22875D01*
X74219Y-23103D01*
X74190Y-23180D01*
X74161Y-23218D01*
X74104Y-23256D01*
X73990Y-23256D01*
X73933Y-23218D01*
X74476Y-23256D02*
X74476Y-22722D01*
X74476Y-22875D02*
X74504Y-22799D01*
X74533Y-22761D01*
X74590Y-22722D01*
X74647Y-22722D01*
X74933Y-23256D02*
X74875Y-23218D01*
X74847Y-23180D01*
X74818Y-23103D01*
X74818Y-22875D01*
X74847Y-22799D01*
X74875Y-22761D01*
X74933Y-22722D01*
X75018Y-22722D01*
X75075Y-22761D01*
X75104Y-22799D01*
X75133Y-22875D01*
X75133Y-23103D01*
X75104Y-23180D01*
X75075Y-23218D01*
X75018Y-23256D01*
X74933Y-23256D01*
X75333Y-23256D02*
X75647Y-22722D01*
X75333Y-22722D02*
X75647Y-23256D01*
X76647Y-23256D02*
X76304Y-23256D01*
X76476Y-23256D02*
X76476Y-22456D01*
X76419Y-22570D01*
X76361Y-22646D01*
X76304Y-22684D01*
X77018Y-22456D02*
X77075Y-22456D01*
X77132Y-22494D01*
X77161Y-22532D01*
X77190Y-22608D01*
X77218Y-22761D01*
X77218Y-22951D01*
X77190Y-23103D01*
X77161Y-23180D01*
X77132Y-23218D01*
X77075Y-23256D01*
X77018Y-23256D01*
X76961Y-23218D01*
X76932Y-23180D01*
X76904Y-23103D01*
X76875Y-22951D01*
X76875Y-22761D01*
X76904Y-22608D01*
X76932Y-22532D01*
X76961Y-22494D01*
X77018Y-22456D01*
X77418Y-22456D02*
X77818Y-22456D01*
X77561Y-23256D01*
X78332Y-22456D02*
X78046Y-22456D01*
X78017Y-22837D01*
X78046Y-22799D01*
X78103Y-22761D01*
X78246Y-22761D01*
X78303Y-22799D01*
X78332Y-22837D01*
X78360Y-22913D01*
X78360Y-23103D01*
X78332Y-23180D01*
X78303Y-23218D01*
X78246Y-23256D01*
X78103Y-23256D01*
X78046Y-23218D01*
X78017Y-23180D01*
X62990Y-24496D02*
X62990Y-23696D01*
X63190Y-24267D01*
X63390Y-23696D01*
X63390Y-24496D01*
X63676Y-24496D02*
X63676Y-23962D01*
X63676Y-23696D02*
X63647Y-23734D01*
X63676Y-23772D01*
X63704Y-23734D01*
X63676Y-23696D01*
X63676Y-23772D01*
X63962Y-23962D02*
X63962Y-24496D01*
X63962Y-24039D02*
X63990Y-24001D01*
X64048Y-23962D01*
X64133Y-23962D01*
X64190Y-24001D01*
X64219Y-24077D01*
X64219Y-24496D01*
X64505Y-24496D02*
X64505Y-23962D01*
X64505Y-23696D02*
X64476Y-23734D01*
X64505Y-23772D01*
X64533Y-23734D01*
X64505Y-23696D01*
X64505Y-23772D01*
X64791Y-24496D02*
X64791Y-23962D01*
X64791Y-24039D02*
X64819Y-24001D01*
X64877Y-23962D01*
X64962Y-23962D01*
X65019Y-24001D01*
X65048Y-24077D01*
X65048Y-24496D01*
X65048Y-24077D02*
X65077Y-24001D01*
X65134Y-23962D01*
X65219Y-23962D01*
X65277Y-24001D01*
X65305Y-24077D01*
X65305Y-24496D01*
X65848Y-23962D02*
X65848Y-24496D01*
X65591Y-23962D02*
X65591Y-24382D01*
X65619Y-24458D01*
X65677Y-24496D01*
X65762Y-24496D01*
X65819Y-24458D01*
X65848Y-24420D01*
X66134Y-24496D02*
X66134Y-23962D01*
X66134Y-24039D02*
X66162Y-24001D01*
X66220Y-23962D01*
X66305Y-23962D01*
X66362Y-24001D01*
X66391Y-24077D01*
X66391Y-24496D01*
X66391Y-24077D02*
X66420Y-24001D01*
X66477Y-23962D01*
X66562Y-23962D01*
X66620Y-24001D01*
X66648Y-24077D01*
X66648Y-24496D01*
X67305Y-23696D02*
X67648Y-23696D01*
X67477Y-24496D02*
X67477Y-23696D01*
X67848Y-24496D02*
X67848Y-23962D01*
X67848Y-24115D02*
X67876Y-24039D01*
X67905Y-24001D01*
X67962Y-23962D01*
X68019Y-23962D01*
X68476Y-24496D02*
X68476Y-24077D01*
X68447Y-24001D01*
X68390Y-23962D01*
X68276Y-23962D01*
X68219Y-24001D01*
X68476Y-24458D02*
X68419Y-24496D01*
X68276Y-24496D01*
X68219Y-24458D01*
X68190Y-24382D01*
X68190Y-24305D01*
X68219Y-24229D01*
X68276Y-24191D01*
X68419Y-24191D01*
X68476Y-24153D01*
X69019Y-24458D02*
X68962Y-24496D01*
X68848Y-24496D01*
X68790Y-24458D01*
X68762Y-24420D01*
X68733Y-24343D01*
X68733Y-24115D01*
X68762Y-24039D01*
X68790Y-24001D01*
X68848Y-23962D01*
X68962Y-23962D01*
X69019Y-24001D01*
X69276Y-24496D02*
X69276Y-23696D01*
X69333Y-24191D02*
X69504Y-24496D01*
X69504Y-23962D02*
X69276Y-24267D01*
X70476Y-24496D02*
X70476Y-24077D01*
X70447Y-24001D01*
X70390Y-23962D01*
X70276Y-23962D01*
X70219Y-24001D01*
X70476Y-24458D02*
X70419Y-24496D01*
X70276Y-24496D01*
X70219Y-24458D01*
X70190Y-24382D01*
X70190Y-24305D01*
X70219Y-24229D01*
X70276Y-24191D01*
X70419Y-24191D01*
X70476Y-24153D01*
X70762Y-23962D02*
X70762Y-24496D01*
X70762Y-24039D02*
X70790Y-24001D01*
X70848Y-23962D01*
X70933Y-23962D01*
X70990Y-24001D01*
X71019Y-24077D01*
X71019Y-24496D01*
X71562Y-24496D02*
X71562Y-23696D01*
X71562Y-24458D02*
X71505Y-24496D01*
X71391Y-24496D01*
X71333Y-24458D01*
X71305Y-24420D01*
X71276Y-24343D01*
X71276Y-24115D01*
X71305Y-24039D01*
X71333Y-24001D01*
X71391Y-23962D01*
X71505Y-23962D01*
X71562Y-24001D01*
X72619Y-23734D02*
X72562Y-23696D01*
X72476Y-23696D01*
X72391Y-23734D01*
X72333Y-23810D01*
X72305Y-23886D01*
X72276Y-24039D01*
X72276Y-24153D01*
X72305Y-24305D01*
X72333Y-24382D01*
X72391Y-24458D01*
X72476Y-24496D01*
X72533Y-24496D01*
X72619Y-24458D01*
X72648Y-24420D01*
X72648Y-24153D01*
X72533Y-24153D01*
X73162Y-24496D02*
X73162Y-24077D01*
X73133Y-24001D01*
X73076Y-23962D01*
X72962Y-23962D01*
X72905Y-24001D01*
X73162Y-24458D02*
X73105Y-24496D01*
X72962Y-24496D01*
X72905Y-24458D01*
X72876Y-24382D01*
X72876Y-24305D01*
X72905Y-24229D01*
X72962Y-24191D01*
X73105Y-24191D01*
X73162Y-24153D01*
X73448Y-23962D02*
X73448Y-24762D01*
X73448Y-24001D02*
X73505Y-23962D01*
X73619Y-23962D01*
X73676Y-24001D01*
X73705Y-24039D01*
X73734Y-24115D01*
X73734Y-24343D01*
X73705Y-24420D01*
X73676Y-24458D01*
X73619Y-24496D01*
X73505Y-24496D01*
X73448Y-24458D01*
X74448Y-24191D02*
X74905Y-24191D01*
X75762Y-23696D02*
X75819Y-23696D01*
X75876Y-23734D01*
X75905Y-23772D01*
X75934Y-23848D01*
X75962Y-24001D01*
X75962Y-24191D01*
X75934Y-24343D01*
X75905Y-24420D01*
X75876Y-24458D01*
X75819Y-24496D01*
X75762Y-24496D01*
X75705Y-24458D01*
X75676Y-24420D01*
X75648Y-24343D01*
X75619Y-24191D01*
X75619Y-24001D01*
X75648Y-23848D01*
X75676Y-23772D01*
X75705Y-23734D01*
X75762Y-23696D01*
X76219Y-24420D02*
X76247Y-24458D01*
X76219Y-24496D01*
X76190Y-24458D01*
X76219Y-24420D01*
X76219Y-24496D01*
X76819Y-24496D02*
X76476Y-24496D01*
X76648Y-24496D02*
X76648Y-23696D01*
X76591Y-23810D01*
X76533Y-23886D01*
X76476Y-23924D01*
X77362Y-23696D02*
X77076Y-23696D01*
X77047Y-24077D01*
X77076Y-24039D01*
X77133Y-24001D01*
X77276Y-24001D01*
X77333Y-24039D01*
X77362Y-24077D01*
X77390Y-24153D01*
X77390Y-24343D01*
X77362Y-24420D01*
X77333Y-24458D01*
X77276Y-24496D01*
X77133Y-24496D01*
X77076Y-24458D01*
X77047Y-24420D01*
X77647Y-24496D02*
X77647Y-23962D01*
X77647Y-24039D02*
X77675Y-24001D01*
X77733Y-23962D01*
X77818Y-23962D01*
X77875Y-24001D01*
X77904Y-24077D01*
X77904Y-24496D01*
X77904Y-24077D02*
X77933Y-24001D01*
X77990Y-23962D01*
X78075Y-23962D01*
X78133Y-24001D01*
X78161Y-24077D01*
X78161Y-24496D01*
X78447Y-24496D02*
X78447Y-23962D01*
X78447Y-24039D02*
X78475Y-24001D01*
X78533Y-23962D01*
X78618Y-23962D01*
X78675Y-24001D01*
X78704Y-24077D01*
X78704Y-24496D01*
X78704Y-24077D02*
X78733Y-24001D01*
X78790Y-23962D01*
X78875Y-23962D01*
X78933Y-24001D01*
X78961Y-24077D01*
X78961Y-24496D01*
X65661Y-25736D02*
X65661Y-24936D01*
X66004Y-25736D02*
X65747Y-25279D01*
X66004Y-24936D02*
X65661Y-25393D01*
X66261Y-25202D02*
X66261Y-25736D01*
X66261Y-25279D02*
X66289Y-25241D01*
X66347Y-25202D01*
X66432Y-25202D01*
X66489Y-25241D01*
X66518Y-25317D01*
X66518Y-25736D01*
X66890Y-25736D02*
X66832Y-25698D01*
X66804Y-25660D01*
X66775Y-25583D01*
X66775Y-25355D01*
X66804Y-25279D01*
X66832Y-25241D01*
X66890Y-25202D01*
X66975Y-25202D01*
X67032Y-25241D01*
X67061Y-25279D01*
X67090Y-25355D01*
X67090Y-25583D01*
X67061Y-25660D01*
X67032Y-25698D01*
X66975Y-25736D01*
X66890Y-25736D01*
X67290Y-25202D02*
X67404Y-25736D01*
X67518Y-25355D01*
X67633Y-25736D01*
X67747Y-25202D01*
X67976Y-25202D02*
X67976Y-25736D01*
X67976Y-25279D02*
X68004Y-25241D01*
X68062Y-25202D01*
X68147Y-25202D01*
X68204Y-25241D01*
X68233Y-25317D01*
X68233Y-25736D01*
X69290Y-24974D02*
X69233Y-24936D01*
X69147Y-24936D01*
X69062Y-24974D01*
X69004Y-25050D01*
X68976Y-25126D01*
X68947Y-25279D01*
X68947Y-25393D01*
X68976Y-25545D01*
X69004Y-25622D01*
X69062Y-25698D01*
X69147Y-25736D01*
X69204Y-25736D01*
X69290Y-25698D01*
X69319Y-25660D01*
X69319Y-25393D01*
X69204Y-25393D01*
X69662Y-25736D02*
X69604Y-25698D01*
X69576Y-25660D01*
X69547Y-25583D01*
X69547Y-25355D01*
X69576Y-25279D01*
X69604Y-25241D01*
X69662Y-25202D01*
X69747Y-25202D01*
X69804Y-25241D01*
X69833Y-25279D01*
X69862Y-25355D01*
X69862Y-25583D01*
X69833Y-25660D01*
X69804Y-25698D01*
X69747Y-25736D01*
X69662Y-25736D01*
X70205Y-25736D02*
X70147Y-25698D01*
X70119Y-25660D01*
X70090Y-25583D01*
X70090Y-25355D01*
X70119Y-25279D01*
X70147Y-25241D01*
X70205Y-25202D01*
X70290Y-25202D01*
X70347Y-25241D01*
X70376Y-25279D01*
X70405Y-25355D01*
X70405Y-25583D01*
X70376Y-25660D01*
X70347Y-25698D01*
X70290Y-25736D01*
X70205Y-25736D01*
X70919Y-25736D02*
X70919Y-24936D01*
X70919Y-25698D02*
X70862Y-25736D01*
X70748Y-25736D01*
X70690Y-25698D01*
X70662Y-25660D01*
X70633Y-25583D01*
X70633Y-25355D01*
X70662Y-25279D01*
X70690Y-25241D01*
X70748Y-25202D01*
X70862Y-25202D01*
X70919Y-25241D01*
X71662Y-25317D02*
X71862Y-25317D01*
X71948Y-25736D02*
X71662Y-25736D01*
X71662Y-24936D01*
X71948Y-24936D01*
X72205Y-25736D02*
X72205Y-25202D01*
X72205Y-25355D02*
X72233Y-25279D01*
X72262Y-25241D01*
X72319Y-25202D01*
X72376Y-25202D01*
X72576Y-25736D02*
X72576Y-25202D01*
X72576Y-25355D02*
X72604Y-25279D01*
X72633Y-25241D01*
X72690Y-25202D01*
X72747Y-25202D01*
X73033Y-25736D02*
X72975Y-25698D01*
X72947Y-25660D01*
X72918Y-25583D01*
X72918Y-25355D01*
X72947Y-25279D01*
X72975Y-25241D01*
X73033Y-25202D01*
X73118Y-25202D01*
X73175Y-25241D01*
X73204Y-25279D01*
X73233Y-25355D01*
X73233Y-25583D01*
X73204Y-25660D01*
X73175Y-25698D01*
X73118Y-25736D01*
X73033Y-25736D01*
X73490Y-25736D02*
X73490Y-25202D01*
X73490Y-25355D02*
X73518Y-25279D01*
X73547Y-25241D01*
X73604Y-25202D01*
X73661Y-25202D01*
X73832Y-25698D02*
X73889Y-25736D01*
X74004Y-25736D01*
X74061Y-25698D01*
X74089Y-25622D01*
X74089Y-25583D01*
X74061Y-25507D01*
X74004Y-25469D01*
X73918Y-25469D01*
X73861Y-25431D01*
X73832Y-25355D01*
X73832Y-25317D01*
X73861Y-25241D01*
X73918Y-25202D01*
X74004Y-25202D01*
X74061Y-25241D01*
X74804Y-25431D02*
X75261Y-25431D01*
X76118Y-24936D02*
X76175Y-24936D01*
X76232Y-24974D01*
X76261Y-25012D01*
X76290Y-25088D01*
X76318Y-25241D01*
X76318Y-25431D01*
X76290Y-25583D01*
X76261Y-25660D01*
X76232Y-25698D01*
X76175Y-25736D01*
X76118Y-25736D01*
X76061Y-25698D01*
X76032Y-25660D01*
X76004Y-25583D01*
X75975Y-25431D01*
X75975Y-25241D01*
X76004Y-25088D01*
X76032Y-25012D01*
X76061Y-24974D01*
X76118Y-24936D01*
X64391Y-12076D02*
X64391Y-11276D01*
X64619Y-11276D01*
X64677Y-11314D01*
X64705Y-11352D01*
X64734Y-11428D01*
X64734Y-11542D01*
X64705Y-11619D01*
X64677Y-11657D01*
X64619Y-11695D01*
X64391Y-11695D01*
X65334Y-12000D02*
X65305Y-12038D01*
X65219Y-12076D01*
X65162Y-12076D01*
X65077Y-12038D01*
X65019Y-11962D01*
X64991Y-11885D01*
X64962Y-11733D01*
X64962Y-11619D01*
X64991Y-11466D01*
X65019Y-11390D01*
X65077Y-11314D01*
X65162Y-11276D01*
X65219Y-11276D01*
X65305Y-11314D01*
X65334Y-11352D01*
X65791Y-11657D02*
X65877Y-11695D01*
X65905Y-11733D01*
X65934Y-11809D01*
X65934Y-11923D01*
X65905Y-12000D01*
X65877Y-12038D01*
X65819Y-12076D01*
X65591Y-12076D01*
X65591Y-11276D01*
X65791Y-11276D01*
X65848Y-11314D01*
X65877Y-11352D01*
X65905Y-11428D01*
X65905Y-11504D01*
X65877Y-11581D01*
X65848Y-11619D01*
X65791Y-11657D01*
X65591Y-11657D01*
X66648Y-12076D02*
X66648Y-11276D01*
X66848Y-11847D01*
X67048Y-11276D01*
X67048Y-12076D01*
X67591Y-12076D02*
X67591Y-11657D01*
X67562Y-11581D01*
X67505Y-11542D01*
X67391Y-11542D01*
X67334Y-11581D01*
X67591Y-12038D02*
X67534Y-12076D01*
X67391Y-12076D01*
X67334Y-12038D01*
X67305Y-11962D01*
X67305Y-11885D01*
X67334Y-11809D01*
X67391Y-11771D01*
X67534Y-11771D01*
X67591Y-11733D01*
X67877Y-11542D02*
X67877Y-12076D01*
X67877Y-11619D02*
X67905Y-11581D01*
X67963Y-11542D01*
X68048Y-11542D01*
X68105Y-11581D01*
X68134Y-11657D01*
X68134Y-12076D01*
X68677Y-11542D02*
X68677Y-12076D01*
X68420Y-11542D02*
X68420Y-11962D01*
X68448Y-12038D01*
X68506Y-12076D01*
X68591Y-12076D01*
X68648Y-12038D01*
X68677Y-12000D01*
X68877Y-11542D02*
X69106Y-11542D01*
X68963Y-12076D02*
X68963Y-11390D01*
X68991Y-11314D01*
X69049Y-11276D01*
X69106Y-11276D01*
X69563Y-12076D02*
X69563Y-11657D01*
X69534Y-11581D01*
X69477Y-11542D01*
X69363Y-11542D01*
X69306Y-11581D01*
X69563Y-12038D02*
X69506Y-12076D01*
X69363Y-12076D01*
X69306Y-12038D01*
X69277Y-11962D01*
X69277Y-11885D01*
X69306Y-11809D01*
X69363Y-11771D01*
X69506Y-11771D01*
X69563Y-11733D01*
X70106Y-12038D02*
X70049Y-12076D01*
X69935Y-12076D01*
X69877Y-12038D01*
X69849Y-12000D01*
X69820Y-11923D01*
X69820Y-11695D01*
X69849Y-11619D01*
X69877Y-11581D01*
X69935Y-11542D01*
X70049Y-11542D01*
X70106Y-11581D01*
X70277Y-11542D02*
X70506Y-11542D01*
X70363Y-11276D02*
X70363Y-11962D01*
X70391Y-12038D01*
X70449Y-12076D01*
X70506Y-12076D01*
X70963Y-11542D02*
X70963Y-12076D01*
X70706Y-11542D02*
X70706Y-11962D01*
X70734Y-12038D01*
X70792Y-12076D01*
X70877Y-12076D01*
X70934Y-12038D01*
X70963Y-12000D01*
X71249Y-12076D02*
X71249Y-11542D01*
X71249Y-11695D02*
X71277Y-11619D01*
X71306Y-11581D01*
X71363Y-11542D01*
X71420Y-11542D01*
X71620Y-12076D02*
X71620Y-11542D01*
X71620Y-11276D02*
X71591Y-11314D01*
X71620Y-11352D01*
X71648Y-11314D01*
X71620Y-11276D01*
X71620Y-11352D01*
X71906Y-11542D02*
X71906Y-12076D01*
X71906Y-11619D02*
X71934Y-11581D01*
X71992Y-11542D01*
X72077Y-11542D01*
X72134Y-11581D01*
X72163Y-11657D01*
X72163Y-12076D01*
X72706Y-11542D02*
X72706Y-12190D01*
X72677Y-12266D01*
X72649Y-12304D01*
X72592Y-12342D01*
X72506Y-12342D01*
X72449Y-12304D01*
X72706Y-12038D02*
X72649Y-12076D01*
X72535Y-12076D01*
X72477Y-12038D01*
X72449Y-12000D01*
X72420Y-11923D01*
X72420Y-11695D01*
X72449Y-11619D01*
X72477Y-11581D01*
X72535Y-11542D01*
X72649Y-11542D01*
X72706Y-11581D01*
X73449Y-12076D02*
X73449Y-11276D01*
X73735Y-11542D02*
X73735Y-12076D01*
X73735Y-11619D02*
X73763Y-11581D01*
X73821Y-11542D01*
X73906Y-11542D01*
X73963Y-11581D01*
X73992Y-11657D01*
X73992Y-12076D01*
X74192Y-11542D02*
X74421Y-11542D01*
X74278Y-12076D02*
X74278Y-11390D01*
X74306Y-11314D01*
X74364Y-11276D01*
X74421Y-11276D01*
X74707Y-12076D02*
X74649Y-12038D01*
X74621Y-12000D01*
X74592Y-11923D01*
X74592Y-11695D01*
X74621Y-11619D01*
X74649Y-11581D01*
X74707Y-11542D01*
X74792Y-11542D01*
X74849Y-11581D01*
X74878Y-11619D01*
X74907Y-11695D01*
X74907Y-11923D01*
X74878Y-12000D01*
X74849Y-12038D01*
X74792Y-12076D01*
X74707Y-12076D01*
X75164Y-12076D02*
X75164Y-11542D01*
X75164Y-11695D02*
X75192Y-11619D01*
X75221Y-11581D01*
X75278Y-11542D01*
X75335Y-11542D01*
X75535Y-12076D02*
X75535Y-11542D01*
X75535Y-11619D02*
X75563Y-11581D01*
X75621Y-11542D01*
X75706Y-11542D01*
X75763Y-11581D01*
X75792Y-11657D01*
X75792Y-12076D01*
X75792Y-11657D02*
X75821Y-11581D01*
X75878Y-11542D01*
X75963Y-11542D01*
X76021Y-11581D01*
X76049Y-11657D01*
X76049Y-12076D01*
X76592Y-12076D02*
X76592Y-11657D01*
X76563Y-11581D01*
X76506Y-11542D01*
X76392Y-11542D01*
X76335Y-11581D01*
X76592Y-12038D02*
X76535Y-12076D01*
X76392Y-12076D01*
X76335Y-12038D01*
X76306Y-11962D01*
X76306Y-11885D01*
X76335Y-11809D01*
X76392Y-11771D01*
X76535Y-11771D01*
X76592Y-11733D01*
X76792Y-11542D02*
X77021Y-11542D01*
X76878Y-11276D02*
X76878Y-11962D01*
X76906Y-12038D01*
X76964Y-12076D01*
X77021Y-12076D01*
X77221Y-12076D02*
X77221Y-11542D01*
X77221Y-11276D02*
X77192Y-11314D01*
X77221Y-11352D01*
X77249Y-11314D01*
X77221Y-11276D01*
X77221Y-11352D01*
X77593Y-12076D02*
X77535Y-12038D01*
X77507Y-12000D01*
X77478Y-11923D01*
X77478Y-11695D01*
X77507Y-11619D01*
X77535Y-11581D01*
X77593Y-11542D01*
X77678Y-11542D01*
X77735Y-11581D01*
X77764Y-11619D01*
X77793Y-11695D01*
X77793Y-11923D01*
X77764Y-12000D01*
X77735Y-12038D01*
X77678Y-12076D01*
X77593Y-12076D01*
X78050Y-11542D02*
X78050Y-12076D01*
X78050Y-11619D02*
X78078Y-11581D01*
X78136Y-11542D01*
X78221Y-11542D01*
X78278Y-11581D01*
X78307Y-11657D01*
X78307Y-12076D01*
X64062Y-13011D02*
X64519Y-13011D01*
X64805Y-13011D02*
X65262Y-13011D01*
X65548Y-13011D02*
X66005Y-13011D01*
X66291Y-13011D02*
X66748Y-13011D01*
X67034Y-13011D02*
X67491Y-13011D01*
X67777Y-13011D02*
X68234Y-13011D01*
X68520Y-13011D02*
X68977Y-13011D01*
X69263Y-13011D02*
X69720Y-13011D01*
X70006Y-13011D02*
X70463Y-13011D01*
X70749Y-13011D02*
X71206Y-13011D01*
X71492Y-13011D02*
X71949Y-13011D01*
X72235Y-13011D02*
X72692Y-13011D01*
X72978Y-13011D02*
X73435Y-13011D01*
X73721Y-13011D02*
X74178Y-13011D01*
X74464Y-13011D02*
X74921Y-13011D01*
X75207Y-13011D02*
X75664Y-13011D01*
X75950Y-13011D02*
X76407Y-13011D01*
X76693Y-13011D02*
X77150Y-13011D01*
X77436Y-13011D02*
X77893Y-13011D01*
X78179Y-13011D02*
X78636Y-13011D01*
M02*
